<?xml version="1.0" standalone="no"?>
<!DOCTYPE svg PUBLIC "-//W3C//DTD SVG 1.1//EN" "http://www.w3.org/Graphics/SVG/1.1/DTD/svg11.dtd" >
<svg xmlns="http://www.w3.org/2000/svg" xmlns:xlink="http://www.w3.org/1999/xlink" version="1.1">
<metadata>
Created by FontForge 20161003 at Wed Jan 16 19:40:53 2019
 By www-data
Copyright (c) 2010 by TypeTogether. All rights reserved.
</metadata>
<defs>
<font id="AdelleSageBoldItalic" horiz-adv-x="570" >
  <font-face 
    font-family="AdelleSageBoldItalic"
    font-weight="700"
    font-style="italic"
    font-stretch="normal"
    units-per-em="1000"
    panose-1="2 0 8 3 0 0 0 9 0 4"
    ascent="755"
    descent="-245"
    x-height="521"
    cap-height="724"
    bbox="-157 -293 1248 1087"
    underline-thickness="50"
    underline-position="-150"
    slope="-9"
    unicode-range="U+0020-FB06"
  />
<missing-glyph horiz-adv-x="500" 
 />
    <glyph glyph-name="ff" unicode="ff" horiz-adv-x="743" 
d="M359 -212l88 623q2 10 -7 10h-162l-89 -633h-149l89 623q2 10 -7 10h-65l13 100h74l7 48q15 100 67 141t131 41q47 0 92 -14.5t75 -34.5q27 35 67 50t91 15q48 0 95.5 -15.5t76.5 -37.5l-55 -93q-6 4 -16.5 10t-24 12t-29 10t-31.5 4q-33 0 -49 -17t-21 -50l-8 -59
q-1 -5 0 -7.5t7 -2.5h154l-14 -100h-163l-88 -633h-149zM293 531q-1 -5 0 -7.5t7 -2.5h163l12 84q-20 14 -47 25t-59 11t-48 -16.5t-21 -50.5z" />
    <glyph glyph-name="fi" unicode="fi" horiz-adv-x="642" 
d="M388 0l-3 5l24 135l37 261q3 19 -10 20h-158l-89 -633h-149l89 623q2 10 -7 10h-65l13 100h74l9 64q7 50 25.5 85t47 56.5t65 31t80.5 9.5q35 0 68 -6t61.5 -15t51.5 -20t38 -22l-55 -93q-12 7 -29 15t-36 15t-40 11.5t-40 4.5q-42 0 -63 -17.5t-26 -55.5l-8 -53
q-1 -5 0 -7.5t7 -2.5h311l-59 -420q-2 -12 0 -15t13 -5l48 -7l-9 -74h-216z" />
    <glyph glyph-name="fl" unicode="fl" horiz-adv-x="643" 
d="M388 0l-3 5l26 147l66 475q-20 11 -45.5 20.5t-52.5 9.5q-36 0 -54.5 -17t-23.5 -50l-8 -59q-1 -5 0 -7.5t7 -2.5h119l-14 -100h-127l-89 -633h-149l89 623q2 10 -7 10h-65l13 100h74l9 64q14 100 69.5 141t141.5 41q42 0 87.5 -12.5t78.5 -31.5l76 32h38l-92 -654
q-2 -12 0 -15t13 -5l48 -7l-9 -74h-216z" />
    <glyph glyph-name="ffi" unicode="ffi" horiz-adv-x="960" 
d="M358 -212l89 623q2 10 -7 10h-162l-89 -633h-149l89 623q2 10 -7 10h-65l13 100h74l7 48q15 100 67 141t131 41q47 0 93 -15t75 -35q29 35 73 50.5t99 15.5q35 0 68 -6t61.5 -15t51.5 -20t38 -22l-55 -93q-12 7 -29 15t-36 15t-40 11.5t-40 4.5q-42 0 -63 -17.5
t-26 -55.5l-8 -53q-1 -5 0 -7.5t7 -2.5h311l-59 -420q-2 -12 0 -15t13 -5l48 -7l-9 -74h-216l-3 5l24 135l37 261q3 20 -13 20h-155l-89 -633h-149zM293 531q-1 -5 0 -7.5t7 -2.5h162l9 64q1 5 1.5 10.5t2.5 10.5q-20 13 -47 24t-59 11t-48 -16.5t-21 -50.5z" />
    <glyph glyph-name="ffl" unicode="ffl" horiz-adv-x="963" 
d="M708 0l-3 5l26 147l66 475q-20 11 -45.5 20.5t-52.5 9.5q-36 0 -54.5 -17t-23.5 -50l-8 -59q-1 -5 0 -7.5t7 -2.5h119l-14 -100h-127l-89 -633h-149l89 623q2 9 -5 10h-166l-89 -633h-149l89 623q2 10 -7 10h-65l13 100h74l7 48q15 100 67 141t131 41q47 0 93 -15t75 -35
q29 35 71 50.5t96 15.5q42 0 87.5 -12.5t78.5 -31.5l76 32h38l-92 -654q-2 -12 0 -15t13 -5l48 -7l-9 -74h-216zM293 531q-1 -5 0 -7.5t7 -2.5h164l12 84q-20 14 -47.5 25t-59.5 11t-48 -16.5t-21 -50.5z" />
    <glyph glyph-name="f_k" unicode="fk" horiz-adv-x="931" 
d="M718 0l-3 2l-33 110l-53 144l-63 -60l-14 -95q-2 -12 0 -15t13 -5l50 -7l-10 -74h-273l9 75l46 6q10 2 13 5.5t5 14.5l73 525q-20 11 -46 21t-53 10q-36 0 -54.5 -17t-23.5 -50l-8 -59q-1 -5 0 -7.5t7 -2.5h119l-14 -100h-127l-89 -633h-149l89 623q2 10 -7 10h-65
l13 100h74l9 64q14 100 69.5 141t141.5 41q22 0 45.5 -3.5t46.5 -10t43.5 -15t36.5 -18.5l63 35h45l-59 -425l154 143q40 37 70.5 47.5t62.5 10.5q15 0 32 -2t26 -4l-11 -87q-29 2 -52 -6.5t-49 -33.5l-60 -56l87 -244q5 -11 11 -13.5t17 -4.5l44 -7l-11 -73h-188z" />
    <glyph glyph-name="f_b" unicode="fb" horiz-adv-x="932" 
d="M376 0q10 34 19.5 71.5t14.5 74.5l68 481q-20 11 -46 20.5t-53 9.5q-36 0 -54.5 -17t-23.5 -50l-8 -59q-1 -5 0 -7.5t7 -2.5h119l-14 -100h-127l-89 -633h-149l89 623q2 10 -7 10h-65l13 100h74l9 64q14 100 69.5 141t141.5 41q22 0 45 -3.5t45.5 -9.5t43 -14.5
t36.5 -18.5l65 34h40l-45 -313l2 -1q46 43 90.5 66.5t90.5 23.5q32 0 58.5 -10.5t45 -33.5t29 -60t10.5 -89q0 -51 -11 -112t-38 -114t-73 -88.5t-115 -35.5q-40 0 -77.5 15.5t-69.5 47.5l-3 -1l-12 -50h-145zM556 144q19 -15 43 -27.5t53 -12.5q30 0 51 19t34 49t19 65.5
t6 68.5q0 45 -11.5 71.5t-40.5 26.5q-15 0 -31.5 -7t-33 -18.5t-33 -24.5t-29.5 -25z" />
    <glyph glyph-name="f_h" unicode="fh" horiz-adv-x="942" 
d="M692 0l-2 4l19 108l30 221q5 31 1.5 49.5t-26.5 18.5q-15 0 -33 -7.5t-36 -18.5t-34.5 -23.5t-27.5 -21.5l-32 -229q-2 -12 0.5 -15t13.5 -5l50 -7l-10 -74h-273l10 75l44 6q10 2 13 5.5t5 14.5l74 526q-20 11 -46 20.5t-53 9.5q-36 0 -54.5 -17t-23.5 -50l-8 -59
q-1 -5 0 -7.5t7 -2.5h119l-14 -100h-127l-89 -633h-149l89 623q2 10 -7 10h-65l13 100h74l9 64q14 100 69.5 141t141.5 41q43 0 89 -12.5t78 -31.5l64 32h41l-44 -316l3 -2q22 19 43 36t42.5 30t45 20.5t52.5 7.5q53 0 84.5 -31t31.5 -91q0 -12 -1 -25t-3 -27l-36 -256
q-2 -12 0 -15t13 -5l49 -7l-10 -74h-214z" />
    <glyph glyph-name="f_t" unicode="ft" horiz-adv-x="747" 
d="M717 27q-33 -16 -79 -27.5t-88 -11.5q-75 0 -108.5 27.5t-33.5 89.5q0 20 3 44l36 262q2 10 -6 10h-163l-89 -633h-149l89 623q2 10 -7 10h-65l13 100h74l9 64q7 50 25.5 85t47 56.5t65 31t80.5 9.5q35 0 68 -6t61.5 -15t51.5 -20t38 -22l-55 -93q-12 7 -29 15t-36 15
t-40 11.5t-40 4.5q-42 0 -63 -17.5t-26 -55.5l-7 -50q-1 -8 1 -10.5t10 -2.5h452l-14 -100h-146l-33 -239q-3 -20 -3 -32q0 -26 13 -38t45 -12q21 0 41.5 4.5t38.5 11.5z" />
    <glyph glyph-name="f_j" unicode="fj" horiz-adv-x="639" 
d="M447 403q3 18 -12 18h-156l-61 -421h-147l59 411q2 10 -7 10h-65l13 100h74l9 64q7 50 25.5 85t47 56.5t65 31t80.5 9.5q35 0 68 -6t61.5 -15t51.5 -20t38 -22l-55 -93q-12 7 -29 15t-36 15t-40 11.5t-40 4.5q-42 0 -63 -17.5t-26 -55.5l-8 -53q-1 -5 0 -7.5t7 -2.5h309
l-79 -574q-13 -92 -62 -131t-132 -39q-30 0 -56.5 6t-46.5 14t-33.5 16.5t-19.5 14.5l51 83q11 -7 33.5 -16.5t48.5 -9.5q15 0 27 3.5t20.5 13.5t14.5 27t10 43z" />
    <glyph glyph-name="f_f_j" unicode="ffj" horiz-adv-x="956" 
d="M764 403q3 18 -12 18h-156l-61 -421h-147l59 411q2 9 -5 10h-164l-58 -421h-149l58 411q2 10 -7 10h-65l13 100h74l7 48q15 100 67 141t131 41q47 0 93 -15t75 -35q29 35 73 50.5t99 15.5q35 0 68 -6t61.5 -15t51.5 -20t38 -22l-55 -93q-12 7 -29 15t-36 15t-40 11.5
t-40 4.5q-42 0 -63 -17.5t-26 -55.5l-8 -53q-1 -5 0 -7.5t7 -2.5h309l-79 -574q-13 -92 -62 -131t-132 -39q-30 0 -56.5 6t-46.5 14t-33.5 16.5t-19.5 14.5l51 83q11 -7 33.5 -16.5t48.5 -9.5q15 0 27 3.5t20.5 13.5t14.5 27t10 43zM293 531q-1 -5 0 -7.5t7 -2.5h162l9 64
q1 5 1.5 10.5t2.5 10.5q-20 13 -47 24t-59 11t-48 -16.5t-21 -50.5z" />
    <glyph glyph-name="f_f_k" unicode="ffk" horiz-adv-x="1248" 
d="M1036 0l-3 2l-33 110l-53 144l-63 -60l-14 -95q-2 -12 0 -15t13 -5l50 -7l-10 -74h-273l9 75l46 6q10 2 13 5.5t5 14.5l73 525q-20 11 -46 21t-53 10q-36 0 -54.5 -17t-23.5 -50l-8 -59q-1 -5 0 -7.5t7 -2.5h119l-14 -100h-127l-89 -633h-149l89 623q2 9 -5 10h-164
l-89 -633h-149l89 623q2 10 -7 10h-65l13 100h74l7 48q15 100 67 141t131 41q47 0 92 -15t75 -35q28 35 70 50.5t96 15.5q22 0 45.5 -3.5t46.5 -10t43.5 -15t36.5 -18.5l63 35h45l-59 -425l154 143q40 37 70.5 47.5t62.5 10.5q15 0 32 -2t26 -4l-11 -87q-29 2 -52 -6.5
t-49 -33.5l-60 -56l87 -244q5 -11 11 -13.5t17 -4.5l44 -7l-11 -73h-188zM293 531q-1 -5 0 -7.5t7 -2.5h162l9 64q1 5 1.5 10.5t2.5 10.5q-20 13 -47 24t-59 11t-48 -16.5t-21 -50.5z" />
    <glyph glyph-name="f_f_b" unicode="ffb" horiz-adv-x="1251" 
d="M694 0q10 34 19.5 71.5t14.5 74.5l68 481q-20 11 -46 20.5t-53 9.5q-36 0 -54.5 -17t-23.5 -50l-8 -59q-1 -5 0 -7.5t7 -2.5h119l-14 -100h-127l-89 -633h-149l89 623q2 9 -5 10h-164l-89 -633h-149l89 623q2 10 -7 10h-65l13 100h74l7 48q15 100 67 141t131 41
q47 0 92 -15t75 -35q28 35 70 50.5t96 15.5q22 0 45 -3.5t45.5 -9.5t43 -14.5t36.5 -18.5l65 34h40l-45 -313l2 -1q46 43 90.5 66.5t90.5 23.5q32 0 58.5 -10.5t45 -33.5t29 -60t10.5 -89q0 -51 -11 -112t-38 -114t-73 -88.5t-115 -35.5q-40 0 -77.5 15.5t-69.5 47.5l-3 -1
l-12 -50h-145zM874 144q19 -15 43 -27.5t53 -12.5q30 0 51 19t34 49t19 65.5t6 68.5q0 45 -11.5 71.5t-40.5 26.5q-15 0 -31.5 -7t-33 -18.5t-33 -24.5t-29.5 -25zM293 531q-1 -5 0 -7.5t7 -2.5h162l9 64q1 5 1.5 10.5t2.5 10.5q-20 13 -47 24t-59 11t-48 -16.5t-21 -50.5z
" />
    <glyph glyph-name="f_f_h" unicode="ffh" horiz-adv-x="1262" 
d="M1010 0l-2 4l19 108l30 221q5 31 1.5 49.5t-26.5 18.5q-15 0 -33 -7.5t-36 -18.5t-34.5 -23.5t-27.5 -21.5l-32 -229q-2 -12 0.5 -15t13.5 -5l50 -7l-10 -74h-273l10 75l44 6q10 2 13 5.5t5 14.5l74 526q-20 11 -46 20.5t-53 9.5q-36 0 -54.5 -17t-23.5 -50l-8 -59
q-1 -5 0 -7.5t7 -2.5h119l-14 -100h-127l-89 -633h-149l89 623q2 10 -7 10h-162l-89 -633h-149l89 623q2 10 -7 10h-65l13 100h74l7 48q15 100 67 141t131 41q47 0 92 -15t75 -35q28 35 70 50.5t96 15.5q43 0 89 -12.5t78 -31.5l64 32h41l-44 -316l3 -2q22 19 43 36t42.5 30
t45 20.5t52.5 7.5q53 0 84.5 -31t31.5 -91q0 -12 -1 -25t-3 -27l-36 -256q-2 -12 0 -15t13 -5l49 -7l-10 -74h-214zM293 531q-1 -5 0 -7.5t7 -2.5h162l9 64q1 5 1.5 10.5t2.5 10.5q-20 13 -47 24t-59 11t-48 -16.5t-21 -50.5z" />
    <glyph glyph-name="f_f_t" unicode="fft" horiz-adv-x="1065" 
d="M1035 27q-33 -16 -79 -27.5t-88 -11.5q-75 0 -108.5 27.5t-33.5 89.5q0 20 3 44l36 262q2 10 -6 10h-163l-89 -633h-149l89 623q2 9 -5 10h-164l-89 -633h-149l89 623q2 10 -7 10h-65l13 100h74l7 48q15 100 67 141t131 41q47 0 93 -15t75 -35q29 35 73 50.5t99 15.5
q35 0 68 -6t61.5 -15t51.5 -20t38 -22l-55 -93q-12 7 -29 15t-36 15t-40 11.5t-40 4.5q-42 0 -63 -17.5t-26 -55.5l-7 -50q-1 -8 1 -10.5t10 -2.5h452l-14 -100h-146l-33 -239q-3 -20 -3 -32q0 -26 13 -38t45 -12q21 0 41.5 4.5t38.5 11.5zM293 531q-1 -5 0 -7.5t7 -2.5h162
l13 85q-20 13 -47 24t-59 11t-48 -16.5t-21 -50.5z" />
    <glyph glyph-name="f_iacute" unicode="f&#xed;" horiz-adv-x="642" 
d="M40 -212l89 623q2 10 -7 10h-65l13 100h74l9 64q14 100 66.5 141t132.5 41q44 0 78.5 -11.5t58.5 -28.5l-50 -91q-11 7 -29.5 14t-38.5 7q-32 0 -48.5 -17t-21.5 -50l-8 -59q0 -4 4 -6t10.5 -3t13.5 -1h12h278l-59 -420q-2 -12 0 -15t13 -5l48 -7l-9 -74h-216l-3 5
l24 135l2 11l35 250q3 20 -14 20h-154l-89 -633h-149zM518 561l-53 55l171 169l75 -82z" />
    <glyph glyph-name="t_t" unicode="tt" horiz-adv-x="745" 
d="M715 28q-33 -17 -78.5 -28t-87.5 -11q-75 0 -109 27.5t-34 88.5q0 11 1 22t3 23l36 261q1 5 0 7.5t-7 2.5h-167l-33 -239q-3 -20 -3 -32q0 -26 10 -38t42 -12q11 0 29 3t33 8l18 -91q-24 -13 -62.5 -22.5t-80.5 -9.5q-75 0 -108.5 27.5t-33.5 89.5q0 20 3 44l36 261
q2 10 -6 10h-69l13 93q32 3 56.5 13.5t43 29.5t31.5 47.5t23 69.5h93l-20 -142q-1 -5 0 -7.5t7 -2.5h108q58 0 88.5 42t46.5 110h94l-21 -142q-1 -5 0 -7.5t7 -2.5h138l-13 -100h-146l-34 -239q-3 -18 -3 -32q0 -26 13 -38t45 -12q21 0 42 5t39 11z" />
    <glyph glyph-name=".notdef" horiz-adv-x="500" 
 />
    <glyph glyph-name=".null" horiz-adv-x="0" 
 />
    <glyph glyph-name="nonmarkingreturn" horiz-adv-x="500" 
 />
    <glyph glyph-name="space" unicode=" " horiz-adv-x="202" 
 />
    <glyph glyph-name="exclam" unicode="!" horiz-adv-x="283" 
d="M88 192l33 355l25 177h161l-25 -177l-67 -355h-127zM221 79q0 -44 -23.5 -67.5t-73.5 -23.5q-77 0 -77 64q0 44 24 68t75 24q75 0 75 -65z" />
    <glyph glyph-name="quotedbl" unicode="&#x22;" horiz-adv-x="415" 
d="M275 447l37 259h135l-37 -259h-135zM75 447l37 259h135l-37 -259h-135z" />
    <glyph glyph-name="numbersign" unicode="#" horiz-adv-x="607" 
d="M425 121l-34 -121h-104l35 121h-87l-34 -121h-104l34 121h-99l36 101h94l33 113h-100l35 102h94l31 106h104l-31 -106h86l31 106h104l-31 -106h101l-34 -102h-96l-33 -113h101l-35 -101h-97zM385 335h-86l-34 -113h87z" />
    <glyph glyph-name="dollar" unicode="$" horiz-adv-x="518" 
d="M402 444l-3 69q0 15 -12 19q-11 4 -26.5 5t-33.5 1q-48 0 -76.5 -17.5t-28.5 -52.5q0 -20 9.5 -33.5t25.5 -23.5t37 -18t44 -17q27 -10 54 -23t48.5 -32t35 -46.5t13.5 -66.5q0 -86 -51 -136t-133 -65l-11 -87h-124l11 82q-46 3 -89.5 11.5t-72.5 24.5l23 164l105 -6
l5 -69q1 -10 4.5 -15t14.5 -8t28.5 -5t40.5 -2q107 0 107 77q0 19 -9 32t-24.5 23t-36 17.5t-42.5 15.5q-28 10 -56 22.5t-50.5 32t-36.5 47.5t-14 70q0 45 14.5 79.5t40.5 58.5t60.5 38.5t75.5 20.5l12 76h125l-11 -74q40 -3 74.5 -11t61.5 -17l-23 -170z" />
    <glyph glyph-name="percent" unicode="%" horiz-adv-x="908" 
d="M222 257q-41 0 -69 11t-45.5 30.5t-25 46t-7.5 56.5q0 47 12 87t37 69.5t63.5 46t91.5 16.5q77 0 111.5 -39t34.5 -103q0 -48 -13 -89t-38.5 -70t-63.5 -45.5t-88 -16.5zM172 -17l466 638h138l-465 -638h-139zM237 339q25 0 39.5 12.5t22 32t10 43t2.5 45.5
q0 32 -10.5 48.5t-35.5 16.5q-40 0 -57.5 -35t-17.5 -93q0 -33 10.5 -51.5t36.5 -18.5zM674 -12q-41 0 -69 11t-45.5 30.5t-25 46t-7.5 56.5q0 47 12 87t37 69.5t63.5 46t91.5 16.5q78 0 112.5 -38.5t34.5 -103.5q0 -48 -13 -89t-38.5 -70t-64 -45.5t-88.5 -16.5zM690 70
q24 0 38.5 12.5t22 32t10 43t2.5 45.5q0 32 -10.5 48.5t-34.5 16.5q-41 0 -58 -35t-17 -93q0 -33 10.5 -51.5t36.5 -18.5z" />
    <glyph glyph-name="ampersand" unicode="&#x26;" horiz-adv-x="698" 
d="M631 316q-9 -1 -12 -3.5t-4 -10.5l-34 -260q-55 -28 -124 -41t-131 -13q-70 0 -119 12t-79.5 34.5t-44.5 55t-14 72.5t12.5 71.5t33.5 54.5t48.5 38t57.5 22v2q-16 6 -32.5 16.5t-30 27t-22 38.5t-8.5 49q0 49 18.5 86.5t52.5 63t80.5 38.5t103.5 13q70 0 131.5 -16
t95.5 -38l-25 -155l-108 9l-4 64q-1 7 -2.5 11.5t-9.5 6.5q-13 4 -33 6.5t-40 2.5q-21 0 -41 -4t-36 -14.5t-25.5 -28.5t-9.5 -45q0 -38 24.5 -60.5t71.5 -22.5h40l-14 -106q-35 0 -67.5 -4t-57 -15.5t-39.5 -32.5t-15 -55q0 -48 31.5 -67.5t85.5 -19.5q57 0 84 8
q14 4 18 8.5t6 18.5l37 256l18 12h185l-11 -80z" />
    <glyph glyph-name="quotesingle" unicode="'" horiz-adv-x="215" 
d="M75 447l37 259h135l-37 -259h-135z" />
    <glyph glyph-name="parenleft" unicode="(" horiz-adv-x="362" 
d="M169 -173q-21 34 -40.5 77t-33.5 92t-22.5 102t-8.5 108q0 82 19.5 156t53 141t78 127t93.5 114l102 -67q-50 -62 -85.5 -120t-58 -116t-33 -118.5t-10.5 -127.5q0 -90 19.5 -163t51.5 -140z" />
    <glyph glyph-name="parenright" unicode=")" horiz-adv-x="362" 
d="M-13 -106q50 62 85.5 120t58 116t33 118.5t10.5 127.5q0 90 -19.5 162.5t-50.5 140.5l124 65q22 -35 41 -78t33 -91.5t22.5 -102t8.5 -108.5q0 -82 -19.5 -156t-53 -140.5t-77.5 -126.5t-93 -114z" />
    <glyph glyph-name="asterisk" unicode="*" horiz-adv-x="477" 
d="M344 383l-35 56l-15 99l28 19l-5 31h-34l-14 -31l25 -19l-43 -99l-50 -57l-78 64l51 56l95 55l-104 -4l-64 22l48 100l64 -22l70 -65l-22 97l10 70h105l-10 -70l-49 -97l89 65l70 22l19 -100l-70 -22l-103 4l79 -56l36 -56z" />
    <glyph glyph-name="plus" unicode="+" 
d="M210 121l21 144h-133l16 116h133l20 140h120l-20 -140h134l-16 -116h-134l-21 -144h-120z" />
    <glyph glyph-name="comma" unicode="," horiz-adv-x="258" 
d="M36 -99l43 107q4 9 -4 12l-39 14l38 108q27 0 50.5 -2.5t41 -9.5t27.5 -20.5t10 -36.5q0 -20 -10.5 -40.5t-20.5 -37.5l-71 -114z" />
    <glyph glyph-name="hyphen" unicode="-" horiz-adv-x="311" 
d="M35 227l18 127h271l-18 -127h-271z" />
    <glyph glyph-name="period" unicode="." horiz-adv-x="276" 
d="M216 76q0 -42 -24.5 -65t-72.5 -23q-76 0 -76 67q0 43 24.5 66t73.5 23q39 0 57 -17t18 -51z" />
    <glyph glyph-name="slash" unicode="/" horiz-adv-x="455" 
d="M-20 -92l388 823h145l-388 -823h-145z" />
    <glyph glyph-name="zero" unicode="0" horiz-adv-x="579" 
d="M567 289q-9 -71 -29.5 -126.5t-56 -94.5t-88 -59.5t-125.5 -20.5q-61 0 -103 16t-68.5 45t-38 69.5t-11.5 90.5q0 42 6 87q8 66 29.5 120.5t58 93t89.5 60t125 21.5q60 0 102 -16.5t67.5 -45.5t37 -69.5t11.5 -88.5q0 -40 -6 -82zM283 94q27 0 47.5 10t36 33t26 60
t17.5 90q3 26 5.5 47.5t2.5 38.5q0 55 -18 82t-60 27q-27 0 -48.5 -10t-37 -32.5t-26.5 -59t-18 -88.5q-6 -51 -6 -86q0 -55 18 -83.5t61 -28.5z" />
    <glyph glyph-name="one" unicode="1" horiz-adv-x="402" 
d="M15 0l10 75l85 6q10 1 12.5 5t4.5 15l50 359q3 17 -10 21l-84 18l12 77h246l-66 -475q-2 -12 0.5 -15.5t13.5 -4.5l78 -7l-11 -74h-341z" />
    <glyph glyph-name="two" unicode="2" horiz-adv-x="516" 
d="M17 0l13 93l154 137q46 41 78 69t51.5 50t28 41t8.5 41q0 23 -14.5 37.5t-48.5 14.5q-21 0 -36 -4t-25 -14t-16 -27.5t-10 -44.5l-135 13q8 60 32 97t57 56.5t73 26t81 6.5q51 0 86.5 -11.5t58 -31.5t33 -46.5t10.5 -57.5q0 -41 -13 -72.5t-35.5 -59.5t-52.5 -54t-64 -55
l-125 -107h146q7 0 10 1.5t5 9.5l25 80h104l-26 -188h-453z" />
    <glyph glyph-name="three" unicode="3" horiz-adv-x="516" 
d="M372 265q45 -12 74 -43.5t29 -92.5q0 -53 -19 -92.5t-53 -66t-81 -40t-104 -13.5q-78 0 -139 26.5t-92 68.5l88 85q11 -12 25 -23.5t31.5 -21.5t38.5 -16t47 -6q23 0 43.5 5t35.5 16.5t23.5 30.5t8.5 46q0 42 -24 60.5t-66 18.5q-19 0 -33.5 -1t-36.5 -5l13 100l47 5
q60 7 93.5 37t33.5 82q0 25 -15 41.5t-50 16.5q-41 0 -61 -18t-27 -71l-138 13q7 58 31 94t58.5 56t75 27t79.5 7q100 0 147 -40t47 -115q0 -68 -38 -109t-92 -58v-4z" />
    <glyph glyph-name="four" unicode="4" horiz-adv-x="549" 
d="M295 -67l17 129h-284l14 103l259 429l119 -61l-231 -354h139l23 164l138 18l-26 -182h81l-16 -117h-81l-17 -129h-135z" />
    <glyph glyph-name="five" unicode="5" horiz-adv-x="521" 
d="M237 450l-36 -141q23 17 54 28t74 11q75 0 119 -45t44 -130q0 -55 -17.5 -101.5t-52 -81t-85 -54t-116.5 -19.5q-82 0 -142 26.5t-94 67.5l89 87q24 -26 58 -46.5t85 -20.5q25 0 48 7t40 22t27 37.5t10 54.5q0 25 -7 41t-18.5 25.5t-25.5 13t-28 3.5q-29 0 -54.5 -12
t-45.5 -31l-92 43l70 341h367l-17 -126h-254z" />
    <glyph glyph-name="six" unicode="6" horiz-adv-x="552" 
d="M486 501q-29 25 -56.5 34t-53.5 9q-32 0 -58.5 -14.5t-46 -39t-32.5 -57t-18 -68.5q28 15 65 28t84 13q35 0 65 -10t51.5 -30t34 -51.5t12.5 -73.5q0 -64 -20 -111.5t-54.5 -79t-82.5 -47t-103 -15.5q-60 0 -100.5 20t-65.5 53.5t-36 78t-11 94.5q0 44 6.5 92t22 95
t40 89.5t60 74.5t83 51t108.5 19q54 0 100.5 -17t81.5 -52zM211 265q-1 -14 -1 -23v-23q0 -23 3 -45t11.5 -39t23 -27t38.5 -10q28 0 46.5 13t29.5 32.5t15 42t4 41.5q0 38 -17.5 54.5t-48.5 16.5t-57.5 -10.5t-46.5 -22.5z" />
    <glyph glyph-name="seven" unicode="7" horiz-adv-x="517" 
d="M113 -67q19 104 54 187.5t74.5 147.5t78.5 109t68 73h-189q-8 0 -10.5 -2.5t-4.5 -10.5l-26 -84l-104 -8l33 231h482l-18 -113q-49 -47 -94 -107t-82.5 -128.5t-65 -143.5t-39.5 -151h-157z" />
    <glyph glyph-name="eight" unicode="8" horiz-adv-x="517" 
d="M423 334q36 -23 57.5 -54.5t21.5 -85.5q0 -51 -20.5 -89.5t-56.5 -64.5t-85.5 -39t-107.5 -13q-96 0 -149.5 37.5t-53.5 111.5q0 70 34.5 117.5t87.5 83.5q-24 20 -42 49t-18 77q0 46 17.5 81.5t49.5 60t76.5 37t97.5 12.5q90 0 138.5 -38.5t48.5 -104.5
q0 -57 -28.5 -101t-67.5 -77zM240 281q-42 -32 -63 -61.5t-21 -62.5q0 -31 22 -50t68 -19q51 0 76.5 24.5t25.5 59.5q0 20 -9.5 35.5t-25 28t-35 23.5t-38.5 22zM324 385q32 28 50.5 55t18.5 56q0 30 -19 45t-52 15q-40 0 -64 -20t-24 -52q0 -17 7.5 -31t20 -26t29 -22
t33.5 -20z" />
    <glyph glyph-name="nine" unicode="9" horiz-adv-x="552" 
d="M99 83q23 -20 56.5 -37t70.5 -17q36 0 61 12.5t42 35t27.5 53.5t16.5 68q-26 -15 -60.5 -28t-82.5 -13q-36 0 -67 11.5t-53.5 33.5t-35 55t-12.5 75q0 60 18.5 108t53 81.5t82.5 51.5t108 18q59 0 99.5 -18.5t65.5 -51.5t36 -79t11 -100q0 -38 -4.5 -84.5t-17 -93.5
t-34 -91.5t-56.5 -79t-85 -55t-118 -20.5q-27 0 -55 5.5t-54 16t-48 24.5t-38 31zM383 303q3 28 3 54q0 24 -3 46.5t-11 40t-23 28t-38 10.5q-24 0 -42 -11t-30 -29.5t-18 -43t-6 -50.5q0 -39 14.5 -59t51.5 -20q28 0 54 10t48 24z" />
    <glyph glyph-name="colon" unicode=":" horiz-adv-x="276" 
d="M274 456q0 -42 -24.5 -65t-72.5 -23q-76 0 -76 67q0 43 24.5 66t73.5 23q39 0 57 -17t18 -51zM216 76q0 -42 -24.5 -65t-72.5 -23q-76 0 -76 67q0 43 24.5 66t73.5 23q39 0 57 -17t18 -51z" />
    <glyph glyph-name="semicolon" unicode=";" horiz-adv-x="258" 
d="M36 -99l43 107q4 9 -4 12l-39 14l38 108q27 0 50.5 -2.5t41 -9.5t27.5 -20.5t10 -36.5q0 -20 -10.5 -40.5t-20.5 -37.5l-71 -114zM270 456q0 -42 -24.5 -65t-72.5 -23q-76 0 -76 67q0 43 24.5 66t73.5 23q39 0 57 -17t18 -51z" />
    <glyph glyph-name="less" unicode="&#x3c;" 
d="M107 221l19 140l408 142l18 -113l-306 -98l280 -98l-49 -110z" />
    <glyph glyph-name="equal" unicode="=" 
d="M91 130l16 117h386l-16 -117h-386zM117 316l16 117h386l-17 -117h-385z" />
    <glyph glyph-name="greater" unicode="&#x3e;" 
d="M92 84l-14 116l308 98l-278 98l46 107l367 -142l-19 -140z" />
    <glyph glyph-name="question" unicode="?" horiz-adv-x="528" 
d="M148 192l25 186q35 3 75 12t74 27t56.5 47t22.5 72q0 33 -21 49t-55 16q-23 0 -40 -2t-28 -5t-14 -7t-5 -13l-15 -60l-124 -9l24 173q54 20 109.5 33t114.5 13q45 0 85 -8.5t69 -29.5t46 -56.5t17 -89.5q0 -98 -62.5 -165t-190.5 -87l-12 -96h-151zM292 79
q0 -44 -24 -67.5t-74 -23.5q-76 0 -76 64q0 44 24 68t74 24q76 0 76 -65z" />
    <glyph glyph-name="at" unicode="@" horiz-adv-x="841" 
d="M583 -152q-31 -13 -82 -24t-126 -11q-72 0 -130 18.5t-99 55t-63 91t-22 127.5q0 101 34 186t94.5 146.5t143 96t178.5 34.5q143 0 223 -71t80 -202q0 -80 -18.5 -138t-51 -95.5t-76.5 -55.5t-95 -18q-85 0 -100 69q-32 -28 -64.5 -48.5t-67.5 -20.5q-47 0 -71.5 31
t-24.5 91q0 54 19.5 105.5t54 92t82 65t103.5 24.5q42 0 76 -9.5t59 -22.5l-39 -130q-8 -25 -14.5 -49.5t-11.5 -43.5q-3 -11 -5 -21t-2 -18q0 -15 8 -24t28 -9q25 0 45.5 19t35 49.5t22.5 68.5t8 75q0 104 -57.5 150t-161.5 46q-84 0 -146.5 -32t-103.5 -83.5t-61.5 -115.5
t-20.5 -128q0 -110 57.5 -165t169.5 -55q45 0 92 8.5t89 22.5zM529 312q-8 6 -19.5 9t-23.5 3q-24 0 -48.5 -15.5t-44.5 -43t-32.5 -65t-12.5 -80.5q0 -26 9.5 -35.5t23.5 -9.5q20 0 44.5 15t48.5 38z" />
    <glyph glyph-name="A" unicode="A" horiz-adv-x="744" 
d="M419 0l10 73l82 9l-19 109h-246l-49 -109l76 -9l-11 -73h-274l11 73l45 11q20 5 27 20l299 620h174l128 -623q2 -9 7 -12t15 -5l43 -11l-11 -73h-307zM425 572h-7l-127 -273h185z" />
    <glyph glyph-name="B" unicode="B" horiz-adv-x="648" 
d="M18 0l11 73l62 7q11 2 14 5.5t5 14.5l73 522q2 11 -0.5 15t-13.5 5l-61 7l10 75h330q55 0 92 -12.5t59.5 -34t32 -50t9.5 -59.5q0 -43 -13 -74.5t-33.5 -54.5t-46.5 -37.5t-53 -22.5v-3q72 -8 107 -47t35 -102t-22.5 -106.5t-62.5 -70t-94.5 -38.5t-117.5 -12h-322z
M329 108q34 0 62.5 5.5t48.5 19.5t31 38t11 62q0 25 -8.5 42t-23.5 27t-35 14t-42 4h-83l-29 -212h68zM344 420q29 0 56 4.5t47.5 17.5t33 36t12.5 61q0 25 -8.5 40t-23 23t-34 10.5t-42.5 2.5h-55l-26 -195h40z" />
    <glyph glyph-name="C" unicode="C" horiz-adv-x="670" 
d="M610 43q-47 -27 -116 -41t-137 -14q-78 0 -134.5 22.5t-93 63.5t-53.5 98.5t-17 127.5q0 96 26.5 176t79 138t131 90.5t181.5 32.5q30 0 61.5 -4t60.5 -11t54 -18t43 -24l-26 -196l-107 9l-3 93q0 11 -3 15.5t-10 6.5q-15 6 -35.5 9.5t-48.5 3.5q-54 0 -99.5 -20
t-77.5 -59t-50 -97t-18 -134q0 -103 42.5 -156t123.5 -53q30 0 57 2.5t46 10.5q6 3 9.5 7t5.5 12l29 95h105z" />
    <glyph glyph-name="D" unicode="D" horiz-adv-x="739" 
d="M18 0l11 75l63 7q10 1 13 4.5t5 14.5l73 522q2 11 -0.5 14.5t-12.5 5.5l-62 7l10 74h318q81 0 139 -20.5t95.5 -58.5t55.5 -92.5t18 -122.5q0 -92 -25.5 -170.5t-77.5 -136.5t-132 -90.5t-189 -32.5h-302zM318 107q68 0 119 25t84.5 68.5t50.5 101.5t17 124
q0 102 -49 146t-147 44h-61l-70 -509h56z" />
    <glyph glyph-name="E" unicode="E" horiz-adv-x="620" 
d="M18 0l10 73l63 7q11 2 14 5.5t5 14.5l73 523q2 11 -0.5 15t-12.5 5l-62 7l10 74h521l-28 -202l-105 5l-3 76q-1 13 -16 13h-155l-27 -197h230l-16 -111h-230l-27 -201h177q8 0 11.5 1.5t5.5 9.5l28 88h105l-28 -206h-543z" />
    <glyph glyph-name="F" unicode="F" horiz-adv-x="595" 
d="M19 0l10 73l62 7q11 2 14 5.5t5 14.5l73 523q2 11 -0.5 15t-12.5 5l-62 7l10 74h518l-28 -202l-106 5l-3 76q-1 13 -16 13h-151l-27 -196h226l-15 -111h-226l-29 -207q-2 -12 0 -15t13 -5l143 -8l-9 -74h-389z" />
    <glyph glyph-name="G" unicode="G" horiz-adv-x="717" 
d="M681 265q-17 -1 -18 -14l-29 -215q-60 -27 -130 -37.5t-132 -10.5q-86 0 -146 24t-97.5 66t-54 99t-16.5 123q0 94 26.5 174t79 138.5t131.5 91.5t183 33q27 0 57 -3.5t59 -10.5t56 -18t47 -26l-25 -189l-108 8l-3 89q0 9 -2 14t-10 7q-17 5 -41.5 9t-47.5 4
q-56 0 -100.5 -22t-76 -63t-48.5 -98.5t-17 -127.5q0 -100 43 -153.5t133 -53.5q23 0 47 2.5t41 7.5q11 3 14 17l19 129h-110l26 90h301l-11 -80z" />
    <glyph glyph-name="H" unicode="H" horiz-adv-x="802" 
d="M439 0l11 73l62 7q11 2 13.5 5.5t4.5 14.5l31 216h-269l-30 -215q-2 -12 -0.5 -15t12.5 -5l65 -8l-10 -73h-310l10 73l63 7q11 2 13.5 5.5t4.5 14.5l73 522q2 11 -0.5 15t-13.5 5l-60 7l10 75h310l-10 -75l-67 -8q-11 -2 -13.5 -5t-4.5 -14l-26 -194h268l27 194
q2 11 0 15t-13 5l-61 7l10 75h310l-10 -75l-66 -8q-11 -2 -13.5 -5t-4.5 -14l-73 -521q-2 -12 0 -15t13 -5l65 -8l-11 -73h-310z" />
    <glyph glyph-name="I" unicode="I" horiz-adv-x="382" 
d="M11 0l8 73l73 7q11 1 13.5 5t4.5 15l74 522q2 11 -0.5 15t-13.5 5l-70 7l10 75h330l-11 -75l-76 -8q-11 -2 -13.5 -5t-4.5 -14l-73 -521q-2 -12 -0.5 -15t12.5 -5l75 -8l-9 -73h-329z" />
    <glyph glyph-name="J" unicode="J" horiz-adv-x="500" 
d="M318 623q2 11 -1 14.5t-13 4.5l-87 7l10 75h337l-11 -75l-67 -8q-11 -2 -13 -4.5t-4 -13.5l-65 -460q-12 -89 -60.5 -132t-147.5 -43q-30 0 -58 3.5t-52 9t-42 12.5t-27 14l25 178l106 -8l1 -71q0 -12 7 -14q6 -2 16.5 -4t25.5 -2q27 0 39 13t17 45z" />
    <glyph glyph-name="K" unicode="K" horiz-adv-x="735" 
d="M506 0l-7 5l-35 84l-102 209l-85 -88l-16 -108q-2 -12 0 -15.5t12 -4.5l66 -8l-10 -74h-310l10 74l62 7q11 1 14 4.5t5 15.5l73 522q2 11 -0.5 14.5t-12.5 5.5l-60 7l9 74h310l-9 -74l-68 -8q-11 -2 -13.5 -5t-4.5 -14l-36 -254l269 272l-59 8l10 75h257l-10 -75l-42 -7
q-14 -2 -19 -5.5t-13 -11.5l-210 -213l153 -309q5 -10 10.5 -13.5t16.5 -5.5l59 -10l-10 -74h-204z" />
    <glyph glyph-name="L" unicode="L" horiz-adv-x="607" 
d="M19 0l10 74l62 7q11 2 14 5.5t5 14.5l73 522q2 11 -0.5 15t-12.5 5l-60 7l8 74h327l-10 -74l-83 -8q-11 -1 -13.5 -4.5t-4.5 -14.5l-72 -516h176q8 0 11.5 1.5t6.5 9.5l29 100h107l-30 -218h-543z" />
    <glyph glyph-name="M" unicode="M" horiz-adv-x="942" 
d="M567 0l10 73l82 7q10 1 13 5t5 15l53 376h-4l-187 -332h-153l-99 331h-5l-52 -374q-2 -12 -0.5 -15.5t12.5 -4.5l84 -8l-9 -73h-298l9 73l63 7q11 2 14 5.5t5 15.5l73 522q2 11 -0.5 14.5t-12.5 5.5l-60 7l8 74h246l128 -439h5l240 439h253l-9 -73l-66 -8
q-12 -2 -14.5 -5.5t-4.5 -15.5l-74 -522q-2 -10 0.5 -13.5t12.5 -5.5l65 -8l-10 -73h-323z" />
    <glyph glyph-name="N" unicode="N" horiz-adv-x="812" 
d="M522 0l-240 525l-59 -424q-2 -12 0 -15t13 -5l65 -8l-9 -73h-273l9 73l63 7q11 2 14 5.5t5 14.5l73 523q2 11 0 15t-13 5l-60 7l8 74h243l236 -526l60 424q2 11 -0.5 15t-12.5 5l-61 7l9 75h272l-10 -75l-67 -8q-11 -2 -13 -5t-4 -14l-88 -622h-160z" />
    <glyph glyph-name="O" unicode="O" horiz-adv-x="757" 
d="M352 -12q-78 0 -134 21.5t-91 60.5t-51.5 94t-16.5 122q0 94 25.5 176.5t77 143.5t128 96t178.5 35q78 0 133 -22.5t90 -61.5t51.5 -92.5t16.5 -115.5q0 -107 -27.5 -191.5t-80 -143.5t-128 -90.5t-171.5 -31.5zM375 111q44 0 83 16t69 52t48.5 93t23.5 138v29t-2 27
q-9 78 -45.5 113t-101.5 35q-59 0 -102 -26.5t-71.5 -69.5t-42.5 -97.5t-14 -110.5q0 -13 0.5 -28.5t2.5 -25.5q10 -75 47 -110t105 -35z" />
    <glyph glyph-name="P" unicode="P" horiz-adv-x="635" 
d="M18 0l11 74l63 7q11 2 14 5.5t5 14.5l72 521q2 11 -0.5 15t-13.5 5l-60 7l9 75h326q59 0 100.5 -14t67 -39.5t37 -60t11.5 -74.5q0 -69 -21.5 -119.5t-61 -84t-96 -49.5t-126.5 -16h-72l-22 -165q-2 -12 0 -15t12 -5l140 -8l-11 -74h-384zM346 374q28 0 55.5 5t50 20.5
t36.5 44.5t14 77q0 29 -9 47t-24.5 28.5t-36 14.5t-43.5 4h-58l-33 -241h48z" />
    <glyph glyph-name="Q" unicode="Q" horiz-adv-x="757" 
d="M677 -162q-45 -6 -81 -6q-63 0 -107 14.5t-78 31.5t-63.5 31.5t-62.5 14.5q-24 0 -52 -10t-63 -33l-51 90q10 7 23 14.5t27.5 14.5t28 12.5t24.5 8.5v2q-81 39 -122 104t-41 159t25.5 176.5t77 143.5t128 96t178.5 35q78 0 133 -22.5t90 -61.5t51.5 -92.5t16.5 -115.5
q0 -202 -93 -313t-274 -128v-2q19 -9 43 -19.5t51.5 -19.5t58 -15t62.5 -6q33 0 74 6zM375 111q60 0 102.5 26t69.5 69.5t39.5 99.5t12.5 116q0 14 -0.5 24.5t-1.5 19.5q-9 78 -45.5 113t-101.5 35q-59 0 -102 -26.5t-71.5 -69.5t-42.5 -97.5t-14 -110.5q0 -13 0.5 -28.5
t2.5 -25.5q10 -75 47 -110t105 -35z" />
    <glyph glyph-name="R" unicode="R" horiz-adv-x="673" 
d="M447 0l-6 5l-55 246q-5 22 -15 33.5t-36 11.5h-47l-27 -193q-2 -12 0 -15t12 -5l59 -8l-9 -75h-303l9 75l63 7q11 1 13.5 4.5t4.5 15.5l74 521q2 11 -0.5 14.5t-12.5 5.5l-60 7l8 74h328q58 0 97.5 -14.5t64.5 -39t36 -56.5t11 -67q0 -42 -11.5 -75.5t-32.5 -60t-50 -46
t-64 -33.5q20 -11 29.5 -29.5t16.5 -50.5l33 -148q2 -11 8 -15t17 -6l61 -8l-10 -75h-206zM348 400q30 0 57 5.5t47.5 20t33 39t12.5 63.5q0 48 -28.5 67.5t-88.5 19.5h-49l-29 -215h45z" />
    <glyph glyph-name="S" unicode="S" horiz-adv-x="588" 
d="M468 510l-2 86q0 8 -2 13.5t-11 7.5q-11 3 -24 4t-34 1q-26 0 -49.5 -5.5t-41.5 -17t-29 -29t-11 -40.5q0 -21 10 -35.5t27 -25.5t39.5 -19.5t46.5 -17.5q31 -11 62 -25t56.5 -36t41.5 -55.5t16 -82.5q0 -64 -24 -110.5t-65 -76.5t-96.5 -44t-118.5 -14q-35 0 -69 4
t-64 10t-54 13t-37 14l27 195h109l7 -94q1 -10 4 -14.5t14 -7.5q15 -4 33.5 -6t43.5 -2q65 0 101 25.5t36 78.5q0 22 -9 37.5t-24 26.5t-35.5 19.5t-42.5 16.5q-32 11 -65.5 24t-60.5 34t-44.5 53.5t-17.5 83.5q0 60 23.5 105t63.5 74.5t93.5 44t114.5 14.5
q65 0 115.5 -13.5t82.5 -27.5l-27 -195z" />
    <glyph glyph-name="T" unicode="T" horiz-adv-x="680" 
d="M131 0l11 74l101 7q10 1 13 5t5 15l71 514h-102q-8 0 -11 -1.5t-5 -9.5l-28 -82l-107 -5l28 207h631l-28 -207l-104 5l-4 82q-1 8 -3.5 9.5t-10.5 1.5h-104l-71 -514q-2 -11 -0.5 -14.5t12.5 -4.5l108 -9l-10 -73h-392z" />
    <glyph glyph-name="U" unicode="U" horiz-adv-x="774" 
d="M602 623q2 11 -0.5 15t-12.5 5l-61 7l10 74h290l-10 -74l-68 -8q-11 -2 -13.5 -5t-3.5 -14l-51 -364q-20 -144 -97 -207.5t-208 -63.5q-130 0 -193 52t-63 161q0 14 1.5 29.5t3.5 32.5l49 360q2 11 -0.5 15t-11.5 5l-61 7l10 74h310l-10 -74l-67 -8q-11 -2 -13.5 -5
t-4.5 -14l-47 -335q-6 -39 -6 -70q0 -55 26 -81t89 -26q39 0 67.5 10t48.5 31t32 54.5t18 80.5z" />
    <glyph glyph-name="V" unicode="V" horiz-adv-x="714" 
d="M248 0l-112 623q-2 9 -7.5 12t-13.5 5l-43 11l11 73h306l-11 -73l-81 -9l79 -496h5l211 496l-75 9l11 73h268l-11 -73l-43 -11q-21 -6 -29 -25l-265 -615h-200z" />
    <glyph glyph-name="W" unicode="W" horiz-adv-x="1011" 
d="M585 0l-43 366h-3l-143 -366h-195l-62 615q-2 14 -5 18t-16 7l-47 11l11 73h299l-11 -73l-83 -10l47 -487h5l173 436h150l48 -446h6l168 497l-79 10l11 73h275l-11 -73l-48 -11q-10 -2 -16 -7t-11 -19l-221 -614h-199z" />
    <glyph glyph-name="X" unicode="X" horiz-adv-x="757" 
d="M398 0l11 73l78 9l-110 188l-157 -188l74 -9l-11 -73h-278l10 73l59 11q16 4 28 19l219 253l-159 267q-7 13 -21 17l-49 11l12 73h314l-11 -73l-77 -9l105 -185l158 185l-73 9l12 73h264l-10 -73l-50 -11q-9 -2 -15 -6.5t-13 -12.5l-217 -249l166 -271q5 -8 10.5 -12
t14.5 -6l47 -10l-10 -73h-321z" />
    <glyph glyph-name="Y" unicode="Y" horiz-adv-x="663" 
d="M132 0l9 74l100 7q10 1 12.5 5t4.5 15l24 169l-146 353q-3 8 -8 11t-14 6l-42 11l11 73h302l-11 -73l-78 -9l87 -240h6l152 240l-74 9l11 73h261l-11 -73l-42 -11q-10 -3 -16.5 -7t-11.5 -13l-224 -348l-24 -171q-2 -11 0 -14.5t13 -4.5l103 -8l-10 -74h-384z" />
    <glyph glyph-name="Z" unicode="Z" horiz-adv-x="658" 
d="M26 0l14 97l434 519h-215q-8 0 -11.5 -1.5t-5.5 -9.5l-29 -92l-109 -5l31 216h537l-13 -101l-431 -516h241q8 0 11.5 1.5t6.5 9.5l33 107h104l-30 -225h-568z" />
    <glyph glyph-name="bracketleft" unicode="[" horiz-adv-x="311" 
d="M28 -143l122 867h224l-8 -71l-66 -11q-10 -2 -13.5 -6t-5.5 -14l-93 -662q-2 -11 0.5 -15t12.5 -6l63 -11l-12 -71h-224z" />
    <glyph glyph-name="backslash" unicode="\" horiz-adv-x="437" 
d="M266 -92l-157 823h137l158 -823h-138z" />
    <glyph glyph-name="bracketright" unicode="]" horiz-adv-x="308" 
d="M-19 -143l9 71l65 11q11 2 14 6t5 14l93 662q2 11 -0.5 15t-12.5 6l-63 10l12 72h225l-122 -867h-225z" />
    <glyph glyph-name="asciicircum" unicode="^" horiz-adv-x="609" 
d="M459 299l-100 240l-163 -240h-143l248 365h153l148 -365h-143z" />
    <glyph glyph-name="underscore" unicode="_" horiz-adv-x="500" 
d="M-25 -181l15 107h499l-14 -107h-500z" />
    <glyph glyph-name="grave" unicode="`" horiz-adv-x="500" 
d="M394 561l-158 146l93 78l129 -174z" />
    <glyph glyph-name="a" unicode="a" horiz-adv-x="605" 
d="M370 0l12 81l-5 1q-45 -44 -87 -69t-95 -25q-74 0 -113 49t-39 151q0 57 13 117.5t42.5 110.5t77.5 82.5t119 32.5q43 0 77 -15.5t60 -41.5l19 47h128q-7 -32 -13.5 -65t-11.5 -66l-40 -290q-2 -11 0 -14t13 -5l47 -7l-11 -74h-193zM410 380q-16 14 -39.5 25.5
t-48.5 11.5q-37 0 -61 -23.5t-38.5 -57.5t-20 -71t-5.5 -65q0 -87 57 -87q14 0 31 7t34 18t34 25.5t31 28.5z" />
    <glyph glyph-name="b" unicode="b" horiz-adv-x="601" 
d="M45 0q10 34 19.5 71.5t14.5 74.5l70 495q1 16 -10 21l-51 17l11 76h209l-45 -313l2 -1q46 43 90.5 66.5t90.5 23.5q32 0 58.5 -10.5t45 -33.5t29 -60t10.5 -89q0 -51 -11 -112t-38 -114t-73 -88.5t-115 -35.5q-40 0 -77.5 15.5t-69.5 47.5l-3 -1l-12 -50h-145zM225 144
q19 -15 43 -27.5t53 -12.5q30 0 51 19t34 49t19 65.5t6 68.5q0 45 -11.5 71.5t-40.5 26.5q-15 0 -31.5 -7t-33 -18.5t-33 -24.5t-29.5 -25z" />
    <glyph glyph-name="c" unicode="c" horiz-adv-x="502" 
d="M452 37q-37 -21 -88 -35t-105 -14q-57 0 -98.5 16t-68 44.5t-39 69t-12.5 88.5q0 83 24 144t65 101.5t97 60t119 19.5q57 0 101.5 -13.5t65.5 -28.5l-22 -157l-102 5l-3 68q0 10 -7 14q-9 4 -22 5.5t-27 1.5q-25 0 -49 -11t-43 -35t-30.5 -63t-11.5 -95q0 -69 27.5 -95.5
t71.5 -26.5q38 0 72.5 10t59.5 20z" />
    <glyph glyph-name="d" unicode="d" horiz-adv-x="608" 
d="M370 0l12 80l-5 2q-45 -43 -86 -68.5t-95 -25.5q-73 0 -113 48t-40 150q0 54 12.5 114.5t42 112t77.5 85t119 33.5q44 0 76 -12t57 -31l20 154q1 8 -0.5 13t-9.5 7l-50 17l12 76h206l-91 -655q-2 -11 0 -14t13 -5l47 -7l-10 -74h-194zM411 383q-16 14 -39.5 24t-46.5 10
q-38 0 -63 -23.5t-39.5 -57.5t-20 -72.5t-5.5 -69.5q0 -81 57 -81q15 0 31.5 7t34 18.5t34 25.5t30.5 29z" />
    <glyph glyph-name="e" unicode="e" horiz-adv-x="506" 
d="M461 38q-49 -23 -101 -36.5t-106 -13.5q-59 0 -99.5 16.5t-66 45t-36.5 67.5t-11 84q0 79 23.5 140.5t64 103.5t94.5 64t115 22q83 0 123.5 -35t40.5 -97q0 -54 -26 -89.5t-69 -58.5t-98.5 -35t-113.5 -18q1 -19 6 -37t16.5 -31.5t30 -21.5t46.5 -8q27 0 63.5 8.5
t81.5 27.5zM201 295q16 2 44 7.5t55 16t46.5 26.5t19.5 40q0 38 -48 38q-42 0 -74 -34t-43 -94z" />
    <glyph glyph-name="f" unicode="f" horiz-adv-x="424" 
d="M40 -212l89 623q2 10 -7 10h-65l13 100h74l9 64q14 100 67 141t135 41q24 0 48.5 -4t47.5 -11.5t42.5 -17t33.5 -20.5l-55 -93q-6 4 -16.5 10t-24 12t-29 10t-31.5 4q-32 0 -48.5 -17t-21.5 -50l-8 -59q-1 -5 0 -7.5t7 -2.5h154l-14 -100h-162l-89 -633h-149z" />
    <glyph glyph-name="g" unicode="g" horiz-adv-x="589" 
d="M378 81l-3 2q-41 -36 -83 -62.5t-96 -26.5q-74 0 -113.5 46t-39.5 148q0 55 13 116t42 111t77 83t119 33q43 0 78 -15.5t60 -41.5l19 47h129q-8 -35 -14.5 -68t-11.5 -66l-56 -403q-8 -56 -29 -95.5t-52.5 -64t-73 -36t-89.5 -11.5q-38 0 -73 6t-63.5 14.5t-50 18
t-31.5 16.5l47 93q6 -5 21.5 -12t36.5 -14t46.5 -12t51.5 -5q59 0 89 26.5t38 86.5zM411 379q-16 15 -40 26.5t-49 11.5q-37 0 -61 -23.5t-38.5 -57.5t-20 -71.5t-5.5 -65.5q0 -45 14 -62.5t43 -17.5q15 0 31.5 6.5t34 17t34 23.5t30.5 27z" />
    <glyph glyph-name="h" unicode="h" horiz-adv-x="619" 
d="M369 0l-2 4l19 108l30 221q5 31 1.5 49.5t-26.5 18.5q-15 0 -33 -7.5t-36 -18.5t-34.5 -23.5t-27.5 -21.5l-32 -229q-2 -12 0.5 -15t13.5 -5l50 -7l-10 -74h-273l10 75l44 6q10 2 13 5.5t5 14.5l76 540q3 17 -9 21l-50 17l11 76h204l-44 -316l3 -2q22 19 43 36t42.5 30
t45 20.5t52.5 7.5q53 0 84.5 -31t31.5 -91q0 -12 -1 -25t-3 -27l-36 -256q-2 -12 0 -15t13 -5l49 -7l-10 -74h-214z" />
    <glyph glyph-name="i" unicode="i" horiz-adv-x="318" 
d="M210 601q-37 0 -57 20t-20 55q0 48 27 75.5t76 27.5q37 0 57.5 -19t20.5 -55q0 -48 -27.5 -76t-76.5 -28zM64 0l-2 5l24 135l37 267q3 17 -10 21l-49 17l10 76h213l-59 -420q-2 -12 0.5 -15t13.5 -5l48 -7l-10 -74h-216z" />
    <glyph glyph-name="j" unicode="j" horiz-adv-x="315" 
d="M124 407q1 16 -10 21l-51 17l10 76h213l-79 -574q-13 -92 -62 -131t-132 -39q-30 0 -56 6t-46.5 14t-34 16.5t-19.5 14.5l51 83q11 -7 34 -16.5t49 -9.5q15 0 26.5 3.5t20 13.5t14.5 27t10 43zM210 601q-38 0 -58 20t-20 55q0 48 27.5 75.5t75.5 27.5q38 0 58.5 -19
t20.5 -55q0 -48 -28 -76t-76 -28z" />
    <glyph glyph-name="k" unicode="k" horiz-adv-x="608" 
d="M395 0l-3 2l-33 110l-53 144l-63 -60l-14 -95q-2 -12 0 -15t13 -5l50 -7l-10 -74h-273l9 75l46 6q10 2 13 5.5t5 14.5l75 540q3 16 -10 21l-50 17l11 76h213l-59 -425l154 143q40 37 70.5 47.5t62.5 10.5q15 0 32 -2t26 -4l-11 -87q-29 2 -52 -6.5t-49 -33.5l-60 -56
l87 -244q5 -11 11 -13.5t17 -4.5l44 -7l-11 -73h-188z" />
    <glyph glyph-name="l" unicode="l" horiz-adv-x="318" 
d="M63 0l-3 5l24 135l71 501q3 17 -10 21l-50 17l11 76h213l-92 -654q-2 -12 0 -15t13 -5l48 -7l-9 -74h-216z" />
    <glyph glyph-name="m" unicode="m" horiz-adv-x="879" 
d="M626 0l-2 3l21 118l31 212q5 33 1 49.5t-24 16.5q-23 0 -50.5 -20.5t-59.5 -48.5l-32 -229q-2 -12 -0.5 -15t12.5 -5l50 -7l-10 -74h-216l-2 4l22 127l29 202q5 29 3 46.5t-24 17.5q-14 0 -30 -7t-31 -17.5t-29 -22t-24 -20.5l-31 -229q-2 -12 0 -15t13 -5l50 -7l-10 -74
h-274l10 75l44 6q10 2 13 5.5t5 14.5l42 305q3 17 -9 21l-49 18l11 76h198l-11 -82l3 -1q19 16 39.5 33t43 30t47 21.5t53.5 8.5q42 0 67.5 -23t28.5 -68l3 -1q18 16 38.5 32.5t43 29.5t46.5 21.5t51 8.5q55 0 79 -27t26 -81q0 -14 -1.5 -30.5t-3.5 -34.5l-36 -257
q-2 -12 0 -15t13 -5l49 -7l-10 -74h-217z" />
    <glyph glyph-name="n" unicode="n" horiz-adv-x="620" 
d="M368 0l-2 3l22 122l29 208q5 32 1 50.5t-27 18.5q-16 0 -33.5 -7t-35 -17.5t-33 -23.5t-28.5 -24l-31 -229q-2 -12 0 -15t13 -5l50 -7l-10 -74h-274l10 75l44 6q10 2 13 5.5t5 14.5l42 305q3 17 -9 21l-49 18l11 76h198l-11 -82l3 -1q21 18 42 35t43.5 29.5t48 20.5
t54.5 8q114 0 118 -119q0 -12 -1 -26.5t-3 -28.5l-36 -256q-2 -12 -0.5 -15t12.5 -5l50 -7l-10 -74h-216z" />
    <glyph glyph-name="o" unicode="o" horiz-adv-x="578" 
d="M269 -12q-59 0 -102 15.5t-71 43.5t-41.5 68t-13.5 88q0 72 20 132.5t58.5 104t95 67.5t129.5 24q63 0 105.5 -17t68.5 -45.5t37.5 -67.5t11.5 -82q0 -73 -18.5 -134t-56 -104.5t-93 -68t-130.5 -24.5zM281 93q26 0 49.5 12t41 38.5t28 69t10.5 104.5q0 57 -21.5 81.5
t-61.5 24.5q-25 0 -49 -11t-42.5 -36.5t-29.5 -68t-11 -104.5q0 -58 22.5 -84t63.5 -26z" />
    <glyph glyph-name="p" unicode="p" horiz-adv-x="604" 
d="M29 -212l-2 4l29 167l62 447q3 17 -9 21l-49 18l11 76h200l-12 -80l3 -1q45 42 90.5 66.5t93.5 24.5q32 0 59 -11t46.5 -35t30 -62t10.5 -92q0 -52 -11.5 -112t-39 -111.5t-73.5 -85.5t-116 -34q-49 0 -79.5 15.5t-58.5 35.5l-22 -150q-1 -8 1.5 -11.5t12.5 -4.5l101 -10
l-11 -75h-267zM229 143q19 -16 43 -27.5t52 -11.5q30 0 51.5 19t34.5 49t19 65.5t6 68.5q0 45 -11.5 71.5t-40.5 26.5q-15 0 -31.5 -7t-33.5 -18.5t-33 -24.5t-29 -25z" />
    <glyph glyph-name="q" unicode="q" horiz-adv-x="590" 
d="M237 -212l11 76l85 8q11 1 15.5 4.5t6.5 13.5l27 191l-4 2q-20 -17 -40.5 -34t-44 -30.5t-49.5 -22t-56 -8.5q-75 0 -109.5 51.5t-34.5 148.5q0 56 13 116.5t42 111t75.5 83t114.5 32.5q40 0 75.5 -13.5t68.5 -43.5l19 47h128q-8 -35 -14 -68t-11 -66l-69 -497
q-2 -11 0 -14.5t13 -5.5l47 -6l-10 -76h-299zM411 379q-16 15 -39.5 26.5t-48.5 11.5q-37 0 -61 -23.5t-38.5 -57.5t-20 -71.5t-5.5 -65.5q0 -86 57 -86q15 0 31.5 7t34 18.5t34 25.5t30.5 29z" />
    <glyph glyph-name="r" unicode="r" horiz-adv-x="470" 
d="M9 0l10 75l46 6q11 2 13.5 5.5t4.5 14.5l42 305q2 17 -10 21l-50 18l11 76h198l-13 -90l3 -2q29 42 70 72t89 30q17 0 40.5 -2.5t36.5 -6.5l-25 -182l-117 4l-3 52q-1 12 -11 12q-14 0 -35.5 -15t-42.5 -37l-35 -254q-2 -12 0.5 -15.5t13.5 -4.5l95 -8l-11 -74h-320z" />
    <glyph glyph-name="s" unicode="s" horiz-adv-x="478" 
d="M353 363l-2 52q0 6 -2 10t-10 6q-20 5 -56 5q-32 0 -53.5 -11t-21.5 -37q0 -24 23 -36t56 -23q27 -9 55.5 -20t52.5 -28.5t39.5 -43.5t15.5 -66q0 -49 -19 -83.5t-51.5 -56.5t-75.5 -32.5t-91 -10.5q-35 0 -67 4t-57.5 9t-43 11t-23.5 11l19 145l102 -6l3 -58
q0 -12 11 -16t28.5 -6.5t42.5 -2.5q42 0 64 14.5t22 40.5q0 15 -6.5 25t-19 17t-30 12.5t-38.5 11.5q-27 8 -54 18.5t-48 28t-34.5 43.5t-13.5 65q0 46 18.5 79.5t50 55t73.5 31.5t88 10q29 0 57 -3t51 -7.5t41 -9.5t28 -9l-20 -145z" />
    <glyph glyph-name="t" unicode="t" horiz-adv-x="422" 
d="M392 27q-33 -16 -79 -27.5t-88 -11.5q-75 0 -108.5 27.5t-33.5 89.5q0 20 3 44l36 262q2 10 -6 10h-69l13 92q32 3 56.5 13.5t43 29.5t31.5 47.5t23 69.5h93l-20 -142q-1 -5 0 -7.5t7 -2.5h138l-14 -100h-146l-33 -239q-3 -20 -3 -32q0 -26 13 -38t45 -12q21 0 41.5 4.5
t38.5 11.5z" />
    <glyph glyph-name="u" unicode="u" horiz-adv-x="623" 
d="M380 0l10 80l-3 1q-16 -14 -35 -30t-42 -30t-50 -23.5t-59 -9.5q-65 0 -92 32t-27 93q0 13 1 27.5t3 29.5l33 242q2 12 0 15.5t-13 5.5l-39 7l12 81h195l7 -7l-44 -318q-2 -13 -3 -24t-1 -19q0 -19 7 -27.5t25 -8.5q16 0 34 7.5t35 19t32 23.5t25 21l31 226q2 12 0 15
t-13 5l-32 5l13 82h189l7 -8l-59 -411q-2 -10 -0.5 -14.5t11.5 -6.5l50 -7l-10 -74h-198z" />
    <glyph glyph-name="v" unicode="v" horiz-adv-x="592" 
d="M190 0l-90 421q-2 9 -5.5 12t-12.5 5l-40 9l10 74h191l9 -9l17 -114l44 -252h3l144 293l-65 9l11 73h196l12 -31l-251 -490h-173z" />
    <glyph glyph-name="w" unicode="w" horiz-adv-x="856" 
d="M503 0l-41 335h-3l-118 -335h-179l-63 421q-2 9 -5.5 12t-11.5 5l-41 9l13 74h185l8 -9l7 -91l31 -270h3l132 361h157l44 -365h3l123 294l-55 6l12 74h166l11 -29l-212 -492h-166z" />
    <glyph glyph-name="x" unicode="x" horiz-adv-x="590" 
d="M390 0l-11 9l-45 83l-54 92l-91 -102l53 -9l-8 -73h-234l8 72l44 8q9 2 14.5 5.5t13.5 11.5l147 161l-101 162q-5 8 -8.5 11.5t-11.5 5.5l-39 9l12 75h159l10 -8l47 -90l44 -74l87 91l-49 7l13 74h227l-10 -74l-44 -10q-9 -2 -14.5 -6t-13.5 -13l-143 -144l109 -175
q5 -8 9.5 -12t12.5 -6l51 -8l-12 -73h-172z" />
    <glyph glyph-name="y" unicode="y" horiz-adv-x="568" 
d="M209 3l-112 418q-3 9 -6.5 12t-11.5 5l-39 9l12 74h176l10 -11l27 -129l45 -209h5l127 266l-61 9l11 74h185l14 -31l-290 -571q-19 -36 -38.5 -62.5t-44 -44t-55 -26.5t-70.5 -9q-27 0 -51 5.5t-43.5 13t-33 16.5t-20.5 15l51 85q15 -9 40.5 -19t50.5 -10q32 0 54 19.5
t40 50.5z" />
    <glyph glyph-name="z" unicode="z" horiz-adv-x="514" 
d="M21 0l12 84l304 343h-137q-11 0 -15 -12l-19 -57l-101 -4l23 167h434l-12 -86l-299 -342h144q11 0 15 13l22 69l103 4l-25 -179h-449z" />
    <glyph glyph-name="braceleft" unicode="{" horiz-adv-x="330" 
d="M260 -149q-54 1 -92 7.5t-61.5 20.5t-34 36.5t-10.5 55.5q0 27 6.5 55t15 56t15 54t6.5 50q0 36 -14.5 48.5t-46.5 14.5l12 79q32 2 51 14t27 45q4 15 6 39t3 50t1 52t-1 45q-5 89 51.5 122t176.5 32l6 -80q-26 -3 -41.5 -7.5t-24 -14t-11.5 -25t-4 -41.5
q-2 -40 -0.5 -75.5t0.5 -52.5q-2 -34 -8 -57t-17 -39t-26 -27t-33 -20q20 -11 35 -31.5t15 -56.5q0 -27 -6.5 -55.5t-15 -56t-15 -53.5t-6.5 -49q0 -26 13.5 -36.5t48.5 -18.5z" />
    <glyph glyph-name="bar" unicode="|" horiz-adv-x="285" 
d="M35 -143l122 867h137l-122 -867h-137z" />
    <glyph glyph-name="braceright" unicode="}" horiz-adv-x="340" 
d="M122 727q54 -1 92 -7.5t61.5 -20.5t34 -36.5t10.5 -55.5q0 -27 -6.5 -55t-15 -56t-15 -54t-6.5 -50q0 -36 14.5 -48.5t46.5 -14.5l-12 -79q-32 -2 -51 -14t-27 -45q-4 -15 -6 -39t-3 -50t-1 -52t1 -45q2 -45 -10.5 -74.5t-41 -47.5t-72.5 -25t-104 -7l-6 80
q26 3 41.5 7.5t24 14t11.5 25t4 41.5q2 40 0.5 75.5t-0.5 52.5q1 34 7.5 57t17.5 39t26 27t33 20q-20 11 -35 31.5t-15 56.5q0 27 6.5 55.5t15 56t15 53.5t6.5 49q0 26 -13.5 36.5t-48.5 18.5z" />
    <glyph glyph-name="asciitilde" unicode="~" horiz-adv-x="524" 
d="M547 431q-23 -72 -54 -106.5t-80 -34.5q-27 0 -56 7t-56.5 16t-53.5 16t-48 7q-24 0 -41 -9.5t-37 -38.5l-68 36q11 28 26 52t34 42t41 28.5t46 10.5q28 0 55.5 -7t54 -16t51.5 -16t49 -7t36.5 10.5t26.5 38.5z" />
    <glyph glyph-name="uni00A0" unicode="&#xa0;" horiz-adv-x="202" 
 />
    <glyph glyph-name="exclamdown" unicode="&#xa1;" horiz-adv-x="283" 
d="M243 327l-33 -355l-25 -177h-161l25 177l67 355h127zM110 440q0 44 23.5 67.5t73.5 23.5q77 0 77 -64q0 -44 -24 -68t-75 -24q-75 0 -75 65z" />
    <glyph glyph-name="cent" unicode="&#xa2;" horiz-adv-x="519" 
d="M465 74q-29 -16 -64 -25.5t-73 -13.5l-13 -102h-124l14 106q-69 14 -109 60.5t-40 138.5q0 124 57 199.5t160 94.5l16 105h125l-16 -103q38 -5 70 -14.5t55 -22.5l-22 -150l-100 5l-2 63q0 10 -9 13q-10 3 -23.5 5t-27.5 2q-57 0 -90.5 -46.5t-33.5 -144.5
q0 -57 20.5 -82.5t63.5 -25.5q15 0 27.5 2t22.5 4t13 13l21 65l102 4z" />
    <glyph glyph-name="sterling" unicode="&#xa3;" horiz-adv-x="552" 
d="M34 0l-4 90q24 13 40.5 26.5t27.5 32t18 44t12 63.5l3 23h-72l14 110h69l8 53q7 44 21 83t41.5 68t70.5 45.5t108 16.5q61 0 108 -18t78 -47l-73 -86q-24 20 -53 30.5t-57 10.5q-26 0 -43 -7.5t-28 -21t-17 -32.5t-9 -42l-8 -53h143l-15 -110h-140q-7 -60 -26 -103
t-61 -79h199q11 0 14 12l25 79h104l-25 -188h-473z" />
    <glyph glyph-name="currency" unicode="&#xa4;" 
d="M494 -3l-87 86q-25 -14 -54 -22t-63 -8q-73 0 -122 29l-85 -85l-80 80l88 89q-14 26 -19 53.5t-5 59.5q0 59 26 105q-9 9 -20.5 21t-23.5 24.5t-23.5 23.5t-19.5 19l82 83l82 -83q26 17 56.5 25.5t69.5 8.5q38 0 67.5 -8t55.5 -24l80 80l79 -81l-84 -84q10 -23 17 -51
t7 -55q0 -30 -7.5 -60.5t-21.5 -56.5l88 -88zM294 161q49 0 74.5 34.5t25.5 83.5q0 55 -25.5 85.5t-76.5 30.5t-75.5 -32.5t-24.5 -83.5q0 -49 24 -83.5t78 -34.5z" />
    <glyph glyph-name="yen" unicode="&#xa5;" horiz-adv-x="601" 
d="M381 215l-15 -111q-2 -11 0 -14.5t13 -4.5l103 -8l-11 -77h-385l10 77l98 8q13 1 16 5t5 15l14 110h-118l14 117h93l-107 201q-5 8 -9 11.5t-12 5.5l-40 11l11 75h284l-10 -75l-69 -9l75 -152h5l119 152l-53 9l10 75h239l-11 -75l-43 -9q-11 -2 -18 -11l-14 -18
l-152 -191h101l-15 -117h-128z" />
    <glyph glyph-name="brokenbar" unicode="&#xa6;" horiz-adv-x="285" 
d="M35 -143l55 388h137l-55 -388h-137zM110 389l47 335h137l-47 -335h-137z" />
    <glyph glyph-name="section" unicode="&#xa7;" horiz-adv-x="569" 
d="M151 -32q0 -8 2.5 -12.5t13.5 -7.5q10 -3 26.5 -5t41.5 -2q45 0 67 15.5t22 44.5q0 17 -9.5 28t-25.5 18.5t-36.5 12.5t-42.5 11q-26 7 -51 16t-45 24t-32.5 38t-12.5 58q0 54 28 91t65 63q-19 15 -31 41.5t-12 57.5q0 46 19 78.5t51.5 53.5t75 31t89.5 10q33 0 63 -3
t54.5 -7.5t42.5 -10t28 -9.5l-21 -145l-103 6l-2 54q0 14 -14 18q-23 6 -59 6q-41 0 -63 -16.5t-22 -41.5q0 -14 8.5 -24t23 -17t33.5 -12t40 -11q26 -7 53 -16.5t48.5 -25.5t35 -41t13.5 -62q0 -51 -25.5 -87t-62.5 -61q17 -18 28.5 -38.5t11.5 -52.5q0 -50 -21 -84
t-56 -55t-79.5 -30t-90.5 -9q-34 0 -66 4t-58 10t-44 12t-24 11l19 136l104 -6zM337 171q17 11 31 29.5t14 40.5q0 23 -20 36t-47 21l-73 20q-20 -13 -33.5 -30.5t-13.5 -37.5q0 -23 17.5 -34.5t46.5 -20.5z" />
    <glyph glyph-name="dieresis" unicode="&#xa8;" horiz-adv-x="500" 
d="M311 674q0 -35 -23 -56.5t-58 -21.5q-29 0 -46 17t-17 45q0 35 23.5 56t58.5 21q30 0 46 -16.5t16 -44.5zM519 674q0 -35 -23 -56.5t-58 -21.5q-29 0 -46 17t-17 45q0 35 23.5 56t58.5 21q30 0 46 -16.5t16 -44.5z" />
    <glyph glyph-name="copyright" unicode="&#xa9;" horiz-adv-x="770" 
d="M740 319q0 -75 -24.5 -137t-69 -106t-106 -68t-136.5 -24q-83 0 -145.5 24.5t-104.5 67.5t-63.5 102t-21.5 127q0 79 26.5 141t72 105t107 65.5t131.5 22.5q78 0 139.5 -22.5t105 -64.5t66.5 -101t23 -132zM406 56q59 0 106.5 18t80.5 51t50.5 80.5t17.5 107.5
q0 62 -19 109.5t-53 79.5t-81 48.5t-102 16.5t-101.5 -17.5t-81 -51t-54 -82t-19.5 -110.5q0 -118 67.5 -184t188.5 -66zM530 144q-20 -12 -52 -18t-62 -6q-51 0 -87 14.5t-58.5 40.5t-32.5 62t-10 78q0 43 12 78.5t36 61t59.5 40t83.5 14.5q31 0 62.5 -6.5t49.5 -13.5v-111
h-54l-9 49q-1 9 -8 11q-8 3 -19.5 5t-26.5 2q-44 0 -70 -29.5t-26 -102.5q0 -27 5 -50.5t17 -41.5t31.5 -28t48.5 -10q24 0 37 4q6 2 7.5 4.5t3.5 8.5l13 50h49v-106z" />
    <glyph glyph-name="ordfeminine" unicode="&#xaa;" horiz-adv-x="451" 
d="M300 282l7 50l-4 2q-32 -29 -59.5 -44.5t-63.5 -15.5q-51 0 -78 31t-27 99q0 37 9 77t29.5 73.5t53.5 55t81 21.5q29 0 52.5 -10t41.5 -27l13 30h99q-5 -22 -9.5 -43.5t-7.5 -44.5l-27 -183q-2 -7 -0.5 -9t9.5 -3l32 -5l-8 -54h-143zM325 527q-10 8 -24 14t-28 6
q-23 0 -38 -14.5t-23.5 -35.5t-12 -43.5t-3.5 -37.5q0 -23 7 -36t25 -13q16 0 38.5 13.5t40.5 30.5z" />
    <glyph glyph-name="guillemotleft" unicode="&#xab;" horiz-adv-x="466" 
d="M301 103l-64 154l110 151h123l-100 -140q-5 -6 -5.5 -9.5t1.5 -9.5l56 -146h-121zM113 103l-64 154l110 151h123l-100 -140q-5 -6 -5.5 -9.5t1.5 -9.5l56 -146h-121z" />
    <glyph glyph-name="logicalnot" unicode="&#xac;" 
d="M371 172l14 94h-276l16 117h387l-30 -211h-111z" />
    <glyph glyph-name="uni00AD" unicode="&#xad;" horiz-adv-x="311" 
d="M35 227l18 127h271l-18 -127h-271z" />
    <glyph glyph-name="registered" unicode="&#xae;" horiz-adv-x="453" 
d="M459 480q0 -41 -13.5 -75.5t-38.5 -59t-59 -38t-76 -13.5q-45 0 -80 14t-58 38t-35 56.5t-12 70.5q0 43 14.5 77.5t40 59t59 37.5t72.5 13q43 0 77.5 -13t58.5 -36.5t37 -57t13 -73.5zM411 477q0 67 -39.5 102.5t-98.5 35.5q-29 0 -53.5 -9.5t-43.5 -27.5t-29.5 -44.5
t-10.5 -59.5q0 -63 37 -99t100 -36q64 0 101 37t37 101zM309 384l-23 57q-4 9 -7 13t-12 4h-11v-40q0 -6 5 -7l20 -2v-25h-90v25l14 3q5 1 5 7v122q0 5 -5 6l-14 2v26h88q41 0 55.5 -16.5t14.5 -37.5q0 -20 -10 -33t-25 -18q10 -3 17 -19l15 -33q2 -5 8 -6l15 -3v-25h-60z
M269 491q14 0 23.5 5t9.5 22q0 14 -8.5 18.5t-20.5 4.5h-17v-50h13z" />
    <glyph glyph-name="macron" unicode="&#xaf;" horiz-adv-x="500" 
d="M178 599l14 100h317l-14 -100h-317z" />
    <glyph glyph-name="degree" unicode="&#xb0;" horiz-adv-x="286" 
d="M194 617q23 0 39 17t16 41q0 19 -11 30.5t-30 11.5q-21 0 -37.5 -16t-16.5 -42q0 -18 10 -30t30 -12zM317 684q0 -29 -10 -53t-28 -41.5t-42 -27t-52 -9.5q-46 0 -73.5 27.5t-27.5 71.5q0 31 10.5 55t29 40.5t42.5 25t51 8.5q45 0 72.5 -26t27.5 -71z" />
    <glyph glyph-name="plusminus" unicode="&#xb1;" 
d="M76 0l16 116h387l-16 -116h-387zM366 265l-18 -129h-120l18 129h-133l16 116h133l20 140h120l-20 -140h134l-16 -116h-134z" />
    <glyph glyph-name="twosuperior" unicode="&#xb2;" horiz-adv-x="386" 
d="M44 350l11 76l153 147q46 45 66.5 71t20.5 49q0 10 -7 18.5t-26 8.5q-23 0 -33.5 -12.5t-15.5 -42.5l-124 11q6 42 24.5 67.5t45 40t58 19t64.5 4.5q74 0 110.5 -28.5t36.5 -79.5q0 -42 -23 -72t-56 -64l-137 -134h85q5 0 6.5 3t3.5 6l13 44h93l-20 -132h-349z" />
    <glyph glyph-name="threesuperior" unicode="&#xb3;" horiz-adv-x="397" 
d="M340 584q32 -7 52 -29.5t20 -59.5q0 -39 -15.5 -68t-42 -47.5t-62.5 -28t-77 -9.5q-56 0 -102 18t-71 48l74 71q16 -17 40 -30t59 -13q29 0 47.5 14.5t18.5 41.5q0 24 -13.5 35.5t-36.5 11.5q-14 0 -23.5 -1t-26.5 -4l12 82l32 3q35 4 56 18.5t21 48.5q0 14 -7.5 23
t-25.5 9q-23 0 -33 -10.5t-14 -42.5l-127 10q5 42 23.5 68t44.5 40.5t57 19t61 4.5q79 0 115 -27t36 -75q0 -26 -8.5 -46.5t-22 -35t-29.5 -23.5t-31 -13z" />
    <glyph glyph-name="acute" unicode="&#xb4;" horiz-adv-x="500" 
d="M272 561l-55 58l164 163l77 -85z" />
    <glyph glyph-name="mu" unicode="&#xb5;" horiz-adv-x="605" 
d="M416 521h150l-54 -383q-3 -22 -3.5 -27.5t-0.5 -7.5q0 -8 3 -13t14 -7l52 -8l-10 -73q-3 -1 -13 -3t-24.5 -4.5t-31 -4t-31.5 -1.5q-27 0 -43.5 9t-26 22.5t-13 30t-4.5 30.5h-2q-35 -38 -80 -60t-85 -22q-16 0 -33 5l-15 -216h-155l102 733h148l-45 -319q-1 -7 -2.5 -20
t-1.5 -21q0 -21 8.5 -33t30.5 -12q16 0 33 7t32.5 17t29.5 21.5t24 20.5z" />
    <glyph glyph-name="paragraph" unicode="&#xb6;" horiz-adv-x="657" 
d="M486 553h-64l-71 -497h-40q-111 0 -173.5 66.5t-62.5 184.5q0 78 24 140.5t69 106.5t110.5 67.5t148.5 23.5h273l-11 -76l-68 -8q-11 -2 -14 -5t-5 -14l-73 -518q-8 -54 -27.5 -92.5t-49 -62.5t-68.5 -35.5t-84 -11.5q-40 0 -74 6t-60.5 15t-46 18.5t-29.5 16.5l46 88
q6 -4 21 -11.5t35.5 -14.5t45.5 -12t51 -5q54 0 84 27.5t39 87.5z" />
    <glyph glyph-name="periodcentered" unicode="&#xb7;" horiz-adv-x="238" 
d="M243 334q0 -42 -24.5 -65t-72.5 -23q-76 0 -76 67q0 43 24.5 66t73.5 23q39 0 57 -17t18 -51z" />
    <glyph glyph-name="cedilla" unicode="&#xb8;" horiz-adv-x="500" 
d="M134 -179q5 -2 14 -3t21 -1q11 0 22.5 2.5t21 8t15.5 14.5t6 23q0 23 -17 31t-44 9l34 125l70 -8l-18 -67q12 -3 24 -9.5t22.5 -17t17 -25t6.5 -35.5q0 -31 -12.5 -54t-33.5 -38.5t-48 -23.5t-55 -8t-44 3.5t-18 4.5z" />
    <glyph glyph-name="onesuperior" unicode="&#xb9;" horiz-adv-x="310" 
d="M59 350l9 63l52 4q8 1 10 3t4 10l40 277q1 5 0 8.5t-6 4.5l-55 13l11 64h199l-55 -367q-2 -8 -0.5 -10t9.5 -3l52 -5l-9 -62h-261z" />
    <glyph glyph-name="ordmasculine" unicode="&#xba;" horiz-adv-x="415" 
d="M229 274q-86 0 -122.5 40t-36.5 103q0 8 0.5 15.5t1.5 15.5q9 83 64 133t149 50q43 0 73 -11.5t48.5 -31.5t26.5 -46t8 -54v-15.5t-1 -15.5q-11 -84 -62 -133.5t-149 -49.5zM241 353q28 0 48 21.5t28 80.5q3 19 3 35q0 35 -13 49t-36 14q-29 0 -50 -20.5t-29 -78.5
q-2 -11 -2 -20v-17q0 -36 13.5 -50t37.5 -14z" />
    <glyph glyph-name="guillemotright" unicode="&#xbb;" horiz-adv-x="466" 
d="M221 103l98 146q4 6 4.5 9.5t-2.5 9.5l-60 140h122l67 -152l-107 -153h-122zM33 103l98 146q4 6 4.5 9.5t-2.5 9.5l-60 140h122l67 -152l-107 -153h-122z" />
    <glyph glyph-name="onequarter" unicode="&#xbc;" horiz-adv-x="980" 
d="M80 282l9 63l52 4q8 1 10 3t4 10l40 277q1 5 0 8.5t-6 4.5l-55 13l11 64h199l-55 -367q-2 -8 -0.5 -10t9.5 -3l52 -5l-9 -62h-261zM205 -17l462 741h138l-461 -741h-139zM728 1l12 86h-201l12 82l223 278h140l-40 -274h54l-13 -85h-54l-12 -87h-121zM774 323h-3
l-118 -150h99z" />
    <glyph glyph-name="onehalf" unicode="&#xbd;" horiz-adv-x="980" 
d="M78 282l9 63l52 4q8 1 10 3t4 10l40 277q1 5 0 8.5t-6 4.5l-55 13l11 64h199l-55 -367q-2 -8 -0.5 -10t9.5 -3l52 -5l-9 -62h-261zM187 -17l462 741h138l-461 -741h-139zM561 1l11 76l153 147q46 45 66.5 71t20.5 49q0 10 -7 18.5t-26 8.5q-23 0 -33.5 -12.5t-15.5 -42.5
l-124 11q6 42 24.5 67.5t45 40t58 19t64.5 4.5q74 0 110.5 -28.5t36.5 -79.5q0 -42 -23 -72t-56 -64l-137 -134h85q5 0 6.5 3t3.5 6l13 44h93l-20 -132h-349z" />
    <glyph glyph-name="threequarters" unicode="&#xbe;" horiz-adv-x="980" 
d="M358 516q32 -7 52 -29.5t20 -59.5q0 -39 -15.5 -68t-42 -47.5t-62.5 -28t-77 -9.5q-56 0 -102 18t-71 48l74 71q16 -17 40 -30t59 -13q29 0 47.5 14.5t18.5 41.5q0 24 -13.5 35.5t-36.5 11.5q-14 0 -23.5 -1t-26.5 -4l12 82l32 3q35 4 56 18.5t21 48.5q0 14 -7.5 23
t-25.5 9q-23 0 -33 -10.5t-14 -42.5l-127 10q5 42 23.5 68t44.5 40.5t57 19t61 4.5q79 0 115 -27t36 -75q0 -26 -8.5 -46.5t-22 -35t-29.5 -23.5t-31 -13zM232 -17l462 741h138l-461 -741h-139zM738 1l12 86h-201l12 82l223 278h140l-40 -274h54l-13 -85h-54l-12 -87h-121z
M784 323h-3l-118 -150h99z" />
    <glyph glyph-name="questiondown" unicode="&#xbf;" horiz-adv-x="536" 
d="M443 327l-25 -186q-35 -3 -75 -12t-74 -27t-56.5 -47t-22.5 -72q0 -33 21 -49t55 -16q23 0 40 2t28 5t14 7t5 13l15 60l124 9l-24 -173q-54 -20 -109.5 -33t-114.5 -13q-45 0 -85 8.5t-69 29.5t-46 56.5t-17 89.5q0 98 62.5 165t190.5 87l12 96h151zM299 440
q0 44 24 67.5t74 23.5q76 0 76 -64q0 -44 -24 -68t-74 -24q-76 0 -76 65z" />
    <glyph glyph-name="Agrave" unicode="&#xc0;" horiz-adv-x="744" 
d="M419 0l10 73l82 9l-19 109h-246l-49 -109l76 -9l-11 -73h-274l11 73l45 11q20 5 27 20l299 620h174l128 -623q2 -9 7 -12t15 -5l43 -11l-11 -73h-307zM425 572h-7l-127 -273h185zM336 856l65 99l190 -122l-45 -67z" />
    <glyph glyph-name="Aacute" unicode="&#xc1;" horiz-adv-x="744" 
d="M419 0l10 73l82 9l-19 109h-246l-49 -109l76 -9l-11 -73h-274l11 73l45 11q20 5 27 20l299 620h174l128 -623q2 -9 7 -12t15 -5l43 -11l-11 -73h-307zM425 572h-7l-127 -273h185zM372 767l-32 71l212 117l45 -103z" />
    <glyph glyph-name="Acircumflex" unicode="&#xc2;" horiz-adv-x="744" 
d="M419 0l10 73l82 9l-19 109h-246l-49 -109l76 -9l-11 -73h-274l11 73l45 11q20 5 27 20l299 620h174l128 -623q2 -9 7 -12t15 -5l43 -11l-11 -73h-307zM425 572h-7l-127 -273h185zM575 767l-107 81l-129 -81l-49 56l137 112h104l105 -112z" />
    <glyph glyph-name="Atilde" unicode="&#xc3;" horiz-adv-x="744" 
d="M419 0l10 73l82 9l-19 109h-246l-49 -109l76 -9l-11 -73h-274l11 73l45 11q20 5 27 20l299 620h174l128 -623q2 -9 7 -12t15 -5l43 -11l-11 -73h-307zM425 572h-7l-127 -273h185zM620 841q-21 -29 -38 -44.5t-41 -15.5q-17 0 -35.5 3.5t-44.5 10.5l-75 20q-10 3 -17 -4
l-35 -32l-58 39l36 52q17 25 34.5 36t40.5 11q14 0 39.5 -4.5t57.5 -12.5q20 -5 35.5 -9.5t25.5 -4.5t15 6l27 29l61 -39z" />
    <glyph glyph-name="Adieresis" unicode="&#xc4;" horiz-adv-x="744" 
d="M419 0l10 73l82 9l-19 109h-246l-49 -109l76 -9l-11 -73h-274l11 73l45 11q20 5 27 20l299 620h174l128 -623q2 -9 7 -12t15 -5l43 -11l-11 -73h-307zM425 572h-7l-127 -273h185zM436 859q0 -35 -23 -56.5t-58 -21.5q-29 0 -46 17t-17 45q0 35 23.5 56t58.5 21
q30 0 46 -16.5t16 -44.5zM644 859q0 -35 -23 -56.5t-58 -21.5q-29 0 -46 17t-17 45q0 35 23.5 56t58.5 21q30 0 46 -16.5t16 -44.5z" />
    <glyph glyph-name="Aring" unicode="&#xc5;" horiz-adv-x="744" 
d="M419 0l10 73l82 9l-19 109h-246l-49 -109l76 -9l-11 -73h-274l11 73l45 11q20 5 27 20l299 620h174l128 -623q2 -9 7 -12t15 -5l43 -11l-11 -73h-307zM425 572h-7l-127 -273h185zM486 944q37 0 65.5 -20.5t28.5 -63.5q0 -50 -32 -82t-87 -32q-42 0 -69.5 22t-27.5 65
q0 51 33.5 81t88.5 30zM468 805q26 0 35.5 15t9.5 35q0 17 -10.5 23.5t-24.5 6.5q-46 0 -46 -50q0 -15 10 -22.5t26 -7.5z" />
    <glyph glyph-name="AE" unicode="&#xc6;" horiz-adv-x="1000" 
d="M396 0l10 73l66 8q9 1 12 4t4 13l29 204h-192l-134 -220l76 -9l-10 -73h-269l11 73l43 11q10 2 16.5 5t12.5 14l332 536l-73 10l10 75h680l-29 -202l-107 5l-3 76q0 13 -16 13h-157l-28 -203h233l-16 -111h-232l-28 -195h179q8 0 11.5 1.5t6.5 9.5l28 88h107l-29 -206
h-544zM561 616h-49l-126 -203h147z" />
    <glyph glyph-name="Ccedilla" unicode="&#xc7;" horiz-adv-x="670" 
d="M255 -179q5 -2 14 -3t21 -1q11 0 22.5 2.5t21 8t15.5 14.5t6 23q0 23 -17 31t-44 9l23 85q-68 6 -116.5 30.5t-80 65t-46.5 95t-15 119.5q0 96 26.5 176t79 138t131 90.5t181.5 32.5q30 0 61.5 -4t60.5 -11t54 -18t43 -24l-26 -196l-107 9l-3 93q0 11 -3 15.5t-10 6.5
q-15 6 -35.5 9.5t-48.5 3.5q-54 0 -99.5 -20t-77.5 -59t-50 -97t-18 -134q0 -103 42.5 -156t123.5 -53q30 0 57 2.5t46 10.5q6 3 9.5 7t5.5 12l29 95h105l-26 -186q-42 -24 -101 -37.5t-120 -16.5l-9 -34q12 -3 24 -9.5t22.5 -17t17 -25t6.5 -35.5q0 -31 -12.5 -54
t-33.5 -38.5t-48 -23.5t-55 -8t-44 3.5t-18 4.5z" />
    <glyph glyph-name="Egrave" unicode="&#xc8;" horiz-adv-x="620" 
d="M18 0l10 73l63 7q11 2 14 5.5t5 14.5l73 523q2 11 -0.5 15t-12.5 5l-62 7l10 74h521l-28 -202l-105 5l-3 76q-1 13 -16 13h-155l-27 -197h230l-16 -111h-230l-27 -201h177q8 0 11.5 1.5t5.5 9.5l28 88h105l-28 -206h-543zM276 856l65 99l190 -122l-45 -67z" />
    <glyph glyph-name="Eacute" unicode="&#xc9;" horiz-adv-x="620" 
d="M18 0l10 73l63 7q11 2 14 5.5t5 14.5l73 523q2 11 -0.5 15t-12.5 5l-62 7l10 74h521l-28 -202l-105 5l-3 76q-1 13 -16 13h-155l-27 -197h230l-16 -111h-230l-27 -201h177q8 0 11.5 1.5t5.5 9.5l28 88h105l-28 -206h-543zM312 767l-32 71l212 117l45 -103z" />
    <glyph glyph-name="Ecircumflex" unicode="&#xca;" horiz-adv-x="620" 
d="M18 0l10 73l63 7q11 2 14 5.5t5 14.5l73 523q2 11 -0.5 15t-12.5 5l-62 7l10 74h521l-28 -202l-105 5l-3 76q-1 13 -16 13h-155l-27 -197h230l-16 -111h-230l-27 -201h177q8 0 11.5 1.5t5.5 9.5l28 88h105l-28 -206h-543zM515 767l-107 81l-129 -81l-49 56l137 112h104
l105 -112z" />
    <glyph glyph-name="Edieresis" unicode="&#xcb;" horiz-adv-x="620" 
d="M18 0l10 73l63 7q11 2 14 5.5t5 14.5l73 523q2 11 -0.5 15t-12.5 5l-62 7l10 74h521l-28 -202l-105 5l-3 76q-1 13 -16 13h-155l-27 -197h230l-16 -111h-230l-27 -201h177q8 0 11.5 1.5t5.5 9.5l28 88h105l-28 -206h-543zM376 859q0 -35 -23 -56.5t-58 -21.5
q-29 0 -46 17t-17 45q0 35 23.5 56t58.5 21q30 0 46 -16.5t16 -44.5zM584 859q0 -35 -23 -56.5t-58 -21.5q-29 0 -46 17t-17 45q0 35 23.5 56t58.5 21q30 0 46 -16.5t16 -44.5z" />
    <glyph glyph-name="Igrave" unicode="&#xcc;" horiz-adv-x="382" 
d="M11 0l8 73l73 7q11 1 13.5 5t4.5 15l74 522q2 11 -0.5 15t-13.5 5l-70 7l10 75h330l-11 -75l-76 -8q-11 -2 -13.5 -5t-4.5 -14l-73 -521q-2 -12 -0.5 -15t12.5 -5l75 -8l-9 -73h-329zM149 856l65 99l190 -122l-45 -67z" />
    <glyph glyph-name="Iacute" unicode="&#xcd;" horiz-adv-x="382" 
d="M11 0l8 73l73 7q11 1 13.5 5t4.5 15l74 522q2 11 -0.5 15t-13.5 5l-70 7l10 75h330l-11 -75l-76 -8q-11 -2 -13.5 -5t-4.5 -14l-73 -521q-2 -12 -0.5 -15t12.5 -5l75 -8l-9 -73h-329zM193 767l-32 71l212 117l45 -103z" />
    <glyph glyph-name="Icircumflex" unicode="&#xce;" horiz-adv-x="382" 
d="M11 0l8 73l73 7q11 1 13.5 5t4.5 15l74 522q2 11 -0.5 15t-13.5 5l-70 7l10 75h330l-11 -75l-76 -8q-11 -2 -13.5 -5t-4.5 -14l-73 -521q-2 -12 -0.5 -15t12.5 -5l75 -8l-9 -73h-329zM396 767l-107 81l-129 -81l-49 56l137 112h104l105 -112z" />
    <glyph glyph-name="Idieresis" unicode="&#xcf;" horiz-adv-x="382" 
d="M11 0l8 73l73 7q11 1 13.5 5t4.5 15l74 522q2 11 -0.5 15t-13.5 5l-70 7l10 75h330l-11 -75l-76 -8q-11 -2 -13.5 -5t-4.5 -14l-73 -521q-2 -12 -0.5 -15t12.5 -5l75 -8l-9 -73h-329zM257 859q0 -35 -23 -56.5t-58 -21.5q-29 0 -46 17t-17 45q0 35 23.5 56t58.5 21
q30 0 46 -16.5t16 -44.5zM465 859q0 -35 -23 -56.5t-58 -21.5q-29 0 -46 17t-17 45q0 35 23.5 56t58.5 21q30 0 46 -16.5t16 -44.5z" />
    <glyph glyph-name="Eth" unicode="&#xd0;" horiz-adv-x="745" 
d="M24 0l11 75l63 7q10 1 13 4.5t5 14.5l29 209h-80l15 107h80l29 206q2 11 -0.5 14.5t-12.5 5.5l-62 7l10 74h318q81 0 139 -20.5t95.5 -58.5t55.5 -92.5t18 -122.5q0 -92 -25.5 -170.5t-77.5 -136.5t-132 -90.5t-189 -32.5h-302zM324 107q68 0 119 25t84.5 68.5
t50.5 101.5t17 124q0 102 -49 146t-147 44h-61l-28 -199h141l-14 -107h-141l-28 -203h56z" />
    <glyph glyph-name="Ntilde" unicode="&#xd1;" horiz-adv-x="812" 
d="M522 0l-240 525l-59 -424q-2 -12 0 -15t13 -5l65 -8l-9 -73h-273l9 73l63 7q11 2 14 5.5t5 14.5l73 523q2 11 0 15t-13 5l-60 7l8 74h243l236 -526l60 424q2 11 -0.5 15t-12.5 5l-61 7l9 75h272l-10 -75l-67 -8q-11 -2 -13 -5t-4 -14l-88 -622h-160zM648 841
q-21 -29 -38 -44.5t-41 -15.5q-17 0 -35.5 3.5t-44.5 10.5l-75 20q-10 3 -17 -4l-35 -32l-58 39l36 52q17 25 34.5 36t40.5 11q14 0 39.5 -4.5t57.5 -12.5q20 -5 35.5 -9.5t25.5 -4.5t15 6l27 29l61 -39z" />
    <glyph glyph-name="Ograve" unicode="&#xd2;" horiz-adv-x="757" 
d="M352 -12q-78 0 -134 21.5t-91 60.5t-51.5 94t-16.5 122q0 94 25.5 176.5t77 143.5t128 96t178.5 35q78 0 133 -22.5t90 -61.5t51.5 -92.5t16.5 -115.5q0 -107 -27.5 -191.5t-80 -143.5t-128 -90.5t-171.5 -31.5zM375 111q44 0 83 16t69 52t48.5 93t23.5 138v29t-2 27
q-9 78 -45.5 113t-101.5 35q-59 0 -102 -26.5t-71.5 -69.5t-42.5 -97.5t-14 -110.5q0 -13 0.5 -28.5t2.5 -25.5q10 -75 47 -110t105 -35zM344 856l65 99l190 -122l-45 -67z" />
    <glyph glyph-name="Oacute" unicode="&#xd3;" horiz-adv-x="757" 
d="M352 -12q-78 0 -134 21.5t-91 60.5t-51.5 94t-16.5 122q0 94 25.5 176.5t77 143.5t128 96t178.5 35q78 0 133 -22.5t90 -61.5t51.5 -92.5t16.5 -115.5q0 -107 -27.5 -191.5t-80 -143.5t-128 -90.5t-171.5 -31.5zM375 111q44 0 83 16t69 52t48.5 93t23.5 138v29t-2 27
q-9 78 -45.5 113t-101.5 35q-59 0 -102 -26.5t-71.5 -69.5t-42.5 -97.5t-14 -110.5q0 -13 0.5 -28.5t2.5 -25.5q10 -75 47 -110t105 -35zM380 767l-32 71l212 117l45 -103z" />
    <glyph glyph-name="Ocircumflex" unicode="&#xd4;" horiz-adv-x="757" 
d="M352 -12q-78 0 -134 21.5t-91 60.5t-51.5 94t-16.5 122q0 94 25.5 176.5t77 143.5t128 96t178.5 35q78 0 133 -22.5t90 -61.5t51.5 -92.5t16.5 -115.5q0 -107 -27.5 -191.5t-80 -143.5t-128 -90.5t-171.5 -31.5zM375 111q44 0 83 16t69 52t48.5 93t23.5 138v29t-2 27
q-9 78 -45.5 113t-101.5 35q-59 0 -102 -26.5t-71.5 -69.5t-42.5 -97.5t-14 -110.5q0 -13 0.5 -28.5t2.5 -25.5q10 -75 47 -110t105 -35zM583 767l-107 81l-129 -81l-49 56l137 112h104l105 -112z" />
    <glyph glyph-name="Otilde" unicode="&#xd5;" horiz-adv-x="757" 
d="M352 -12q-78 0 -134 21.5t-91 60.5t-51.5 94t-16.5 122q0 94 25.5 176.5t77 143.5t128 96t178.5 35q78 0 133 -22.5t90 -61.5t51.5 -92.5t16.5 -115.5q0 -107 -27.5 -191.5t-80 -143.5t-128 -90.5t-171.5 -31.5zM375 111q44 0 83 16t69 52t48.5 93t23.5 138v29t-2 27
q-9 78 -45.5 113t-101.5 35q-59 0 -102 -26.5t-71.5 -69.5t-42.5 -97.5t-14 -110.5q0 -13 0.5 -28.5t2.5 -25.5q10 -75 47 -110t105 -35zM628 841q-21 -29 -38 -44.5t-41 -15.5q-17 0 -35.5 3.5t-44.5 10.5l-75 20q-10 3 -17 -4l-35 -32l-58 39l36 52q17 25 34.5 36t40.5 11
q14 0 39.5 -4.5t57.5 -12.5q20 -5 35.5 -9.5t25.5 -4.5t15 6l27 29l61 -39z" />
    <glyph glyph-name="Odieresis" unicode="&#xd6;" horiz-adv-x="757" 
d="M352 -12q-78 0 -134 21.5t-91 60.5t-51.5 94t-16.5 122q0 94 25.5 176.5t77 143.5t128 96t178.5 35q78 0 133 -22.5t90 -61.5t51.5 -92.5t16.5 -115.5q0 -107 -27.5 -191.5t-80 -143.5t-128 -90.5t-171.5 -31.5zM375 111q44 0 83 16t69 52t48.5 93t23.5 138v29t-2 27
q-9 78 -45.5 113t-101.5 35q-59 0 -102 -26.5t-71.5 -69.5t-42.5 -97.5t-14 -110.5q0 -13 0.5 -28.5t2.5 -25.5q10 -75 47 -110t105 -35zM444 859q0 -35 -23 -56.5t-58 -21.5q-29 0 -46 17t-17 45q0 35 23.5 56t58.5 21q30 0 46 -16.5t16 -44.5zM652 859q0 -35 -23 -56.5
t-58 -21.5q-29 0 -46 17t-17 45q0 35 23.5 56t58.5 21q30 0 46 -16.5t16 -44.5z" />
    <glyph glyph-name="multiply" unicode="&#xd7;" 
d="M385 319l85 -97l-96 -81l-83 96l-111 -97l-68 83l109 95l-83 96l96 81l81 -95l110 96l68 -83z" />
    <glyph glyph-name="Oslash" unicode="&#xd8;" horiz-adv-x="757" 
d="M95 -79l66 118q-54 38 -78 101.5t-24 145.5q0 94 25.5 176.5t77 143.5t128 96t178.5 35q41 0 81 -8l35 64h137l-62 -112q52 -39 76 -100t24 -136q0 -107 -27.5 -191.5t-80 -143.5t-128 -90.5t-171.5 -31.5q-22 0 -42 2t-38 5l-41 -74h-136zM223 256q6 -46 23 -79l238 434
q-15 3 -34 3q-59 0 -102 -26.5t-71.5 -69.5t-42.5 -97.5t-14 -110.5q0 -13 0.5 -28.5t2.5 -25.5zM375 111q44 0 83 16t69 52t48.5 93t23.5 138v29t-2 27q-4 40 -18 70l-233 -424q7 -1 14 -1h15z" />
    <glyph glyph-name="Ugrave" unicode="&#xd9;" horiz-adv-x="774" 
d="M602 623q2 11 -0.5 15t-12.5 5l-61 7l10 74h290l-10 -74l-68 -8q-11 -2 -13.5 -5t-3.5 -14l-51 -364q-20 -144 -97 -207.5t-208 -63.5q-130 0 -193 52t-63 161q0 14 1.5 29.5t3.5 32.5l49 360q2 11 -0.5 15t-11.5 5l-61 7l10 74h310l-10 -74l-67 -8q-11 -2 -13.5 -5
t-4.5 -14l-47 -335q-6 -39 -6 -70q0 -55 26 -81t89 -26q39 0 67.5 10t48.5 31t32 54.5t18 80.5zM347 856l65 99l190 -122l-45 -67z" />
    <glyph glyph-name="Uacute" unicode="&#xda;" horiz-adv-x="774" 
d="M602 623q2 11 -0.5 15t-12.5 5l-61 7l10 74h290l-10 -74l-68 -8q-11 -2 -13.5 -5t-3.5 -14l-51 -364q-20 -144 -97 -207.5t-208 -63.5q-130 0 -193 52t-63 161q0 14 1.5 29.5t3.5 32.5l49 360q2 11 -0.5 15t-11.5 5l-61 7l10 74h310l-10 -74l-67 -8q-11 -2 -13.5 -5
t-4.5 -14l-47 -335q-6 -39 -6 -70q0 -55 26 -81t89 -26q39 0 67.5 10t48.5 31t32 54.5t18 80.5zM397 767l-32 71l212 117l45 -103z" />
    <glyph glyph-name="Ucircumflex" unicode="&#xdb;" horiz-adv-x="774" 
d="M602 623q2 11 -0.5 15t-12.5 5l-61 7l10 74h290l-10 -74l-68 -8q-11 -2 -13.5 -5t-3.5 -14l-51 -364q-20 -144 -97 -207.5t-208 -63.5q-130 0 -193 52t-63 161q0 14 1.5 29.5t3.5 32.5l49 360q2 11 -0.5 15t-11.5 5l-61 7l10 74h310l-10 -74l-67 -8q-11 -2 -13.5 -5
t-4.5 -14l-47 -335q-6 -39 -6 -70q0 -55 26 -81t89 -26q39 0 67.5 10t48.5 31t32 54.5t18 80.5zM600 767l-107 81l-129 -81l-49 56l137 112h104l105 -112z" />
    <glyph glyph-name="Udieresis" unicode="&#xdc;" horiz-adv-x="774" 
d="M602 623q2 11 -0.5 15t-12.5 5l-61 7l10 74h290l-10 -74l-68 -8q-11 -2 -13.5 -5t-3.5 -14l-51 -364q-20 -144 -97 -207.5t-208 -63.5q-130 0 -193 52t-63 161q0 14 1.5 29.5t3.5 32.5l49 360q2 11 -0.5 15t-11.5 5l-61 7l10 74h310l-10 -74l-67 -8q-11 -2 -13.5 -5
t-4.5 -14l-47 -335q-6 -39 -6 -70q0 -55 26 -81t89 -26q39 0 67.5 10t48.5 31t32 54.5t18 80.5zM461 859q0 -35 -23 -56.5t-58 -21.5q-29 0 -46 17t-17 45q0 35 23.5 56t58.5 21q30 0 46 -16.5t16 -44.5zM669 859q0 -35 -23 -56.5t-58 -21.5q-29 0 -46 17t-17 45
q0 35 23.5 56t58.5 21q30 0 46 -16.5t16 -44.5z" />
    <glyph glyph-name="Yacute" unicode="&#xdd;" horiz-adv-x="663" 
d="M132 0l9 74l100 7q10 1 12.5 5t4.5 15l24 169l-146 353q-3 8 -8 11t-14 6l-42 11l11 73h302l-11 -73l-78 -9l87 -240h6l152 240l-74 9l11 73h261l-11 -73l-42 -11q-10 -3 -16.5 -7t-11.5 -13l-224 -348l-24 -171q-2 -11 0 -14.5t13 -4.5l103 -8l-10 -74h-384zM349 767
l-32 71l212 117l45 -103z" />
    <glyph glyph-name="Thorn" unicode="&#xde;" horiz-adv-x="640" 
d="M18 0l10 74l63 7q11 2 14 5.5t5 14.5l73 521q2 11 -0.5 15t-13.5 5l-60 7l9 75h312l-10 -75l-72 -8q-9 -2 -12 -5t-4 -11l-4 -28h98q59 0 100.5 -13.5t68 -38t38.5 -59t12 -75.5q0 -64 -21.5 -111t-61 -78.5t-96 -47t-126.5 -15.5h-72l-7 -57q-2 -12 0 -15t12 -5l140 -8
l-11 -74h-384zM330 265q28 0 56 4.5t50.5 19t36.5 41.5t14 72q0 25 -9 42t-24.5 26.5t-36.5 13.5t-44 4h-59l-31 -223h47z" />
    <glyph glyph-name="germandbls" unicode="&#xdf;" horiz-adv-x="686" 
d="M25 -212l109 761q10 67 36.5 109.5t65 66.5t84.5 33t95 9q64 0 107 -14.5t69 -37t37 -48.5t11 -48q0 -24 -6.5 -44.5t-17 -37.5t-23.5 -31.5t-26 -26.5q-23 -22 -40.5 -39.5t-17.5 -36.5q0 -26 24.5 -44.5t54.5 -40.5q15 -11 29 -24.5t25 -30.5t18 -38.5t7 -48.5
q0 -42 -15 -76.5t-42.5 -59.5t-67.5 -38.5t-91 -13.5q-33 0 -62.5 4t-53.5 9t-40 11t-22 11l19 138l102 -6l3 -58q1 -8 3 -13.5t13 -7.5q13 -4 38 -4q37 0 57 19.5t20 48.5q0 32 -20.5 52t-48.5 37q-17 11 -34.5 23t-31.5 27t-23 35t-9 47q0 25 7.5 45t19.5 37t26 32t28 29
q20 20 33.5 41t13.5 48q0 26 -21 45t-65 19q-52 0 -83 -28t-41 -99l-105 -742h-148z" />
    <glyph glyph-name="agrave" unicode="&#xe0;" horiz-adv-x="605" 
d="M370 0l12 81l-5 1q-45 -44 -87 -69t-95 -25q-74 0 -113 49t-39 151q0 57 13 117.5t42.5 110.5t77.5 82.5t119 32.5q43 0 77 -15.5t60 -41.5l19 47h128q-7 -32 -13.5 -65t-11.5 -66l-40 -290q-2 -11 0 -14t13 -5l47 -7l-11 -74h-193zM410 380q-16 14 -39.5 25.5
t-48.5 11.5q-37 0 -61 -23.5t-38.5 -57.5t-20 -71t-5.5 -65q0 -87 57 -87q14 0 31 7t34 18t34 25.5t31 28.5zM408 561l-158 146l93 78l129 -174z" />
    <glyph glyph-name="aacute" unicode="&#xe1;" horiz-adv-x="605" 
d="M370 0l12 81l-5 1q-45 -44 -87 -69t-95 -25q-74 0 -113 49t-39 151q0 57 13 117.5t42.5 110.5t77.5 82.5t119 32.5q43 0 77 -15.5t60 -41.5l19 47h128q-7 -32 -13.5 -65t-11.5 -66l-40 -290q-2 -11 0 -14t13 -5l47 -7l-11 -74h-193zM410 380q-16 14 -39.5 25.5
t-48.5 11.5q-37 0 -61 -23.5t-38.5 -57.5t-20 -71t-5.5 -65q0 -87 57 -87q14 0 31 7t34 18t34 25.5t31 28.5zM301 561l-55 58l164 163l77 -85z" />
    <glyph glyph-name="acircumflex" unicode="&#xe2;" horiz-adv-x="605" 
d="M370 0l12 81l-5 1q-45 -44 -87 -69t-95 -25q-74 0 -113 49t-39 151q0 57 13 117.5t42.5 110.5t77.5 82.5t119 32.5q43 0 77 -15.5t60 -41.5l19 47h128q-7 -32 -13.5 -65t-11.5 -66l-40 -290q-2 -11 0 -14t13 -5l47 -7l-11 -74h-193zM410 380q-16 14 -39.5 25.5
t-48.5 11.5q-37 0 -61 -23.5t-38.5 -57.5t-20 -71t-5.5 -65q0 -87 57 -87q14 0 31 7t34 18t34 25.5t31 28.5zM462 562l-101 93l-129 -93l-54 52l140 129h104l105 -129z" />
    <glyph glyph-name="atilde" unicode="&#xe3;" horiz-adv-x="605" 
d="M370 0l12 81l-5 1q-45 -44 -87 -69t-95 -25q-74 0 -113 49t-39 151q0 57 13 117.5t42.5 110.5t77.5 82.5t119 32.5q43 0 77 -15.5t60 -41.5l19 47h128q-7 -32 -13.5 -65t-11.5 -66l-40 -290q-2 -11 0 -14t13 -5l47 -7l-11 -74h-193zM410 380q-16 14 -39.5 25.5
t-48.5 11.5q-37 0 -61 -23.5t-38.5 -57.5t-20 -71t-5.5 -65q0 -87 57 -87q14 0 31 7t34 18t34 25.5t31 28.5zM531 643q-20 -29 -36.5 -44.5t-39.5 -15.5q-14 0 -33 4t-43 12q-23 6 -48.5 13.5t-36.5 9.5q-7 1 -17 -7l-35 -32l-54 37l37 51q35 50 73 50q21 0 62 -12
q12 -4 26 -8t27.5 -8t24 -6.5t16.5 -3.5q7 0 14 6l32 32l60 -37z" />
    <glyph glyph-name="adieresis" unicode="&#xe4;" horiz-adv-x="605" 
d="M370 0l12 81l-5 1q-45 -44 -87 -69t-95 -25q-74 0 -113 49t-39 151q0 57 13 117.5t42.5 110.5t77.5 82.5t119 32.5q43 0 77 -15.5t60 -41.5l19 47h128q-7 -32 -13.5 -65t-11.5 -66l-40 -290q-2 -11 0 -14t13 -5l47 -7l-11 -74h-193zM410 380q-16 14 -39.5 25.5
t-48.5 11.5q-37 0 -61 -23.5t-38.5 -57.5t-20 -71t-5.5 -65q0 -87 57 -87q14 0 31 7t34 18t34 25.5t31 28.5zM330 674q0 -35 -23 -56.5t-58 -21.5q-29 0 -46 17t-17 45q0 35 23.5 56t58.5 21q30 0 46 -16.5t16 -44.5zM538 674q0 -35 -23 -56.5t-58 -21.5q-29 0 -46 17
t-17 45q0 35 23.5 56t58.5 21q30 0 46 -16.5t16 -44.5z" />
    <glyph glyph-name="aring" unicode="&#xe5;" horiz-adv-x="605" 
d="M370 0l12 81l-5 1q-45 -44 -87 -69t-95 -25q-74 0 -113 49t-39 151q0 57 13 117.5t42.5 110.5t77.5 82.5t119 32.5q43 0 77 -15.5t60 -41.5l19 47h128q-7 -32 -13.5 -65t-11.5 -66l-40 -290q-2 -11 0 -14t13 -5l47 -7l-11 -74h-193zM410 380q-16 14 -39.5 25.5
t-48.5 11.5q-37 0 -61 -23.5t-38.5 -57.5t-20 -71t-5.5 -65q0 -87 57 -87q14 0 31 7t34 18t34 25.5t31 28.5zM390 768q37 0 65.5 -20.5t28.5 -63.5q0 -50 -32 -82t-87 -32q-42 0 -69.5 22t-27.5 65q0 51 33.5 81t88.5 30zM372 629q26 0 35.5 15t9.5 35q0 17 -10.5 23.5
t-24.5 6.5q-46 0 -46 -50q0 -15 10 -22.5t26 -7.5z" />
    <glyph glyph-name="ae" unicode="&#xe6;" horiz-adv-x="836" 
d="M788 38q-49 -23 -100.5 -36.5t-106.5 -13.5q-77 0 -121.5 26.5t-67.5 71.5q-56 -51 -101 -74.5t-96 -23.5q-74 0 -113 49t-39 151q0 57 13 117.5t42.5 110.5t77.5 82.5t119 32.5q45 0 90.5 -19t83.5 -57q51 45 105 60.5t99 15.5q74 0 114.5 -34.5t40.5 -96.5
q0 -54 -27 -90.5t-70.5 -59.5t-98.5 -35t-111 -17q2 -20 7 -37.5t15.5 -31t28.5 -21.5t47 -8t63.5 8t82.5 28zM408 380q-18 15 -39.5 26t-46.5 11q-37 0 -61 -23.5t-38.5 -57.5t-20 -71t-5.5 -65q0 -87 57 -87q24 0 55 18.5t59 44.5q-1 11 -1 22v22q2 46 12.5 87t28.5 73z
M527 295q17 2 45 7.5t54.5 16t46 26t19.5 38.5q0 40 -48 40q-42 0 -74 -34.5t-43 -93.5z" />
    <glyph glyph-name="ccedilla" unicode="&#xe7;" horiz-adv-x="502" 
d="M155 -179q5 -2 14 -3t21 -1q11 0 22.5 2.5t21 8t15.5 14.5t6 23q0 23 -17 31t-44 9l23 86q-93 11 -134.5 69t-41.5 146q0 83 24 144t65 101.5t97 60t119 19.5q57 0 101.5 -13.5t65.5 -28.5l-22 -157l-102 5l-3 68q0 10 -7 14q-9 4 -22 5.5t-27 1.5q-25 0 -49 -11t-43 -35
t-30.5 -63t-11.5 -95q0 -69 27.5 -95.5t71.5 -26.5q38 0 72.5 10t59.5 20l25 -93q-32 -18 -74.5 -30.5t-88.5 -16.5l-9 -35q12 -3 24 -9.5t22.5 -17t17 -25t6.5 -35.5q0 -31 -12.5 -54t-33.5 -38.5t-48 -23.5t-55 -8t-44 3.5t-18 4.5z" />
    <glyph glyph-name="egrave" unicode="&#xe8;" horiz-adv-x="506" 
d="M461 38q-49 -23 -101 -36.5t-106 -13.5q-59 0 -99.5 16.5t-66 45t-36.5 67.5t-11 84q0 79 23.5 140.5t64 103.5t94.5 64t115 22q83 0 123.5 -35t40.5 -97q0 -54 -26 -89.5t-69 -58.5t-98.5 -35t-113.5 -18q1 -19 6 -37t16.5 -31.5t30 -21.5t46.5 -8q27 0 63.5 8.5
t81.5 27.5zM201 295q16 2 44 7.5t55 16t46.5 26.5t19.5 40q0 38 -48 38q-42 0 -74 -34t-43 -94zM388 561l-158 146l93 78l129 -174z" />
    <glyph glyph-name="eacute" unicode="&#xe9;" horiz-adv-x="506" 
d="M461 38q-49 -23 -101 -36.5t-106 -13.5q-59 0 -99.5 16.5t-66 45t-36.5 67.5t-11 84q0 79 23.5 140.5t64 103.5t94.5 64t115 22q83 0 123.5 -35t40.5 -97q0 -54 -26 -89.5t-69 -58.5t-98.5 -35t-113.5 -18q1 -19 6 -37t16.5 -31.5t30 -21.5t46.5 -8q27 0 63.5 8.5
t81.5 27.5zM201 295q16 2 44 7.5t55 16t46.5 26.5t19.5 40q0 38 -48 38q-42 0 -74 -34t-43 -94zM280 561l-55 58l164 163l77 -85z" />
    <glyph glyph-name="ecircumflex" unicode="&#xea;" horiz-adv-x="506" 
d="M461 38q-49 -23 -101 -36.5t-106 -13.5q-59 0 -99.5 16.5t-66 45t-36.5 67.5t-11 84q0 79 23.5 140.5t64 103.5t94.5 64t115 22q83 0 123.5 -35t40.5 -97q0 -54 -26 -89.5t-69 -58.5t-98.5 -35t-113.5 -18q1 -19 6 -37t16.5 -31.5t30 -21.5t46.5 -8q27 0 63.5 8.5
t81.5 27.5zM201 295q16 2 44 7.5t55 16t46.5 26.5t19.5 40q0 38 -48 38q-42 0 -74 -34t-43 -94zM442 562l-101 93l-129 -93l-54 52l140 129h104l105 -129z" />
    <glyph glyph-name="edieresis" unicode="&#xeb;" horiz-adv-x="506" 
d="M461 38q-49 -23 -101 -36.5t-106 -13.5q-59 0 -99.5 16.5t-66 45t-36.5 67.5t-11 84q0 79 23.5 140.5t64 103.5t94.5 64t115 22q83 0 123.5 -35t40.5 -97q0 -54 -26 -89.5t-69 -58.5t-98.5 -35t-113.5 -18q1 -19 6 -37t16.5 -31.5t30 -21.5t46.5 -8q27 0 63.5 8.5
t81.5 27.5zM201 295q16 2 44 7.5t55 16t46.5 26.5t19.5 40q0 38 -48 38q-42 0 -74 -34t-43 -94zM310 674q0 -35 -23 -56.5t-58 -21.5q-29 0 -46 17t-17 45q0 35 23.5 56t58.5 21q30 0 46 -16.5t16 -44.5zM518 674q0 -35 -23 -56.5t-58 -21.5q-29 0 -46 17t-17 45
q0 35 23.5 56t58.5 21q30 0 46 -16.5t16 -44.5z" />
    <glyph glyph-name="igrave" unicode="&#xec;" horiz-adv-x="318" 
d="M64 0l-2 5l24 135l37 267q3 17 -10 21l-49 17l10 76h213l-59 -420q-2 -12 0.5 -15t13.5 -5l48 -7l-10 -74h-216zM241 560l-158 146l93 78l129 -174z" />
    <glyph glyph-name="iacute" unicode="&#xed;" horiz-adv-x="318" 
d="M64 0l-2 5l24 135l37 267q3 17 -10 21l-49 17l10 76h213l-59 -420q-2 -12 0.5 -15t13.5 -5l48 -7l-10 -74h-216zM134 559l-55 58l164 163l77 -85z" />
    <glyph glyph-name="icircumflex" unicode="&#xee;" horiz-adv-x="318" 
d="M291 566l-91 93l-119 -93l-54 52l130 129h104l95 -129zM64 0l-2 5l24 135l37 267q3 17 -10 21l-49 17l10 76h213l-59 -420q-2 -12 0.5 -15t13.5 -5l48 -7l-10 -74h-216z" />
    <glyph glyph-name="idieresis" unicode="&#xef;" horiz-adv-x="318" 
d="M175 661q0 -35 -23 -56.5t-58 -21.5q-29 0 -46 17t-17 45q0 35 23.5 56t58.5 21q30 0 46 -16.5t16 -44.5zM363 661q0 -35 -23 -56.5t-58 -21.5q-29 0 -46 17t-17 45q0 35 23.5 56t58.5 21q30 0 46 -16.5t16 -44.5zM64 0l-2 5l24 135l37 267q3 17 -10 21l-49 17l10 76h213
l-59 -420q-2 -12 0.5 -15t13.5 -5l48 -7l-10 -74h-216z" />
    <glyph glyph-name="eth" unicode="&#xf0;" horiz-adv-x="587" 
d="M524 623q31 -52 45 -108.5t14 -119.5q0 -77 -15.5 -150t-52 -130t-98 -92t-153.5 -35q-57 0 -99 15.5t-69.5 44t-41.5 69t-14 89.5q0 60 17 114t51 95.5t84 66t116 24.5q30 0 65 -9.5t68 -29.5q-6 41 -21 73t-40.5 57t-64 44t-91.5 33l56 106q48 -9 86.5 -25.5
t70.5 -38.5l112 67l63 -110zM427 366q-16 15 -43 24.5t-54 9.5q-39 0 -64.5 -17t-40 -45t-20.5 -64t-6 -73q0 -53 20 -80.5t63 -27.5q132 0 145 273z" />
    <glyph glyph-name="ntilde" unicode="&#xf1;" horiz-adv-x="620" 
d="M368 0l-2 3l22 122l29 208q5 32 1 50.5t-27 18.5q-16 0 -33.5 -7t-35 -17.5t-33 -23.5t-28.5 -24l-31 -229q-2 -12 0 -15t13 -5l50 -7l-10 -74h-274l10 75l44 6q10 2 13 5.5t5 14.5l42 305q3 17 -9 21l-49 18l11 76h198l-11 -82l3 -1q21 18 42 35t43.5 29.5t48 20.5
t54.5 8q114 0 118 -119q0 -12 -1 -26.5t-3 -28.5l-36 -256q-2 -12 -0.5 -15t12.5 -5l50 -7l-10 -74h-216zM536 643q-20 -29 -36.5 -44.5t-39.5 -15.5q-14 0 -33 4t-43 12q-23 6 -48.5 13.5t-36.5 9.5q-7 1 -17 -7l-35 -32l-54 37l37 51q35 50 73 50q21 0 62 -12q12 -4 26 -8
t27.5 -8t24 -6.5t16.5 -3.5q7 0 14 6l32 32l60 -37z" />
    <glyph glyph-name="ograve" unicode="&#xf2;" horiz-adv-x="578" 
d="M269 -12q-59 0 -102 15.5t-71 43.5t-41.5 68t-13.5 88q0 72 20 132.5t58.5 104t95 67.5t129.5 24q63 0 105.5 -17t68.5 -45.5t37.5 -67.5t11.5 -82q0 -73 -18.5 -134t-56 -104.5t-93 -68t-130.5 -24.5zM281 93q26 0 49.5 12t41 38.5t28 69t10.5 104.5q0 57 -21.5 81.5
t-61.5 24.5q-25 0 -49 -11t-42.5 -36.5t-29.5 -68t-11 -104.5q0 -58 22.5 -84t63.5 -26zM402 561l-158 146l93 78l129 -174z" />
    <glyph glyph-name="oacute" unicode="&#xf3;" horiz-adv-x="578" 
d="M269 -12q-59 0 -102 15.5t-71 43.5t-41.5 68t-13.5 88q0 72 20 132.5t58.5 104t95 67.5t129.5 24q63 0 105.5 -17t68.5 -45.5t37.5 -67.5t11.5 -82q0 -73 -18.5 -134t-56 -104.5t-93 -68t-130.5 -24.5zM281 93q26 0 49.5 12t41 38.5t28 69t10.5 104.5q0 57 -21.5 81.5
t-61.5 24.5q-25 0 -49 -11t-42.5 -36.5t-29.5 -68t-11 -104.5q0 -58 22.5 -84t63.5 -26zM303 561l-55 58l164 163l77 -85z" />
    <glyph glyph-name="ocircumflex" unicode="&#xf4;" horiz-adv-x="578" 
d="M269 -12q-59 0 -102 15.5t-71 43.5t-41.5 68t-13.5 88q0 72 20 132.5t58.5 104t95 67.5t129.5 24q63 0 105.5 -17t68.5 -45.5t37.5 -67.5t11.5 -82q0 -73 -18.5 -134t-56 -104.5t-93 -68t-130.5 -24.5zM281 93q26 0 49.5 12t41 38.5t28 69t10.5 104.5q0 57 -21.5 81.5
t-61.5 24.5q-25 0 -49 -11t-42.5 -36.5t-29.5 -68t-11 -104.5q0 -58 22.5 -84t63.5 -26zM456 562l-101 93l-129 -93l-54 52l140 129h104l105 -129z" />
    <glyph glyph-name="otilde" unicode="&#xf5;" horiz-adv-x="578" 
d="M269 -12q-59 0 -102 15.5t-71 43.5t-41.5 68t-13.5 88q0 72 20 132.5t58.5 104t95 67.5t129.5 24q63 0 105.5 -17t68.5 -45.5t37.5 -67.5t11.5 -82q0 -73 -18.5 -134t-56 -104.5t-93 -68t-130.5 -24.5zM281 93q26 0 49.5 12t41 38.5t28 69t10.5 104.5q0 57 -21.5 81.5
t-61.5 24.5q-25 0 -49 -11t-42.5 -36.5t-29.5 -68t-11 -104.5q0 -58 22.5 -84t63.5 -26zM509 643q-20 -29 -36.5 -44.5t-39.5 -15.5q-14 0 -33 4t-43 12q-23 6 -48.5 13.5t-36.5 9.5q-7 1 -17 -7l-35 -32l-54 37l37 51q35 50 73 50q21 0 62 -12q12 -4 26 -8t27.5 -8t24 -6.5
t16.5 -3.5q7 0 14 6l32 32l60 -37z" />
    <glyph glyph-name="odieresis" unicode="&#xf6;" horiz-adv-x="578" 
d="M269 -12q-59 0 -102 15.5t-71 43.5t-41.5 68t-13.5 88q0 72 20 132.5t58.5 104t95 67.5t129.5 24q63 0 105.5 -17t68.5 -45.5t37.5 -67.5t11.5 -82q0 -73 -18.5 -134t-56 -104.5t-93 -68t-130.5 -24.5zM281 93q26 0 49.5 12t41 38.5t28 69t10.5 104.5q0 57 -21.5 81.5
t-61.5 24.5q-25 0 -49 -11t-42.5 -36.5t-29.5 -68t-11 -104.5q0 -58 22.5 -84t63.5 -26zM324 674q0 -35 -23 -56.5t-58 -21.5q-29 0 -46 17t-17 45q0 35 23.5 56t58.5 21q30 0 46 -16.5t16 -44.5zM532 674q0 -35 -23 -56.5t-58 -21.5q-29 0 -46 17t-17 45q0 35 23.5 56
t58.5 21q30 0 46 -16.5t16 -44.5z" />
    <glyph glyph-name="divide" unicode="&#xf7;" 
d="M365 166q0 -38 -22 -60.5t-67 -22.5q-35 0 -52.5 15.5t-17.5 44.5q0 37 22.5 61.5t67.5 24.5q35 0 52 -17.5t17 -45.5zM109 263l17 116h387l-17 -116h-387zM411 497q0 -38 -22 -60.5t-67 -22.5q-70 0 -70 60q0 37 22.5 61t67.5 24q35 0 52 -17t17 -45z" />
    <glyph glyph-name="oslash" unicode="&#xf8;" horiz-adv-x="578" 
d="M44 -82l67 116q-35 28 -52.5 71t-17.5 98q0 72 20 132.5t58.5 104t95 67.5t129.5 24q14 0 27 -1t26 -3l39 67h122l-62 -106q38 -29 54.5 -73.5t16.5 -95.5q0 -73 -18.5 -134t-56 -104.5t-93 -68t-130.5 -24.5q-16 0 -30.5 1.5t-28.5 3.5l-43 -75h-123zM195 203
q0 -27 4 -44l151 262q-5 1 -11 1.5t-12 0.5q-25 0 -49 -11t-42.5 -36.5t-29.5 -68t-11 -104.5zM281 93q26 0 49.5 12t41 38.5t28 69t10.5 104.5q0 24 -4 39l-149 -261q5 -1 11 -1.5t13 -0.5z" />
    <glyph glyph-name="ugrave" unicode="&#xf9;" horiz-adv-x="623" 
d="M380 0l10 80l-3 1q-16 -14 -35 -30t-42 -30t-50 -23.5t-59 -9.5q-65 0 -92 32t-27 93q0 13 1 27.5t3 29.5l33 242q2 12 0 15.5t-13 5.5l-39 7l12 81h195l7 -7l-44 -318q-2 -13 -3 -24t-1 -19q0 -19 7 -27.5t25 -8.5q16 0 34 7.5t35 19t32 23.5t25 21l31 226q2 12 0 15
t-13 5l-32 5l13 82h189l7 -8l-59 -411q-2 -10 -0.5 -14.5t11.5 -6.5l50 -7l-10 -74h-198zM394 561l-158 146l93 78l129 -174z" />
    <glyph glyph-name="uacute" unicode="&#xfa;" horiz-adv-x="623" 
d="M380 0l10 80l-3 1q-16 -14 -35 -30t-42 -30t-50 -23.5t-59 -9.5q-65 0 -92 32t-27 93q0 13 1 27.5t3 29.5l33 242q2 12 0 15.5t-13 5.5l-39 7l12 81h195l7 -7l-44 -318q-2 -13 -3 -24t-1 -19q0 -19 7 -27.5t25 -8.5q16 0 34 7.5t35 19t32 23.5t25 21l31 226q2 12 0 15
t-13 5l-32 5l13 82h189l7 -8l-59 -411q-2 -10 -0.5 -14.5t11.5 -6.5l50 -7l-10 -74h-198zM307 561l-55 58l164 163l77 -85z" />
    <glyph glyph-name="ucircumflex" unicode="&#xfb;" horiz-adv-x="623" 
d="M380 0l10 80l-3 1q-16 -14 -35 -30t-42 -30t-50 -23.5t-59 -9.5q-65 0 -92 32t-27 93q0 13 1 27.5t3 29.5l33 242q2 12 0 15.5t-13 5.5l-39 7l12 81h195l7 -7l-44 -318q-2 -13 -3 -24t-1 -19q0 -19 7 -27.5t25 -8.5q16 0 34 7.5t35 19t32 23.5t25 21l31 226q2 12 0 15
t-13 5l-32 5l13 82h189l7 -8l-59 -411q-2 -10 -0.5 -14.5t11.5 -6.5l50 -7l-10 -74h-198zM467 562l-101 93l-129 -93l-54 52l140 129h104l105 -129z" />
    <glyph glyph-name="udieresis" unicode="&#xfc;" horiz-adv-x="623" 
d="M380 0l10 80l-3 1q-16 -14 -35 -30t-42 -30t-50 -23.5t-59 -9.5q-65 0 -92 32t-27 93q0 13 1 27.5t3 29.5l33 242q2 12 0 15.5t-13 5.5l-39 7l12 81h195l7 -7l-44 -318q-2 -13 -3 -24t-1 -19q0 -19 7 -27.5t25 -8.5q16 0 34 7.5t35 19t32 23.5t25 21l31 226q2 12 0 15
t-13 5l-32 5l13 82h189l7 -8l-59 -411q-2 -10 -0.5 -14.5t11.5 -6.5l50 -7l-10 -74h-198zM331 674q0 -35 -23 -56.5t-58 -21.5q-29 0 -46 17t-17 45q0 35 23.5 56t58.5 21q30 0 46 -16.5t16 -44.5zM539 674q0 -35 -23 -56.5t-58 -21.5q-29 0 -46 17t-17 45q0 35 23.5 56
t58.5 21q30 0 46 -16.5t16 -44.5z" />
    <glyph glyph-name="yacute" unicode="&#xfd;" horiz-adv-x="568" 
d="M209 3l-112 418q-3 9 -6.5 12t-11.5 5l-39 9l12 74h176l10 -11l27 -129l45 -209h5l127 266l-61 9l11 74h185l14 -31l-290 -571q-19 -36 -38.5 -62.5t-44 -44t-55 -26.5t-70.5 -9q-27 0 -51 5.5t-43.5 13t-33 16.5t-20.5 15l51 85q15 -9 40.5 -19t50.5 -10q32 0 54 19.5
t40 50.5zM284 561l-55 58l164 163l77 -85z" />
    <glyph glyph-name="thorn" unicode="&#xfe;" horiz-adv-x="600" 
d="M24 -212l-2 4l30 172l96 677q3 15 -10 21l-48 17l10 76h208l-45 -313l3 -2q41 38 85 64.5t93 26.5q32 0 58.5 -11t45.5 -35t29.5 -62t10.5 -92q0 -78 -16 -141.5t-47 -108t-76 -69t-103 -24.5q-43 0 -77.5 15.5t-53.5 34.5h-5l-22 -149q-1 -8 1.5 -11.5t12.5 -4.5
l101 -10l-11 -75h-268zM225 143q19 -16 42.5 -27.5t48.5 -11.5q32 0 54 19t35.5 49t19.5 65.5t6 68.5q0 45 -11.5 71.5t-40.5 26.5q-15 0 -31.5 -7t-33 -18.5t-33 -24.5t-29.5 -25z" />
    <glyph glyph-name="ydieresis" unicode="&#xff;" horiz-adv-x="568" 
d="M209 3l-112 418q-3 9 -6.5 12t-11.5 5l-39 9l12 74h176l10 -11l27 -129l45 -209h5l127 266l-61 9l11 74h185l14 -31l-290 -571q-19 -36 -38.5 -62.5t-44 -44t-55 -26.5t-70.5 -9q-27 0 -51 5.5t-43.5 13t-33 16.5t-20.5 15l51 85q15 -9 40.5 -19t50.5 -10q32 0 54 19.5
t40 50.5zM311 674q0 -35 -23 -56.5t-58 -21.5q-29 0 -46 17t-17 45q0 35 23.5 56t58.5 21q30 0 46 -16.5t16 -44.5zM519 674q0 -35 -23 -56.5t-58 -21.5q-29 0 -46 17t-17 45q0 35 23.5 56t58.5 21q30 0 46 -16.5t16 -44.5z" />
    <glyph glyph-name="Amacron" unicode="&#x100;" horiz-adv-x="744" 
d="M419 0l10 73l82 9l-19 109h-246l-49 -109l76 -9l-11 -73h-274l11 73l45 11q20 5 27 20l299 620h174l128 -623q2 -9 7 -12t15 -5l43 -11l-11 -73h-307zM425 572h-7l-127 -273h185zM308 785l13 100h317l-13 -100h-317z" />
    <glyph glyph-name="amacron" unicode="&#x101;" horiz-adv-x="605" 
d="M370 0l12 81l-5 1q-45 -44 -87 -69t-95 -25q-74 0 -113 49t-39 151q0 57 13 117.5t42.5 110.5t77.5 82.5t119 32.5q43 0 77 -15.5t60 -41.5l19 47h128q-7 -32 -13.5 -65t-11.5 -66l-40 -290q-2 -11 0 -14t13 -5l47 -7l-11 -74h-193zM410 380q-16 14 -39.5 25.5
t-48.5 11.5q-37 0 -61 -23.5t-38.5 -57.5t-20 -71t-5.5 -65q0 -87 57 -87q14 0 31 7t34 18t34 25.5t31 28.5zM205 599l14 100h317l-14 -100h-317z" />
    <glyph glyph-name="Abreve" unicode="&#x102;" horiz-adv-x="744" 
d="M419 0l10 73l82 9l-19 109h-246l-49 -109l76 -9l-11 -73h-274l11 73l45 11q20 5 27 20l299 620h174l128 -623q2 -9 7 -12t15 -5l43 -11l-11 -73h-307zM425 572h-7l-127 -273h185zM647 913q-25 -64 -68.5 -97.5t-113.5 -33.5q-139 0 -153 131l78 27q8 -38 30 -53t52 -15
t55 14.5t46 54.5z" />
    <glyph glyph-name="abreve" unicode="&#x103;" horiz-adv-x="605" 
d="M370 0l12 81l-5 1q-45 -44 -87 -69t-95 -25q-74 0 -113 49t-39 151q0 57 13 117.5t42.5 110.5t77.5 82.5t119 32.5q43 0 77 -15.5t60 -41.5l19 47h128q-7 -32 -13.5 -65t-11.5 -66l-40 -290q-2 -11 0 -14t13 -5l47 -7l-11 -74h-193zM410 380q-16 14 -39.5 25.5
t-48.5 11.5q-37 0 -61 -23.5t-38.5 -57.5t-20 -71t-5.5 -65q0 -87 57 -87q14 0 31 7t34 18t34 25.5t31 28.5zM545 709q-25 -64 -69.5 -100.5t-119.5 -36.5t-111.5 36t-43.5 101l78 28q8 -39 29.5 -57t56.5 -18t60 18t46 57z" />
    <glyph glyph-name="Aogonek" unicode="&#x104;" horiz-adv-x="744" 
d="M647 -207q-32 -14 -64 -20.5t-58 -6.5q-49 0 -72 20t-23 54q0 25 9.5 48t25.5 42.5t36.5 37t42.5 32.5h-125l10 73l82 9l-19 109h-246l-49 -109l76 -9l-11 -73h-274l11 73l45 11q20 5 27 20l299 620h174l128 -623q2 -9 7 -12t15 -5l43 -11l-11 -73h-83
q-12 -9 -27.5 -22.5t-30 -29.5t-24.5 -33.5t-10 -33.5q0 -24 25 -24q10 0 24.5 2.5t29.5 7.5zM425 572h-7l-127 -273h185z" />
    <glyph glyph-name="aogonek" unicode="&#x105;" horiz-adv-x="605" 
d="M531 -207q-32 -14 -64 -20.5t-58 -6.5q-49 0 -72 20t-23 54q0 25 10 48t26 42.5t36.5 37t42.5 32.5h-59l12 81l-5 1q-45 -44 -87 -69t-95 -25q-74 0 -113 49t-39 151q0 57 13 117.5t42.5 110.5t77.5 82.5t119 32.5q43 0 77 -15.5t60 -41.5l19 47h128q-7 -32 -13.5 -65
t-11.5 -66l-40 -290q-2 -11 0 -14t13 -5l47 -7l-11 -74q-22 -8 -44.5 -21.5t-41 -30t-30.5 -34t-12 -33.5q0 -24 25 -24q10 0 24.5 2.5t29.5 7.5zM410 380q-16 14 -39.5 25.5t-48.5 11.5q-37 0 -61 -23.5t-38.5 -57.5t-20 -71t-5.5 -65q0 -87 57 -87q14 0 31 7t34 18
t34 25.5t31 28.5z" />
    <glyph glyph-name="Cacute" unicode="&#x106;" horiz-adv-x="670" 
d="M610 43q-47 -27 -116 -41t-137 -14q-78 0 -134.5 22.5t-93 63.5t-53.5 98.5t-17 127.5q0 96 26.5 176t79 138t131 90.5t181.5 32.5q30 0 61.5 -4t60.5 -11t54 -18t43 -24l-26 -196l-107 9l-3 93q0 11 -3 15.5t-10 6.5q-15 6 -35.5 9.5t-48.5 3.5q-54 0 -99.5 -20
t-77.5 -59t-50 -97t-18 -134q0 -103 42.5 -156t123.5 -53q30 0 57 2.5t46 10.5q6 3 9.5 7t5.5 12l29 95h105zM381 767l-32 71l212 117l45 -103z" />
    <glyph glyph-name="cacute" unicode="&#x107;" horiz-adv-x="502" 
d="M452 37q-37 -21 -88 -35t-105 -14q-57 0 -98.5 16t-68 44.5t-39 69t-12.5 88.5q0 83 24 144t65 101.5t97 60t119 19.5q57 0 101.5 -13.5t65.5 -28.5l-22 -157l-102 5l-3 68q0 10 -7 14q-9 4 -22 5.5t-27 1.5q-25 0 -49 -11t-43 -35t-30.5 -63t-11.5 -95q0 -69 27.5 -95.5
t71.5 -26.5q38 0 72.5 10t59.5 20zM293 561l-55 58l164 163l77 -85z" />
    <glyph glyph-name="Ccircumflex" unicode="&#x108;" horiz-adv-x="670" 
d="M610 43q-47 -27 -116 -41t-137 -14q-78 0 -134.5 22.5t-93 63.5t-53.5 98.5t-17 127.5q0 96 26.5 176t79 138t131 90.5t181.5 32.5q30 0 61.5 -4t60.5 -11t54 -18t43 -24l-26 -196l-107 9l-3 93q0 11 -3 15.5t-10 6.5q-15 6 -35.5 9.5t-48.5 3.5q-54 0 -99.5 -20
t-77.5 -59t-50 -97t-18 -134q0 -103 42.5 -156t123.5 -53q30 0 57 2.5t46 10.5q6 3 9.5 7t5.5 12l29 95h105zM584 767l-107 81l-129 -81l-49 56l137 112h104l105 -112z" />
    <glyph glyph-name="ccircumflex" unicode="&#x109;" horiz-adv-x="502" 
d="M452 37q-37 -21 -88 -35t-105 -14q-57 0 -98.5 16t-68 44.5t-39 69t-12.5 88.5q0 83 24 144t65 101.5t97 60t119 19.5q57 0 101.5 -13.5t65.5 -28.5l-22 -157l-102 5l-3 68q0 10 -7 14q-9 4 -22 5.5t-27 1.5q-25 0 -49 -11t-43 -35t-30.5 -63t-11.5 -95q0 -69 27.5 -95.5
t71.5 -26.5q38 0 72.5 10t59.5 20zM454 562l-101 93l-129 -93l-54 52l140 129h104l105 -129z" />
    <glyph glyph-name="Cdotaccent" unicode="&#x10a;" horiz-adv-x="670" 
d="M610 43q-47 -27 -116 -41t-137 -14q-78 0 -134.5 22.5t-93 63.5t-53.5 98.5t-17 127.5q0 96 26.5 176t79 138t131 90.5t181.5 32.5q30 0 61.5 -4t60.5 -11t54 -18t43 -24l-26 -196l-107 9l-3 93q0 11 -3 15.5t-10 6.5q-15 6 -35.5 9.5t-48.5 3.5q-54 0 -99.5 -20
t-77.5 -59t-50 -97t-18 -134q0 -103 42.5 -156t123.5 -53q30 0 57 2.5t46 10.5q6 3 9.5 7t5.5 12l29 95h105zM578 885q0 -48 -28 -76t-77 -28q-38 0 -59 20t-21 55q0 48 28 75.5t77 27.5q38 0 59 -19t21 -55z" />
    <glyph glyph-name="cdotaccent" unicode="&#x10b;" horiz-adv-x="502" 
d="M452 37q-37 -21 -88 -35t-105 -14q-57 0 -98.5 16t-68 44.5t-39 69t-12.5 88.5q0 83 24 144t65 101.5t97 60t119 19.5q57 0 101.5 -13.5t65.5 -28.5l-22 -157l-102 5l-3 68q0 10 -7 14q-9 4 -22 5.5t-27 1.5q-25 0 -49 -11t-43 -35t-30.5 -63t-11.5 -95q0 -69 27.5 -95.5
t71.5 -26.5q38 0 72.5 10t59.5 20zM351 603q-37 0 -57 20t-20 55q0 48 27 75.5t76 27.5q37 0 57.5 -19t20.5 -55q0 -48 -27.5 -76t-76.5 -28z" />
    <glyph glyph-name="Ccaron" unicode="&#x10c;" horiz-adv-x="670" 
d="M610 43q-47 -27 -116 -41t-137 -14q-78 0 -134.5 22.5t-93 63.5t-53.5 98.5t-17 127.5q0 96 26.5 176t79 138t131 90.5t181.5 32.5q30 0 61.5 -4t60.5 -11t54 -18t43 -24l-26 -196l-107 9l-3 93q0 11 -3 15.5t-10 6.5q-15 6 -35.5 9.5t-48.5 3.5q-54 0 -99.5 -20
t-77.5 -59t-50 -97t-18 -134q0 -103 42.5 -156t123.5 -53q30 0 57 2.5t46 10.5q6 3 9.5 7t5.5 12l29 95h105zM520 779h-104l-106 111l60 57l107 -81l130 81l49 -57z" />
    <glyph glyph-name="ccaron" unicode="&#x10d;" horiz-adv-x="502" 
d="M452 37q-37 -21 -88 -35t-105 -14q-57 0 -98.5 16t-68 44.5t-39 69t-12.5 88.5q0 83 24 144t65 101.5t97 60t119 19.5q57 0 101.5 -13.5t65.5 -28.5l-22 -157l-102 5l-3 68q0 10 -7 14q-9 4 -22 5.5t-27 1.5q-25 0 -49 -11t-43 -35t-30.5 -63t-11.5 -95q0 -69 27.5 -95.5
t71.5 -26.5q38 0 72.5 10t59.5 20zM400 582h-104l-104 129l64 52l102 -93l128 93l55 -52z" />
    <glyph glyph-name="Dcaron" unicode="&#x10e;" horiz-adv-x="739" 
d="M18 0l11 75l63 7q10 1 13 4.5t5 14.5l73 522q2 11 -0.5 14.5t-12.5 5.5l-62 7l10 74h318q81 0 139 -20.5t95.5 -58.5t55.5 -92.5t18 -122.5q0 -92 -25.5 -170.5t-77.5 -136.5t-132 -90.5t-189 -32.5h-302zM318 107q68 0 119 25t84.5 68.5t50.5 101.5t17 124
q0 102 -49 146t-147 44h-61l-70 -509h56zM468 779h-104l-106 111l60 57l107 -81l130 81l49 -57z" />
    <glyph glyph-name="dcaron" unicode="&#x10f;" horiz-adv-x="712" 
d="M370 0l12 80l-5 2q-45 -43 -86 -68.5t-95 -25.5q-73 0 -113 48t-40 150q0 54 12.5 114.5t42 112t77.5 85t119 33.5q44 0 76 -12t57 -31l20 154q1 8 -0.5 13t-9.5 7l-50 17l12 76h206l-91 -655q-2 -11 0 -14t13 -5l47 -7l-10 -74h-194zM411 383q-16 14 -39.5 24t-46.5 10
q-38 0 -63 -23.5t-39.5 -57.5t-20 -72.5t-5.5 -69.5q0 -81 57 -81q15 0 31.5 7t34 18.5t34 25.5t30.5 29zM617 560q17 38 27.5 69t10.5 65q0 14 -3.5 26.5t-5.5 20.5l98 34q10 -11 19 -25t9 -29t-3 -28.5t-11 -30.5q-5 -13 -14 -30t-19.5 -35t-20.5 -35.5t-18 -30.5z" />
    <glyph glyph-name="Dcroat" unicode="&#x110;" horiz-adv-x="745" 
d="M24 0l11 75l63 7q10 1 13 4.5t5 14.5l29 209h-80l15 107h80l29 206q2 11 -0.5 14.5t-12.5 5.5l-62 7l10 74h318q81 0 139 -20.5t95.5 -58.5t55.5 -92.5t18 -122.5q0 -92 -25.5 -170.5t-77.5 -136.5t-132 -90.5t-189 -32.5h-302zM324 107q68 0 119 25t84.5 68.5
t50.5 101.5t17 124q0 102 -49 146t-147 44h-61l-28 -199h141l-14 -107h-141l-28 -203h56z" />
    <glyph glyph-name="dcroat" unicode="&#x111;" horiz-adv-x="608" 
d="M370 0l12 80l-5 2q-45 -43 -86 -68.5t-95 -25.5q-73 0 -113 47.5t-40 145.5q0 56 13.5 112.5t43 101.5t76.5 73.5t113 28.5q43 0 75.5 -12t57.5 -31l11 82h-153l12 84h152l3 22q3 16 -10 20l-50 17l12 76h206l-19 -135h72l-12 -84h-72l-60 -436q-2 -11 0 -14t13 -5l47 -7
l-10 -74h-194zM406 349q-16 14 -39.5 24t-46.5 10q-37 0 -60.5 -18t-37.5 -46t-19.5 -61t-5.5 -64q0 -81 57 -81q15 0 31.5 7t34 18.5t34 25.5t30.5 29z" />
    <glyph glyph-name="Emacron" unicode="&#x112;" horiz-adv-x="620" 
d="M18 0l10 73l63 7q11 2 14 5.5t5 14.5l73 523q2 11 -0.5 15t-12.5 5l-62 7l10 74h521l-28 -202l-105 5l-3 76q-1 13 -16 13h-155l-27 -197h230l-16 -111h-230l-27 -201h177q8 0 11.5 1.5t5.5 9.5l28 88h105l-28 -206h-543zM248 785l13 100h317l-13 -100h-317z" />
    <glyph glyph-name="emacron" unicode="&#x113;" horiz-adv-x="506" 
d="M461 38q-49 -23 -101 -36.5t-106 -13.5q-59 0 -99.5 16.5t-66 45t-36.5 67.5t-11 84q0 79 23.5 140.5t64 103.5t94.5 64t115 22q83 0 123.5 -35t40.5 -97q0 -54 -26 -89.5t-69 -58.5t-98.5 -35t-113.5 -18q1 -19 6 -37t16.5 -31.5t30 -21.5t46.5 -8q27 0 63.5 8.5
t81.5 27.5zM201 295q16 2 44 7.5t55 16t46.5 26.5t19.5 40q0 38 -48 38q-42 0 -74 -34t-43 -94zM184 599l14 100h317l-14 -100h-317z" />
    <glyph glyph-name="Ebreve" unicode="&#x114;" horiz-adv-x="620" 
d="M18 0l10 73l63 7q11 2 14 5.5t5 14.5l73 523q2 11 -0.5 15t-12.5 5l-62 7l10 74h521l-28 -202l-105 5l-3 76q-1 13 -16 13h-155l-27 -197h230l-16 -111h-230l-27 -201h177q8 0 11.5 1.5t5.5 9.5l28 88h105l-28 -206h-543zM587 913q-25 -64 -68.5 -97.5t-113.5 -33.5
q-139 0 -153 131l78 27q8 -38 30 -53t52 -15t55 14.5t46 54.5z" />
    <glyph glyph-name="ebreve" unicode="&#x115;" horiz-adv-x="506" 
d="M461 38q-49 -23 -101 -36.5t-106 -13.5q-59 0 -99.5 16.5t-66 45t-36.5 67.5t-11 84q0 79 23.5 140.5t64 103.5t94.5 64t115 22q83 0 123.5 -35t40.5 -97q0 -54 -26 -89.5t-69 -58.5t-98.5 -35t-113.5 -18q1 -19 6 -37t16.5 -31.5t30 -21.5t46.5 -8q27 0 63.5 8.5
t81.5 27.5zM201 295q16 2 44 7.5t55 16t46.5 26.5t19.5 40q0 38 -48 38q-42 0 -74 -34t-43 -94zM524 709q-25 -64 -69.5 -100.5t-119.5 -36.5t-111.5 36t-43.5 101l78 28q8 -39 29.5 -57t56.5 -18t60 18t46 57z" />
    <glyph glyph-name="Edotaccent" unicode="&#x116;" horiz-adv-x="620" 
d="M18 0l10 73l63 7q11 2 14 5.5t5 14.5l73 523q2 11 -0.5 15t-12.5 5l-62 7l10 74h521l-28 -202l-105 5l-3 76q-1 13 -16 13h-155l-27 -197h230l-16 -111h-230l-27 -201h177q8 0 11.5 1.5t5.5 9.5l28 88h105l-28 -206h-543zM509 885q0 -48 -28 -76t-77 -28q-38 0 -59 20
t-21 55q0 48 28 75.5t77 27.5q38 0 59 -19t21 -55z" />
    <glyph glyph-name="edotaccent" unicode="&#x117;" horiz-adv-x="506" 
d="M461 38q-49 -23 -101 -36.5t-106 -13.5q-59 0 -99.5 16.5t-66 45t-36.5 67.5t-11 84q0 79 23.5 140.5t64 103.5t94.5 64t115 22q83 0 123.5 -35t40.5 -97q0 -54 -26 -89.5t-69 -58.5t-98.5 -35t-113.5 -18q1 -19 6 -37t16.5 -31.5t30 -21.5t46.5 -8q27 0 63.5 8.5
t81.5 27.5zM201 295q16 2 44 7.5t55 16t46.5 26.5t19.5 40q0 38 -48 38q-42 0 -74 -34t-43 -94zM338 603q-37 0 -57 20t-20 55q0 48 27 75.5t76 27.5q37 0 57.5 -19t20.5 -55q0 -48 -27.5 -76t-76.5 -28z" />
    <glyph glyph-name="Eogonek" unicode="&#x118;" horiz-adv-x="620" 
d="M533 -207q-32 -14 -64 -20.5t-58 -6.5q-49 0 -72 20t-23 54q0 25 9.5 48t25.5 42.5t36.5 37t42.5 32.5h-412l10 73l63 7q11 2 14 5.5t5 14.5l73 523q2 11 -0.5 15t-12.5 5l-62 7l10 74h521l-28 -202l-105 5l-3 76q-1 13 -16 13h-155l-27 -197h230l-16 -111h-230l-27 -201
h177q8 0 11.5 1.5t5.5 9.5l28 88h105l-28 -206q-21 -9 -43 -22.5t-40 -29.5t-29.5 -33.5t-11.5 -33.5q0 -24 25 -24q10 0 24.5 2.5t29.5 7.5z" />
    <glyph glyph-name="eogonek" unicode="&#x119;" horiz-adv-x="506" 
d="M391 -207q-32 -14 -64 -20.5t-58 -6.5q-49 0 -72 20t-23 54q0 47 29.5 83.5t68.5 65.5q-5 -1 -9 -1h-9q-59 0 -99.5 16.5t-66 45t-36.5 67.5t-11 84q0 79 23.5 140.5t64 103.5t94.5 64t115 22q83 0 123.5 -35t40.5 -97q0 -54 -26 -89.5t-69 -58.5t-98.5 -35t-113.5 -18
q1 -19 6 -37t16.5 -31.5t30 -21.5t46.5 -8q27 0 63.5 8.5t81.5 27.5l22 -98q-29 -14 -55 -30q-17 -11 -36.5 -26t-36 -31.5t-27.5 -34.5t-11 -35q0 -24 25 -24q10 0 24.5 2.5t29.5 7.5zM201 295q16 2 44 7.5t55 16t46.5 26.5t19.5 40q0 38 -48 38q-42 0 -74 -34t-43 -94z
" />
    <glyph glyph-name="Ecaron" unicode="&#x11a;" horiz-adv-x="620" 
d="M18 0l10 73l63 7q11 2 14 5.5t5 14.5l73 523q2 11 -0.5 15t-12.5 5l-62 7l10 74h521l-28 -202l-105 5l-3 76q-1 13 -16 13h-155l-27 -197h230l-16 -111h-230l-27 -201h177q8 0 11.5 1.5t5.5 9.5l28 88h105l-28 -206h-543zM451 779h-104l-106 111l60 57l107 -81l130 81
l49 -57z" />
    <glyph glyph-name="ecaron" unicode="&#x11b;" horiz-adv-x="506" 
d="M461 38q-49 -23 -101 -36.5t-106 -13.5q-59 0 -99.5 16.5t-66 45t-36.5 67.5t-11 84q0 79 23.5 140.5t64 103.5t94.5 64t115 22q83 0 123.5 -35t40.5 -97q0 -54 -26 -89.5t-69 -58.5t-98.5 -35t-113.5 -18q1 -19 6 -37t16.5 -31.5t30 -21.5t46.5 -8q27 0 63.5 8.5
t81.5 27.5zM201 295q16 2 44 7.5t55 16t46.5 26.5t19.5 40q0 38 -48 38q-42 0 -74 -34t-43 -94zM387 582h-104l-104 129l64 52l102 -93l128 93l55 -52z" />
    <glyph glyph-name="Gcircumflex" unicode="&#x11c;" horiz-adv-x="717" 
d="M681 265q-17 -1 -18 -14l-29 -215q-60 -27 -130 -37.5t-132 -10.5q-86 0 -146 24t-97.5 66t-54 99t-16.5 123q0 94 26.5 174t79 138.5t131.5 91.5t183 33q27 0 57 -3.5t59 -10.5t56 -18t47 -26l-25 -189l-108 8l-3 89q0 9 -2 14t-10 7q-17 5 -41.5 9t-47.5 4
q-56 0 -100.5 -22t-76 -63t-48.5 -98.5t-17 -127.5q0 -100 43 -153.5t133 -53.5q23 0 47 2.5t41 7.5q11 3 14 17l19 129h-110l26 90h301l-11 -80zM578 767l-107 81l-129 -81l-49 56l137 112h104l105 -112z" />
    <glyph glyph-name="gcircumflex" unicode="&#x11d;" horiz-adv-x="589" 
d="M378 81l-3 2q-41 -36 -83 -62.5t-96 -26.5q-74 0 -113.5 46t-39.5 148q0 55 13 116t42 111t77 83t119 33q43 0 78 -15.5t60 -41.5l19 47h129q-8 -35 -14.5 -68t-11.5 -66l-56 -403q-8 -56 -29 -95.5t-52.5 -64t-73 -36t-89.5 -11.5q-38 0 -73 6t-63.5 14.5t-50 18
t-31.5 16.5l47 93q6 -5 21.5 -12t36.5 -14t46.5 -12t51.5 -5q59 0 89 26.5t38 86.5zM411 379q-16 15 -40 26.5t-49 11.5q-37 0 -61 -23.5t-38.5 -57.5t-20 -71.5t-5.5 -65.5q0 -45 14 -62.5t43 -17.5q15 0 31.5 6.5t34 17t34 23.5t30.5 27zM460 562l-101 93l-129 -93l-54 52
l140 129h104l105 -129z" />
    <glyph glyph-name="Gbreve" unicode="&#x11e;" horiz-adv-x="717" 
d="M681 265q-17 -1 -18 -14l-29 -215q-60 -27 -130 -37.5t-132 -10.5q-86 0 -146 24t-97.5 66t-54 99t-16.5 123q0 94 26.5 174t79 138.5t131.5 91.5t183 33q27 0 57 -3.5t59 -10.5t56 -18t47 -26l-25 -189l-108 8l-3 89q0 9 -2 14t-10 7q-17 5 -41.5 9t-47.5 4
q-56 0 -100.5 -22t-76 -63t-48.5 -98.5t-17 -127.5q0 -100 43 -153.5t133 -53.5q23 0 47 2.5t41 7.5q11 3 14 17l19 129h-110l26 90h301l-11 -80zM649 913q-25 -64 -68.5 -97.5t-113.5 -33.5q-139 0 -153 131l78 27q8 -38 30 -53t52 -15t55 14.5t46 54.5z" />
    <glyph glyph-name="gbreve" unicode="&#x11f;" horiz-adv-x="589" 
d="M378 81l-3 2q-41 -36 -83 -62.5t-96 -26.5q-74 0 -113.5 46t-39.5 148q0 55 13 116t42 111t77 83t119 33q43 0 78 -15.5t60 -41.5l19 47h129q-8 -35 -14.5 -68t-11.5 -66l-56 -403q-8 -56 -29 -95.5t-52.5 -64t-73 -36t-89.5 -11.5q-38 0 -73 6t-63.5 14.5t-50 18
t-31.5 16.5l47 93q6 -5 21.5 -12t36.5 -14t46.5 -12t51.5 -5q59 0 89 26.5t38 86.5zM411 379q-16 15 -40 26.5t-49 11.5q-37 0 -61 -23.5t-38.5 -57.5t-20 -71.5t-5.5 -65.5q0 -45 14 -62.5t43 -17.5q15 0 31.5 6.5t34 17t34 23.5t30.5 27zM532 709q-25 -64 -69.5 -100.5
t-119.5 -36.5t-111.5 36t-43.5 101l78 28q8 -39 29.5 -57t56.5 -18t60 18t46 57z" />
    <glyph glyph-name="Gdotaccent" unicode="&#x120;" horiz-adv-x="717" 
d="M681 265q-17 -1 -18 -14l-29 -215q-60 -27 -130 -37.5t-132 -10.5q-86 0 -146 24t-97.5 66t-54 99t-16.5 123q0 94 26.5 174t79 138.5t131.5 91.5t183 33q27 0 57 -3.5t59 -10.5t56 -18t47 -26l-25 -189l-108 8l-3 89q0 9 -2 14t-10 7q-17 5 -41.5 9t-47.5 4
q-56 0 -100.5 -22t-76 -63t-48.5 -98.5t-17 -127.5q0 -100 43 -153.5t133 -53.5q23 0 47 2.5t41 7.5q11 3 14 17l19 129h-110l26 90h301l-11 -80zM570 885q0 -48 -28 -76t-77 -28q-38 0 -59 20t-21 55q0 48 28 75.5t77 27.5q38 0 59 -19t21 -55z" />
    <glyph glyph-name="gdotaccent" unicode="&#x121;" horiz-adv-x="589" 
d="M378 81l-3 2q-41 -36 -83 -62.5t-96 -26.5q-74 0 -113.5 46t-39.5 148q0 55 13 116t42 111t77 83t119 33q43 0 78 -15.5t60 -41.5l19 47h129q-8 -35 -14.5 -68t-11.5 -66l-56 -403q-8 -56 -29 -95.5t-52.5 -64t-73 -36t-89.5 -11.5q-38 0 -73 6t-63.5 14.5t-50 18
t-31.5 16.5l47 93q6 -5 21.5 -12t36.5 -14t46.5 -12t51.5 -5q59 0 89 26.5t38 86.5zM411 379q-16 15 -40 26.5t-49 11.5q-37 0 -61 -23.5t-38.5 -57.5t-20 -71.5t-5.5 -65.5q0 -45 14 -62.5t43 -17.5q15 0 31.5 6.5t34 17t34 23.5t30.5 27zM344 603q-37 0 -57 20t-20 55
q0 48 27 75.5t76 27.5q37 0 57.5 -19t20.5 -55q0 -48 -27.5 -76t-76.5 -28z" />
    <glyph glyph-name="Gcommaaccent" unicode="&#x122;" horiz-adv-x="717" 
d="M681 265q-17 -1 -18 -14l-29 -215q-60 -27 -130 -37.5t-132 -10.5q-86 0 -146 24t-97.5 66t-54 99t-16.5 123q0 94 26.5 174t79 138.5t131.5 91.5t183 33q27 0 57 -3.5t59 -10.5t56 -18t47 -26l-25 -189l-108 8l-3 89q0 9 -2 14t-10 7q-17 5 -41.5 9t-47.5 4
q-56 0 -100.5 -22t-76 -63t-48.5 -98.5t-17 -127.5q0 -100 43 -153.5t133 -53.5q23 0 47 2.5t41 7.5q11 3 14 17l19 129h-110l26 90h301l-11 -80zM271 -274l34 96q3 10 -4 12l-36 13l34 98q25 0 48 -2.5t39.5 -9t26.5 -19t10 -33.5q0 -19 -8.5 -38t-21.5 -39l-61 -97z" />
    <glyph glyph-name="gcommaaccent" unicode="&#x123;" horiz-adv-x="589" 
d="M378 81l-3 2q-41 -36 -83 -62.5t-96 -26.5q-74 0 -113.5 46t-39.5 148q0 55 13 116t42 111t77 83t119 33q43 0 78 -15.5t60 -41.5l19 47h129q-8 -35 -14.5 -68t-11.5 -66l-56 -403q-8 -56 -29 -95.5t-52.5 -64t-73 -36t-89.5 -11.5q-38 0 -73 6t-63.5 14.5t-50 18
t-31.5 16.5l47 93q6 -5 21.5 -12t36.5 -14t46.5 -12t51.5 -5q59 0 89 26.5t38 86.5zM411 379q-16 15 -40 26.5t-49 11.5q-37 0 -61 -23.5t-38.5 -57.5t-20 -71.5t-5.5 -65.5q0 -45 14 -62.5t43 -17.5q15 0 31.5 6.5t34 17t34 23.5t30.5 27zM384 561q-26 0 -48 2.5t-39 9
t-26.5 19t-9.5 33.5q0 19 8.5 38t21.5 39l60 97l61 -19l-34 -96q-3 -10 3 -12l37 -13z" />
    <glyph glyph-name="Hcircumflex" unicode="&#x124;" horiz-adv-x="802" 
d="M439 0l11 73l62 7q11 2 13.5 5.5t4.5 14.5l31 216h-269l-30 -215q-2 -12 -0.5 -15t12.5 -5l65 -8l-10 -73h-310l10 73l63 7q11 2 13.5 5.5t4.5 14.5l73 522q2 11 -0.5 15t-13.5 5l-60 7l10 75h310l-10 -75l-67 -8q-11 -2 -13.5 -5t-4.5 -14l-26 -194h268l27 194
q2 11 0 15t-13 5l-61 7l10 75h310l-10 -75l-66 -8q-11 -2 -13.5 -5t-4.5 -14l-73 -521q-2 -12 0 -15t13 -5l65 -8l-11 -73h-310zM605 767l-107 81l-129 -81l-49 56l137 112h104l105 -112z" />
    <glyph glyph-name="hcircumflex" unicode="&#x125;" horiz-adv-x="620" 
d="M369 0l-2 4l19 108l30 221q5 31 1.5 49.5t-26.5 18.5q-15 0 -33 -7.5t-36 -18.5t-34.5 -23.5t-27.5 -21.5l-32 -229q-2 -12 0.5 -15t13.5 -5l50 -7l-10 -74h-273l10 75l44 6q10 2 13 5.5t5 14.5l76 540q3 17 -9 21l-50 17l11 76h204l-44 -316l3 -2q22 19 43 36t42.5 30
t45 20.5t52.5 7.5q53 0 84.5 -31t31.5 -91q0 -12 -1 -25t-3 -27l-36 -256q-2 -12 0 -15t13 -5l49 -7l-10 -74h-214zM340 767l-107 81l-129 -81l-49 56l137 112h104l105 -112z" />
    <glyph glyph-name="Hbar" unicode="&#x126;" horiz-adv-x="812" 
d="M444 0l11 73l62 7q11 2 13.5 5.5t4.5 14.5l31 216h-269l-30 -215q-2 -12 -0.5 -15t12.5 -5l65 -8l-10 -73h-310l10 73l63 7q11 2 13.5 5.5t4.5 14.5l53 379h-65l14 102h65l6 41q2 11 -0.5 15t-13.5 5l-60 7l10 75h310l-10 -75l-67 -8q-11 -2 -13.5 -5t-4.5 -14l-6 -46
h268l7 46q2 11 0 15t-13 5l-61 7l10 75h310l-10 -75l-66 -8q-11 -2 -13.5 -5t-4.5 -14l-6 -41h68l-14 -102h-68l-53 -378q-2 -12 0 -15t13 -5l65 -8l-11 -73h-310zM581 428l9 70h-268l-9 -70h268z" />
    <glyph glyph-name="hbar" unicode="&#x127;" horiz-adv-x="621" 
d="M228 101q-2 -12 0 -15t13 -5l48 -7l-10 -74h-270l10 75l44 6q10 2 13 5.5t5 14.5l61 436h-61l12 83h61l3 21q3 17 -9 21l-50 17l11 76h204l-19 -135h165l-12 -83h-164l-18 -132l3 -2q22 19 43 36t43 30t45.5 20.5t51.5 7.5q33 0 55 -9.5t35.5 -27t19.5 -41.5t6 -54
q0 -21 -3 -42l-33 -222q-2 -12 0 -15t13 -5l49 -7l-10 -74h-214l-2 6l46 293q2 12 2.5 24t-2 22t-9.5 16t-20 6q-16 0 -33 -7t-33.5 -17t-32 -22.5t-28.5 -24.5z" />
    <glyph glyph-name="Itilde" unicode="&#x128;" horiz-adv-x="382" 
d="M11 0l8 73l73 7q11 1 13.5 5t4.5 15l74 522q2 11 -0.5 15t-13.5 5l-70 7l10 75h330l-11 -75l-76 -8q-11 -2 -13.5 -5t-4.5 -14l-73 -521q-2 -12 -0.5 -15t12.5 -5l75 -8l-9 -73h-329zM441 841q-21 -29 -38 -44.5t-41 -15.5q-17 0 -35.5 3.5t-44.5 10.5l-75 20
q-10 3 -17 -4l-35 -32l-58 39l36 52q17 25 34.5 36t40.5 11q14 0 39.5 -4.5t57.5 -12.5q20 -5 35.5 -9.5t25.5 -4.5t15 6l27 29l61 -39z" />
    <glyph glyph-name="itilde" unicode="&#x129;" horiz-adv-x="318" 
d="M343 636q-20 -29 -36.5 -44.5t-39.5 -15.5q-13 0 -29 4t-37 12q-20 6 -42.5 13.5t-32.5 9.5q-8 2 -17 -7l-35 -32l-54 37l37 51q35 50 73 50q17 0 52 -12q22 -8 48 -16t36 -10q2 0 5.5 1t8.5 5l32 32l60 -37zM64 0l-2 5l24 135l37 267q3 17 -10 21l-49 17l10 76h213
l-59 -420q-2 -12 0.5 -15t13.5 -5l48 -7l-10 -74h-216z" />
    <glyph glyph-name="Imacron" unicode="&#x12a;" horiz-adv-x="382" 
d="M11 0l8 73l73 7q11 1 13.5 5t4.5 15l74 522q2 11 -0.5 15t-13.5 5l-70 7l10 75h330l-11 -75l-76 -8q-11 -2 -13.5 -5t-4.5 -14l-73 -521q-2 -12 -0.5 -15t12.5 -5l75 -8l-9 -73h-329zM129 785l13 100h317l-13 -100h-317z" />
    <glyph glyph-name="imacron" unicode="&#x12b;" horiz-adv-x="318" 
d="M52 596l14 100h291l-14 -100h-291zM64 0l-2 5l24 135l37 267q3 17 -10 21l-49 17l10 76h213l-59 -420q-2 -12 0.5 -15t13.5 -5l48 -7l-10 -74h-216z" />
    <glyph glyph-name="Ibreve" unicode="&#x12c;" horiz-adv-x="382" 
d="M11 0l8 73l73 7q11 1 13.5 5t4.5 15l74 522q2 11 -0.5 15t-13.5 5l-70 7l10 75h330l-11 -75l-76 -8q-11 -2 -13.5 -5t-4.5 -14l-73 -521q-2 -12 -0.5 -15t12.5 -5l75 -8l-9 -73h-329zM468 913q-25 -64 -68.5 -97.5t-113.5 -33.5q-139 0 -153 131l78 27q8 -38 30 -53
t52 -15t55 14.5t46 54.5z" />
    <glyph glyph-name="ibreve" unicode="&#x12d;" horiz-adv-x="318" 
d="M377 706q-23 -64 -65.5 -100.5t-113.5 -36.5q-70 0 -104.5 36t-40.5 101l78 28q8 -39 26.5 -57t49.5 -18q32 0 54.5 18t41.5 57zM64 0l-2 5l24 135l37 267q3 17 -10 21l-49 17l10 76h213l-59 -420q-2 -12 0.5 -15t13.5 -5l48 -7l-10 -74h-216z" />
    <glyph glyph-name="Iogonek" unicode="&#x12e;" horiz-adv-x="382" 
d="M252 -207q-32 -14 -64 -20.5t-58 -6.5q-49 0 -72 20t-23 54q0 25 9.5 48t25.5 42.5t36.5 37t42.5 32.5h-138l8 73l73 7q11 1 13.5 5t4.5 15l74 522q2 11 -0.5 15t-13.5 5l-70 7l10 75h330l-11 -75l-76 -8q-11 -2 -13.5 -5t-4.5 -14l-73 -521q-2 -12 -0.5 -15t12.5 -5
l75 -8l-9 -73h-92q-12 -9 -27.5 -22.5t-30 -29.5t-24.5 -33.5t-10 -33.5q0 -24 25 -24q10 0 24.5 2.5t29.5 7.5z" />
    <glyph glyph-name="iogonek" unicode="&#x12f;" horiz-adv-x="318" 
d="M257 -207q-32 -14 -64 -20.5t-58 -6.5q-49 0 -72 20t-23 54q0 25 9.5 48t25.5 42.5t36.5 37t42.5 32.5h-90l-2 5l24 135l37 267q3 17 -10 21l-49 17l10 76h213l-59 -420q-2 -12 0.5 -15t13.5 -5l48 -7l-10 -74q-20 -11 -41 -25t-38.5 -30t-28.5 -32.5t-11 -31.5
q0 -24 25 -24q10 0 24.5 2.5t29.5 7.5zM210 601q-37 0 -57 20t-20 55q0 48 27 75.5t76 27.5q37 0 57.5 -19t20.5 -55q0 -48 -27.5 -76t-76.5 -28z" />
    <glyph glyph-name="Idotaccent" unicode="&#x130;" horiz-adv-x="382" 
d="M11 0l8 73l73 7q11 1 13.5 5t4.5 15l74 522q2 11 -0.5 15t-13.5 5l-70 7l10 75h330l-11 -75l-76 -8q-11 -2 -13.5 -5t-4.5 -14l-73 -521q-2 -12 -0.5 -15t12.5 -5l75 -8l-9 -73h-329zM390 885q0 -48 -28 -76t-77 -28q-38 0 -59 20t-21 55q0 48 28 75.5t77 27.5
q38 0 59 -19t21 -55z" />
    <glyph glyph-name="dotlessi" unicode="&#x131;" horiz-adv-x="318" 
d="M64 0l-2 5l24 135l37 267q3 17 -10 21l-49 17l10 76h213l-59 -420q-2 -12 0.5 -15t13.5 -5l48 -7l-10 -74h-216z" />
    <glyph glyph-name="IJ" unicode="&#x132;" horiz-adv-x="882" 
d="M11 0l8 73l73 7q11 1 13.5 5t4.5 15l74 522q2 11 -0.5 15t-13.5 5l-70 7l10 75h330l-11 -75l-76 -8q-11 -2 -13.5 -5t-4.5 -14l-73 -521q-2 -12 -0.5 -15t12.5 -5l75 -8l-9 -73h-329zM700 623q2 11 -1 14.5t-13 4.5l-87 7l10 75h337l-11 -75l-67 -8q-11 -2 -13 -4.5
t-4 -13.5l-65 -460q-12 -89 -60.5 -132t-147.5 -43q-30 0 -58 3.5t-52 9t-42 12.5t-27 14l25 178l106 -8l1 -71q0 -12 7 -14q6 -2 16.5 -4t25.5 -2q27 0 39 13t17 45z" />
    <glyph glyph-name="ij" unicode="&#x133;" horiz-adv-x="633" 
d="M210 601q-37 0 -57 20t-20 55q0 48 27 75.5t76 27.5q37 0 57.5 -19t20.5 -55q0 -48 -27.5 -76t-76.5 -28zM64 0l-2 5l24 135l37 267q3 17 -10 21l-49 17l10 76h213l-59 -420q-2 -12 0.5 -15t13.5 -5l48 -7l-10 -74h-216zM442 407q1 16 -10 21l-51 17l10 76h213l-79 -574
q-13 -92 -62 -131t-132 -39q-30 0 -56 6t-46.5 14t-34 16.5t-19.5 14.5l51 83q11 -7 34 -16.5t49 -9.5q15 0 26.5 3.5t20 13.5t14.5 27t10 43zM528 601q-38 0 -58 20t-20 55q0 48 27.5 75.5t75.5 27.5q38 0 58.5 -19t20.5 -55q0 -48 -28 -76t-76 -28z" />
    <glyph glyph-name="Jcircumflex" unicode="&#x134;" horiz-adv-x="500" 
d="M318 623q2 11 -1 14.5t-13 4.5l-87 7l10 75h337l-11 -75l-67 -8q-11 -2 -13 -4.5t-4 -13.5l-65 -460q-12 -89 -60.5 -132t-147.5 -43q-30 0 -58 3.5t-52 9t-42 12.5t-27 14l25 178l106 -8l1 -71q0 -12 7 -14q6 -2 16.5 -4t25.5 -2q27 0 39 13t17 45zM526 767l-107 81
l-129 -81l-49 56l137 112h104l105 -112z" />
    <glyph glyph-name="jcircumflex" unicode="&#x135;" horiz-adv-x="315" 
d="M134 407q1 16 -10 21l-52 17l11 76h213l-79 -574q-13 -92 -62 -131t-132 -39q-30 0 -56 6t-46.5 14t-34 16.5t-19.5 14.5l51 83q11 -7 34 -16.5t49 -9.5q15 0 26.5 3.5t20 13.5t14.5 27t10 43zM310 566l-101 93l-129 -93l-54 52l140 129h104l105 -129z" />
    <glyph glyph-name="Kcommaaccent" unicode="&#x136;" horiz-adv-x="735" 
d="M506 0l-7 5l-35 84l-102 209l-85 -88l-16 -108q-2 -12 0 -15.5t12 -4.5l66 -8l-10 -74h-310l10 74l62 7q11 1 14 4.5t5 15.5l73 522q2 11 -0.5 14.5t-12.5 5.5l-60 7l9 74h310l-9 -74l-68 -8q-11 -2 -13.5 -5t-4.5 -14l-36 -254l269 272l-59 8l10 75h257l-10 -75l-42 -7
q-14 -2 -19 -5.5t-13 -11.5l-210 -213l153 -309q5 -10 10.5 -13.5t16.5 -5.5l59 -10l-10 -74h-204zM272 -274l34 96q3 10 -4 12l-36 13l34 98q25 0 48 -2.5t39.5 -9t26.5 -19t10 -33.5q0 -19 -8.5 -38t-21.5 -39l-61 -97z" />
    <glyph glyph-name="kcommaaccent" unicode="&#x137;" horiz-adv-x="608" 
d="M395 0l-3 2l-33 110l-53 144l-63 -60l-14 -95q-2 -12 0 -15t13 -5l50 -7l-10 -74h-273l9 75l46 6q10 2 13 5.5t5 14.5l75 540q3 16 -10 21l-50 17l11 76h213l-59 -425l154 143q40 37 70.5 47.5t62.5 10.5q15 0 32 -2t26 -4l-11 -87q-29 2 -52 -6.5t-49 -33.5l-60 -56
l87 -244q5 -11 11 -13.5t17 -4.5l44 -7l-11 -73h-188zM213 -274l34 96q3 10 -4 12l-36 13l34 98q25 0 48 -2.5t39.5 -9t26.5 -19t10 -33.5q0 -19 -8.5 -38t-21.5 -39l-61 -97z" />
    <glyph glyph-name="kgreenlandic" unicode="&#x138;" horiz-adv-x="608" 
d="M395 0l-3 2l-33 110l-53 144l-63 -60l-14 -95q-2 -12 0 -15t13 -5l50 -7l-10 -74h-273l9 75l46 6q10 2 13 5.5t5 14.5l43 306q3 16 -10 21l-50 17l11 76h213l-27 -191l154 143q40 37 70.5 47.5t62.5 10.5q15 0 32 -2t26 -4l-11 -87q-29 2 -52 -6.5t-49 -33.5l-60 -56
l87 -244q5 -11 11 -13.5t17 -4.5l44 -7l-11 -73h-188z" />
    <glyph glyph-name="Lacute" unicode="&#x139;" horiz-adv-x="607" 
d="M19 0l10 74l62 7q11 2 14 5.5t5 14.5l73 522q2 11 -0.5 15t-12.5 5l-60 7l8 74h327l-10 -74l-83 -8q-11 -1 -13.5 -4.5t-4.5 -14.5l-72 -516h176q8 0 11.5 1.5t6.5 9.5l29 100h107l-30 -218h-543zM194 767l-32 71l212 117l45 -103z" />
    <glyph glyph-name="lacute" unicode="&#x13a;" horiz-adv-x="318" 
d="M63 0l-3 5l24 135l71 501q3 17 -10 21l-50 17l11 76h213l-92 -654q-2 -12 0 -15t13 -5l48 -7l-9 -74h-216zM140 787l-32 71l212 117l45 -103z" />
    <glyph glyph-name="Lcommaaccent" unicode="&#x13b;" horiz-adv-x="607" 
d="M19 0l10 74l62 7q11 2 14 5.5t5 14.5l73 522q2 11 -0.5 15t-12.5 5l-60 7l8 74h327l-10 -74l-83 -8q-11 -1 -13.5 -4.5t-4.5 -14.5l-72 -516h176q8 0 11.5 1.5t6.5 9.5l29 100h107l-30 -218h-543zM198 -274l34 96q3 10 -4 12l-36 13l34 98q25 0 48 -2.5t39.5 -9t26.5 -19
t10 -33.5q0 -19 -8.5 -38t-21.5 -39l-61 -97z" />
    <glyph glyph-name="lcommaaccent" unicode="&#x13c;" horiz-adv-x="318" 
d="M63 0l-3 5l24 135l71 501q3 17 -10 21l-50 17l11 76h213l-92 -654q-2 -12 0 -15t13 -5l48 -7l-9 -74h-216zM76 -274l34 96q3 10 -4 12l-36 13l34 98q25 0 48 -2.5t39.5 -9t26.5 -19t10 -33.5q0 -19 -8.5 -38t-21.5 -39l-61 -97z" />
    <glyph glyph-name="Lcaron" unicode="&#x13d;" horiz-adv-x="607" 
d="M19 0l10 74l62 7q11 2 14 5.5t5 14.5l73 522q2 11 -0.5 15t-12.5 5l-60 7l8 74h327l-10 -74l-83 -8q-11 -1 -13.5 -4.5t-4.5 -14.5l-72 -516h176q8 0 11.5 1.5t6.5 9.5l29 100h107l-30 -218h-543zM473 530q17 38 27.5 69t10.5 65q0 14 -3.5 26.5t-5.5 20.5l98 34
q10 -11 19 -25t9 -29t-3 -28.5t-11 -30.5q-5 -13 -14 -30t-19.5 -35t-20.5 -35.5t-18 -30.5z" />
    <glyph glyph-name="lcaron" unicode="&#x13e;" horiz-adv-x="428" 
d="M63 0l-3 5l24 135l71 501q3 17 -10 21l-50 17l11 76h213l-92 -654q-2 -12 0 -15t13 -5l48 -7l-9 -74h-216zM330 557q17 38 27.5 69t10.5 65q0 14 -3.5 26.5t-5.5 20.5l98 34q10 -11 19 -25t9 -29t-3 -28.5t-11 -30.5q-5 -13 -14 -30t-19.5 -35t-20.5 -35.5t-18 -30.5z
" />
    <glyph glyph-name="Ldot" unicode="&#x13f;" horiz-adv-x="607" 
d="M19 0l10 74l62 7q11 2 14 5.5t5 14.5l73 522q2 11 -0.5 15t-12.5 5l-60 7l8 74h327l-10 -74l-83 -8q-11 -1 -13.5 -4.5t-4.5 -14.5l-72 -516h176q8 0 11.5 1.5t6.5 9.5l29 100h107l-30 -218h-543zM614.906 418.244q0 -45.8438 -26.79 -72.5859t-73.6729 -26.7422
q-36.3574 0 -56.4502 19.1016t-20.0928 52.5293q0 45.8438 26.79 72.1084t73.6729 26.2646q36.3574 0 56.4502 -18.1465t20.0928 -52.5293z" />
    <glyph glyph-name="ldot" unicode="&#x140;" horiz-adv-x="425" 
d="M63 0l-3 5l24 135l71 501q3 17 -10 21l-50 17l11 76h213l-92 -654q-2 -12 0 -15t13 -5l48 -7l-9 -74h-216zM391.386 312.526q-35.1592 0 -54.165 18.9893q-19.0049 18.9893 -19.0049 52.2207q0 45.5742 25.6572 71.6836q25.6562 26.1104 72.2188 26.1104
q35.1602 0 54.6406 -18.04q19.4795 -18.0391 19.4795 -52.2197q0 -45.5742 -26.1318 -72.1592t-72.6943 -26.585z" />
    <glyph glyph-name="Lslash" unicode="&#x141;" horiz-adv-x="597" 
d="M19 0l10 74l62 7q11 2 14 5.5t5 14.5l24 175l-95 -36l16 111l95 37l33 235q2 11 -0.5 15t-12.5 5l-60 7l8 74h327l-10 -74l-83 -8q-11 -1 -13.5 -4.5t-4.5 -14.5l-27 -189l193 75l-16 -113l-192 -74l-30 -215h176q8 0 11.5 1.5t6.5 9.5l29 100h107l-30 -218h-543z" />
    <glyph glyph-name="lslash" unicode="&#x142;" horiz-adv-x="324" 
d="M63 0l-3 5l24 135l25 176l-72 -30l15 112l73 30l30 213q3 17 -10 21l-50 17l11 76h213l-40 -284l77 32l-16 -112l-77 -32l-36 -258q-2 -12 0 -15t13 -5l48 -7l-9 -74h-216z" />
    <glyph glyph-name="Nacute" unicode="&#x143;" horiz-adv-x="812" 
d="M522 0l-240 525l-59 -424q-2 -12 0 -15t13 -5l65 -8l-9 -73h-273l9 73l63 7q11 2 14 5.5t5 14.5l73 523q2 11 0 15t-13 5l-60 7l8 74h243l236 -526l60 424q2 11 -0.5 15t-12.5 5l-61 7l9 75h272l-10 -75l-67 -8q-11 -2 -13 -5t-4 -14l-88 -622h-160zM420 767l-32 71
l212 117l45 -103z" />
    <glyph glyph-name="nacute" unicode="&#x144;" horiz-adv-x="620" 
d="M368 0l-2 3l22 122l29 208q5 32 1 50.5t-27 18.5q-16 0 -33.5 -7t-35 -17.5t-33 -23.5t-28.5 -24l-31 -229q-2 -12 0 -15t13 -5l50 -7l-10 -74h-274l10 75l44 6q10 2 13 5.5t5 14.5l42 305q3 17 -9 21l-49 18l11 76h198l-11 -82l3 -1q21 18 42 35t43.5 29.5t48 20.5
t54.5 8q114 0 118 -119q0 -12 -1 -26.5t-3 -28.5l-36 -256q-2 -12 -0.5 -15t12.5 -5l50 -7l-10 -74h-216zM315 561l-55 58l164 163l77 -85z" />
    <glyph glyph-name="Ncommaaccent" unicode="&#x145;" horiz-adv-x="812" 
d="M522 0l-240 525l-59 -424q-2 -12 0 -15t13 -5l65 -8l-9 -73h-273l9 73l63 7q11 2 14 5.5t5 14.5l73 523q2 11 0 15t-13 5l-60 7l8 74h243l236 -526l60 424q2 11 -0.5 15t-12.5 5l-61 7l9 75h272l-10 -75l-67 -8q-11 -2 -13 -5t-4 -14l-88 -622h-160zM299 -274l34 96
q5 9 -3 12l-37 13l34 98q25 0 48 -2.5t39.5 -9t26.5 -19t10 -33.5q0 -19 -8.5 -38t-21.5 -39l-61 -97z" />
    <glyph glyph-name="ncommaaccent" unicode="&#x146;" horiz-adv-x="620" 
d="M368 0l-2 3l22 122l29 208q5 32 1 50.5t-27 18.5q-16 0 -33.5 -7t-35 -17.5t-33 -23.5t-28.5 -24l-31 -229q-2 -12 0 -15t13 -5l50 -7l-10 -74h-274l10 75l44 6q10 2 13 5.5t5 14.5l42 305q3 17 -9 21l-49 18l11 76h198l-11 -82l3 -1q21 18 42 35t43.5 29.5t48 20.5
t54.5 8q114 0 118 -119q0 -12 -1 -26.5t-3 -28.5l-36 -256q-2 -12 -0.5 -15t12.5 -5l50 -7l-10 -74h-216zM213 -274l34 96q3 10 -4 12l-36 13l34 98q25 0 48 -2.5t39.5 -9t26.5 -19t10 -33.5q0 -19 -8.5 -38t-21.5 -39l-61 -97z" />
    <glyph glyph-name="Ncaron" unicode="&#x147;" horiz-adv-x="812" 
d="M522 0l-240 525l-59 -424q-2 -12 0 -15t13 -5l65 -8l-9 -73h-273l9 73l63 7q11 2 14 5.5t5 14.5l73 523q2 11 0 15t-13 5l-60 7l8 74h243l236 -526l60 424q2 11 -0.5 15t-12.5 5l-61 7l9 75h272l-10 -75l-67 -8q-11 -2 -13 -5t-4 -14l-88 -622h-160zM539 779h-104
l-106 111l60 57l107 -81l130 81l49 -57z" />
    <glyph glyph-name="ncaron" unicode="&#x148;" horiz-adv-x="620" 
d="M368 0l-2 3l22 122l29 208q5 32 1 50.5t-27 18.5q-16 0 -33.5 -7t-35 -17.5t-33 -23.5t-28.5 -24l-31 -229q-2 -12 0 -15t13 -5l50 -7l-10 -74h-274l10 75l44 6q10 2 13 5.5t5 14.5l42 305q3 17 -9 21l-49 18l11 76h198l-11 -82l3 -1q21 18 42 35t43.5 29.5t48 20.5
t54.5 8q114 0 118 -119q0 -12 -1 -26.5t-3 -28.5l-36 -256q-2 -12 -0.5 -15t12.5 -5l50 -7l-10 -74h-216zM413 582h-104l-104 129l64 52l102 -93l128 93l55 -52z" />
    <glyph glyph-name="napostrophe" unicode="&#x149;" horiz-adv-x="638" 
d="M386 0l-2 3l22 122l29 208q5 32 1 50.5t-27 18.5q-16 0 -33.5 -7t-35 -17.5t-33 -23.5t-28.5 -24l-31 -229q-2 -12 0 -15t13 -5l50 -7l-10 -74h-274l10 75l44 6q10 2 13 5.5t5 14.5l42 305q3 17 -9 21l-49 18l11 76h198l-11 -82l3 -1q21 18 42 35t43.5 29.5t48 20.5
t54.5 8q114 0 118 -119q0 -12 -1 -26.5t-3 -28.5l-36 -256q-2 -12 -0.5 -15t12.5 -5l50 -7l-10 -74h-216zM-2 518l30 76q3 8 -3 10l-30 10l27 77q20 0 37.5 -1.5t31 -7t21.5 -15.5t8 -26q0 -15 -6 -30t-16 -30l-51 -82z" />
    <glyph glyph-name="Eng" unicode="&#x14a;" horiz-adv-x="812" 
d="M679 -21q-2 -14 -4.5 -27t-5.5 -25q-8 -41 -27 -69.5t-46 -46.5t-60.5 -26t-71.5 -8q-31 0 -59.5 6t-51 14.5t-37.5 17t-21 14.5l51 83q5 -3 15.5 -8t23.5 -9t27.5 -7t28.5 -3t28 3.5t26.5 13t21.5 26.5t13 44l4 28l-252 525l-59 -424q-2 -12 0 -15t13 -5l65 -8l-9 -73
h-273l9 73l63 7q10 1 13.5 6t5.5 16l73 521q2 11 0 14.5t-13 5.5l-60 7l8 74h243l238 -513l58 411q2 11 -0.5 14.5t-12.5 5.5l-61 7l9 75h272l-10 -75l-67 -8q-9 -1 -12.5 -5.5t-5.5 -14.5l-90 -642v0z" />
    <glyph glyph-name="eng" unicode="&#x14b;" horiz-adv-x="619" 
d="M416 333q1 5 2 15t1 17q0 20 -8 28.5t-22 8.5q-30 0 -63 -21.5t-66 -50.5l-31 -229q-2 -12 0.5 -15t13.5 -5l47 -7l-10 -74h-271l10 75l44 6q10 2 13 5.5t5 14.5l42 305q3 18 -9 21l-49 18l11 76h198l-11 -82l3 -1q21 18 42 35t43.5 29.5t48 20.5t54.5 8q114 0 118 -119
q0 -12 -1 -26.5t-3 -28.5l-57 -410q-13 -81 -52 -121.5t-109 -46.5q-24 -1 -49 0q-28 1 -51.5 7t-41.5 13.5t-30 15.5t-17 13l51 83q11 -7 33.5 -16.5t48.5 -9.5q15 0 27 3.5t20.5 13.5t14.5 27t10 43z" />
    <glyph glyph-name="Omacron" unicode="&#x14c;" horiz-adv-x="757" 
d="M352 -12q-78 0 -134 21.5t-91 60.5t-51.5 94t-16.5 122q0 94 25.5 176.5t77 143.5t128 96t178.5 35q78 0 133 -22.5t90 -61.5t51.5 -92.5t16.5 -115.5q0 -107 -27.5 -191.5t-80 -143.5t-128 -90.5t-171.5 -31.5zM375 111q44 0 83 16t69 52t48.5 93t23.5 138v29t-2 27
q-9 78 -45.5 113t-101.5 35q-59 0 -102 -26.5t-71.5 -69.5t-42.5 -97.5t-14 -110.5q0 -13 0.5 -28.5t2.5 -25.5q10 -75 47 -110t105 -35zM316 785l13 100h317l-13 -100h-317z" />
    <glyph glyph-name="omacron" unicode="&#x14d;" horiz-adv-x="578" 
d="M269 -12q-59 0 -102 15.5t-71 43.5t-41.5 68t-13.5 88q0 72 20 132.5t58.5 104t95 67.5t129.5 24q63 0 105.5 -17t68.5 -45.5t37.5 -67.5t11.5 -82q0 -73 -18.5 -134t-56 -104.5t-93 -68t-130.5 -24.5zM281 93q26 0 49.5 12t41 38.5t28 69t10.5 104.5q0 57 -21.5 81.5
t-61.5 24.5q-25 0 -49 -11t-42.5 -36.5t-29.5 -68t-11 -104.5q0 -58 22.5 -84t63.5 -26zM199 599l14 100h317l-14 -100h-317z" />
    <glyph glyph-name="Obreve" unicode="&#x14e;" horiz-adv-x="757" 
d="M352 -12q-78 0 -134 21.5t-91 60.5t-51.5 94t-16.5 122q0 94 25.5 176.5t77 143.5t128 96t178.5 35q78 0 133 -22.5t90 -61.5t51.5 -92.5t16.5 -115.5q0 -107 -27.5 -191.5t-80 -143.5t-128 -90.5t-171.5 -31.5zM375 111q44 0 83 16t69 52t48.5 93t23.5 138v29t-2 27
q-9 78 -45.5 113t-101.5 35q-59 0 -102 -26.5t-71.5 -69.5t-42.5 -97.5t-14 -110.5q0 -13 0.5 -28.5t2.5 -25.5q10 -75 47 -110t105 -35zM655 913q-25 -64 -68.5 -97.5t-113.5 -33.5q-139 0 -153 131l78 27q8 -38 30 -53t52 -15t55 14.5t46 54.5z" />
    <glyph glyph-name="obreve" unicode="&#x14f;" horiz-adv-x="578" 
d="M269 -12q-59 0 -102 15.5t-71 43.5t-41.5 68t-13.5 88q0 72 20 132.5t58.5 104t95 67.5t129.5 24q63 0 105.5 -17t68.5 -45.5t37.5 -67.5t11.5 -82q0 -73 -18.5 -134t-56 -104.5t-93 -68t-130.5 -24.5zM281 93q26 0 49.5 12t41 38.5t28 69t10.5 104.5q0 57 -21.5 81.5
t-61.5 24.5q-25 0 -49 -11t-42.5 -36.5t-29.5 -68t-11 -104.5q0 -58 22.5 -84t63.5 -26zM539 709q-25 -64 -69.5 -100.5t-119.5 -36.5t-111.5 36t-43.5 101l78 28q8 -39 29.5 -57t56.5 -18t60 18t46 57z" />
    <glyph glyph-name="Ohungarumlaut" unicode="&#x150;" horiz-adv-x="757" 
d="M352 -12q-78 0 -134 21.5t-91 60.5t-51.5 94t-16.5 122q0 94 25.5 176.5t77 143.5t128 96t178.5 35q78 0 133 -22.5t90 -61.5t51.5 -92.5t16.5 -115.5q0 -107 -27.5 -191.5t-80 -143.5t-128 -90.5t-171.5 -31.5zM375 111q44 0 83 16t69 52t48.5 93t23.5 138v29t-2 27
q-9 78 -45.5 113t-101.5 35q-59 0 -102 -26.5t-71.5 -69.5t-42.5 -97.5t-14 -110.5q0 -13 0.5 -28.5t2.5 -25.5q10 -75 47 -110t105 -35zM368 761l-57 53l157 174l76 -75zM548 762l-47 51l165 164l71 -78z" />
    <glyph glyph-name="ohungarumlaut" unicode="&#x151;" horiz-adv-x="578" 
d="M269 -12q-59 0 -102 15.5t-71 43.5t-41.5 68t-13.5 88q0 72 20 132.5t58.5 104t95 67.5t129.5 24q63 0 105.5 -17t68.5 -45.5t37.5 -67.5t11.5 -82q0 -73 -18.5 -134t-56 -104.5t-93 -68t-130.5 -24.5zM281 93q26 0 49.5 12t41 38.5t28 69t10.5 104.5q0 57 -21.5 81.5
t-61.5 24.5q-25 0 -49 -11t-42.5 -36.5t-29.5 -68t-11 -104.5q0 -58 22.5 -84t63.5 -26zM240 560l-55 51l153 174l81 -75zM434 560l-56 51l155 173l79 -74z" />
    <glyph glyph-name="OE" unicode="&#x152;" horiz-adv-x="1002" 
d="M439 0q-47 -12 -100 -12q-73 0 -126 23.5t-88 64.5t-52 98t-17 125q0 93 24.5 173t72.5 139t117.5 92.5t159.5 33.5q29 0 55.5 -3.5t47.5 -9.5h489l-28 -202l-106 5l-3 76q0 13 -16 13h-215q28 -43 37.5 -94t9.5 -103h216l-15 -111h-207q-20 -124 -89 -201h215
q8 0 11.5 1.5t6.5 9.5l27 88h106l-28 -206h-505zM360 111q45 0 81.5 18t62 55.5t39.5 96t14 139.5q0 194 -142 194q-43 0 -80 -18t-64 -56t-42.5 -96.5t-15.5 -138.5q0 -99 38 -146.5t109 -47.5z" />
    <glyph glyph-name="oe" unicode="&#x153;" horiz-adv-x="867" 
d="M815 38q-38 -18 -79 -30.5t-84 -16.5q-15 -2 -30 -2t-29 1q-54 4 -89.5 28t-51.5 55q-33 -40 -80.5 -62.5t-117.5 -22.5q-55 0 -95.5 16t-66.5 45t-39 69.5t-13 90.5q0 70 18.5 129t55 102t90 67t122.5 24q37 0 66 -7.5t50.5 -19.5t37 -28t25.5 -34q34 39 83 64t109 25
q81 0 120.5 -35t39.5 -97q0 -54 -29 -90.5t-74 -60t-99.5 -35t-105.5 -15.5q1 -21 6.5 -39t16.5 -31t29.5 -20.5t46.5 -7.5q27 0 62 8t83 28zM279 93q59 0 95 51.5t36 166.5q0 58 -23 85t-61 27q-29 0 -53 -11.5t-41.5 -37t-27.5 -66t-10 -98.5q0 -62 22 -89.5t63 -27.5z
M555 295q16 2 44 7.5t55 15.5t46.5 26t19.5 39q0 40 -48 40q-42 0 -74 -34t-43 -94z" />
    <glyph glyph-name="Racute" unicode="&#x154;" horiz-adv-x="673" 
d="M447 0l-6 5l-55 246q-5 22 -15 33.5t-36 11.5h-47l-27 -193q-2 -12 0 -15t12 -5l59 -8l-9 -75h-303l9 75l63 7q11 1 13.5 4.5t4.5 15.5l74 521q2 11 -0.5 14.5t-12.5 5.5l-60 7l8 74h328q58 0 97.5 -14.5t64.5 -39t36 -56.5t11 -67q0 -42 -11.5 -75.5t-32.5 -60t-50 -46
t-64 -33.5q20 -11 29.5 -29.5t16.5 -50.5l33 -148q2 -11 8 -15t17 -6l61 -8l-10 -75h-206zM348 400q30 0 57 5.5t47.5 20t33 39t12.5 63.5q0 48 -28.5 67.5t-88.5 19.5h-49l-29 -215h45zM318 767l-32 71l212 117l45 -103z" />
    <glyph glyph-name="racute" unicode="&#x155;" horiz-adv-x="470" 
d="M9 0l10 75l46 6q11 2 13.5 5.5t4.5 14.5l42 305q2 17 -10 21l-50 18l11 76h198l-13 -90l3 -2q29 42 70 72t89 30q17 0 40.5 -2.5t36.5 -6.5l-25 -182l-117 4l-3 52q-1 12 -11 12q-14 0 -35.5 -15t-42.5 -37l-35 -254q-2 -12 0.5 -15.5t13.5 -4.5l95 -8l-11 -74h-320z
M268 561l-55 58l164 163l77 -85z" />
    <glyph glyph-name="Rcommaaccent" unicode="&#x156;" horiz-adv-x="673" 
d="M447 0l-6 5l-55 246q-5 22 -15 33.5t-36 11.5h-47l-27 -193q-2 -12 0 -15t12 -5l59 -8l-9 -75h-303l9 75l63 7q11 1 13.5 4.5t4.5 15.5l74 521q2 11 -0.5 14.5t-12.5 5.5l-60 7l8 74h328q58 0 97.5 -14.5t64.5 -39t36 -56.5t11 -67q0 -42 -11.5 -75.5t-32.5 -60t-50 -46
t-64 -33.5q20 -11 29.5 -29.5t16.5 -50.5l33 -148q2 -11 8 -15t17 -6l61 -8l-10 -75h-206zM348 400q30 0 57 5.5t47.5 20t33 39t12.5 63.5q0 48 -28.5 67.5t-88.5 19.5h-49l-29 -215h45zM258 -274l34 96q5 9 -3 12l-37 13l34 98q25 0 48 -2.5t39.5 -9t26.5 -19t10 -33.5
q0 -19 -8.5 -38t-21.5 -39l-61 -97z" />
    <glyph glyph-name="rcommaaccent" unicode="&#x157;" horiz-adv-x="470" 
d="M9 0l10 75l46 6q11 2 13.5 5.5t4.5 14.5l42 305q2 17 -10 21l-50 18l11 76h198l-13 -90l3 -2q29 42 70 72t89 30q17 0 40.5 -2.5t36.5 -6.5l-25 -182l-117 4l-3 52q-1 12 -11 12q-14 0 -35.5 -15t-42.5 -37l-35 -254q-2 -12 0.5 -15.5t13.5 -4.5l95 -8l-11 -74h-320z
M70 -274l34 96q3 10 -4 12l-36 13l34 98q25 0 48 -2.5t39.5 -9t26.5 -19t10 -33.5q0 -19 -8.5 -38t-21.5 -39l-61 -97z" />
    <glyph glyph-name="Rcaron" unicode="&#x158;" horiz-adv-x="673" 
d="M447 0l-6 5l-55 246q-5 22 -15 33.5t-36 11.5h-47l-27 -193q-2 -12 0 -15t12 -5l59 -8l-9 -75h-303l9 75l63 7q11 1 13.5 4.5t4.5 15.5l74 521q2 11 -0.5 14.5t-12.5 5.5l-60 7l8 74h328q58 0 97.5 -14.5t64.5 -39t36 -56.5t11 -67q0 -42 -11.5 -75.5t-32.5 -60t-50 -46
t-64 -33.5q20 -11 29.5 -29.5t16.5 -50.5l33 -148q2 -11 8 -15t17 -6l61 -8l-10 -75h-206zM348 400q30 0 57 5.5t47.5 20t33 39t12.5 63.5q0 48 -28.5 67.5t-88.5 19.5h-49l-29 -215h45zM443 779h-104l-106 111l60 57l107 -81l130 81l49 -57z" />
    <glyph glyph-name="rcaron" unicode="&#x159;" horiz-adv-x="470" 
d="M9 0l10 75l46 6q11 2 13.5 5.5t4.5 14.5l42 305q2 17 -10 21l-50 18l11 76h198l-13 -90l3 -2q29 42 70 72t89 30q17 0 40.5 -2.5t36.5 -6.5l-25 -182l-117 4l-3 52q-1 12 -11 12q-14 0 -35.5 -15t-42.5 -37l-35 -254q-2 -12 0.5 -15.5t13.5 -4.5l95 -8l-11 -74h-320z
M350 582h-104l-104 129l64 52l102 -93l128 93l55 -52z" />
    <glyph glyph-name="Sacute" unicode="&#x15a;" horiz-adv-x="588" 
d="M468 510l-2 86q0 8 -2 13.5t-11 7.5q-11 3 -24 4t-34 1q-26 0 -49.5 -5.5t-41.5 -17t-29 -29t-11 -40.5q0 -21 10 -35.5t27 -25.5t39.5 -19.5t46.5 -17.5q31 -11 62 -25t56.5 -36t41.5 -55.5t16 -82.5q0 -64 -24 -110.5t-65 -76.5t-96.5 -44t-118.5 -14q-35 0 -69 4
t-64 10t-54 13t-37 14l27 195h109l7 -94q1 -10 4 -14.5t14 -7.5q15 -4 33.5 -6t43.5 -2q65 0 101 25.5t36 78.5q0 22 -9 37.5t-24 26.5t-35.5 19.5t-42.5 16.5q-32 11 -65.5 24t-60.5 34t-44.5 53.5t-17.5 83.5q0 60 23.5 105t63.5 74.5t93.5 44t114.5 14.5
q65 0 115.5 -13.5t82.5 -27.5l-27 -195zM315 767l-32 71l212 117l45 -103z" />
    <glyph glyph-name="sacute" unicode="&#x15b;" horiz-adv-x="478" 
d="M353 363l-2 52q0 6 -2 10t-10 6q-20 5 -56 5q-32 0 -53.5 -11t-21.5 -37q0 -24 23 -36t56 -23q27 -9 55.5 -20t52.5 -28.5t39.5 -43.5t15.5 -66q0 -49 -19 -83.5t-51.5 -56.5t-75.5 -32.5t-91 -10.5q-35 0 -67 4t-57.5 9t-43 11t-23.5 11l19 145l102 -6l3 -58
q0 -12 11 -16t28.5 -6.5t42.5 -2.5q42 0 64 14.5t22 40.5q0 15 -6.5 25t-19 17t-30 12.5t-38.5 11.5q-27 8 -54 18.5t-48 28t-34.5 43.5t-13.5 65q0 46 18.5 79.5t50 55t73.5 31.5t88 10q29 0 57 -3t51 -7.5t41 -9.5t28 -9l-20 -145zM255 561l-55 58l164 163l77 -85z" />
    <glyph glyph-name="Scircumflex" unicode="&#x15c;" horiz-adv-x="588" 
d="M468 510l-2 86q0 8 -2 13.5t-11 7.5q-11 3 -24 4t-34 1q-26 0 -49.5 -5.5t-41.5 -17t-29 -29t-11 -40.5q0 -21 10 -35.5t27 -25.5t39.5 -19.5t46.5 -17.5q31 -11 62 -25t56.5 -36t41.5 -55.5t16 -82.5q0 -64 -24 -110.5t-65 -76.5t-96.5 -44t-118.5 -14q-35 0 -69 4
t-64 10t-54 13t-37 14l27 195h109l7 -94q1 -10 4 -14.5t14 -7.5q15 -4 33.5 -6t43.5 -2q65 0 101 25.5t36 78.5q0 22 -9 37.5t-24 26.5t-35.5 19.5t-42.5 16.5q-32 11 -65.5 24t-60.5 34t-44.5 53.5t-17.5 83.5q0 60 23.5 105t63.5 74.5t93.5 44t114.5 14.5
q65 0 115.5 -13.5t82.5 -27.5l-27 -195zM518 767l-107 81l-129 -81l-49 56l137 112h104l105 -112z" />
    <glyph glyph-name="scircumflex" unicode="&#x15d;" horiz-adv-x="478" 
d="M353 363l-2 52q0 6 -2 10t-10 6q-20 5 -56 5q-32 0 -53.5 -11t-21.5 -37q0 -24 23 -36t56 -23q27 -9 55.5 -20t52.5 -28.5t39.5 -43.5t15.5 -66q0 -49 -19 -83.5t-51.5 -56.5t-75.5 -32.5t-91 -10.5q-35 0 -67 4t-57.5 9t-43 11t-23.5 11l19 145l102 -6l3 -58
q0 -12 11 -16t28.5 -6.5t42.5 -2.5q42 0 64 14.5t22 40.5q0 15 -6.5 25t-19 17t-30 12.5t-38.5 11.5q-27 8 -54 18.5t-48 28t-34.5 43.5t-13.5 65q0 46 18.5 79.5t50 55t73.5 31.5t88 10q29 0 57 -3t51 -7.5t41 -9.5t28 -9l-20 -145zM416 562l-101 93l-129 -93l-54 52
l140 129h104l105 -129z" />
    <glyph glyph-name="Scedilla" unicode="&#x15e;" horiz-adv-x="588" 
d="M178 -179q5 -2 14 -3t21 -1q11 0 22.5 2.5t21 8t15.5 14.5t6 23q0 23 -17 31t-44 9l22 83q-32 1 -63.5 5t-58.5 10t-48.5 13t-33.5 13l27 195h109l7 -94q1 -10 4 -14.5t14 -7.5q15 -4 33.5 -6t43.5 -2q65 0 101 25.5t36 78.5q0 22 -9 37.5t-24 26.5t-35.5 19.5
t-42.5 16.5q-32 11 -65.5 24t-60.5 34t-44.5 53.5t-17.5 83.5q0 60 23.5 105t63.5 74.5t93.5 44t114.5 14.5q65 0 115.5 -13.5t82.5 -27.5l-27 -195l-109 9l-2 86q0 8 -2 13.5t-11 7.5q-11 3 -24 4t-34 1q-26 0 -49.5 -5.5t-41.5 -17t-29 -29t-11 -40.5q0 -21 10 -35.5
t27 -25.5t39.5 -19.5t46.5 -17.5q31 -11 62 -25t56.5 -36t41.5 -55.5t16 -82.5q0 -57 -19 -100t-53 -73t-79.5 -47t-99.5 -22l-9 -36q12 -3 24 -9.5t22.5 -17t17 -25t6.5 -35.5q0 -31 -12.5 -54t-33.5 -38.5t-48 -23.5t-55 -8t-44 3.5t-18 4.5z" />
    <glyph glyph-name="scedilla" unicode="&#x15f;" horiz-adv-x="478" 
d="M118 -179q5 -2 14 -3t21 -1q11 0 22.5 2.5t21 8t15.5 14.5t6 23q0 23 -17 31t-44 9l23 84q-60 4 -103.5 15t-54.5 19l19 145l102 -6l3 -58q0 -12 11 -16t28.5 -6.5t42.5 -2.5q42 0 64 14.5t22 40.5q0 15 -6.5 25t-19 17t-30 12.5t-38.5 11.5q-27 8 -54 18.5t-48 28
t-34.5 43.5t-13.5 65q0 46 18.5 79.5t50 55t73.5 31.5t88 10q29 0 57 -3t51 -7.5t41 -9.5t28 -9l-20 -145l-104 6l-2 52q0 6 -2 10t-10 6q-20 5 -56 5q-32 0 -53.5 -11t-21.5 -37q0 -24 23 -36t56 -23q27 -9 55.5 -20t52.5 -28.5t39.5 -43.5t15.5 -66q0 -44 -15.5 -76.5
t-42.5 -54.5t-63 -34t-77 -16l-9 -35q12 -3 24 -9.5t22.5 -17t17 -25t6.5 -35.5q0 -31 -12.5 -54t-33.5 -38.5t-48 -23.5t-55 -8t-44 3.5t-18 4.5z" />
    <glyph glyph-name="Scaron" unicode="&#x160;" horiz-adv-x="588" 
d="M468 510l-2 86q0 8 -2 13.5t-11 7.5q-11 3 -24 4t-34 1q-26 0 -49.5 -5.5t-41.5 -17t-29 -29t-11 -40.5q0 -21 10 -35.5t27 -25.5t39.5 -19.5t46.5 -17.5q31 -11 62 -25t56.5 -36t41.5 -55.5t16 -82.5q0 -64 -24 -110.5t-65 -76.5t-96.5 -44t-118.5 -14q-35 0 -69 4
t-64 10t-54 13t-37 14l27 195h109l7 -94q1 -10 4 -14.5t14 -7.5q15 -4 33.5 -6t43.5 -2q65 0 101 25.5t36 78.5q0 22 -9 37.5t-24 26.5t-35.5 19.5t-42.5 16.5q-32 11 -65.5 24t-60.5 34t-44.5 53.5t-17.5 83.5q0 60 23.5 105t63.5 74.5t93.5 44t114.5 14.5
q65 0 115.5 -13.5t82.5 -27.5l-27 -195zM454 779h-104l-106 111l60 57l107 -81l130 81l49 -57z" />
    <glyph glyph-name="scaron" unicode="&#x161;" horiz-adv-x="478" 
d="M353 363l-2 52q0 6 -2 10t-10 6q-20 5 -56 5q-32 0 -53.5 -11t-21.5 -37q0 -24 23 -36t56 -23q27 -9 55.5 -20t52.5 -28.5t39.5 -43.5t15.5 -66q0 -49 -19 -83.5t-51.5 -56.5t-75.5 -32.5t-91 -10.5q-35 0 -67 4t-57.5 9t-43 11t-23.5 11l19 145l102 -6l3 -58
q0 -12 11 -16t28.5 -6.5t42.5 -2.5q42 0 64 14.5t22 40.5q0 15 -6.5 25t-19 17t-30 12.5t-38.5 11.5q-27 8 -54 18.5t-48 28t-34.5 43.5t-13.5 65q0 46 18.5 79.5t50 55t73.5 31.5t88 10q29 0 57 -3t51 -7.5t41 -9.5t28 -9l-20 -145zM362 582h-104l-104 129l64 52l102 -93
l128 93l55 -52z" />
    <glyph glyph-name="uni0162" unicode="&#x162;" horiz-adv-x="680" 
d="M221 -179q5 -2 14 -3t21 -1q11 0 22.5 2.5t21 8t15.5 14.5t6 23q0 23 -17 31t-44 9l26 95h-155l11 74l101 7q10 1 13 5t5 15l71 514h-102q-8 0 -11 -1.5t-5 -9.5l-28 -87h-107l28 207h631l-28 -207h-106l-4 87q-1 8 -3.5 9.5t-10.5 1.5h-102l-71 -514q-2 -11 -0.5 -14.5
t12.5 -4.5l108 -9l-10 -73h-165l-12 -45q12 -3 24 -9.5t22.5 -17t17 -25t6.5 -35.5q0 -31 -12.5 -54t-33.5 -38.5t-48 -23.5t-55 -8t-44 3.5t-18 4.5z" />
    <glyph glyph-name="uni0163" unicode="&#x163;" horiz-adv-x="425" 
d="M115 -179q5 -2 14 -3t21 -1q11 0 22.5 2.5t21 8t15.5 14.5t6 23q0 23 -17 31t-44 9l23 87q-50 8 -72 35t-22 78q0 20 3 44l36 262q2 10 -6 10h-69l13 92q32 3 56.5 13.5t43 29.5t31.5 47.5t23 69.5h93l-20 -142q-1 -5 0 -7.5t7 -2.5h138l-14 -100h-146l-33 -239
q-3 -20 -3 -32q0 -26 13 -38t45 -12q21 0 41.5 4.5t38.5 11.5l18 -89q-29 -14 -67 -24.5t-76 -13.5l-9 -34q12 -3 24 -9.5t22.5 -17t17 -25t6.5 -35.5q0 -31 -12.5 -54t-33.5 -38.5t-48 -23.5t-55 -8t-44 3.5t-18 4.5z" />
    <glyph glyph-name="Tcaron" unicode="&#x164;" horiz-adv-x="680" 
d="M131 0l11 74l101 7q10 1 13 5t5 15l71 514h-102q-8 0 -11 -1.5t-5 -9.5l-28 -82l-107 -5l28 207h631l-28 -207l-104 5l-4 82q-1 8 -3.5 9.5t-10.5 1.5h-104l-71 -514q-2 -11 -0.5 -14.5t12.5 -4.5l108 -9l-10 -73h-392zM477 779h-104l-106 111l60 57l107 -81l130 81
l49 -57z" />
    <glyph glyph-name="tcaron" unicode="&#x165;" horiz-adv-x="425" 
d="M392 27q-33 -16 -79 -27.5t-88 -11.5q-75 0 -108.5 27.5t-33.5 89.5q0 20 3 44l36 262q2 10 -6 10h-69l13 92q32 3 56.5 13.5t43 29.5t31.5 47.5t23 69.5h93l-20 -142q-1 -5 0 -7.5t7 -2.5h138l-14 -100h-146l-33 -239q-3 -20 -3 -32q0 -26 13 -38t45 -12q21 0 41.5 4.5
t38.5 11.5zM346.68 581.226q16.6533 37.0654 26.9395 67.3027q10.2852 30.2373 10.2852 63.4014q0 13.6553 -3.42871 25.8477q-3.42871 12.1934 -5.3877 19.9961l96.002 33.1641q9.79688 -10.7295 18.6133 -24.3857q8.81641 -13.6553 8.81641 -28.2861t-2.93848 -27.7988
q-2.93945 -13.168 -10.7764 -29.75q-4.89746 -12.6807 -13.7148 -29.2617q-8.81641 -16.582 -19.1016 -34.1396q-10.2861 -17.5576 -20.082 -34.627q-9.79688 -17.0693 -17.6338 -29.75z" />
    <glyph glyph-name="Tbar" unicode="&#x166;" horiz-adv-x="680" 
d="M131 0l11 74l101 7q10 1 13 5t5 15l26 191h-112l15 101h111l31 222h-102q-8 0 -11 -1.5t-5 -9.5l-28 -87h-107l28 207h631l-28 -207h-106l-4 87q-1 8 -3.5 9.5t-10.5 1.5h-102l-31 -222h116l-15 -101h-115l-26 -191q-2 -11 -0.5 -14.5t12.5 -4.5l108 -9l-10 -73h-392z
" />
    <glyph glyph-name="tbar" unicode="&#x167;" horiz-adv-x="425" 
d="M392 27q-33 -16 -79 -27.5t-88 -11.5q-75 0 -108.5 27.5t-33.5 89.5q0 20 3 44l10 74h-72l13 99h72l13 89q2 10 -6 10h-69l13 92q32 3 56.5 13.5t43 29.5t31.5 47.5t23 69.5h93l-20 -142q-1 -5 0 -7.5t7 -2.5h138l-14 -100h-146l-14 -99h146l-14 -99h-146l-5 -41
q-3 -20 -3 -32q0 -26 13 -38t45 -12q21 0 41.5 4.5t38.5 11.5z" />
    <glyph glyph-name="Utilde" unicode="&#x168;" horiz-adv-x="774" 
d="M602 623q2 11 -0.5 15t-12.5 5l-61 7l10 74h290l-10 -74l-68 -8q-11 -2 -13.5 -5t-3.5 -14l-51 -364q-20 -144 -97 -207.5t-208 -63.5q-130 0 -193 52t-63 161q0 14 1.5 29.5t3.5 32.5l49 360q2 11 -0.5 15t-11.5 5l-61 7l10 74h310l-10 -74l-67 -8q-11 -2 -13.5 -5
t-4.5 -14l-47 -335q-6 -39 -6 -70q0 -55 26 -81t89 -26q39 0 67.5 10t48.5 31t32 54.5t18 80.5zM638 841q-21 -29 -38 -44.5t-41 -15.5q-17 0 -35.5 3.5t-44.5 10.5l-75 20q-10 3 -17 -4l-35 -32l-58 39l36 52q17 25 34.5 36t40.5 11q14 0 39.5 -4.5t57.5 -12.5
q20 -5 35.5 -9.5t25.5 -4.5t15 6l27 29l61 -39z" />
    <glyph glyph-name="utilde" unicode="&#x169;" horiz-adv-x="623" 
d="M380 0l10 80l-3 1q-16 -14 -35 -30t-42 -30t-50 -23.5t-59 -9.5q-65 0 -92 32t-27 93q0 13 1 27.5t3 29.5l33 242q2 12 0 15.5t-13 5.5l-39 7l12 81h195l7 -7l-44 -318q-2 -13 -3 -24t-1 -19q0 -19 7 -27.5t25 -8.5q16 0 34 7.5t35 19t32 23.5t25 21l31 226q2 12 0 15
t-13 5l-32 5l13 82h189l7 -8l-59 -411q-2 -10 -0.5 -14.5t11.5 -6.5l50 -7l-10 -74h-198zM515 643q-20 -29 -36.5 -44.5t-39.5 -15.5q-14 0 -33 4t-43 12q-23 6 -48.5 13.5t-36.5 9.5q-7 1 -17 -7l-35 -32l-54 37l37 51q35 50 73 50q21 0 62 -12q12 -4 26 -8t27.5 -8
t24 -6.5t16.5 -3.5q7 0 14 6l32 32l60 -37z" />
    <glyph glyph-name="Umacron" unicode="&#x16a;" horiz-adv-x="774" 
d="M602 623q2 11 -0.5 15t-12.5 5l-61 7l10 74h290l-10 -74l-68 -8q-11 -2 -13.5 -5t-3.5 -14l-51 -364q-20 -144 -97 -207.5t-208 -63.5q-130 0 -193 52t-63 161q0 14 1.5 29.5t3.5 32.5l49 360q2 11 -0.5 15t-11.5 5l-61 7l10 74h310l-10 -74l-67 -8q-11 -2 -13.5 -5
t-4.5 -14l-47 -335q-6 -39 -6 -70q0 -55 26 -81t89 -26q39 0 67.5 10t48.5 31t32 54.5t18 80.5zM319 785l13 100h317l-13 -100h-317z" />
    <glyph glyph-name="umacron" unicode="&#x16b;" horiz-adv-x="623" 
d="M380 0l10 80l-3 1q-16 -14 -35 -30t-42 -30t-50 -23.5t-59 -9.5q-65 0 -92 32t-27 93q0 13 1 27.5t3 29.5l33 242q2 12 0 15.5t-13 5.5l-39 7l12 81h195l7 -7l-44 -318q-2 -13 -3 -24t-1 -19q0 -19 7 -27.5t25 -8.5q16 0 34 7.5t35 19t32 23.5t25 21l31 226q2 12 0 15
t-13 5l-32 5l13 82h189l7 -8l-59 -411q-2 -10 -0.5 -14.5t11.5 -6.5l50 -7l-10 -74h-198zM191 599l14 100h317l-14 -100h-317z" />
    <glyph glyph-name="Ubreve" unicode="&#x16c;" horiz-adv-x="774" 
d="M602 623q2 11 -0.5 15t-12.5 5l-61 7l10 74h290l-10 -74l-68 -8q-11 -2 -13.5 -5t-3.5 -14l-51 -364q-20 -144 -97 -207.5t-208 -63.5q-130 0 -193 52t-63 161q0 14 1.5 29.5t3.5 32.5l49 360q2 11 -0.5 15t-11.5 5l-61 7l10 74h310l-10 -74l-67 -8q-11 -2 -13.5 -5
t-4.5 -14l-47 -335q-6 -39 -6 -70q0 -55 26 -81t89 -26q39 0 67.5 10t48.5 31t32 54.5t18 80.5zM672 913q-25 -64 -68.5 -97.5t-113.5 -33.5q-139 0 -153 131l78 27q8 -38 30 -53t52 -15t55 14.5t46 54.5z" />
    <glyph glyph-name="ubreve" unicode="&#x16d;" horiz-adv-x="623" 
d="M380 0l10 80l-3 1q-16 -14 -35 -30t-42 -30t-50 -23.5t-59 -9.5q-65 0 -92 32t-27 93q0 13 1 27.5t3 29.5l33 242q2 12 0 15.5t-13 5.5l-39 7l12 81h195l7 -7l-44 -318q-2 -13 -3 -24t-1 -19q0 -19 7 -27.5t25 -8.5q16 0 34 7.5t35 19t32 23.5t25 21l31 226q2 12 0 15
t-13 5l-32 5l13 82h189l7 -8l-59 -411q-2 -10 -0.5 -14.5t11.5 -6.5l50 -7l-10 -74h-198zM539 709q-25 -64 -69.5 -100.5t-119.5 -36.5t-111.5 36t-43.5 101l78 28q8 -39 29.5 -57t56.5 -18t60 18t46 57z" />
    <glyph glyph-name="Uring" unicode="&#x16e;" horiz-adv-x="774" 
d="M602 623q2 11 -0.5 15t-12.5 5l-61 7l10 74h290l-10 -74l-68 -8q-11 -2 -13.5 -5t-3.5 -14l-51 -364q-20 -144 -97 -207.5t-208 -63.5q-130 0 -193 52t-63 161q0 14 1.5 29.5t3.5 32.5l49 360q2 11 -0.5 15t-11.5 5l-61 7l10 74h310l-10 -74l-67 -8q-11 -2 -13.5 -5
t-4.5 -14l-47 -335q-6 -39 -6 -70q0 -55 26 -81t89 -26q39 0 67.5 10t48.5 31t32 54.5t18 80.5zM513 955q37 0 65.5 -20.5t28.5 -63.5q0 -50 -32 -82t-87 -32q-42 0 -69.5 22t-27.5 65q0 51 33.5 81t88.5 30zM495 816q26 0 35.5 15t9.5 35q0 17 -10.5 23.5t-24.5 6.5
q-46 0 -46 -50q0 -15 10 -22.5t26 -7.5z" />
    <glyph glyph-name="uring" unicode="&#x16f;" horiz-adv-x="623" 
d="M380 0l10 80l-3 1q-16 -14 -35 -30t-42 -30t-50 -23.5t-59 -9.5q-65 0 -92 32t-27 93q0 13 1 27.5t3 29.5l33 242q2 12 0 15.5t-13 5.5l-39 7l12 81h195l7 -7l-44 -318q-2 -13 -3 -24t-1 -19q0 -19 7 -27.5t25 -8.5q16 0 34 7.5t35 19t32 23.5t25 21l31 226q2 12 0 15
t-13 5l-32 5l13 82h189l7 -8l-59 -411q-2 -10 -0.5 -14.5t11.5 -6.5l50 -7l-10 -74h-198zM376 770q37 0 65.5 -20.5t28.5 -63.5q0 -50 -32 -82t-87 -32q-42 0 -69.5 22t-27.5 65q0 51 33.5 81t88.5 30zM358 631q26 0 35.5 15t9.5 35q0 17 -10.5 23.5t-24.5 6.5
q-46 0 -46 -50q0 -15 10 -22.5t26 -7.5z" />
    <glyph glyph-name="Uhungarumlaut" unicode="&#x170;" horiz-adv-x="774" 
d="M602 623q2 11 -0.5 15t-12.5 5l-61 7l10 74h290l-10 -74l-68 -8q-11 -2 -13.5 -5t-3.5 -14l-51 -364q-20 -144 -97 -207.5t-208 -63.5q-130 0 -193 52t-63 161q0 14 1.5 29.5t3.5 32.5l49 360q2 11 -0.5 15t-11.5 5l-61 7l10 74h310l-10 -74l-67 -8q-11 -2 -13.5 -5
t-4.5 -14l-47 -335q-6 -39 -6 -70q0 -55 26 -81t89 -26q39 0 67.5 10t48.5 31t32 54.5t18 80.5zM385 761l-57 53l157 174l76 -75zM565 762l-47 51l165 164l71 -78z" />
    <glyph glyph-name="uhungarumlaut" unicode="&#x171;" horiz-adv-x="623" 
d="M380 0l10 80l-3 1q-16 -14 -35 -30t-42 -30t-50 -23.5t-59 -9.5q-65 0 -92 32t-27 93q0 13 1 27.5t3 29.5l33 242q2 12 0 15.5t-13 5.5l-39 7l12 81h195l7 -7l-44 -318q-2 -13 -3 -24t-1 -19q0 -19 7 -27.5t25 -8.5q16 0 34 7.5t35 19t32 23.5t25 21l31 226q2 12 0 15
t-13 5l-32 5l13 82h189l7 -8l-59 -411q-2 -10 -0.5 -14.5t11.5 -6.5l50 -7l-10 -74h-198zM242 560l-55 51l153 174l81 -75zM436 560l-56 51l155 173l79 -74z" />
    <glyph glyph-name="Uogonek" unicode="&#x172;" horiz-adv-x="774" 
d="M495 -207q-32 -14 -64 -20.5t-58 -6.5q-49 0 -72 20t-23 54q0 46 29.5 82.5t68.5 65.5q-130 1 -192.5 52.5t-62.5 160.5q0 14 1.5 29.5t3.5 32.5l49 360q2 11 -0.5 15t-11.5 5l-61 7l10 74h310l-10 -74l-67 -8q-11 -2 -13.5 -5t-4.5 -14l-47 -335q-6 -39 -6 -70
q0 -55 26 -81t89 -26q39 0 67.5 10t48.5 31t32 54.5t18 80.5l47 336q2 11 -0.5 15t-12.5 5l-61 7l10 74h290l-10 -74l-68 -8q-11 -2 -13.5 -5t-3.5 -14l-51 -364q-8 -54 -21.5 -93.5t-35 -69.5t-51.5 -53t-70 -44q-13 -7 -31 -20t-34.5 -29t-28 -34t-11.5 -35q0 -24 25 -24
q10 0 24.5 2.5t29.5 7.5z" />
    <glyph glyph-name="uogonek" unicode="&#x173;" horiz-adv-x="623" 
d="M563 -207q-32 -14 -64 -20.5t-58 -6.5q-49 0 -72 20t-23 54q0 25 9.5 48t25.5 42.5t36.5 37t42.5 32.5h-80l10 80l-3 1q-16 -14 -35 -30t-42 -30t-50 -23.5t-59 -9.5q-65 0 -92 32t-27 93q0 13 1 27.5t3 29.5l33 242q2 12 0 15.5t-13 5.5l-39 7l12 81h195l7 -7l-44 -318
q-2 -13 -3 -24t-1 -19q0 -19 7 -27.5t25 -8.5q16 0 34 7.5t35 19t32 23.5t25 21l31 226q2 12 0 15t-13 5l-32 5l13 82h189l7 -8l-59 -411q-2 -10 -0.5 -14.5t11.5 -6.5l50 -7l-10 -74q-19 -11 -38.5 -24.5t-35.5 -29.5t-26.5 -32.5t-10.5 -32.5q0 -24 25 -24q10 0 24.5 2.5
t29.5 7.5z" />
    <glyph glyph-name="Wcircumflex" unicode="&#x174;" horiz-adv-x="1011" 
d="M585 0l-43 366h-3l-143 -366h-195l-62 615q-2 14 -5 18t-16 7l-47 11l11 73h299l-11 -73l-83 -10l47 -487h5l173 436h150l48 -446h6l168 497l-79 10l11 73h275l-11 -73l-48 -11q-10 -2 -16 -7t-11 -19l-221 -614h-199zM725 767l-107 81l-129 -81l-49 56l137 112h104
l105 -112z" />
    <glyph glyph-name="wcircumflex" unicode="&#x175;" horiz-adv-x="856" 
d="M503 0l-41 335h-3l-118 -335h-179l-63 421q-2 9 -5.5 12t-11.5 5l-41 9l13 74h185l8 -9l7 -91l31 -270h3l132 361h157l44 -365h3l123 294l-55 6l12 74h166l11 -29l-212 -492h-166zM606 562l-101 93l-129 -93l-54 52l140 129h104l105 -129z" />
    <glyph glyph-name="Ycircumflex" unicode="&#x176;" horiz-adv-x="663" 
d="M132 0l9 74l100 7q10 1 12.5 5t4.5 15l24 169l-146 353q-3 8 -8 11t-14 6l-42 11l11 73h302l-11 -73l-78 -9l87 -240h6l152 240l-74 9l11 73h261l-11 -73l-42 -11q-10 -3 -16.5 -7t-11.5 -13l-224 -348l-24 -171q-2 -11 0 -14.5t13 -4.5l103 -8l-10 -74h-384zM541 767
l-107 81l-129 -81l-49 56l137 112h104l105 -112z" />
    <glyph glyph-name="ycircumflex" unicode="&#x177;" horiz-adv-x="568" 
d="M209 3l-112 418q-3 9 -6.5 12t-11.5 5l-39 9l12 74h176l10 -11l27 -129l45 -209h5l127 266l-61 9l11 74h185l14 -31l-290 -571q-19 -36 -38.5 -62.5t-44 -44t-55 -26.5t-70.5 -9q-27 0 -51 5.5t-43.5 13t-33 16.5t-20.5 15l51 85q15 -9 40.5 -19t50.5 -10q32 0 54 19.5
t40 50.5zM440 562l-101 93l-129 -93l-54 52l140 129h104l105 -129z" />
    <glyph glyph-name="Ydieresis" unicode="&#x178;" horiz-adv-x="663" 
d="M132 0l9 74l100 7q10 1 12.5 5t4.5 15l24 169l-146 353q-3 8 -8 11t-14 6l-42 11l11 73h302l-11 -73l-78 -9l87 -240h6l152 240l-74 9l11 73h261l-11 -73l-42 -11q-10 -3 -16.5 -7t-11.5 -13l-224 -348l-24 -171q-2 -11 0 -14.5t13 -4.5l103 -8l-10 -74h-384zM400 859
q0 -35 -23 -56.5t-58 -21.5q-29 0 -46 17t-17 45q0 35 23.5 56t58.5 21q30 0 46 -16.5t16 -44.5zM608 859q0 -35 -23 -56.5t-58 -21.5q-29 0 -46 17t-17 45q0 35 23.5 56t58.5 21q30 0 46 -16.5t16 -44.5z" />
    <glyph glyph-name="Zacute" unicode="&#x179;" horiz-adv-x="658" 
d="M26 0l14 97l434 519h-215q-8 0 -11.5 -1.5t-5.5 -9.5l-29 -92l-109 -5l31 216h537l-13 -101l-431 -516h241q8 0 11.5 1.5t6.5 9.5l33 107h104l-30 -225h-568zM321 767l-32 71l212 117l45 -103z" />
    <glyph glyph-name="zacute" unicode="&#x17a;" horiz-adv-x="514" 
d="M21 0l12 84l304 343h-137q-11 0 -15 -12l-19 -57l-101 -4l23 167h434l-12 -86l-299 -342h144q11 0 15 13l22 69l103 4l-25 -179h-449zM257 561l-55 58l164 163l77 -85z" />
    <glyph glyph-name="Zdotaccent" unicode="&#x17b;" horiz-adv-x="658" 
d="M26 0l14 97l434 519h-215q-8 0 -11.5 -1.5t-5.5 -9.5l-29 -92l-109 -5l31 216h537l-13 -101l-431 -516h241q8 0 11.5 1.5t6.5 9.5l33 107h104l-30 -225h-568zM518 885q0 -48 -28 -76t-77 -28q-38 0 -59 20t-21 55q0 48 28 75.5t77 27.5q38 0 59 -19t21 -55z" />
    <glyph glyph-name="zdotaccent" unicode="&#x17c;" horiz-adv-x="514" 
d="M21 0l12 84l304 343h-137q-11 0 -15 -12l-19 -57l-101 -4l23 167h434l-12 -86l-299 -342h144q11 0 15 13l22 69l103 4l-25 -179h-449zM312 603q-37 0 -57 20t-20 55q0 48 27 75.5t76 27.5q37 0 57.5 -19t20.5 -55q0 -48 -27.5 -76t-76.5 -28z" />
    <glyph glyph-name="Zcaron" unicode="&#x17d;" horiz-adv-x="658" 
d="M26 0l14 97l434 519h-215q-8 0 -11.5 -1.5t-5.5 -9.5l-29 -92l-109 -5l31 216h537l-13 -101l-431 -516h241q8 0 11.5 1.5t6.5 9.5l33 107h104l-30 -225h-568zM460 779h-104l-106 111l60 57l107 -81l130 81l49 -57z" />
    <glyph glyph-name="zcaron" unicode="&#x17e;" horiz-adv-x="514" 
d="M21 0l12 84l304 343h-137q-11 0 -15 -12l-19 -57l-101 -4l23 167h434l-12 -86l-299 -342h144q11 0 15 13l22 69l103 4l-25 -179h-449zM361 582h-104l-104 129l64 52l102 -93l128 93l55 -52z" />
    <glyph glyph-name="longs" unicode="&#x17f;" horiz-adv-x="427" 
d="M52 -212l112 797q14 100 67 141t136 41q48 0 95.5 -15.5t76.5 -37.5l-56 -93q-6 4 -16.5 10t-24 12t-29 10t-31.5 4q-32 0 -48 -17t-21 -50l-113 -802h-148z" />
    <glyph glyph-name="florin" unicode="&#x192;" horiz-adv-x="576" 
d="M328 287l-61 -201q-18 -59 -39.5 -97t-49 -60t-61 -30.5t-75.5 -8.5q-24 0 -48.5 4t-46 11t-39 16t-28.5 19l52 92q20 -15 46.5 -26.5t55.5 -11.5q15 0 27.5 3t22.5 12.5t19 26.5t18 45l61 196q3 10 -6 10h-88l29 95h98l30 98q15 49 35.5 83t48 54t63 29t81.5 9
q49 0 90.5 -11.5t73.5 -31.5l-44 -146l-91 9l8 62q0 5 -1.5 8t-7.5 5q-7 3 -15 4.5t-21 1.5q-32 0 -49 -19.5t-29 -57.5l-27 -87q-3 -10 6 -10h123l-28 -95h-133z" />
    <glyph glyph-name="Aringacute" unicode="&#x1fa;" horiz-adv-x="744" 
d="M476 883q37 0 65.5 -20.5t28.5 -63.5q0 -45 -26 -76l128 -622q2 -9 7 -12t15 -5l43 -11l-11 -73h-307l10 73l82 9l-19 109h-246l-49 -109l76 -9l-11 -73h-274l11 73l45 11q20 5 27 20l297 617q-14 20 -14 51q0 51 33.5 81t88.5 30zM425 572h-7l-127 -273h185zM398 899
l-32 71l212 117l45 -103zM458 744q26 0 35.5 15t9.5 35q0 17 -10.5 23.5t-24.5 6.5q-46 0 -46 -50q0 -15 10 -22.5t26 -7.5z" />
    <glyph glyph-name="aringacute" unicode="&#x1fb;" horiz-adv-x="605" 
d="M370 0l12 81l-5 1q-45 -44 -87 -69t-95 -25q-74 0 -113 49t-39 151q0 57 13 117.5t42.5 110.5t77.5 82.5t119 32.5q43 0 77 -15.5t60 -41.5l19 47h128q-7 -32 -13.5 -65t-11.5 -66l-40 -290q-2 -11 0 -14t13 -5l47 -7l-11 -74h-193zM410 380q-16 14 -39.5 25.5
t-48.5 11.5q-37 0 -61 -23.5t-38.5 -57.5t-20 -71t-5.5 -65q0 -87 57 -87q14 0 31 7t34 18t34 25.5t31 28.5zM381 757q37 0 65.5 -20.5t28.5 -63.5q0 -50 -32 -82t-87 -32q-42 0 -69.5 22t-27.5 65q0 51 33.5 81t88.5 30zM363 618q26 0 35.5 15t9.5 35q0 17 -10.5 23.5
t-24.5 6.5q-46 0 -46 -50q0 -15 10 -22.5t26 -7.5zM321 772l-32 71l212 117l45 -103z" />
    <glyph glyph-name="AEacute" unicode="&#x1fc;" horiz-adv-x="1000" 
d="M396 0l10 73l66 8q9 1 12 4t4 13l29 204h-192l-134 -220l76 -9l-10 -73h-269l11 73l43 11q10 2 16.5 5t12.5 14l332 536l-73 10l10 75h680l-29 -202l-107 5l-3 76q0 13 -16 13h-157l-28 -203h233l-16 -111h-232l-28 -195h179q8 0 11.5 1.5t6.5 9.5l28 88h107l-29 -206
h-544zM561 616h-49l-126 -203h147zM623 767l-32 71l212 117l45 -103z" />
    <glyph glyph-name="aeacute" unicode="&#x1fd;" horiz-adv-x="836" 
d="M788 38q-49 -23 -100.5 -36.5t-106.5 -13.5q-77 0 -121.5 26.5t-67.5 71.5q-56 -51 -101 -74.5t-96 -23.5q-74 0 -113 49t-39 151q0 57 13 117.5t42.5 110.5t77.5 82.5t119 32.5q45 0 90.5 -19t83.5 -57q51 45 105 60.5t99 15.5q74 0 114.5 -34.5t40.5 -96.5
q0 -54 -27 -90.5t-70.5 -59.5t-98.5 -35t-111 -17q2 -20 7 -37.5t15.5 -31t28.5 -21.5t47 -8t63.5 8t82.5 28zM408 380q-18 15 -39.5 26t-46.5 11q-37 0 -61 -23.5t-38.5 -57.5t-20 -71t-5.5 -65q0 -87 57 -87q24 0 55 18.5t59 44.5q-1 11 -1 22v22q2 46 12.5 87t28.5 73z
M527 295q17 2 45 7.5t54.5 16t46 26t19.5 38.5q0 40 -48 40q-42 0 -74 -34.5t-43 -93.5zM456 561l-55 58l164 163l77 -85z" />
    <glyph glyph-name="Oslashacute" unicode="&#x1fe;" horiz-adv-x="757" 
d="M95 -79l66 118q-54 38 -78 101.5t-24 145.5q0 94 25.5 176.5t77 143.5t128 96t178.5 35q41 0 81 -8l35 64h137l-62 -112q52 -39 76 -100t24 -136q0 -107 -27.5 -191.5t-80 -143.5t-128 -90.5t-171.5 -31.5q-22 0 -42 2t-38 5l-41 -74h-136zM223 256q6 -46 23 -79l238 434
q-15 3 -34 3q-59 0 -102 -26.5t-71.5 -69.5t-42.5 -97.5t-14 -110.5q0 -13 0.5 -28.5t2.5 -25.5zM375 111q44 0 83 16t69 52t48.5 93t23.5 138v29t-2 27q-4 40 -18 70l-233 -424q7 -1 14 -1h15zM420 767l-32 71l212 117l45 -103z" />
    <glyph glyph-name="oslashacute" unicode="&#x1ff;" horiz-adv-x="578" 
d="M44 -82l67 116q-35 28 -52.5 71t-17.5 98q0 72 20 132.5t58.5 104t95 67.5t129.5 24q14 0 27 -1t26 -3l39 67h122l-62 -106q38 -29 54.5 -73.5t16.5 -95.5q0 -73 -18.5 -134t-56 -104.5t-93 -68t-130.5 -24.5q-16 0 -30.5 1.5t-28.5 3.5l-43 -75h-123zM195 203
q0 -27 4 -44l151 262q-5 1 -11 1.5t-12 0.5q-25 0 -49 -11t-42.5 -36.5t-29.5 -68t-11 -104.5zM281 93q26 0 49.5 12t41 38.5t28 69t10.5 104.5q0 24 -4 39l-149 -261q5 -1 11 -1.5t13 -0.5zM322 561l-55 58l164 163l77 -85z" />
    <glyph glyph-name="Scommaaccent" unicode="&#x218;" horiz-adv-x="588" 
d="M468 510l-2 86q0 8 -2 13.5t-11 7.5q-11 3 -24 4t-34 1q-26 0 -49.5 -5.5t-41.5 -17t-29 -29t-11 -40.5q0 -21 10 -35.5t27 -25.5t39.5 -19.5t46.5 -17.5q31 -11 62 -25t56.5 -36t41.5 -55.5t16 -82.5q0 -64 -24 -110.5t-65 -76.5t-96.5 -44t-118.5 -14q-35 0 -69 4
t-64 10t-54 13t-37 14l27 195h109l7 -94q1 -10 4 -14.5t14 -7.5q15 -4 33.5 -6t43.5 -2q65 0 101 25.5t36 78.5q0 22 -9 37.5t-24 26.5t-35.5 19.5t-42.5 16.5q-32 11 -65.5 24t-60.5 34t-44.5 53.5t-17.5 83.5q0 60 23.5 105t63.5 74.5t93.5 44t114.5 14.5
q65 0 115.5 -13.5t82.5 -27.5l-27 -195zM198 -274l34 96q5 9 -3 12l-37 13l34 98q25 0 48 -2.5t39.5 -9t26.5 -19t10 -33.5q0 -19 -8.5 -38t-21.5 -39l-61 -97z" />
    <glyph glyph-name="scommaaccent" unicode="&#x219;" horiz-adv-x="478" 
d="M353 363l-2 52q0 6 -2 10t-10 6q-20 5 -56 5q-32 0 -53.5 -11t-21.5 -37q0 -24 23 -36t56 -23q27 -9 55.5 -20t52.5 -28.5t39.5 -43.5t15.5 -66q0 -49 -19 -83.5t-51.5 -56.5t-75.5 -32.5t-91 -10.5q-35 0 -67 4t-57.5 9t-43 11t-23.5 11l19 145l102 -6l3 -58
q0 -12 11 -16t28.5 -6.5t42.5 -2.5q42 0 64 14.5t22 40.5q0 15 -6.5 25t-19 17t-30 12.5t-38.5 11.5q-27 8 -54 18.5t-48 28t-34.5 43.5t-13.5 65q0 46 18.5 79.5t50 55t73.5 31.5t88 10q29 0 57 -3t51 -7.5t41 -9.5t28 -9l-20 -145zM126 -274l34 96q3 10 -4 12l-36 13
l34 98q25 0 48 -2.5t39.5 -9t26.5 -19t10 -33.5q0 -19 -8.5 -38t-21.5 -39l-61 -97z" />
    <glyph glyph-name="uni021A" unicode="&#x21a;" horiz-adv-x="680" 
d="M131 0l11 74l101 7q10 1 13 5t5 15l71 514h-102q-8 0 -11 -1.5t-5 -9.5l-28 -82l-107 -5l28 207h631l-28 -207l-104 5l-4 82q-1 8 -3.5 9.5t-10.5 1.5h-104l-71 -514q-2 -11 -0.5 -14.5t12.5 -4.5l108 -9l-10 -73h-392zM235 -274l34 96q5 9 -3 12l-37 13l34 98
q25 0 48 -2.5t39.5 -9t26.5 -19t10 -33.5q0 -19 -8.5 -38t-21.5 -39l-61 -97z" />
    <glyph glyph-name="uni021B" unicode="&#x21b;" horiz-adv-x="425" 
d="M392 27q-33 -16 -79 -27.5t-88 -11.5q-75 0 -108.5 27.5t-33.5 89.5q0 20 3 44l36 262q2 10 -6 10h-69l13 92q32 3 56.5 13.5t43 29.5t31.5 47.5t23 69.5h93l-20 -142q-1 -5 0 -7.5t7 -2.5h138l-14 -100h-146l-33 -239q-3 -20 -3 -32q0 -26 13 -38t45 -12q21 0 41.5 4.5
t38.5 11.5zM126 -274l34 96q3 10 -4 12l-36 13l34 98q25 0 48 -2.5t39.5 -9t26.5 -19t10 -33.5q0 -19 -8.5 -38t-21.5 -39l-61 -97z" />
    <glyph glyph-name="dotlessj" unicode="&#x237;" horiz-adv-x="315" 
d="M134 407q1 16 -10 21l-52 17l11 76h213l-79 -574q-13 -92 -62 -131t-132 -39q-30 0 -56 6t-46.5 14t-34 16.5t-19.5 14.5l51 83q11 -7 34 -16.5t49 -9.5q15 0 26.5 3.5t20 13.5t14.5 27t10 43z" />
    <glyph glyph-name="apostrophe" unicode="&#x2bc;" horiz-adv-x="500" 
d="M271 536l30 76q3 8 -3 10l-30 10l27 77q20 0 37.5 -1.5t31 -7t21.5 -15.5t8 -26q0 -15 -6 -30t-16 -30l-51 -82z" />
    <glyph glyph-name="circumflex" unicode="&#x2c6;" horiz-adv-x="500" 
d="M446 562l-101 93l-129 -93l-54 52l140 129h104l105 -129z" />
    <glyph glyph-name="caron" unicode="&#x2c7;" horiz-adv-x="500" 
d="M383 582h-104l-104 129l64 52l102 -93l128 93l55 -52z" />
    <glyph glyph-name="uni02C9" unicode="&#x2c9;" horiz-adv-x="500" 
d="M176 599l14 100h317l-14 -100h-317z" />
    <glyph glyph-name="breve" unicode="&#x2d8;" horiz-adv-x="500" 
d="M521 709q-25 -64 -69.5 -100.5t-119.5 -36.5t-111.5 36t-43.5 101l78 28q8 -39 29.5 -57t56.5 -18t60 18t46 57z" />
    <glyph glyph-name="dotaccent" unicode="&#x2d9;" horiz-adv-x="500" 
d="M334 603q-37 0 -57 20t-20 55q0 48 27 75.5t76 27.5q37 0 57.5 -19t20.5 -55q0 -48 -27.5 -76t-76.5 -28z" />
    <glyph glyph-name="ring" unicode="&#x2da;" horiz-adv-x="500" 
d="M363 770q37 0 65.5 -20.5t28.5 -63.5q0 -50 -32 -82t-87 -32q-42 0 -69.5 22t-27.5 65q0 51 33.5 81t88.5 30zM345 631q26 0 35.5 15t9.5 35q0 17 -10.5 23.5t-24.5 6.5q-46 0 -46 -50q0 -15 10 -22.5t26 -7.5z" />
    <glyph glyph-name="ogonek" unicode="&#x2db;" horiz-adv-x="500" 
d="M347 -207q-32 -14 -64 -20.5t-58 -6.5q-49 0 -72 20t-23 54q0 30 13.5 56.5t35.5 49t48 41.5t52 35l69 -19l-27.5 -22.5t-32 -30t-26.5 -34.5t-11 -35q0 -24 25 -24q10 0 24.5 2.5t29.5 7.5z" />
    <glyph glyph-name="tilde" unicode="&#x2dc;" horiz-adv-x="500" 
d="M499 643q-20 -29 -36.5 -44.5t-39.5 -15.5q-14 0 -33 4t-43 12q-23 6 -48.5 13.5t-36.5 9.5q-7 1 -17 -7l-35 -32l-54 37l37 51q35 50 73 50q21 0 62 -12q12 -4 26 -8t27.5 -8t24 -6.5t16.5 -3.5q7 0 14 6l32 32l60 -37z" />
    <glyph glyph-name="hungarumlaut" unicode="&#x2dd;" horiz-adv-x="500" 
d="M192 560l-55 51l153 174l81 -75zM386 560l-56 51l155 173l79 -74z" />
    <glyph glyph-name="uni0394" unicode="&#x394;" horiz-adv-x="715" 
d="M43 0l2 91l316 633h173l141 -632l-14 -92h-618zM415 571h-7l-219 -463h318z" />
    <glyph glyph-name="uni03A9" unicode="&#x3a9;" horiz-adv-x="812" 
d="M443 0l29 213q28 9 57 26t52 45t38 69t15 98q0 78 -43 120.5t-122 42.5q-55 0 -96 -20.5t-68.5 -54.5t-41 -77t-13.5 -89q0 -63 28 -102t83 -58l-29 -213h-319l23 174h88l5 -56q1 -8 4 -9.5t11 -1.5h93l5 35q-75 26 -115.5 84t-40.5 142q0 83 30 151t83 116.5t125.5 75
t157.5 26.5q81 0 141 -20.5t99.5 -56.5t59 -85.5t19.5 -108.5q0 -62 -18 -114.5t-48.5 -94t-72.5 -70.5t-90 -45l-5 -35h92q8 0 10.5 1.5t5.5 9.5l21 56h88l-24 -174h-317z" />
    <glyph glyph-name="uni03BC" unicode="&#x3bc;" horiz-adv-x="605" 
d="M416 521h150l-54 -383q-3 -22 -3.5 -27.5t-0.5 -7.5q0 -8 3 -13t14 -7l52 -8l-10 -73q-3 -1 -13 -3t-24.5 -4.5t-31 -4t-31.5 -1.5q-27 0 -43.5 9t-26 22.5t-13 30t-4.5 30.5h-2q-35 -38 -80 -60t-85 -22q-16 0 -33 5l-15 -216h-155l102 733h148l-45 -319q-1 -7 -2.5 -20
t-1.5 -21q0 -21 8.5 -33t30.5 -12q16 0 33 7t32.5 17t29.5 21.5t24 20.5z" />
    <glyph glyph-name="pi" unicode="&#x3c0;" horiz-adv-x="677" 
d="M489 -11q-20 0 -40 4t-36 14.5t-26 30t-10 50.5q0 7 2 22t8 56l38 244l-131 -4l-93 -406h-157l110 403l-101 -3l33 121h591l-15 -104l-109 -3l-29 -278q-1 -10 -2 -17t-1 -13q0 -14 6.5 -17t17.5 -5l54 -9l-10 -73q-17 -5 -46.5 -9t-53.5 -4z" />
    <glyph glyph-name="Wgrave" unicode="&#x1e80;" horiz-adv-x="1011" 
d="M585 0l-43 366h-3l-143 -366h-195l-62 615q-2 14 -5 18t-16 7l-47 11l11 73h299l-11 -73l-83 -10l47 -487h5l173 436h150l48 -446h6l168 497l-79 10l11 73h275l-11 -73l-48 -11q-10 -2 -16 -7t-11 -19l-221 -614h-199zM477 856l65 99l190 -122l-45 -67z" />
    <glyph glyph-name="wgrave" unicode="&#x1e81;" horiz-adv-x="856" 
d="M503 0l-41 335h-3l-118 -335h-179l-63 421q-2 9 -5.5 12t-11.5 5l-41 9l13 74h185l8 -9l7 -91l31 -270h3l132 361h157l44 -365h3l123 294l-55 6l12 74h166l11 -29l-212 -492h-166zM542 561l-158 146l93 78l129 -174z" />
    <glyph glyph-name="Wacute" unicode="&#x1e82;" horiz-adv-x="1011" 
d="M585 0l-43 366h-3l-143 -366h-195l-62 615q-2 14 -5 18t-16 7l-47 11l11 73h299l-11 -73l-83 -10l47 -487h5l173 436h150l48 -446h6l168 497l-79 10l11 73h275l-11 -73l-48 -11q-10 -2 -16 -7t-11 -19l-221 -614h-199zM530 767l-32 71l212 117l45 -103z" />
    <glyph glyph-name="wacute" unicode="&#x1e83;" horiz-adv-x="856" 
d="M503 0l-41 335h-3l-118 -335h-179l-63 421q-2 9 -5.5 12t-11.5 5l-41 9l13 74h185l8 -9l7 -91l31 -270h3l132 361h157l44 -365h3l123 294l-55 6l12 74h166l11 -29l-212 -492h-166zM445 561l-55 58l164 163l77 -85z" />
    <glyph glyph-name="Wdieresis" unicode="&#x1e84;" horiz-adv-x="1011" 
d="M585 0l-43 366h-3l-143 -366h-195l-62 615q-2 14 -5 18t-16 7l-47 11l11 73h299l-11 -73l-83 -10l47 -487h5l173 436h150l48 -446h6l168 497l-79 10l11 73h275l-11 -73l-48 -11q-10 -2 -16 -7t-11 -19l-221 -614h-199zM586 859q0 -35 -23 -56.5t-58 -21.5q-29 0 -46 17
t-17 45q0 35 23.5 56t58.5 21q30 0 46 -16.5t16 -44.5zM794 859q0 -35 -23 -56.5t-58 -21.5q-29 0 -46 17t-17 45q0 35 23.5 56t58.5 21q30 0 46 -16.5t16 -44.5z" />
    <glyph glyph-name="wdieresis" unicode="&#x1e85;" horiz-adv-x="856" 
d="M503 0l-41 335h-3l-118 -335h-179l-63 421q-2 9 -5.5 12t-11.5 5l-41 9l13 74h185l8 -9l7 -91l31 -270h3l132 361h157l44 -365h3l123 294l-55 6l12 74h166l11 -29l-212 -492h-166zM474 674q0 -35 -23 -56.5t-58 -21.5q-29 0 -46 17t-17 45q0 35 23.5 56t58.5 21
q30 0 46 -16.5t16 -44.5zM682 674q0 -35 -23 -56.5t-58 -21.5q-29 0 -46 17t-17 45q0 35 23.5 56t58.5 21q30 0 46 -16.5t16 -44.5z" />
    <glyph glyph-name="Ygrave" unicode="&#x1ef2;" horiz-adv-x="663" 
d="M132 0l9 74l100 7q10 1 12.5 5t4.5 15l24 169l-146 353q-3 8 -8 11t-14 6l-42 11l11 73h302l-11 -73l-78 -9l87 -240h6l152 240l-74 9l11 73h261l-11 -73l-42 -11q-10 -3 -16.5 -7t-11.5 -13l-224 -348l-24 -171q-2 -11 0 -14.5t13 -4.5l103 -8l-10 -74h-384zM284 856
l65 99l190 -122l-45 -67z" />
    <glyph glyph-name="ygrave" unicode="&#x1ef3;" horiz-adv-x="568" 
d="M209 3l-112 418q-3 9 -6.5 12t-11.5 5l-39 9l12 74h176l10 -11l27 -129l45 -209h5l127 266l-61 9l11 74h185l14 -31l-290 -571q-19 -36 -38.5 -62.5t-44 -44t-55 -26.5t-70.5 -9q-27 0 -51 5.5t-43.5 13t-33 16.5t-20.5 15l51 85q15 -9 40.5 -19t50.5 -10q32 0 54 19.5
t40 50.5zM374 561l-158 146l93 78l129 -174z" />
    <glyph glyph-name="thinspace" unicode="&#x2009;" horiz-adv-x="125" 
 />
    <glyph glyph-name="endash" unicode="&#x2013;" horiz-adv-x="499" 
d="M11 227l15 107h499l-15 -107h-499z" />
    <glyph glyph-name="emdash" unicode="&#x2014;" horiz-adv-x="1000" 
d="M11 227l15 107h1000l-15 -107h-1000z" />
    <glyph glyph-name="quoteleft" unicode="&#x2018;" horiz-adv-x="216" 
d="M230 537q-25 0 -47 3t-38.5 10.5t-26.5 20t-10 33.5q0 19 8.5 35.5t20.5 36.5l62 100l60 -21l-36 -98q-3 -8 5 -11l35 -14z" />
    <glyph glyph-name="quoteright" unicode="&#x2019;" horiz-adv-x="218" 
d="M114 557l36 97q3 9 -5 12l-34 14l33 94q24 0 46 -2.5t38.5 -9t26.5 -19t10 -32.5q0 -19 -8.5 -37t-20.5 -38l-62 -100z" />
    <glyph glyph-name="quotesinglbase" unicode="&#x201a;" horiz-adv-x="214" 
d="M26 -115l36 98q3 8 -5 11l-35 14l34 95q24 0 46 -2.5t38.5 -9.5t26.5 -19t10 -33q0 -19 -8.5 -36.5t-20.5 -37.5l-62 -101z" />
    <glyph glyph-name="quotedblleft" unicode="&#x201c;" horiz-adv-x="394" 
d="M408 537q-25 0 -47 3t-38.5 10.5t-26.5 20t-10 33.5q0 19 8.5 35.5t20.5 36.5l62 100l60 -21l-36 -98q-3 -8 5 -11l35 -14zM230 537q-25 0 -47 3t-38.5 10.5t-26.5 20t-10 33.5q0 19 8.5 35.5t20.5 36.5l62 100l60 -21l-36 -98q-3 -8 5 -11l35 -14z" />
    <glyph glyph-name="quotedblright" unicode="&#x201d;" horiz-adv-x="396" 
d="M292 557l36 97q3 9 -5 12l-34 14l33 94q24 0 46 -2.5t38.5 -9t26.5 -19t10 -32.5q0 -19 -8.5 -37t-20.5 -38l-62 -100zM114 557l36 97q3 9 -5 12l-34 14l33 94q24 0 46 -2.5t38.5 -9t26.5 -19t10 -32.5q0 -19 -8.5 -37t-20.5 -38l-62 -100z" />
    <glyph glyph-name="quotedblbase" unicode="&#x201e;" horiz-adv-x="392" 
d="M204 -115l36 98q3 8 -5 11l-35 14l34 95q24 0 46 -2.5t38.5 -9.5t26.5 -19t10 -33q0 -19 -8.5 -36.5t-20.5 -37.5l-62 -101zM26 -115l36 98q3 8 -5 11l-35 14l34 95q24 0 46 -2.5t38.5 -9.5t26.5 -19t10 -33q0 -19 -8.5 -36.5t-20.5 -37.5l-62 -101z" />
    <glyph glyph-name="dagger" unicode="&#x2020;" horiz-adv-x="402" 
d="M256 432l38 -112l-49 -214l-27 -189h-100l27 189l10 214l67 112l-88 -36h-74l15 104h74l78 -35l-23 96l12 84h105l-12 -84l-49 -96l90 35h73l-15 -104h-73l-79 36l4 33h-33l-5 -33h34z" />
    <glyph glyph-name="daggerdbl" unicode="&#x2021;" horiz-adv-x="420" 
d="M248 1l-12 -84h-105l12 84l50 96l-89 -36h-74l15 104h74l78 -35l-34 116l10 75l67 111l-89 -36h-74l16 104h74l77 -35l-22 96l12 84h105l-12 -84l-49 -96l90 35h73l-15 -104h-74l-78 36l4 33h-34l-4 -33h34l38 -111l-10 -75l-71 -116l89 35h73l-14 -104h-74l-78 36l4 33
h-34l-4 -33h34z" />
    <glyph glyph-name="bullet" unicode="&#x2022;" horiz-adv-x="412" 
d="M375 279q0 -73 -39 -109.5t-113 -36.5q-73 0 -111.5 36.5t-38.5 109.5t38.5 109.5t111.5 36.5q74 0 113 -36.5t39 -109.5z" />
    <glyph glyph-name="ellipsis" unicode="&#x2026;" horiz-adv-x="712" 
d="M434 76q0 -42 -24.5 -65t-72.5 -23q-76 0 -76 67q0 43 24.5 66t73.5 23q39 0 57 -17t18 -51zM652 76q0 -42 -24.5 -65t-72.5 -23q-76 0 -76 67q0 43 24.5 66t73.5 23q39 0 57 -17t18 -51zM216 76q0 -42 -24.5 -65t-72.5 -23q-76 0 -76 67q0 43 24.5 66t73.5 23
q39 0 57 -17t18 -51z" />
    <glyph glyph-name="perthousand" unicode="&#x2030;" horiz-adv-x="1138" 
d="M207 295q-71 0 -101.5 35.5t-30.5 92.5q0 93 47.5 145t136.5 52q69 0 100.5 -33.5t31.5 -93.5q0 -91 -48 -144.5t-136 -53.5zM117 -17l466 638h138l-465 -638h-139zM221 370q38 0 51 34t13 83q0 29 -9 43t-30 14q-32 0 -48.5 -30t-16.5 -84q0 -60 40 -60zM583 -12
q-71 0 -101 35t-30 92q0 94 47.5 146t136.5 52q69 0 100.5 -34t31.5 -94q0 -91 -48.5 -144t-136.5 -53zM597 63q38 0 51 34t13 83q0 57 -38 57q-33 0 -49 -30t-16 -84q0 -60 39 -60zM924 -12q-71 0 -101.5 35t-30.5 92q0 94 47.5 146t135.5 52q69 0 101 -34t32 -94
q0 -91 -48 -144t-136 -53zM937 63q38 0 51.5 34t13.5 83q0 57 -39 57q-33 0 -49 -30t-16 -84q0 -60 39 -60z" />
    <glyph glyph-name="guilsinglleft" unicode="&#x2039;" horiz-adv-x="278" 
d="M113 103l-64 154l110 151h123l-100 -140q-5 -6 -5.5 -9.5t1.5 -9.5l56 -146h-121z" />
    <glyph glyph-name="guilsinglright" unicode="&#x203a;" horiz-adv-x="278" 
d="M33 103l98 146q4 6 4.5 9.5t-2.5 9.5l-60 140h122l67 -152l-107 -153h-122z" />
    <glyph glyph-name="fraction" unicode="&#x2044;" horiz-adv-x="224" 
d="M-157 -17l462 741h138l-461 -741h-139z" />
    <glyph glyph-name="zerosuperior" unicode="&#x2070;" horiz-adv-x="438" 
d="M243 342q-85 0 -123 41t-38 121q0 35 6 76q17 117 71.5 172t159.5 55q86 0 123 -42.5t37 -119.5q0 -32 -6 -72q-17 -120 -70.5 -175.5t-159.5 -55.5zM259 434q15 0 26 6.5t19.5 23t15 43.5t12.5 68q4 27 6 48.5t2 35.5q0 29 -8 41.5t-28 12.5q-15 0 -26 -6.5t-19.5 -22.5
t-15.5 -42t-13 -66q-5 -28 -6.5 -49t-1.5 -38q0 -31 8.5 -43t28.5 -12z" />
    <glyph glyph-name="foursuperior" unicode="&#x2074;" horiz-adv-x="439" 
d="M255 350l12 86h-201l12 82l223 278h140l-40 -274h54l-13 -85h-54l-12 -87h-121zM301 672h-3l-118 -150h99z" />
    <glyph glyph-name="fivesuperior" unicode="&#x2075;" horiz-adv-x="392" 
d="M233 697l-22 -84q21 11 42 17t47 6q54 0 85 -29.5t31 -86.5q0 -36 -13 -68.5t-38.5 -57t-63.5 -38.5t-88 -14q-60 0 -104 16.5t-71 45.5l72 73q20 -19 44.5 -30t55.5 -11q32 0 52.5 17.5t20.5 49.5q0 28 -14 36.5t-30 8.5q-15 0 -30.5 -7t-26.5 -19l-80 32l50 242h272
l-16 -99h-175z" />
    <glyph glyph-name="sixsuperior" unicode="&#x2076;" horiz-adv-x="426" 
d="M417 687q-19 14 -40 21.5t-39 7.5q-38 0 -64.5 -26.5t-34.5 -81.5q21 8 43 14t49 6q22 0 43.5 -6t37.5 -19.5t26 -35.5t10 -55q0 -45 -16 -77t-42.5 -53t-61.5 -30.5t-73 -9.5q-44 0 -73.5 13.5t-47.5 36t-26 52t-8 62.5q0 49 13 102.5t42 97t74.5 72t111.5 28.5
q42 0 78.5 -13.5t59.5 -36.5zM232 540q-2 -14 -2.5 -22.5t-0.5 -21.5q0 -29 6.5 -46.5t32.5 -17.5q25 0 38.5 20.5t13.5 54.5q0 24 -9 34t-30 10q-15 0 -26.5 -3t-22.5 -8z" />
    <glyph glyph-name="sevensuperior" unicode="&#x2077;" horiz-adv-x="400" 
d="M123 350q15 67 40.5 123.5t53.5 100.5t55 75.5t46 47.5h-117q-7 0 -10 -8l-14 -46l-85 -7l25 160h353l-14 -89q-36 -32 -67 -73t-56 -87.5t-42.5 -96.5t-25.5 -100h-142z" />
    <glyph glyph-name="eightsuperior" unicode="&#x2078;" horiz-adv-x="395" 
d="M360 586q29 -19 47 -42.5t18 -55.5q0 -36 -16.5 -63.5t-44 -46t-65 -27.5t-79.5 -9q-76 0 -114.5 27.5t-38.5 76.5q0 25 8 44.5t21.5 35.5t30 28t34.5 21q-23 15 -36.5 37.5t-13.5 52.5q0 34 14.5 60.5t39.5 44.5t58.5 27.5t72.5 9.5q67 0 103.5 -26t36.5 -72
q0 -38 -21.5 -67t-54.5 -56zM221 535q-26 -21 -37 -39t-11 -34q0 -15 11.5 -28.5t43.5 -13.5q35 0 49.5 15.5t14.5 33.5q0 20 -19.5 35t-51.5 31zM291 625q23 23 33 40.5t10 29.5q0 15 -10.5 24.5t-33.5 9.5q-28 0 -40.5 -14t-12.5 -30q0 -17 14 -31t40 -29z" />
    <glyph glyph-name="ninesuperior" unicode="&#x2079;" horiz-adv-x="432" 
d="M136 467q16 -13 40 -24t50 -11q34 0 53 19.5t30 72.5q-16 -5 -36.5 -10.5t-41.5 -5.5q-57 0 -94 28.5t-37 91.5q0 42 15 75.5t42 56.5t63 35t78 12q43 0 73.5 -13t50 -36.5t28 -56.5t8.5 -73q0 -42 -10 -92t-36 -93t-71.5 -72t-116.5 -29q-45 0 -86 15t-63 38zM318 599
q3 11 5 25t2 34q-1 29 -9.5 44t-30.5 15q-14 0 -23.5 -7t-15.5 -18t-9 -25t-3 -28q0 -22 9 -37.5t34 -15.5q11 0 22 4.5t19 8.5z" />
    <glyph glyph-name="plussuperior" unicode="&#x207a;" horiz-adv-x="330" 
d="M157 437l12 91h-85l13 92h85l12 88h101l-12 -88h86l-13 -92h-86l-12 -91h-101z" />
    <glyph glyph-name="minussuperior" unicode="&#x207b;" horiz-adv-x="330" 
d="M84 528l13 92h272l-13 -92h-272z" />
    <glyph glyph-name="equalsuperior" unicode="&#x207c;" horiz-adv-x="331" 
d="M71 431l13 92h272l-13 -92h-272zM91 571l13 91h271l-12 -91h-272z" />
    <glyph glyph-name="parenleftsuperior" unicode="&#x207d;" horiz-adv-x="295" 
d="M183 228q-17 23 -31 52.5t-25 63t-17 70t-6 73.5q0 54 13.5 102t37.5 92.5t56 85t70 78.5l91 -57q-35 -39 -59 -77t-38.5 -76.5t-21 -78t-6.5 -82.5q0 -54 12 -100t34 -89z" />
    <glyph glyph-name="parenrightsuperior" unicode="&#x207e;" horiz-adv-x="287" 
d="M28 286q70 78 97.5 153t27.5 161q0 54 -12.5 99.5t-34.5 88.5l110 57q33 -47 56 -115.5t23 -142.5q0 -54 -13.5 -102.5t-37.5 -92.5t-56 -85t-69 -79z" />
    <glyph glyph-name="zeroinferior" unicode="&#x2080;" horiz-adv-x="438" 
d="M174 -154q-85 0 -123 41t-38 121q0 35 6 76q17 117 71.5 172t159.5 55q86 0 123 -42.5t37 -119.5q0 -32 -6 -72q-17 -120 -70.5 -175.5t-159.5 -55.5zM190 -62q15 0 26 6.5t19.5 23t15 43.5t12.5 68q4 27 6 48.5t2 35.5q0 29 -8 41.5t-28 12.5q-15 0 -26 -6.5
t-19.5 -22.5t-15.5 -42t-13 -66q-5 -28 -6.5 -49t-1.5 -38q0 -31 8.5 -43t28.5 -12z" />
    <glyph glyph-name="oneinferior" unicode="&#x2081;" horiz-adv-x="310" 
d="M-10 -146l9 63l52 4q8 1 10 3t4 10l40 277q1 5 0 8.5t-6 4.5l-55 13l11 64h199l-55 -367q-2 -8 -0.5 -10t9.5 -3l52 -5l-9 -62h-261z" />
    <glyph glyph-name="twoinferior" unicode="&#x2082;" horiz-adv-x="386" 
d="M-25 -146l11 76l153 147q46 45 66.5 71t20.5 49q0 10 -7 18.5t-26 8.5q-23 0 -33.5 -12.5t-15.5 -42.5l-124 11q6 42 24.5 67.5t45 40t58 19t64.5 4.5q74 0 110.5 -28.5t36.5 -79.5q0 -42 -23 -72t-56 -64l-137 -134h85q5 0 6.5 3t3.5 6l13 44h93l-20 -132h-349z" />
    <glyph glyph-name="threeinferior" unicode="&#x2083;" horiz-adv-x="397" 
d="M271 88q32 -7 52 -29.5t20 -59.5q0 -39 -15.5 -68t-42 -47.5t-62.5 -28t-77 -9.5q-56 0 -102 18t-71 48l74 71q16 -17 40 -30t59 -13q29 0 47.5 14.5t18.5 41.5q0 24 -13.5 35.5t-36.5 11.5q-14 0 -23.5 -1t-26.5 -4l12 82l32 3q35 4 56 18.5t21 48.5q0 14 -7.5 23
t-25.5 9q-23 0 -33 -10.5t-14 -42.5l-127 10q5 42 23.5 68t44.5 40.5t57 19t61 4.5q79 0 115 -27t36 -75q0 -26 -8.5 -46.5t-22 -35t-29.5 -23.5t-31 -13z" />
    <glyph glyph-name="fourinferior" unicode="&#x2084;" horiz-adv-x="439" 
d="M186 -146l12 86h-201l12 82l223 278h140l-40 -274h54l-13 -85h-54l-12 -87h-121zM232 176h-3l-118 -150h99z" />
    <glyph glyph-name="fiveinferior" unicode="&#x2085;" horiz-adv-x="392" 
d="M164 201l-22 -84q21 11 42 17t47 6q54 0 85 -29.5t31 -86.5q0 -36 -13 -68.5t-38.5 -57t-63.5 -38.5t-88 -14q-60 0 -104 16.5t-71 45.5l72 73q20 -19 44.5 -30t55.5 -11q32 0 52.5 17.5t20.5 49.5q0 28 -14 36.5t-30 8.5q-15 0 -30.5 -7t-26.5 -19l-80 32l50 242h272
l-16 -99h-175z" />
    <glyph glyph-name="sixinferior" unicode="&#x2086;" horiz-adv-x="426" 
d="M348 191q-19 14 -40 21.5t-39 7.5q-38 0 -64.5 -26.5t-34.5 -81.5q21 8 43 14t49 6q22 0 43.5 -6t37.5 -19.5t26 -35.5t10 -55q0 -45 -16 -77t-42.5 -53t-61.5 -30.5t-73 -9.5q-44 0 -73.5 13.5t-47.5 36t-26 52t-8 62.5q0 49 13 102.5t42 97t74.5 72t111.5 28.5
q42 0 78.5 -13.5t59.5 -36.5zM163 44q-2 -14 -2.5 -22.5t-0.5 -21.5q0 -29 6.5 -46.5t32.5 -17.5q25 0 38.5 20.5t13.5 54.5q0 24 -9 34t-30 10q-15 0 -26.5 -3t-22.5 -8z" />
    <glyph glyph-name="seveninferior" unicode="&#x2087;" horiz-adv-x="400" 
d="M54 -146q15 67 40.5 123.5t53.5 100.5t55 75.5t46 47.5h-117q-7 0 -10 -8l-14 -46l-85 -7l25 160h353l-14 -89q-36 -32 -67 -73t-56 -87.5t-42.5 -96.5t-25.5 -100h-142z" />
    <glyph glyph-name="eightinferior" unicode="&#x2088;" horiz-adv-x="395" 
d="M291 90q29 -19 47 -42.5t18 -55.5q0 -36 -16.5 -63.5t-44 -46t-65 -27.5t-79.5 -9q-76 0 -114.5 27.5t-38.5 76.5q0 25 8 44.5t21.5 35.5t30 28t34.5 21q-23 15 -36.5 37.5t-13.5 52.5q0 34 14.5 60.5t39.5 44.5t58.5 27.5t72.5 9.5q67 0 103.5 -26t36.5 -72
q0 -38 -21.5 -67t-54.5 -56zM152 39q-26 -21 -37 -39t-11 -34q0 -15 11.5 -28.5t43.5 -13.5q35 0 49.5 15.5t14.5 33.5q0 20 -19.5 35t-51.5 31zM222 129q23 23 33 40.5t10 29.5q0 15 -10.5 24.5t-33.5 9.5q-28 0 -40.5 -14t-12.5 -30q0 -17 14 -31t40 -29z" />
    <glyph glyph-name="nineinferior" unicode="&#x2089;" horiz-adv-x="432" 
d="M67 -29q16 -13 40 -24t50 -11q34 0 53 19.5t30 72.5q-16 -5 -36.5 -10.5t-41.5 -5.5q-57 0 -94 28.5t-37 91.5q0 42 15 75.5t42 56.5t63 35t78 12q43 0 73.5 -13t50 -36.5t28 -56.5t8.5 -73q0 -42 -10 -92t-36 -93t-71.5 -72t-116.5 -29q-45 0 -86 15t-63 38zM249 103
q3 11 5 25t2 34q-1 29 -9.5 44t-30.5 15q-14 0 -23.5 -7t-15.5 -18t-9 -25t-3 -28q0 -22 9 -37.5t34 -15.5q11 0 22 4.5t19 8.5z" />
    <glyph glyph-name="parenleftinferior" unicode="&#x208d;" horiz-adv-x="295" 
d="M114 -268q-17 23 -31 52.5t-25 63t-17 70t-6 73.5q0 54 13.5 102t37.5 92.5t56 85t70 78.5l91 -57q-35 -39 -59 -77t-38.5 -76.5t-21 -78t-6.5 -82.5q0 -54 12 -100t34 -89z" />
    <glyph glyph-name="parenrightinferior" unicode="&#x208e;" horiz-adv-x="287" 
d="M-41 -210q70 78 97.5 153t27.5 161q0 54 -12.5 99.5t-34.5 88.5l110 57q33 -47 56 -115.5t23 -142.5q0 -54 -13.5 -102.5t-37.5 -92.5t-56 -85t-69 -79z" />
    <glyph glyph-name="Euro" unicode="&#x20ac;" horiz-adv-x="558" 
d="M253 265v-13q0 -79 23 -116.5t72 -37.5q29 0 49 7q10 4 13 16l25 79l102 5l-24 -174q-12 -8 -34 -15.5t-48.5 -13.5t-56.5 -10t-58 -4q-112 0 -166.5 67.5t-54.5 195.5v14h-69l37 117h44q15 72 46.5 123.5t72.5 85t90.5 49t100.5 15.5q28 0 55 -4t50.5 -10t42 -13.5
t29.5 -15.5l-24 -170l-101 5l-4 78q0 6 -1.5 10t-7.5 6q-9 3 -20.5 5t-30.5 2q-21 0 -42.5 -9t-40.5 -28.5t-34 -51t-24 -77.5h158l-35 -117h-134z" />
    <glyph glyph-name="afii61352" unicode="&#x2116;" horiz-adv-x="1120" 
d="M451 0l-178 434l-46 -328q-2 -12 0 -15t13 -5l66 -8l-11 -78h-277l10 78l64 7q11 2 14 5.5t5 14.5l59 426q2 11 0 15t-13 5l-62 7l11 78h248l173 -435l46 328q2 11 0 15t-13 5l-62 7l11 80h278l-11 -80l-68 -8q-11 -2 -14 -5t-5 -14l-74 -529h-164zM721 184h329l-14 -96
h-329zM881 213q-82 0 -117.5 41t-35.5 106q0 46 14 85t41 66.5t68 43t95 15.5q39 0 67.5 -11.5t47 -31t27 -46.5t8.5 -58q0 -47 -13 -85.5t-39.5 -66t-67 -43t-95.5 -15.5zM896 290q36 0 58 31t22 103q0 68 -48 68q-17 0 -31.5 -6.5t-25.5 -22t-17.5 -40.5t-6.5 -62
q0 -38 13 -54.5t36 -16.5z" />
    <glyph glyph-name="trademark" unicode="&#x2122;" horiz-adv-x="847" 
d="M177 348v46l53 5v270h-70l-7 -51h-45v106h322v-106h-46l-6 51h-71v-270l57 -5v-46h-187zM744 348v45l41 5v189l-80 -158h-60l-78 159v-190l44 -5v-45h-150v45l36 5v273l-36 4v49h110l106 -218l109 218h106v-49l-38 -4v-273l40 -5v-45h-150z" />
    <glyph glyph-name="Omega" unicode="&#x2126;" horiz-adv-x="812" 
d="M443 0l29 213q28 9 57 26t52 45t38 69t15 98q0 78 -43 120.5t-122 42.5q-55 0 -96 -20.5t-68.5 -54.5t-41 -77t-13.5 -89q0 -63 28 -102t83 -58l-29 -213h-319l23 174h88l5 -56q1 -8 4 -9.5t11 -1.5h93l5 35q-75 26 -115.5 84t-40.5 142q0 83 30 151t83 116.5t125.5 75
t157.5 26.5q81 0 141 -20.5t99.5 -56.5t59 -85.5t19.5 -108.5q0 -62 -18 -114.5t-48.5 -94t-72.5 -70.5t-90 -45l-5 -35h92q8 0 10.5 1.5t5.5 9.5l21 56h88l-24 -174h-317z" />
    <glyph glyph-name="onethird" unicode="&#x2153;" horiz-adv-x="980" 
d="M80 282l9 63l52 4q8 1 10 3t4 10l40 277q1 5 0 8.5t-6 4.5l-55 13l11 64h199l-55 -367q-2 -8 -0.5 -10t9.5 -3l52 -5l-9 -62h-261zM187 -17l462 741h138l-461 -741h-139zM853 235q32 -7 52 -29.5t20 -59.5q0 -39 -15.5 -68t-42 -47.5t-62.5 -28t-77 -9.5q-56 0 -102 18
t-71 48l74 71q16 -17 40 -30t59 -13q29 0 47.5 14.5t18.5 41.5q0 24 -13.5 35.5t-36.5 11.5q-14 0 -23.5 -1t-26.5 -4l12 82l32 3q35 4 56 18.5t21 48.5q0 14 -7.5 23t-25.5 9q-23 0 -33 -10.5t-14 -42.5l-127 10q5 42 23.5 68t44.5 40.5t57 19t61 4.5q79 0 115 -27t36 -75
q0 -26 -8.5 -46.5t-22 -35t-29.5 -23.5t-31 -13z" />
    <glyph glyph-name="twothirds" unicode="&#x2154;" horiz-adv-x="980" 
d="M40 282l11 76l153 147q46 45 66.5 71t20.5 49q0 10 -7 18.5t-26 8.5q-23 0 -33.5 -12.5t-15.5 -42.5l-124 11q6 42 24.5 67.5t45 40t58 19t64.5 4.5q74 0 110.5 -28.5t36.5 -79.5q0 -42 -23 -72t-56 -64l-137 -134h85q5 0 6.5 3t3.5 6l13 44h93l-20 -132h-349zM227 -17
l462 741h138l-461 -741h-139zM879 235q32 -7 52 -29.5t20 -59.5q0 -39 -15.5 -68t-42 -47.5t-62.5 -28t-77 -9.5q-56 0 -102 18t-71 48l74 71q16 -17 40 -30t59 -13q29 0 47.5 14.5t18.5 41.5q0 24 -13.5 35.5t-36.5 11.5q-14 0 -23.5 -1t-26.5 -4l12 82l32 3q35 4 56 18.5
t21 48.5q0 14 -7.5 23t-25.5 9q-23 0 -33 -10.5t-14 -42.5l-127 10q5 42 23.5 68t44.5 40.5t57 19t61 4.5q79 0 115 -27t36 -75q0 -26 -8.5 -46.5t-22 -35t-29.5 -23.5t-31 -13z" />
    <glyph glyph-name="oneeighth" unicode="&#x215b;" horiz-adv-x="980" 
d="M78 282l9 63l52 4q8 1 10 3t4 10l40 277q1 5 0 8.5t-6 4.5l-55 13l11 64h199l-55 -367q-2 -8 -0.5 -10t9.5 -3l52 -5l-9 -62h-261zM191 -17l462 741h138l-461 -741h-139zM859 237q29 -19 47 -42.5t18 -55.5q0 -36 -16.5 -63.5t-44 -46t-65 -27.5t-79.5 -9
q-76 0 -114.5 27.5t-38.5 76.5q0 25 8 44.5t21.5 35.5t30 28t34.5 21q-23 15 -36.5 37.5t-13.5 52.5q0 34 14.5 60.5t39.5 44.5t58.5 27.5t72.5 9.5q67 0 103.5 -26t36.5 -72q0 -38 -21.5 -67t-54.5 -56zM720 186q-26 -21 -37 -39t-11 -34q0 -15 11.5 -28.5t43.5 -13.5
q35 0 49.5 15.5t14.5 33.5q0 20 -19.5 35t-51.5 31zM790 276q23 23 33 40.5t10 29.5q0 15 -10.5 24.5t-33.5 9.5q-28 0 -40.5 -14t-12.5 -30q0 -17 14 -31t40 -29z" />
    <glyph glyph-name="threeeighths" unicode="&#x215c;" horiz-adv-x="980" 
d="M340 516q32 -7 52 -29.5t20 -59.5q0 -39 -15.5 -68t-42 -47.5t-62.5 -28t-77 -9.5q-56 0 -102 18t-71 48l74 71q16 -17 40 -30t59 -13q29 0 47.5 14.5t18.5 41.5q0 24 -13.5 35.5t-36.5 11.5q-14 0 -23.5 -1t-26.5 -4l12 82l32 3q35 4 56 18.5t21 48.5q0 14 -7.5 23
t-25.5 9q-23 0 -33 -10.5t-14 -42.5l-127 10q5 42 23.5 68t44.5 40.5t57 19t61 4.5q79 0 115 -27t36 -75q0 -26 -8.5 -46.5t-22 -35t-29.5 -23.5t-31 -13zM213 -17l462 741h138l-461 -741h-139zM877 237q29 -19 47 -42.5t18 -55.5q0 -36 -16.5 -63.5t-44 -46t-65 -27.5
t-79.5 -9q-76 0 -114.5 27.5t-38.5 76.5q0 25 8 44.5t21.5 35.5t30 28t34.5 21q-23 15 -36.5 37.5t-13.5 52.5q0 34 14.5 60.5t39.5 44.5t58.5 27.5t72.5 9.5q67 0 103.5 -26t36.5 -72q0 -38 -21.5 -67t-54.5 -56zM738 186q-26 -21 -37 -39t-11 -34q0 -15 11.5 -28.5
t43.5 -13.5q35 0 49.5 15.5t14.5 33.5q0 20 -19.5 35t-51.5 31zM808 276q23 23 33 40.5t10 29.5q0 15 -10.5 24.5t-33.5 9.5q-28 0 -40.5 -14t-12.5 -30q0 -17 14 -31t40 -29z" />
    <glyph glyph-name="fiveeighths" unicode="&#x215d;" horiz-adv-x="980" 
d="M233 629l-22 -84q21 11 42 17t47 6q54 0 85 -29.5t31 -86.5q0 -36 -13 -68.5t-38.5 -57t-63.5 -38.5t-88 -14q-60 0 -104 16.5t-71 45.5l72 73q20 -19 44.5 -30t55.5 -11q32 0 52.5 17.5t20.5 49.5q0 28 -14 36.5t-30 8.5q-15 0 -30.5 -7t-26.5 -19l-80 32l50 242h272
l-16 -99h-175zM206 -17l462 741h138l-461 -741h-139zM865 237q29 -19 47 -42.5t18 -55.5q0 -36 -16.5 -63.5t-44 -46t-65 -27.5t-79.5 -9q-76 0 -114.5 27.5t-38.5 76.5q0 25 8 44.5t21.5 35.5t30 28t34.5 21q-23 15 -36.5 37.5t-13.5 52.5q0 34 14.5 60.5t39.5 44.5
t58.5 27.5t72.5 9.5q67 0 103.5 -26t36.5 -72q0 -38 -21.5 -67t-54.5 -56zM726 186q-26 -21 -37 -39t-11 -34q0 -15 11.5 -28.5t43.5 -13.5q35 0 49.5 15.5t14.5 33.5q0 20 -19.5 35t-51.5 31zM796 276q23 23 33 40.5t10 29.5q0 15 -10.5 24.5t-33.5 9.5q-28 0 -40.5 -14
t-12.5 -30q0 -17 14 -31t40 -29z" />
    <glyph glyph-name="seveneighths" unicode="&#x215e;" horiz-adv-x="980" 
d="M139 282q15 67 40.5 123.5t53.5 100.5t55 75.5t46 47.5h-117q-7 0 -10 -8l-14 -46l-85 -7l25 160h353l-14 -89q-36 -32 -67 -73t-56 -87.5t-42.5 -96.5t-25.5 -100h-142zM181 -17l462 741h138l-461 -741h-139zM870 237q29 -19 47 -42.5t18 -55.5q0 -36 -16.5 -63.5
t-44 -46t-65 -27.5t-79.5 -9q-76 0 -114.5 27.5t-38.5 76.5q0 25 8 44.5t21.5 35.5t30 28t34.5 21q-23 15 -36.5 37.5t-13.5 52.5q0 34 14.5 60.5t39.5 44.5t58.5 27.5t72.5 9.5q67 0 103.5 -26t36.5 -72q0 -38 -21.5 -67t-54.5 -56zM731 186q-26 -21 -37 -39t-11 -34
q0 -15 11.5 -28.5t43.5 -13.5q35 0 49.5 15.5t14.5 33.5q0 20 -19.5 35t-51.5 31zM801 276q23 23 33 40.5t10 29.5q0 15 -10.5 24.5t-33.5 9.5q-28 0 -40.5 -14t-12.5 -30q0 -17 14 -31t40 -29z" />
    <glyph glyph-name="partialdiff" unicode="&#x2202;" horiz-adv-x="591" 
d="M422 368q4 23 6 44.5t2 38.5q0 52 -21 82.5t-70 30.5q-39 0 -79.5 -16.5t-69.5 -36.5l-48 91q46 31 108.5 52t128.5 21q54 0 91.5 -19.5t61.5 -53.5t34.5 -78.5t10.5 -94.5q0 -40 -5.5 -88.5t-19 -97.5t-37 -95t-60 -81.5t-87.5 -57t-119 -21.5q-95 0 -147.5 45
t-52.5 130q0 57 18 103t50 79t75.5 50.5t95.5 17.5q48 0 80.5 -15t53.5 -30zM403 277q-18 12 -41.5 23.5t-52.5 11.5q-27 0 -46.5 -12t-32.5 -31.5t-19.5 -43.5t-6.5 -49q0 -30 14 -54t51 -24q30 0 52.5 15.5t38.5 41t26.5 57.5t16.5 65z" />
    <glyph glyph-name="Delta" unicode="&#x2206;" horiz-adv-x="715" 
d="M43 0l2 91l316 633h173l141 -632l-14 -92h-618zM415 571h-7l-219 -463h318z" />
    <glyph glyph-name="product" unicode="&#x220f;" horiz-adv-x="800" 
d="M414 -176l10 74l64 7q11 2 14 5.5t5 14.5l97 690h-274l-97 -689q-2 -12 0 -15t13 -5l66 -8l-10 -74h-317l10 74l64 7q11 2 14 5.5t5 14.5l99 696q2 11 -0.5 15t-13.5 5l-62 7l11 76h745l-11 -76l-68 -8q-11 -2 -13.5 -5t-4.5 -14l-99 -695q-2 -12 0 -15t13 -5l66 -8
l-10 -74h-316z" />
    <glyph glyph-name="summation" unicode="&#x2211;" horiz-adv-x="627" 
d="M-40 -176l12 90l277 356l-163 375l11 79h549l-29 -202l-109 5l-3 76q-1 13 -16 13h-222l136 -330l-259 -334h274q8 0 11.5 1.5t6.5 9.5l28 88h109l-31 -227h-582z" />
    <glyph glyph-name="minus" unicode="&#x2212;" 
d="M106 265l16 116h387l-16 -116h-387z" />
    <glyph glyph-name="uni2215" unicode="&#x2215;" horiz-adv-x="454" 
d="M5 -17l404 648h130l-403 -648h-131z" />
    <glyph glyph-name="uni2219" unicode="&#x2219;" horiz-adv-x="238" 
d="M246 334q0 -42 -24.5 -65t-72.5 -23q-76 0 -76 67q0 43 24.5 66t73.5 23q39 0 57 -17t18 -51z" />
    <glyph glyph-name="radical" unicode="&#x221a;" horiz-adv-x="589" 
d="M251 0l-90 208q-4 10 -16 7l-64 -14l-27 86l177 80l89 -227l246 606l118 -30l-293 -716h-140z" />
    <glyph glyph-name="infinity" unicode="&#x221e;" horiz-adv-x="653" 
d="M210 466q55 0 90 -22t61 -54q28 29 65.5 52.5t85.5 23.5q26 0 49.5 -8.5t41 -25t28 -41.5t10.5 -58q0 -32 -10 -60.5t-29.5 -50.5t-47.5 -35t-64 -13q-54 0 -90.5 25t-62.5 56q-27 -30 -63.5 -55.5t-82.5 -25.5q-28 0 -52.5 7.5t-42.5 24t-28.5 42.5t-10.5 62
q0 31 10.5 59t30 49.5t48 34.5t64.5 13zM195 248q28 0 51.5 18.5t45.5 44.5q-23 32 -46.5 51t-52.5 19q-27 0 -43 -18t-16 -47q0 -12 2.5 -24.5t9.5 -22t19 -15.5t30 -6zM506 397q-29 0 -52.5 -17t-47.5 -44q22 -26 47.5 -47t54.5 -21q26 0 42 16.5t16 48.5q0 25 -14 44.5
t-46 19.5z" />
    <glyph glyph-name="integral" unicode="&#x222b;" horiz-adv-x="454" 
d="M111 -69q18 -9 35 -12.5t31 -3.5q20 0 32 13t8 56l-51 587q-4 44 7.5 74t32.5 48t48 26t56 8q32 0 62 -6t62 -17l-26 -98q-19 9 -34.5 12.5t-29.5 3.5q-21 0 -33.5 -12.5t-9.5 -45.5l52 -598q4 -45 -7 -75t-31.5 -47.5t-47 -25t-53.5 -7.5q-37 0 -70 7t-59 18z" />
    <glyph glyph-name="approxequal" unicode="&#x2248;" horiz-adv-x="530" 
d="M525 496q-8 -25 -18 -47.5t-23.5 -40t-32.5 -28t-44 -10.5q-27 0 -56 6t-57 12.5t-54.5 12.5t-48.5 6q-19 0 -31.5 -9t-29.5 -32l-67 32q29 53 58.5 84t75.5 31q28 0 56 -6t54.5 -13t52 -13t49.5 -6q17 0 25.5 11t18.5 31zM513 303q-8 -25 -18 -47.5t-23.5 -40t-32 -28
t-43.5 -10.5q-27 0 -56 6t-57.5 12.5t-55 12.5t-48.5 6q-20 0 -31.5 -9t-28.5 -32l-68 32q29 52 58.5 83.5t75.5 31.5q28 0 56 -6t54.5 -13t52 -13t49.5 -6q17 0 25.5 10.5t19.5 31.5z" />
    <glyph glyph-name="notequal" unicode="&#x2260;" 
d="M276 130l-45 -88h-106q2 4 4.5 7.5t4.5 8.5l37 72h-82l17 117h126l35 69h-152l17 117h196l46 90h106l-46 -90h84l-17 -117h-129l-35 -69h155l-17 -117h-199z" />
    <glyph glyph-name="lessequal" unicode="&#x2264;" 
d="M119 263l19 140l405 142l-10 -117l-281 -91l257 -94l-23 -117zM82 0l16 116h387l-16 -116h-387z" />
    <glyph glyph-name="greaterequal" unicode="&#x2265;" 
d="M88 126l12 118l283 94l-256 88l23 119l365 -142l-20 -140zM71 0l16 116h387l-16 -116h-387z" />
    <glyph glyph-name="triangle" unicode="&#x25b3;" horiz-adv-x="425" 
d="M167 203v231l185 -114z" />
    <glyph glyph-name="lozenge" unicode="&#x25ca;" horiz-adv-x="558" 
d="M201 -17l-110 324l201 324h110l109 -324l-200 -324h-110zM398 307l-69 199l-124 -199l67 -206z" />
    <glyph glyph-name="circle" unicode="&#x25cb;" horiz-adv-x="610" 
d="M335 119q-42 0 -79.5 16t-65.5 44t-44 65.5t-16 79.5t16 79.5t44 65.5t65.5 44t79.5 16t79.5 -16t65.5 -44t44 -65.5t16 -79.5t-16 -79.5t-44 -65.5t-65.5 -44t-79.5 -16z" />
    <glyph glyph-name="kgreenlandic.sc" unicode="&#xf62a;" horiz-adv-x="625" 
d="M403 0l-5 4l-31 76l-64 134l-68 -72l-6 -51q-2 -9 -0.5 -11.5t9.5 -3.5l51 -7l-9 -69h-274l10 69l50 6q9 1 11.5 3.5t4.5 11.5l54 380q3 15 -11 16l-48 5l7 69h277l-9 -69l-54 -6q-10 -1 -11.5 -3.5t-3.5 -11.5l-27 -180l199 194l-49 7l11 69h221l-9 -70l-31 -4
q-11 -2 -15 -4.5t-11 -8.5l-155 -154l113 -227q4 -8 9 -10.5t14 -4.5l48 -8l-9 -69h-189z" />
    <glyph glyph-name="commainferior" unicode="&#xf6e1;" horiz-adv-x="156" 
d="M-11 -210l28 72q2 8 -3 9l-30 8l27 85q21 0 39.5 -1.5t32.5 -6.5t22.5 -15t8.5 -27q0 -16 -7.5 -33t-15.5 -30l-48 -76z" />
    <glyph glyph-name="commasuperior" unicode="&#xf6e2;" horiz-adv-x="156" 
d="M58 286l28 72q2 8 -3 9l-30 8l27 85q21 0 39.5 -1.5t32.5 -6.5t22.5 -15t8.5 -27q0 -16 -7.5 -33t-15.5 -30l-48 -76z" />
    <glyph glyph-name="hypheninferior" unicode="&#xf6e5;" horiz-adv-x="226" 
d="M0 -7l14 100h187l-14 -100h-187z" />
    <glyph glyph-name="hyphensuperior" unicode="&#xf6e6;" horiz-adv-x="226" 
d="M69 489l14 100h187l-14 -100h-187z" />
    <glyph glyph-name="periodinferior" unicode="&#xf6e7;" horiz-adv-x="177" 
d="M131 -85q0 -32 -19 -50.5t-59 -18.5q-62 0 -62 47q0 35 19 53.5t60 18.5q61 0 61 -50z" />
    <glyph glyph-name="periodsuperior" unicode="&#xf6e8;" horiz-adv-x="177" 
d="M200 411q0 -32 -19 -50.5t-59 -18.5q-62 0 -62 47q0 35 19 53.5t60 18.5q61 0 61 -50z" />
    <glyph glyph-name="s_t" unicode="&#xfb06;" horiz-adv-x="866" 
d="M353 363l-2 55q0 6 -2 10t-10 6q-20 5 -56 5q-35 0 -55 -12.5t-20 -41.5q0 -22 23 -33.5t56 -22.5q27 -9 55.5 -20t52.5 -28.5t39.5 -43.5t15.5 -66q0 -49 -19 -83.5t-51.5 -56.5t-75.5 -32.5t-91 -10.5q-35 0 -67 4t-57.5 9t-43 11t-23.5 11l19 138l102 -6l3 -58
q0 -12 11 -16t28.5 -6.5t42.5 -2.5q42 0 64 16t22 42q0 15 -7.5 25.5t-20.5 18.5t-30 14t-36 12q-26 8 -52.5 18.5t-48.5 28t-35.5 43.5t-13.5 65q0 46 18.5 79.5t50 55t73.5 31.5t88 10q18 0 35 -1.5t31 -3.5q3 46 12 81.5t27 59.5t47.5 36.5t75.5 12.5q55 0 115 -8.5
t111 -21.5l-23 -155q-1 -5 0 -7.5t8 -2.5h137l-13 -100h-147l-33 -239q-3 -20 -3 -32q0 -26 13 -38t45 -12q21 0 41.5 4.5t38.5 11.5l18 -89q-33 -16 -78.5 -27.5t-87.5 -11.5q-73 0 -107.5 31.5t-34.5 96.5q0 11 1 22t3 24l65 451q-14 3 -28.5 5.5t-31.5 2.5
q-22 0 -33.5 -11.5t-16.5 -37.5q-11 -48 -17 -104.5t-13 -110.5z" />
    <glyph glyph-name="hyphen.case" horiz-adv-x="311" 
d="M38 287l18 127h271l-18 -127h-271z" />
    <glyph glyph-name="zero.lf" horiz-adv-x="585" 
d="M267 -12q-60 0 -101.5 16t-67.5 47t-37.5 75t-11.5 100q0 14 1 34.5t3 42.5t4.5 43.5t4.5 38.5q11 83 34 148.5t61 110.5t92.5 69t129.5 24q60 0 100.5 -18t66 -50.5t36.5 -77.5t11 -98q0 -14 -1 -32.5t-2.5 -38t-4 -39t-4.5 -35.5q-12 -87 -34.5 -154t-59.5 -113
t-91 -69.5t-129 -23.5zM284 96q61 0 89.5 64.5t45.5 190.5q3 20 5.5 42t5 42.5t3.5 38.5t1 31q0 54 -15.5 87t-57.5 33q-30 0 -52.5 -13.5t-38.5 -42.5t-27 -74t-20 -108q-3 -20 -5.5 -44.5l-5 -49t-4 -46t-1.5 -34.5q0 -57 17 -87t60 -30z" />
    <glyph glyph-name="one.lf" horiz-adv-x="414" 
d="M15 0l10 76l84 6q11 1 14 5t5 15l70 504q1 17 -11 21l-84 19l13 78h250l-87 -622q-2 -12 0 -15t13 -5l82 -7l-10 -75h-349z" />
    <glyph glyph-name="two.lf" horiz-adv-x="526" 
d="M3 0l13 92l236 268q32 36 57 65.5t42 54.5t25.5 47t8.5 44q0 26 -14.5 42t-52.5 16q-41 0 -62 -18t-28 -72l-140 13q8 60 32 96t58 56t75 26.5t83 6.5q108 0 156 -41t48 -113q0 -36 -10.5 -67t-28.5 -60t-41.5 -57t-48.5 -57l-215 -245h163q8 0 10 3.5t4 8.5l25 79h106
l-26 -188h-475z" />
    <glyph glyph-name="three.lf" horiz-adv-x="540" 
d="M394 386q52 -17 78.5 -57.5t26.5 -98.5q0 -57 -20 -102t-55.5 -76t-85 -47.5t-108.5 -16.5q-75 0 -137.5 26t-97.5 69l91 87q25 -29 60 -48.5t87 -19.5q24 0 45 7.5t36.5 23.5t25 39t9.5 55q0 45 -27.5 72t-77.5 27q-15 0 -30 -1t-38 -5l13 107l63 8q63 8 95.5 41
t32.5 84q0 33 -15 51t-52 18q-41 0 -62 -18t-28 -72l-142 12q7 60 31.5 96.5t59 56.5t75.5 26.5t81 6.5q106 0 153.5 -44t47.5 -114q0 -75 -38 -119.5t-96 -69.5z" />
    <glyph glyph-name="four.lf" horiz-adv-x="581" 
d="M177 0l10 76l113 6q11 1 14 5t5 15l11 69h-294l12 90l338 463h161l-64 -448h82l-14 -106h-82l-12 -72q-2 -9 0.5 -12t13.5 -4l73 -7l-10 -75h-357zM386 565h-5l-200 -289h163z" />
    <glyph glyph-name="five.lf" horiz-adv-x="546" 
d="M260 595l-45 -177q22 14 51.5 25.5t77.5 11.5q78 0 124.5 -47t46.5 -143q0 -63 -18 -114t-53 -87t-87 -56t-119 -20q-83 0 -145 26t-98 68l91 88q24 -26 60 -47t89 -21q26 0 49 9t40.5 26.5t27.5 44.5t10 63q0 29 -8 48t-20 30t-26.5 15.5t-27.5 4.5q-31 0 -56 -12.5
t-45 -32.5l-93 42l79 384h377l-18 -129h-264z" />
    <glyph glyph-name="six.lf" horiz-adv-x="567" 
d="M520 578q-29 26 -56.5 36t-53.5 10q-36 0 -66 -18t-53.5 -48t-40 -70t-24.5 -84q27 14 65.5 27t86.5 13q35 0 65 -11t52 -34t34.5 -57.5t12.5 -82.5q0 -66 -20.5 -117t-56 -85t-84 -51.5t-104.5 -17.5q-60 0 -100 21.5t-65 58t-35.5 86t-10.5 105.5q0 54 8.5 110.5
t26 109.5t45 100t66 82t87.5 55.5t111 20.5q54 0 101.5 -19t84.5 -55zM218 307q-2 -15 -2.5 -39t-0.5 -42q0 -25 3 -48t11.5 -41t24 -28.5t40.5 -10.5q28 0 46.5 14t29.5 35.5t15 47t4 49.5q0 43 -16.5 68t-51.5 25q-27 0 -55 -9.5t-48 -20.5z" />
    <glyph glyph-name="seven.lf" horiz-adv-x="522" 
d="M116 0q21 103 59.5 198.5t81 174.5t84.5 136.5t71 85.5h-187q-7 0 -9 -3.5t-4 -8.5l-25 -75l-106 -8l33 224h488l-17 -115q-51 -47 -100.5 -119.5t-91.5 -156t-72.5 -170.5t-43.5 -163h-161z" />
    <glyph glyph-name="eight.lf" horiz-adv-x="531" 
d="M432 378q35 -27 59.5 -67.5t24.5 -92.5q0 -53 -22 -95.5t-60.5 -72.5t-89 -46t-107.5 -16q-100 0 -152.5 46t-52.5 121q0 37 11.5 69t30.5 60t44.5 52.5t53.5 47.5q-12 9 -24 23.5t-22 32.5t-16.5 39.5t-6.5 45.5q0 49 19.5 88.5t53.5 67t80 42t98 14.5q90 0 139.5 -43
t49.5 -109q0 -57 -30.5 -106.5t-80.5 -100.5zM254 321q-47 -44 -69.5 -77.5t-22.5 -70.5q0 -35 21.5 -60t68.5 -25q26 0 46.5 9.5t34 24.5t20.5 34t7 37q0 21 -9.5 39t-25 34t-34.5 29.5t-37 25.5zM337 435q43 44 60.5 74t17.5 59q0 30 -19.5 49.5t-54.5 19.5
q-42 0 -66 -25.5t-24 -60.5t25.5 -64.5t60.5 -51.5z" />
    <glyph glyph-name="nine.lf" horiz-adv-x="571" 
d="M110 154q24 -22 57.5 -38t71.5 -16q35 0 62 20.5t46 51.5t31.5 68t18.5 71q-23 -14 -58.5 -27.5t-81.5 -13.5q-39 0 -71 14t-54.5 40t-35 62.5t-12.5 80.5q0 63 19.5 113t55 85t85 53.5t110.5 18.5q60 0 101 -21.5t66 -58.5t36 -87t11 -107q0 -42 -5.5 -94t-19.5 -104.5
t-37.5 -102.5t-60 -88.5t-87.5 -62t-119 -23.5q-28 0 -57.5 5t-57 15t-51 23.5t-39.5 31.5zM410 418q2 20 3.5 37.5t0.5 40.5q0 25 -4 49t-12.5 42.5t-22.5 29.5t-36 11q-50 0 -75 -41t-25 -106q0 -21 3 -38.5t10.5 -31t21 -21t33.5 -7.5q28 0 55.5 10.5t47.5 24.5z" />
    <glyph glyph-name="dollar.lf" horiz-adv-x="526" 
d="M420 492l-2 81q0 8 -2 13t-10 7q-10 3 -22 4t-32 1q-24 0 -45.5 -5.5t-38 -16.5t-26.5 -27t-10 -38q0 -20 8 -34t22 -24.5t33 -18.5t42 -16q28 -11 58 -24t54.5 -34t40 -52t15.5 -78q0 -50 -16 -89t-43.5 -66.5t-65.5 -45t-82 -25.5l-10 -84h-124l10 80q-53 4 -97.5 14.5
t-64.5 21.5l25 185h101l6 -89q1 -9 4 -13.5t13 -7.5q25 -7 71 -7q60 0 93 24t33 74q0 21 -8 35.5t-22 25t-32.5 18.5t-39.5 16q-30 10 -60.5 22.5t-55 32.5t-40.5 50.5t-16 78.5q0 47 15 84t42 64t63.5 44.5t78.5 25.5l13 81h125l-12 -76q44 -5 78.5 -15.5t57.5 -20.5
l-25 -185z" />
    <glyph glyph-name="Euro.lf" horiz-adv-x="578" 
d="M265 300v-30q0 -83 24 -127.5t74 -44.5q24 0 46 5q12 3 17 19l26 78l104 5l-26 -180q-12 -6 -33 -13t-47 -12t-55 -8.5t-57 -3.5q-62 0 -106 22t-72.5 60.5t-41.5 91t-13 114.5v24h-75l36 117h51q14 81 44.5 141t72.5 99.5t93.5 59.5t107.5 20q43 0 93.5 -9t93.5 -34
l-24 -170l-102 5l-4 76q0 16 -14 20q-20 5 -43 5q-55 0 -99.5 -55t-59.5 -158h156l-36 -117h-131z" />
    <glyph glyph-name="cent.lf" horiz-adv-x="551" 
d="M496 141q-29 -16 -64 -25.5t-73 -13.5l-13 -102h-124l14 106q-69 14 -109 60.5t-40 138.5q0 124 57 199.5t160 94.5l16 105h125l-16 -103q38 -5 70 -14.5t55 -22.5l-22 -150l-100 5l-2 63q0 10 -9 13q-10 3 -23.5 5t-27.5 2q-57 0 -90.5 -46.5t-33.5 -144.5
q0 -57 20.5 -82.5t63.5 -25.5q15 0 27.5 2t22.5 4t13 13l21 65l102 4z" />
    <glyph glyph-name="sterling.lf" horiz-adv-x="562" 
d="M34 0l-4 90q24 13 40.5 28t28 36t19.5 49.5t14 69.5l7 48h-72l15 110h69l12 89q6 46 21.5 85.5t44.5 69t73.5 46t109.5 16.5q63 0 110 -18t78 -48l-73 -85q-23 20 -53 30.5t-60 10.5q-51 0 -73.5 -26.5t-29.5 -76.5l-13 -93h151l-15 -110h-148l-4 -32q-7 -57 -30 -108
t-61 -84h204q8 0 12 2t6 10l25 79h105l-26 -188h-483z" />
    <glyph glyph-name="yen.lf" horiz-adv-x="634" 
d="M410 282l-24 -179q-2 -11 0 -15t13 -5l105 -8l-10 -75h-393l11 75l98 7q12 1 15.5 4t5.5 17l24 179h-122l16 117h98l-110 224q-7 13 -21 17l-44 11l11 73h291l-10 -73l-63 -9l68 -175h6l123 175l-59 9l13 73h246l-10 -73l-44 -11q-11 -3 -16.5 -7.5t-13.5 -14.5
l-163 -219h105l-16 -117h-130z" />
    <glyph glyph-name="florin.lf" horiz-adv-x="589" 
d="M340 353l-81 -275q-17 -57 -38 -93.5t-48.5 -57.5t-63 -29t-81.5 -8q-51 0 -95 15t-67 35l53 92q20 -15 49 -26.5t56 -11.5q16 0 28.5 3t23 12.5t19 26.5t17.5 45l80 262q2 10 -6 10h-91l29 95h100l34 111q15 50 36 84t49.5 55t65.5 30t84 9q50 0 94 -13.5t72 -29.5
l-45 -146l-92 9l7 62q1 10 -8 14q-6 2 -14.5 3.5t-22.5 1.5q-32 0 -49.5 -17.5t-30.5 -60.5l-31 -102q-3 -10 6 -10h125l-29 -95h-135z" />
    <glyph glyph-name="afii61352.lf" horiz-adv-x="1111" 
d="M451 0l-164 522l-60 -416q-2 -12 0 -15t13 -5l66 -8l-11 -78h-277l10 78l64 7q11 2 14 5.5t5 14.5l73 514q2 11 0 15t-13 5l-62 7l11 78h248l159 -523l60 416q2 11 0 15t-13 5l-62 7l11 80h278l-11 -80l-68 -8q-11 -2 -14 -5t-5 -14l-88 -617h-164zM721 257h329l-14 -96
h-329zM881 286q-82 0 -117.5 41t-35.5 106q0 46 14 85t41 66.5t68 43t95 15.5q39 0 67.5 -11.5t47 -31t27 -46.5t8.5 -58q0 -47 -13 -85.5t-39.5 -66t-67 -43t-95.5 -15.5zM896 363q36 0 58 31t22 103q0 68 -48 68q-17 0 -31.5 -6.5t-25.5 -22t-17.5 -40.5t-6.5 -62
q0 -38 13 -54.5t36 -16.5z" />
    <glyph glyph-name="percent.lf" horiz-adv-x="845" 
d="M237 374q-41 0 -69 11t-45.5 30.5t-25 46t-7.5 56.5q0 47 12 87t37 69.5t63.5 46t91.5 16.5q77 0 111.5 -39t34.5 -103q0 -48 -13 -89t-38.5 -70t-63.5 -45.5t-88 -16.5zM109 -17l539 741h138l-538 -741h-139zM252 456q25 0 39.5 12.5t22 32t10 43t2.5 45.5
q0 32 -10.5 48.5t-35.5 16.5q-40 0 -57.5 -35t-17.5 -93q0 -33 10.5 -51.5t36.5 -18.5zM611 -12q-41 0 -69 11t-45.5 30.5t-25 46t-7.5 56.5q0 47 12 87t37 69.5t63.5 46t91.5 16.5q78 0 112.5 -38.5t34.5 -103.5q0 -48 -13 -89t-38.5 -70t-64 -45.5t-88.5 -16.5zM627 70
q24 0 38.5 12.5t22 32t10 43t2.5 45.5q0 32 -10.5 48.5t-34.5 16.5q-41 0 -58 -35t-17 -93q0 -33 10.5 -51.5t36.5 -18.5z" />
    <glyph glyph-name="perthousand.lf" horiz-adv-x="1082" 
d="M230 412q-71 0 -101.5 35.5t-30.5 92.5q0 93 47.5 145t136.5 52q69 0 100.5 -33.5t31.5 -93.5q0 -91 -48 -144.5t-136 -53.5zM61 -17l541 741h138l-540 -741h-139zM244 487q38 0 51 34t13 83q0 29 -9 43t-30 14q-32 0 -48.5 -30t-16.5 -84q0 -60 40 -60zM527 -12
q-71 0 -101 35t-30 92q0 94 47.5 146t136.5 52q69 0 100.5 -34t31.5 -94q0 -91 -48.5 -144t-136.5 -53zM541 63q38 0 51 34t13 83q0 57 -38 57q-33 0 -49 -30t-16 -84q0 -60 39 -60zM868 -12q-71 0 -101.5 35t-30.5 92q0 94 47.5 146t135.5 52q69 0 101 -34t32 -94
q0 -91 -48 -144t-136 -53zM881 63q38 0 51.5 34t13.5 83q0 57 -39 57q-33 0 -49 -30t-16 -84q0 -60 39 -60z" />
    <glyph glyph-name="zero.slash" 
d="M261 -12q-60 0 -101 16t-66.5 47t-36.5 75t-11 100q0 14 1 34.5t3 42.5t4.5 43.5t4.5 38.5q11 83 33.5 148.5t60 110.5t91.5 69t129 24q60 0 100 -18t64.5 -50t35 -76.5t10.5 -97.5q0 -14 -1 -32.5t-2.5 -38t-4 -39t-4.5 -35.5q-13 -90 -35 -158t-58 -113t-89 -68
t-128 -23zM278 96q31 0 52 15.5t35.5 47.5t24.5 80t19 114q3 20 5.5 42t4.5 42.5t3.5 38.5t1.5 31v11.5t-1 10.5l-164 -431q5 -1 9.5 -1.5t9.5 -0.5zM204 206l160 418q-3 1 -9 1q-30 0 -52 -13.5t-37.5 -42.5t-26 -74t-19.5 -108q-3 -20 -5.5 -44.5l-5 -49t-4 -46
t-1.5 -34.5v-7z" />
    <glyph glyph-name="zero.tf" 
d="M261 -12q-60 0 -101 16t-66.5 47t-36.5 75t-11 100q0 14 1 34.5t3 42.5t4.5 43.5t4.5 38.5q11 83 33.5 148.5t60 110.5t91.5 69t129 24q60 0 100 -18t64.5 -50t35 -76.5t10.5 -97.5q0 -14 -1 -32.5t-2.5 -38t-4 -39t-4.5 -35.5q-13 -90 -35 -158t-58 -113t-89 -68
t-128 -23zM278 96q31 0 52 15.5t35.5 47.5t24.5 80t19 114q3 20 5.5 42t4.5 42.5t3.5 38.5t1.5 31q0 54 -14 86t-55 32q-30 0 -52 -13.5t-37.5 -42.5t-26 -74t-19.5 -108q-3 -20 -5.5 -44.5l-5 -49t-4 -46t-1.5 -34.5q0 -57 15.5 -87t58.5 -30z" />
    <glyph glyph-name="one.tf" 
d="M55 0l10 76l114 6q11 2 14 5.5t5 14.5l71 504q1 17 -11 21l-84 19l13 78h249l-87 -622q-2 -12 0 -15t13 -5l102 -7l-10 -75h-399z" />
    <glyph glyph-name="two.tf" 
d="M20 0l13 92l236 268q32 36 57 65.5t42 54.5t25.5 47t8.5 44q0 26 -14.5 42t-52.5 16q-41 0 -62 -18t-28 -72l-140 13q8 60 32 96t58 56t75 26.5t83 6.5q108 0 156 -41t48 -113q0 -36 -10.5 -67t-28.5 -60t-41.5 -57t-48.5 -57l-215 -245h163q8 0 10 3.5t4 8.5l25 79h106
l-26 -188h-475z" />
    <glyph glyph-name="three.tf" 
d="M412 386q52 -17 78.5 -57.5t26.5 -98.5q0 -57 -20 -102t-55.5 -76t-85 -47.5t-108.5 -16.5q-75 0 -137.5 26t-97.5 69l91 87q25 -29 60 -48.5t87 -19.5q24 0 45 7.5t36.5 23.5t25 39t9.5 55q0 45 -27.5 72t-77.5 27q-15 0 -30 -1t-38 -5l13 107l63 8q63 8 95.5 41
t32.5 84q0 33 -15 51t-52 18q-41 0 -62 -18t-28 -72l-142 12q7 60 31.5 96.5t59 56.5t75.5 26.5t81 6.5q106 0 153.5 -44t47.5 -114q0 -75 -38 -119.5t-96 -69.5z" />
    <glyph glyph-name="four.tf" 
d="M170 0l10 76l113 6q11 1 14 5t5 15l10 72h-284l12 90l317 460h170l-62 -445h82l-14 -106h-82l-11 -75q-2 -9 0.5 -12t13.5 -4l73 -7l-10 -75h-357zM376 565h-5l-191 -286h156z" />
    <glyph glyph-name="five.tf" 
d="M274 595l-45 -177q22 14 51.5 25.5t77.5 11.5q78 0 124.5 -47t46.5 -143q0 -63 -18 -114t-53 -87t-87 -56t-119 -20q-83 0 -145 26t-98 68l91 88q24 -26 60 -47t89 -21q26 0 49 9t40.5 26.5t27.5 44.5t10 63q0 29 -8 48t-20 30t-26.5 15.5t-27.5 4.5q-31 0 -56 -12.5
t-45 -32.5l-93 42l79 384h377l-18 -129h-264z" />
    <glyph glyph-name="six.tf" 
d="M526 578q-29 26 -56.5 36t-53.5 10q-36 0 -66 -18t-53.5 -48t-40 -70t-24.5 -84q27 14 65.5 27t86.5 13q35 0 65 -11t52 -34t34.5 -57.5t12.5 -82.5q0 -66 -20.5 -117t-56 -85t-84 -51.5t-104.5 -17.5q-60 0 -100 21.5t-65 58t-35.5 86t-10.5 105.5q0 54 8.5 110.5
t26 109.5t45 100t66 82t87.5 55.5t111 20.5q54 0 101.5 -19t84.5 -55zM224 307q-2 -15 -2.5 -39t-0.5 -42q0 -25 3 -48t11.5 -41t24 -28.5t40.5 -10.5q28 0 46.5 14t29.5 35.5t15 47t4 49.5q0 43 -16.5 68t-51.5 25q-27 0 -55 -9.5t-48 -20.5z" />
    <glyph glyph-name="seven.tf" 
d="M140 0q21 103 59 198.5t81 174.5t85 136.5t71 85.5h-194q-8 0 -10 -3.5t-4 -8.5l-25 -75l-105 -8l34 224h491l-19 -115q-51 -47 -100 -119.5t-90.5 -156t-72 -170.5t-43.5 -163h-158z" />
    <glyph glyph-name="eight.tf" 
d="M452 378q35 -27 59.5 -67.5t24.5 -92.5q0 -53 -22 -95.5t-60.5 -72.5t-89 -46t-107.5 -16q-100 0 -152.5 46t-52.5 121q0 37 11.5 69t30.5 60t44.5 52.5t53.5 47.5q-12 9 -24 23.5t-22 32.5t-16.5 39.5t-6.5 45.5q0 49 19.5 88.5t53.5 67t80 42t98 14.5q90 0 139.5 -43
t49.5 -109q0 -57 -30.5 -106.5t-80.5 -100.5zM274 321q-47 -44 -69.5 -77.5t-22.5 -70.5q0 -35 21.5 -60t68.5 -25q26 0 46.5 9.5t34 24.5t20.5 34t7 37q0 21 -9.5 39t-25 34t-34.5 29.5t-37 25.5zM357 435q43 44 60.5 74t17.5 59q0 30 -19.5 49.5t-54.5 19.5
q-42 0 -66 -25.5t-24 -60.5t25.5 -64.5t60.5 -51.5z" />
    <glyph glyph-name="nine.tf" 
d="M109 154q24 -22 57.5 -38t71.5 -16q35 0 62 20.5t46 51.5t31.5 68t18.5 71q-23 -14 -58.5 -27.5t-81.5 -13.5q-39 0 -71 14t-54.5 40t-35 62.5t-12.5 80.5q0 63 19.5 113t55 85t85 53.5t110.5 18.5q60 0 101 -21.5t66 -58.5t36 -87t11 -107q0 -42 -5.5 -94t-19.5 -104.5
t-37.5 -102.5t-60 -88.5t-87.5 -62t-119 -23.5q-28 0 -57.5 5t-57 15t-51 23.5t-39.5 31.5zM409 418q2 20 3.5 37.5t0.5 40.5q0 25 -4 49t-12.5 42.5t-22.5 29.5t-36 11q-50 0 -75 -41t-25 -106q0 -21 3 -38.5t10.5 -31t21 -21t33.5 -7.5q28 0 55.5 10.5t47.5 24.5z" />
    <glyph glyph-name="dollar.tf" 
d="M444 492l-2 81q0 8 -2 13t-10 7q-10 3 -22 4t-32 1q-24 0 -45.5 -5.5t-38 -16.5t-26.5 -27t-10 -38q0 -20 8 -34t22 -24.5t33 -18.5t42 -16q28 -11 58 -24t54.5 -34t40 -52t15.5 -78q0 -50 -16 -89t-43.5 -66.5t-65.5 -45t-82 -25.5l-10 -84h-124l10 80q-53 4 -97.5 14.5
t-64.5 21.5l25 185h101l6 -89q1 -9 4 -13.5t13 -7.5q25 -7 71 -7q60 0 93 24t33 74q0 21 -8 35.5t-22 25t-32.5 18.5t-39.5 16q-30 10 -60.5 22.5t-55 32.5t-40.5 50.5t-16 78.5q0 47 15 84t42 64t63.5 44.5t78.5 25.5l13 81h125l-12 -76q44 -5 78.5 -15.5t57.5 -20.5
l-25 -185z" />
    <glyph glyph-name="Euro.tf" 
d="M254 300v-30q0 -83 24 -127.5t74 -44.5q24 0 46 5q12 3 17 19l26 78l104 5l-26 -180q-12 -6 -33 -13t-47 -12t-55 -8.5t-57 -3.5q-62 0 -106 22t-72.5 60.5t-41.5 91t-13 114.5v24h-75l36 117h51q14 81 44.5 141t72.5 99.5t93.5 59.5t107.5 20q43 0 93.5 -9t93.5 -34
l-24 -170l-102 5l-4 76q0 16 -14 20q-20 5 -43 5q-55 0 -99.5 -55t-59.5 -158h156l-36 -117h-131z" />
    <glyph glyph-name="cent.tf" 
d="M509 141q-29 -16 -64 -25.5t-73 -13.5l-13 -102h-124l14 106q-69 14 -109 60.5t-40 138.5q0 124 57 199.5t160 94.5l16 105h125l-16 -103q38 -5 70 -14.5t55 -22.5l-22 -150l-100 5l-2 63q0 10 -9 13q-10 3 -23.5 5t-27.5 2q-57 0 -90.5 -46.5t-33.5 -144.5
q0 -57 20.5 -82.5t63.5 -25.5q15 0 27.5 2t22.5 4t13 13l21 65l102 4z" />
    <glyph glyph-name="sterling.tf" 
d="M32 0l-4 90q24 13 40.5 28t28 36t19.5 49.5t14 69.5l7 48h-72l15 110h69l12 89q6 46 21.5 85.5t44.5 69t73.5 46t109.5 16.5q63 0 110 -18t78 -48l-73 -85q-23 20 -53 30.5t-60 10.5q-51 0 -73.5 -26.5t-29.5 -76.5l-13 -93h151l-15 -110h-148l-4 -32q-7 -57 -30 -108
t-61 -84h204q8 0 12 2t6 10l25 79h105l-26 -188h-483z" />
    <glyph glyph-name="yen.tf" 
d="M381 283l-26 -180q-2 -11 0 -15t13 -5l105 -8l-10 -75h-393l11 75l98 7q12 1 15.5 4t5.5 17l26 180h-122l16 117h98l-92 223q-7 13 -21 17l-44 11l11 73h291l-10 -73l-63 -9l50 -174h6l107 174l-59 9l13 73h246l-10 -73l-44 -11q-11 -3 -16.5 -7.5t-13.5 -14.5l-147 -218
h105l-16 -117h-130z" />
    <glyph glyph-name="florin.tf" 
d="M332 353l-81 -275q-17 -57 -38 -93.5t-48.5 -57.5t-63 -29t-81.5 -8q-51 0 -95 15t-67 35l53 92q20 -15 49 -26.5t56 -11.5q16 0 28.5 3t23 12.5t19 26.5t17.5 45l80 262q2 10 -6 10h-91l29 95h100l34 111q15 50 36 84t49.5 55t65.5 30t84 9q50 0 94 -13.5t72 -29.5
l-45 -146l-92 9l7 62q1 10 -8 14q-6 2 -14.5 3.5t-22.5 1.5q-32 0 -49.5 -17.5t-30.5 -60.5l-31 -102q-3 -10 6 -10h125l-29 -95h-135z" />
    <glyph glyph-name="zeroslash.tosf" 
d="M559 287q-9 -71 -29 -127t-55.5 -94t-87.5 -58t-125 -20q-61 0 -102.5 16t-67 45t-37 69.5t-11.5 90.5q0 42 6 87q9 65 29.5 119.5t56.5 93.5t89 60.5t125 21.5q60 0 101 -16.5t66 -46.5t36 -70.5t11 -88.5q0 -20 -1 -40.5t-4 -41.5zM278 94q27 0 47.5 10t35.5 33
t25.5 59.5t16.5 90.5q6 51 6 86q0 15 -1 28t-4 24l-138 -331h12zM201 206q0 -26 3 -45l134 321h-4q-55 0 -84.5 -42.5t-42.5 -147.5q-6 -51 -6 -86z" />
    <glyph glyph-name="zero.tosf" 
d="M559 285q-10 -71 -30 -126t-55 -93t-87 -58t-125 -20q-61 0 -102.5 16t-67 45t-37 69.5t-11.5 90.5q0 42 6 87q10 67 31 121.5t56.5 93t88 59.5t124.5 21q60 0 101 -16.5t66 -46.5t36 -70.5t11 -88.5q0 -20 -1 -41.5t-4 -42.5zM278 94q27 0 47 10.5t35 33.5t25.5 59.5
t17.5 89.5q6 51 6 86q0 55 -16.5 82t-58.5 27q-55 0 -84.5 -43.5t-42.5 -146.5q-6 -51 -6 -86q0 -55 16.5 -83.5t60.5 -28.5z" />
    <glyph glyph-name="one.tosf" 
d="M83 0l10 75l110 7q10 1 12.5 5t4.5 15l50 358q3 17 -10 21l-84 18l12 77h246l-66 -474q-2 -12 0.5 -15.5t13.5 -4.5l103 -8l-11 -74h-391z" />
    <glyph glyph-name="two.tosf" 
d="M41 0l13 93l154 137q46 41 78 69t51.5 50t28 41t8.5 41q0 23 -14.5 37.5t-48.5 14.5q-21 0 -36 -4t-25 -14t-16 -27.5t-10 -44.5l-135 13q8 60 32 97t57 56.5t73 26t81 6.5q51 0 86.5 -11.5t58 -31.5t33 -46.5t10.5 -57.5q0 -41 -13 -72.5t-35.5 -59.5t-52.5 -54t-64 -55
l-125 -107h146q7 0 10 1.5t5 9.5l25 80h104l-26 -188h-453z" />
    <glyph glyph-name="three.tosf" 
d="M392 265q45 -12 74 -43.5t29 -92.5q0 -53 -19 -92.5t-53 -66t-81 -40t-104 -13.5q-78 0 -139 26.5t-92 68.5l88 85q11 -12 25 -23.5t31.5 -21.5t38.5 -16t47 -6q23 0 43.5 5t35.5 16.5t23.5 30.5t8.5 46q0 42 -24 60.5t-66 18.5q-19 0 -33.5 -1t-36.5 -5l13 100l47 5
q60 7 93.5 37t33.5 82q0 25 -15 41.5t-50 16.5q-41 0 -61 -18t-27 -71l-138 13q7 58 31 94t58.5 56t75 27t79.5 7q100 0 147 -40t47 -115q0 -68 -38 -109t-92 -58v-4z" />
    <glyph glyph-name="four.tosf" 
d="M292 -67l18 133h-278l14 99l252 429l113 -56l-218 -359h133l23 164l140 18l-26 -182h82l-15 -113h-83l-17 -133h-138z" />
    <glyph glyph-name="five.tosf" 
d="M262 450l-36 -141q23 17 54 28t74 11q75 0 119 -45t44 -130q0 -55 -17.5 -101.5t-52 -81t-85 -54t-116.5 -19.5q-82 0 -142 26.5t-94 67.5l89 87q24 -26 58 -46.5t85 -20.5q25 0 48 7t40 22t27 37.5t10 54.5q0 25 -7 41t-18.5 25.5t-25.5 13t-28 3.5q-29 0 -54.5 -12
t-45.5 -31l-92 43l70 341h367l-17 -126h-254z" />
    <glyph glyph-name="six.tosf" 
d="M498 501q-29 25 -56.5 34t-53.5 9q-32 0 -58.5 -14.5t-46 -39t-32.5 -57t-18 -68.5q28 15 65 28t84 13q35 0 65 -10t51.5 -30t34 -51.5t12.5 -73.5q0 -64 -20 -111.5t-54.5 -79t-82.5 -47t-103 -15.5q-60 0 -100.5 20t-65.5 53.5t-36 78t-11 94.5q0 44 6.5 92t22 95
t40 89.5t60 74.5t83 51t108.5 19q54 0 100.5 -17t81.5 -52zM223 265q-1 -14 -1 -23v-23q0 -23 3 -45t11.5 -39t23 -27t38.5 -10q28 0 46.5 13t29.5 32.5t15 42t4 41.5q0 38 -17.5 54.5t-48.5 16.5t-57.5 -10.5t-46.5 -22.5z" />
    <glyph glyph-name="seven.tosf" 
d="M136 -67q19 104 54 187.5t74.5 147.5t78.5 109t68 73h-189q-8 0 -10.5 -2.5t-4.5 -10.5l-26 -84l-104 -8l33 231h482l-18 -113q-49 -47 -94 -107t-82.5 -128.5t-65 -143.5t-39.5 -151h-157z" />
    <glyph glyph-name="eight.tosf" 
d="M450 334q36 -23 57.5 -54.5t21.5 -85.5q0 -51 -20.5 -89.5t-56.5 -64.5t-85.5 -39t-107.5 -13q-96 0 -149.5 37.5t-53.5 111.5q0 70 34.5 117.5t87.5 83.5q-24 20 -42 49t-18 77q0 46 17.5 81.5t49.5 60t76.5 37t97.5 12.5q90 0 138.5 -38.5t48.5 -104.5
q0 -57 -28.5 -101t-67.5 -77zM267 281q-42 -32 -63 -61.5t-21 -62.5q0 -31 22 -50t68 -19q51 0 76.5 24.5t25.5 59.5q0 20 -9.5 35.5t-25 28t-35 23.5t-38.5 22zM351 385q32 28 50.5 55t18.5 56q0 30 -19 45t-52 15q-40 0 -64 -20t-24 -52q0 -17 7.5 -31t20 -26t29 -22
t33.5 -20z" />
    <glyph glyph-name="nine.tosf" 
d="M102 83q23 -20 56.5 -37t70.5 -17q36 0 61 12.5t42 35t27.5 53.5t16.5 68q-26 -15 -60.5 -28t-82.5 -13q-36 0 -67 11.5t-53.5 33.5t-35 55t-12.5 75q0 60 18.5 108t53 81.5t82.5 51.5t108 18q59 0 99.5 -18.5t65.5 -51.5t36 -79t11 -100q0 -38 -4.5 -84.5t-17 -93.5
t-34 -91.5t-56.5 -79t-85 -55t-118 -20.5q-27 0 -55 5.5t-54 16t-48 24.5t-38 31zM386 303q3 28 3 54q0 24 -3 46.5t-11 40t-23 28t-38 10.5q-24 0 -42 -11t-30 -29.5t-18 -43t-6 -50.5q0 -39 14.5 -59t51.5 -20q28 0 54 10t48 24z" />
    <glyph glyph-name="dollar.tosf" 
d="M422 444l-3 69q0 15 -12 19q-11 4 -26.5 5t-33.5 1q-48 0 -76.5 -17.5t-28.5 -52.5q0 -20 9.5 -33.5t25.5 -23.5t37 -18t44 -17q27 -10 54 -23t48.5 -32t35 -46.5t13.5 -66.5q0 -86 -51 -136t-133 -65l-11 -87h-124l11 82q-46 3 -89.5 11.5t-72.5 24.5l23 164l105 -6
l5 -69q1 -10 4.5 -15t14.5 -8t28.5 -5t40.5 -2q107 0 107 77q0 19 -9 32t-24.5 23t-36 17.5t-42.5 15.5q-28 10 -56 22.5t-50.5 32t-36.5 47.5t-14 70q0 45 14.5 79.5t40.5 58.5t60.5 38.5t75.5 20.5l12 76h125l-11 -74q40 -3 74.5 -11t61.5 -17l-23 -170z" />
    <glyph glyph-name="Euro.tosf" 
d="M259 265v-13q0 -79 21.5 -116.5t66.5 -37.5q29 0 49 7q6 2 9 6t5 10l24 79l102 5l-24 -174q-12 -8 -33 -15.5t-47 -13.5t-55 -10t-57 -4q-112 0 -165.5 67.5t-53.5 195.5v14h-67l35 117h44q15 72 44.5 123.5t70 85t89 49t99.5 15.5q28 0 55.5 -4t50.5 -10t41.5 -13.5
t29.5 -15.5l-23 -170l-102 5l-3 78q0 12 -10 16q-9 3 -19.5 5t-27.5 2q-23 0 -44 -9t-39.5 -28.5t-32.5 -51t-23 -77.5h159l-34 -117h-135z" />
    <glyph glyph-name="cent.tosf" 
d="M496 74q-29 -16 -64 -25.5t-73 -13.5l-13 -102h-124l14 106q-69 14 -109 60.5t-40 138.5q0 124 57 199.5t160 94.5l16 105h125l-16 -103q38 -5 70 -14.5t55 -22.5l-22 -150l-100 5l-2 63q0 10 -9 13q-10 3 -23.5 5t-27.5 2q-57 0 -90.5 -46.5t-33.5 -144.5
q0 -57 20.5 -82.5t63.5 -25.5q15 0 27.5 2t22.5 4t13 13l21 65l102 4z" />
    <glyph glyph-name="sterling.tosf" 
d="M38 0l-4 90q24 13 40.5 26.5t27.5 32t18 44t12 63.5l3 23h-72l14 110h69l8 53q7 44 21 83t41.5 68t70.5 45.5t108 16.5q61 0 108 -18t78 -47l-73 -86q-24 20 -53 30.5t-57 10.5q-26 0 -43 -7.5t-28 -21t-17 -32.5t-9 -42l-8 -53h143l-15 -110h-140q-7 -60 -26 -103
t-61 -79h199q11 0 14 12l25 79h104l-25 -188h-473z" />
    <glyph glyph-name="yen.tosf" 
d="M373 215l-15 -111q-2 -11 0 -14.5t13 -4.5l103 -8l-11 -77h-385l10 77l98 8q13 1 16 5t5 15l14 110h-118l14 117h93l-97 201q-5 8 -9 11.5t-12 5.5l-40 11l11 75h284l-10 -75l-69 -9l65 -152h5l109 152l-53 9l10 75h239l-11 -75l-43 -9q-11 -2 -18 -11l-14 -18l-142 -191
h101l-15 -117h-128z" />
    <glyph glyph-name="florin.tosf" 
d="M319 287l-61 -201q-18 -59 -39.5 -97t-49 -60t-61 -30.5t-75.5 -8.5q-24 0 -48.5 4t-46 11t-39 16t-28.5 19l52 92q20 -15 46.5 -26.5t55.5 -11.5q15 0 27.5 3t22.5 12.5t19 26.5t18 45l61 196q3 10 -6 10h-88l29 95h98l30 98q15 49 35.5 83t48 54t63 29t81.5 9
q49 0 90.5 -11.5t73.5 -31.5l-44 -146l-91 9l8 62q0 5 -1.5 8t-7.5 5q-7 3 -15 4.5t-21 1.5q-32 0 -49 -19.5t-29 -57.5l-27 -87q-3 -10 6 -10h123l-28 -95h-133z" />
    <glyph glyph-name="idotaccent" horiz-adv-x="318" 
d="M210 601q-37 0 -57 20t-20 55q0 48 27 75.5t76 27.5q37 0 57.5 -19t20.5 -55q0 -48 -27.5 -76t-76.5 -28zM64 0l-2 5l24 135l37 267q3 17 -10 21l-49 17l10 76h213l-59 -420q-2 -12 0.5 -15t13.5 -5l48 -7l-10 -74h-216z" />
    <glyph glyph-name="s_p" horiz-adv-x="1053" 
d="M478 -212l-2 4l29 167l99 706q-12 2 -22.5 3.5t-21.5 1.5q-27 0 -43.5 -12t-25.5 -46q-6 -24 -11 -56.5t-9 -68t-7.5 -69.5t-6.5 -61l-104 6l-2 55q0 6 -2 10t-10 6q-20 5 -56 5q-35 0 -55 -12.5t-20 -41.5q0 -22 23 -33.5t56 -22.5q27 -9 55.5 -20t52.5 -28.5
t39.5 -43.5t15.5 -66q0 -49 -19 -83.5t-51.5 -56.5t-75.5 -32.5t-91 -10.5q-35 0 -67 4t-57.5 9t-43 11t-23.5 11l19 138l102 -6l3 -58q0 -12 11 -16t28.5 -6.5t42.5 -2.5q42 0 64 16t22 42q0 15 -7.5 25.5t-20.5 18.5t-30 14t-36 12q-26 8 -52.5 18.5t-48.5 28t-35.5 43.5
t-13.5 65q0 46 18.5 79.5t50 55t73.5 31.5t88 10q18 0 33 -1.5t29 -3.5q1 66 11.5 112t33 75.5t58 42.5t88.5 13q42 0 97 -5.5t106 -18.5l-41 -302l3 -1q45 42 87 65.5t90 23.5q32 0 59 -11t46.5 -35t30 -62t10.5 -92q0 -52 -11.5 -112t-39 -111.5t-73.5 -85.5t-116 -34
q-49 0 -79.5 15.5t-58.5 35.5l-22 -150q-1 -8 1.5 -11.5t12.5 -4.5l101 -10l-11 -75h-267zM678 143q19 -16 43 -27.5t52 -11.5q30 0 51.5 19t34.5 49t19 65.5t6 68.5q0 45 -11.5 71.5t-40.5 26.5q-15 0 -31.5 -7t-33.5 -18.5t-33 -24.5t-29 -25z" />
    </font>
</defs>
</svg>
