<?xml version="1.0" standalone="no"?>
<!DOCTYPE svg PUBLIC "-//W3C//DTD SVG 1.1//EN" "http://www.w3.org/Graphics/SVG/1.1/DTD/svg11.dtd" >
<svg xmlns="http://www.w3.org/2000/svg" xmlns:xlink="http://www.w3.org/1999/xlink" version="1.1">
<metadata>
Created by FontForge 20161003 at Wed Jan 16 20:19:43 2019
 By www-data
Copyright (c) 2012 by TypeTogether. All rights reserved.
</metadata>
<defs>
<font id="AdelleSansSageItalic" horiz-adv-x="570" >
  <font-face 
    font-family="AdelleSansSageItalic"
    font-weight="400"
    font-style="italic"
    font-stretch="normal"
    units-per-em="1000"
    panose-1="2 0 5 3 0 0 0 2 0 4"
    ascent="755"
    descent="-245"
    x-height="514"
    cap-height="724"
    bbox="-202 -288 1197 1072"
    underline-thickness="50"
    underline-position="-150"
    slope="-9"
    unicode-range="U+0020-FB06"
  />
<missing-glyph horiz-adv-x="500" 
 />
    <glyph glyph-name="ij" unicode="ij" horiz-adv-x="494" 
d="M128 0h-91l72 514h91zM244 689q0 -35 -19.5 -54.5t-54.5 -19.5q-27 0 -41.5 14t-14.5 39q0 35 19.5 54.5t54.5 19.5q56 0 56 -53zM356 514h91l-82 -585q-12 -81 -51.5 -116.5t-110.5 -35.5q-12 0 -27 1.5t-29 4.5t-25.5 7t-17.5 8l19 67q15 -6 34 -10.5t38 -4.5
q31 0 51.5 17t27.5 64zM491 689q0 -35 -20 -54.5t-55 -19.5q-27 0 -41.5 14t-14.5 39q0 35 20 54.5t54 19.5q27 0 42 -13.5t15 -39.5z" />
    <glyph glyph-name="ff" unicode="ff" horiz-adv-x="643" 
d="M717 680q-14 5 -34 9t-38 4q-35 0 -59 -18.5t-32 -72.5l-12 -88h143l-10 -67h-143l-92 -659h-91l92 659h-232l-93 -659h-91l93 659h-76l10 67h76l12 86q11 85 55.5 125t117.5 40q30 0 54 -6t36 -12l-13 -67q-14 5 -33 9t-37 4q-33 0 -57 -18.5t-32 -72.5l-12 -88h232
l12 86q12 85 56.5 125t117.5 40q32 0 56.5 -6t36.5 -12z" />
    <glyph glyph-name="fi" unicode="fi" horiz-adv-x="589" 
d="M470 0h-91l62 447h-232l-93 -659h-91l93 659h-76l10 67h76l12 86q12 85 55.5 125t115.5 40q30 0 52.5 -5.5t34.5 -11.5l-13 -67q-14 5 -32.5 8.5t-35.5 3.5q-35 0 -56.5 -19t-29.5 -71l-12 -89h323zM586 689q0 -35 -19.5 -54.5t-54.5 -19.5q-27 0 -41.5 14t-14.5 39
q0 35 19.5 54.5t54.5 19.5q56 0 56 -53z" />
    <glyph glyph-name="fl" unicode="fl" horiz-adv-x="589" 
d="M387 681q-15 5 -33 8.5t-35 3.5q-35 0 -57.5 -19t-30.5 -71l-12 -89h139l-10 -67h-139l-93 -659h-91l93 659h-76l10 67h76l12 86q12 85 55.5 125t115.5 40q30 0 53.5 -5.5t34.5 -11.5zM485 755h91l-106 -755h-91z" />
    <glyph glyph-name="ffi" unicode="ffi" horiz-adv-x="913" 
d="M794 0h-91l62 447h-232l-93 -659h-91l93 659h-233l-93 -659h-91l93 659h-76l10 67h76l12 86q11 85 55.5 125t117.5 40q30 0 54 -6t36 -12l-13 -67q-14 5 -33 9t-37 4q-33 0 -57 -18.5t-32 -72.5l-12 -88h233l12 86q12 85 55.5 125t115.5 40q30 0 52.5 -5.5t34.5 -11.5
l-13 -67q-14 5 -32.5 8.5t-35.5 3.5q-35 0 -56.5 -19t-29.5 -71l-12 -89h323zM910 689q0 -35 -19.5 -54.5t-54.5 -19.5q-27 0 -41.5 14t-14.5 39q0 35 19.5 54.5t54.5 19.5q56 0 56 -53z" />
    <glyph glyph-name="ffl" unicode="ffl" horiz-adv-x="912" 
d="M710 681q-15 5 -33 8.5t-35 3.5q-35 0 -57.5 -19t-30.5 -71l-12 -89h139l-10 -67h-139l-93 -659h-91l93 659h-232l-93 -659h-91l93 659h-76l10 67h76l12 86q11 85 55.5 125t117.5 40q30 0 54 -6t36 -12l-13 -67q-14 5 -33 9t-37 4q-33 0 -57 -18.5t-32 -72.5l-12 -88h232
l12 86q12 85 55.5 125t115.5 40q30 0 53.5 -5.5t34.5 -11.5zM808 755h91l-106 -755h-91z" />
    <glyph glyph-name="f_k" unicode="fk" horiz-adv-x="862" 
d="M387 681q-15 5 -33 8.5t-35 3.5q-35 0 -57.5 -19t-30.5 -71l-12 -89h139l-10 -67h-139l-93 -659h-91l93 659h-76l10 67h76l12 86q12 85 55.5 125t115.5 40q30 0 53.5 -5.5t34.5 -11.5zM707 0l-120 267l-91 -80l-26 -187h-91l106 755h91l-65 -466l247 225h109l-205 -186
l145 -328h-100z" />
    <glyph glyph-name="f_b" unicode="fb" horiz-adv-x="925" 
d="M378 0l106 755h90l-44 -308q38 30 83.5 53.5t101.5 23.5q34 0 63 -10.5t50 -34t32.5 -60.5t11.5 -90q0 -89 -20.5 -153.5t-55 -106t-78.5 -61.5t-92 -20q-47 0 -85 16t-69 42h-1l-10 -46h-83zM386 681q-14 5 -32 8.5t-35 3.5q-35 0 -58 -19t-30 -71l-12 -89h139l-10 -67
h-139l-93 -659h-91l93 659h-76l10 67h76l12 86q11 85 55 125t116 40q30 0 53 -5.5t35 -11.5zM485 116q8 -7 20 -16t28.5 -17t36.5 -13.5t44 -5.5q45 0 76.5 22t51 58t28 82.5t8.5 95.5q0 66 -22 96.5t-68 30.5q-22 0 -46 -7.5t-46.5 -19t-41.5 -25t-32 -24.5z" />
    <glyph glyph-name="f_h" unicode="fh" horiz-adv-x="922" 
d="M387 681q-15 5 -33 8.5t-35 3.5q-35 0 -57.5 -19t-30.5 -71l-12 -89h139l-10 -67h-139l-93 -659h-91l93 659h-76l10 67h76l12 86q12 85 55.5 125t115.5 40q30 0 53.5 -5.5t34.5 -11.5zM470 0h-91l106 755h90l-46 -312q15 13 35.5 27t45 26t52 20t57.5 8q78 0 113 -43.5
t23 -132.5l-48 -348h-91l47 338q8 59 -10 84.5t-60 25.5q-49 0 -91 -24.5t-80 -53.5z" />
    <glyph glyph-name="f_t" unicode="ft" horiz-adv-x="703" 
d="M653 20q-21 -13 -55.5 -22.5t-69.5 -9.5q-74 0 -107.5 35.5t-22.5 112.5l44 311h-233l-93 -659h-91l93 659h-76l10 67h76l12 86q11 85 55.5 125t116.5 40q31 0 54 -6t34 -12l-13 -67q-14 5 -33 9t-36 4q-35 0 -57 -19t-30 -72l-12 -88h232l21 148l93 13l-23 -161h142
l-9 -67h-142l-43 -301q-3 -20 -2.5 -36.5t7 -28t19.5 -17.5t36 -6q25 0 49.5 8t42.5 18z" />
    <glyph glyph-name="f_j" unicode="fj" horiz-adv-x="588" 
d="M385 681q-15 5 -33 8.5t-35 3.5q-35 0 -57 -19t-29 -71l-12 -89h323l-83 -585q-11 -81 -50 -116.5t-108 -35.5q-11 0 -24.5 1.5t-26.5 4t-24.5 6t-17.5 6.5l16 68q15 -5 33.5 -9t34.5 -4q31 0 50 17t26 64l73 516h-232l-93 -659h-91l93 659h-76l10 67h76l12 86
q11 85 55 125t116 40q30 0 52.5 -5.5t34.5 -11.5zM585 689q0 -35 -19.5 -54.5t-54.5 -19.5q-27 0 -41.5 14t-14.5 39q0 35 19.5 54.5t54.5 19.5q56 0 56 -53z" />
    <glyph glyph-name="f_f_j" unicode="ffj" horiz-adv-x="913" 
d="M710 681q-15 5 -33 8.5t-35 3.5q-35 0 -57 -19t-29 -71l-12 -89h323l-83 -585q-11 -81 -50 -116.5t-108 -35.5q-11 0 -24.5 1.5t-26.5 4t-24.5 6t-17.5 6.5l16 68q15 -5 33.5 -9t34.5 -4q31 0 50 17t26 64l73 516h-232l-93 -659h-91l93 659h-234l-93 -659h-91l93 659h-76
l10 67h76l12 86q11 85 55.5 125t117.5 40q30 0 54 -6t36 -12l-13 -67q-14 5 -33 9t-37 4q-33 0 -57 -18.5t-32 -72.5l-12 -88h234l12 86q11 85 55 125t116 40q30 0 52.5 -5.5t34.5 -11.5zM910 689q0 -35 -19.5 -54.5t-54.5 -19.5q-27 0 -41.5 14t-14.5 39q0 35 19.5 54.5
t54.5 19.5q56 0 56 -53z" />
    <glyph glyph-name="f_f_k" unicode="ffk" horiz-adv-x="1186" 
d="M711 681q-15 5 -33 8.5t-35 3.5q-35 0 -57.5 -19t-30.5 -71l-12 -89h139l-10 -67h-139l-93 -659h-91l93 659h-233l-93 -659h-91l93 659h-76l10 67h76l12 86q11 85 55.5 125t117.5 40q30 0 54 -6t36 -12l-13 -67q-14 5 -33 9t-37 4q-33 0 -57 -18.5t-32 -72.5l-12 -88h233
l12 86q12 85 55.5 125t115.5 40q30 0 53.5 -5.5t34.5 -11.5zM1031 0l-120 267l-91 -80l-26 -187h-91l106 755h91l-65 -466l247 225h109l-205 -186l145 -328h-100z" />
    <glyph glyph-name="f_f_b" unicode="ffb" horiz-adv-x="1250" 
d="M703 0l106 755h90l-44 -308q38 30 83.5 53.5t101.5 23.5q34 0 63 -10.5t50 -34t32.5 -60.5t11.5 -90q0 -89 -20.5 -153.5t-55 -106t-78.5 -61.5t-92 -20q-47 0 -85 16t-69 42h-1l-10 -46h-83zM711 681q-14 5 -32 8.5t-35 3.5q-35 0 -58 -19t-30 -71l-12 -89h139l-10 -67
h-139l-93 -659h-91l93 659h-234l-93 -659h-91l93 659h-76l10 67h76l12 86q11 85 55.5 125t117.5 40q30 0 54 -6t36 -12l-13 -67q-14 5 -33 9t-37 4q-33 0 -57 -18.5t-32 -72.5l-12 -88h234l12 86q11 85 55 125t116 40q30 0 53 -5.5t35 -11.5zM810 116q8 -7 20 -16t28.5 -17
t36.5 -13.5t44 -5.5q45 0 76.5 22t51 58t28 82.5t8.5 95.5q0 66 -22 96.5t-68 30.5q-22 0 -46 -7.5t-46.5 -19t-41.5 -25t-32 -24.5z" />
    <glyph glyph-name="f_f_h" unicode="ffh" horiz-adv-x="1245" 
d="M710 681q-15 5 -33 8.5t-35 3.5q-35 0 -57.5 -19t-30.5 -71l-12 -89h139l-10 -67h-139l-93 -659h-91l93 659h-232l-93 -659h-91l93 659h-76l10 67h76l12 86q11 85 55.5 125t117.5 40q30 0 54 -6t36 -12l-13 -67q-14 5 -33 9t-37 4q-33 0 -57 -18.5t-32 -72.5l-12 -88h232
l12 86q12 85 55.5 125t115.5 40q30 0 53.5 -5.5t34.5 -11.5zM793 0h-91l106 755h90l-46 -312q15 13 35.5 27t45 26t52 20t57.5 8q78 0 113 -43.5t23 -132.5l-48 -348h-91l47 338q8 59 -10 84.5t-60 25.5q-49 0 -91 -24.5t-80 -53.5z" />
    <glyph glyph-name="f_f_t" unicode="fft" horiz-adv-x="1026" 
d="M976 20q-21 -13 -55.5 -22.5t-69.5 -9.5q-74 0 -107.5 35.5t-22.5 112.5l44 311h-233l-93 -659h-91l93 659h-232l-93 -659h-91l93 659h-76l10 67h76l12 86q11 85 55.5 125t117.5 40q30 0 54 -6t36 -12l-13 -67q-14 5 -33 9t-37 4q-33 0 -57 -18.5t-32 -72.5l-12 -88h232
l12 86q11 85 55.5 125t116.5 40q31 0 54 -6t34 -12l-13 -67q-14 5 -33 9t-36 4q-35 0 -57 -19t-30 -72l-12 -88h232l21 148l93 13l-23 -161h142l-9 -67h-142l-43 -301q-3 -20 -2.5 -36.5t7 -28t19.5 -17.5t36 -6q25 0 49.5 8t42.5 18z" />
    <glyph glyph-name="f_iacute" unicode="f&#xed;" horiz-adv-x="596" 
d="M477 0h-91l62 447h-239l-93 -659h-91l93 659h-76l10 67h76l12 86q11 85 55 125t116 40q30 0 53 -5.5t35 -11.5l-13 -67q-14 5 -32 8.5t-35 3.5q-35 0 -58 -19t-30 -71l-12 -89h330zM572 747h113l-165 -175l-64 12z" />
    <glyph glyph-name="t_t" unicode="tt" horiz-adv-x="706" 
d="M657 20q-21 -13 -55.5 -22.5t-69.5 -9.5q-74 0 -107.5 35.5t-22.5 112.5l44 311h-234l-43 -301q-3 -20 -2.5 -36.5t6.5 -28t19 -17.5t36 -6q25 0 50 8t42 18l12 -64q-21 -13 -55.5 -22.5t-69.5 -9.5q-74 0 -107.5 35.5t-22.5 112.5l44 311h-80l9 67h80l21 148l92 13
l-22 -161h234l21 148l92 13l-22 -161h141l-9 -67h-141l-43 -301q-3 -20 -2.5 -36.5t6.5 -28t19 -17.5t36 -6q25 0 50 8t42 18z" />
    <glyph glyph-name=".notdef" horiz-adv-x="500" 
 />
    <glyph glyph-name=".null" horiz-adv-x="0" 
 />
    <glyph glyph-name="nonmarkingreturn" horiz-adv-x="500" 
 />
    <glyph glyph-name="space" unicode=" " horiz-adv-x="214" 
 />
    <glyph glyph-name="exclam" unicode="!" horiz-adv-x="265" 
d="M76 187l58 537h101l-91 -537h-68zM159 62q0 -74 -76 -74q-60 0 -60 52q0 36 20 55.5t57 19.5q59 0 59 -53z" />
    <glyph glyph-name="quotedbl" unicode="&#x22;" horiz-adv-x="379" 
d="M233 465l36 259h90l-36 -259h-90zM64 465l36 259h90l-36 -259h-90z" />
    <glyph glyph-name="numbersign" unicode="#" horiz-adv-x="607" 
d="M265 0l43 144h-121l-43 -144h-72l42 144h-115l25 66h110l44 148h-115l24 67h111l37 132h73l-38 -132h119l38 132h72l-38 -132h115l-23 -67h-112l-42 -148h114l-23 -66h-110l-43 -144h-72zM369 358h-119l-44 -148h121z" />
    <glyph glyph-name="dollar" unicode="$" horiz-adv-x="521" 
d="M416 509q-1 57 -19 88.5t-59 39.5l-36 -247q30 -12 59.5 -25.5t52.5 -32.5t37.5 -45t14.5 -63q0 -55 -18 -95t-48.5 -67t-70.5 -41.5t-83 -17.5l-12 -84h-72l12 85q-89 11 -128 60t-42 130l81 13q3 -27 8 -50t16.5 -41t29.5 -30t47 -16l38 261q-29 11 -56.5 24.5t-49 33
t-34.5 46.5t-13 66q0 45 16 81t44 62.5t66 42.5t82 21l12 84h73l-12 -85q70 -10 108 -54.5t38 -134.5zM377 203q0 40 -25 63t-62 39l-34 -234q53 8 87 41t34 91zM163 515q0 -35 20.5 -57.5t52.5 -38.5l32 217q-51 -10 -78 -43t-27 -78z" />
    <glyph glyph-name="percent" unicode="%" horiz-adv-x="804" 
d="M211 374q-39 0 -66.5 11.5t-44.5 32t-25 48t-8 59.5q0 44 12 82.5t36 67.5t60 45.5t84 16.5q73 0 107.5 -39.5t34.5 -111.5q0 -44 -11.5 -82.5t-35 -67t-59 -45.5t-84.5 -17zM217 435q38 0 59 17t31 41t12 49t2 41q0 42 -14.5 67t-53.5 25q-30 0 -50.5 -13t-32.5 -34.5
t-17 -49t-5 -55.5q0 -38 14.5 -63t54.5 -25zM94 -16l543 740h84l-542 -740h-85zM568 -12q-39 0 -66.5 11.5t-44.5 32t-25 48t-8 59.5q0 43 12 82t36 67.5t59.5 45.5t83.5 17q74 0 108.5 -40t34.5 -112q0 -43 -11.5 -81.5t-35 -67t-59.5 -45.5t-84 -17zM574 48q38 0 59 17.5
t31 41.5t12 49t2 41q0 42 -15 67t-53 25q-30 0 -50.5 -13t-33 -35t-17.5 -49.5t-5 -55.5q0 -38 15 -63t55 -25z" />
    <glyph glyph-name="ampersand" unicode="&#x26;" horiz-adv-x="705" 
d="M525 583q0 -43 -15.5 -75.5t-43.5 -57.5t-68 -45t-89 -38q11 -25 27.5 -54.5t35.5 -59.5t38.5 -58t37.5 -49q31 37 49.5 87t28.5 109h81q-11 -66 -35 -130t-72 -115q20 -17 39.5 -27t42.5 -10q24 0 48 10l10 -64q-17 -9 -38 -13t-38 -4q-42 0 -73 14.5t-60 38.5
q-36 -25 -84 -39.5t-109 -14.5q-47 0 -84 13t-63 36t-40 55t-14 70q0 81 42 135t123 93q-9 24 -15 49.5t-6 62.5q0 46 16 82t43.5 61.5t65 39t81.5 13.5q27 0 51.5 -6.5t44 -20.5t31 -35.5t11.5 -52.5zM226 330q-40 -23 -68 -58t-28 -95q0 -25 7 -47t23 -38t41 -25.5
t60 -9.5q31 0 60 9.5t58 26.5q-54 61 -91 122t-62 115zM273 514q0 -22 3.5 -45.5t11.5 -46.5q42 17 71 32.5t48 32t27.5 36t8.5 44.5q0 29 -15.5 47.5t-50.5 18.5q-44 0 -74 -30t-30 -89z" />
    <glyph glyph-name="quotesingle" unicode="'" horiz-adv-x="210" 
d="M64 465l36 259h90l-36 -259h-90z" />
    <glyph glyph-name="parenleft" unicode="(" horiz-adv-x="317" 
d="M135 -152q-17 33 -33.5 73t-29 85t-20 94.5t-7.5 102.5q0 82 19 155t50 138t70.5 121.5t79.5 106.5h97q-51 -66 -91.5 -128t-69.5 -125t-44.5 -129t-15.5 -141q0 -102 25 -189t63 -165z" />
    <glyph glyph-name="parenright" unicode=")" horiz-adv-x="317" 
d="M162.008 722.99q16.999 -32.9971 33.498 -72.9951q16.499 -39.9971 28.999 -84.9951q12.499 -44.9971 19.998 -94.4941q7.5 -49.4971 7.5 -102.493q0 -81.9951 -18.999 -154.991q-18.999 -72.9951 -49.9971 -137.991t-70.4951 -121.492
q-39.498 -56.4971 -79.4961 -106.494h-96.9932q50.9961 65.9961 91.4941 127.992q40.4971 61.9961 69.4951 124.992q28.999 62.9971 44.498 128.992q15.499 65.9961 15.499 140.992q0 101.993 -24.999 188.988q-24.998 86.9941 -62.9961 164.989z" />
    <glyph glyph-name="asterisk" unicode="*" horiz-adv-x="470" 
d="M314 616l132 32l7 -41l-127 -60l62 -121l-37 -26l-89 97l-120 -99l-33 27l95 123l-113 58l20 41l126 -31l38 139h42z" />
    <glyph glyph-name="plus" unicode="+" horiz-adv-x="569" 
d="M209 128l21 153h-146l11 81h146l22 150h83l-21 -150h147l-11 -81h-147l-22 -153h-83z" />
    <glyph glyph-name="comma" unicode="," horiz-adv-x="233" 
d="M56 104h102l-118 -232l-71 9z" />
    <glyph glyph-name="hyphen" unicode="-" horiz-adv-x="316" 
d="M9 253l12 83h271l-12 -83h-271z" />
    <glyph glyph-name="period" unicode="." horiz-adv-x="230" 
d="M150 65q0 -77 -78 -77q-60 0 -60 54q0 77 79 77q59 0 59 -54z" />
    <glyph glyph-name="slash" unicode="/" horiz-adv-x="379" 
d="M-51 -92l400 847h85l-399 -847h-86z" />
    <glyph glyph-name="zero" unicode="0" horiz-adv-x="588" 
d="M249 -12q-59 0 -97 17.5t-61 49t-32 76t-9 98.5q0 70 9 147q9 72 29 137.5t55 115t87 79t124 29.5q55 0 92.5 -17.5t60 -48.5t32 -73t9.5 -91q0 -34 -1.5 -68.5t-5.5 -69.5q-8 -80 -27.5 -149.5t-54 -121t-86 -81t-124.5 -29.5zM254 58q48 0 82.5 25.5t57.5 69.5
t36 101.5t20 122.5q3 34 5 65.5t2 60.5q0 17 -1 31.5t-3 28.5q-8 47 -32.5 74.5t-75.5 27.5q-46 0 -79.5 -24t-56.5 -64.5t-37 -95t-21 -114.5q-5 -35 -6.5 -67.5t-2.5 -62.5q0 -19 1 -36.5t3 -32.5q7 -52 31 -81t77 -29z" />
    <glyph glyph-name="one" unicode="1" horiz-adv-x="412" 
d="M150 0l85 601q-14 -8 -36 -14t-45.5 -10.5t-45 -6.5t-33.5 -2v71q71 6 123 25.5t92 59.5h51l-102 -724h-89z" />
    <glyph glyph-name="two" unicode="2" horiz-adv-x="528" 
d="M5 0l10 72l199 208q55 58 91.5 98.5t58.5 72t30.5 58.5t8.5 59q0 51 -25 74.5t-78 23.5q-54 0 -90.5 -30.5t-56.5 -97.5l-79 15q11 49 34.5 84t55 57t70 32.5t80.5 10.5q81 0 131 -39t50 -119q0 -45 -13 -83t-39.5 -76t-65.5 -79.5t-91 -94.5q-40 -42 -84 -85t-82 -85
h315l-11 -76h-419z" />
    <glyph glyph-name="three" unicode="3" horiz-adv-x="550" 
d="M327 737q87 0 132.5 -41t45.5 -110q0 -45 -15.5 -79.5t-40.5 -58.5t-56 -39.5t-62 -23.5l-1 -2q28 -6 53.5 -17.5t44 -30.5t29.5 -46t11 -66q0 -53 -18 -96t-51 -74t-80 -48t-105 -17q-92 0 -143 40t-56 126l82 17q1 -19 6 -39t17.5 -36t34 -26.5t57.5 -10.5
q31 0 60.5 9.5t53 29.5t37.5 52t14 76q0 34 -10.5 56.5t-29 36.5t-44 20t-55.5 6h-63l10 71h46q41 0 74.5 11.5t57.5 32.5t37 49.5t13 63.5q0 19 -5 36t-16.5 29.5t-30 20t-46.5 7.5q-32 0 -55 -7.5t-40 -21.5t-29 -33.5t-22 -44.5l-79 16q29 88 91.5 125t145.5 37z" />
    <glyph glyph-name="four" unicode="4" horiz-adv-x="557" 
d="M320 0l25 178h-335l9 66l373 480h118l-66 -470h85l-10 -76h-87l-25 -178h-87zM356 254l54 382l-296 -382h242z" />
    <glyph glyph-name="five" unicode="5" horiz-adv-x="541" 
d="M221 647l-58 -238q29 22 66 36.5t83 14.5q33 0 64 -9.5t55 -32t38.5 -58.5t14.5 -88q0 -62 -19 -114t-55 -90t-87 -59t-114 -21q-41 0 -76 10.5t-61 31.5t-41.5 52.5t-18.5 74.5l80 19q1 -18 7 -38.5t20 -37.5t37 -28t59 -11q31 0 62.5 10.5t57 34.5t41.5 63t16 96
q0 64 -29.5 93t-80.5 29q-40 0 -76 -16.5t-66 -42.5l-62 28l79 368h348l-11 -77h-273z" />
    <glyph glyph-name="six" unicode="6" horiz-adv-x="573" 
d="M472 558q-5 61 -31.5 84.5t-66.5 23.5q-50 0 -88 -29t-64 -73.5t-42 -98.5t-22 -104q15 15 35.5 29t45 25.5t52 18.5t55.5 7q84 0 127 -47.5t43 -126.5q0 -65 -19.5 -116.5t-54.5 -87.5t-82.5 -55.5t-103.5 -19.5q-57 0 -94.5 19.5t-60 53.5t-32 80.5t-9.5 101.5
q0 41 5.5 93.5t19.5 107t38 107.5t60.5 94t87 66.5t118.5 25.5q33 0 62 -9.5t51 -29.5t35.5 -50.5t15.5 -71.5zM153 286q-3 -32 -3 -62q0 -32 5 -61.5t17.5 -53t35 -37.5t58.5 -14q32 0 60.5 12.5t50 37t34 62t12.5 87.5q0 112 -100 112q-23 0 -46.5 -7t-45.5 -19t-42 -27
t-36 -30z" />
    <glyph glyph-name="seven" unicode="7" horiz-adv-x="512" 
d="M31 0l384 647h-357l11 77h456l-10 -69l-387 -655h-97z" />
    <glyph glyph-name="eight" unicode="8" horiz-adv-x="540" 
d="M357 377q25 -12 49 -26.5t42.5 -33.5t29.5 -44.5t11 -61.5q0 -48 -18.5 -89t-53 -70.5t-84 -46.5t-110.5 -17q-54 0 -93.5 13t-65.5 35.5t-39 52.5t-13 65q0 45 14 78.5t38.5 59.5t58 45.5t72.5 36.5q-44 23 -75 60.5t-31 93.5q0 51 20 90t53.5 65.5t79 40t96.5 13.5
q89 0 140 -39t51 -110q0 -36 -12.5 -66.5t-35 -56.5t-54.5 -48t-70 -40zM261 335q-39 -17 -68.5 -33.5t-49.5 -36.5t-30 -45t-10 -58q0 -44 30.5 -74.5t97.5 -30.5q43 0 74 13t51 33t29.5 45.5t9.5 50.5q0 30 -12 52t-31.5 37.5t-43.5 26.5t-47 20zM289 411
q74 40 112.5 77.5t38.5 87.5q0 46 -28 70.5t-85 24.5q-33 0 -60 -9.5t-46.5 -26.5t-30 -40.5t-10.5 -51.5q0 -24 8.5 -44.5t23.5 -36.5t35 -29t42 -22z" />
    <glyph glyph-name="nine" unicode="9" horiz-adv-x="573" 
d="M96 168q15 -109 112 -109q51 0 89.5 25t65.5 66t42.5 95t21.5 112q-14 -15 -36 -29t-48.5 -25.5t-55.5 -18.5t-57 -7q-42 0 -73 14t-51.5 38.5t-31 58t-10.5 72.5q0 65 19 116.5t53.5 87t81.5 54.5t103 19q55 0 93.5 -20.5t61.5 -55.5t33.5 -83t10.5 -103
q0 -105 -18.5 -194.5t-57.5 -154.5t-98 -101.5t-140 -36.5q-78 0 -128.5 37.5t-60.5 119.5zM428 432q2 17 3 33.5t1 33.5q0 31 -5 61.5t-18 54.5t-35.5 38.5t-57.5 14.5q-32 0 -61.5 -12.5t-52 -37.5t-36 -61.5t-13.5 -85.5q0 -123 99 -123q22 0 46.5 7t48 18.5t44.5 26.5
t37 32z" />
    <glyph glyph-name="colon" unicode=":" horiz-adv-x="249" 
d="M158 65q0 -77 -78 -77q-60 0 -60 54q0 77 79 77q59 0 59 -54zM219 444q0 -77 -78 -77q-60 0 -60 54q0 77 79 77q59 0 59 -54z" />
    <glyph glyph-name="semicolon" unicode=";" horiz-adv-x="265" 
d="M56 104h102l-118 -232l-71 9zM235 444q0 -77 -78 -77q-60 0 -60 54q0 77 79 77q59 0 59 -54z" />
    <glyph glyph-name="less" unicode="&#x3c;" 
d="M70 241l13 93l400 154l-11 -84l-316 -117l284 -113l-12 -80z" />
    <glyph glyph-name="equal" unicode="=" 
d="M69 159l12 83h374l-12 -83h-374zM92 321l12 83h373l-12 -83h-373z" />
    <glyph glyph-name="greater" unicode="&#x3e;" horiz-adv-x="569" 
d="M470 245l-399 -146l11 84l315 113l-283 115l11 77l358 -154z" />
    <glyph glyph-name="question" unicode="?" horiz-adv-x="511" 
d="M305 727q39 0 74 -9.5t61.5 -30.5t42.5 -54t16 -79q0 -59 -19 -102t-52.5 -72.5t-80 -47.5t-100.5 -27l-16 -119h-88l25 179q45 4 87.5 12.5t76 28t53.5 52.5t20 86q0 58 -32 83.5t-81 25.5q-24 0 -46.5 -5t-41.5 -18t-34.5 -35.5t-25.5 -57.5l-82 15q9 36 27.5 68
t48 55.5t70.5 37.5t97 14zM234 62q0 -74 -76 -74q-60 0 -60 52q0 36 19.5 55.5t57.5 19.5q59 0 59 -53z" />
    <glyph glyph-name="at" unicode="@" horiz-adv-x="842" 
d="M609 -100q-48 -38 -117.5 -56.5t-145.5 -18.5q-70 0 -129 20.5t-102 59.5t-67 96.5t-24 131.5q0 100 34.5 181t95 138.5t144 88.5t182.5 31q68 0 125.5 -18.5t99.5 -53.5t66 -85.5t24 -115.5q0 -76 -17.5 -133t-48.5 -94.5t-72 -56.5t-87 -19q-42 0 -66.5 15.5
t-32.5 40.5q-24 -26 -59.5 -43t-74.5 -17q-31 0 -53 12t-36 32t-20.5 47t-6.5 56q0 56 15.5 103t43 81.5t65.5 54t84 19.5q29 0 51.5 -10t37.5 -26l10 30h62l-44 -253q-2 -12 -3.5 -22.5t-1.5 -19.5q0 -19 9 -30t35 -11t50 15.5t42.5 45t29.5 73t11 99.5q0 106 -67.5 162
t-186.5 56q-86 0 -153 -28t-113 -77.5t-70 -116t-24 -144.5q0 -61 18.5 -107t52 -77.5t80.5 -47.5t104 -16q64 0 121.5 17t97.5 46zM503 306q-12 13 -29 21.5t-43 8.5q-27 0 -51.5 -11.5t-43 -35.5t-29 -59.5t-10.5 -83.5q0 -42 14 -67.5t49 -25.5q32 0 61 17.5t50 46.5z
" />
    <glyph glyph-name="A" unicode="A" horiz-adv-x="644" 
d="M435 724l145 -724h-96l-41 220h-267l-99 -220h-94l334 724h118zM367 645h-1l-159 -351h224z" />
    <glyph glyph-name="B" unicode="B" horiz-adv-x="612" 
d="M51 0l99 724h244q54 0 90.5 -11.5t58 -32t31 -48.5t9.5 -60q0 -45 -14 -78.5t-37 -57t-53.5 -38t-63.5 -21.5v-2q75 -10 110 -49.5t35 -101.5q0 -63 -21.5 -106t-60 -69t-91.5 -37.5t-116 -11.5h-220zM269 71q42 0 78.5 5.5t62.5 22t41 46t15 78.5q0 37 -15 59
t-40.5 33.5t-58.5 15t-70 3.5h-97l-35 -263h119zM296 406q31 0 65 6t62.5 22.5t47 46.5t18.5 78q0 32 -11.5 50.5t-33 28t-53.5 12t-73 2.5h-90l-33 -246h101z" />
    <glyph glyph-name="C" unicode="C" horiz-adv-x="671" 
d="M617 201q-17 -60 -48 -100.5t-71 -65.5t-87 -36t-96 -11q-71 0 -121.5 21.5t-83 60t-48 92t-15.5 118.5q0 107 27.5 191.5t78 143.5t120 90.5t153.5 31.5q57 0 102 -16.5t76 -48.5t46 -79t12 -108l-85 -8q1 43 -7 77t-26.5 58t-49 36.5t-74.5 12.5q-62 0 -113 -24
t-88 -71.5t-57.5 -117t-20.5 -159.5q0 -119 49 -173t140 -54q83 0 130.5 38.5t75.5 116.5z" />
    <glyph glyph-name="D" unicode="D" horiz-adv-x="707" 
d="M51 0l99 724h215q80 0 138 -20.5t95 -58t54.5 -91.5t17.5 -120q0 -93 -25 -172.5t-76.5 -137.5t-130.5 -91t-188 -33h-199zM259 74q153 0 235.5 92t82.5 268q0 60 -15.5 101.5t-45 67t-72 36.5t-96.5 11h-118l-79 -576h108z" />
    <glyph glyph-name="E" unicode="E" horiz-adv-x="557" 
d="M51 0l99 724h409l-9 -75h-321l-33 -247h300l-11 -75h-300l-34 -252h333l-11 -75h-422z" />
    <glyph glyph-name="F" unicode="F" horiz-adv-x="530" 
d="M140 0h-89l99 724h409l-9 -75h-321l-35 -258h295l-9 -74h-296z" />
    <glyph glyph-name="G" unicode="G" horiz-adv-x="706" 
d="M595 0h-66l2 96q-13 -23 -36 -43t-53.5 -34.5t-65.5 -22.5t-72 -8q-68 0 -116.5 21.5t-79.5 60.5t-46 93.5t-15 120.5q0 106 27.5 190t77.5 142.5t120.5 89.5t156.5 31q56 0 100.5 -14t75 -43.5t45.5 -75t12 -107.5l-85 -9q4 91 -35 132.5t-120 41.5q-65 0 -117 -26
t-88.5 -74.5t-56 -117.5t-19.5 -156q0 -64 14 -107.5t38.5 -70t59 -38t76.5 -11.5q47 0 84.5 16t65 41.5t43.5 57.5t21 64l9 68h-186l10 68h271z" />
    <glyph glyph-name="H" unicode="H" horiz-adv-x="704" 
d="M569 0h-89l44 334h-340l-44 -334h-90l99 724h89l-43 -314h340l43 314h90z" />
    <glyph glyph-name="I" unicode="I" horiz-adv-x="274" 
d="M51 0l99 724h89l-99 -724h-89z" />
    <glyph glyph-name="J" unicode="J" horiz-adv-x="497" 
d="M380 724h89l-73 -548q-7 -53 -25.5 -89t-46 -58t-63.5 -31.5t-78 -9.5q-84 0 -129 41t-47 126l84 14q3 -24 8 -43.5t15.5 -34t27.5 -22.5t45 -8q22 0 41.5 5t35 18t26 35.5t15.5 58.5z" />
    <glyph glyph-name="K" unicode="K" horiz-adv-x="624" 
d="M191 372l356 352h107l-318 -313l232 -411h-104l-198 346l-90 -88l-36 -258h-89l99 724h89z" />
    <glyph glyph-name="L" unicode="L" horiz-adv-x="534" 
d="M51 0l99 724h89l-88 -648h316l-11 -76h-405z" />
    <glyph glyph-name="M" unicode="M" horiz-adv-x="868" 
d="M734 0h-85l86 629h-1l-296 -629h-95l-122 630h-1l-86 -630h-83l99 724h135l119 -622h2l290 622h137z" />
    <glyph glyph-name="N" unicode="N" horiz-adv-x="720" 
d="M478 0l-259 614l-85 -614h-83l99 724h118l251 -608l84 608h82l-99 -724h-108z" />
    <glyph glyph-name="O" unicode="O" horiz-adv-x="735" 
d="M327 -12q-74 0 -126.5 22.5t-87 63t-50.5 95.5t-16 121q0 95 24.5 177t72.5 142t119.5 94t165.5 34q72 0 124 -23t85 -62.5t48.5 -93.5t15.5 -116q0 -103 -25.5 -186.5t-73.5 -143t-117.5 -92t-158.5 -32.5zM336 65q60 0 110 25.5t85.5 73t55 115.5t19.5 154q0 53 -12 95
q-18 64 -62 98t-114 34q-62 0 -112.5 -25t-87.5 -72t-57 -114t-20 -152q0 -27 3.5 -51.5t8.5 -45.5q18 -66 63.5 -100.5t119.5 -34.5z" />
    <glyph glyph-name="P" unicode="P" horiz-adv-x="596" 
d="M139 0h-88l99 724h214q60 0 102 -14.5t68.5 -39.5t38.5 -57.5t12 -69.5q0 -140 -80 -208.5t-223 -68.5h-106zM285 340q43 0 81 8.5t65.5 30t43.5 59t16 94.5q0 35 -12 58t-34 36.5t-53.5 18.5t-71.5 5h-92l-42 -310h99z" />
    <glyph glyph-name="Q" unicode="Q" horiz-adv-x="735" 
d="M325 -12q-74 0 -126.5 22.5t-87 63t-50.5 95.5t-16 121q0 95 24.5 177t72.5 142t119.5 94t165.5 34q72 0 124 -23t85 -62.5t48.5 -93.5t15.5 -116q0 -158 -57.5 -267.5t-165.5 -156.5q33 -43 79.5 -72t110.5 -35l-19 -73q-38 1 -75.5 15.5t-71.5 36.5t-61 49t-44 55
q-33 -6 -71 -6zM334 65q60 0 110 25.5t86 73t55.5 115.5t19.5 154q0 26 -3.5 50t-9.5 45q-17 64 -61 98t-115 34q-62 0 -112.5 -25t-87.5 -72t-57 -114t-20 -152q0 -27 3.5 -51.5t9.5 -45.5q17 -66 62.5 -100.5t119.5 -34.5z" />
    <glyph glyph-name="R" unicode="R" horiz-adv-x="617" 
d="M555 0h-98l-118 305h-158l-42 -305h-88l99 724h228q62 0 103 -14.5t66 -38.5t35 -55.5t10 -65.5q0 -88 -42.5 -141.5t-123.5 -82.5zM302 377q42 0 78 8.5t62 28.5t41 52.5t15 80.5q0 30 -10.5 50t-30 32t-46.5 16.5t-61 4.5h-122l-37 -273h111z" />
    <glyph glyph-name="S" unicode="S" horiz-adv-x="566" 
d="M465 521q0 27 -5 52.5t-19 46t-39 32.5t-66 12q-42 0 -72.5 -10.5t-50 -28.5t-29 -42.5t-9.5 -51.5q0 -29 13 -49t34 -34t48.5 -24t56.5 -20q33 -11 66 -24t60 -33.5t43.5 -51.5t16.5 -78q0 -60 -22.5 -103.5t-59.5 -71.5t-86 -41t-101 -13q-112 0 -172.5 52t-64.5 157
l85 11q3 -29 10.5 -55t24.5 -46t46.5 -32t76.5 -12q28 0 58 6.5t55 22.5t40.5 43.5t15.5 68.5q0 29 -11 48.5t-30 33.5t-43.5 23.5t-51.5 18.5q-35 11 -71 23.5t-65 33t-47 53t-18 83.5q0 50 19 90t53.5 68t81.5 43t104 15q46 0 85.5 -11t68 -35.5t43.5 -63.5t14 -96z" />
    <glyph glyph-name="T" unicode="T" horiz-adv-x="537" 
d="M182 0l88 648h-212l10 76h513l-11 -76h-211l-88 -648h-89z" />
    <glyph glyph-name="U" unicode="U" horiz-adv-x="693" 
d="M596 242q-18 -131 -91.5 -192.5t-198.5 -61.5q-137 0 -190.5 65.5t-36.5 192.5l65 478h90l-64 -473q-14 -101 22 -144t119 -43q42 0 75.5 9.5t58 31.5t40 57.5t22.5 86.5l65 475h89z" />
    <glyph glyph-name="V" unicode="V" horiz-adv-x="601" 
d="M199 0l-137 724h96l113 -640h2l276 640h95l-322 -724h-123z" />
    <glyph glyph-name="W" unicode="W" horiz-adv-x="880" 
d="M547 0l-67 602h-1l-232 -602h-113l-55 724h93l35 -621h1l238 621h102l70 -629h1l200 629h89l-246 -724h-115z" />
    <glyph glyph-name="X" unicode="X" horiz-adv-x="605" 
d="M447 0l-152 299l-224 -299h-100l280 372l-169 352h100l135 -289l216 289h96l-268 -356l188 -368h-102z" />
    <glyph glyph-name="Y" unicode="Y" horiz-adv-x="542" 
d="M317 283q-10 -71 -19 -141t-20 -142h-90l39 281l-179 443h94l139 -358h1l229 358h95l-289 -441v0z" />
    <glyph glyph-name="Z" unicode="Z" horiz-adv-x="560" 
d="M-7 0l8 63l452 586h-362l11 75h471l-10 -65l-448 -584h385l-11 -75h-496z" />
    <glyph glyph-name="bracketleft" unicode="[" horiz-adv-x="272" 
d="M2 -143l122 867h168l-9 -64h-82l-104 -738h82l-8 -65h-169z" />
    <glyph glyph-name="backslash" unicode="\" horiz-adv-x="379" 
d="M235 -92l-161 847h82l162 -847h-83z" />
    <glyph glyph-name="bracketright" unicode="]" horiz-adv-x="272" 
d="M259 723.991l-121.992 -866.947h-167.99l9 63.9961h81.9951l103.993 737.955h-81.9951l8 64.9961h168.989z" />
    <glyph glyph-name="asciicircum" unicode="^" horiz-adv-x="571" 
d="M440 299l-158 285l-155 -285h-87l197 365h93l200 -365h-90z" />
    <glyph glyph-name="underscore" unicode="_" horiz-adv-x="500" 
d="M-10 -181v68h500v-68h-500z" />
    <glyph glyph-name="grave" unicode="`" horiz-adv-x="499" 
d="M347 572l-116 175h108l74 -163z" />
    <glyph glyph-name="a" unicode="a" horiz-adv-x="587" 
d="M469 97q-3 -21 1.5 -32t23.5 -11q7 0 14 1t18 4l-6 -55q-11 -5 -27.5 -7.5t-31.5 -2.5q-36 0 -56 16.5t-19 56.5q-32 -35 -79.5 -57t-98.5 -22q-36 0 -66.5 11.5t-52.5 35.5t-34.5 61.5t-12.5 90.5q0 63 15 124t46 108t78 76t112 29q45 0 82 -17t61 -38l8 45h84zM423 399
q-20 19 -53.5 34.5t-71.5 15.5q-47 0 -78.5 -25t-50.5 -63t-27 -82.5t-8 -83.5q0 -74 26.5 -104t72.5 -30q18 0 35.5 3.5t36 12t38.5 23t43 35.5z" />
    <glyph glyph-name="b" unicode="b" horiz-adv-x="585" 
d="M39 0l106 755h89l-44 -308q39 30 84 53.5t102 23.5q34 0 62.5 -10.5t49.5 -34t32.5 -60.5t11.5 -90q0 -89 -20.5 -153.5t-54.5 -106t-78.5 -61.5t-91.5 -20q-48 0 -86 16t-69 42h-1l-9 -46h-83zM146 116q7 -7 19.5 -16t28.5 -17t36 -13.5t44 -5.5q46 0 77 22t50.5 58
t28 82.5t8.5 95.5q0 66 -22 96.5t-68 30.5q-22 0 -46 -7.5t-46.5 -19t-41.5 -25t-32 -24.5z" />
    <glyph glyph-name="c" unicode="c" horiz-adv-x="535" 
d="M247 -12q-54 0 -93.5 16t-64.5 44.5t-37 68.5t-12 88q0 76 21 135.5t58 100.5t88.5 62t112.5 21q46 0 80.5 -15t57 -42t32 -64t5.5 -80l-83 -6q1 30 -2.5 55t-15 42.5t-32 27t-52.5 9.5q-30 0 -61.5 -11.5t-56.5 -39.5t-41 -74.5t-16 -116.5q0 -41 9.5 -69.5t25.5 -46
t38 -25.5t46 -8q52 0 87.5 27t52.5 82l79 -15q-11 -44 -33 -75t-51.5 -51.5t-66 -30t-75.5 -9.5z" />
    <glyph glyph-name="d" unicode="d" horiz-adv-x="577" 
d="M380 0l5 59v1q-36 -30 -80.5 -51t-93.5 -21q-76 0 -122 47t-46 149q0 93 22.5 157.5t58.5 105t81.5 59t91.5 18.5q45 0 79.5 -15.5t59.5 -37.5l39 284h90l-106 -755h-79zM424 405q-16 14 -46 30.5t-71 16.5q-47 0 -79.5 -22.5t-53 -59.5t-30 -84.5t-9.5 -96.5
q0 -60 21.5 -92.5t70.5 -34.5q30 0 60 9q29 9 54.5 25t44.5 33z" />
    <glyph glyph-name="e" unicode="e" horiz-adv-x="517" 
d="M242 -12q-56 0 -94.5 18t-62 48.5t-34 71t-10.5 86.5q0 63 18.5 119.5t53.5 99.5t86 68t117 25q42 0 73 -10.5t51.5 -28.5t30.5 -42.5t10 -51.5q0 -32 -10 -57.5t-28 -45t-42.5 -33.5t-53.5 -23t-59 -14.5t-58.5 -9t-54 -5t-43.5 -2.5q0 -26 4.5 -51.5t18 -45.5t37.5 -32
t64 -12q55 0 87 28t44 68l75 -17q-23 -77 -83 -114t-137 -37zM310 455q-39 0 -69.5 -15t-52 -40.5t-34.5 -59t-18 -70.5q9 0 28 1.5t43.5 4t51.5 7.5t53 13q38 12 60 33.5t22 57.5q0 34 -22.5 51t-61.5 17z" />
    <glyph glyph-name="f" unicode="f" horiz-adv-x="320" 
d="M393 680q-14 5 -33.5 9t-37.5 4q-35 0 -59 -18.5t-32 -72.5l-12 -88h143l-10 -67h-143l-93 -659h-91l93 659h-76l10 67h76l12 86q11 85 56 125t117 40q33 0 57.5 -6t35.5 -12z" />
    <glyph glyph-name="g" unicode="g" horiz-adv-x="563" 
d="M291 449q-46 0 -77.5 -23.5t-50.5 -59.5t-27 -78.5t-8 -80.5q0 -71 26.5 -100t70.5 -29q19 0 37.5 3t37.5 11t39.5 21.5t42.5 35.5l34 251q-19 20 -53 34.5t-72 14.5zM377 75q-33 -33 -80.5 -52t-97.5 -19q-36 0 -66 11t-51.5 35t-33.5 61t-12 89q0 54 13 111.5
t42.5 104.5t77.5 77.5t118 30.5q44 0 82 -17t62 -40l9 47h82l-76 -544q-14 -95 -75 -144t-164 -49q-90 0 -143.5 38t-61.5 123l85 14q2 -22 8 -40.5t19.5 -32.5t36 -22t55.5 -8q27 0 52.5 6t46 20.5t35 38t20.5 58.5z" />
    <glyph glyph-name="h" unicode="h" horiz-adv-x="582" 
d="M130 0h-91l106 755h90l-46 -312q15 13 35.5 27t45 26t52 20t57.5 8q78 0 113 -43.5t23 -132.5l-48 -348h-91l47 338q8 59 -10 84.5t-60 25.5q-49 0 -91 -24.5t-80 -53.5z" />
    <glyph glyph-name="i" unicode="i" horiz-adv-x="247" 
d="M128 0h-91l72 514h91zM244 689q0 -35 -19.5 -54.5t-54.5 -19.5q-27 0 -41.5 14t-14.5 39q0 35 19.5 54.5t54.5 19.5q56 0 56 -53z" />
    <glyph glyph-name="j" unicode="j" horiz-adv-x="247" 
d="M109 514h91l-82 -585q-12 -81 -51.5 -116.5t-110.5 -35.5q-12 0 -27 1.5t-29 4.5t-25.5 7t-17.5 8l19 67q15 -6 34 -10.5t38 -4.5q31 0 51.5 17t27.5 64zM244 689q0 -35 -20 -54.5t-55 -19.5q-27 0 -41.5 14t-14.5 39q0 35 20 54.5t54 19.5q27 0 42 -13.5t15 -39.5z" />
    <glyph glyph-name="k" unicode="k" horiz-adv-x="522" 
d="M367 0l-120 267l-91 -80l-26 -187h-91l106 755h91l-66 -466l248 225h108l-204 -186l145 -328h-100z" />
    <glyph glyph-name="l" unicode="l" horiz-adv-x="247" 
d="M143 755h91l-106 -755h-91z" />
    <glyph glyph-name="m" unicode="m" horiz-adv-x="865" 
d="M371 524q54 0 82.5 -21t36.5 -60q39 32 86 56.5t101 24.5q43 0 69 -12.5t39.5 -35.5t16 -55.5t-3.5 -71.5l-48 -349h-91l47 337q6 30 4 54q-2 28 -16 42t-47 14q-21 0 -42.5 -7.5t-41.5 -18t-37.5 -23.5t-30.5 -23l-52 -375h-91l48 337q2 16 3.5 29.5t-0.5 24.5
q-1 28 -14.5 42t-46.5 14q-22 0 -45.5 -8t-45 -20t-39.5 -25t-30 -23l-52 -371h-91l72 514h84l-11 -74h1q39 32 85.5 58t100.5 26z" />
    <glyph glyph-name="n" unicode="n" horiz-adv-x="582" 
d="M130 0h-91l72 514h86l-11 -71h1q15 13 35.5 27.5t45.5 26.5t53.5 19.5t59.5 7.5q75 0 110.5 -43.5t23.5 -132.5l-48 -348h-91l47 338q8 57 -9.5 83.5t-59.5 26.5q-25 0 -49.5 -8t-47 -19.5t-42 -25t-33.5 -24.5z" />
    <glyph glyph-name="o" unicode="o" horiz-adv-x="577" 
d="M247 -12q-54 0 -93.5 15t-64.5 42.5t-37 66t-12 85.5q0 17 1 33t3 32q8 58 29.5 106.5t56.5 83t83 53.5t110 19q55 0 93.5 -16t62.5 -44.5t34.5 -66.5t10.5 -82q0 -17 -1 -32.5t-3 -32.5q-15 -122 -84 -192t-189 -70zM255 57q69 0 115 49.5t58 150.5q3 30 3 59
q0 135 -119 135q-70 0 -117.5 -47.5t-59.5 -146.5q-3 -27 -3 -56q0 -71 30.5 -107.5t92.5 -36.5z" />
    <glyph glyph-name="p" unicode="p" horiz-adv-x="585" 
d="M186 444q38 31 86 55.5t104 24.5q34 0 63 -10.5t50 -34t32.5 -60.5t11.5 -90q0 -90 -21 -154.5t-56 -106t-80.5 -61t-94.5 -19.5q-48 0 -85.5 16.5t-62.5 38.5l-36 -255h-88l102 726h86zM438 322q0 69 -21.5 98t-66.5 29q-22 0 -46.5 -7.5t-47 -19t-42 -24.5t-32.5 -24
l-36 -259q7 -6 19.5 -15t28.5 -17.5t35.5 -14t40.5 -5.5q48 0 80.5 22.5t52 59t27.5 83t8 94.5z" />
    <glyph glyph-name="q" unicode="q" horiz-adv-x="574" 
d="M297 524q45 0 80.5 -16t60.5 -39l7 45h85l-102 -726h-86l39 268q-35 -28 -79 -48t-93 -20q-75 0 -120.5 46t-45.5 147q0 94 22 159.5t58 106.5t81.5 59t92.5 18zM135 195q0 -64 22 -98t75 -34q44 0 85.5 20.5t68.5 46.5l38 277q-15 14 -45.5 29.5t-71.5 15.5
q-47 0 -79.5 -21.5t-53 -57t-30 -82t-9.5 -96.5z" />
    <glyph glyph-name="r" unicode="r" horiz-adv-x="365" 
d="M130 0h-91l72 514h84l-11 -87q40 44 77.5 70t90.5 26h12t12 -1l-13 -90q-51 5 -94.5 -15t-88.5 -59z" />
    <glyph glyph-name="s" unicode="s" horiz-adv-x="486" 
d="M268 524q46 0 79 -12t54.5 -33t32.5 -50t13 -63l-77 -11q-2 43 -25 73t-79 30q-30 0 -50.5 -6.5t-33 -17.5t-18 -25t-5.5 -29q0 -18 7.5 -31t20.5 -22.5t30 -16t36 -12.5q28 -8 58 -17t54.5 -24.5t40 -40.5t15.5 -65q0 -39 -15 -69.5t-42.5 -51t-66 -31.5t-84.5 -11
q-91 0 -137.5 39.5t-53.5 116.5l75 17q3 -22 9.5 -41t20 -33.5t36 -22.5t55.5 -8q20 0 40.5 4t37 13t26.5 25t10 40q0 20 -8.5 34t-22.5 23.5t-32.5 16t-39.5 12.5q-27 7 -55 16t-50.5 24t-36.5 40t-14 64q0 41 16.5 70.5t44 48.5t62.5 28t72 9z" />
    <glyph glyph-name="t" unicode="t" horiz-adv-x="381" 
d="M332 20q-21 -13 -55.5 -22.5t-69.5 -9.5q-74 0 -107.5 35.5t-22.5 112.5l44 311h-80l9 67h80l21 148l92 13l-22 -161h141l-9 -67h-141l-43 -301q-3 -20 -2.5 -36.5t6.5 -28t19 -17.5t36 -6q25 0 50 8t42 18z" />
    <glyph glyph-name="u" unicode="u" horiz-adv-x="580" 
d="M440 514h91l-72 -514h-82l9 68q-15 -14 -36 -27.5t-46 -25t-53.5 -18.5t-57.5 -7q-78 0 -112 44t-22 133l48 347h91l-47 -338q-2 -17 -2.5 -31t1.5 -25q3 -30 21 -43t51 -13q46 0 90 22.5t76 50.5z" />
    <glyph glyph-name="v" unicode="v" horiz-adv-x="500" 
d="M155 0l-116 514h97l83 -427h1l202 427h93l-257 -514h-103z" />
    <glyph glyph-name="w" unicode="w" horiz-adv-x="754" 
d="M119 0l-80 514h90l58 -422l170 422h97l53 -420l172 420h91l-224 -514h-107l-49 410l-162 -410h-109z" />
    <glyph glyph-name="x" unicode="x" horiz-adv-x="475" 
d="M322 0l-103 201l-150 -201h-94l203 268l-132 246h94l99 -190l145 190h95l-198 -252l137 -262h-96z" />
    <glyph glyph-name="y" unicode="y" horiz-adv-x="479" 
d="M40 514h95l74 -414l192 414h95l-271 -546q-27 -54 -48.5 -90.5t-44 -59t-48.5 -32t-61 -9.5q-29 0 -52 5.5t-37 12.5l16 66q14 -6 32.5 -10.5t38.5 -4.5q18 0 33 7.5t29.5 25t30 46.5t34.5 71z" />
    <glyph glyph-name="z" unicode="z" horiz-adv-x="455" 
d="M-8 0l9 60l330 385h-274l10 69h379l-9 -61l-327 -382h287l-11 -71h-394z" />
    <glyph glyph-name="braceleft" unicode="{" horiz-adv-x="305" 
d="M25 322q61 0 82 59q5 16 7.5 39t4.5 49t3.5 54t3.5 54q4 42 13.5 72t28.5 49.5t48 29t73 9.5h48l-9 -68h-38q-34 0 -49 -14.5t-19 -45.5q-4 -33 -6 -74.5t-6 -79.5q-5 -45 -13 -73.5t-20 -46t-27.5 -27.5t-34.5 -17v-1q12 -5 22.5 -11.5t19 -17t13 -26t4.5 -37.5
q0 -27 -6.5 -58.5t-14.5 -62.5t-14.5 -58.5t-6.5 -48.5q0 -24 14 -36.5t48 -12.5h27l-9 -66h-53q-63 0 -91.5 24t-30.5 65q-1 7 -0.5 14t1.5 15q3 26 9.5 54.5t14 57t13 56t5.5 50.5q0 37 -17 52t-46 15h-19l10 64h17z" />
    <glyph glyph-name="bar" unicode="|" horiz-adv-x="280" 
d="M37 -143l126 898h82l-126 -898h-82z" />
    <glyph glyph-name="braceright" unicode="}" horiz-adv-x="306" 
d="M267 270q-61 0 -82 -59q-5 -16 -7.5 -39t-4.5 -49t-3.5 -54t-3.5 -54q-4 -42 -13.5 -72t-28.5 -49.5t-48 -29t-73 -9.5h-48l9 68h38q34 0 49 14.5t19 45.5q4 33 6 74.5t6 79.5q5 45 13 73.5t20 46t27.5 27.5t34.5 17v1q-12 5 -22.5 11.5t-19 17t-13 26t-4.5 37.5
q0 27 6.5 58.5t14.5 62.5t14.5 58.5t6.5 48.5q0 24 -14 36.5t-48 12.5h-27l9 66h53q63 0 91.5 -24t30.5 -65q1 -7 0.5 -14t-1.5 -15q-3 -26 -9.5 -54.5t-14 -57t-13 -56t-5.5 -50.5q0 -37 17 -52t46 -15h19l-10 -64h-17z" />
    <glyph glyph-name="asciitilde" unicode="~" horiz-adv-x="517" 
d="M157 418q24 0 57.5 -7t67.5 -16t64 -16t47 -7q19 0 28 9.5t9 42.5l58 -3q7 -62 -19 -91.5t-68 -29.5q-23 0 -57 7t-68.5 16t-65 16t-47.5 7q-16 0 -26.5 -11t-8.5 -43l-58 2q-4 31 1.5 54.5t18 39t30 23t37.5 7.5z" />
    <glyph glyph-name="uni00A0" unicode="&#xa0;" horiz-adv-x="214" 
 />
    <glyph glyph-name="exclamdown" unicode="&#xa1;" horiz-adv-x="266" 
d="M182.005 325.012l-57.9971 -536.968h-100.993l90.9941 536.968h67.9961zM99.0098 450.004q0 73.9951 75.9951 73.9951q59.9961 0 59.9961 -51.9971q0 -35.9971 -19.998 -55.4961q-19.999 -19.499 -56.9971 -19.499q-58.9961 0 -58.9961 52.9971z" />
    <glyph glyph-name="cent" unicode="&#xa2;" horiz-adv-x="516" 
d="M358 699l-14 -99q69 -10 105 -59t30 -121l-82 -5q2 45 -13 75.5t-53 39.5l-51 -352q40 7 64 31t37 68l75 -15q-18 -71 -69 -108.5t-116 -45.5l-14 -108h-72l15 110q-80 11 -116 64.5t-36 135.5q0 65 16.5 116.5t46.5 88t71 58.5t90 28l14 98h72zM139 312q0 -58 19 -89.5
t53 -41.5l50 348q-24 -6 -46.5 -20.5t-39 -40.5t-26.5 -64.5t-10 -91.5z" />
    <glyph glyph-name="sterling" unicode="&#xa3;" horiz-adv-x="561" 
d="M44 74q55 44 81.5 86.5t26.5 91.5q0 34 -13 71h-103l10 71h77q-8 20 -17.5 54.5t-9.5 72.5q0 48 18.5 88t51.5 68.5t78.5 44t99.5 15.5q98 0 147.5 -46t47.5 -146l-83 -7q0 30 -5 53.5t-17.5 40t-34.5 25.5t-56 9q-33 0 -61 -8.5t-49 -26.5t-33 -45.5t-12 -66.5
q0 -36 9 -69t18 -56h225l-10 -71h-200q5 -15 6.5 -32t1.5 -32q0 -103 -98 -185h172q58 0 86 25.5t45 84.5l79 -15q-22 -90 -74.5 -129.5t-140.5 -39.5h-327l10 74h54z" />
    <glyph glyph-name="currency" unicode="&#xa4;" 
d="M460 5l-89 90q-26 -18 -58.5 -28t-73.5 -10q-43 0 -76 10.5t-58 29.5l-49.5 -49.5t-43.5 -42.5l-53 57l97 94q-15 25 -21.5 56t-6.5 63q0 68 35 124l-90 92l62 59l86 -89q27 20 61.5 32t76.5 12t75.5 -10.5t59.5 -30.5l87 85l52 -57l-90 -88q28 -50 28 -112
q0 -76 -40 -136l91 -93zM248 131q33 0 57.5 12t41.5 33t25.5 49t8.5 60q0 67 -32.5 105.5t-98.5 38.5q-33 0 -57.5 -11.5t-41.5 -31.5t-25.5 -47.5t-8.5 -60.5q0 -31 7.5 -57.5t23.5 -46.5t40.5 -31.5t59.5 -11.5z" />
    <glyph glyph-name="yen" unicode="&#xa5;" horiz-adv-x="530" 
d="M285 200l-28 -200h-92l27 200h-130l12 69h128l12 88h-132l11 67h95l-126 300h96l113 -295h1l182 295h98l-199 -300h97l-11 -67h-131l-1 -2l-12 -86h136l-10 -69h-136z" />
    <glyph glyph-name="brokenbar" unicode="&#xa6;" horiz-adv-x="280" 
d="M37 -143l55 388h82l-55 -388h-82zM115 412l48 343h82l-48 -343h-82z" />
    <glyph glyph-name="section" unicode="&#xa7;" horiz-adv-x="556" 
d="M340 641q-67 0 -101.5 -33.5t-34.5 -81.5q0 -37 22 -58t55.5 -34.5t72.5 -24t72.5 -27t55.5 -43t22 -72.5q0 -54 -31.5 -95.5t-88.5 -79.5q19 -17 34 -44t15 -60q0 -50 -17 -87.5t-47 -63t-70.5 -38.5t-88.5 -13q-97 0 -149.5 46.5t-51.5 133.5l86 11q0 -26 5.5 -48
t19 -38.5t36 -26t56.5 -9.5q60 0 95 32.5t35 82.5q0 37 -22.5 57.5t-56 34t-73 24t-73 27.5t-56 45.5t-22.5 77.5q0 50 29 87.5t91 79.5q-23 18 -36 45.5t-13 64.5q0 49 19 85.5t51.5 61t74.5 37t88 12.5q96 0 145.5 -46t43.5 -134l-86 -11q3 60 -21 91.5t-85 31.5zM127 251
q0 -30 18.5 -47.5t48 -29t64.5 -21t68 -22.5q39 23 64 51t25 67q0 28 -19 44.5t-48.5 27.5t-65 20.5t-68.5 23.5q-35 -23 -61 -51t-26 -63z" />
    <glyph glyph-name="dieresis" unicode="&#xa8;" horiz-adv-x="499" 
d="M184 669q0 31 20.5 49.5t52.5 18.5q25 0 39.5 -14t14.5 -37q0 -32 -20 -50t-51 -18q-26 0 -41 13.5t-15 37.5zM393 669q0 31 20.5 49.5t52.5 18.5q26 0 40 -14t14 -37q0 -32 -20 -50t-50 -18q-26 0 -41.5 13.5t-15.5 37.5z" />
    <glyph glyph-name="copyright" unicode="&#xa9;" horiz-adv-x="771" 
d="M719 325q0 -76 -24.5 -138t-69 -106.5t-106.5 -68.5t-137 -24q-83 0 -146 24.5t-105 68t-63.5 102.5t-21.5 128q0 79 26.5 141t72.5 105t107.5 66t131.5 23q78 0 140 -22.5t105.5 -64.5t66.5 -101.5t23 -132.5zM384 41q64 0 115 19t87 55t55 87.5t19 116.5
q0 67 -20.5 118.5t-57 86t-87.5 52.5t-111 18q-59 0 -110 -19t-88 -55t-58 -88.5t-21 -119.5q0 -63 19 -113.5t54.5 -85.5t87 -53.5t116.5 -18.5zM541 253q-5 -39 -21.5 -64t-38 -39t-46.5 -19.5t-47 -5.5q-48 0 -82.5 14.5t-56.5 41t-32 62t-10 77.5t12 78t35 61.5t57 40
t78 14.5q29 0 55 -7t45.5 -22t32 -39.5t14.5 -59.5l-59 -8q-4 43 -25 64t-64 21q-23 0 -44 -8t-36.5 -25t-24.5 -44.5t-9 -67.5q0 -29 6.5 -55t20 -45.5t34.5 -30.5t50 -11q49 0 70.5 22t30.5 64z" />
    <glyph glyph-name="ordfeminine" unicode="&#xaa;" horiz-adv-x="408" 
d="M350 352q-2 -14 1 -20.5t15 -6.5q10 0 22 4l-5 -43q-8 -4 -21.5 -6t-25.5 -2q-55 0 -56 45q-21 -22 -51 -35t-64 -13q-50 0 -81.5 30.5t-31.5 98.5q0 45 11 85t33 69.5t53 46.5t72 17q29 0 53 -10.5t40 -24.5l5 29h70zM303 536q-11 11 -31 19.5t-42 8.5q-29 0 -48.5 -15
t-31 -37.5t-16.5 -49.5t-5 -50q0 -43 16.5 -61.5t45.5 -18.5q20 0 42.5 10t45.5 33z" />
    <glyph glyph-name="guillemotleft" unicode="&#xab;" horiz-adv-x="439" 
d="M117 103l-65 156l110 149h82l-105 -146l60 -159h-82zM277 103l-65 156l110 149h82l-105 -146l60 -159h-82z" />
    <glyph glyph-name="logicalnot" unicode="&#xac;" 
d="M385 191l3 94h-296l3 81h377l-6 -175h-81z" />
    <glyph glyph-name="uni00AD" unicode="&#xad;" horiz-adv-x="311" 
d="M13 253l12 83h271l-12 -83h-271z" />
    <glyph glyph-name="registered" unicode="&#xae;" horiz-adv-x="451" 
d="M428 478q0 -41 -13.5 -75t-38 -58.5t-59 -38t-75.5 -13.5q-46 0 -80.5 13.5t-58 37.5t-35.5 56.5t-12 70.5q0 43 14.5 78t40 59t59.5 37t73 13q86 0 135.5 -49t49.5 -131zM386 475q0 71 -40.5 107.5t-102.5 36.5q-30 0 -56.5 -10t-46 -28.5t-30.5 -46t-11 -62.5
q0 -66 38.5 -103t105.5 -37q66 0 104.5 38.5t38.5 104.5zM332 383h-42l-44 75h-25v-75h-40v191h68q40 0 53 -16.5t13 -37.5q0 -20 -9.5 -32t-24.5 -18zM234 488q17 0 29 5.5t12 24.5q0 16 -9.5 21t-25.5 5h-19v-56h13z" />
    <glyph glyph-name="macron" unicode="&#xaf;" horiz-adv-x="500" 
d="M212 696h291l-10 -69h-291z" />
    <glyph glyph-name="degree" unicode="&#xb0;" horiz-adv-x="313" 
d="M179 578q26 0 40 16t15 44t-13 43t-39 15t-41 -16t-16 -47q0 -26 14 -40.5t40 -14.5zM292 641q0 -54 -31.5 -84.5t-83.5 -30.5q-51 0 -80.5 28t-29.5 77q0 57 34.5 87t82.5 30q47 0 77.5 -27.5t30.5 -79.5z" />
    <glyph glyph-name="plusminus" unicode="&#xb1;" horiz-adv-x="569" 
d="M41 0l11 80h377l-11 -80h-377zM206 135l21 146h-147l12 81h147l20 150h84l-21 -150h147l-12 -81h-147l-20 -146h-84z" />
    <glyph glyph-name="twosuperior" unicode="&#xb2;" horiz-adv-x="360" 
d="M34 349l10 66l121 118q34 33 56.5 56t35.5 40.5t18 32t5 31.5q0 47 -54 47q-58 0 -80 -70l-71 12q7 32 22.5 54.5t37.5 37t48.5 21.5t55.5 7q60 0 92 -26.5t32 -75.5q0 -26 -7 -47t-22 -42.5t-39 -45.5t-57 -54l-98 -93l1 -1h188l-10 -68h-285z" />
    <glyph glyph-name="threesuperior" unicode="&#xb3;" horiz-adv-x="379" 
d="M249 802q59 0 91.5 -25t32.5 -71q0 -25 -9.5 -45t-24.5 -34.5t-33.5 -24t-37.5 -14.5v-2q38 -8 60.5 -30.5t22.5 -64.5q0 -69 -45 -109t-124 -40q-58 0 -96 24.5t-42 84.5l73 13q1 -24 14.5 -43t52.5 -19q16 0 31 5t27 15.5t19 26.5t7 39q0 35 -20.5 49t-54.5 14h-43
l8 58h30q48 0 75.5 23.5t27.5 61.5q0 20 -12 34t-41 14q-34 0 -51 -15.5t-28 -44.5l-71 13q19 60 61.5 83.5t99.5 23.5z" />
    <glyph glyph-name="acute" unicode="&#xb4;" horiz-adv-x="500" 
d="M385 747h113l-165 -175l-64 12z" />
    <glyph glyph-name="mu" unicode="&#xb5;" horiz-adv-x="628" 
d="M458 514h91l-72 -514h-91l9 62q-25 -20 -56.5 -39t-65.5 -29t-66.5 -6t-58.5 30l-5 -3l-20 -191h-93l98 690h91l-48 -335q-3 -23 -3 -41q0 -32 15.5 -54t53.5 -22q24 0 48 8t46 21t41.5 28t34.5 30z" />
    <glyph glyph-name="paragraph" unicode="&#xb6;" 
d="M420 -133h-78l112 791h-83l-111 -791h-78l54 382q-87 8 -133.5 58.5t-46.5 134.5q0 77 25.5 130.5t69 87.5t100 49t119.5 15h169z" />
    <glyph glyph-name="periodcentered" unicode="&#xb7;" horiz-adv-x="194" 
d="M165 315q0 -74 -76 -74q-58 0 -58 52q0 74 76 74q58 0 58 -52z" />
    <glyph glyph-name="cedilla" unicode="&#xb8;" horiz-adv-x="499" 
d="M127 -159q8 -5 22.5 -10.5t31.5 -5.5q27 0 41.5 14t14.5 34q0 23 -16 33t-51 11l31 113l56 -8l-19 -66q26 -5 47 -23.5t21 -54.5q0 -52 -34 -79.5t-85 -27.5q-28 0 -48 6.5t-30 13.5z" />
    <glyph glyph-name="onesuperior" unicode="&#xb9;" horiz-adv-x="304" 
d="M137 349l51 346q-9 -4 -23 -7.5t-29 -6t-28.5 -4t-21.5 -1.5v65q91 6 144 52h53l-65 -444h-81z" />
    <glyph glyph-name="ordmasculine" unicode="&#xba;" horiz-adv-x="397" 
d="M193 275q-75 0 -108.5 37.5t-33.5 106.5q0 40 12.5 77t36.5 65t60.5 44.5t84.5 16.5q74 0 106.5 -40.5t32.5 -103.5q0 -39 -11.5 -76t-35 -65t-59.5 -45t-85 -17zM200 331q42 0 69.5 27t35.5 90q1 11 1.5 20.5t0.5 18.5q0 80 -71 80q-42 0 -70.5 -27.5t-36.5 -89.5
q-2 -9 -2 -18.5v-18.5q0 -43 18.5 -62.5t54.5 -19.5z" />
    <glyph glyph-name="guillemotright" unicode="&#xbb;" horiz-adv-x="438" 
d="M20 103l109 153l-64 152h81l66 -154l-109 -151h-83zM180 103l109 153l-64 152h81l66 -154l-109 -151h-83z" />
    <glyph glyph-name="onequarter" unicode="&#xbc;" horiz-adv-x="900" 
d="M122 282l51 346q-9 -4 -23 -7.5t-29 -6t-28.5 -4t-21.5 -1.5v65q91 6 144 52h53l-65 -444h-81zM146 -12l460 736h84l-458 -736h-86zM670 1l16 103h-210l8 56l229 286h102l-41 -277h53l-9 -65h-53l-15 -103h-80zM695 169l32 207l-168 -207h136z" />
    <glyph glyph-name="onehalf" unicode="&#xbd;" horiz-adv-x="900" 
d="M131 282l51 346q-9 -4 -23 -7.5t-29 -6t-28.5 -4t-21.5 -1.5v65q91 6 144 52h53l-65 -444h-81zM137 -12l460 736h84l-458 -736h-86zM493 1l10 66l121 118q34 33 56.5 56t35.5 40.5t18 32t5 31.5q0 47 -54 47q-58 0 -80 -70l-71 12q7 32 22.5 54.5t37.5 37t48.5 21.5
t55.5 7q60 0 92 -26.5t32 -75.5q0 -26 -7 -47t-22 -42.5t-39 -45.5t-57 -54l-98 -93l1 -1h188l-10 -68h-285z" />
    <glyph glyph-name="threequarters" unicode="&#xbe;" horiz-adv-x="900" 
d="M183 -12l460 736h84l-458 -736h-86zM685 1l16 103h-210l8 56l229 286h102l-41 -277h53l-9 -65h-53l-15 -103h-80zM710 169l32 207l-168 -207h136zM220 735q59 0 91.5 -25t32.5 -71q0 -25 -9.5 -45t-24.5 -34.5t-33.5 -24t-37.5 -14.5v-2q38 -8 60.5 -30.5t22.5 -64.5
q0 -69 -45 -109t-124 -40q-58 0 -96 24.5t-42 84.5l73 13q1 -24 14.5 -43t52.5 -19q16 0 31 5t27 15.5t19 26.5t7 39q0 35 -20.5 49t-54.5 14h-43l8 58h30q48 0 75.5 23.5t27.5 61.5q0 20 -12 34t-41 14q-34 0 -51 -15.5t-28 -44.5l-71 13q19 60 61.5 83.5t99.5 23.5z" />
    <glyph glyph-name="questiondown" unicode="&#xbf;" horiz-adv-x="482" 
d="M181.019 -214.956q-38.9971 0 -73.9951 9.5q-34.998 9.49902 -61.4961 30.498q-26.499 20.999 -42.498 53.9971t-15.999 78.9951q0 58.9961 18.999 101.993q18.999 42.998 52.4971 72.4961t79.9951 47.4971t100.493 26.998l15.999 118.993h87.9951l-24.999 -178.989
q-44.9971 -4 -87.4941 -12.499q-42.4971 -8.5 -75.9951 -27.999q-33.498 -19.498 -53.4971 -52.4961t-19.999 -85.9951q0 -57.9961 31.998 -83.4951q31.998 -25.498 80.9951 -25.498q23.999 0 46.4971 4.99902q22.499 5 41.498 17.999q18.999 13 34.498 35.498
q15.499 22.499 25.498 57.4971l81.9951 -15q-9 -35.9971 -27.498 -67.9951q-18.499 -31.998 -47.9971 -55.4971q-29.499 -23.498 -70.4961 -37.4971q-40.9971 -14 -96.9941 -14zM252.015 450.004q0 73.9951 75.9951 73.9951q59.9961 0 59.9961 -51.9971
q0 -35.9971 -19.499 -55.4961q-19.498 -19.499 -57.4961 -19.499q-58.9961 0 -58.9961 52.9971z" />
    <glyph glyph-name="Agrave" unicode="&#xc0;" horiz-adv-x="644" 
d="M435 724l145 -724h-96l-41 220h-267l-99 -220h-94l334 724h118zM367 645h-1l-159 -351h224zM348 913l80 -134l-68 -12l-119 146h107z" />
    <glyph glyph-name="Aacute" unicode="&#xc1;" horiz-adv-x="644" 
d="M435 724l145 -724h-96l-41 220h-267l-99 -220h-94l334 724h118zM367 645h-1l-159 -351h224zM441 913h114l-160 -146l-68 12z" />
    <glyph glyph-name="Acircumflex" unicode="&#xc2;" horiz-adv-x="644" 
d="M435 724l145 -724h-96l-41 220h-267l-99 -220h-94l334 724h118zM367 645h-1l-159 -351h224zM467 769l-74 79l-95 -81l-70 9l134 128h79l97 -128z" />
    <glyph glyph-name="Atilde" unicode="&#xc3;" horiz-adv-x="644" 
d="M435 724l145 -724h-96l-41 220h-267l-99 -220h-94l334 724h118zM367 645h-1l-159 -351h224zM327 900q24 0 42 -7t33.5 -16t30 -16t31.5 -7q18 0 29 11.5t16 40.5l55 -3q-4 -62 -34 -90t-68 -28q-23 0 -41.5 7t-34 16t-31 16t-32.5 7t-28 -11.5t-14 -42.5l-56 2
q4 62 34.5 91.5t67.5 29.5z" />
    <glyph glyph-name="Adieresis" unicode="&#xc4;" horiz-adv-x="644" 
d="M435 724l145 -724h-96l-41 220h-267l-99 -220h-94l334 724h118zM367 645h-1l-159 -351h224zM221 831q0 32 20.5 50.5t52.5 18.5q25 0 39.5 -14t14.5 -38q0 -32 -20 -50t-51 -18q-26 0 -41 13.5t-15 37.5zM430 831q0 32 20.5 50.5t52.5 18.5q26 0 40 -14t14 -38
q0 -32 -20 -50t-50 -18q-26 0 -41.5 13.5t-15.5 37.5z" />
    <glyph glyph-name="Aring" unicode="&#xc5;" horiz-adv-x="644" 
d="M501 825q0 -38 -17.5 -66t-47.5 -42l144 -717h-96l-41 220h-267l-99 -220h-94l332 720q-36 22 -36 71q0 30 10.5 52.5t28 37.5t40 22.5t46.5 7.5q42 0 69.5 -20.5t27.5 -65.5zM367 645h-1l-159 -351h224zM382 756q29 0 44.5 17.5t15.5 45.5q0 41 -45 41q-26 0 -43.5 -15
t-17.5 -47q0 -20 11.5 -31t34.5 -11z" />
    <glyph glyph-name="AE" unicode="&#xc6;" horiz-adv-x="973" 
d="M464 0l44 319h-212l-217 -319h-97l495 724h498l-10 -75h-320l-35 -253h299l-11 -75h-299l-34 -246h332l-11 -75h-422zM555 649h-40l-176 -256h180z" />
    <glyph glyph-name="Ccedilla" unicode="&#xc7;" horiz-adv-x="671" 
d="M223 -159q8 -5 22.5 -10.5t31.5 -5.5q26 0 40.5 14t14.5 34q0 23 -16 33t-51 11l20 72q-63 4 -108 27t-74 61.5t-42.5 89.5t-13.5 113q0 107 27.5 191.5t78 143.5t120 90.5t153.5 31.5q57 0 102 -16.5t76 -48.5t46 -79t12 -108l-85 -8q1 43 -7 77t-26.5 58t-49 36.5
t-74.5 12.5q-62 0 -113 -24t-88 -71.5t-57.5 -117t-20.5 -159.5q0 -119 49 -173t140 -54q83 0 130.5 38.5t75.5 116.5l81 -16q-16 -56 -44 -94.5t-64 -64t-78.5 -38t-87.5 -15.5l-9 -33q26 -5 47 -23.5t21 -54.5q0 -52 -34 -79.5t-85 -27.5q-29 0 -48.5 6.5t-30.5 13.5z" />
    <glyph glyph-name="Egrave" unicode="&#xc8;" horiz-adv-x="557" 
d="M51 0l99 724h409l-9 -75h-321l-33 -247h300l-11 -75h-300l-34 -252h333l-11 -75h-422zM357 913l80 -134l-68 -12l-119 146h107z" />
    <glyph glyph-name="Eacute" unicode="&#xc9;" horiz-adv-x="557" 
d="M51 0l99 724h409l-9 -75h-321l-33 -247h300l-11 -75h-300l-34 -252h333l-11 -75h-422zM398 913h114l-160 -146l-68 12z" />
    <glyph glyph-name="Ecircumflex" unicode="&#xca;" horiz-adv-x="557" 
d="M51 0l99 724h409l-9 -75h-321l-33 -247h300l-11 -75h-300l-34 -252h333l-11 -75h-422zM447 769l-74 79l-95 -81l-70 9l134 128h79l97 -128z" />
    <glyph glyph-name="Edieresis" unicode="&#xcb;" horiz-adv-x="557" 
d="M51 0l99 724h409l-9 -75h-321l-33 -247h300l-11 -75h-300l-34 -252h333l-11 -75h-422zM201 831q0 32 20.5 50.5t52.5 18.5q25 0 39.5 -14t14.5 -38q0 -32 -20 -50t-51 -18q-26 0 -41 13.5t-15 37.5zM410 831q0 32 20.5 50.5t52.5 18.5q26 0 40 -14t14 -38q0 -32 -20 -50
t-50 -18q-26 0 -41.5 13.5t-15.5 37.5z" />
    <glyph glyph-name="Igrave" unicode="&#xcc;" horiz-adv-x="274" 
d="M51 0l99 724h89l-99 -724h-89zM195 913l80 -134l-68 -12l-119 146h107z" />
    <glyph glyph-name="Iacute" unicode="&#xcd;" horiz-adv-x="274" 
d="M51 0l99 724h89l-99 -724h-89zM236 913h114l-160 -146l-68 12z" />
    <glyph glyph-name="Icircumflex" unicode="&#xce;" horiz-adv-x="274" 
d="M51 0l99 724h89l-99 -724h-89zM285 769l-74 79l-95 -81l-70 9l134 128h79l97 -128z" />
    <glyph glyph-name="Idieresis" unicode="&#xcf;" horiz-adv-x="274" 
d="M51 0l99 724h89l-99 -724h-89zM39 831q0 32 20.5 50.5t52.5 18.5q25 0 39.5 -14t14.5 -38q0 -32 -20 -50t-51 -18q-26 0 -41 13.5t-15 37.5zM248 831q0 32 20.5 50.5t52.5 18.5q26 0 40 -14t14 -38q0 -32 -20 -50t-50 -18q-26 0 -41.5 13.5t-15.5 37.5z" />
    <glyph glyph-name="Eth" unicode="&#xd0;" horiz-adv-x="717" 
d="M64 0l45 331h-70l11 72h69l44 321h215q80 0 138 -20.5t95 -58t54.5 -91.5t17.5 -120q0 -93 -25 -172.5t-76.5 -137.5t-130.5 -91t-188 -33h-199zM272 74q153 0 235.5 92t82.5 268q0 60 -15.5 101.5t-45 67t-72 36.5t-96.5 11h-118l-34 -247h216l-11 -72h-215l-35 -257
h108z" />
    <glyph glyph-name="Ntilde" unicode="&#xd1;" horiz-adv-x="720" 
d="M478 0l-259 614l-85 -614h-83l99 724h118l251 -608l84 608h82l-99 -724h-108zM372 900q24 0 42 -7t33.5 -16t30 -16t31.5 -7q18 0 29 11.5t16 40.5l55 -3q-4 -62 -34 -90t-68 -28q-23 0 -41.5 7t-34 16t-31 16t-32.5 7t-28 -11.5t-14 -42.5l-56 2q4 62 34.5 91.5
t67.5 29.5z" />
    <glyph glyph-name="Ograve" unicode="&#xd2;" horiz-adv-x="735" 
d="M327 -12q-74 0 -126.5 22.5t-87 63t-50.5 95.5t-16 121q0 95 24.5 177t72.5 142t119.5 94t165.5 34q72 0 124 -23t85 -62.5t48.5 -93.5t15.5 -116q0 -103 -25.5 -186.5t-73.5 -143t-117.5 -92t-158.5 -32.5zM336 65q60 0 110 25.5t85.5 73t55 115.5t19.5 154q0 53 -12 95
q-18 64 -62 98t-114 34q-62 0 -112.5 -25t-87.5 -72t-57 -114t-20 -152q0 -27 3.5 -51.5t8.5 -45.5q18 -66 63.5 -100.5t119.5 -34.5zM428 913l80 -134l-68 -12l-119 146h107z" />
    <glyph glyph-name="Oacute" unicode="&#xd3;" horiz-adv-x="735" 
d="M327 -12q-74 0 -126.5 22.5t-87 63t-50.5 95.5t-16 121q0 95 24.5 177t72.5 142t119.5 94t165.5 34q72 0 124 -23t85 -62.5t48.5 -93.5t15.5 -116q0 -103 -25.5 -186.5t-73.5 -143t-117.5 -92t-158.5 -32.5zM336 65q60 0 110 25.5t85.5 73t55 115.5t19.5 154q0 53 -12 95
q-18 64 -62 98t-114 34q-62 0 -112.5 -25t-87.5 -72t-57 -114t-20 -152q0 -27 3.5 -51.5t8.5 -45.5q18 -66 63.5 -100.5t119.5 -34.5zM469 913h114l-160 -146l-68 12z" />
    <glyph glyph-name="Ocircumflex" unicode="&#xd4;" horiz-adv-x="735" 
d="M327 -12q-74 0 -126.5 22.5t-87 63t-50.5 95.5t-16 121q0 95 24.5 177t72.5 142t119.5 94t165.5 34q72 0 124 -23t85 -62.5t48.5 -93.5t15.5 -116q0 -103 -25.5 -186.5t-73.5 -143t-117.5 -92t-158.5 -32.5zM336 65q60 0 110 25.5t85.5 73t55 115.5t19.5 154q0 53 -12 95
q-18 64 -62 98t-114 34q-62 0 -112.5 -25t-87.5 -72t-57 -114t-20 -152q0 -27 3.5 -51.5t8.5 -45.5q18 -66 63.5 -100.5t119.5 -34.5zM518 769l-74 79l-95 -81l-70 9l134 128h79l97 -128z" />
    <glyph glyph-name="Otilde" unicode="&#xd5;" horiz-adv-x="735" 
d="M327 -12q-74 0 -126.5 22.5t-87 63t-50.5 95.5t-16 121q0 95 24.5 177t72.5 142t119.5 94t165.5 34q72 0 124 -23t85 -62.5t48.5 -93.5t15.5 -116q0 -103 -25.5 -186.5t-73.5 -143t-117.5 -92t-158.5 -32.5zM336 65q60 0 110 25.5t85.5 73t55 115.5t19.5 154q0 53 -12 95
q-18 64 -62 98t-114 34q-62 0 -112.5 -25t-87.5 -72t-57 -114t-20 -152q0 -27 3.5 -51.5t8.5 -45.5q18 -66 63.5 -100.5t119.5 -34.5zM378 900q24 0 42 -7t33.5 -16t30 -16t31.5 -7q18 0 29 11.5t16 40.5l55 -3q-4 -62 -34 -90t-68 -28q-23 0 -41.5 7t-34 16t-31 16t-32.5 7
t-28 -11.5t-14 -42.5l-56 2q4 62 34.5 91.5t67.5 29.5z" />
    <glyph glyph-name="Odieresis" unicode="&#xd6;" horiz-adv-x="735" 
d="M327 -12q-74 0 -126.5 22.5t-87 63t-50.5 95.5t-16 121q0 95 24.5 177t72.5 142t119.5 94t165.5 34q72 0 124 -23t85 -62.5t48.5 -93.5t15.5 -116q0 -103 -25.5 -186.5t-73.5 -143t-117.5 -92t-158.5 -32.5zM336 65q60 0 110 25.5t85.5 73t55 115.5t19.5 154q0 53 -12 95
q-18 64 -62 98t-114 34q-62 0 -112.5 -25t-87.5 -72t-57 -114t-20 -152q0 -27 3.5 -51.5t8.5 -45.5q18 -66 63.5 -100.5t119.5 -34.5zM272 831q0 32 20.5 50.5t52.5 18.5q25 0 39.5 -14t14.5 -38q0 -32 -20 -50t-51 -18q-26 0 -41 13.5t-15 37.5zM481 831q0 32 20.5 50.5
t52.5 18.5q26 0 40 -14t14 -38q0 -32 -20 -50t-50 -18q-26 0 -41.5 13.5t-15.5 37.5z" />
    <glyph glyph-name="multiply" unicode="&#xd7;" 
d="M262 262l-120 -106l-50 58l120 106l-90 107l67 59l89 -106l121 106l50 -59l-121 -107l91 -106l-67 -58z" />
    <glyph glyph-name="Oslash" unicode="&#xd8;" horiz-adv-x="735" 
d="M327 -12q-17 0 -32.5 1.5t-29.5 3.5l-29 -71h-87l39 94q-74 35 -107.5 107t-33.5 167t24.5 177t72.5 142t119.5 94t165.5 34q15 0 29 -1.5t28 -3.5l24 57h87l-33 -80q72 -35 105 -106t33 -161q0 -103 -25.5 -186.5t-73.5 -143t-117.5 -92t-158.5 -32.5zM153 200
q19 -71 68 -104l234 561q-18 3 -37 3q-62 0 -112.5 -25t-87.5 -72t-57 -114t-20 -152q0 -27 3.5 -51.5t8.5 -45.5zM336 65q60 0 110 25.5t85.5 73t55 115.5t19.5 154q0 53 -12 95q-20 67 -64 99l-233 -560q9 -2 18.5 -2h20.5z" />
    <glyph glyph-name="Ugrave" unicode="&#xd9;" horiz-adv-x="693" 
d="M596 242q-18 -131 -91.5 -192.5t-198.5 -61.5q-137 0 -190.5 65.5t-36.5 192.5l65 478h90l-64 -473q-14 -101 22 -144t119 -43q42 0 75.5 9.5t58 31.5t40 57.5t22.5 86.5l65 475h89zM404 913l80 -134l-68 -12l-119 146h107z" />
    <glyph glyph-name="Uacute" unicode="&#xda;" horiz-adv-x="693" 
d="M596 242q-18 -131 -91.5 -192.5t-198.5 -61.5q-137 0 -190.5 65.5t-36.5 192.5l65 478h90l-64 -473q-14 -101 22 -144t119 -43q42 0 75.5 9.5t58 31.5t40 57.5t22.5 86.5l65 475h89zM445 913h114l-160 -146l-68 12z" />
    <glyph glyph-name="Ucircumflex" unicode="&#xdb;" horiz-adv-x="693" 
d="M596 242q-18 -131 -91.5 -192.5t-198.5 -61.5q-137 0 -190.5 65.5t-36.5 192.5l65 478h90l-64 -473q-14 -101 22 -144t119 -43q42 0 75.5 9.5t58 31.5t40 57.5t22.5 86.5l65 475h89zM494 769l-74 79l-95 -81l-70 9l134 128h79l97 -128z" />
    <glyph glyph-name="Udieresis" unicode="&#xdc;" horiz-adv-x="693" 
d="M596 242q-18 -131 -91.5 -192.5t-198.5 -61.5q-137 0 -190.5 65.5t-36.5 192.5l65 478h90l-64 -473q-14 -101 22 -144t119 -43q42 0 75.5 9.5t58 31.5t40 57.5t22.5 86.5l65 475h89zM248 831q0 32 20.5 50.5t52.5 18.5q25 0 39.5 -14t14.5 -38q0 -32 -20 -50t-51 -18
q-26 0 -41 13.5t-15 37.5zM457 831q0 32 20.5 50.5t52.5 18.5q26 0 40 -14t14 -38q0 -32 -20 -50t-50 -18q-26 0 -41.5 13.5t-15.5 37.5z" />
    <glyph glyph-name="Yacute" unicode="&#xdd;" horiz-adv-x="542" 
d="M317 283q-10 -71 -19 -141t-20 -142h-90l39 281l-179 443h94l139 -358h1l229 358h95l-289 -441v0zM371 913h114l-160 -146l-68 12z" />
    <glyph glyph-name="Thorn" unicode="&#xde;" horiz-adv-x="656" 
d="M212 0h-91l102 724h90l-16 -120h122q65 0 110 -14.5t72.5 -40t40 -60t12.5 -74.5q0 -133 -79.5 -196t-224.5 -63h-116zM346 232q44 0 82.5 6.5t67 25.5t45 53.5t16.5 90.5q0 66 -42.5 93.5t-120.5 27.5h-107l-42 -297h101z" />
    <glyph glyph-name="germandbls" unicode="&#xdf;" horiz-adv-x="661" 
d="M10 -212l104 751q9 62 32 105.5t58 70.5t80.5 39.5t98.5 12.5q100 0 151.5 -44t51.5 -117q0 -42 -12 -73t-31.5 -54t-45 -39t-52.5 -26v-3q30 -5 58.5 -16.5t50 -32.5t34.5 -53.5t13 -78.5q0 -54 -15.5 -98t-44.5 -76t-71.5 -49.5t-96.5 -17.5q-75 0 -124 33.5t-58 112.5
l79 19q4 -19 10.5 -36t17.5 -29.5t29 -20t44 -7.5q29 0 54.5 11t44 32t29.5 52t11 72q0 40 -13.5 67t-36 43t-53.5 23t-65 7h-40l10 70h15q45 0 76.5 13.5t51 35.5t28.5 49.5t9 55.5q0 54 -30 78.5t-85 24.5q-35 0 -63.5 -7t-50.5 -25t-36.5 -49.5t-21.5 -79.5l-104 -746
h-91z" />
    <glyph glyph-name="agrave" unicode="&#xe0;" horiz-adv-x="587" 
d="M469 97q-3 -21 1.5 -32t23.5 -11q7 0 14 1t18 4l-6 -55q-11 -5 -27.5 -7.5t-31.5 -2.5q-36 0 -56 16.5t-19 56.5q-32 -35 -79.5 -57t-98.5 -22q-36 0 -66.5 11.5t-52.5 35.5t-34.5 61.5t-12.5 90.5q0 63 15 124t46 108t78 76t112 29q45 0 82 -17t61 -38l8 45h84zM423 399
q-20 19 -53.5 34.5t-71.5 15.5q-47 0 -78.5 -25t-50.5 -63t-27 -82.5t-8 -83.5q0 -74 26.5 -104t72.5 -30q18 0 35.5 3.5t36 12t38.5 23t43 35.5zM337 572l-116 175h108l74 -163z" />
    <glyph glyph-name="aacute" unicode="&#xe1;" horiz-adv-x="587" 
d="M469 97q-3 -21 1.5 -32t23.5 -11q7 0 14 1t18 4l-6 -55q-11 -5 -27.5 -7.5t-31.5 -2.5q-36 0 -56 16.5t-19 56.5q-32 -35 -79.5 -57t-98.5 -22q-36 0 -66.5 11.5t-52.5 35.5t-34.5 61.5t-12.5 90.5q0 63 15 124t46 108t78 76t112 29q45 0 82 -17t61 -38l8 45h84zM423 399
q-20 19 -53.5 34.5t-71.5 15.5q-47 0 -78.5 -25t-50.5 -63t-27 -82.5t-8 -83.5q0 -74 26.5 -104t72.5 -30q18 0 35.5 3.5t36 12t38.5 23t43 35.5zM375 747h113l-165 -175l-64 12z" />
    <glyph glyph-name="acircumflex" unicode="&#xe2;" horiz-adv-x="587" 
d="M469 97q-3 -21 1.5 -32t23.5 -11q7 0 14 1t18 4l-6 -55q-11 -5 -27.5 -7.5t-31.5 -2.5q-36 0 -56 16.5t-19 56.5q-32 -35 -79.5 -57t-98.5 -22q-36 0 -66.5 11.5t-52.5 35.5t-34.5 61.5t-12.5 90.5q0 63 15 124t46 108t78 76t112 29q45 0 82 -17t61 -38l8 45h84zM423 399
q-20 19 -53.5 34.5t-71.5 15.5q-47 0 -78.5 -25t-50.5 -63t-27 -82.5t-8 -83.5q0 -74 26.5 -104t72.5 -30q18 0 35.5 3.5t36 12t38.5 23t43 35.5zM420 577l-73 115l-103 -116l-71 7l136 165h89l90 -165z" />
    <glyph glyph-name="atilde" unicode="&#xe3;" horiz-adv-x="587" 
d="M469 97q-3 -21 1.5 -32t23.5 -11q7 0 14 1t18 4l-6 -55q-11 -5 -27.5 -7.5t-31.5 -2.5q-36 0 -56 16.5t-19 56.5q-32 -35 -79.5 -57t-98.5 -22q-36 0 -66.5 11.5t-52.5 35.5t-34.5 61.5t-12.5 90.5q0 63 15 124t46 108t78 76t112 29q45 0 82 -17t61 -38l8 45h84zM423 399
q-20 19 -53.5 34.5t-71.5 15.5q-47 0 -78.5 -25t-50.5 -63t-27 -82.5t-8 -83.5q0 -74 26.5 -104t72.5 -30q18 0 35.5 3.5t36 12t38.5 23t43 35.5zM271 714q24 0 41.5 -7t33 -16t30 -16t31.5 -7q20 0 30 12t15 40l55 -2q-6 -62 -33 -90t-68 -28q-24 0 -42 7t-34 16t-31 16
t-32 7t-28 -11.5t-15 -43.5l-56 3q6 63 35.5 91.5t67.5 28.5z" />
    <glyph glyph-name="adieresis" unicode="&#xe4;" horiz-adv-x="587" 
d="M469 97q-3 -21 1.5 -32t23.5 -11q7 0 14 1t18 4l-6 -55q-11 -5 -27.5 -7.5t-31.5 -2.5q-36 0 -56 16.5t-19 56.5q-32 -35 -79.5 -57t-98.5 -22q-36 0 -66.5 11.5t-52.5 35.5t-34.5 61.5t-12.5 90.5q0 63 15 124t46 108t78 76t112 29q45 0 82 -17t61 -38l8 45h84zM423 399
q-20 19 -53.5 34.5t-71.5 15.5q-47 0 -78.5 -25t-50.5 -63t-27 -82.5t-8 -83.5q0 -74 26.5 -104t72.5 -30q18 0 35.5 3.5t36 12t38.5 23t43 35.5zM184 669q0 31 20.5 49.5t52.5 18.5q25 0 39.5 -14t14.5 -37q0 -32 -20 -50t-51 -18q-26 0 -41 13.5t-15 37.5zM393 669
q0 31 20.5 49.5t52.5 18.5q26 0 40 -14t14 -37q0 -32 -20 -50t-50 -18q-26 0 -41.5 13.5t-15.5 37.5z" />
    <glyph glyph-name="aring" unicode="&#xe5;" horiz-adv-x="587" 
d="M469 97q-3 -21 1.5 -32t23.5 -11q7 0 14 1t18 4l-6 -55q-11 -5 -27.5 -7.5t-31.5 -2.5q-36 0 -56 16.5t-19 56.5q-32 -35 -79.5 -57t-98.5 -22q-36 0 -66.5 11.5t-52.5 35.5t-34.5 61.5t-12.5 90.5q0 63 15 124t46 108t78 76t112 29q45 0 82 -17t61 -38l8 45h84zM423 399
q-20 19 -53.5 34.5t-71.5 15.5q-47 0 -78.5 -25t-50.5 -63t-27 -82.5t-8 -83.5q0 -74 26.5 -104t72.5 -30q18 0 35.5 3.5t36 12t38.5 23t43 35.5zM450 689q0 -54 -34 -84.5t-88 -30.5q-43 0 -68 21.5t-25 60.5q0 29 10 51t27 36.5t39 22t45 7.5q40 0 67 -20.5t27 -63.5z
M335 623q27 0 42 16.5t15 43.5q0 39 -43 39q-24 0 -41 -15t-17 -44q0 -40 44 -40z" />
    <glyph glyph-name="ae" unicode="&#xe6;" horiz-adv-x="853" 
d="M577 -12q-65 0 -105.5 23t-63.5 62q-51 -47 -101 -66t-98 -19q-36 0 -67 11.5t-53 35.5t-34.5 61.5t-12.5 90.5q0 63 15 124t46 108t78 76t112 29q45 0 82 -17t61 -38l8 45h73l-4 -33q26 20 63.5 31.5t79.5 11.5q40 0 70.5 -10.5t50 -28.5t29.5 -42.5t10 -51.5
q0 -44 -18 -74.5t-47 -51.5t-66.5 -33t-76.5 -18.5t-76 -9t-65 -3.5q0 -32 6 -58t20 -44.5t38 -28.5t60 -10q54 0 86.5 27t44.5 69l75 -17q-23 -77 -82.5 -114t-137.5 -37zM384 134q-8 38 -8 78q0 51 12 99t37 88q-24 23 -57 36.5t-70 13.5q-47 0 -78.5 -25t-50.5 -63
t-27 -82.5t-8 -83.5q0 -74 26.5 -104t72.5 -30q37 0 71.5 15.5t79.5 57.5zM645 455q-39 0 -69.5 -15t-52.5 -40.5t-35 -59t-17 -70.5q12 0 31 1.5t42 4t48 7t48 11.5q38 11 63.5 33t25.5 60q0 34 -22.5 51t-61.5 17z" />
    <glyph glyph-name="ccedilla" unicode="&#xe7;" horiz-adv-x="535" 
d="M144 -159q8 -5 22.5 -10.5t31.5 -5.5q27 0 41.5 14t14.5 34q0 23 -16 33t-51 11l20 74q-88 11 -127.5 68.5t-39.5 145.5q0 76 21 135.5t58 100.5t88.5 62t112.5 21q46 0 80.5 -15t57 -42t32 -64t5.5 -80l-83 -6q1 30 -2.5 55t-15 42.5t-32 27t-52.5 9.5
q-30 0 -61.5 -11.5t-56.5 -39.5t-41 -74.5t-16 -116.5q0 -41 9.5 -69.5t25.5 -46t38 -25.5t46 -8q52 0 87.5 27t52.5 82l79 -15q-11 -41 -31 -71.5t-47.5 -50.5t-60.5 -30.5t-70 -12.5l-9 -33q26 -5 47 -23.5t21 -54.5q0 -52 -34 -79.5t-85 -27.5q-28 0 -48 6.5t-30 13.5z
" />
    <glyph glyph-name="egrave" unicode="&#xe8;" horiz-adv-x="517" 
d="M242 -12q-56 0 -94.5 18t-62 48.5t-34 71t-10.5 86.5q0 63 18.5 119.5t53.5 99.5t86 68t117 25q42 0 73 -10.5t51.5 -28.5t30.5 -42.5t10 -51.5q0 -32 -10 -57.5t-28 -45t-42.5 -33.5t-53.5 -23t-59 -14.5t-58.5 -9t-54 -5t-43.5 -2.5q0 -26 4.5 -51.5t18 -45.5t37.5 -32
t64 -12q55 0 87 28t44 68l75 -17q-23 -77 -83 -114t-137 -37zM310 455q-39 0 -69.5 -15t-52 -40.5t-34.5 -59t-18 -70.5q9 0 28 1.5t43.5 4t51.5 7.5t53 13q38 12 60 33.5t22 57.5q0 34 -22.5 51t-61.5 17zM335 572l-116 175h108l74 -163z" />
    <glyph glyph-name="eacute" unicode="&#xe9;" horiz-adv-x="517" 
d="M242 -12q-56 0 -94.5 18t-62 48.5t-34 71t-10.5 86.5q0 63 18.5 119.5t53.5 99.5t86 68t117 25q42 0 73 -10.5t51.5 -28.5t30.5 -42.5t10 -51.5q0 -32 -10 -57.5t-28 -45t-42.5 -33.5t-53.5 -23t-59 -14.5t-58.5 -9t-54 -5t-43.5 -2.5q0 -26 4.5 -51.5t18 -45.5t37.5 -32
t64 -12q55 0 87 28t44 68l75 -17q-23 -77 -83 -114t-137 -37zM310 455q-39 0 -69.5 -15t-52 -40.5t-34.5 -59t-18 -70.5q9 0 28 1.5t43.5 4t51.5 7.5t53 13q38 12 60 33.5t22 57.5q0 34 -22.5 51t-61.5 17zM373 747h113l-165 -175l-64 12z" />
    <glyph glyph-name="ecircumflex" unicode="&#xea;" horiz-adv-x="517" 
d="M242 -12q-56 0 -94.5 18t-62 48.5t-34 71t-10.5 86.5q0 63 18.5 119.5t53.5 99.5t86 68t117 25q42 0 73 -10.5t51.5 -28.5t30.5 -42.5t10 -51.5q0 -32 -10 -57.5t-28 -45t-42.5 -33.5t-53.5 -23t-59 -14.5t-58.5 -9t-54 -5t-43.5 -2.5q0 -26 4.5 -51.5t18 -45.5t37.5 -32
t64 -12q55 0 87 28t44 68l75 -17q-23 -77 -83 -114t-137 -37zM310 455q-39 0 -69.5 -15t-52 -40.5t-34.5 -59t-18 -70.5q9 0 28 1.5t43.5 4t51.5 7.5t53 13q38 12 60 33.5t22 57.5q0 34 -22.5 51t-61.5 17zM418 577l-73 115l-103 -116l-71 7l136 165h89l90 -165z" />
    <glyph glyph-name="edieresis" unicode="&#xeb;" horiz-adv-x="517" 
d="M242 -12q-56 0 -94.5 18t-62 48.5t-34 71t-10.5 86.5q0 63 18.5 119.5t53.5 99.5t86 68t117 25q42 0 73 -10.5t51.5 -28.5t30.5 -42.5t10 -51.5q0 -32 -10 -57.5t-28 -45t-42.5 -33.5t-53.5 -23t-59 -14.5t-58.5 -9t-54 -5t-43.5 -2.5q0 -26 4.5 -51.5t18 -45.5t37.5 -32
t64 -12q55 0 87 28t44 68l75 -17q-23 -77 -83 -114t-137 -37zM310 455q-39 0 -69.5 -15t-52 -40.5t-34.5 -59t-18 -70.5q9 0 28 1.5t43.5 4t51.5 7.5t53 13q38 12 60 33.5t22 57.5q0 34 -22.5 51t-61.5 17zM172 669q0 31 20.5 49.5t52.5 18.5q25 0 39.5 -14t14.5 -37
q0 -32 -20 -50t-51 -18q-26 0 -41 13.5t-15 37.5zM381 669q0 31 20.5 49.5t52.5 18.5q26 0 40 -14t14 -37q0 -32 -20 -50t-50 -18q-26 0 -41.5 13.5t-15.5 37.5z" />
    <glyph glyph-name="igrave" unicode="&#xec;" horiz-adv-x="247" 
d="M128 0h-91l72 514h91zM169 572l-116 175h108l74 -163z" />
    <glyph glyph-name="iacute" unicode="&#xed;" horiz-adv-x="247" 
d="M128 0h-91l72 514h91zM207 747h113l-165 -175l-64 12z" />
    <glyph glyph-name="icircumflex" unicode="&#xee;" horiz-adv-x="247" 
d="M128 0h-91l72 514h91zM252 577l-73 115l-103 -116l-71 7l136 165h89l90 -165z" />
    <glyph glyph-name="idieresis" unicode="&#xef;" horiz-adv-x="247" 
d="M128 0h-91l72 514h91zM6 669q0 31 20.5 49.5t52.5 18.5q25 0 39.5 -14t14.5 -37q0 -32 -20 -50t-51 -18q-26 0 -41 13.5t-15 37.5zM215 669q0 31 20.5 49.5t52.5 18.5q26 0 40 -14t14 -37q0 -32 -20 -50t-50 -18q-26 0 -41.5 13.5t-15.5 37.5z" />
    <glyph glyph-name="eth" unicode="&#xf0;" horiz-adv-x="580" 
d="M306 660q-29 17 -61 29t-67 20l55 58q87 -26 145 -67l105 60l32 -55l-86 -48q55 -57 77.5 -129t22.5 -151q0 -67 -11.5 -136t-42.5 -125.5t-84.5 -92t-138.5 -35.5q-56 0 -96 16t-65.5 44.5t-37 69t-11.5 90.5q0 58 17 111t49.5 93.5t80.5 65t110 24.5q40 0 77 -12.5
t63 -34.5q1 0 1.5 1t1.5 1q-11 53 -31.5 92.5t-50.5 68.5l-99 -55l-32 53zM304 430q-43 0 -75 -18t-53.5 -49t-32 -72.5t-10.5 -87.5q0 -29 6 -54.5t20.5 -45.5t37.5 -31.5t57 -11.5q57 0 93 26.5t57 70.5t29.5 101t8.5 117q-19 21 -55.5 38t-82.5 17z" />
    <glyph glyph-name="ntilde" unicode="&#xf1;" horiz-adv-x="582" 
d="M130 0h-91l72 514h86l-11 -71h1q15 13 35.5 27.5t45.5 26.5t53.5 19.5t59.5 7.5q75 0 110.5 -43.5t23.5 -132.5l-48 -348h-91l47 338q8 57 -9.5 83.5t-59.5 26.5q-25 0 -49.5 -8t-47 -19.5t-42 -25t-33.5 -24.5zM273 714q24 0 41.5 -7t33 -16t30 -16t31.5 -7q20 0 30 12
t15 40l55 -2q-6 -62 -33 -90t-68 -28q-24 0 -42 7t-34 16t-31 16t-32 7t-28 -11.5t-15 -43.5l-56 3q6 63 35.5 91.5t67.5 28.5z" />
    <glyph glyph-name="ograve" unicode="&#xf2;" horiz-adv-x="577" 
d="M247 -12q-54 0 -93.5 15t-64.5 42.5t-37 66t-12 85.5q0 17 1 33t3 32q8 58 29.5 106.5t56.5 83t83 53.5t110 19q55 0 93.5 -16t62.5 -44.5t34.5 -66.5t10.5 -82q0 -17 -1 -32.5t-3 -32.5q-15 -122 -84 -192t-189 -70zM255 57q69 0 115 49.5t58 150.5q3 30 3 59
q0 135 -119 135q-70 0 -117.5 -47.5t-59.5 -146.5q-3 -27 -3 -56q0 -71 30.5 -107.5t92.5 -36.5zM334 572l-116 175h108l74 -163z" />
    <glyph glyph-name="oacute" unicode="&#xf3;" horiz-adv-x="577" 
d="M247 -12q-54 0 -93.5 15t-64.5 42.5t-37 66t-12 85.5q0 17 1 33t3 32q8 58 29.5 106.5t56.5 83t83 53.5t110 19q55 0 93.5 -16t62.5 -44.5t34.5 -66.5t10.5 -82q0 -17 -1 -32.5t-3 -32.5q-15 -122 -84 -192t-189 -70zM255 57q69 0 115 49.5t58 150.5q3 30 3 59
q0 135 -119 135q-70 0 -117.5 -47.5t-59.5 -146.5q-3 -27 -3 -56q0 -71 30.5 -107.5t92.5 -36.5zM372 747h113l-165 -175l-64 12z" />
    <glyph glyph-name="ocircumflex" unicode="&#xf4;" horiz-adv-x="577" 
d="M247 -12q-54 0 -93.5 15t-64.5 42.5t-37 66t-12 85.5q0 17 1 33t3 32q8 58 29.5 106.5t56.5 83t83 53.5t110 19q55 0 93.5 -16t62.5 -44.5t34.5 -66.5t10.5 -82q0 -17 -1 -32.5t-3 -32.5q-15 -122 -84 -192t-189 -70zM255 57q69 0 115 49.5t58 150.5q3 30 3 59
q0 135 -119 135q-70 0 -117.5 -47.5t-59.5 -146.5q-3 -27 -3 -56q0 -71 30.5 -107.5t92.5 -36.5zM417 577l-73 115l-103 -116l-71 7l136 165h89l90 -165z" />
    <glyph glyph-name="otilde" unicode="&#xf5;" horiz-adv-x="577" 
d="M247 -12q-54 0 -93.5 15t-64.5 42.5t-37 66t-12 85.5q0 17 1 33t3 32q8 58 29.5 106.5t56.5 83t83 53.5t110 19q55 0 93.5 -16t62.5 -44.5t34.5 -66.5t10.5 -82q0 -17 -1 -32.5t-3 -32.5q-15 -122 -84 -192t-189 -70zM255 57q69 0 115 49.5t58 150.5q3 30 3 59
q0 135 -119 135q-70 0 -117.5 -47.5t-59.5 -146.5q-3 -27 -3 -56q0 -71 30.5 -107.5t92.5 -36.5zM268 714q24 0 41.5 -7t33 -16t30 -16t31.5 -7q20 0 30 12t15 40l55 -2q-6 -62 -33 -90t-68 -28q-24 0 -42 7t-34 16t-31 16t-32 7t-28 -11.5t-15 -43.5l-56 3q6 63 35.5 91.5
t67.5 28.5z" />
    <glyph glyph-name="odieresis" unicode="&#xf6;" horiz-adv-x="577" 
d="M247 -12q-54 0 -93.5 15t-64.5 42.5t-37 66t-12 85.5q0 17 1 33t3 32q8 58 29.5 106.5t56.5 83t83 53.5t110 19q55 0 93.5 -16t62.5 -44.5t34.5 -66.5t10.5 -82q0 -17 -1 -32.5t-3 -32.5q-15 -122 -84 -192t-189 -70zM255 57q69 0 115 49.5t58 150.5q3 30 3 59
q0 135 -119 135q-70 0 -117.5 -47.5t-59.5 -146.5q-3 -27 -3 -56q0 -71 30.5 -107.5t92.5 -36.5zM171 669q0 31 20.5 49.5t52.5 18.5q25 0 39.5 -14t14.5 -37q0 -32 -20 -50t-51 -18q-26 0 -41 13.5t-15 37.5zM380 669q0 31 20.5 49.5t52.5 18.5q26 0 40 -14t14 -37
q0 -32 -20 -50t-50 -18q-26 0 -41.5 13.5t-15.5 37.5z" />
    <glyph glyph-name="divide" unicode="&#xf7;" horiz-adv-x="569" 
d="M320 177q0 -35 -19 -53.5t-54 -18.5q-56 0 -56 51q0 34 19 53t54 19q27 0 41.5 -13.5t14.5 -37.5zM88 281l11 80h377l-11 -80h-377zM364 487q0 -35 -19.5 -53.5t-54.5 -18.5q-56 0 -56 51q0 35 19.5 53.5t54.5 18.5q56 0 56 -51z" />
    <glyph glyph-name="oslash" unicode="&#xf8;" horiz-adv-x="577" 
d="M247 -12q-10 0 -19 0.5t-18 1.5l-28 -68h-78l36 86q-52 24 -76 73t-24 116q0 17 1 33t3 32q8 58 29.5 106.5t56.5 83t83 53.5t110 19q8 0 16.5 -0.5t16.5 -1.5l27 64h78l-35 -83q53 -25 75.5 -75t22.5 -113q0 -17 -1 -32.5t-3 -32.5q-15 -122 -84 -192t-189 -70zM132 201
q0 -81 40 -117l154 366q-5 1 -14 1q-70 0 -117.5 -47.5t-59.5 -146.5q-3 -27 -3 -56zM255 57q69 0 115 49.5t58 150.5q3 30 3 59q0 76 -38 109l-154 -367q5 -1 16 -1z" />
    <glyph glyph-name="ugrave" unicode="&#xf9;" horiz-adv-x="580" 
d="M440 514h91l-72 -514h-82l9 68q-15 -14 -36 -27.5t-46 -25t-53.5 -18.5t-57.5 -7q-78 0 -112 44t-22 133l48 347h91l-47 -338q-2 -17 -2.5 -31t1.5 -25q3 -30 21 -43t51 -13q46 0 90 22.5t76 50.5zM332 572l-116 175h108l74 -163z" />
    <glyph glyph-name="uacute" unicode="&#xfa;" horiz-adv-x="580" 
d="M440 514h91l-72 -514h-82l9 68q-15 -14 -36 -27.5t-46 -25t-53.5 -18.5t-57.5 -7q-78 0 -112 44t-22 133l48 347h91l-47 -338q-2 -17 -2.5 -31t1.5 -25q3 -30 21 -43t51 -13q46 0 90 22.5t76 50.5zM385 747h113l-165 -175l-64 12z" />
    <glyph glyph-name="ucircumflex" unicode="&#xfb;" horiz-adv-x="580" 
d="M440 514h91l-72 -514h-82l9 68q-15 -14 -36 -27.5t-46 -25t-53.5 -18.5t-57.5 -7q-78 0 -112 44t-22 133l48 347h91l-47 -338q-2 -17 -2.5 -31t1.5 -25q3 -30 21 -43t51 -13q46 0 90 22.5t76 50.5zM415 577l-73 115l-103 -116l-71 7l136 165h89l90 -165z" />
    <glyph glyph-name="udieresis" unicode="&#xfc;" horiz-adv-x="580" 
d="M440 514h91l-72 -514h-82l9 68q-15 -14 -36 -27.5t-46 -25t-53.5 -18.5t-57.5 -7q-78 0 -112 44t-22 133l48 347h91l-47 -338q-2 -17 -2.5 -31t1.5 -25q3 -30 21 -43t51 -13q46 0 90 22.5t76 50.5zM169 669q0 31 20.5 49.5t52.5 18.5q25 0 39.5 -14t14.5 -37
q0 -32 -20 -50t-51 -18q-26 0 -41 13.5t-15 37.5zM378 669q0 31 20.5 49.5t52.5 18.5q26 0 40 -14t14 -37q0 -32 -20 -50t-50 -18q-26 0 -41.5 13.5t-15.5 37.5z" />
    <glyph glyph-name="yacute" unicode="&#xfd;" horiz-adv-x="479" 
d="M40 514h95l74 -414l192 414h95l-271 -546q-27 -54 -48.5 -90.5t-44 -59t-48.5 -32t-61 -9.5q-29 0 -52 5.5t-37 12.5l16 66q14 -6 32.5 -10.5t38.5 -4.5q18 0 33 7.5t29.5 25t30 46.5t34.5 71zM321 747h113l-165 -175l-64 12z" />
    <glyph glyph-name="thorn" unicode="&#xfe;" horiz-adv-x="585" 
d="M146 116q7 -7 19.5 -16t28.5 -17t36 -13.5t44 -5.5q46 0 77 22t50.5 58t28 82.5t8.5 95.5q0 68 -22 97.5t-68 29.5q-22 0 -46 -7.5t-46.5 -19t-41.5 -25t-32 -24.5zM145 755h89l-44 -308q39 30 84 53t102 23q34 0 63 -10.5t50 -34t32.5 -60.5t11.5 -90q0 -90 -21 -154.5
t-56 -106t-80.5 -61t-94.5 -19.5q-48 0 -85.5 16.5t-62.5 38.5l-36 -255h-88z" />
    <glyph glyph-name="ydieresis" unicode="&#xff;" horiz-adv-x="479" 
d="M40 514h95l74 -414l192 414h95l-271 -546q-27 -54 -48.5 -90.5t-44 -59t-48.5 -32t-61 -9.5q-29 0 -52 5.5t-37 12.5l16 66q14 -6 32.5 -10.5t38.5 -4.5q18 0 33 7.5t29.5 25t30 46.5t34.5 71zM120 669q0 31 20.5 49.5t52.5 18.5q25 0 39.5 -14t14.5 -37q0 -32 -20 -50
t-51 -18q-26 0 -41 13.5t-15 37.5zM329 669q0 31 20.5 49.5t52.5 18.5q26 0 40 -14t14 -37q0 -32 -20 -50t-50 -18q-26 0 -41.5 13.5t-15.5 37.5z" />
    <glyph glyph-name="Amacron" unicode="&#x100;" horiz-adv-x="644" 
d="M435 724l145 -724h-96l-41 220h-267l-99 -220h-94l334 724h118zM367 645h-1l-159 -351h224zM231 794l10 69h307l-10 -69h-307z" />
    <glyph glyph-name="amacron" unicode="&#x101;" horiz-adv-x="587" 
d="M469 97q-3 -21 1.5 -32t23.5 -11q7 0 14 1t18 4l-6 -55q-11 -5 -27.5 -7.5t-31.5 -2.5q-36 0 -56 16.5t-19 56.5q-32 -35 -79.5 -57t-98.5 -22q-36 0 -66.5 11.5t-52.5 35.5t-34.5 61.5t-12.5 90.5q0 63 15 124t46 108t78 76t112 29q45 0 82 -17t61 -38l8 45h84zM423 399
q-20 19 -53.5 34.5t-71.5 15.5q-47 0 -78.5 -25t-50.5 -63t-27 -82.5t-8 -83.5q0 -74 26.5 -104t72.5 -30q18 0 35.5 3.5t36 12t38.5 23t43 35.5zM202 696h291l-10 -69h-291z" />
    <glyph glyph-name="Abreve" unicode="&#x102;" horiz-adv-x="644" 
d="M435 724l145 -724h-96l-41 220h-267l-99 -220h-94l334 724h118zM367 645h-1l-159 -351h224zM391 841q35 0 58 15t37 57l65 -6q-29 -128 -166 -128q-66 0 -98 32t-34 95l69 7q1 -41 17.5 -56.5t51.5 -15.5z" />
    <glyph glyph-name="abreve" unicode="&#x103;" horiz-adv-x="587" 
d="M469 97q-3 -21 1.5 -32t23.5 -11q7 0 14 1t18 4l-6 -55q-11 -5 -27.5 -7.5t-31.5 -2.5q-36 0 -56 16.5t-19 56.5q-32 -35 -79.5 -57t-98.5 -22q-36 0 -66.5 11.5t-52.5 35.5t-34.5 61.5t-12.5 90.5q0 63 15 124t46 108t78 76t112 29q45 0 82 -17t61 -38l8 45h84zM423 399
q-20 19 -53.5 34.5t-71.5 15.5q-47 0 -78.5 -25t-50.5 -63t-27 -82.5t-8 -83.5q0 -74 26.5 -104t72.5 -30q18 0 35.5 3.5t36 12t38.5 23t43 35.5zM337 634q40 0 64.5 21t35.5 77l66 -6q-8 -76 -51.5 -115t-118.5 -39q-71 0 -105.5 38.5t-27.5 113.5l68 8q-4 -51 13 -74.5
t56 -23.5z" />
    <glyph glyph-name="Aogonek" unicode="&#x104;" horiz-adv-x="644" 
d="M610 -148q-20 -42 -53.5 -60.5t-68.5 -18.5q-42 0 -68.5 21.5t-26.5 59.5q0 24 8 45t21 39t29.5 33t32.5 29l-41 220h-267l-99 -220h-94l334 724h118l145 -724q-25 -19 -45 -34.5t-33.5 -30.5t-21 -31t-7.5 -34q0 -16 8 -25.5t25 -9.5t30 11t27 31zM367 645h-1l-159 -351
h224z" />
    <glyph glyph-name="aogonek" unicode="&#x105;" horiz-adv-x="587" 
d="M527 -148q-21 -42 -55.5 -60.5t-69.5 -18.5q-41 0 -66.5 21t-25.5 57q0 25 9 47t24 40.5t34 34t40 29.5q-16 8 -24 23.5t-7 41.5q-32 -35 -79.5 -57t-98.5 -22q-36 0 -66.5 11.5t-52.5 35.5t-34.5 61.5t-12.5 90.5q0 63 15 124t46 108t78 76t112 29q45 0 82 -17t61 -38
l8 45h84l-59 -417q-3 -21 1.5 -32t23.5 -11q7 0 14 1t18 4l-6 -55q-26 -8 -49.5 -23t-41 -34t-28 -39.5t-10.5 -38.5q0 -15 7.5 -24.5t23.5 -9.5q17 0 31 11t28 31zM423 399q-20 19 -53.5 34.5t-71.5 15.5q-47 0 -78.5 -25t-50.5 -63t-27 -82.5t-8 -83.5q0 -74 26.5 -104
t72.5 -30q18 0 35.5 3.5t36 12t38.5 23t43 35.5z" />
    <glyph glyph-name="Cacute" unicode="&#x106;" horiz-adv-x="671" 
d="M617 201q-17 -60 -48 -100.5t-71 -65.5t-87 -36t-96 -11q-71 0 -121.5 21.5t-83 60t-48 92t-15.5 118.5q0 107 27.5 191.5t78 143.5t120 90.5t153.5 31.5q57 0 102 -16.5t76 -48.5t46 -79t12 -108l-85 -8q1 43 -7 77t-26.5 58t-49 36.5t-74.5 12.5q-62 0 -113 -24
t-88 -71.5t-57.5 -117t-20.5 -159.5q0 -119 49 -173t140 -54q83 0 130.5 38.5t75.5 116.5zM465 913h114l-160 -146l-68 12z" />
    <glyph glyph-name="cacute" unicode="&#x107;" horiz-adv-x="535" 
d="M247 -12q-54 0 -93.5 16t-64.5 44.5t-37 68.5t-12 88q0 76 21 135.5t58 100.5t88.5 62t112.5 21q46 0 80.5 -15t57 -42t32 -64t5.5 -80l-83 -6q1 30 -2.5 55t-15 42.5t-32 27t-52.5 9.5q-30 0 -61.5 -11.5t-56.5 -39.5t-41 -74.5t-16 -116.5q0 -41 9.5 -69.5t25.5 -46
t38 -25.5t46 -8q52 0 87.5 27t52.5 82l79 -15q-11 -44 -33 -75t-51.5 -51.5t-66 -30t-75.5 -9.5zM368 747h113l-165 -175l-64 12z" />
    <glyph glyph-name="Ccircumflex" unicode="&#x108;" horiz-adv-x="671" 
d="M617 201q-17 -60 -48 -100.5t-71 -65.5t-87 -36t-96 -11q-71 0 -121.5 21.5t-83 60t-48 92t-15.5 118.5q0 107 27.5 191.5t78 143.5t120 90.5t153.5 31.5q57 0 102 -16.5t76 -48.5t46 -79t12 -108l-85 -8q1 43 -7 77t-26.5 58t-49 36.5t-74.5 12.5q-62 0 -113 -24
t-88 -71.5t-57.5 -117t-20.5 -159.5q0 -119 49 -173t140 -54q83 0 130.5 38.5t75.5 116.5zM514 769l-74 79l-95 -81l-70 9l134 128h79l97 -128z" />
    <glyph glyph-name="ccircumflex" unicode="&#x109;" horiz-adv-x="535" 
d="M247 -12q-54 0 -93.5 16t-64.5 44.5t-37 68.5t-12 88q0 76 21 135.5t58 100.5t88.5 62t112.5 21q46 0 80.5 -15t57 -42t32 -64t5.5 -80l-83 -6q1 30 -2.5 55t-15 42.5t-32 27t-52.5 9.5q-30 0 -61.5 -11.5t-56.5 -39.5t-41 -74.5t-16 -116.5q0 -41 9.5 -69.5t25.5 -46
t38 -25.5t46 -8q52 0 87.5 27t52.5 82l79 -15q-11 -44 -33 -75t-51.5 -51.5t-66 -30t-75.5 -9.5zM413 577l-73 115l-103 -116l-71 7l136 165h89l90 -165z" />
    <glyph glyph-name="Cdotaccent" unicode="&#x10a;" horiz-adv-x="671" 
d="M617 201q-17 -60 -48 -100.5t-71 -65.5t-87 -36t-96 -11q-71 0 -121.5 21.5t-83 60t-48 92t-15.5 118.5q0 107 27.5 191.5t78 143.5t120 90.5t153.5 31.5q57 0 102 -16.5t76 -48.5t46 -79t12 -108l-85 -8q1 43 -7 77t-26.5 58t-49 36.5t-74.5 12.5q-62 0 -113 -24
t-88 -71.5t-57.5 -117t-20.5 -159.5q0 -119 49 -173t140 -54q83 0 130.5 38.5t75.5 116.5zM505 854q0 -35 -20 -54.5t-55 -19.5q-27 0 -41.5 14t-14.5 39q0 35 19.5 54.5t54.5 19.5q57 0 57 -53z" />
    <glyph glyph-name="cdotaccent" unicode="&#x10b;" horiz-adv-x="535" 
d="M247 -12q-54 0 -93.5 16t-64.5 44.5t-37 68.5t-12 88q0 76 21 135.5t58 100.5t88.5 62t112.5 21q46 0 80.5 -15t57 -42t32 -64t5.5 -80l-83 -6q1 30 -2.5 55t-15 42.5t-32 27t-52.5 9.5q-30 0 -61.5 -11.5t-56.5 -39.5t-41 -74.5t-16 -116.5q0 -41 9.5 -69.5t25.5 -46
t38 -25.5t46 -8q52 0 87.5 27t52.5 82l79 -15q-11 -44 -33 -75t-51.5 -51.5t-66 -30t-75.5 -9.5zM272 668q0 35 19.5 54.5t54.5 19.5q57 0 57 -53q0 -35 -20 -54.5t-55 -19.5q-27 0 -41.5 14t-14.5 39z" />
    <glyph glyph-name="Ccaron" unicode="&#x10c;" horiz-adv-x="671" 
d="M617 201q-17 -60 -48 -100.5t-71 -65.5t-87 -36t-96 -11q-71 0 -121.5 21.5t-83 60t-48 92t-15.5 118.5q0 107 27.5 191.5t78 143.5t120 90.5t153.5 31.5q57 0 102 -16.5t76 -48.5t46 -79t12 -108l-85 -8q1 43 -7 77t-26.5 58t-49 36.5t-74.5 12.5q-62 0 -113 -24
t-88 -71.5t-57.5 -117t-20.5 -159.5q0 -119 49 -173t140 -54q83 0 130.5 38.5t75.5 116.5zM361 906l74 -79l95 81l70 -10l-134 -127h-78l-97 127z" />
    <glyph glyph-name="ccaron" unicode="&#x10d;" horiz-adv-x="535" 
d="M247 -12q-54 0 -93.5 16t-64.5 44.5t-37 68.5t-12 88q0 76 21 135.5t58 100.5t88.5 62t112.5 21q46 0 80.5 -15t57 -42t32 -64t5.5 -80l-83 -6q1 30 -2.5 55t-15 42.5t-32 27t-52.5 9.5q-30 0 -61.5 -11.5t-56.5 -39.5t-41 -74.5t-16 -116.5q0 -41 9.5 -69.5t25.5 -46
t38 -25.5t46 -8q52 0 87.5 27t52.5 82l79 -15q-11 -44 -33 -75t-51.5 -51.5t-66 -30t-75.5 -9.5zM259 742l70 -114l104 116l70 -7l-135 -165h-89l-90 165z" />
    <glyph glyph-name="Dcaron" unicode="&#x10e;" horiz-adv-x="707" 
d="M51 0l99 724h215q80 0 138 -20.5t95 -58t54.5 -91.5t17.5 -120q0 -93 -25 -172.5t-76.5 -137.5t-130.5 -91t-188 -33h-199zM259 74q153 0 235.5 92t82.5 268q0 60 -15.5 101.5t-45 67t-72 36.5t-96.5 11h-118l-79 -576h108zM313 906l74 -79l95 81l70 -10l-134 -127h-78
l-97 127z" />
    <glyph glyph-name="dcaron" unicode="&#x10f;" horiz-adv-x="623" 
d="M380 0l5 59v1q-36 -30 -80.5 -51t-93.5 -21q-76 0 -122 47t-46 149q0 93 22.5 157.5t58.5 105t81.5 59t91.5 18.5q45 0 79.5 -15.5t59.5 -37.5l39 284h90l-106 -755h-79zM424 405q-16 14 -46 30.5t-71 16.5q-47 0 -79.5 -22.5t-53 -59.5t-30 -84.5t-9.5 -96.5
q0 -60 21.5 -92.5t70.5 -34.5q30 0 60 9q29 9 54.5 25t44.5 33zM639 755h95l-90 -199l-65 8z" />
    <glyph glyph-name="Dcroat" unicode="&#x110;" horiz-adv-x="720" 
d="M64 0l45 331h-70l11 72h69l44 321h215q80 0 138 -20.5t95 -58t54.5 -91.5t17.5 -120q0 -93 -25 -172.5t-76.5 -137.5t-130.5 -91t-188 -33h-199zM272 74q153 0 235.5 92t82.5 268q0 60 -15.5 101.5t-45 67t-72 36.5t-96.5 11h-118l-34 -247h216l-11 -72h-215l-35 -257
h108z" />
    <glyph glyph-name="dcroat" unicode="&#x111;" horiz-adv-x="577" 
d="M380 0l5 59v1q-36 -30 -80.5 -51t-93.5 -21q-76 0 -122 47t-46 149q0 90 22 152t57.5 100t80.5 55t91 17t80.5 -15.5t59.5 -37.5l18 133h-191l9 64h191l14 103h90l-15 -103h68l-9 -64h-68l-82 -588h-79zM421 389q-15 14 -45 30.5t-71 16.5q-47 0 -79.5 -21.5t-52.5 -56.5
t-29 -79t-9 -90q0 -60 21.5 -92.5t70.5 -34.5q30 0 60 9q29 9 54.5 25t44.5 33z" />
    <glyph glyph-name="Emacron" unicode="&#x112;" horiz-adv-x="557" 
d="M51 0l99 724h409l-9 -75h-321l-33 -247h300l-11 -75h-300l-34 -252h333l-11 -75h-422zM211 794l10 69h307l-10 -69h-307z" />
    <glyph glyph-name="emacron" unicode="&#x113;" horiz-adv-x="517" 
d="M242 -12q-56 0 -94.5 18t-62 48.5t-34 71t-10.5 86.5q0 63 18.5 119.5t53.5 99.5t86 68t117 25q42 0 73 -10.5t51.5 -28.5t30.5 -42.5t10 -51.5q0 -32 -10 -57.5t-28 -45t-42.5 -33.5t-53.5 -23t-59 -14.5t-58.5 -9t-54 -5t-43.5 -2.5q0 -26 4.5 -51.5t18 -45.5t37.5 -32
t64 -12q55 0 87 28t44 68l75 -17q-23 -77 -83 -114t-137 -37zM310 455q-39 0 -69.5 -15t-52 -40.5t-34.5 -59t-18 -70.5q9 0 28 1.5t43.5 4t51.5 7.5t53 13q38 12 60 33.5t22 57.5q0 34 -22.5 51t-61.5 17zM200 696h291l-10 -69h-291z" />
    <glyph glyph-name="Ebreve" unicode="&#x114;" horiz-adv-x="557" 
d="M51 0l99 724h409l-9 -75h-321l-33 -247h300l-11 -75h-300l-34 -252h333l-11 -75h-422zM371 841q35 0 58 15t37 57l65 -6q-29 -128 -166 -128q-66 0 -98 32t-34 95l69 7q1 -41 17.5 -56.5t51.5 -15.5z" />
    <glyph glyph-name="ebreve" unicode="&#x115;" horiz-adv-x="517" 
d="M242 -12q-56 0 -94.5 18t-62 48.5t-34 71t-10.5 86.5q0 63 18.5 119.5t53.5 99.5t86 68t117 25q42 0 73 -10.5t51.5 -28.5t30.5 -42.5t10 -51.5q0 -32 -10 -57.5t-28 -45t-42.5 -33.5t-53.5 -23t-59 -14.5t-58.5 -9t-54 -5t-43.5 -2.5q0 -26 4.5 -51.5t18 -45.5t37.5 -32
t64 -12q55 0 87 28t44 68l75 -17q-23 -77 -83 -114t-137 -37zM310 455q-39 0 -69.5 -15t-52 -40.5t-34.5 -59t-18 -70.5q9 0 28 1.5t43.5 4t51.5 7.5t53 13q38 12 60 33.5t22 57.5q0 34 -22.5 51t-61.5 17zM335 634q40 0 64.5 21t35.5 77l66 -6q-8 -76 -51.5 -115
t-118.5 -39q-71 0 -105.5 38.5t-27.5 113.5l68 8q-4 -51 13 -74.5t56 -23.5z" />
    <glyph glyph-name="Edotaccent" unicode="&#x116;" horiz-adv-x="557" 
d="M51 0l99 724h409l-9 -75h-321l-33 -247h300l-11 -75h-300l-34 -252h333l-11 -75h-422zM438 854q0 -35 -20 -54.5t-55 -19.5q-27 0 -41.5 14t-14.5 39q0 35 19.5 54.5t54.5 19.5q57 0 57 -53z" />
    <glyph glyph-name="edotaccent" unicode="&#x117;" horiz-adv-x="517" 
d="M242 -12q-56 0 -94.5 18t-62 48.5t-34 71t-10.5 86.5q0 63 18.5 119.5t53.5 99.5t86 68t117 25q42 0 73 -10.5t51.5 -28.5t30.5 -42.5t10 -51.5q0 -32 -10 -57.5t-28 -45t-42.5 -33.5t-53.5 -23t-59 -14.5t-58.5 -9t-54 -5t-43.5 -2.5q0 -26 4.5 -51.5t18 -45.5t37.5 -32
t64 -12q55 0 87 28t44 68l75 -17q-23 -77 -83 -114t-137 -37zM310 455q-39 0 -69.5 -15t-52 -40.5t-34.5 -59t-18 -70.5q9 0 28 1.5t43.5 4t51.5 7.5t53 13q38 12 60 33.5t22 57.5q0 34 -22.5 51t-61.5 17zM277 668q0 35 19.5 54.5t54.5 19.5q57 0 57 -53q0 -35 -20 -54.5
t-55 -19.5q-27 0 -41.5 14t-14.5 39z" />
    <glyph glyph-name="Eogonek" unicode="&#x118;" horiz-adv-x="557" 
d="M467 -148q-20 -42 -53.5 -60.5t-68.5 -18.5q-42 0 -68.5 21.5t-26.5 59.5q0 24 8.5 45t22 39t31.5 33t37 29h-298l99 724h409l-9 -75h-321l-33 -247h300l-11 -75h-300l-34 -252h333l-11 -75h-44q-44 -37 -71.5 -65.5t-27.5 -64.5q0 -16 8 -25.5t25 -9.5t30 11t27 31z" />
    <glyph glyph-name="eogonek" unicode="&#x119;" horiz-adv-x="517" 
d="M370 -148q-21 -42 -55.5 -60.5t-69.5 -18.5q-41 0 -66.5 21t-25.5 57q0 45 25.5 78t60.5 59q-56 0 -93.5 18t-61 48.5t-33.5 71t-10 86.5q0 63 18.5 119.5t53.5 99.5t86 68t117 25q42 0 73 -10.5t51.5 -28.5t30.5 -42.5t10 -51.5q0 -32 -10.5 -57t-28.5 -44t-42.5 -32.5
t-52.5 -22.5q-29 -9 -59 -15t-58.5 -9t-54 -4.5t-43.5 -2.5q0 -27 4.5 -53t18 -46.5t37.5 -32.5t64 -12q55 0 87 28t44 68l75 -17q-15 -50 -43.5 -80.5t-66.5 -53.5q-54 -32 -86 -65t-32 -71q0 -15 7.5 -24.5t23.5 -9.5q17 0 31 11t28 31zM310 455q-39 0 -69.5 -15
t-52 -40.5t-34.5 -59t-18 -70.5q9 0 28 1t43.5 3.5t51.5 7t53 12.5q38 12 60 34.5t22 58.5q0 34 -22.5 51t-61.5 17z" />
    <glyph glyph-name="Ecaron" unicode="&#x11a;" horiz-adv-x="557" 
d="M51 0l99 724h409l-9 -75h-321l-33 -247h300l-11 -75h-300l-34 -252h333l-11 -75h-422zM294 906l74 -79l95 81l70 -10l-134 -127h-78l-97 127z" />
    <glyph glyph-name="ecaron" unicode="&#x11b;" horiz-adv-x="517" 
d="M242 -12q-56 0 -94.5 18t-62 48.5t-34 71t-10.5 86.5q0 63 18.5 119.5t53.5 99.5t86 68t117 25q42 0 73 -10.5t51.5 -28.5t30.5 -42.5t10 -51.5q0 -32 -10 -57.5t-28 -45t-42.5 -33.5t-53.5 -23t-59 -14.5t-58.5 -9t-54 -5t-43.5 -2.5q0 -26 4.5 -51.5t18 -45.5t37.5 -32
t64 -12q55 0 87 28t44 68l75 -17q-23 -77 -83 -114t-137 -37zM310 455q-39 0 -69.5 -15t-52 -40.5t-34.5 -59t-18 -70.5q9 0 28 1.5t43.5 4t51.5 7.5t53 13q38 12 60 33.5t22 57.5q0 34 -22.5 51t-61.5 17zM264 742l70 -114l104 116l70 -7l-135 -165h-89l-90 165z" />
    <glyph glyph-name="Gcircumflex" unicode="&#x11c;" horiz-adv-x="706" 
d="M595 0h-66l2 96q-13 -23 -36 -43t-53.5 -34.5t-65.5 -22.5t-72 -8q-68 0 -116.5 21.5t-79.5 60.5t-46 93.5t-15 120.5q0 106 27.5 190t77.5 142.5t120.5 89.5t156.5 31q56 0 100.5 -14t75 -43.5t45.5 -75t12 -107.5l-85 -9q4 91 -35 132.5t-120 41.5q-65 0 -117 -26
t-88.5 -74.5t-56 -117.5t-19.5 -156q0 -64 14 -107.5t38.5 -70t59 -38t76.5 -11.5q47 0 84.5 16t65 41.5t43.5 57.5t21 64l9 68h-186l10 68h271zM512 769l-74 79l-95 -81l-70 9l134 128h79l97 -128z" />
    <glyph glyph-name="gcircumflex" unicode="&#x11d;" horiz-adv-x="563" 
d="M291 449q-46 0 -77.5 -23.5t-50.5 -59.5t-27 -78.5t-8 -80.5q0 -71 26.5 -100t70.5 -29q19 0 37.5 3t37.5 11t39.5 21.5t42.5 35.5l34 251q-19 20 -53 34.5t-72 14.5zM377 75q-33 -33 -80.5 -52t-97.5 -19q-36 0 -66 11t-51.5 35t-33.5 61t-12 89q0 54 13 111.5
t42.5 104.5t77.5 77.5t118 30.5q44 0 82 -17t62 -40l9 47h82l-76 -544q-14 -95 -75 -144t-164 -49q-90 0 -143.5 38t-61.5 123l85 14q2 -22 8 -40.5t19.5 -32.5t36 -22t55.5 -8q27 0 52.5 6t46 20.5t35 38t20.5 58.5zM405 577l-73 115l-103 -116l-71 7l136 165h89l90 -165z
" />
    <glyph glyph-name="Gbreve" unicode="&#x11e;" horiz-adv-x="706" 
d="M595 0h-66l2 96q-13 -23 -36 -43t-53.5 -34.5t-65.5 -22.5t-72 -8q-68 0 -116.5 21.5t-79.5 60.5t-46 93.5t-15 120.5q0 106 27.5 190t77.5 142.5t120.5 89.5t156.5 31q56 0 100.5 -14t75 -43.5t45.5 -75t12 -107.5l-85 -9q4 91 -35 132.5t-120 41.5q-65 0 -117 -26
t-88.5 -74.5t-56 -117.5t-19.5 -156q0 -64 14 -107.5t38.5 -70t59 -38t76.5 -11.5q47 0 84.5 16t65 41.5t43.5 57.5t21 64l9 68h-186l10 68h271zM436 841q35 0 58 15t37 57l65 -6q-29 -128 -166 -128q-66 0 -98 32t-34 95l69 7q1 -41 17.5 -56.5t51.5 -15.5z" />
    <glyph glyph-name="gbreve" unicode="&#x11f;" horiz-adv-x="563" 
d="M291 449q-46 0 -77.5 -23.5t-50.5 -59.5t-27 -78.5t-8 -80.5q0 -71 26.5 -100t70.5 -29q19 0 37.5 3t37.5 11t39.5 21.5t42.5 35.5l34 251q-19 20 -53 34.5t-72 14.5zM377 75q-33 -33 -80.5 -52t-97.5 -19q-36 0 -66 11t-51.5 35t-33.5 61t-12 89q0 54 13 111.5
t42.5 104.5t77.5 77.5t118 30.5q44 0 82 -17t62 -40l9 47h82l-76 -544q-14 -95 -75 -144t-164 -49q-90 0 -143.5 38t-61.5 123l85 14q2 -22 8 -40.5t19.5 -32.5t36 -22t55.5 -8q27 0 52.5 6t46 20.5t35 38t20.5 58.5zM322 634q40 0 64.5 21t35.5 77l66 -6q-8 -76 -51.5 -115
t-118.5 -39q-71 0 -105.5 38.5t-27.5 113.5l68 8q-4 -51 13 -74.5t56 -23.5z" />
    <glyph glyph-name="Gdotaccent" unicode="&#x120;" horiz-adv-x="706" 
d="M595 0h-66l2 96q-13 -23 -36 -43t-53.5 -34.5t-65.5 -22.5t-72 -8q-68 0 -116.5 21.5t-79.5 60.5t-46 93.5t-15 120.5q0 106 27.5 190t77.5 142.5t120.5 89.5t156.5 31q56 0 100.5 -14t75 -43.5t45.5 -75t12 -107.5l-85 -9q4 91 -35 132.5t-120 41.5q-65 0 -117 -26
t-88.5 -74.5t-56 -117.5t-19.5 -156q0 -64 14 -107.5t38.5 -70t59 -38t76.5 -11.5q47 0 84.5 16t65 41.5t43.5 57.5t21 64l9 68h-186l10 68h271zM503 854q0 -35 -20 -54.5t-55 -19.5q-27 0 -41.5 14t-14.5 39q0 35 19.5 54.5t54.5 19.5q57 0 57 -53z" />
    <glyph glyph-name="gdotaccent" unicode="&#x121;" horiz-adv-x="563" 
d="M291 449q-46 0 -77.5 -23.5t-50.5 -59.5t-27 -78.5t-8 -80.5q0 -71 26.5 -100t70.5 -29q19 0 37.5 3t37.5 11t39.5 21.5t42.5 35.5l34 251q-19 20 -53 34.5t-72 14.5zM377 75q-33 -33 -80.5 -52t-97.5 -19q-36 0 -66 11t-51.5 35t-33.5 61t-12 89q0 54 13 111.5
t42.5 104.5t77.5 77.5t118 30.5q44 0 82 -17t62 -40l9 47h82l-76 -544q-14 -95 -75 -144t-164 -49q-90 0 -143.5 38t-61.5 123l85 14q2 -22 8 -40.5t19.5 -32.5t36 -22t55.5 -8q27 0 52.5 6t46 20.5t35 38t20.5 58.5zM264 668q0 35 19.5 54.5t54.5 19.5q57 0 57 -53
q0 -35 -20 -54.5t-55 -19.5q-27 0 -41.5 14t-14.5 39z" />
    <glyph glyph-name="Gcommaaccent" unicode="&#x122;" horiz-adv-x="706" 
d="M595 0h-66l2 96q-13 -23 -36 -43t-53.5 -34.5t-65.5 -22.5t-72 -8q-68 0 -116.5 21.5t-79.5 60.5t-46 93.5t-15 120.5q0 106 27.5 190t77.5 142.5t120.5 89.5t156.5 31q56 0 100.5 -14t75 -43.5t45.5 -75t12 -107.5l-85 -9q4 91 -35 132.5t-120 41.5q-65 0 -117 -26
t-88.5 -74.5t-56 -117.5t-19.5 -156q0 -64 14 -107.5t38.5 -70t59 -38t76.5 -11.5q47 0 84.5 16t65 41.5t43.5 57.5t21 64l9 68h-186l10 68h271zM277 -69h97l-92 -171l-66 9z" />
    <glyph glyph-name="gcommaaccent" unicode="&#x123;" horiz-adv-x="563" 
d="M291 449q-46 0 -77.5 -23.5t-50.5 -59.5t-27 -78.5t-8 -80.5q0 -71 26.5 -100t70.5 -29q19 0 37.5 3t37.5 11t39.5 21.5t42.5 35.5l34 251q-19 20 -53 34.5t-72 14.5zM377 75q-33 -33 -80.5 -52t-97.5 -19q-36 0 -66 11t-51.5 35t-33.5 61t-12 89q0 54 13 111.5
t42.5 104.5t77.5 77.5t118 30.5q44 0 82 -17t62 -40l9 47h82l-76 -544q-14 -95 -75 -144t-164 -49q-90 0 -143.5 38t-61.5 123l85 14q2 -22 8 -40.5t19.5 -32.5t36 -22t55.5 -8q27 0 52.5 6t46 20.5t35 38t20.5 58.5zM355 570h-96l92 172l66 -10z" />
    <glyph glyph-name="Hcircumflex" unicode="&#x124;" horiz-adv-x="704" 
d="M569 0h-89l44 334h-340l-44 -334h-90l99 724h89l-43 -314h340l43 314h90zM499 769l-74 79l-95 -81l-70 9l134 128h79l97 -128z" />
    <glyph glyph-name="hcircumflex" unicode="&#x125;" horiz-adv-x="582" 
d="M130 0h-91l106 755h90l-46 -312q15 13 35.5 27t45 26t52 20t57.5 8q78 0 113 -43.5t23 -132.5l-48 -348h-91l47 338q8 59 -10 84.5t-60 25.5q-49 0 -91 -24.5t-80 -53.5zM280 795l-74 79l-95 -81l-70 9l134 128h79l97 -128z" />
    <glyph glyph-name="Hbar" unicode="&#x126;" horiz-adv-x="704" 
d="M650 595h78l-9 -69h-78l-72 -526h-89l44 334h-340l-44 -334h-90l72 526h-79l10 69h78l18 129h89l-18 -129h340l18 129h90zM535 410l16 116h-340l-16 -116h340z" />
    <glyph glyph-name="hbar" unicode="&#x127;" horiz-adv-x="582" 
d="M130 0h-91l82 585h-68l9 65h68l15 105h90l-15 -105h188l-9 -65h-189l-22 -158q15 13 35.5 27t44.5 26t51.5 20t57.5 8q79 0 114 -43.5t23 -132.5l-47 -332h-91l46 322q8 59 -10 84.5t-60 25.5q-50 0 -92 -24.5t-80 -53.5z" />
    <glyph glyph-name="Itilde" unicode="&#x128;" horiz-adv-x="274" 
d="M51 0l99 724h89l-99 -724h-89zM145 900q24 0 42 -7t33.5 -16t30 -16t31.5 -7q18 0 29 11.5t16 40.5l55 -3q-4 -62 -34 -90t-68 -28q-23 0 -41.5 7t-34 16t-31 16t-32.5 7t-28 -11.5t-14 -42.5l-56 2q4 62 34.5 91.5t67.5 29.5z" />
    <glyph glyph-name="itilde" unicode="&#x129;" horiz-adv-x="247" 
d="M128 0h-91l72 514h91zM103 714q24 0 41.5 -7t33 -16t30 -16t31.5 -7q20 0 30 12t15 40l55 -2q-6 -62 -33 -90t-68 -28q-24 0 -42 7t-34 16t-31 16t-32 7t-28 -11.5t-15 -43.5l-56 3q6 63 35.5 91.5t67.5 28.5z" />
    <glyph glyph-name="Imacron" unicode="&#x12a;" horiz-adv-x="274" 
d="M51 0l99 724h89l-99 -724h-89zM49 794l10 69h307l-10 -69h-307z" />
    <glyph glyph-name="imacron" unicode="&#x12b;" horiz-adv-x="247" 
d="M128 0h-91l72 514h91zM34 696h291l-10 -69h-291z" />
    <glyph glyph-name="Ibreve" unicode="&#x12c;" horiz-adv-x="274" 
d="M51 0l99 724h89l-99 -724h-89zM209 841q35 0 58 15t37 57l65 -6q-29 -128 -166 -128q-66 0 -98 32t-34 95l69 7q1 -41 17.5 -56.5t51.5 -15.5z" />
    <glyph glyph-name="ibreve" unicode="&#x12d;" horiz-adv-x="247" 
d="M128 0h-91l72 514h91zM169 634q40 0 64.5 21t35.5 77l66 -6q-8 -76 -51.5 -115t-118.5 -39q-71 0 -105.5 38.5t-27.5 113.5l68 8q-4 -51 13 -74.5t56 -23.5z" />
    <glyph glyph-name="Iogonek" unicode="&#x12e;" horiz-adv-x="274" 
d="M172 -148q-20 -42 -53.5 -60.5t-68.5 -18.5q-42 0 -68.5 21.5t-26.5 59.5q0 24 8 45t21.5 39t31 33t35.5 29l99 724h89l-99 -724q-24 -19 -43.5 -34.5t-33 -30.5t-21 -31t-7.5 -34q0 -16 8 -25.5t25 -9.5t30 11t27 31z" />
    <glyph glyph-name="iogonek" unicode="&#x12f;" horiz-adv-x="247" 
d="M156 -148q-21 -42 -55.5 -60.5t-69.5 -18.5q-41 0 -66.5 21t-25.5 57q0 25 8.5 46t22.5 39.5t31.5 34t35.5 29.5l72 514h91l-72 -514q-53 -37 -80.5 -65.5t-27.5 -65.5q0 -15 7.5 -24.5t23.5 -9.5q17 0 31 11t28 31zM244 689q0 -35 -19.5 -54.5t-54.5 -19.5
q-27 0 -41.5 14t-14.5 39q0 35 19.5 54.5t54.5 19.5q56 0 56 -53z" />
    <glyph glyph-name="Idotaccent" unicode="&#x130;" horiz-adv-x="274" 
d="M51 0l99 724h89l-99 -724h-89zM276 854q0 -35 -20 -54.5t-55 -19.5q-27 0 -41.5 14t-14.5 39q0 35 19.5 54.5t54.5 19.5q57 0 57 -53z" />
    <glyph glyph-name="dotlessi" unicode="&#x131;" horiz-adv-x="247" 
d="M128 0h-91l72 514h91z" />
    <glyph glyph-name="IJ" unicode="&#x132;" horiz-adv-x="771" 
d="M51 0l99 724h89l-99 -724h-89zM654 724h89l-73 -548q-7 -53 -25.5 -89t-46 -58t-63.5 -31.5t-78 -9.5q-84 0 -129 41t-47 126l84 14q3 -24 8 -43.5t15.5 -34t27.5 -22.5t45 -8q22 0 41.5 5t35 18t26 35.5t15.5 58.5z" />
    <glyph glyph-name="Jcircumflex" unicode="&#x134;" horiz-adv-x="497" 
d="M380 724h89l-73 -548q-7 -53 -25.5 -89t-46 -58t-63.5 -31.5t-78 -9.5q-84 0 -129 41t-47 126l84 14q3 -24 8 -43.5t15.5 -34t27.5 -22.5t45 -8q22 0 41.5 5t35 18t26 35.5t15.5 58.5zM514 769l-74 79l-95 -81l-70 9l134 128h79l97 -128z" />
    <glyph glyph-name="jcircumflex" unicode="&#x135;" horiz-adv-x="247" 
d="M109 514h91l-82 -585q-12 -81 -51.5 -116.5t-110.5 -35.5q-12 0 -27 1.5t-29 4.5t-25.5 7t-17.5 8l19 67q15 -6 34 -10.5t38 -4.5q31 0 51.5 17t27.5 64zM247 577l-73 115l-103 -116l-71 7l136 165h89l90 -165z" />
    <glyph glyph-name="Kcommaaccent" unicode="&#x136;" horiz-adv-x="624" 
d="M191 372l356 352h107l-318 -313l232 -411h-104l-198 346l-90 -88l-36 -258h-89l99 724h89zM238 -69h97l-92 -171l-66 9z" />
    <glyph glyph-name="kcommaaccent" unicode="&#x137;" horiz-adv-x="522" 
d="M367 0l-120 267l-91 -80l-26 -187h-91l106 755h91l-66 -466l248 225h108l-204 -186l145 -328h-100zM189 -69h97l-92 -171l-66 9z" />
    <glyph glyph-name="kgreenlandic" unicode="&#x138;" horiz-adv-x="522" 
d="M367 0l-120 267l-91 -80l-26 -187h-91l72 514h91l-32 -225l248 225h108l-204 -186l145 -328h-100z" />
    <glyph glyph-name="Lacute" unicode="&#x139;" horiz-adv-x="534" 
d="M51 0l99 724h89l-88 -648h316l-11 -76h-405zM242 913h114l-160 -146l-68 12z" />
    <glyph glyph-name="lacute" unicode="&#x13a;" horiz-adv-x="247" 
d="M143 755h91l-106 -755h-91zM270 935h114l-160 -146l-68 12z" />
    <glyph glyph-name="Lcommaaccent" unicode="&#x13b;" horiz-adv-x="534" 
d="M51 0l99 724h89l-88 -648h316l-11 -76h-405zM211 -69h97l-92 -171l-66 9z" />
    <glyph glyph-name="lcommaaccent" unicode="&#x13c;" horiz-adv-x="247" 
d="M143 755h91l-106 -755h-91zM35 -69h97l-92 -171l-66 9z" />
    <glyph glyph-name="Lcaron" unicode="&#x13d;" horiz-adv-x="534" 
d="M51 0l99 724h89l-88 -648h316l-11 -76h-405zM355 725h95l-90 -199l-65 8z" />
    <glyph glyph-name="lcaron" unicode="&#x13e;" horiz-adv-x="292" 
d="M143 755h91l-106 -755h-91zM311 755h95l-90 -199l-65 8z" />
    <glyph glyph-name="Ldot" unicode="&#x13f;" horiz-adv-x="534" 
d="M51 0l99 724h89l-88 -648h316l-11 -76h-405zM471.464 411.035q0 -34.6328 -19.7959 -53.9287q-19.7959 -19.2949 -54.4395 -19.2949q-26.7246 0 -41.0771 13.8525q-14.3516 13.8535 -14.3516 38.5908q0 34.6328 19.3008 53.9277q19.3018 19.2959 53.9443 19.2959
q56.4189 0 56.4189 -52.4434z" />
    <glyph glyph-name="ldot" unicode="&#x140;" horiz-adv-x="322" 
d="M143 755h91l-106 -755h-91zM235.261 388.111q0 34.5352 19.2471 53.7754q19.248 19.2402 53.7949 19.2402q56.2627 0 56.2627 -52.2949q0 -34.5342 -19.7412 -53.7744t-54.2881 -19.2402q-26.6514 0 -40.9629 13.8135q-14.3125 13.8135 -14.3125 38.4805z" />
    <glyph glyph-name="Lslash" unicode="&#x141;" horiz-adv-x="534" 
d="M4 324l97 43l49 357h89l-44 -324l203 91l-8 -81l-206 -91l-33 -243h316l-11 -76h-405l39 285l-94 -42z" />
    <glyph glyph-name="lslash" unicode="&#x142;" horiz-adv-x="247" 
d="M5 379l91 41l47 335h91l-43 -304l95 43l-11 -82l-95 -42l-52 -370h-91l47 338l-90 -40z" />
    <glyph glyph-name="Nacute" unicode="&#x143;" horiz-adv-x="720" 
d="M478 0l-259 614l-85 -614h-83l99 724h118l251 -608l84 608h82l-99 -724h-108zM478 913h114l-160 -146l-68 12z" />
    <glyph glyph-name="nacute" unicode="&#x144;" horiz-adv-x="582" 
d="M130 0h-91l72 514h86l-11 -71h1q15 13 35.5 27.5t45.5 26.5t53.5 19.5t59.5 7.5q75 0 110.5 -43.5t23.5 -132.5l-48 -348h-91l47 338q8 57 -9.5 83.5t-59.5 26.5q-25 0 -49.5 -8t-47 -19.5t-42 -25t-33.5 -24.5zM377 747h113l-165 -175l-64 12z" />
    <glyph glyph-name="Ncommaaccent" unicode="&#x145;" horiz-adv-x="720" 
d="M478 0l-259 614l-85 -614h-83l99 724h118l251 -608l84 608h82l-99 -724h-108zM274 -69h97l-92 -171l-66 9z" />
    <glyph glyph-name="ncommaaccent" unicode="&#x146;" horiz-adv-x="582" 
d="M130 0h-91l72 514h86l-11 -71h1q15 13 35.5 27.5t45.5 26.5t53.5 19.5t59.5 7.5q75 0 110.5 -43.5t23.5 -132.5l-48 -348h-91l47 338q8 57 -9.5 83.5t-59.5 26.5q-25 0 -49.5 -8t-47 -19.5t-42 -25t-33.5 -24.5zM204 -69h97l-92 -171l-66 9z" />
    <glyph glyph-name="Ncaron" unicode="&#x147;" horiz-adv-x="720" 
d="M478 0l-259 614l-85 -614h-83l99 724h118l251 -608l84 608h82l-99 -724h-108zM368 906l74 -79l95 81l70 -10l-134 -127h-78l-97 127z" />
    <glyph glyph-name="ncaron" unicode="&#x148;" horiz-adv-x="582" 
d="M130 0h-91l72 514h86l-11 -71h1q15 13 35.5 27.5t45.5 26.5t53.5 19.5t59.5 7.5q75 0 110.5 -43.5t23.5 -132.5l-48 -348h-91l47 338q8 57 -9.5 83.5t-59.5 26.5q-25 0 -49.5 -8t-47 -19.5t-42 -25t-33.5 -24.5zM263 742l70 -114l104 116l70 -7l-135 -165h-89l-90 165z
" />
    <glyph glyph-name="napostrophe" unicode="&#x149;" horiz-adv-x="601" 
d="M149 0h-91l72 514h86l-11 -71h1q15 13 35.5 27.5t45.5 26.5t53.5 19.5t59.5 7.5q75 0 110.5 -43.5t23.5 -132.5l-48 -348h-91l47 338q8 57 -9.5 83.5t-59.5 26.5q-25 0 -49.5 -8t-47 -19.5t-42 -25t-33.5 -24.5zM73.6211 667.293h94.3945l-89.5293 -167.37
l-64.2266 9.73047z" />
    <glyph glyph-name="Eng" unicode="&#x14a;" horiz-adv-x="720" 
d="M575 -76q-13 -80 -52.5 -116t-109.5 -36q-12 0 -27 1.5t-29 4.5t-25.5 7t-17.5 8l19 68q15 -6 34 -10.5t38 -4.5q31 0 51.5 16.5t27.5 64.5l10 70l-275 617l-85 -614h-83l99 724h118l255 -581l80 581h82l-99 -724z" />
    <glyph glyph-name="eng" unicode="&#x14b;" horiz-adv-x="582" 
d="M380 31l43 307q8 57 -9.5 83.5t-59.5 26.5q-25 0 -49.5 -8t-47 -19.5t-42 -25t-33.5 -24.5l-52 -371h-91l72 514h86l-11 -71h1q15 13 35.5 27.5t45.5 26.5t53.5 19.5t59.5 7.5q75 0 110.5 -43.5t23.5 -132.5l-48 -348h-1l-10 -71q-11 -81 -51 -116.5t-110 -35.5
q-12 0 -27 1.5t-29 4.5t-25.5 7t-17.5 8l19 67q15 -6 33.5 -10.5t38.5 -4.5q31 0 51.5 17t27.5 64z" />
    <glyph glyph-name="Omacron" unicode="&#x14c;" horiz-adv-x="735" 
d="M327 -12q-74 0 -126.5 22.5t-87 63t-50.5 95.5t-16 121q0 95 24.5 177t72.5 142t119.5 94t165.5 34q72 0 124 -23t85 -62.5t48.5 -93.5t15.5 -116q0 -103 -25.5 -186.5t-73.5 -143t-117.5 -92t-158.5 -32.5zM336 65q60 0 110 25.5t85.5 73t55 115.5t19.5 154q0 53 -12 95
q-18 64 -62 98t-114 34q-62 0 -112.5 -25t-87.5 -72t-57 -114t-20 -152q0 -27 3.5 -51.5t8.5 -45.5q18 -66 63.5 -100.5t119.5 -34.5zM282 794l10 69h307l-10 -69h-307z" />
    <glyph glyph-name="omacron" unicode="&#x14d;" horiz-adv-x="577" 
d="M247 -12q-54 0 -93.5 15t-64.5 42.5t-37 66t-12 85.5q0 17 1 33t3 32q8 58 29.5 106.5t56.5 83t83 53.5t110 19q55 0 93.5 -16t62.5 -44.5t34.5 -66.5t10.5 -82q0 -17 -1 -32.5t-3 -32.5q-15 -122 -84 -192t-189 -70zM255 57q69 0 115 49.5t58 150.5q3 30 3 59
q0 135 -119 135q-70 0 -117.5 -47.5t-59.5 -146.5q-3 -27 -3 -56q0 -71 30.5 -107.5t92.5 -36.5zM199 696h291l-10 -69h-291z" />
    <glyph glyph-name="Obreve" unicode="&#x14e;" horiz-adv-x="735" 
d="M327 -12q-74 0 -126.5 22.5t-87 63t-50.5 95.5t-16 121q0 95 24.5 177t72.5 142t119.5 94t165.5 34q72 0 124 -23t85 -62.5t48.5 -93.5t15.5 -116q0 -103 -25.5 -186.5t-73.5 -143t-117.5 -92t-158.5 -32.5zM336 65q60 0 110 25.5t85.5 73t55 115.5t19.5 154q0 53 -12 95
q-18 64 -62 98t-114 34q-62 0 -112.5 -25t-87.5 -72t-57 -114t-20 -152q0 -27 3.5 -51.5t8.5 -45.5q18 -66 63.5 -100.5t119.5 -34.5zM442 841q35 0 58 15t37 57l65 -6q-29 -128 -166 -128q-66 0 -98 32t-34 95l69 7q1 -41 17.5 -56.5t51.5 -15.5z" />
    <glyph glyph-name="obreve" unicode="&#x14f;" horiz-adv-x="577" 
d="M247 -12q-54 0 -93.5 15t-64.5 42.5t-37 66t-12 85.5q0 17 1 33t3 32q8 58 29.5 106.5t56.5 83t83 53.5t110 19q55 0 93.5 -16t62.5 -44.5t34.5 -66.5t10.5 -82q0 -17 -1 -32.5t-3 -32.5q-15 -122 -84 -192t-189 -70zM255 57q69 0 115 49.5t58 150.5q3 30 3 59
q0 135 -119 135q-70 0 -117.5 -47.5t-59.5 -146.5q-3 -27 -3 -56q0 -71 30.5 -107.5t92.5 -36.5zM334 634q40 0 64.5 21t35.5 77l66 -6q-8 -76 -51.5 -115t-118.5 -39q-71 0 -105.5 38.5t-27.5 113.5l68 8q-4 -51 13 -74.5t56 -23.5z" />
    <glyph glyph-name="Ohungarumlaut" unicode="&#x150;" horiz-adv-x="735" 
d="M327 -12q-74 0 -126.5 22.5t-87 63t-50.5 95.5t-16 121q0 95 24.5 177t72.5 142t119.5 94t165.5 34q72 0 124 -23t85 -62.5t48.5 -93.5t15.5 -116q0 -103 -25.5 -186.5t-73.5 -143t-117.5 -92t-158.5 -32.5zM336 65q60 0 110 25.5t85.5 73t55 115.5t19.5 154q0 53 -12 95
q-18 64 -62 98t-114 34q-62 0 -112.5 -25t-87.5 -72t-57 -114t-20 -152q0 -27 3.5 -51.5t8.5 -45.5q18 -66 63.5 -100.5t119.5 -34.5zM411 913h108l-128 -146l-65 13zM572 917h110l-163 -150l-66 12z" />
    <glyph glyph-name="ohungarumlaut" unicode="&#x151;" horiz-adv-x="577" 
d="M247 -12q-54 0 -93.5 15t-64.5 42.5t-37 66t-12 85.5q0 17 1 33t3 32q8 58 29.5 106.5t56.5 83t83 53.5t110 19q55 0 93.5 -16t62.5 -44.5t34.5 -66.5t10.5 -82q0 -17 -1 -32.5t-3 -32.5q-15 -122 -84 -192t-189 -70zM255 57q69 0 115 49.5t58 150.5q3 30 3 59
q0 135 -119 135q-70 0 -117.5 -47.5t-59.5 -146.5q-3 -27 -3 -56q0 -71 30.5 -107.5t92.5 -36.5zM313 747h106l-140 -175l-63 13zM470 748h109l-168 -176l-64 12z" />
    <glyph glyph-name="OE" unicode="&#x152;" horiz-adv-x="1077" 
d="M573 0l15 111q-46 -59 -111.5 -91t-150.5 -32q-72 0 -124.5 23t-87 64.5t-51 98t-16.5 122.5q0 95 26 175.5t75.5 139.5t121.5 92.5t164 33.5q85 0 140.5 -37.5t81.5 -97.5l17 122h406l-10 -75h-324l-34 -247h303l-11 -75h-302l-36 -252h336l-11 -75h-417zM337 64
q58 0 110 22.5t91 68.5t62 114t23 160q0 112 -53.5 172t-143.5 60q-60 0 -111.5 -23.5t-89.5 -69.5t-60 -113t-22 -155q0 -115 51.5 -175.5t142.5 -60.5z" />
    <glyph glyph-name="oe" unicode="&#x153;" horiz-adv-x="896" 
d="M624 -12q-72 0 -114.5 31.5t-57.5 77.5q-30 -48 -81.5 -78.5t-126.5 -30.5q-53 0 -91.5 15t-63.5 43t-37 67.5t-12 89.5q0 60 16.5 117.5t51 103t87.5 73t126 27.5q37 0 65 -9t49 -24t35 -35t22 -42q13 22 33.5 42t46.5 35t57 24t67 9q41 0 71.5 -10.5t51 -28.5
t30.5 -42.5t10 -51.5q0 -62 -35 -99t-87.5 -56.5t-113 -26t-112.5 -8.5q0 -27 4.5 -52.5t17.5 -45t37.5 -31.5t64.5 -12q54 0 86 28t45 68l75 -17q-12 -38 -33 -66.5t-49.5 -47.5t-63 -28t-71.5 -9zM255 57q50 0 83.5 22t54 58t29.5 81.5t9 92.5q0 72 -30 106t-89 34
q-49 0 -83.5 -22t-56 -57.5t-31 -79t-9.5 -86.5q0 -149 123 -149zM688 455q-39 0 -69.5 -15t-52.5 -40.5t-35 -59.5t-17 -71q27 1 76 5.5t100 20.5q38 12 60.5 34t22.5 58q0 34 -23 51t-62 17z" />
    <glyph glyph-name="Racute" unicode="&#x154;" horiz-adv-x="617" 
d="M555 0h-98l-118 305h-158l-42 -305h-88l99 724h228q62 0 103 -14.5t66 -38.5t35 -55.5t10 -65.5q0 -88 -42.5 -141.5t-123.5 -82.5zM302 377q42 0 78 8.5t62 28.5t41 52.5t15 80.5q0 30 -10.5 50t-30 32t-46.5 16.5t-61 4.5h-122l-37 -273h111zM402 913h114l-160 -146
l-68 12z" />
    <glyph glyph-name="racute" unicode="&#x155;" horiz-adv-x="365" 
d="M130 0h-91l72 514h84l-11 -87q40 44 77.5 70t90.5 26h12t12 -1l-13 -90q-51 5 -94.5 -15t-88.5 -59zM308 747h113l-165 -175l-64 12z" />
    <glyph glyph-name="Rcommaaccent" unicode="&#x156;" horiz-adv-x="617" 
d="M555 0h-98l-118 305h-158l-42 -305h-88l99 724h228q62 0 103 -14.5t66 -38.5t35 -55.5t10 -65.5q0 -88 -42.5 -141.5t-123.5 -82.5zM302 377q42 0 78 8.5t62 28.5t41 52.5t15 80.5q0 30 -10.5 50t-30 32t-46.5 16.5t-61 4.5h-122l-37 -273h111zM234 -69h97l-92 -171
l-66 9z" />
    <glyph glyph-name="rcommaaccent" unicode="&#x157;" horiz-adv-x="365" 
d="M130 0h-91l72 514h84l-11 -87q40 44 77.5 70t90.5 26h12t12 -1l-13 -90q-51 5 -94.5 -15t-88.5 -59zM40 -69h97l-92 -171l-66 9z" />
    <glyph glyph-name="Rcaron" unicode="&#x158;" horiz-adv-x="617" 
d="M555 0h-98l-118 305h-158l-42 -305h-88l99 724h228q62 0 103 -14.5t66 -38.5t35 -55.5t10 -65.5q0 -88 -42.5 -141.5t-123.5 -82.5zM302 377q42 0 78 8.5t62 28.5t41 52.5t15 80.5q0 30 -10.5 50t-30 32t-46.5 16.5t-61 4.5h-122l-37 -273h111zM284 906l74 -79l95 81
l70 -10l-134 -127h-78l-97 127z" />
    <glyph glyph-name="rcaron" unicode="&#x159;" horiz-adv-x="365" 
d="M130 0h-91l72 514h84l-11 -87q40 44 77.5 70t90.5 26h12t12 -1l-13 -90q-51 5 -94.5 -15t-88.5 -59zM182 742l70 -114l104 116l70 -7l-135 -165h-89l-90 165z" />
    <glyph glyph-name="Sacute" unicode="&#x15a;" horiz-adv-x="566" 
d="M465 521q0 27 -5 52.5t-19 46t-39 32.5t-66 12q-42 0 -72.5 -10.5t-50 -28.5t-29 -42.5t-9.5 -51.5q0 -29 13 -49t34 -34t48.5 -24t56.5 -20q33 -11 66 -24t60 -33.5t43.5 -51.5t16.5 -78q0 -60 -22.5 -103.5t-59.5 -71.5t-86 -41t-101 -13q-112 0 -172.5 52t-64.5 157
l85 11q3 -29 10.5 -55t24.5 -46t46.5 -32t76.5 -12q28 0 58 6.5t55 22.5t40.5 43.5t15.5 68.5q0 29 -11 48.5t-30 33.5t-43.5 23.5t-51.5 18.5q-35 11 -71 23.5t-65 33t-47 53t-18 83.5q0 50 19 90t53.5 68t81.5 43t104 15q46 0 85.5 -11t68 -35.5t43.5 -63.5t14 -96z
M380 913h114l-160 -146l-68 12z" />
    <glyph glyph-name="sacute" unicode="&#x15b;" horiz-adv-x="486" 
d="M268 524q46 0 79 -12t54.5 -33t32.5 -50t13 -63l-77 -11q-2 43 -25 73t-79 30q-30 0 -50.5 -6.5t-33 -17.5t-18 -25t-5.5 -29q0 -18 7.5 -31t20.5 -22.5t30 -16t36 -12.5q28 -8 58 -17t54.5 -24.5t40 -40.5t15.5 -65q0 -39 -15 -69.5t-42.5 -51t-66 -31.5t-84.5 -11
q-91 0 -137.5 39.5t-53.5 116.5l75 17q3 -22 9.5 -41t20 -33.5t36 -22.5t55.5 -8q20 0 40.5 4t37 13t26.5 25t10 40q0 20 -8.5 34t-22.5 23.5t-32.5 16t-39.5 12.5q-27 7 -55 16t-50.5 24t-36.5 40t-14 64q0 41 16.5 70.5t44 48.5t62.5 28t72 9zM328 747h113l-165 -175
l-64 12z" />
    <glyph glyph-name="Scircumflex" unicode="&#x15c;" horiz-adv-x="566" 
d="M465 521q0 27 -5 52.5t-19 46t-39 32.5t-66 12q-42 0 -72.5 -10.5t-50 -28.5t-29 -42.5t-9.5 -51.5q0 -29 13 -49t34 -34t48.5 -24t56.5 -20q33 -11 66 -24t60 -33.5t43.5 -51.5t16.5 -78q0 -60 -22.5 -103.5t-59.5 -71.5t-86 -41t-101 -13q-112 0 -172.5 52t-64.5 157
l85 11q3 -29 10.5 -55t24.5 -46t46.5 -32t76.5 -12q28 0 58 6.5t55 22.5t40.5 43.5t15.5 68.5q0 29 -11 48.5t-30 33.5t-43.5 23.5t-51.5 18.5q-35 11 -71 23.5t-65 33t-47 53t-18 83.5q0 50 19 90t53.5 68t81.5 43t104 15q46 0 85.5 -11t68 -35.5t43.5 -63.5t14 -96z
M429 769l-74 79l-95 -81l-70 9l134 128h79l97 -128z" />
    <glyph glyph-name="scircumflex" unicode="&#x15d;" horiz-adv-x="486" 
d="M268 524q46 0 79 -12t54.5 -33t32.5 -50t13 -63l-77 -11q-2 43 -25 73t-79 30q-30 0 -50.5 -6.5t-33 -17.5t-18 -25t-5.5 -29q0 -18 7.5 -31t20.5 -22.5t30 -16t36 -12.5q28 -8 58 -17t54.5 -24.5t40 -40.5t15.5 -65q0 -39 -15 -69.5t-42.5 -51t-66 -31.5t-84.5 -11
q-91 0 -137.5 39.5t-53.5 116.5l75 17q3 -22 9.5 -41t20 -33.5t36 -22.5t55.5 -8q20 0 40.5 4t37 13t26.5 25t10 40q0 20 -8.5 34t-22.5 23.5t-32.5 16t-39.5 12.5q-27 7 -55 16t-50.5 24t-36.5 40t-14 64q0 41 16.5 70.5t44 48.5t62.5 28t72 9zM373 577l-73 115l-103 -116
l-71 7l136 165h89l90 -165z" />
    <glyph glyph-name="Scedilla" unicode="&#x15e;" horiz-adv-x="566" 
d="M143 -159q8 -5 22.5 -10.5t31.5 -5.5q26 0 40.5 14t14.5 34q0 23 -16 33t-51 11l20 73q-94 8 -145 59t-54 147l85 12q3 -29 10 -55.5t24 -46.5t46 -32.5t74 -12.5q31 0 62 7t56 23.5t40.5 44t15.5 68.5q0 29 -11 48.5t-30 33.5t-43.5 23.5t-51.5 18.5q-35 11 -71 23.5
t-65 33t-47 53t-18 83.5q0 50 20 90t55 68t82 43t101 15q46 0 85.5 -11t68 -35.5t43.5 -63.5t14 -96l-86 -10q0 27 -5 52.5t-19 46t-39 32.5t-66 12q-42 0 -72.5 -10.5t-50 -28.5t-29 -42.5t-9.5 -51.5q0 -29 13 -49t34 -34t48.5 -24t56.5 -20q33 -11 66 -24t60 -33.5
t43.5 -51.5t16.5 -78q0 -57 -20.5 -99t-55 -70t-80 -42.5t-94.5 -16.5l-9 -33q26 -5 47 -23.5t21 -54.5q0 -52 -34 -79.5t-85 -27.5q-29 0 -48.5 6.5t-30.5 13.5z" />
    <glyph glyph-name="scedilla" unicode="&#x15f;" horiz-adv-x="486" 
d="M116 -159q8 -5 22.5 -10.5t31.5 -5.5q27 0 41.5 14t14.5 34q0 23 -16 33t-51 11l20 73q-147 13 -159 153l77 17q3 -22 9.5 -41t20 -33.5t36 -23t55.5 -8.5q20 0 40.5 4t37 14t26.5 26t10 40q0 31 -19 47.5t-48 26.5t-62.5 18.5t-62.5 23.5t-48 41.5t-19 72.5
q0 41 16.5 70.5t44 48.5t62.5 28t72 9q46 0 79 -12t54.5 -33t32.5 -50t13 -63l-77 -11q-2 43 -25 73t-79 30q-30 0 -50.5 -6.5t-33 -17.5t-18 -25t-5.5 -29q0 -30 19.5 -46t48.5 -26t62.5 -18.5t62.5 -24t48.5 -42t19.5 -72.5q0 -74 -50 -115.5t-134 -46.5l-9 -33
q26 -5 47 -23.5t21 -54.5q0 -52 -34 -79.5t-85 -27.5q-28 0 -48 6.5t-30 13.5z" />
    <glyph glyph-name="Scaron" unicode="&#x160;" horiz-adv-x="566" 
d="M465 521q0 27 -5 52.5t-19 46t-39 32.5t-66 12q-42 0 -72.5 -10.5t-50 -28.5t-29 -42.5t-9.5 -51.5q0 -29 13 -49t34 -34t48.5 -24t56.5 -20q33 -11 66 -24t60 -33.5t43.5 -51.5t16.5 -78q0 -60 -22.5 -103.5t-59.5 -71.5t-86 -41t-101 -13q-112 0 -172.5 52t-64.5 157
l85 11q3 -29 10.5 -55t24.5 -46t46.5 -32t76.5 -12q28 0 58 6.5t55 22.5t40.5 43.5t15.5 68.5q0 29 -11 48.5t-30 33.5t-43.5 23.5t-51.5 18.5q-35 11 -71 23.5t-65 33t-47 53t-18 83.5q0 50 19 90t53.5 68t81.5 43t104 15q46 0 85.5 -11t68 -35.5t43.5 -63.5t14 -96z
M276 906l74 -79l95 81l70 -10l-134 -127h-78l-97 127z" />
    <glyph glyph-name="scaron" unicode="&#x161;" horiz-adv-x="486" 
d="M268 524q46 0 79 -12t54.5 -33t32.5 -50t13 -63l-77 -11q-2 43 -25 73t-79 30q-30 0 -50.5 -6.5t-33 -17.5t-18 -25t-5.5 -29q0 -18 7.5 -31t20.5 -22.5t30 -16t36 -12.5q28 -8 58 -17t54.5 -24.5t40 -40.5t15.5 -65q0 -39 -15 -69.5t-42.5 -51t-66 -31.5t-84.5 -11
q-91 0 -137.5 39.5t-53.5 116.5l75 17q3 -22 9.5 -41t20 -33.5t36 -22.5t55.5 -8q20 0 40.5 4t37 13t26.5 25t10 40q0 20 -8.5 34t-22.5 23.5t-32.5 16t-39.5 12.5q-27 7 -55 16t-50.5 24t-36.5 40t-14 64q0 41 16.5 70.5t44 48.5t62.5 28t72 9zM219 742l70 -114l104 116
l70 -7l-135 -165h-89l-90 165z" />
    <glyph glyph-name="uni0162" unicode="&#x162;" horiz-adv-x="537" 
d="M132 -159q8 -5 22.5 -10.5t31.5 -5.5q26 0 40.5 14t14.5 34q0 23 -16 33t-51 11l23 83h-15l88 648h-212l10 76h513l-11 -76h-211l-88 -648h-16l-12 -44q26 -5 47 -23.5t21 -54.5q0 -52 -34 -79.5t-85 -27.5q-29 0 -48.5 6.5t-30.5 13.5z" />
    <glyph glyph-name="uni0163" unicode="&#x163;" horiz-adv-x="381" 
d="M90 -159q8 -5 22.5 -10.5t31.5 -5.5q27 0 41.5 14t14.5 34q0 23 -16 33t-51 11l21 77q-95 21 -77 142l44 311h-80l9 67h80l21 148l92 13l-22 -161h141l-9 -67h-141l-43 -301q-3 -20 -2.5 -36.5t6.5 -28t19 -17.5t36 -6q25 0 50 8t42 18l12 -64q-21 -13 -54.5 -22
t-67.5 -10l-9 -32q26 -5 47 -23.5t21 -54.5q0 -52 -34 -79.5t-85 -27.5q-28 0 -48 6.5t-30 13.5z" />
    <glyph glyph-name="Tcaron" unicode="&#x164;" horiz-adv-x="537" 
d="M182 0l88 648h-212l10 76h513l-11 -76h-211l-88 -648h-89zM264 906l74 -79l95 81l70 -10l-134 -127h-78l-97 127z" />
    <glyph glyph-name="tcaron" unicode="&#x165;" horiz-adv-x="381" 
d="M332 20q-21 -13 -55.5 -22.5t-69.5 -9.5q-74 0 -107.5 35.5t-22.5 112.5l44 311h-80l9 67h80l21 148l92 13l-22 -161h141l-9 -67h-141l-43 -301q-3 -20 -2.5 -36.5t6.5 -28t19 -17.5t36 -6q25 0 50 8t42 18zM331 755h95l-90 -199l-65 8z" />
    <glyph glyph-name="Tbar" unicode="&#x166;" horiz-adv-x="537" 
d="M97 401h139l34 247h-212l10 76h513l-11 -76h-211l-34 -247h146l-11 -73h-145l-44 -328h-89l44 328h-140z" />
    <glyph glyph-name="tbar" unicode="&#x167;" horiz-adv-x="381" 
d="M332 20q-21 -13 -55.5 -22.5t-69.5 -9.5q-74 0 -107.5 35.5t-22.5 112.5l14 104h-78l9 67h79l20 140h-80l9 67h80l21 148l92 13l-22 -161h141l-9 -67h-141l-20 -140h142l-9 -67h-143l-13 -94q-3 -20 -2.5 -36.5t6.5 -28t19 -17.5t36 -6q25 0 50 8t42 18z" />
    <glyph glyph-name="Utilde" unicode="&#x168;" horiz-adv-x="693" 
d="M596 242q-18 -131 -91.5 -192.5t-198.5 -61.5q-137 0 -190.5 65.5t-36.5 192.5l65 478h90l-64 -473q-14 -101 22 -144t119 -43q42 0 75.5 9.5t58 31.5t40 57.5t22.5 86.5l65 475h89zM354 900q24 0 42 -7t33.5 -16t30 -16t31.5 -7q18 0 29 11.5t16 40.5l55 -3
q-4 -62 -34 -90t-68 -28q-23 0 -41.5 7t-34 16t-31 16t-32.5 7t-28 -11.5t-14 -42.5l-56 2q4 62 34.5 91.5t67.5 29.5z" />
    <glyph glyph-name="utilde" unicode="&#x169;" horiz-adv-x="580" 
d="M440 514h91l-72 -514h-82l9 68q-15 -14 -36 -27.5t-46 -25t-53.5 -18.5t-57.5 -7q-78 0 -112 44t-22 133l48 347h91l-47 -338q-2 -17 -2.5 -31t1.5 -25q3 -30 21 -43t51 -13q46 0 90 22.5t76 50.5zM266 714q24 0 41.5 -7t33 -16t30 -16t31.5 -7q20 0 30 12t15 40l55 -2
q-6 -62 -33 -90t-68 -28q-24 0 -42 7t-34 16t-31 16t-32 7t-28 -11.5t-15 -43.5l-56 3q6 63 35.5 91.5t67.5 28.5z" />
    <glyph glyph-name="Umacron" unicode="&#x16a;" horiz-adv-x="693" 
d="M596 242q-18 -131 -91.5 -192.5t-198.5 -61.5q-137 0 -190.5 65.5t-36.5 192.5l65 478h90l-64 -473q-14 -101 22 -144t119 -43q42 0 75.5 9.5t58 31.5t40 57.5t22.5 86.5l65 475h89zM258 794l10 69h307l-10 -69h-307z" />
    <glyph glyph-name="umacron" unicode="&#x16b;" horiz-adv-x="580" 
d="M440 514h91l-72 -514h-82l9 68q-15 -14 -36 -27.5t-46 -25t-53.5 -18.5t-57.5 -7q-78 0 -112 44t-22 133l48 347h91l-47 -338q-2 -17 -2.5 -31t1.5 -25q3 -30 21 -43t51 -13q46 0 90 22.5t76 50.5zM197 696h291l-10 -69h-291z" />
    <glyph glyph-name="Ubreve" unicode="&#x16c;" horiz-adv-x="693" 
d="M596 242q-18 -131 -91.5 -192.5t-198.5 -61.5q-137 0 -190.5 65.5t-36.5 192.5l65 478h90l-64 -473q-14 -101 22 -144t119 -43q42 0 75.5 9.5t58 31.5t40 57.5t22.5 86.5l65 475h89zM418 841q35 0 58 15t37 57l65 -6q-29 -128 -166 -128q-66 0 -98 32t-34 95l69 7
q1 -41 17.5 -56.5t51.5 -15.5z" />
    <glyph glyph-name="ubreve" unicode="&#x16d;" horiz-adv-x="580" 
d="M440 514h91l-72 -514h-82l9 68q-15 -14 -36 -27.5t-46 -25t-53.5 -18.5t-57.5 -7q-78 0 -112 44t-22 133l48 347h91l-47 -338q-2 -17 -2.5 -31t1.5 -25q3 -30 21 -43t51 -13q46 0 90 22.5t76 50.5zM332 634q40 0 64.5 21t35.5 77l66 -6q-8 -76 -51.5 -115t-118.5 -39
q-71 0 -105.5 38.5t-27.5 113.5l68 8q-4 -51 13 -74.5t56 -23.5z" />
    <glyph glyph-name="Uring" unicode="&#x16e;" horiz-adv-x="693" 
d="M596 242q-18 -131 -91.5 -192.5t-198.5 -61.5q-137 0 -190.5 65.5t-36.5 192.5l65 478h90l-64 -473q-14 -101 22 -144t119 -43q42 0 75.5 9.5t58 31.5t40 57.5t22.5 86.5l65 475h89zM523 848q0 -54 -34 -85.5t-88 -31.5q-44 0 -69 22t-25 62q0 29 10 51t27 36.5t39 22
t46 7.5q40 0 67 -20.5t27 -63.5zM407 781q29 0 44 17t15 44q0 40 -44 40q-25 0 -42 -15t-17 -45q0 -41 44 -41z" />
    <glyph glyph-name="uring" unicode="&#x16f;" horiz-adv-x="580" 
d="M440 514h91l-72 -514h-82l9 68q-15 -14 -36 -27.5t-46 -25t-53.5 -18.5t-57.5 -7q-78 0 -112 44t-22 133l48 347h91l-47 -338q-2 -17 -2.5 -31t1.5 -25q3 -30 21 -43t51 -13q46 0 90 22.5t76 50.5zM445 689q0 -54 -34 -84.5t-88 -30.5q-43 0 -68 21.5t-25 60.5
q0 29 10 51t27 36.5t39 22t45 7.5q40 0 67 -20.5t27 -63.5zM330 623q27 0 42 16.5t15 43.5q0 39 -43 39q-24 0 -41 -15t-17 -44q0 -40 44 -40z" />
    <glyph glyph-name="Uhungarumlaut" unicode="&#x170;" horiz-adv-x="693" 
d="M596 242q-18 -131 -91.5 -192.5t-198.5 -61.5q-137 0 -190.5 65.5t-36.5 192.5l65 478h90l-64 -473q-14 -101 22 -144t119 -43q42 0 75.5 9.5t58 31.5t40 57.5t22.5 86.5l65 475h89zM387 913h108l-128 -146l-65 13zM548 917h110l-163 -150l-66 12z" />
    <glyph glyph-name="uhungarumlaut" unicode="&#x171;" horiz-adv-x="580" 
d="M440 514h91l-72 -514h-82l9 68q-15 -14 -36 -27.5t-46 -25t-53.5 -18.5t-57.5 -7q-78 0 -112 44t-22 133l48 347h91l-47 -338q-2 -17 -2.5 -31t1.5 -25q3 -30 21 -43t51 -13q46 0 90 22.5t76 50.5zM311 747h106l-140 -175l-63 13zM468 748h109l-168 -176l-64 12z" />
    <glyph glyph-name="Uogonek" unicode="&#x172;" horiz-adv-x="693" 
d="M468 -148q-20 -42 -53.5 -60.5t-68.5 -18.5q-42 0 -68.5 21.5t-26.5 59.5q0 44 25 76.5t59 58.5q-8 0 -14.5 -0.5t-14.5 -0.5q-137 0 -190.5 65.5t-36.5 192.5l65 478h90l-64 -473q-14 -101 22 -144t119 -43q42 0 75 9.5t57.5 31.5t40.5 57.5t23 86.5l65 475h89l-65 -482
q-13 -91 -52 -144.5t-98 -89.5q-53 -32 -84 -66t-31 -72q0 -16 8 -25.5t25 -9.5t30 11t27 31z" />
    <glyph glyph-name="uogonek" unicode="&#x173;" horiz-adv-x="580" 
d="M489 -148q-21 -42 -55.5 -60.5t-69.5 -18.5q-41 0 -66.5 21t-25.5 57q0 25 9 46.5t23.5 40t33.5 34t39 29.5l9 67q-15 -14 -36 -27.5t-46 -25t-53.5 -18.5t-57.5 -7q-78 0 -112 44t-22 133l48 347h91l-47 -338q-2 -17 -2.5 -31t1.5 -25q3 -30 21 -43t51 -13q46 0 90 22.5
t76 50.5l52 377h91l-72 -514q-26 -19 -45.5 -34.5t-33 -31t-20.5 -31t-7 -34.5q0 -15 7.5 -24.5t23.5 -9.5q17 0 31 11t28 31z" />
    <glyph glyph-name="Wcircumflex" unicode="&#x174;" horiz-adv-x="880" 
d="M547 0l-67 602h-1l-232 -602h-113l-55 724h93l35 -621h1l238 621h102l70 -629h1l200 629h89l-246 -724h-115zM587 769l-74 79l-95 -81l-70 9l134 128h79l97 -128z" />
    <glyph glyph-name="wcircumflex" unicode="&#x175;" horiz-adv-x="754" 
d="M119 0l-80 514h90l58 -422l170 422h97l53 -420l172 420h91l-224 -514h-107l-49 410l-162 -410h-109zM501 577l-73 115l-103 -116l-71 7l136 165h89l90 -165z" />
    <glyph glyph-name="Ycircumflex" unicode="&#x176;" horiz-adv-x="542" 
d="M317 283q-10 -71 -19 -141t-20 -142h-90l39 281l-179 443h94l139 -358h1l229 358h95l-289 -441v0zM420 769l-74 79l-95 -81l-70 9l134 128h79l97 -128z" />
    <glyph glyph-name="ycircumflex" unicode="&#x177;" horiz-adv-x="479" 
d="M40 514h95l74 -414l192 414h95l-271 -546q-27 -54 -48.5 -90.5t-44 -59t-48.5 -32t-61 -9.5q-29 0 -52 5.5t-37 12.5l16 66q14 -6 32.5 -10.5t38.5 -4.5q18 0 33 7.5t29.5 25t30 46.5t34.5 71zM366 577l-73 115l-103 -116l-71 7l136 165h89l90 -165z" />
    <glyph glyph-name="Ydieresis" unicode="&#x178;" horiz-adv-x="542" 
d="M317 283q-10 -71 -19 -141t-20 -142h-90l39 281l-179 443h94l139 -358h1l229 358h95l-289 -441v0zM174 831q0 32 20.5 50.5t52.5 18.5q25 0 39.5 -14t14.5 -38q0 -32 -20 -50t-51 -18q-26 0 -41 13.5t-15 37.5zM383 831q0 32 20.5 50.5t52.5 18.5q26 0 40 -14t14 -38
q0 -32 -20 -50t-50 -18q-26 0 -41.5 13.5t-15.5 37.5z" />
    <glyph glyph-name="Zacute" unicode="&#x179;" horiz-adv-x="560" 
d="M-7 0l8 63l452 586h-362l11 75h471l-10 -65l-448 -584h385l-11 -75h-496zM373 913h114l-160 -146l-68 12z" />
    <glyph glyph-name="zacute" unicode="&#x17a;" horiz-adv-x="455" 
d="M-8 0l9 60l330 385h-274l10 69h379l-9 -61l-327 -382h287l-11 -71h-394zM310 747h113l-165 -175l-64 12z" />
    <glyph glyph-name="Zdotaccent" unicode="&#x17b;" horiz-adv-x="560" 
d="M-7 0l8 63l452 586h-362l11 75h471l-10 -65l-448 -584h385l-11 -75h-496zM413 854q0 -35 -20 -54.5t-55 -19.5q-27 0 -41.5 14t-14.5 39q0 35 19.5 54.5t54.5 19.5q57 0 57 -53z" />
    <glyph glyph-name="zdotaccent" unicode="&#x17c;" horiz-adv-x="455" 
d="M-8 0l9 60l330 385h-274l10 69h379l-9 -61l-327 -382h287l-11 -71h-394zM214 668q0 35 19.5 54.5t54.5 19.5q57 0 57 -53q0 -35 -20 -54.5t-55 -19.5q-27 0 -41.5 14t-14.5 39z" />
    <glyph glyph-name="Zcaron" unicode="&#x17d;" horiz-adv-x="560" 
d="M-7 0l8 63l452 586h-362l11 75h471l-10 -65l-448 -584h385l-11 -75h-496zM269 906l74 -79l95 81l70 -10l-134 -127h-78l-97 127z" />
    <glyph glyph-name="zcaron" unicode="&#x17e;" horiz-adv-x="455" 
d="M-8 0l9 60l330 385h-274l10 69h379l-9 -61l-327 -382h287l-11 -71h-394zM201 742l70 -114l104 116l70 -7l-135 -165h-89l-90 165z" />
    <glyph glyph-name="longs" unicode="&#x17f;" horiz-adv-x="280" 
d="M383 680q-14 5 -34 9t-38 4q-35 0 -59 -18.5t-32 -72.5l-114 -814h-91l114 812q12 85 56.5 125t117.5 40q32 0 56.5 -6t36.5 -12z" />
    <glyph glyph-name="florin" unicode="&#x192;" horiz-adv-x="535" 
d="M235 579q17 82 58 120t113 38q112 0 147 -107l-76 -26q-11 29 -26.5 46t-44.5 17q-32 0 -53 -18t-30 -67l-26 -137h141l-12 -67h-142l-80 -407q-17 -82 -56.5 -119t-111.5 -37q-57 0 -96 27t-54 78l77 29q11 -28 27 -45.5t48 -17.5q30 0 49.5 18t28.5 68l80 406h-82
l12 67h82z" />
    <glyph glyph-name="Aringacute" unicode="&#x1fa;" horiz-adv-x="644" 
d="M496 818q0 -37 -16 -63t-43 -40l143 -715h-96l-41 220h-267l-99 -220h-94l330 715q-35 21 -35 69q0 30 10.5 52t27.5 37t39 22.5t46 7.5q40 0 67.5 -20.5t27.5 -64.5zM367 645h-1l-159 -351h224zM464 1072h114l-160 -146l-68 12zM379 751q28 0 43 16.5t15 44.5
q0 39 -44 39q-24 0 -41 -15t-17 -45q0 -40 44 -40z" />
    <glyph glyph-name="aringacute" unicode="&#x1fb;" horiz-adv-x="587" 
d="M469 97q-3 -21 1.5 -32t23.5 -11q7 0 14 1t18 4l-6 -55q-11 -5 -27.5 -7.5t-31.5 -2.5q-36 0 -56 16.5t-19 56.5q-32 -35 -79.5 -57t-98.5 -22q-36 0 -66.5 11.5t-52.5 35.5t-34.5 61.5t-12.5 90.5q0 63 15 124t46 108t78 76t112 29q45 0 82 -17t61 -38l8 45h84zM423 399
q-20 19 -53.5 34.5t-71.5 15.5q-47 0 -78.5 -25t-50.5 -63t-27 -82.5t-8 -83.5q0 -74 26.5 -104t72.5 -30q18 0 35.5 3.5t36 12t38.5 23t43 35.5zM451 684q0 -54 -34 -84.5t-88 -30.5q-43 0 -68 21.5t-25 60.5q0 29 10 51t27 36.5t39 22t45 7.5q40 0 67 -20.5t27 -63.5z
M336 618q27 0 42 16.5t15 43.5q0 39 -43 39q-24 0 -41 -15t-17 -44q0 -40 44 -40zM407 946h114l-160 -146l-68 12z" />
    <glyph glyph-name="AEacute" unicode="&#x1fc;" horiz-adv-x="999" 
d="M502 0l44 319h-212l-217 -319h-97l495 724h498l-10 -75h-320l-35 -253h299l-11 -75h-299l-34 -246h332l-11 -75h-422zM593 649h-40l-176 -256h180zM802 913h114l-160 -146l-68 12z" />
    <glyph glyph-name="aeacute" unicode="&#x1fd;" horiz-adv-x="853" 
d="M577 -12q-65 0 -105.5 23t-63.5 62q-51 -47 -101 -66t-98 -19q-36 0 -67 11.5t-53 35.5t-34.5 61.5t-12.5 90.5q0 63 15 124t46 108t78 76t112 29q45 0 82 -17t61 -38l8 45h73l-4 -33q26 20 63.5 31.5t79.5 11.5q40 0 70.5 -10.5t50 -28.5t29.5 -42.5t10 -51.5
q0 -44 -18 -74.5t-47 -51.5t-66.5 -33t-76.5 -18.5t-76 -9t-65 -3.5q0 -32 6 -58t20 -44.5t38 -28.5t60 -10q54 0 86.5 27t44.5 69l75 -17q-23 -77 -82.5 -114t-137.5 -37zM384 134q-8 38 -8 78q0 51 12 99t37 88q-24 23 -57 36.5t-70 13.5q-47 0 -78.5 -25t-50.5 -63
t-27 -82.5t-8 -83.5q0 -74 26.5 -104t72.5 -30q37 0 71.5 15.5t79.5 57.5zM645 455q-39 0 -69.5 -15t-52.5 -40.5t-35 -59t-17 -70.5q12 0 31 1.5t42 4t48 7t48 11.5q38 11 63.5 33t25.5 60q0 34 -22.5 51t-61.5 17zM549 747h113l-165 -175l-64 12z" />
    <glyph glyph-name="Oslashacute" unicode="&#x1fe;" horiz-adv-x="735" 
d="M469 913h114l-160 -146l-68 12zM327 -12q-17 0 -32.5 1.5t-29.5 3.5l-29 -71h-87l39 94q-74 35 -107.5 107t-33.5 167t24.5 177t72.5 142t119.5 94t165.5 34q15 0 29 -1.5t28 -3.5l24 57h87l-33 -80q72 -35 105 -106t33 -161q0 -103 -25.5 -186.5t-73.5 -143t-117.5 -92
t-158.5 -32.5zM153 200q19 -71 68 -104l234 561q-18 3 -37 3q-62 0 -112.5 -25t-87.5 -72t-57 -114t-20 -152q0 -27 3.5 -51.5t8.5 -45.5zM336 65q60 0 110 25.5t85.5 73t55 115.5t19.5 154q0 53 -12 95q-20 67 -64 99l-233 -560q9 -2 18.5 -2h20.5z" />
    <glyph glyph-name="oslashacute" unicode="&#x1ff;" horiz-adv-x="577" 
d="M372 747h113l-165 -175l-64 12zM247 -12q-10 0 -19 0.5t-18 1.5l-28 -68h-78l36 86q-52 24 -76 73t-24 116q0 17 1 33t3 32q8 58 29.5 106.5t56.5 83t83 53.5t110 19q8 0 16.5 -0.5t16.5 -1.5l27 64h78l-35 -83q53 -25 75.5 -75t22.5 -113q0 -17 -1 -32.5t-3 -32.5
q-15 -122 -84 -192t-189 -70zM132 201q0 -81 40 -117l154 366q-5 1 -14 1q-70 0 -117.5 -47.5t-59.5 -146.5q-3 -27 -3 -56zM255 57q69 0 115 49.5t58 150.5q3 30 3 59q0 76 -38 109l-154 -367q5 -1 16 -1z" />
    <glyph glyph-name="Scommaaccent" unicode="&#x218;" horiz-adv-x="566" 
d="M465 521q0 27 -5 52.5t-19 46t-39 32.5t-66 12q-42 0 -72.5 -10.5t-50 -28.5t-29 -42.5t-9.5 -51.5q0 -29 13 -49t34 -34t48.5 -24t56.5 -20q33 -11 66 -24t60 -33.5t43.5 -51.5t16.5 -78q0 -60 -22.5 -103.5t-59.5 -71.5t-86 -41t-101 -13q-112 0 -172.5 52t-64.5 157
l85 11q3 -29 10.5 -55t24.5 -46t46.5 -32t76.5 -12q28 0 58 6.5t55 22.5t40.5 43.5t15.5 68.5q0 29 -11 48.5t-30 33.5t-43.5 23.5t-51.5 18.5q-35 11 -71 23.5t-65 33t-47 53t-18 83.5q0 50 19 90t53.5 68t81.5 43t104 15q46 0 85.5 -11t68 -35.5t43.5 -63.5t14 -96z
M196 -69h97l-92 -171l-66 9z" />
    <glyph glyph-name="scommaaccent" unicode="&#x219;" horiz-adv-x="486" 
d="M268 524q46 0 79 -12t54.5 -33t32.5 -50t13 -63l-77 -11q-2 43 -25 73t-79 30q-30 0 -50.5 -6.5t-33 -17.5t-18 -25t-5.5 -29q0 -18 7.5 -31t20.5 -22.5t30 -16t36 -12.5q28 -8 58 -17t54.5 -24.5t40 -40.5t15.5 -65q0 -39 -15 -69.5t-42.5 -51t-66 -31.5t-84.5 -11
q-91 0 -137.5 39.5t-53.5 116.5l75 17q3 -22 9.5 -41t20 -33.5t36 -22.5t55.5 -8q20 0 40.5 4t37 13t26.5 25t10 40q0 20 -8.5 34t-22.5 23.5t-32.5 16t-39.5 12.5q-27 7 -55 16t-50.5 24t-36.5 40t-14 64q0 41 16.5 70.5t44 48.5t62.5 28t72 9zM158 -69h97l-92 -171l-66 9z
" />
    <glyph glyph-name="uni021A" unicode="&#x21a;" horiz-adv-x="537" 
d="M182 0l88 648h-212l10 76h513l-11 -76h-211l-88 -648h-89zM180 -69h97l-92 -171l-66 9z" />
    <glyph glyph-name="uni021B" unicode="&#x21b;" horiz-adv-x="381" 
d="M332 20q-21 -13 -55.5 -22.5t-69.5 -9.5q-74 0 -107.5 35.5t-22.5 112.5l44 311h-80l9 67h80l21 148l92 13l-22 -161h141l-9 -67h-141l-43 -301q-3 -20 -2.5 -36.5t6.5 -28t19 -17.5t36 -6q25 0 50 8t42 18zM140 -69h97l-92 -171l-66 9z" />
    <glyph glyph-name="dotlessj" unicode="&#x237;" horiz-adv-x="247" 
d="M109 514h91l-82 -585q-12 -81 -51.5 -116.5t-110.5 -35.5q-12 0 -27 1.5t-29 4.5t-25.5 7t-17.5 8l19 67q15 -6 34 -10.5t38 -4.5q31 0 51.5 17t27.5 64z" />
    <glyph glyph-name="apostrophe" unicode="&#x2bc;" horiz-adv-x="499" 
d="M312 695h97l-92 -172l-66 10z" />
    <glyph glyph-name="circumflex" unicode="&#x2c6;" horiz-adv-x="500" 
d="M430 577l-73 115l-103 -116l-71 7l136 165h89l90 -165z" />
    <glyph glyph-name="caron" unicode="&#x2c7;" horiz-adv-x="500" 
d="M276 742l70 -114l104 116l70 -7l-135 -165h-89l-90 165z" />
    <glyph glyph-name="uni02C9" unicode="&#x2c9;" horiz-adv-x="500" 
d="M210 688h291l-10 -69h-291z" />
    <glyph glyph-name="breve" unicode="&#x2d8;" horiz-adv-x="499" 
d="M347 634q40 0 64.5 21t35.5 77l66 -6q-8 -76 -51.5 -115t-118.5 -39q-71 0 -105.5 38.5t-27.5 113.5l68 8q-4 -51 13 -74.5t56 -23.5z" />
    <glyph glyph-name="dotaccent" unicode="&#x2d9;" horiz-adv-x="500" 
d="M289 668q0 35 19.5 54.5t54.5 19.5q57 0 57 -53q0 -35 -20 -54.5t-55 -19.5q-27 0 -41.5 14t-14.5 39z" />
    <glyph glyph-name="ring" unicode="&#x2da;" horiz-adv-x="500" 
d="M460 689q0 -54 -34 -84.5t-88 -30.5q-43 0 -68 21.5t-25 60.5q0 29 10 51t27 36.5t39 22t45 7.5q40 0 67 -20.5t27 -63.5zM345 623q27 0 42 16.5t15 43.5q0 39 -43 39q-24 0 -41 -15t-17 -44q0 -40 44 -40z" />
    <glyph glyph-name="ogonek" unicode="&#x2db;" horiz-adv-x="500" 
d="M348 -148q-21 -42 -55.5 -60.5t-69.5 -18.5q-41 0 -66.5 21t-25.5 57q0 30 12.5 54.5t32 45.5t43.5 38.5t48 32.5l55 -15q-24 -20 -44.5 -37t-35 -33t-22.5 -32.5t-8 -35.5q0 -15 7.5 -24.5t23.5 -9.5q17 0 31 11t28 31z" />
    <glyph glyph-name="tilde" unicode="&#x2dc;" horiz-adv-x="499" 
d="M281 714q24 0 41.5 -7t33 -16t30 -16t31.5 -7q20 0 30 12t15 40l55 -2q-6 -62 -33 -90t-68 -28q-24 0 -42 7t-34 16t-31 16t-32 7t-28 -11.5t-15 -43.5l-56 3q6 63 35.5 91.5t67.5 28.5z" />
    <glyph glyph-name="hungarumlaut" unicode="&#x2dd;" horiz-adv-x="499" 
d="M326 747h106l-140 -175l-63 13zM483 748h109l-168 -176l-64 12z" />
    <glyph glyph-name="uni0394" unicode="&#x394;" horiz-adv-x="670" 
d="M4 0l353 724h116l153 -724h-622zM131 76h379q-23 121 -46.5 241.5t-46.5 241.5l-18 82z" />
    <glyph glyph-name="uni03A9" unicode="&#x3a9;" horiz-adv-x="828" 
d="M552 70h179l-10 -70h-252l21 150q31 12 68.5 36t70 62.5t54.5 91t22 121.5q0 101 -54.5 150t-151.5 49q-61 0 -113.5 -19.5t-90.5 -57t-60 -92.5t-22 -127q0 -43 11 -77.5t29.5 -61t43 -45t52.5 -30.5l-21 -150h-258l10 70h184l6 49q-78 36 -115 100.5t-37 149.5
q0 79 27 146.5t77 116.5t121 77t160 28q75 0 130.5 -20t93 -55.5t56 -84.5t18.5 -107q0 -64 -18.5 -118.5t-51.5 -98.5t-77.5 -78t-95.5 -56z" />
    <glyph glyph-name="uni03BC" unicode="&#x3bc;" horiz-adv-x="628" 
d="M483 514h91l-72 -514h-91l9 62q-25 -20 -56.5 -39t-65.5 -29t-66.5 -6t-58.5 30l-5 -3l-20 -191h-93l98 690h91l-48 -335q-3 -23 -3 -41q0 -32 15.5 -54t53.5 -22q24 0 48 8t46 21t41.5 28t34.5 30z" />
    <glyph glyph-name="pi" unicode="&#x3c0;" horiz-adv-x="665" 
d="M402 0l62 442h-235l-62 -442h-91l73 514h417l-73 -514h-91z" />
    <glyph glyph-name="Wgrave" unicode="&#x1e80;" horiz-adv-x="880" 
d="M547 0l-67 602h-1l-232 -602h-113l-55 724h93l35 -621h1l238 621h102l70 -629h1l200 629h89l-246 -724h-115zM497 913l80 -134l-68 -12l-119 146h107z" />
    <glyph glyph-name="wgrave" unicode="&#x1e81;" horiz-adv-x="754" 
d="M119 0l-80 514h90l58 -422l170 422h97l53 -420l172 420h91l-224 -514h-107l-49 410l-162 -410h-109zM418 572l-116 175h108l74 -163z" />
    <glyph glyph-name="Wacute" unicode="&#x1e82;" horiz-adv-x="880" 
d="M547 0l-67 602h-1l-232 -602h-113l-55 724h93l35 -621h1l238 621h102l70 -629h1l200 629h89l-246 -724h-115zM538 913h114l-160 -146l-68 12z" />
    <glyph glyph-name="wacute" unicode="&#x1e83;" horiz-adv-x="754" 
d="M119 0l-80 514h90l58 -422l170 422h97l53 -420l172 420h91l-224 -514h-107l-49 410l-162 -410h-109zM456 747h113l-165 -175l-64 12z" />
    <glyph glyph-name="Wdieresis" unicode="&#x1e84;" horiz-adv-x="880" 
d="M547 0l-67 602h-1l-232 -602h-113l-55 724h93l35 -621h1l238 621h102l70 -629h1l200 629h89l-246 -724h-115zM341 831q0 32 20.5 50.5t52.5 18.5q25 0 39.5 -14t14.5 -38q0 -32 -20 -50t-51 -18q-26 0 -41 13.5t-15 37.5zM550 831q0 32 20.5 50.5t52.5 18.5q26 0 40 -14
t14 -38q0 -32 -20 -50t-50 -18q-26 0 -41.5 13.5t-15.5 37.5z" />
    <glyph glyph-name="wdieresis" unicode="&#x1e85;" horiz-adv-x="754" 
d="M119 0l-80 514h90l58 -422l170 422h97l53 -420l172 420h91l-224 -514h-107l-49 410l-162 -410h-109zM255 669q0 31 20.5 49.5t52.5 18.5q25 0 39.5 -14t14.5 -37q0 -32 -20 -50t-51 -18q-26 0 -41 13.5t-15 37.5zM464 669q0 31 20.5 49.5t52.5 18.5q26 0 40 -14t14 -37
q0 -32 -20 -50t-50 -18q-26 0 -41.5 13.5t-15.5 37.5z" />
    <glyph glyph-name="Ygrave" unicode="&#x1ef2;" horiz-adv-x="542" 
d="M317 283q-10 -71 -19 -141t-20 -142h-90l39 281l-179 443h94l139 -358h1l229 358h95l-289 -441v0zM309 913l80 -134l-68 -12l-119 146h107z" />
    <glyph glyph-name="ygrave" unicode="&#x1ef3;" horiz-adv-x="479" 
d="M40 514h95l74 -414l192 414h95l-271 -546q-27 -54 -48.5 -90.5t-44 -59t-48.5 -32t-61 -9.5q-29 0 -52 5.5t-37 12.5l16 66q14 -6 32.5 -10.5t38.5 -4.5q18 0 33 7.5t29.5 25t30 46.5t34.5 71zM273 572l-116 175h108l74 -163z" />
    <glyph glyph-name="thinspace" unicode="&#x2009;" horiz-adv-x="125" 
 />
    <glyph glyph-name="endash" unicode="&#x2013;" horiz-adv-x="500" 
d="M-7 247l10 69h499l-10 -69h-499z" />
    <glyph glyph-name="emdash" unicode="&#x2014;" horiz-adv-x="1000" 
d="M-7 247l10 69h999l-10 -69h-999z" />
    <glyph glyph-name="quoteleft" unicode="&#x2018;" horiz-adv-x="203" 
d="M165 554h-98l114 225l68 -9z" />
    <glyph glyph-name="quoteright" unicode="&#x2019;" horiz-adv-x="203" 
d="M152.01 766.034h97.9941l-113.993 -224.986l-67.9951 8.99902z" />
    <glyph glyph-name="quotesinglbase" unicode="&#x201a;" horiz-adv-x="203" 
d="M49.0098 87.0342h97.9941l-113.993 -224.986l-67.9951 8.99902z" />
    <glyph glyph-name="quotedblleft" unicode="&#x201c;" horiz-adv-x="357" 
d="M320 554h-98l114 225l68 -9zM165 554h-98l114 225l68 -9z" />
    <glyph glyph-name="quotedblright" unicode="&#x201d;" horiz-adv-x="357" 
d="M307.01 766.034h97.9941l-113.993 -224.986l-67.9951 8.99902zM152.01 766.034h97.9941l-113.993 -224.986l-67.9951 8.99902z" />
    <glyph glyph-name="quotedblbase" unicode="&#x201e;" horiz-adv-x="357" 
d="M49.0098 87.0342h97.9941l-113.993 -224.986l-67.9951 8.99902zM203.01 87.0342h97.9941l-113.993 -224.986l-67.9951 8.99902z" />
    <glyph glyph-name="dagger" unicode="&#x2020;" horiz-adv-x="405" 
d="M262 491l-66 -574h-93l93 575l-150 -10l11 79l148 -11l14 174h87l-35 -173l151 10l-11 -79z" />
    <glyph glyph-name="daggerdbl" unicode="&#x2021;" horiz-adv-x="421" 
d="M157 150l47 342l-150 -10l11 79l148 -11l14 174h87l-35 -173l151 10l-11 -79l-149 9l-46 -342l150 10l-11 -79l-148 11l-14 -174h-87l35 173l-151 -10l11 79z" />
    <glyph glyph-name="bullet" unicode="&#x2022;" horiz-adv-x="392" 
d="M332 304q0 -78 -41 -118t-117 -40q-58 0 -89 27.5t-31 82.5q0 78 41 118t116 40q121 0 121 -110z" />
    <glyph glyph-name="ellipsis" unicode="&#x2026;" horiz-adv-x="641" 
d="M561 65q0 -77 -78 -77q-60 0 -60 54q0 77 79 77q59 0 59 -54zM355 65q0 -77 -78 -77q-60 0 -60 54q0 77 79 77q59 0 59 -54zM150 65q0 -77 -78 -77q-60 0 -60 54q0 77 79 77q59 0 59 -54z" />
    <glyph glyph-name="perthousand" unicode="&#x2030;" horiz-adv-x="1013" 
d="M804 -12q-34 0 -58.5 10t-40 28t-23 42t-7.5 52q0 41 11 76t32.5 61t53.5 41t73 15q66 0 96 -35.5t30 -95.5q0 -42 -10.5 -77.5t-31.5 -61.5t-52.5 -40.5t-72.5 -14.5zM808 46q30 0 47.5 13.5t26.5 33.5t12 43.5t3 44.5q0 32 -12.5 52.5t-44.5 20.5q-26 0 -43 -11.5
t-27.5 -30.5t-15 -43t-4.5 -48q0 -33 13 -54t45 -21zM466 -12q-34 0 -58.5 10t-40 28t-23 42t-7.5 52q0 41 11 76t32.5 61t53.5 41t73 15q66 0 96 -35.5t30 -95.5q0 -42 -10.5 -77.5t-31.5 -61.5t-52.5 -40.5t-72.5 -14.5zM470 46q30 0 47.5 13.5t26.5 33.5t11.5 43.5
t2.5 44.5q0 32 -12.5 52.5t-44.5 20.5q-26 0 -43 -11.5t-27.5 -30.5t-15 -43t-4.5 -48q0 -33 13 -54t46 -21zM30 -16l542 740h84l-541 -740h-85zM199 412q-34 0 -58.5 10t-40 28t-23 42t-7.5 52q0 41 11 76.5t32.5 61.5t53.5 40.5t73 14.5q66 0 96 -35.5t30 -95.5
q0 -42 -10.5 -77.5t-31.5 -61.5t-52.5 -40.5t-72.5 -14.5zM203 470q30 0 47.5 13.5t26.5 33.5t11.5 43.5t2.5 44.5q0 32 -12.5 52.5t-44.5 20.5q-26 0 -43 -11.5t-27.5 -30.5t-15 -42.5t-4.5 -48.5q0 -33 13 -54t46 -21z" />
    <glyph glyph-name="guilsinglleft" unicode="&#x2039;" horiz-adv-x="278" 
d="M117 103l-65 156l110 149h82l-105 -146l60 -159h-82z" />
    <glyph glyph-name="guilsinglright" unicode="&#x203a;" horiz-adv-x="277" 
d="M20 103l109 153l-64 152h81l66 -154l-109 -151h-83z" />
    <glyph glyph-name="fraction" unicode="&#x2044;" horiz-adv-x="148" 
d="M-202 -12l460 736h84l-458 -736h-86z" />
    <glyph glyph-name="zerosuperior" unicode="&#x2070;" horiz-adv-x="399" 
d="M201 342q-77 0 -107 43.5t-30 119.5q0 43 8 95t30 97t61.5 75t102.5 30q37 0 62 -11t41 -31.5t23 -49.5t7 -65q0 -45 -7.5 -97.5t-28.5 -98.5t-60 -76.5t-102 -30.5zM206 402q34 0 55 24t32 60.5t15.5 79.5t5.5 80q0 18 -2 35t-8 30t-17 21t-29 8q-35 0 -55.5 -23.5
t-32.5 -59.5t-16.5 -78t-5.5 -79q0 -16 1 -33.5t7 -31.5t17.5 -23.5t32.5 -9.5z" />
    <glyph glyph-name="foursuperior" unicode="&#x2074;" horiz-adv-x="384" 
d="M237 349l16 103h-210l8 56l229 286h102l-41 -277h53l-9 -65h-53l-15 -103h-80zM262 517l32 207l-168 -207h136z" />
    <glyph glyph-name="fivesuperior" unicode="&#x2075;" horiz-adv-x="377" 
d="M185 726l-30 -124q18 13 41 21.5t52 8.5q22 0 42 -6.5t35 -20.5t23.5 -36t8.5 -53q0 -41 -12.5 -73t-36 -54.5t-56 -34.5t-71.5 -12q-57 0 -96 27t-44 85l72 15q1 -11 5 -22.5t12 -20.5t21 -15t32 -6q18 0 35 5.5t29.5 18t20.5 32t8 47.5q0 34 -17 49.5t-44 15.5
q-23 0 -43 -9t-37 -23l-50 21l51 232h235l-10 -68h-176z" />
    <glyph glyph-name="sixsuperior" unicode="&#x2076;" horiz-adv-x="385" 
d="M327 679q-3 35 -16.5 49t-37.5 14q-25 0 -45 -13.5t-34.5 -36t-24 -52.5t-14.5 -63q18 15 48 29t64 14q50 0 79 -28t29 -79q0 -42 -13 -74.5t-36 -54t-53.5 -32.5t-64.5 -11q-40 0 -66.5 12.5t-42.5 34t-23 51.5t-7 66q0 26 3.5 58t13 64.5t25 64t39.5 55.5t57 39t78 15
t78 -25t37 -80zM152 522q-2 -10 -2 -19v-18q0 -17 2.5 -32t9.5 -27t19 -19t30 -7q33 0 57.5 26t24.5 77q0 28 -13.5 43.5t-40.5 15.5q-23 0 -46.5 -11.5t-40.5 -28.5z" />
    <glyph glyph-name="sevensuperior" unicode="&#x2077;" horiz-adv-x="343" 
d="M41 349l236 377h-213l11 68h299l-9 -61l-237 -384h-87z" />
    <glyph glyph-name="eightsuperior" unicode="&#x2078;" horiz-adv-x="364" 
d="M281 586q33 -16 57 -38t24 -63q0 -30 -12.5 -56t-35.5 -45.5t-57 -30.5t-77 -11q-72 0 -108.5 29t-36.5 76q0 26 9 46t24.5 36t36.5 27.5t44 19.5q-29 16 -46.5 39t-17.5 55q0 33 13.5 57.5t36 41t53 25t65.5 8.5q61 0 96 -24.5t35 -67.5q0 -44 -30 -74t-73 -50zM197 547
q-39 -16 -60.5 -36t-21.5 -54q0 -23 18 -38.5t54 -15.5q44 0 67.5 21t23.5 50q0 16 -7 27.5t-18.5 19.5t-26 14.5t-29.5 11.5zM231 609q31 16 54 40t23 51q0 22 -16 35t-47 13q-35 0 -57 -18t-22 -46q0 -26 18.5 -44.5t46.5 -30.5z" />
    <glyph glyph-name="ninesuperior" unicode="&#x2079;" horiz-adv-x="388" 
d="M114 465q3 -27 17.5 -44t46.5 -17q51 0 80.5 43t37.5 115q-17 -16 -49.5 -29t-67.5 -13q-49 0 -78 29.5t-29 83.5q0 42 13.5 73.5t36.5 53t53.5 32t65.5 10.5q37 0 63.5 -12.5t42.5 -34.5t23.5 -52t7.5 -66q0 -62 -11.5 -116t-36.5 -93.5t-63.5 -62.5t-93.5 -23
q-53 0 -89.5 25.5t-43.5 79.5zM295 617q3 21 3 40q0 33 -12 59t-48 26q-35 0 -59.5 -26t-24.5 -75q0 -64 53 -64q23 0 47.5 12t40.5 28z" />
    <glyph glyph-name="plussuperior" unicode="&#x207a;" horiz-adv-x="382" 
d="M168 443l13 90h-88l9 65h89l12 87h69l-14 -87h89l-10 -65h-88l-12 -90h-69z" />
    <glyph glyph-name="minussuperior" unicode="&#x207b;" horiz-adv-x="382" 
d="M103 539l9 64h245l-10 -64h-244z" />
    <glyph glyph-name="equalsuperior" unicode="&#x207c;" horiz-adv-x="382" 
d="M90 461l9 65h243l-9 -65h-243zM105 570l10 66h244l-10 -66h-244z" />
    <glyph glyph-name="parenleftsuperior" unicode="&#x207d;" horiz-adv-x="243" 
d="M130 276q-23 40 -41 96.5t-18 122.5q0 49 11.5 93t30.5 83.5t44 75t53 68.5h90q-31 -38 -57 -74t-45 -74.5t-29.5 -80.5t-10.5 -91q0 -66 16.5 -119.5t39.5 -99.5h-84z" />
    <glyph glyph-name="parenrightsuperior" unicode="&#x207e;" horiz-adv-x="243" 
d="M174 815q23 -41 41 -97t18 -122q0 -50 -11.5 -94t-30.5 -83.5t-44 -74.5t-53 -68h-90q31 37 57 73.5t45 74.5t29.5 80.5t10.5 91.5q0 65 -16.5 119t-39.5 100h84z" />
    <glyph glyph-name="zeroinferior" unicode="&#x2080;" horiz-adv-x="399" 
d="M133 -153q-77 0 -107 43.5t-30 119.5q0 43 8 95t30 97t61.5 75t102.5 30q37 0 62 -11t41 -31.5t23 -49.5t7 -65q0 -45 -7.5 -97.5t-28.5 -98.5t-60 -76.5t-102 -30.5zM138 -93q34 0 55 24t32 60.5t15.5 79.5t5.5 80q0 18 -2 35t-8 30t-17 21t-29 8q-35 0 -55.5 -23.5
t-32.5 -59.5t-16.5 -78t-5.5 -79q0 -16 1 -33.5t7 -31.5t17.5 -23.5t32.5 -9.5z" />
    <glyph glyph-name="oneinferior" unicode="&#x2081;" horiz-adv-x="304" 
d="M69 -144l51 346q-9 -4 -23 -7.5t-29 -6t-28.5 -4t-21.5 -1.5v65q91 6 144 52h53l-65 -444h-81z" />
    <glyph glyph-name="twoinferior" unicode="&#x2082;" horiz-adv-x="360" 
d="M-34 -146l10 66l121 118q34 33 56.5 56t35.5 40.5t18 32t5 31.5q0 47 -54 47q-58 0 -80 -70l-71 12q7 32 22.5 54.5t37.5 37t48.5 21.5t55.5 7q60 0 92 -26.5t32 -75.5q0 -26 -7 -47t-22 -42.5t-39 -45.5t-57 -54l-98 -93l1 -1h188l-10 -68h-285z" />
    <glyph glyph-name="threeinferior" unicode="&#x2083;" horiz-adv-x="379" 
d="M181 307q59 0 91.5 -25t32.5 -71q0 -25 -9.5 -45t-24.5 -34.5t-33.5 -24t-37.5 -14.5v-2q38 -8 60.5 -30.5t22.5 -64.5q0 -69 -45 -109t-124 -40q-58 0 -96 24.5t-42 84.5l73 13q1 -24 14.5 -43t52.5 -19q16 0 31 5t27 15.5t19 26.5t7 39q0 35 -20.5 49t-54.5 14h-43
l8 58h30q48 0 75.5 23.5t27.5 61.5q0 20 -12 34t-41 14q-34 0 -51 -15.5t-28 -44.5l-71 13q19 60 61.5 83.5t99.5 23.5z" />
    <glyph glyph-name="fourinferior" unicode="&#x2084;" horiz-adv-x="384" 
d="M169 -146l16 103h-210l8 56l229 286h102l-41 -277h53l-9 -65h-53l-15 -103h-80zM194 22l32 207l-168 -207h136z" />
    <glyph glyph-name="fiveinferior" unicode="&#x2085;" horiz-adv-x="377" 
d="M117 231l-30 -124q18 13 41 21.5t52 8.5q22 0 42 -6.5t35 -20.5t23.5 -36t8.5 -53q0 -41 -12.5 -73t-36 -54.5t-56 -34.5t-71.5 -12q-57 0 -96 27t-44 85l72 15q1 -11 5 -22.5t12 -20.5t21 -15t32 -6q18 0 35 5.5t29.5 18t20.5 32t8 47.5q0 34 -17 49.5t-44 15.5
q-23 0 -43 -9t-37 -23l-50 21l51 232h235l-10 -68h-176z" />
    <glyph glyph-name="sixinferior" unicode="&#x2086;" horiz-adv-x="385" 
d="M259 184q-3 35 -16.5 49t-37.5 14q-25 0 -45 -13.5t-34.5 -36t-24 -52.5t-14.5 -63q18 15 48 29t64 14q50 0 79 -28t29 -79q0 -42 -13 -74.5t-36 -54t-53.5 -32.5t-64.5 -11q-40 0 -66.5 12.5t-42.5 34t-23 51.5t-7 66q0 26 3.5 58t13 64.5t25 64t39.5 55.5t57 39t78 15
t78 -25t37 -80zM84 27q-2 -10 -2 -19v-18q0 -17 2.5 -32t9.5 -27t19 -19t30 -7q33 0 57.5 26t24.5 77q0 28 -13.5 43.5t-40.5 15.5q-23 0 -46.5 -11.5t-40.5 -28.5z" />
    <glyph glyph-name="seveninferior" unicode="&#x2087;" horiz-adv-x="343" 
d="M-27 -146l236 377h-213l11 68h299l-9 -61l-237 -384h-87z" />
    <glyph glyph-name="eightinferior" unicode="&#x2088;" horiz-adv-x="364" 
d="M213 91q33 -16 57 -38t24 -63q0 -30 -12.5 -56t-35.5 -45.5t-57 -30.5t-77 -11q-72 0 -108.5 29t-36.5 76q0 26 9 46t24.5 36t36.5 27.5t44 19.5q-29 16 -46.5 39t-17.5 55q0 33 13.5 57.5t36 41t53 25t65.5 8.5q61 0 96 -24.5t35 -67.5q0 -44 -30 -74t-73 -50zM129 52
q-39 -16 -60.5 -36t-21.5 -54q0 -23 18 -38.5t54 -15.5q44 0 67.5 21t23.5 50q0 16 -7 27.5t-18.5 19.5t-26 14.5t-29.5 11.5zM163 114q31 16 54 40t23 51q0 22 -16 35t-47 13q-35 0 -57 -18t-22 -46q0 -26 18.5 -44.5t46.5 -30.5z" />
    <glyph glyph-name="nineinferior" unicode="&#x2089;" horiz-adv-x="388" 
d="M46 -30q3 -27 17.5 -44t46.5 -17q51 0 80.5 43t37.5 115q-17 -16 -49.5 -29t-67.5 -13q-49 0 -78 29.5t-29 83.5q0 42 13.5 73.5t36.5 53t53.5 32t65.5 10.5q37 0 63.5 -12.5t42.5 -34.5t23.5 -52t7.5 -66q0 -62 -11.5 -116t-36.5 -93.5t-63.5 -62.5t-93.5 -23
q-53 0 -89.5 25.5t-43.5 79.5zM227 122q3 21 3 40q0 33 -12 59t-48 26q-35 0 -59.5 -26t-24.5 -75q0 -64 53 -64q23 0 47.5 12t40.5 28z" />
    <glyph glyph-name="parenleftinferior" unicode="&#x208d;" horiz-adv-x="243" 
d="M62 -219q-23 40 -41 96.5t-18 122.5q0 49 11.5 93t30.5 83.5t44 75t53 68.5h90q-31 -38 -57 -74t-45 -74.5t-29.5 -80.5t-10.5 -91q0 -66 16.5 -119.5t39.5 -99.5h-84z" />
    <glyph glyph-name="parenrightinferior" unicode="&#x208e;" horiz-adv-x="243" 
d="M106 319q23 -41 41 -97t18 -122q0 -50 -11.5 -94t-30.5 -83.5t-44 -74.5t-53 -68h-90q31 37 57 73.5t45 74.5t29.5 80.5t10.5 91.5q0 65 -16.5 119t-39.5 100h84z" />
    <glyph glyph-name="Euro" unicode="&#x20ac;" horiz-adv-x="646" 
d="M125 465q17 57 45 106.5t68 86.5t92 58.5t118 21.5q35 0 70 -9.5t61.5 -34t41 -66.5t10.5 -107l-81 -7q1 42 -4.5 70.5t-19.5 46t-37.5 25.5t-58.5 8q-66 0 -123 -52.5t-89 -146.5h214l-20 -67h-212q-4 -20 -6.5 -39.5t-4.5 -40.5h206l-18 -68h-189q4 -93 39.5 -140.5
t112.5 -47.5q39 0 67 12t47.5 31.5t32 43.5t20.5 48l75 -17q-14 -52 -39 -88.5t-58 -59.5t-72 -33.5t-81 -10.5q-62 0 -105 18.5t-71 53t-42 82.5t-16 108h-87l18 68h70l4 40t6 40h-63l19 67h60z" />
    <glyph glyph-name="afii61352" unicode="&#x2116;" horiz-adv-x="1041" 
d="M817 382q-78 0 -113 39t-35 100q0 46 13 84.5t38 66t60.5 42.5t80.5 15q40 0 68.5 -11t46.5 -30t26 -45t8 -56q0 -47 -13.5 -84.5t-38.5 -64.5t-60.5 -41.5t-80.5 -14.5zM823 441q22 0 41.5 8t34 26t23 46t8.5 68q0 39 -17.5 59.5t-55.5 20.5q-23 0 -42.5 -8t-34.5 -25
t-23.5 -44.5t-8.5 -67.5q0 -39 18.5 -61t56.5 -22zM664 336h297l-10 -67h-297zM412 -2l-185 612l-87 -612h-86l102 724h122l177 -605l85 605h85l-102 -724h-111z" />
    <glyph glyph-name="trademark" unicode="&#x2122;" horiz-adv-x="832" 
d="M749 348v269l-107 -269h-46l-105 270v-270h-56v376h71l115 -297l118 297h65v-376h-55zM252 348h-60v323h-129v53h318v-53h-129v-323z" />
    <glyph glyph-name="Omega" unicode="&#x2126;" horiz-adv-x="828" 
d="M520 70h179l-10 -70h-252l21 150q31 12 68.5 36t70 62.5t54.5 91t22 121.5q0 101 -54.5 150t-151.5 49q-61 0 -113.5 -19.5t-90.5 -57t-60 -92.5t-22 -127q0 -43 11 -77.5t29.5 -61t43 -45t52.5 -30.5l-21 -150h-258l10 70h184l6 49q-78 36 -115 100.5t-37 149.5
q0 79 27 146.5t77 116.5t121 77t160 28q75 0 130.5 -20t93 -55.5t56 -84.5t18.5 -107q0 -64 -18.5 -118.5t-51.5 -98.5t-77.5 -78t-95.5 -56z" />
    <glyph glyph-name="onethird" unicode="&#x2153;" horiz-adv-x="900" 
d="M122 282l51 346q-9 -4 -23 -7.5t-29 -6t-28.5 -4t-21.5 -1.5v65q91 6 144 52h53l-65 -444h-81zM136 -12l460 736h84l-458 -736h-86zM719 454q59 0 91.5 -25t32.5 -71q0 -25 -9.5 -45t-24.5 -34.5t-33.5 -24t-37.5 -14.5v-2q38 -8 60.5 -30.5t22.5 -64.5q0 -69 -45 -109
t-124 -40q-58 0 -96 24.5t-42 84.5l73 13q1 -24 14.5 -43t52.5 -19q16 0 31 5t27 15.5t19 26.5t7 39q0 35 -20.5 49t-54.5 14h-43l8 58h30q48 0 75.5 23.5t27.5 61.5q0 20 -12 34t-41 14q-34 0 -51 -15.5t-28 -44.5l-71 13q19 60 61.5 83.5t99.5 23.5z" />
    <glyph glyph-name="twothirds" unicode="&#x2154;" horiz-adv-x="900" 
d="M203 -12l460 736h84l-458 -736h-86zM755 454q59 0 91.5 -25t32.5 -71q0 -25 -9.5 -45t-24.5 -34.5t-33.5 -24t-37.5 -14.5v-2q38 -8 60.5 -30.5t22.5 -64.5q0 -69 -45 -109t-124 -40q-58 0 -96 24.5t-42 84.5l73 13q1 -24 14.5 -43t52.5 -19q16 0 31 5t27 15.5t19 26.5
t7 39q0 35 -20.5 49t-54.5 14h-43l8 58h30q48 0 75.5 23.5t27.5 61.5q0 20 -12 34t-41 14q-34 0 -51 -15.5t-28 -44.5l-71 13q19 60 61.5 83.5t99.5 23.5zM38 282l10 66l121 118q34 33 56.5 56t35.5 40.5t18 32t5 31.5q0 47 -54 47q-58 0 -80 -70l-71 12q7 32 22.5 54.5
t37.5 37t48.5 21.5t55.5 7q60 0 92 -26.5t32 -75.5q0 -26 -7 -47t-22 -42.5t-39 -45.5t-57 -54l-98 -93l1 -1h188l-10 -68h-285z" />
    <glyph glyph-name="partialdiff" unicode="&#x2202;" horiz-adv-x="569" 
d="M257 341q-39 0 -66.5 -15t-44.5 -40t-24.5 -56t-7.5 -62q0 -48 22 -78.5t70 -30.5q44 0 76 20.5t54.5 52t36.5 69.5t22 72q-9 10 -23 21.5t-31.5 22t-38.5 17.5t-45 7zM316 603q-44 0 -87 -17.5t-74 -36.5l-30 59q43 27 97.5 46t108.5 19q52 0 86.5 -19.5t54.5 -51.5
t28.5 -72t8.5 -82q0 -27 -4 -72t-16 -96t-33 -103t-56 -94t-85 -68.5t-119 -26.5q-44 0 -77 12.5t-55 35t-33.5 54t-11.5 68.5q0 55 17 101.5t48 80.5t74.5 53t96.5 19q26 0 49 -6.5t43 -16.5t36 -22t27 -23q5 27 7 57.5t2 53.5q0 27 -5 53.5t-16.5 47.5t-31.5 34t-50 13z
" />
    <glyph glyph-name="Delta" unicode="&#x2206;" horiz-adv-x="670" 
d="M-16 0l353 724h116l153 -724h-622zM111 76h379q-23 121 -46.5 241.5t-46.5 241.5l-18 82z" />
    <glyph glyph-name="product" unicode="&#x220f;" horiz-adv-x="771" 
d="M576 -161h-92l115 813h-344l-115 -813h-92l124 885h528z" />
    <glyph glyph-name="summation" unicode="&#x2211;" horiz-adv-x="626" 
d="M66 -101h440l-11 -75h-545l8 61l289 397l-161 386l7 56h526l-9 -71h-415l150 -373z" />
    <glyph glyph-name="minus" unicode="&#x2212;" horiz-adv-x="569" 
d="M89 281l11 81h377l-11 -81h-377z" />
    <glyph glyph-name="uni2215" unicode="&#x2215;" horiz-adv-x="404" 
d="M-24 -16l415 666h84l-414 -666h-85z" />
    <glyph glyph-name="uni2219" unicode="&#x2219;" horiz-adv-x="283" 
d="M236 320q0 -38 -21 -58.5t-60 -20.5q-61 0 -61 55q0 79 81 79q61 0 61 -55z" />
    <glyph glyph-name="radical" unicode="&#x221a;" horiz-adv-x="576" 
d="M211 0l-104 246l-74 -30l-18 57l148 64l98 -243l264 650l74 -19l-296 -725h-92z" />
    <glyph glyph-name="infinity" unicode="&#x221e;" horiz-adv-x="670" 
d="M333 271q-13 -13 -28.5 -28t-35 -27.5t-42.5 -21t-50 -8.5q-25 0 -48.5 7.5t-41.5 23.5t-29 40t-11 57q0 32 11 58.5t30.5 45t46.5 28.5t58 10q25 0 46.5 -7.5t39.5 -19t33.5 -26.5t29.5 -30q14 14 29.5 28.5t34.5 26.5t41 20t48 8t49 -7.5t40.5 -24t28 -41.5t10.5 -60
q0 -30 -11 -55.5t-30 -44t-45 -28.5t-55 -10q-28 0 -50 8t-40 21t-32.5 28t-26.5 29zM298 323q-23 29 -48.5 49t-60.5 20q-31 0 -49.5 -21t-18.5 -49q0 -13 3.5 -26t11 -23.5t19.5 -17t29 -6.5q18 0 34.5 8t31 19t26.5 24t22 23zM380 321q11 -13 22 -25.5t23 -22.5t26.5 -16
t31.5 -6q32 0 49 22.5t17 50.5q0 26 -14 47.5t-47 21.5q-16 0 -30.5 -6.5t-27.5 -17t-25.5 -23t-24.5 -25.5z" />
    <glyph glyph-name="integral" unicode="&#x222b;" horiz-adv-x="418" 
d="M59 -97q19 -10 41.5 -15t40.5 -5q26 0 43 14.5t14 55.5l-55 636q-3 39 8 65.5t30.5 42.5t45 23t50.5 7q31 0 52.5 -5.5t44.5 -14.5l-6 -73q-19 9 -39.5 14.5t-42.5 5.5q-26 0 -43 -15.5t-14 -54.5l54 -635q3 -40 -8 -66.5t-30.5 -42.5t-44.5 -22.5t-50 -6.5
q-32 0 -52.5 5t-43.5 14z" />
    <glyph glyph-name="approxequal" unicode="&#x2248;" 
d="M149 338q24 0 57.5 -7t67.5 -16t64 -16t47 -7q19 0 28 9.5t9 42.5l58 -3q7 -62 -19 -91.5t-68 -29.5q-23 0 -57 7t-68.5 16t-65 16t-47.5 7q-16 0 -26.5 -11t-8.5 -43l-58 2q-4 31 1.5 54.5t18 39t30 23t37.5 7.5zM171 517q24 0 57.5 -7t67.5 -16t64 -16t47 -7
q19 0 28 9.5t9 42.5l58 -3q7 -62 -19 -91.5t-68 -29.5q-23 0 -57 7t-68.5 16t-65 16t-47.5 7q-16 0 -26.5 -11t-8.5 -43l-58 2q-4 31 1.5 54.5t18 39t30 23t37.5 7.5z" />
    <glyph glyph-name="notequal" unicode="&#x2260;" 
d="M240 159l-58 -95h-85l58 95h-90l12 83h127l47 79h-163l12 83h200l59 96h85l-59 -96h88l-12 -83h-125l-47 -79h162l-12 -83h-199z" />
    <glyph glyph-name="lessequal" unicode="&#x2264;" horiz-adv-x="569" 
d="M98 251l13 95l399 154l-11 -83l-315 -118l282 -114l-11 -79zM63 0l11 80h377l-11 -80h-377z" />
    <glyph glyph-name="greaterequal" unicode="&#x2265;" horiz-adv-x="569" 
d="M427 0h-377l11 80h377zM463 256l-397 -145l11 83l315 113l-283 115l11 78l357 -154z" />
    <glyph glyph-name="triangle" unicode="&#x25b3;" horiz-adv-x="425" 
d="M150 203v231l185 -114z" />
    <glyph glyph-name="lozenge" unicode="&#x25ca;" 
d="M199 -17l-110 324l202 324h74l111 -324l-203 -324h-74zM396 307l-81 236l-147 -236l81 -239z" />
    <glyph glyph-name="circle" unicode="&#x25cb;" horiz-adv-x="610" 
d="M305 119q-42 0 -79.5 16t-65.5 44t-44 65.5t-16 79.5t16 79.5t44 65.5t65.5 44t79.5 16t79.5 -16t65.5 -44t44 -65.5t16 -79.5t-16 -79.5t-44 -65.5t-65.5 -44t-79.5 -16z" />
    <glyph glyph-name="a.smcp" unicode="&#xf605;" horiz-adv-x="535" 
d="M356 553l116 -553h-95l-30 154h-202l-73 -154h-93l264 553h113zM290 476h-2l-116 -250h165z" />
    <glyph glyph-name="b.smcp" unicode="&#xf606;" horiz-adv-x="502" 
d="M30 0l78 553h204q43 0 72 -9t46.5 -24.5t25 -37t7.5 -45.5q0 -34 -11 -59.5t-29 -43t-41.5 -28.5t-48.5 -17v-2q58 -8 85.5 -37.5t27.5 -77.5t-17.5 -81t-48 -53t-73 -29t-92.5 -9h-185zM210 67q31 0 57.5 4t45.5 15t29.5 32t10.5 54q0 25 -10.5 40t-28 23t-41 10.5
t-49.5 2.5h-71l-25 -181h82zM230 315q24 0 49 4t45.5 15.5t34 32.5t13.5 54q0 22 -8.5 35t-24 20t-38.5 8.5t-51 1.5h-63l-24 -171h67z" />
    <glyph glyph-name="c.smcp" unicode="&#xf607;" horiz-adv-x="548" 
d="M492 160q-13 -47 -37 -79t-56 -52t-70 -29t-78 -9q-57 0 -99 16.5t-69 46t-40 71t-13 91.5q0 80 21.5 144.5t61.5 109.5t95.5 69t124.5 24q93 0 145 -50t47 -147l-83 -8q2 63 -23.5 98t-91.5 35q-45 0 -82.5 -17t-64.5 -51t-41.5 -84t-14.5 -116q0 -85 35.5 -122.5
t101.5 -37.5q63 0 97.5 29t54.5 83z" />
    <glyph glyph-name="d.smcp" unicode="&#xf608;" horiz-adv-x="575" 
d="M30 0l78 553h179q128 0 185.5 -60t57.5 -163q0 -71 -19.5 -131.5t-60.5 -104.5t-104 -69t-149 -25h-167zM204 71q114 0 174.5 65t60.5 193q0 85 -43.5 119.5t-125.5 34.5h-83l-58 -412h75z" />
    <glyph glyph-name="e.smcp" unicode="&#xf609;" horiz-adv-x="459" 
d="M30 0l78 553h336l-10 -72h-247l-24 -168h232l-10 -71h-232l-24 -170h258l-10 -72h-347z" />
    <glyph glyph-name="f.smcp" unicode="&#xf60a;" horiz-adv-x="436" 
d="M118 0h-88l78 553h335l-9 -72h-247l-25 -177h226l-8 -70h-228z" />
    <glyph glyph-name="g.smcp" unicode="&#xf60b;" horiz-adv-x="577" 
d="M476 0h-66l1 71q-11 -18 -28.5 -32.5t-41 -25t-50.5 -16.5t-55 -6q-54 0 -93 17t-64 47t-37 71.5t-12 91.5q0 79 21.5 143t61.5 109t96.5 69t126.5 24q46 0 82 -11t61 -34t37 -58t10 -83l-84 -8q3 60 -23.5 91.5t-88.5 31.5q-49 0 -87.5 -19.5t-64.5 -54.5t-40 -84.5
t-14 -110.5q0 -89 36.5 -126t101.5 -37q33 0 60 10.5t46.5 27.5t31.5 38.5t16 43.5l6 45h-135l9 62h221z" />
    <glyph glyph-name="h.smcp" unicode="&#xf60c;" horiz-adv-x="575" 
d="M456 0h-90l34 245h-248l-34 -245h-89l79 553h88l-33 -234h248l34 234h89z" />
    <glyph glyph-name="i.smcp" unicode="&#xf60d;" horiz-adv-x="237" 
d="M30 0l78 553h89l-79 -553h-88z" />
    <glyph glyph-name="j.smcp" unicode="&#xf60e;" horiz-adv-x="418" 
d="M294 553h89l-58 -411q-12 -83 -57.5 -117t-114.5 -34q-145 0 -154 143l85 13q2 -17 5.5 -32.5t11 -27.5t21 -19t34.5 -7q32 0 52.5 16.5t27.5 64.5z" />
    <glyph glyph-name="k.smcp" unicode="&#xf60f;" horiz-adv-x="513" 
d="M160 293l267 260h104l-246 -237l172 -316h-101l-141 253l-70 -65l-27 -188h-88l78 553h89z" />
    <glyph glyph-name="l.smcp" unicode="&#xf610;" horiz-adv-x="442" 
d="M30 0l78 553h89l-68 -478h246l-10 -75h-335z" />
    <glyph glyph-name="m.smcp" unicode="&#xf611;" horiz-adv-x="709" 
d="M591 0h-84l67 463h-3l-219 -463h-88l-83 464h-3l-66 -464h-82l78 553h133l82 -449h2l209 449h134z" />
    <glyph glyph-name="n.smcp" unicode="&#xf612;" horiz-adv-x="586" 
d="M363 0l-187 443l-64 -443h-82l78 553h112l183 -438l62 438h81l-78 -553h-105z" />
    <glyph glyph-name="o.smcp" unicode="&#xf613;" horiz-adv-x="599" 
d="M255 -9q-60 0 -102.5 17.5t-69.5 49t-40 75t-13 95.5q0 70 19.5 131t58 106.5t96 71.5t132.5 26q59 0 101 -17.5t68.5 -48.5t39 -72.5t12.5 -89.5q0 -75 -20 -138.5t-58.5 -109t-94.5 -71t-129 -25.5zM265 64q47 0 83.5 20t62 55.5t39 84t13.5 105.5q0 36 -8 65.5
t-24.5 50.5t-42.5 33t-62 12q-48 0 -85.5 -19.5t-63.5 -54t-40 -83t-14 -105.5q0 -36 8 -66.5t25 -52t44 -33.5t65 -12z" />
    <glyph glyph-name="p.smcp" unicode="&#xf614;" horiz-adv-x="489" 
d="M118 0h-88l78 553h173q50 0 85 -11.5t57 -31.5t32 -47t10 -58q0 -103 -63 -157t-181 -54h-76zM223 266q31 0 59 6t48.5 20.5t32.5 39.5t12 64q0 27 -9 43.5t-25 26.5t-38 13.5t-48 3.5h-68l-31 -217h67z" />
    <glyph glyph-name="q.smcp" unicode="&#xf615;" horiz-adv-x="598" 
d="M252 -9q-60 0 -102.5 17.5t-69.5 49t-40 75t-13 95.5q0 70 19.5 131t58 106.5t96 71.5t132.5 26q59 0 101 -17.5t68.5 -48.5t39 -72.5t12.5 -89.5q0 -113 -43.5 -196t-126.5 -121q24 -30 59 -50t85 -22l-18 -71q-32 0 -63 10t-58 26.5t-48.5 38.5t-35.5 45q-13 -2 -26 -3
t-27 -1zM262 64q47 0 83.5 20t62 55.5t39 84t13.5 105.5q0 36 -8 65.5t-24.5 50.5t-42.5 33t-62 12q-48 0 -85.5 -19.5t-63.5 -54t-40 -83t-14 -105.5q0 -36 8 -66.5t25 -52t44 -33.5t65 -12z" />
    <glyph glyph-name="r.smcp" unicode="&#xf616;" horiz-adv-x="513" 
d="M441 0h-96l-88 225h-107l-32 -225h-88l78 553h194q48 0 80.5 -11t52 -29.5t28 -43t8.5 -50.5q0 -69 -33 -109.5t-94 -63.5zM236 293q30 0 56 6t45.5 19.5t30.5 36t11 56.5q0 42 -29 57t-78 15h-85l-28 -190h77z" />
    <glyph glyph-name="s.smcp" unicode="&#xf617;" horiz-adv-x="468" 
d="M356 395q0 19 -4 37t-14.5 32.5t-28.5 23t-48 8.5q-60 0 -87 -26t-27 -61q0 -21 8.5 -35t23.5 -24t34.5 -17t41.5 -14q27 -8 55 -17.5t50.5 -26t36.5 -41.5t14 -64q0 -47 -18.5 -81t-49 -55.5t-70 -32t-81.5 -10.5t-77.5 9t-61 29t-40.5 51.5t-16 75.5l83 11
q2 -20 7 -39.5t17.5 -34.5t34 -24t55.5 -9q23 0 45.5 4.5t40 15.5t28.5 29.5t11 46.5q0 20 -8 34t-22 23.5t-33 16.5t-41 13q-28 8 -56.5 17.5t-51.5 26t-37.5 42t-14.5 65.5q0 39 16.5 70.5t45 53.5t67 33.5t82.5 11.5q37 0 69 -8.5t55 -27t36.5 -49t12.5 -74.5z" />
    <glyph glyph-name="t.smcp" unicode="&#xf618;" horiz-adv-x="452" 
d="M137 0l68 479h-166l10 74h421l-10 -74h-166l-68 -479h-89z" />
    <glyph glyph-name="u.smcp" unicode="&#xf619;" horiz-adv-x="562" 
d="M474 190q-14 -104 -74 -151.5t-159 -47.5q-114 0 -158.5 52.5t-29.5 153.5l50 356h89l-50 -352q-10 -72 14.5 -104.5t88.5 -32.5q63 0 97.5 30.5t45.5 105.5l49 353h88z" />
    <glyph glyph-name="v.smcp" unicode="&#xf61a;" horiz-adv-x="503" 
d="M148 0l-106 553h95l83 -469h1l207 469h95l-254 -553h-121z" />
    <glyph glyph-name="w.smcp" unicode="&#xf61b;" horiz-adv-x="731" 
d="M429 0l-46 430h-2l-168 -430h-115l-43 553h92l24 -456h2l179 456h97l50 -460h1h1l149 460h89l-196 -553h-114z" />
    <glyph glyph-name="x.smcp" unicode="&#xf61c;" horiz-adv-x="501" 
d="M342 0l-112 217l-164 -217h-97l219 288l-132 265h98l100 -210l161 210h94l-213 -276l147 -277h-101z" />
    <glyph glyph-name="y.smcp" unicode="&#xf61d;" horiz-adv-x="457" 
d="M232 0h-89l30 213l-142 340h93l102 -260h2l171 260h93l-230 -339z" />
    <glyph glyph-name="z.smcp" unicode="&#xf61e;" horiz-adv-x="461" 
d="M-12 0l9 62l341 418h-275l11 73h381l-9 -64l-340 -416h293l-11 -73h-400z" />
    <glyph glyph-name="ae.smcp" unicode="&#xf61f;" horiz-adv-x="787" 
d="M357 0l34 235h-158l-160 -235h-94l379 553h415l-10 -72h-246l-26 -173h231l-10 -72h-231l-24 -164h258l-11 -72h-347zM427 481h-32l-123 -176h129z" />
    <glyph glyph-name="oe.smcp" unicode="&#xf621;" horiz-adv-x="860" 
d="M436 0l11 78q-34 -42 -84 -64.5t-113 -22.5q-57 0 -98.5 17.5t-68.5 49t-40 74t-13 93.5q0 73 20.5 135t59.5 107t95.5 70.5t129.5 25.5q63 0 106 -27.5t63 -66.5l12 84h329l-10 -72h-249l-24 -168h233l-10 -71h-233l-26 -170h261l-10 -72h-341zM265 63q42 0 79.5 16
t66 48.5t45.5 82t17 117.5q0 78 -38 120.5t-104 42.5q-44 0 -81.5 -16.5t-66 -49t-44.5 -81.5t-16 -114q0 -81 37.5 -123.5t104.5 -42.5z" />
    <glyph glyph-name="dollar.smcp" unicode="&#xf639;" horiz-adv-x="428" 
d="M318 386q-1 35 -12.5 57t-37.5 30l-24 -171q24 -9 47 -19.5t42 -25.5t30.5 -36.5t11.5 -52.5q0 -41 -14 -71t-37.5 -51t-55 -32t-65.5 -14l-9 -65h-76l10 67q-64 12 -96.5 49.5t-34.5 97.5l78 16q4 -35 18.5 -61t53.5 -35l24 177q-23 9 -45 20t-39.5 27t-28 39t-10.5 56
q0 63 42 105t117 50l9 67h74l-9 -71q56 -9 86.5 -43.5t29.5 -100.5zM289 153q0 26 -16 41.5t-40 26.5l-21 -153q32 6 54.5 26.5t22.5 58.5zM137 399q0 -26 13 -42t33 -28l20 146q-26 -5 -46 -22t-20 -54z" />
    <glyph glyph-name="cent.smcp" unicode="&#xf63a;" horiz-adv-x="420" 
d="M297 565l-11 -78q53 -9 80 -49t23 -94l-79 -6q1 30 -8.5 51t-32.5 29l-37 -266q25 7 40 24.5t24 46.5l73 -14q-14 -55 -52 -86.5t-92 -39.5l-12 -83h-74l13 86q-63 11 -91.5 55.5t-28.5 107.5q0 56 13.5 98.5t37.5 72t57 46.5t71 22l11 77h75zM122 251q0 -77 46 -97
l36 263q-34 -11 -58 -49.5t-24 -116.5z" />
    <glyph glyph-name="sterling.smcp" unicode="&#xf63b;" horiz-adv-x="458" 
d="M34 67q40 31 59.5 61.5t19.5 65.5q0 25 -9 49h-79l9 66h57q-7 15 -14 39t-7 53q0 36 14.5 66t40.5 51t63 33t81 12q81 0 122.5 -36.5t40.5 -114.5l-81 -8q0 40 -17.5 66.5t-66.5 26.5q-46 0 -77 -23.5t-31 -74.5q0 -25 7 -48.5t15 -41.5h169l-9 -66h-148q6 -20 6 -42
q0 -73 -75 -134h119q47 0 69 19t34 63l75 -13q-15 -72 -59 -104t-119 -32h-261l8 67h44z" />
    <glyph glyph-name="yen.smcp" unicode="&#xf63c;" horiz-adv-x="430" 
d="M235 120l-17 -120h-90l16 120h-97l8 65h98l8 58h-101l9 65h75l-103 245h94l84 -220h2l131 220h97l-163 -245h81l-10 -65h-105l-8 -58h109l-8 -65h-110z" />
    <glyph glyph-name="florin.smcp" unicode="&#xf63d;" horiz-adv-x="434" 
d="M175 435q14 65 47 96.5t97 31.5q51 0 80.5 -24t43.5 -66l-71 -22q-7 22 -18.5 35.5t-34.5 13.5t-38 -14t-22 -49l-18 -96h109l-13 -64h-107l-59 -295q-13 -65 -45.5 -95t-95.5 -30q-51 0 -83.5 23t-43.5 65l72 25q8 -23 20 -36t36 -13q22 0 35 13.5t21 51.5l57 291h-67
l12 64h66z" />
    <glyph glyph-name="commainferior" unicode="&#xf6e1;" horiz-adv-x="197" 
d="M24 -70h88l-83 -157l-65 7z" />
    <glyph glyph-name="commasuperior" unicode="&#xf6e2;" horiz-adv-x="197" 
d="M92 425h88l-83 -157l-65 7z" />
    <glyph glyph-name="hypheninferior" unicode="&#xf6e5;" horiz-adv-x="223" 
d="M-21 5l9 68h173l-9 -68h-173z" />
    <glyph glyph-name="hyphensuperior" unicode="&#xf6e6;" horiz-adv-x="223" 
d="M47 500l9 68h173l-9 -68h-173z" />
    <glyph glyph-name="periodinferior" unicode="&#xf6e7;" horiz-adv-x="200" 
d="M105 -97q0 -57 -61 -57q-48 0 -48 40q0 27 15.5 42.5t46.5 15.5q47 0 47 -41z" />
    <glyph glyph-name="periodsuperior" unicode="&#xf6e8;" horiz-adv-x="200" 
d="M173 398q0 -57 -61 -57q-48 0 -48 40q0 27 15.5 42.5t46.5 15.5q47 0 47 -41z" />
    <glyph glyph-name="three.tosf" unicode="&#xf81e;" 
d="M326 584q84 0 128.5 -39t44.5 -103q0 -41 -14 -71t-37 -51.5t-51.5 -35t-57.5 -21.5v-3q51 -9 87 -42t36 -95q0 -49 -17.5 -87t-49 -64.5t-75.5 -40.5t-97 -14q-91 0 -144 40t-57 126l82 16q2 -21 7 -41t18 -35.5t36 -25.5t60 -10q28 0 54.5 7t47 22.5t32.5 41t12 63.5
q0 56 -35 79.5t-94 23.5h-66l9 70h47q38 0 70 9.5t55.5 27t36.5 42.5t13 56q0 36 -21 60t-77 24q-32 0 -55 -8t-39.5 -22.5t-28 -34t-20.5 -41.5l-77 17q26 85 89 122.5t148 37.5z" />
    <glyph glyph-name="four.tosf" unicode="&#xf81f;" 
d="M312 -67l20 146h-320l9 65l353 430h115l-59 -420h83l-10 -75h-84l-21 -146h-86zM343 154l49 336l-277 -336h228z" />
    <glyph glyph-name="five.tosf" unicode="&#xf820;" 
d="M224 491l-50 -202q28 20 64.5 34.5t84.5 14.5q33 0 63 -10t52 -31t35 -53.5t13 -77.5q0 -51 -16.5 -96.5t-49 -79t-80.5 -53.5t-110 -20q-40 0 -75 10t-61.5 30.5t-43.5 52t-20 74.5l82 18q2 -18 8.5 -38t20 -36.5t36 -27t57.5 -10.5q30 0 58.5 9t51.5 29t37 52t14 78
q0 55 -26.5 81t-73.5 26q-44 0 -78 -16.5t-65 -43.5l-62 30l71 334h346l-12 -78h-271z" />
    <glyph glyph-name="six.tosf" unicode="&#xf821;" 
d="M452 469q-5 59 -29 84t-69 25q-48 0 -82.5 -22.5t-58.5 -58.5t-38 -81.5t-21 -91.5q35 32 80.5 55t101.5 23q39 0 69 -13t50.5 -35.5t30.5 -53t10 -66.5q0 -56 -18 -101.5t-49.5 -77.5t-76 -49.5t-96.5 -17.5q-59 0 -97 19.5t-60 52.5t-31 76t-9 91q0 37 5.5 82.5
t18.5 92.5t35 91.5t56 79t80.5 55.5t108.5 21q75 0 119.5 -41t49.5 -119zM151 247q-1 -9 -1.5 -19.5t-0.5 -21.5q0 -25 4.5 -51t16.5 -47.5t33.5 -35.5t56.5 -14q66 0 106.5 43.5t40.5 124.5q0 50 -23 77.5t-70 27.5q-23 0 -46 -7.5t-44.5 -19.5t-40.5 -27t-32 -30z" />
    <glyph glyph-name="seven.tosf" unicode="&#xf822;" 
d="M56 -67l367 558h-339l11 78h439l-10 -71l-369 -565h-99z" />
    <glyph glyph-name="nine.tosf" unicode="&#xf824;" 
d="M95 90q4 -29 14 -48.5t25 -31.5t33.5 -17t40.5 -5q51 0 86 22t58 58t35.5 83t18.5 97q-31 -32 -79 -55t-103 -23q-39 0 -69.5 13.5t-51 37t-31 55t-10.5 68.5q0 55 17 100.5t48.5 77.5t76 49.5t98.5 17.5q57 0 94.5 -20.5t60 -55t32 -79.5t9.5 -95q0 -80 -14.5 -156
t-48.5 -135t-90.5 -95t-140.5 -36q-77 0 -128.5 38t-59.5 114zM406 324q3 18 3 46q0 24 -4.5 50.5t-16.5 49t-33.5 37t-56.5 14.5q-66 0 -107 -42.5t-41 -126.5q0 -53 22.5 -82t69.5 -29q46 0 89 24t75 59z" />
    <glyph glyph-name="dollar.tosf" unicode="&#xf825;" 
d="M423 449q-4 45 -18.5 71.5t-55.5 34.5l-30 -206q26 -10 53.5 -22.5t50 -31t37 -44.5t14.5 -63q0 -79 -53 -128t-151 -58l-10 -83h-71l12 85q-33 4 -62 15t-51.5 31.5t-36.5 51t-15 72.5l80 14q2 -23 7.5 -41.5t16 -33t27.5 -24.5t43 -14l31 214q-27 10 -53 23t-46.5 32
t-33 44.5t-12.5 61.5q0 39 14.5 70t40 53.5t61.5 36.5t78 17l11 75h71l-11 -80q29 -5 55 -16.5t45.5 -31.5t30.5 -48.5t11 -65.5zM386 179q0 32 -22.5 52t-56.5 34l-28 -192q52 6 79.5 32.5t27.5 73.5zM187 460q0 -34 18 -53.5t48 -33.5l27 183q-38 -4 -65.5 -25.5
t-27.5 -70.5z" />
    <glyph glyph-name="Euro.tosf" unicode="&#xf826;" horiz-adv-x="569" 
d="M140 214q4 -83 39.5 -118t101.5 -35q65 0 103.5 32t61.5 100l76 -17q-14 -51 -39.5 -87t-58.5 -58.5t-71.5 -32.5t-80.5 -10q-113 0 -166.5 59.5t-56.5 166.5h-70l17 61h54q3 34 9 69h-50l19 60h45q16 52 42 97t63.5 77.5t86.5 51t109 18.5q45 0 82 -12.5t62 -38.5
t37 -65.5t8 -94.5l-84 -8q1 37 -4 64.5t-18.5 46t-37 28t-59.5 9.5q-39 0 -70.5 -13t-56 -36.5t-42 -55t-28.5 -68.5h208l-18 -60h-204q-3 -17 -5 -34.5t-3 -34.5h199l-18 -61h-182z" />
    <glyph glyph-name="cent.tosf" unicode="&#xf827;" 
d="M379 630l-14 -99q69 -10 105 -59t30 -121l-82 -5q2 45 -13 75.5t-53 39.5l-51 -352q40 7 64 31t37 68l75 -15q-18 -71 -69 -108.5t-116 -45.5l-14 -108h-72l15 110q-80 11 -116 64.5t-36 135.5q0 65 16.5 116.5t46.5 88t71 58.5t90 28l14 98h72zM160 243q0 -58 19 -89.5
t53 -41.5l50 348q-24 -6 -46.5 -20.5t-39 -40.5t-26.5 -64.5t-10 -91.5z" />
    <glyph glyph-name="s_t" unicode="&#xfb06;" horiz-adv-x="829" 
d="M781 20q-22 -13 -56.5 -22.5t-68.5 -9.5q-66 0 -100 27t-34 86q0 21 4 45.5t8 50.5l65 465l93 13l-23 -161h142l-9 -67h-142l-42 -301q-3 -20 -2.5 -36t6.5 -27t19 -17t36 -6t47.5 7.5t43.5 18.5zM268 524q46 0 79 -12t54.5 -33t32.5 -50t13 -63l-77 -11q-2 43 -25 73
t-79 30q-30 0 -50.5 -6.5t-33 -17.5t-18 -25t-5.5 -29q0 -18 7.5 -31t20.5 -22.5t30 -16t36 -12.5q28 -8 58 -17t54.5 -24.5t40 -40.5t15.5 -65q0 -39 -15 -69.5t-42.5 -51t-66 -31.5t-84.5 -11q-91 0 -137.5 39.5t-53.5 116.5l75 17q3 -22 9.5 -41t20 -33.5t36 -22.5
t55.5 -8q20 0 40.5 4t37 13t26.5 25t10 40q0 20 -8.5 34t-22.5 23.5t-32.5 16t-39.5 12.5q-27 7 -55 16t-50.5 24t-36.5 40t-14 64q0 41 16.5 70.5t44 48.5t62.5 28t72 9z" />
    <glyph glyph-name="hyphen.case" horiz-adv-x="316" 
d="M19 315l12 83h271l-12 -83h-271z" />
    <glyph glyph-name="zero.osf" horiz-adv-x="614" 
d="M263 -12q-62 0 -104 19.5t-67.5 52t-37 75.5t-11.5 90q0 68 16.5 132.5t53 115t95 81t142.5 30.5q59 0 100 -18t66.5 -49t36.5 -72.5t11 -88.5q0 -64 -14 -129.5t-48.5 -118.5t-92.5 -86.5t-146 -33.5zM271 59q57 0 94.5 26.5t60.5 68t32.5 93.5t9.5 103q0 73 -29 117
t-99 44q-57 0 -96 -25t-62.5 -65.5t-34 -92.5t-10.5 -105q0 -36 7.5 -66t23.5 -51.5t41.5 -34t61.5 -12.5z" />
    <glyph glyph-name="one.osf" horiz-adv-x="407" 
d="M152 0l64 453q-14 -8 -35.5 -14t-45 -10.5t-45 -6.5t-33.5 -2v70q69 5 121 24.5t93 59.5h51l-81 -574h-89z" />
    <glyph glyph-name="two.osf" horiz-adv-x="521" 
d="M136 77v-1h290l-11 -76h-408l10 71l162 124q53 41 90.5 70t61 54t34.5 50.5t11 59.5q0 44 -25 65t-70 21q-36 0 -60.5 -9.5t-41.5 -26.5t-28 -40t-19 -49l-78 16q12 49 35.5 83t55 55t68.5 30.5t77 9.5q85 0 131 -39t46 -113q0 -41 -12 -73.5t-36.5 -62.5t-61.5 -59.5
t-86 -64.5z" />
    <glyph glyph-name="three.osf" horiz-adv-x="516" 
d="M298 584q84 0 128.5 -39t44.5 -103q0 -41 -14 -71t-37 -51.5t-51.5 -35t-57.5 -21.5v-3q51 -9 87 -42t36 -95q0 -49 -17.5 -87t-49 -64.5t-75.5 -40.5t-97 -14q-91 0 -144 40t-57 126l82 16q2 -21 7 -41t18 -35.5t36 -25.5t60 -10q28 0 54.5 7t47 22.5t32.5 41t12 63.5
q0 56 -35 79.5t-94 23.5h-66l9 70h47q38 0 70 9.5t55.5 27t36.5 42.5t13 56q0 36 -21 60t-77 24q-32 0 -55 -8t-39.5 -22.5t-28 -34t-20.5 -41.5l-77 17q26 85 89 122.5t148 37.5z" />
    <glyph glyph-name="four.osf" horiz-adv-x="540" 
d="M303 -67l21 146h-325l9 65l356 430h117l-60 -420h86l-11 -75h-86l-20 -146h-87zM335 154l47 334l-279 -334h232z" />
    <glyph glyph-name="five.osf" horiz-adv-x="530" 
d="M202 491l-50 -202q28 20 64.5 34.5t84.5 14.5q33 0 63 -10t52 -31t35 -53.5t13 -77.5q0 -51 -16.5 -96.5t-49 -79t-80.5 -53.5t-110 -20q-40 0 -75 10t-61.5 30.5t-43.5 52t-20 74.5l82 18q2 -18 8.5 -38t20 -36.5t36 -27t57.5 -10.5q30 0 58.5 9t51.5 29t37 52t14 78
q0 55 -26.5 81t-73.5 26q-44 0 -78 -16.5t-65 -43.5l-62 30l71 334h346l-12 -78h-271z" />
    <glyph glyph-name="six.osf" horiz-adv-x="555" 
d="M451 469q-5 59 -29 84t-69 25q-48 0 -82.5 -22.5t-58.5 -58.5t-38 -81.5t-21 -91.5q35 32 80.5 55t101.5 23q39 0 69 -13t50.5 -35.5t30.5 -53t10 -66.5q0 -56 -18 -101.5t-49.5 -77.5t-76 -49.5t-96.5 -17.5q-59 0 -97 19.5t-60 52.5t-31 76t-9 91q0 37 5.5 82.5
t18.5 92.5t35 91.5t56 79t80.5 55.5t108.5 21q75 0 119.5 -41t49.5 -119zM150 247q-1 -9 -1.5 -19.5t-0.5 -21.5q0 -25 4.5 -51t16.5 -47.5t33.5 -35.5t56.5 -14q66 0 106.5 43.5t40.5 124.5q0 50 -23 77.5t-70 27.5q-23 0 -46 -7.5t-44.5 -19.5t-40.5 -27t-32 -30z" />
    <glyph glyph-name="seven.osf" horiz-adv-x="512" 
d="M22 -67l367 558h-339l11 78h439l-10 -71l-369 -565h-99z" />
    <glyph glyph-name="eight.osf" horiz-adv-x="528" 
d="M501 517q0 -32 -8.5 -56.5t-27 -45.5t-47.5 -40t-69 -38q25 -12 47.5 -25.5t39 -31.5t26 -41.5t9.5 -54.5q0 -91 -67.5 -143.5t-185.5 -52.5q-97 0 -148 40t-51 110q0 37 11 65.5t32.5 51t52 40.5t69.5 35q-46 21 -72 54.5t-26 82.5q0 43 17.5 77t49 57t75 35.5
t96.5 12.5q92 0 134.5 -36.5t42.5 -95.5zM228 56q39 0 67.5 9t47 25t27 37.5t8.5 45.5t-11 43t-28.5 33t-40 25t-45.5 20q-71 -29 -108 -62.5t-37 -83.5q0 -42 30 -67t90 -25zM313 584q-65 0 -100 -27t-35 -78q0 -42 28 -66.5t72 -41.5q30 14 55 28.5t43.5 31t29 35.5
t10.5 42q0 35 -24.5 55.5t-78.5 20.5z" />
    <glyph glyph-name="nine.osf" horiz-adv-x="565" 
d="M93 90q4 -29 14 -48.5t25 -31.5t33.5 -17t40.5 -5q51 0 86 22t58 58t35.5 83t18.5 97q-31 -32 -79 -55t-103 -23q-39 0 -69.5 13.5t-51 37t-31 55t-10.5 68.5q0 55 17 100.5t48.5 77.5t76 49.5t98.5 17.5q57 0 94.5 -20.5t60 -55t32 -79.5t9.5 -95q0 -80 -14.5 -156
t-48.5 -135t-90.5 -95t-140.5 -36q-77 0 -128.5 38t-59.5 114zM404 324q3 18 3 46q0 24 -4.5 50.5t-16.5 49t-33.5 37t-56.5 14.5q-66 0 -107 -42.5t-41 -126.5q0 -53 22.5 -82t69.5 -29q46 0 89 24t75 59z" />
    <glyph glyph-name="dollar.osf" horiz-adv-x="525" 
d="M401 449q-4 45 -18.5 71.5t-55.5 34.5l-30 -206q26 -10 53.5 -22.5t50 -31t37 -44.5t14.5 -63q0 -79 -53 -128t-151 -58l-10 -83h-71l12 85q-33 4 -62 15t-51.5 31.5t-36.5 51t-15 72.5l80 14q2 -23 7.5 -41.5t16 -33t27.5 -24.5t43 -14l31 214q-27 10 -53 23t-46.5 32
t-33 44.5t-12.5 61.5q0 39 14.5 70t40 53.5t61.5 36.5t78 17l11 75h71l-11 -80q29 -5 55 -16.5t45.5 -31.5t30.5 -48.5t11 -65.5zM364 179q0 32 -22.5 52t-56.5 34l-28 -192q52 6 79.5 32.5t27.5 73.5zM165 460q0 -34 18 -53.5t48 -33.5l27 183q-38 -4 -65.5 -25.5
t-27.5 -70.5z" />
    <glyph glyph-name="Euro.osf" horiz-adv-x="610" 
d="M173 206q6 -78 43 -111.5t103 -33.5t105 32t62 100l77 -17q-15 -51 -40.5 -87t-59 -58.5t-73 -32.5t-81.5 -10q-115 0 -169 56.5t-59 161.5h-78l20 66h59q2 37 9 73h-59l21 67h55q16 51 42.5 94t64 74.5t85.5 49.5t107 18q45 0 83 -12.5t64.5 -38.5t39.5 -65.5t10 -94.5
l-85 -8q2 74 -24 111t-99 37q-38 0 -69 -12.5t-55 -34.5t-42.5 -52t-30.5 -66h205l-20 -67h-202q-7 -36 -9 -73h202l-20 -66h-182z" />
    <glyph glyph-name="cent.osf" horiz-adv-x="501" 
d="M352 629l-14 -99q64 -11 102 -57t32 -118l-81 -10q2 45 -13 75.5t-53 39.5l-51 -349q40 7 64 29.5t37 66.5l77 -16q-9 -35 -27 -62t-43 -45.5t-54.5 -30t-62.5 -15.5l-14 -108h-72l15 110q-80 11 -116 64.5t-36 135.5q0 65 16.5 116.5t46.5 88t71 58.5t90 28l14 98h72z
M133 242q0 -58 19 -88t53 -40l50 345q-24 -6 -46.5 -20.5t-39 -40.5t-26.5 -64.5t-10 -91.5z" />
    <glyph glyph-name="sterling.osf" horiz-adv-x="563" 
d="M50 70q38 35 62.5 71t24.5 84q0 13 -3 27t-6 24h-106l10 67h79q-8 18 -15 43t-7 52q0 47 18 85.5t50.5 66.5t78 43t101.5 15q94 0 143 -46.5t50 -140.5l-81 -12q0 27 -5.5 50.5t-19 41.5t-36 28t-57.5 10q-32 0 -60 -8.5t-49 -25t-33 -42.5t-12 -60q0 -30 7 -54.5
t15 -45.5h226l-9 -67h-200q7 -24 7 -49q0 -37 -20 -74t-65 -83h167q64 0 95 27t46 86l75 -14q-9 -49 -29.5 -81.5t-51.5 -52t-72.5 -27.5t-93.5 -8h-289l10 70h55z" />
    <glyph glyph-name="yen.osf" horiz-adv-x="528" 
d="M281 150l-21 -150h-91l20 150h-132l9 66h132l11 77h-132l9 66h95l-125 273h96l112 -268h1l180 268h97l-194 -273h95l-9 -66h-132l-11 -77h132l-9 -66h-133z" />
    <glyph glyph-name="florin.osf" horiz-adv-x="506" 
d="M207 488q17 82 58 119.5t113 37.5q112 0 147 -106l-76 -27q-11 29 -26.5 46.5t-44.5 17.5q-32 0 -53 -18.5t-30 -67.5l-23 -114h141l-12 -67h-141l-69 -337q-17 -82 -56.5 -119t-111.5 -37q-57 0 -96 27t-54 78l77 29q11 -28 27 -45.5t48 -17.5q31 0 49.5 18t28.5 68
l68 336h-82l13 67h82z" />
    <glyph glyph-name="afii61352.osf" horiz-adv-x="967" 
d="M755 280q-39 0 -66.5 10.5t-44.5 29t-25 44.5t-8 56q0 46 12.5 84t37 65.5t61 42.5t84.5 15q39 0 66 -10.5t44 -29t25 -44t8 -54.5q0 -97 -49 -153t-145 -56zM763 340q23 0 42.5 7t34 24t22.5 44.5t8 68.5q0 38 -18 59.5t-54 21.5q-24 0 -44 -7t-34.5 -23.5t-22.5 -43
t-8 -66.5q0 -45 18.5 -65t55.5 -20zM587 237h316l-8 -65h-317zM381 0l-183 509l-72 -509h-85l88 626h117l169 -499l70 499h83l-88 -626h-99z" />
    <glyph glyph-name="percent.osf" horiz-adv-x="860" 
d="M611 -12q-75 0 -109 42t-34 109q0 46 12.5 84.5t37 67t60 44.5t81.5 16q72 0 107 -39.5t35 -112.5q0 -43 -11.5 -81t-34.5 -67t-59 -46t-85 -17zM617 49q38 0 59.5 17t31.5 40.5t12 48.5t2 41q0 41 -14.5 67t-53.5 26q-31 0 -51.5 -13.5t-32.5 -35t-17 -48.5t-5 -55
q0 -39 15 -63.5t54 -24.5zM53 408q0 45 12.5 84t37 67.5t60 44.5t81.5 16q72 0 107.5 -38.5t35.5 -113.5q0 -43 -11.5 -81t-35 -67t-59 -46t-84.5 -17q-75 0 -109.5 42t-34.5 109zM203 318q38 0 59 17t31 40.5t12 48.5t2 42q0 42 -15 67t-53 25q-30 0 -50.5 -13t-33 -34.5
t-17.5 -48.5t-5 -55q0 -40 15 -64.5t55 -24.5zM236 -16h-87l466 637h86z" />
    <glyph glyph-name="perthousand.osf" horiz-adv-x="1071" 
d="M848 -12q-34 0 -58.5 10t-40 28t-22.5 42t-7 51q0 42 11 77.5t33 61.5t53.5 40.5t73.5 14.5q66 0 95.5 -35.5t29.5 -95.5q0 -42 -11 -77.5t-32 -61.5t-52.5 -40.5t-72.5 -14.5zM853 46q30 0 47.5 13.5t26.5 33.5t12 43.5t3 44.5q0 32 -12.5 52.5t-44.5 20.5
q-26 0 -43 -11.5t-27.5 -30.5t-15 -42.5t-4.5 -48.5q0 -33 13 -54t45 -21zM514 -12q-34 0 -58.5 10t-40 28t-22.5 42t-7 51q0 42 11 77.5t33 61.5t54 40.5t73 14.5q66 0 95.5 -35.5t29.5 -95.5q0 -42 -10.5 -77.5t-31.5 -61.5t-52.5 -40.5t-73.5 -14.5zM520 46
q29 0 46.5 13.5t26.5 33.5t12 43.5t3 44.5q0 32 -12.5 52.5t-44.5 20.5q-26 0 -43 -11.5t-27.5 -30.5t-15 -42.5t-4.5 -48.5q0 -33 13 -54t46 -21zM182 295q-34 0 -58.5 10t-40 28t-22.5 42t-7 51q0 42 11 77.5t33 61.5t53.5 40.5t73.5 14.5q66 0 95.5 -35.5t29.5 -95.5
q0 -42 -11 -77.5t-32 -61.5t-52.5 -40.5t-72.5 -14.5zM91 -16l465 637h86l-464 -637h-87zM187 353q30 0 47.5 13.5t26.5 33.5t12 43.5t3 44.5q0 32 -12.5 52.5t-44.5 20.5q-26 0 -43 -11.5t-27.5 -30.5t-15 -42.5t-4.5 -48.5q0 -33 13 -54t45 -21z" />
    <glyph glyph-name="zero.slash" 
d="M229 -12q-56 0 -93 17.5t-58.5 49t-30 74.5t-8.5 93q0 33 3.5 66.5t8.5 72.5q11 80 31 149t54.5 119.5t85 79t123.5 28.5q55 0 92 -17t58.5 -47.5t30.5 -72t9 -90.5q0 -32 -3 -65.5t-8 -71.5q-12 -85 -32 -155.5t-53.5 -121.5t-84.5 -79.5t-125 -28.5zM243 63
q46 0 77.5 21.5t53 61.5t35 96t23.5 124q5 40 8.5 75.5t3.5 66.5q0 23 -2.5 42.5t-7.5 36.5l-258 -506q24 -18 67 -18zM131 221q0 -23 1.5 -43t6.5 -37l256 503q-27 16 -64 16q-45 0 -76.5 -21t-53.5 -60t-35.5 -95t-23.5 -126q-5 -38 -8 -72t-3 -65z" />
    <glyph glyph-name="zero.tf" 
d="M229 -12q-56 0 -93 17.5t-58.5 49t-30 74.5t-8.5 93q0 33 3.5 66.5t8.5 72.5q11 80 31 149t54.5 119.5t85 79t123.5 28.5q55 0 92 -17t58.5 -47.5t30.5 -72t9 -90.5q0 -32 -3 -65.5t-8 -71.5q-12 -85 -32 -155.5t-53.5 -121.5t-84.5 -79.5t-125 -28.5zM243 63
q46 0 77.5 21.5t53 61.5t35 96t23.5 124q5 40 8.5 75.5t3.5 66.5q0 71 -24.5 111.5t-88.5 40.5q-45 0 -76.5 -21t-53.5 -60t-35.5 -95t-23.5 -126q-5 -38 -8 -72t-3 -65q0 -36 4.5 -65t17 -49.5t34.5 -32t56 -11.5z" />
    <glyph glyph-name="one.tf" horiz-adv-x="569" 
d="M81 75h141l74 527q-14 -8 -36 -14t-45.5 -10.5t-45 -7t-33.5 -2.5v71q71 6 122.5 25.5t92.5 59.5h52l-92 -649h129l-11 -75h-359z" />
    <glyph glyph-name="two.tf" 
d="M16 0l10 72l199 208q55 58 91.5 98.5t58.5 72t30.5 58.5t8.5 59q0 51 -25 74.5t-78 23.5q-54 0 -90.5 -30.5t-56.5 -97.5l-79 15q11 49 34.5 84t55 57t70 32.5t80.5 10.5q81 0 131 -39t50 -119q0 -45 -13 -83t-39.5 -76t-65.5 -79.5t-91 -94.5q-40 -42 -84 -85t-82 -85
h315l-11 -76h-419z" />
    <glyph glyph-name="three.tf" 
d="M331 737q87 0 132.5 -41t45.5 -110q0 -45 -15.5 -79.5t-40.5 -58.5t-56 -39.5t-62 -23.5l-1 -2q28 -6 53.5 -17.5t44 -30.5t29.5 -46t11 -66q0 -53 -18 -96t-51 -74t-80 -48t-105 -17q-92 0 -143 40t-56 126l82 17q1 -19 6 -39t17.5 -36t34 -26.5t57.5 -10.5
q31 0 60.5 9.5t53 29.5t37.5 52t14 76q0 34 -10.5 56.5t-29 36.5t-44 20t-55.5 6h-63l10 71h46q41 0 74.5 11.5t57.5 32.5t37 49.5t13 63.5q0 19 -5 36t-16.5 29.5t-30 20t-46.5 7.5q-32 0 -55 -7.5t-40 -21.5t-29 -33.5t-22 -44.5l-79 16q29 88 91.5 125t145.5 37z" />
    <glyph glyph-name="four.tf" 
d="M317 0l25 179h-329l9 65l371 480h114l-67 -470h84l-11 -75h-84l-25 -179h-87zM353 254l54 382l-296 -382h242z" />
    <glyph glyph-name="five.tf" 
d="M232 647l-58 -238q29 22 66 36.5t83 14.5q33 0 64 -9.5t55 -32t38.5 -58.5t14.5 -88q0 -62 -19 -114t-55 -90t-87 -59t-114 -21q-41 0 -76 10.5t-61 31.5t-41.5 52.5t-18.5 74.5l80 19q1 -18 7 -38.5t20 -37.5t37 -28t59 -11q31 0 62.5 10.5t57 34.5t41.5 63t16 96
q0 64 -29.5 93t-80.5 29q-40 0 -76 -16.5t-66 -42.5l-62 28l79 368h348l-11 -77h-273z" />
    <glyph glyph-name="six.tf" 
d="M467 558q-5 61 -31.5 84.5t-66.5 23.5q-50 0 -88 -29t-64 -73.5t-42 -98.5t-22 -104q15 15 35.5 29t45 25.5t52 18.5t55.5 7q84 0 127 -47.5t43 -126.5q0 -65 -19.5 -116.5t-54.5 -87.5t-82.5 -55.5t-103.5 -19.5q-57 0 -94.5 19.5t-60 53.5t-32 80.5t-9.5 101.5
q0 41 5.5 93.5t19.5 107t38 107.5t60.5 94t87 66.5t118.5 25.5q33 0 62 -9.5t51 -29.5t35.5 -50.5t15.5 -71.5zM148 286q-3 -32 -3 -62q0 -32 5 -61.5t17.5 -53t35 -37.5t58.5 -14q32 0 60.5 12.5t50 37t34 62t12.5 87.5q0 112 -100 112q-23 0 -46.5 -7t-45.5 -19t-42 -27
t-36 -30z" />
    <glyph glyph-name="seven.tf" 
d="M72 0l384 647h-357l11 77h456l-10 -69l-387 -655h-97z" />
    <glyph glyph-name="eight.tf" 
d="M368 377q25 -12 49.5 -26.5t43 -33.5t30 -44.5t11.5 -61.5q0 -48 -18.5 -89t-53 -70.5t-83.5 -46.5t-109 -17q-53 0 -92.5 13t-65.5 35.5t-38.5 52.5t-12.5 65q0 45 15 79t40.5 60t58.5 45t70 34q-22 11 -41.5 26.5t-34.5 35t-23.5 43t-8.5 51.5q0 51 19.5 90t53.5 65.5
t78.5 40t95.5 13.5q88 0 138.5 -38.5t50.5 -106.5q0 -37 -13.5 -69t-36.5 -58.5t-55 -48.5t-68 -39zM275 336q-38 -15 -67.5 -32t-49.5 -37t-30.5 -46t-10.5 -59q0 -44 31 -74.5t98 -30.5q42 0 73 13t50.5 33t29 45.5t9.5 50.5q0 30 -12.5 52t-31.5 38t-43 27t-46 20z
M304 409q31 15 58 33.5t47.5 40t32.5 46.5t12 52q0 42 -28.5 66t-84.5 24q-33 0 -60 -9.5t-46 -26.5t-29.5 -40.5t-10.5 -51.5q0 -24 9 -44.5t24 -37.5t35 -30t41 -22z" />
    <glyph glyph-name="nine.tf" 
d="M93 168q15 -109 112 -109q51 0 89.5 25t65.5 66t42.5 95t21.5 112q-14 -15 -36 -29t-48.5 -25.5t-55.5 -18.5t-57 -7q-42 0 -73 14t-51.5 38.5t-31 58t-10.5 72.5q0 65 19 116.5t53.5 87t81.5 54.5t103 19q55 0 93.5 -20.5t61.5 -55.5t33.5 -83t10.5 -103
q0 -105 -18.5 -194.5t-57.5 -154.5t-98 -101.5t-140 -36.5q-78 0 -128.5 37.5t-60.5 119.5zM425 432q2 17 3 33.5t1 33.5q0 31 -5 61.5t-18 54.5t-35.5 38.5t-57.5 14.5q-32 0 -61.5 -12.5t-52 -37.5t-36 -61.5t-13.5 -85.5q0 -123 99 -123q22 0 46.5 7t48 18.5t44.5 26.5
t37 32z" />
    <glyph glyph-name="dollar.tf" 
d="M438 509q-1 57 -19 88.5t-59 39.5l-36 -247q30 -12 59.5 -25.5t52.5 -32.5t37.5 -45t14.5 -63q0 -55 -18 -95t-48.5 -67t-70.5 -41.5t-83 -17.5l-12 -84h-72l12 85q-89 11 -128 60t-42 130l81 13q3 -27 8 -50t16.5 -41t29.5 -30t47 -16l38 261q-29 11 -56.5 24.5t-49 33
t-34.5 46.5t-13 66q0 45 16 81t44 62.5t66 42.5t82 21l12 84h73l-12 -85q70 -10 108 -54.5t38 -134.5zM399 203q0 40 -25 63t-62 39l-34 -234q53 8 87 41t34 91zM185 515q0 -35 20.5 -57.5t52.5 -38.5l32 217q-51 -10 -78 -43t-27 -78z" />
    <glyph glyph-name="Euro.tf" horiz-adv-x="569" 
d="M77 465q17 57 44.5 106.5t67.5 86.5t91.5 58.5t116.5 21.5q34 0 68.5 -9.5t60.5 -33.5t41 -66t10 -108l-81 -7q1 42 -4.5 70.5t-19 46t-36 25.5t-56.5 8q-32 0 -62.5 -13.5t-58 -39.5t-50 -63t-38.5 -83h206l-20 -67h-204q-5 -20 -7 -40t-4 -42h202l-21 -66h-182
q4 -93 39 -140.5t110 -47.5q38 0 65 12t46.5 31.5t31.5 43.5t20 48l75 -17q-13 -52 -37.5 -88.5t-57 -59.5t-71 -33.5t-79.5 -10.5q-61 0 -104 18.5t-70.5 52.5t-41.5 82.5t-16 108.5h-87l20 66h68q2 20 3.5 41t5.5 41h-63l19 67h60z" />
    <glyph glyph-name="cent.tf" 
d="M396 699l-14 -99q69 -10 105 -59t30 -121l-82 -5q2 45 -13 75.5t-53 39.5l-51 -352q40 7 64 31t37 68l75 -15q-18 -71 -69 -108.5t-116 -45.5l-14 -108h-72l15 110q-80 11 -116 64.5t-36 135.5q0 65 16.5 116.5t46.5 88t71 58.5t90 28l14 98h72zM177 312q0 -58 19 -89.5
t53 -41.5l50 348q-24 -6 -46.5 -20.5t-39 -40.5t-26.5 -64.5t-10 -91.5z" />
    <glyph glyph-name="sterling.tf" 
d="M53 74q54 44 80.5 86.5t26.5 91.5q0 17 -3 35.5t-9 35.5h-104l10 71h77q-8 20 -17.5 54.5t-9.5 72.5q0 48 18.5 88t51.5 68.5t78 44t98 15.5q99 0 147.5 -46t46.5 -146l-83 -7q0 30 -5 53.5t-17.5 40t-34 25.5t-55.5 9q-32 0 -60 -8.5t-48.5 -26.5t-32 -45.5t-11.5 -66.5
q0 -36 9 -69t17 -56h222l-10 -71h-196q5 -15 6.5 -32t1.5 -32q0 -102 -98 -185h168q29 0 50 6t36 19.5t25.5 34t19.5 50.5l79 -15q-22 -90 -74.5 -129.5t-140.5 -39.5h-323l10 74h54z" />
    <glyph glyph-name="yen.tf" 
d="M309 200l-28 -200h-92l27 200h-130l12 69h128l12 88h-132l11 67h95l-126 300h96l113 -295h1l182 295h98l-199 -300h97l-11 -67h-131l-1 -2l-12 -86h136l-10 -69h-136z" />
    <glyph glyph-name="florin.tf" 
d="M245 579q17 82 58 120t113 38q112 0 147 -107l-76 -26q-11 29 -26.5 46t-44.5 17q-32 0 -53 -18t-30 -67l-26 -137h141l-12 -67h-142l-80 -407q-17 -82 -56.5 -119t-111.5 -37q-57 0 -96 27t-54 78l77 29q11 -28 27 -45.5t48 -17.5q30 0 49.5 18t28.5 68l80 406h-82
l12 67h82z" />
    <glyph glyph-name="zeroslash.tosf" 
d="M237 -12q-61 0 -102.5 19.5t-67 52t-37 75.5t-11.5 90q0 68 16.5 132.5t52.5 115t94 81t142 30.5q58 0 98.5 -18t66 -49t36.5 -72.5t11 -88.5q0 -64 -13.5 -129.5t-47 -118.5t-91.5 -86.5t-147 -33.5zM113 221q0 -30 5 -56t16 -46l238 381q-25 11 -59 11q-56 0 -94 -25.5
t-61.5 -66.5t-34 -93t-10.5 -105zM245 59q56 0 93.5 26t60 68t32 94t9.5 105q0 30 -4.5 55t-15.5 45l-237 -381q25 -12 62 -12z" />
    <glyph glyph-name="zero.tosf" 
d="M237 -12q-61 0 -102.5 19.5t-67 52t-37 75.5t-11.5 90q0 68 16.5 132.5t52.5 115t94 81t142 30.5q58 0 98.5 -18t66 -49t36.5 -72.5t11 -88.5q0 -64 -13.5 -129.5t-47 -118.5t-91.5 -86.5t-147 -33.5zM245 59q56 0 93.5 26t60 68t32 94t9.5 105q0 72 -28.5 115.5
t-98.5 43.5q-56 0 -94 -25.5t-61.5 -66.5t-34 -93t-10.5 -105q0 -35 7.5 -65t23.5 -51.5t41 -33.5t60 -12z" />
    <glyph glyph-name="one.tosf" horiz-adv-x="569" 
d="M95 75h145l53 378q-14 -8 -35.5 -14t-44.5 -10.5t-44.5 -6.5t-33.5 -2v70q69 5 121 24.5t92 59.5h52l-71 -499h127l-11 -75h-361z" />
    <glyph glyph-name="two.tosf" 
d="M158 77v-1h290l-11 -76h-408l10 71l162 124q53 41 90.5 70t61 54t34.5 50.5t11 59.5q0 44 -25 65t-70 21q-36 0 -60.5 -9.5t-41.5 -26.5t-28 -40t-19 -49l-78 16q12 49 35.5 83t55 55t68.5 30.5t77 9.5q85 0 131 -39t46 -113q0 -41 -12 -73.5t-36.5 -62.5t-61.5 -59.5
t-86 -64.5z" />
    <glyph glyph-name="eight.tosf" 
d="M525 517q0 -32 -8.5 -56.5t-27 -45.5t-47.5 -40t-69 -38q25 -12 47.5 -25.5t39 -31.5t26 -41.5t9.5 -54.5q0 -91 -67.5 -143.5t-185.5 -52.5q-97 0 -148 40t-51 110q0 37 11 65.5t32.5 51t52 40.5t69.5 35q-46 21 -72 54.5t-26 82.5q0 43 17.5 77t49 57t75 35.5
t96.5 12.5q92 0 134.5 -36.5t42.5 -95.5zM252 56q39 0 67.5 9t47 25t27 37.5t8.5 45.5t-11 43t-28.5 33t-40 25t-45.5 20q-71 -29 -108 -62.5t-37 -83.5q0 -42 30 -67t90 -25zM337 584q-65 0 -100 -27t-35 -78q0 -42 28 -66.5t72 -41.5q30 14 55 28.5t43.5 31t29 35.5
t10.5 42q0 35 -24.5 55.5t-78.5 20.5z" />
    <glyph glyph-name="sterling.tosf" 
d="M50 70q38 35 62.5 71t24.5 84q0 13 -3 27t-6 24h-106l10 67h79q-8 18 -15 43t-7 52q0 47 18 85.5t50.5 66.5t78 43t101.5 15q94 0 143 -46.5t50 -140.5l-81 -12q0 27 -5.5 50.5t-19 41.5t-36 28t-57.5 10q-32 0 -60 -8.5t-49 -25t-33 -42.5t-12 -60q0 -30 7 -54.5
t15 -45.5h226l-9 -67h-200q7 -24 7 -49q0 -37 -20 -74t-65 -83h167q64 0 95 27t46 86l75 -14q-9 -49 -29.5 -81.5t-51.5 -52t-72.5 -27.5t-93.5 -8h-289l10 70h55z" />
    <glyph glyph-name="yen.tosf" 
d="M311 150l-21 -150h-91l20 150h-132l9 66h132l11 77h-132l9 66h95l-125 273h96l112 -268h1l180 268h97l-194 -273h95l-9 -66h-132l-11 -77h132l-9 -66h-133z" />
    <glyph glyph-name="florin.tosf" 
d="M229 488q17 82 58 119.5t113 37.5q112 0 147 -106l-76 -27q-11 29 -26.5 46.5t-44.5 17.5q-32 0 -53 -18.5t-30 -67.5l-23 -114h141l-12 -67h-141l-69 -337q-17 -82 -56.5 -119t-111.5 -37q-57 0 -96 27t-54 78l77 29q11 -28 27 -45.5t48 -17.5q31 0 49.5 18t28.5 68
l68 336h-82l13 67h82z" />
    <glyph glyph-name="idotaccent" horiz-adv-x="249" 
d="M130 0h-91l72 514h91zM246 689q0 -35 -19.5 -54.5t-54.5 -19.5q-27 0 -41.5 14t-14.5 39q0 35 19.5 54.5t54.5 19.5q56 0 56 -53z" />
    <glyph glyph-name="s_p" horiz-adv-x="1050" 
d="M647 444q38 31 86 55.5t104 24.5q34 0 63 -10.5t50 -34t32.5 -60.5t11.5 -90q0 -90 -21 -154.5t-56 -106t-80.5 -61t-94.5 -19.5q-48 0 -85.5 16.5t-62.5 38.5l-36 -255h-88l102 726h86zM899 322q0 69 -21.5 98t-66.5 29q-22 0 -46.5 -7.5t-47 -19t-42 -24.5t-32.5 -24
l-36 -259q7 -6 19.5 -15t28.5 -17.5t35.5 -14t40.5 -5.5q48 0 80.5 22.5t52 59t27.5 83t8 94.5zM268 524q46 0 79 -12t54.5 -33t32.5 -50t13 -63l-77 -11q-2 43 -25 73t-79 30q-30 0 -50.5 -6.5t-33 -17.5t-18 -25t-5.5 -29q0 -18 7.5 -31t20.5 -22.5t30 -16t36 -12.5
q28 -8 58 -17t54.5 -24.5t40 -40.5t15.5 -65q0 -39 -15 -69.5t-42.5 -51t-66 -31.5t-84.5 -11q-91 0 -137.5 39.5t-53.5 116.5l75 17q3 -22 9.5 -41t20 -33.5t36 -22.5t55.5 -8q20 0 40.5 4t37 13t26.5 25t10 40q0 20 -8.5 34t-22.5 23.5t-32.5 16t-39.5 12.5q-27 7 -55 16
t-50.5 24t-36.5 40t-14 64q0 41 16.5 70.5t44 48.5t62.5 28t72 9z" />
    <glyph glyph-name="c_t" horiz-adv-x="875" 
d="M827 20q-22 -13 -56.5 -22.5t-68.5 -9.5q-66 0 -100 27t-34 86q0 21 4 45.5t8 50.5l65 465l93 13l-23 -161h142l-9 -67h-142l-42 -301q-3 -20 -2.5 -36t6.5 -27t19 -17t36 -6t47.5 7.5t43.5 18.5zM247 -12q-54 0 -93.5 16t-64.5 44.5t-37 68.5t-12 88q0 76 21 135.5
t58 100.5t88.5 62t112.5 21q46 0 80.5 -15t57 -42t32 -64t5.5 -80l-83 -6q1 30 -2.5 55t-15 42.5t-32 27t-52.5 9.5q-30 0 -61.5 -11.5t-56.5 -39.5t-41 -74.5t-16 -116.5q0 -41 9.5 -69.5t25.5 -46t38 -25.5t46 -8q52 0 87.5 27t52.5 82l79 -15q-11 -44 -33 -75
t-51.5 -51.5t-66 -30t-75.5 -9.5z" />
    <glyph glyph-name="c_h" horiz-adv-x="1096" 
d="M247 -12q-54 0 -93.5 16t-64.5 44.5t-37 68.5t-12 88q0 76 21 135.5t58 100.5t88.5 62t112.5 21q46 0 80.5 -15t57 -42t32 -64t5.5 -80l-83 -6q1 30 -2.5 55t-15 42.5t-32 27t-52.5 9.5q-30 0 -61.5 -11.5t-56.5 -39.5t-41 -74.5t-16 -116.5q0 -41 9.5 -69.5t25.5 -46
t38 -25.5t46 -8q52 0 87.5 27t52.5 82l79 -15q-11 -44 -33 -75t-51.5 -51.5t-66 -30t-75.5 -9.5zM643 0h-91l106 755h90l-46 -312q15 13 35.5 27t45 26t52 20t57.5 8q78 0 113 -43.5t23 -132.5l-48 -348h-91l47 338q8 59 -10 84.5t-60 25.5q-49 0 -91 -24.5t-80 -53.5z" />
    <glyph glyph-name="c_k" horiz-adv-x="1035" 
d="M247 -12q-54 0 -93.5 16t-64.5 44.5t-37 68.5t-12 88q0 76 21 135.5t58 100.5t88.5 62t112.5 21q46 0 80.5 -15t57 -42t32 -64t5.5 -80l-83 -6q1 30 -2.5 55t-15 42.5t-32 27t-52.5 9.5q-30 0 -61.5 -11.5t-56.5 -39.5t-41 -74.5t-16 -116.5q0 -41 9.5 -69.5t25.5 -46
t38 -25.5t46 -8q52 0 87.5 27t52.5 82l79 -15q-11 -44 -33 -75t-51.5 -51.5t-66 -30t-75.5 -9.5zM880 0l-120 267l-91 -80l-26 -187h-91l106 755h91l-66 -466l248 225h108l-204 -186l145 -328h-100z" />
    <glyph glyph-name="T_h" horiz-adv-x="1027" 
d="M575 0h-91l92 648h-217l-88 -648h-89l88 648h-212l10 76h517l5 31h91l-46 -312q15 13 35.5 27t45 26t52 20t57.5 8q78 0 113 -43.5t23 -132.5l-49 -348h-91l48 338q8 59 -10 85t-60 26q-24 0 -47 -7t-44 -18t-41 -25t-39 -29z" />
    <glyph glyph-name="commaaccent" horiz-adv-x="500" 
d="M201 -69h97l-92 -171l-66 9z" />
    <glyph glyph-name="revcommaaccent" horiz-adv-x="500" 
d="M380 570h-96l92 172l66 -10z" />
    <glyph glyph-name="caron.alt" horiz-adv-x="499" 
d="M326 755h95l-90 -199l-65 8z" />
    <glyph glyph-name="tilde.cap" horiz-adv-x="499" 
d="M314 900q24 0 42 -7t33.5 -16t30 -16t31.5 -7q18 0 29 11.5t16 40.5l55 -3q-4 -62 -34 -90t-68 -28q-23 0 -41.5 7t-34 16t-31 16t-32.5 7t-28 -11.5t-14 -42.5l-56 2q4 62 34.5 91.5t67.5 29.5z" />
    <glyph glyph-name="ring.cap" horiz-adv-x="500" 
d="M483 848q0 -54 -34 -85.5t-88 -31.5q-44 0 -69 22t-25 62q0 29 10 51t27 36.5t39 22t46 7.5q40 0 67 -20.5t27 -63.5zM367 781q29 0 44 17t15 44q0 40 -44 40q-25 0 -42 -15t-17 -45q0 -41 44 -41z" />
    <glyph glyph-name="circumflex.cap" horiz-adv-x="499" 
d="M454 769l-74 79l-95 -81l-70 9l134 128h79l97 -128z" />
    <glyph glyph-name="acute.cap" horiz-adv-x="500" 
d="M405 913h114l-160 -146l-68 12z" />
    <glyph glyph-name="grave.cap" horiz-adv-x="499" 
d="M364 913l80 -134l-68 -12l-119 146h107z" />
    <glyph glyph-name="dieresis.cap" horiz-adv-x="499" 
d="M208 831q0 32 20.5 50.5t52.5 18.5q25 0 39.5 -14t14.5 -38q0 -32 -20 -50t-51 -18q-26 0 -41 13.5t-15 37.5zM417 831q0 32 20.5 50.5t52.5 18.5q26 0 40 -14t14 -38q0 -32 -20 -50t-50 -18q-26 0 -41.5 13.5t-15.5 37.5z" />
    <glyph glyph-name="caron.cap" horiz-adv-x="500" 
d="M301 906l74 -79l95 81l70 -10l-134 -127h-78l-97 127z" />
    <glyph glyph-name="macron.cap" horiz-adv-x="499" 
d="M218 794l10 69h307l-10 -69h-307z" />
    <glyph glyph-name="dotaccent.cap" horiz-adv-x="500" 
d="M445 854q0 -35 -20 -54.5t-55 -19.5q-27 0 -41.5 14t-14.5 39q0 35 19.5 54.5t54.5 19.5q57 0 57 -53z" />
    <glyph glyph-name="cedilla.cap" horiz-adv-x="500" 
d="M128 -159q8 -5 22.5 -10.5t31.5 -5.5q26 0 40.5 14t14.5 34q0 23 -16 33t-51 11l32 113l56 -8l-19 -66q26 -5 47 -23.5t21 -54.5q0 -52 -34 -79.5t-85 -27.5q-29 0 -48.5 6.5t-30.5 13.5z" />
    <glyph glyph-name="hungarumlaut.cap" horiz-adv-x="500" 
d="M347 913h108l-128 -146l-65 13zM508 917h110l-163 -150l-66 12z" />
    <glyph glyph-name="commaaccent.cap" horiz-adv-x="500" 
d="M201 -69h97l-92 -171l-66 9z" />
    <glyph glyph-name="breve.cap" horiz-adv-x="500" 
d="M378 841q35 0 58 15t37 57l65 -6q-29 -128 -166 -128q-66 0 -98 32t-34 95l69 7q1 -41 17.5 -56.5t51.5 -15.5z" />
    <glyph glyph-name="ogonek.cap" horiz-adv-x="500" 
d="M352 -148q-20 -42 -53.5 -60.5t-68.5 -18.5q-42 0 -68.5 21.5t-26.5 59.5q0 29 12 53.5t31 44.5t42 37.5t46 32.5l56 -15q-23 -20 -43 -37t-34 -33t-22 -32t-8 -35q0 -16 8 -25.5t25 -9.5t30 11t27 31z" />
    <glyph glyph-name="a.sup" horiz-adv-x="408" 
d="M358 419q-2 -14 1 -20.5t15 -6.5q10 0 22 4l-5 -43q-8 -4 -21.5 -6t-25.5 -2q-55 0 -56 45q-21 -22 -51 -35t-64 -13q-50 0 -81.5 30.5t-31.5 98.5q0 45 11 85t33 69.5t53 46.5t72 17q29 0 53 -10.5t40 -24.5l5 29h70zM311 603q-11 11 -31 19.5t-42 8.5q-29 0 -48.5 -15
t-31 -37.5t-16.5 -49.5t-5 -50q0 -43 16.5 -61.5t45.5 -18.5q20 0 42.5 10t45.5 33z" />
    <glyph glyph-name="b.sup" horiz-adv-x="403" 
d="M56 350l71 483h74l-29 -191q19 15 51.5 31t68.5 16q45 0 75 -28.5t30 -97.5q0 -58 -13.5 -99.5t-36 -68.5t-52.5 -40t-62 -13t-57 10.5t-43 27.5h-2l-7 -30h-68zM143 431q10 -8 29 -19t48 -11q27 0 46 12.5t30.5 33.5t17 49t5.5 59q0 76 -56 76q-26 0 -54 -14.5
t-43 -27.5z" />
    <glyph glyph-name="c.sup" horiz-adv-x="370" 
d="M203 342q-75 0 -109.5 39.5t-34.5 101.5q0 99 52.5 152.5t137.5 53.5q64 0 96 -37t27 -95l-67 -5q2 36 -11 58.5t-52 22.5q-18 0 -37 -7t-34 -24t-24.5 -45t-9.5 -70q0 -48 20.5 -68t51.5 -20q32 0 54 17t32 49l63 -11q-15 -59 -58 -85.5t-97 -26.5z" />
    <glyph glyph-name="d.sup" horiz-adv-x="398" 
d="M288 350l1 37h-1q-23 -19 -52 -32t-62 -13q-51 0 -82 30.5t-31 96.5q0 61 15 103t39.5 68t54.5 37.5t60 11.5q31 0 53.5 -9.5t39.5 -23.5l25 177h72l-70 -483h-62zM312 606q-10 8 -28 17t-41 9q-29 0 -49 -13.5t-32.5 -36t-18 -50.5t-5.5 -56q0 -38 15 -55t40 -19
t48.5 7.5t46.5 26.5z" />
    <glyph glyph-name="e.sup" horiz-adv-x="359" 
d="M198 342q-39 0 -65 11.5t-42.5 31.5t-23.5 46.5t-7 55.5q0 43 13 80t37.5 64t59.5 42.5t78 15.5q60 0 87 -25.5t27 -62.5q0 -40 -22.5 -62t-57.5 -34q-19 -6 -39.5 -10t-40 -6.5t-37 -3.5t-29.5 -2q0 -15 2.5 -30.5t10.5 -27.5t22.5 -19.5t38.5 -7.5q34 0 53 17t27 40
l61 -14q-15 -49 -56 -74t-97 -25zM242 637q-45 0 -71.5 -31.5t-32.5 -76.5q6 0 17 0.5t24.5 2t29 4t30.5 7.5q24 7 38.5 20.5t14.5 34.5q0 20 -13.5 29.5t-36.5 9.5z" />
    <glyph glyph-name="f.sup" horiz-adv-x="234" 
d="M306 777q-9 3 -22 6t-26 3q-23 0 -38.5 -11t-20.5 -45l-7 -47h94l-7 -53h-95l-60 -416h-75l60 416h-49l8 53h49l7 49q9 57 41.5 83t83.5 26q24 0 41.5 -4.5t25.5 -8.5z" />
    <glyph glyph-name="g.sup" horiz-adv-x="392" 
d="M235 631q-28 0 -47 -14t-30.5 -35t-16.5 -46t-5 -47q0 -40 15 -58t44 -18q23 0 47.5 10t44.5 29l22 151q-12 11 -32 19.5t-42 8.5zM283 398q-20 -20 -49.5 -32t-62.5 -12q-49 0 -81 31t-32 97q0 35 9 71.5t29 66.5t52 49.5t79 19.5q29 0 53.5 -11t40.5 -26l6 31h67
l-49 -342q-11 -69 -54 -101.5t-114 -32.5q-63 0 -100 27t-41 83l69 12q1 -26 16 -46t56 -20q34 0 61 16t35 60z" />
    <glyph glyph-name="h.sup" horiz-adv-x="399" 
d="M131 350h-75l71 483h75l-31 -193q19 16 54 32.5t73 16.5q51 0 73.5 -28.5t14.5 -85.5l-33 -225h-75l31 215q5 35 -3 50t-34 15q-29 0 -56.5 -14t-49.5 -31z" />
    <glyph glyph-name="i.sup" horiz-adv-x="180" 
d="M131 350h-75l48 333h75zM207 795q0 -26 -15 -40.5t-41 -14.5q-43 0 -43 40q0 26 15 40t41 14q43 0 43 -39z" />
    <glyph glyph-name="j.sup" horiz-adv-x="180" 
d="M104 683h75l-54 -371q-8 -56 -38 -80.5t-80 -24.5q-21 0 -42.5 5t-29.5 10l14 52q10 -4 23 -6.5t27 -2.5q20 0 33.5 10t18.5 40zM207 795q0 -26 -15 -40.5t-41 -14.5q-43 0 -43 40q0 26 15 40t41 14q43 0 43 -39z" />
    <glyph glyph-name="k.sup" horiz-adv-x="368" 
d="M278 350l-76 166l-53 -45l-18 -121h-75l71 483h75l-42 -286l154 136h86l-135 -120l95 -213h-82z" />
    <glyph glyph-name="l.sup" horiz-adv-x="180" 
d="M126 833h75l-70 -483h-75z" />
    <glyph glyph-name="m.sup" horiz-adv-x="586" 
d="M288 689q34 0 52.5 -13.5t25.5 -36.5q24 20 55.5 35t66.5 15q51 0 71.5 -30t12.5 -82l-33 -227h-75l31 224q5 32 -4.5 43.5t-29.5 11.5q-12 0 -25 -4t-25 -10.5t-22 -13.5t-17 -13l-35 -238h-74l31 224q5 33 -5 44t-30 11q-13 0 -26.5 -4.5t-26 -11.5t-23.5 -14t-18 -13
l-34 -236h-75l49 333h68l-5 -45h1q22 18 52.5 34.5t66.5 16.5z" />
    <glyph glyph-name="n.sup" horiz-adv-x="400" 
d="M131 350h-75l49 333h71l-8 -46h1q20 17 52.5 34.5t74.5 17.5q51 0 74.5 -28t15.5 -85l-33 -226h-75l31 216q6 34 -5 49t-36 15q-15 0 -29.5 -4.5t-28 -11t-25.5 -14.5t-20 -14z" />
    <glyph glyph-name="o.sup" horiz-adv-x="397" 
d="M201 342q-75 0 -108.5 37.5t-33.5 106.5q0 40 12.5 77t36.5 65t60.5 44.5t84.5 16.5q74 0 106.5 -40.5t32.5 -103.5q0 -39 -11.5 -76t-35 -65t-59.5 -45t-85 -17zM208 398q42 0 69.5 27t35.5 90q1 11 1.5 20.5t0.5 18.5q0 80 -71 80q-42 0 -70.5 -27.5t-36.5 -89.5
q-2 -9 -2 -18.5v-18.5q0 -43 18.5 -62.5t54.5 -19.5z" />
    <glyph glyph-name="p.sup" horiz-adv-x="403" 
d="M168 640l1 -1q25 21 56 35.5t66 14.5q47 0 76.5 -29t29.5 -98q0 -58 -14 -99.5t-37 -68.5t-53 -39.5t-63 -12.5q-32 0 -57 11t-40 24l-24 -163h-72l69 469h69zM319 555q0 41 -13.5 58.5t-41.5 17.5q-26 0 -54 -14t-44 -28l-23 -159q8 -8 28 -18.5t45 -10.5q30 0 49.5 13
t31.5 35t17 49.5t5 56.5z" />
    <glyph glyph-name="q.sup" horiz-adv-x="397" 
d="M232 689q29 0 52.5 -9.5t39.5 -26.5l6 30h68l-68 -469h-71l26 169q-22 -17 -50.5 -29t-60.5 -12q-51 0 -82 30.5t-31 96.5q0 61 15 103t39.5 68t55 37.5t61.5 11.5zM138 480q0 -37 13.5 -58.5t46.5 -21.5q25 0 49.5 12t40.5 26l24 169q-9 8 -27.5 16.5t-41.5 8.5
q-28 0 -48 -12.5t-32.5 -33.5t-18.5 -48.5t-6 -57.5z" />
    <glyph glyph-name="r.sup" horiz-adv-x="262" 
d="M131 350h-75l49 333h69l-8 -56h1q25 27 50.5 44.5t62.5 17.5h8t8 -1l-10 -71q-34 3 -63.5 -8.5t-58.5 -34.5z" />
    <glyph glyph-name="s.sup" horiz-adv-x="338" 
d="M216 689q62 0 91.5 -28t33.5 -72l-62 -11q-2 26 -16.5 43.5t-49.5 17.5t-49 -13.5t-14 -30.5q0 -18 13 -27t32 -15t42 -11.5t42 -15.5t32 -27.5t13 -46.5q0 -54 -40 -82t-106 -28q-65 0 -97 26t-37 73l63 14q4 -25 19.5 -44t56.5 -19q28 0 49.5 11t21.5 39q0 18 -13 27.5
t-32.5 15.5t-42 11t-42 15t-32.5 27t-13 47q0 27 11.5 47t31 32.5t44 18.5t50.5 6z" />
    <glyph glyph-name="t.sup" horiz-adv-x="272" 
d="M267 364q-15 -8 -40 -15t-50 -7q-53 0 -76.5 27t-15.5 80l27 181h-53l8 53h52l14 95l77 11l-16 -106h94l-7 -53h-94l-26 -176q-4 -25 2.5 -39t34.5 -14q16 0 31.5 4.5t26.5 10.5z" />
    <glyph glyph-name="u.sup" horiz-adv-x="397" 
d="M321 683h74l-48 -333h-64l3 42q-20 -18 -53.5 -33.5t-72.5 -15.5q-52 0 -75 30t-15 87l32 223h75l-31 -229q-4 -31 9 -41.5t34 -10.5q26 0 52 12.5t45 28.5z" />
    <glyph glyph-name="v.sup" horiz-adv-x="352" 
d="M135 350l-76 333h79l50 -264h1l124 264h79l-171 -333h-86z" />
    <glyph glyph-name="w.sup" horiz-adv-x="527" 
d="M112 350l-53 333h74l35 -263h1l107 263h77l32 -261h1l107 261h74l-149 -333h-87l-28 248h-2l-100 -248h-89z" />
    <glyph glyph-name="x.sup" horiz-adv-x="339" 
d="M251 350l-64 120l-94 -120h-75l136 172l-89 161h78l61 -115l90 115h77l-133 -165l91 -168h-78z" />
    <glyph glyph-name="y.sup" horiz-adv-x="341" 
d="M60 683h78l45 -256h1l119 256h78l-181 -354q-18 -34 -32.5 -57.5t-30.5 -37.5t-34.5 -20.5t-43.5 -6.5q-20 0 -37 4t-27 9l14 51q10 -4 22 -6.5t25 -2.5q24 0 40 18.5t39 65.5z" />
    <glyph glyph-name="z.sup" horiz-adv-x="316" 
d="M29 350l7 48l209 232h-174l8 53h257l-7 -49l-206 -228h182l-8 -56h-268z" />
    <glyph glyph-name="minusinferior" horiz-adv-x="382" 
d="M40 44l9 64h245l-10 -64h-244z" />
    <glyph glyph-name="plusinferior" horiz-adv-x="382" 
d="M115 -52l13 90h-88l9 65h89l12 87h69l-14 -87h89l-10 -65h-88l-12 -90h-69z" />
    <glyph glyph-name="equalinferior" horiz-adv-x="382" 
d="M32 -34l9 65h243l-9 -65h-243zM47 75l10 66h244l-10 -66h-244z" />
    <glyph glyph-name="a.sinf" horiz-adv-x="408" 
d="M290 -76q-2 -14 1 -20.5t15 -6.5q10 0 22 4l-5 -43q-8 -4 -21.5 -6t-25.5 -2q-55 0 -56 45q-21 -22 -51 -35t-64 -13q-50 0 -81.5 30.5t-31.5 98.5q0 45 11 85t33 69.5t53 46.5t72 17q29 0 53 -10.5t40 -24.5l5 29h70zM243 108q-11 11 -31 19.5t-42 8.5q-29 0 -48.5 -15
t-31 -37.5t-16.5 -49.5t-5 -50q0 -43 16.5 -61.5t45.5 -18.5q20 0 42.5 10t45.5 33z" />
    <glyph glyph-name="b.sinf" horiz-adv-x="403" 
d="M-12 -145l71 483h74l-29 -191q19 15 51.5 31t68.5 16q45 0 75 -28.5t30 -97.5q0 -58 -13.5 -99.5t-36 -68.5t-52.5 -40t-62 -13t-57 10.5t-43 27.5h-2l-7 -30h-68zM75 -64q10 -8 29 -19t48 -11q27 0 46 12.5t30.5 33.5t17 49t5.5 59q0 76 -56 76q-26 0 -54 -14.5
t-43 -27.5z" />
    <glyph glyph-name="c.sinf" horiz-adv-x="370" 
d="M135 -153q-75 0 -109.5 39.5t-34.5 101.5q0 99 52.5 152.5t137.5 53.5q64 0 96 -37t27 -95l-67 -5q2 36 -11 58.5t-52 22.5q-18 0 -37 -7t-34 -24t-24.5 -45t-9.5 -70q0 -48 20.5 -68t51.5 -20q32 0 54 17t32 49l63 -11q-15 -59 -58 -85.5t-97 -26.5z" />
    <glyph glyph-name="d.sinf" horiz-adv-x="398" 
d="M220 -145l1 37h-1q-23 -19 -52 -32t-62 -13q-51 0 -82 30.5t-31 96.5q0 61 15 103t39.5 68t54.5 37.5t60 11.5q31 0 53.5 -9.5t39.5 -23.5l25 177h72l-70 -483h-62zM244 111q-10 8 -28 17t-41 9q-29 0 -49 -13.5t-32.5 -36t-18 -50.5t-5.5 -56q0 -38 15 -55t40 -19
t48.5 7.5t46.5 26.5z" />
    <glyph glyph-name="e.sinf" horiz-adv-x="359" 
d="M130 -153q-39 0 -65 11.5t-42.5 31.5t-23.5 46.5t-7 55.5q0 43 13 80t37.5 64t59.5 42.5t78 15.5q60 0 87 -25.5t27 -62.5q0 -40 -22.5 -62t-57.5 -34q-19 -6 -39.5 -10t-40 -6.5t-37 -3.5t-29.5 -2q0 -15 2.5 -30.5t10.5 -27.5t22.5 -19.5t38.5 -7.5q34 0 53 17t27 40
l61 -14q-15 -49 -56 -74t-97 -25zM174 142q-45 0 -71.5 -31.5t-32.5 -76.5q6 0 17 0.5t24.5 2t29 4t30.5 7.5q24 7 38.5 20.5t14.5 34.5q0 20 -13.5 29.5t-36.5 9.5z" />
    <glyph glyph-name="f.sinf" horiz-adv-x="234" 
d="M238 282q-9 3 -22 6t-26 3q-23 0 -38.5 -11t-20.5 -45l-7 -47h94l-7 -53h-95l-60 -416h-75l60 416h-49l8 53h49l7 49q9 57 41.5 83t83.5 26q24 0 41.5 -4.5t25.5 -8.5z" />
    <glyph glyph-name="g.sinf" horiz-adv-x="392" 
d="M167 136q-28 0 -47 -14t-30.5 -35t-16.5 -46t-5 -47q0 -40 15 -58t44 -18q23 0 47.5 10t44.5 29l22 151q-12 11 -32 19.5t-42 8.5zM215 -97q-20 -20 -49.5 -32t-62.5 -12q-49 0 -81 31t-32 97q0 35 9 71.5t29 66.5t52 49.5t79 19.5q29 0 53.5 -11t40.5 -26l6 31h67
l-49 -342q-11 -69 -54 -101.5t-114 -32.5q-63 0 -100 27t-41 83l69 12q1 -26 16 -46t56 -20q34 0 61 16t35 60z" />
    <glyph glyph-name="h.sinf" horiz-adv-x="399" 
d="M63 -145h-75l71 483h75l-31 -193q19 16 54 32.5t73 16.5q51 0 73.5 -28.5t14.5 -85.5l-33 -225h-75l31 215q5 35 -3 50t-34 15q-29 0 -56.5 -14t-49.5 -31z" />
    <glyph glyph-name="i.sinf" horiz-adv-x="180" 
d="M63 -145h-75l48 333h75zM139 300q0 -26 -15 -40.5t-41 -14.5q-43 0 -43 40q0 26 15 40t41 14q43 0 43 -39z" />
    <glyph glyph-name="j.sinf" horiz-adv-x="180" 
d="M36 188h75l-54 -371q-8 -56 -38 -80.5t-80 -24.5q-21 0 -42.5 5t-29.5 10l14 52q10 -4 23 -6.5t27 -2.5q20 0 33.5 10t18.5 40zM139 300q0 -26 -15 -40.5t-41 -14.5q-43 0 -43 40q0 26 15 40t41 14q43 0 43 -39z" />
    <glyph glyph-name="k.sinf" horiz-adv-x="368" 
d="M210 -145l-76 166l-53 -45l-18 -121h-75l71 483h75l-42 -286l154 136h86l-135 -120l95 -213h-82z" />
    <glyph glyph-name="l.sinf" horiz-adv-x="180" 
d="M58 338h75l-70 -483h-75z" />
    <glyph glyph-name="m.sinf" horiz-adv-x="586" 
d="M220 194q34 0 52.5 -13.5t25.5 -36.5q24 20 55.5 35t66.5 15q51 0 71.5 -30t12.5 -82l-33 -227h-75l31 224q5 32 -4.5 43.5t-29.5 11.5q-12 0 -25 -4t-25 -10.5t-22 -13.5t-17 -13l-35 -238h-74l31 224q5 33 -5 44t-30 11q-13 0 -26.5 -4.5t-26 -11.5t-23.5 -14t-18 -13
l-34 -236h-75l49 333h68l-5 -45h1q22 18 52.5 34.5t66.5 16.5z" />
    <glyph glyph-name="n.sinf" horiz-adv-x="400" 
d="M63 -145h-75l49 333h71l-8 -46h1q20 17 52.5 34.5t74.5 17.5q51 0 74.5 -28t15.5 -85l-33 -226h-75l31 216q6 34 -5 49t-36 15q-15 0 -29.5 -4.5t-28 -11t-25.5 -14.5t-20 -14z" />
    <glyph glyph-name="o.sinf" horiz-adv-x="397" 
d="M133 -153q-75 0 -108.5 37.5t-33.5 106.5q0 40 12.5 77t36.5 65t60.5 44.5t84.5 16.5q74 0 106.5 -40.5t32.5 -103.5q0 -39 -11.5 -76t-35 -65t-59.5 -45t-85 -17zM140 -97q42 0 69.5 27t35.5 90q1 11 1.5 20.5t0.5 18.5q0 80 -71 80q-42 0 -70.5 -27.5t-36.5 -89.5
q-2 -9 -2 -18.5v-18.5q0 -43 18.5 -62.5t54.5 -19.5z" />
    <glyph glyph-name="p.sinf" horiz-adv-x="403" 
d="M100 145l1 -1q25 21 56 35.5t66 14.5q47 0 76.5 -29t29.5 -98q0 -58 -14 -99.5t-37 -68.5t-53 -39.5t-63 -12.5q-32 0 -57 11t-40 24l-24 -163h-72l69 469h69zM251 60q0 41 -13.5 58.5t-41.5 17.5q-26 0 -54 -14t-44 -28l-23 -159q8 -8 28 -18.5t45 -10.5q30 0 49.5 13
t31.5 35t17 49.5t5 56.5z" />
    <glyph glyph-name="q.sinf" horiz-adv-x="397" 
d="M164 194q29 0 52.5 -9.5t39.5 -26.5l6 30h68l-68 -469h-71l26 169q-22 -17 -50.5 -29t-60.5 -12q-51 0 -82 30.5t-31 96.5q0 61 15 103t39.5 68t55 37.5t61.5 11.5zM70 -15q0 -37 13.5 -58.5t46.5 -21.5q25 0 49.5 12t40.5 26l24 169q-9 8 -27.5 16.5t-41.5 8.5
q-28 0 -48 -12.5t-32.5 -33.5t-18.5 -48.5t-6 -57.5z" />
    <glyph glyph-name="r.sinf" horiz-adv-x="262" 
d="M63 -145h-75l49 333h69l-8 -56h1q25 27 50.5 44.5t62.5 17.5h8t8 -1l-10 -71q-34 3 -63.5 -8.5t-58.5 -34.5z" />
    <glyph glyph-name="s.sinf" horiz-adv-x="338" 
d="M148 194q62 0 91.5 -28t33.5 -72l-62 -11q-2 26 -16.5 43.5t-49.5 17.5t-49 -13.5t-14 -30.5q0 -18 13 -27t32 -15t42 -11.5t42 -15.5t32 -27.5t13 -46.5q0 -54 -40 -82t-106 -28q-65 0 -97 26t-37 73l63 14q4 -25 19.5 -44t56.5 -19q28 0 49.5 11t21.5 39q0 18 -13 27.5
t-32.5 15.5t-42 11t-42 15t-32.5 27t-13 47q0 27 11.5 47t31 32.5t44 18.5t50.5 6z" />
    <glyph glyph-name="t.sinf" horiz-adv-x="272" 
d="M199 -131q-15 -8 -40 -15t-50 -7q-53 0 -76.5 27t-15.5 80l27 181h-53l8 53h52l14 95l77 11l-16 -106h94l-7 -53h-94l-26 -176q-4 -25 2.5 -39t34.5 -14q16 0 31.5 4.5t26.5 10.5z" />
    <glyph glyph-name="u.sinf" horiz-adv-x="397" 
d="M253 188h74l-48 -333h-64l3 42q-20 -18 -53.5 -33.5t-72.5 -15.5q-52 0 -75 30t-15 87l32 223h75l-31 -229q-4 -31 9 -41.5t34 -10.5q26 0 52 12.5t45 28.5z" />
    <glyph glyph-name="v.sinf" horiz-adv-x="352" 
d="M67 -145l-76 333h79l50 -264h1l124 264h79l-171 -333h-86z" />
    <glyph glyph-name="w.sinf" horiz-adv-x="527" 
d="M44 -145l-53 333h74l35 -263h1l107 263h77l32 -261h1l107 261h74l-149 -333h-87l-28 248h-2l-100 -248h-89z" />
    <glyph glyph-name="x.sinf" horiz-adv-x="339" 
d="M183 -145l-64 120l-94 -120h-75l136 172l-89 161h78l61 -115l90 115h77l-133 -165l91 -168h-78z" />
    <glyph glyph-name="y.sinf" horiz-adv-x="341" 
d="M-8 188h78l45 -256h1l119 256h78l-181 -354q-18 -34 -32.5 -57.5t-30.5 -37.5t-34.5 -20.5t-43.5 -6.5q-20 0 -37 4t-27 9l14 51q10 -4 22 -6.5t25 -2.5q24 0 40 18.5t39 65.5z" />
    <glyph glyph-name="z.sinf" horiz-adv-x="316" 
d="M-39 -145l7 48l209 232h-174l8 53h257l-7 -49l-206 -228h182l-8 -56h-268z" />
    <glyph glyph-name="zero.num" horiz-adv-x="399" 
d="M193 275q-77 0 -107 43.5t-30 119.5q0 43 8 95t30 97t61.5 75t102.5 30q37 0 62 -11t41 -31.5t23 -49.5t7 -65q0 -45 -7.5 -97.5t-28.5 -98.5t-60 -76.5t-102 -30.5zM198 335q34 0 55 24t32 60.5t15.5 79.5t5.5 80q0 18 -2 35t-8 30t-17 21t-29 8q-35 0 -55.5 -23.5
t-32.5 -59.5t-16.5 -78t-5.5 -79q0 -16 1 -33.5t7 -31.5t17.5 -23.5t32.5 -9.5z" />
    <glyph glyph-name="one.num" horiz-adv-x="304" 
d="M129 284l51 346q-9 -4 -23 -7.5t-29 -6t-28.5 -4t-21.5 -1.5v65q91 6 144 52h53l-65 -444h-81z" />
    <glyph glyph-name="two.num" horiz-adv-x="360" 
d="M26 282l10 66l121 118q34 33 56.5 56t35.5 40.5t18 32t5 31.5q0 47 -54 47q-58 0 -80 -70l-71 12q7 32 22.5 54.5t37.5 37t48.5 21.5t55.5 7q60 0 92 -26.5t32 -75.5q0 -26 -7 -47t-22 -42.5t-39 -45.5t-57 -54l-98 -93l1 -1h188l-10 -68h-285z" />
    <glyph glyph-name="three.num" horiz-adv-x="379" 
d="M241 735q59 0 91.5 -25t32.5 -71q0 -25 -9.5 -45t-24.5 -34.5t-33.5 -24t-37.5 -14.5v-2q38 -8 60.5 -30.5t22.5 -64.5q0 -69 -45 -109t-124 -40q-58 0 -96 24.5t-42 84.5l73 13q1 -24 14.5 -43t52.5 -19q16 0 31 5t27 15.5t19 26.5t7 39q0 35 -20.5 49t-54.5 14h-43
l8 58h30q48 0 75.5 23.5t27.5 61.5q0 20 -12 34t-41 14q-34 0 -51 -15.5t-28 -44.5l-71 13q19 60 61.5 83.5t99.5 23.5z" />
    <glyph glyph-name="four.num" horiz-adv-x="384" 
d="M229 282l16 103h-210l8 56l229 286h102l-41 -277h53l-9 -65h-53l-15 -103h-80zM254 450l32 207l-168 -207h136z" />
    <glyph glyph-name="five.num" horiz-adv-x="377" 
d="M177 659l-30 -124q18 13 41 21.5t52 8.5q22 0 42 -6.5t35 -20.5t23.5 -36t8.5 -53q0 -41 -12.5 -73t-36 -54.5t-56 -34.5t-71.5 -12q-57 0 -96 27t-44 85l72 15q1 -11 5 -22.5t12 -20.5t21 -15t32 -6q18 0 35 5.5t29.5 18t20.5 32t8 47.5q0 34 -17 49.5t-44 15.5
q-23 0 -43 -9t-37 -23l-50 21l51 232h235l-10 -68h-176z" />
    <glyph glyph-name="six.num" horiz-adv-x="385" 
d="M319 612q-3 35 -16.5 49t-37.5 14q-25 0 -45 -13.5t-34.5 -36t-24 -52.5t-14.5 -63q18 15 48 29t64 14q50 0 79 -28t29 -79q0 -42 -13 -74.5t-36 -54t-53.5 -32.5t-64.5 -11q-40 0 -66.5 12.5t-42.5 34t-23 51.5t-7 66q0 26 3.5 58t13 64.5t25 64t39.5 55.5t57 39t78 15
t78 -25t37 -80zM144 455q-2 -10 -2 -19v-18q0 -17 2.5 -32t9.5 -27t19 -19t30 -7q33 0 57.5 26t24.5 77q0 28 -13.5 43.5t-40.5 15.5q-23 0 -46.5 -11.5t-40.5 -28.5z" />
    <glyph glyph-name="seven.num" horiz-adv-x="343" 
d="M33 282l236 377h-213l11 68h299l-9 -61l-237 -384h-87z" />
    <glyph glyph-name="eight.num" horiz-adv-x="364" 
d="M273 519q33 -16 57 -38t24 -63q0 -30 -12.5 -56t-35.5 -45.5t-57 -30.5t-77 -11q-72 0 -108.5 29t-36.5 76q0 26 9 46t24.5 36t36.5 27.5t44 19.5q-29 16 -46.5 39t-17.5 55q0 33 13.5 57.5t36 41t53 25t65.5 8.5q61 0 96 -24.5t35 -67.5q0 -44 -30 -74t-73 -50zM189 480
q-39 -16 -60.5 -36t-21.5 -54q0 -23 18 -38.5t54 -15.5q44 0 67.5 21t23.5 50q0 16 -7 27.5t-18.5 19.5t-26 14.5t-29.5 11.5zM223 542q31 16 54 40t23 51q0 22 -16 35t-47 13q-35 0 -57 -18t-22 -46q0 -26 18.5 -44.5t46.5 -30.5z" />
    <glyph glyph-name="nine.num" horiz-adv-x="388" 
d="M106 398q3 -27 17.5 -44t46.5 -17q51 0 80.5 43t37.5 115q-17 -16 -49.5 -29t-67.5 -13q-49 0 -78 29.5t-29 83.5q0 42 13.5 73.5t36.5 53t53.5 32t65.5 10.5q37 0 63.5 -12.5t42.5 -34.5t23.5 -52t7.5 -66q0 -62 -11.5 -116t-36.5 -93.5t-63.5 -62.5t-93.5 -23
q-53 0 -89.5 25.5t-43.5 79.5zM287 550q3 21 3 40q0 33 -12 59t-48 26q-35 0 -59.5 -26t-24.5 -75q0 -64 53 -64q23 0 47.5 12t40.5 28z" />
    <glyph glyph-name="parenleft.ordn" horiz-adv-x="243" 
d="M122 209q-23 40 -41 96.5t-18 122.5q0 49 11.5 93t30.5 83.5t44 75t53 68.5h90q-31 -38 -57 -74t-45 -74.5t-29.5 -80.5t-10.5 -91q0 -66 16.5 -119.5t39.5 -99.5h-84z" />
    <glyph glyph-name="parenright.ordn" horiz-adv-x="243" 
d="M166 747q23 -41 41 -97t18 -122q0 -50 -11.5 -94t-30.5 -83.5t-44 -74.5t-53 -68h-90q31 37 57 73.5t45 74.5t29.5 80.5t10.5 91.5q0 65 -16.5 119t-39.5 100h84z" />
    <glyph glyph-name="hyphen.ordn" horiz-adv-x="223" 
d="M39 433l9 68h173l-9 -68h-173z" />
    <glyph glyph-name="comma.ordn" horiz-adv-x="197" 
d="M84 358h88l-83 -157l-65 7z" />
    <glyph glyph-name="period.ordn" horiz-adv-x="200" 
d="M165 331q0 -57 -61 -57q-48 0 -48 40q0 27 15.5 42.5t46.5 15.5q47 0 47 -41z" />
    <glyph glyph-name="minus.ordn" horiz-adv-x="382" 
d="M90 472l9 64h245l-10 -64h-244z" />
    <glyph glyph-name="plus.ordn" horiz-adv-x="382" 
d="M160 376l13 90h-88l9 65h89l12 87h69l-14 -87h89l-10 -65h-88l-12 -90h-69z" />
    <glyph glyph-name="equal.ordn" horiz-adv-x="382" 
d="M77 394l9 65h243l-9 -65h-243zM92 503l10 66h244l-10 -66h-244z" />
    </font>
</defs>
</svg>
