<?xml version="1.0" standalone="no"?>
<!DOCTYPE svg PUBLIC "-//W3C//DTD SVG 1.1//EN" "http://www.w3.org/Graphics/SVG/1.1/DTD/svg11.dtd" >
<svg xmlns="http://www.w3.org/2000/svg" xmlns:xlink="http://www.w3.org/1999/xlink" version="1.1">
<metadata>
Created by FontForge 20161003 at Wed Jan 16 19:44:25 2019
 By www-data
Copyright (c) 2010 by TypeTogether. All rights reserved.
</metadata>
<defs>
<font id="AdelleSage" horiz-adv-x="570" >
  <font-face 
    font-family="AdelleSage"
    font-weight="400"
    font-stretch="normal"
    units-per-em="1000"
    panose-1="2 0 5 3 6 0 0 2 0 4"
    ascent="755"
    descent="-245"
    x-height="514"
    cap-height="724"
    bbox="-137 -291 1282 1085"
    underline-thickness="50"
    underline-position="-150"
    unicode-range="U+0020-FB06"
  />
<missing-glyph horiz-adv-x="500" 
 />
    <glyph glyph-name="ff" unicode="ff" horiz-adv-x="739" 
d="M211 82q0 -12 2 -15.5t13 -4.5l86 -8v-54h-272v55l64 7q11 1 13.5 5t2.5 15v353q0 5 -1 7.5t-7 2.5h-72v69h80v74q0 78 51.5 120.5t160.5 42.5q98 0 148 -48q45 63 156 63q30 0 57.5 -4.5t47.5 -17.5t32 -36.5t12 -60.5l-85 -12q0 40 -17 51.5t-52 11.5q-27 0 -44.5 -7.5
t-27 -21t-13 -33t-3.5 -43.5v-69q0 -5 1 -7.5t7 -2.5h164v-69h-172v-362q0 -12 2.5 -15.5t13.5 -4.5l117 -9v-54h-294v53l54 6q11 1 13.5 5t2.5 15v356q0 5 -1 7.5t-7 2.5h-233v-363zM452 593q0 20 -6 36.5t-20 28t-37.5 18t-59.5 6.5q-69 0 -93.5 -27t-24.5 -73v-58
q0 -5 1 -7.5t7 -2.5h233v79z" />
    <glyph glyph-name="fi" unicode="fi" horiz-adv-x="641" 
d="M370 0v55l66 6q11 1 13.5 5t2.5 15v349q0 8 -2.5 11.5t-11.5 3.5h-227v-362q0 -13 2.5 -15.5t13.5 -4.5l79 -9v-54h-266v54l62 9q10 2 14 5t4 15v352q0 5 -1 7.5t-7 2.5h-72v69h80v75q0 47 12 80.5t39 55t70.5 31.5t106.5 10q39 0 72.5 -3t58 -15t39 -36.5t16.5 -68.5
l-86 -11q-1 23 -5.5 36t-16 20t-31.5 8.5t-51 1.5q-42 0 -68 -6t-40.5 -19t-19.5 -32.5t-5 -47.5v-68q0 -11 10 -11h322v-433q0 -12 2.5 -15t13.5 -5l64 -7v-54h-253z" />
    <glyph glyph-name="fl" unicode="fl" horiz-adv-x="641" 
d="M374 0v55l62 6q11 1 13.5 5t2.5 15v544q0 26 -6 40.5t-19.5 22t-34 9t-48.5 1.5q-42 0 -68 -6t-40.5 -19t-19.5 -32.5t-5 -47.5v-68q0 -11 10 -11h147v-69h-157v-362q0 -13 2.5 -15.5t13.5 -4.5l79 -9v-54h-266v54l62 9q10 2 14 5t4 15v352q0 5 -1 7.5t-7 2.5h-72v69h80
v75q0 47 12 80.5t39 55t70.5 31.5t106.5 10q42 0 78 -3t62 -16.5t40.5 -40t14.5 -72.5v-553q0 -12 2.5 -15t13.5 -5l60 -7v-54h-245z" />
    <glyph glyph-name="ffi" unicode="ffi" horiz-adv-x="973" 
d="M702 0v55l66 6q11 1 13.5 5t2.5 15v349q0 8 -2.5 11.5t-11.5 3.5h-227v-362q0 -13 2.5 -15.5t13.5 -4.5l79 -9v-54h-266v54l62 9q10 2 14 5t4 15v352q0 5 -1 7.5t-7 2.5h-233v-363q0 -12 2 -15.5t13 -4.5l86 -8v-54h-272v55l64 7q11 1 13.5 5t2.5 15v353q0 5 -1 7.5
t-7 2.5h-72v69h80v74q0 78 51 120.5t156 42.5q54 0 92 -13t61 -36q48 64 200 64q39 0 72.5 -3t58 -15t39 -36.5t16.5 -68.5l-86 -11q-1 23 -5.5 36t-16 20t-31.5 8.5t-51 1.5q-42 0 -68 -6t-40.5 -19t-19.5 -32.5t-5 -47.5v-68q0 -11 10 -11h322v-433q0 -12 2.5 -15t13.5 -5
l64 -7v-54h-253zM452 589q0 46 -26 69.5t-97 23.5q-69 0 -93.5 -27t-24.5 -73v-58q0 -5 1 -7.5t7 -2.5h233v75z" />
    <glyph glyph-name="ffl" unicode="ffl" horiz-adv-x="973" 
d="M706 0v55l62 6q11 1 13.5 5t2.5 15v544q0 26 -6 40.5t-19.5 22t-34 9t-48.5 1.5q-42 0 -68 -6t-40.5 -19t-19.5 -32.5t-5 -47.5v-68q0 -11 10 -11h147v-69h-157v-362q0 -13 2.5 -15.5t13.5 -4.5l79 -9v-54h-266v54l62 9q10 2 14 5t4 15v352q0 5 -1 7.5t-7 2.5h-233v-363
q0 -12 2 -15.5t13 -4.5l86 -8v-54h-272v55l64 7q11 1 13.5 5t2.5 15v353q0 5 -1 7.5t-7 2.5h-72v69h80v74q0 78 51 120.5t156 42.5q54 0 91.5 -13t61.5 -36q27 35 74.5 49.5t125.5 14.5q42 0 78 -3t62 -16.5t40.5 -40t14.5 -72.5v-553q0 -12 2.5 -15t13.5 -5l60 -7v-54h-245
zM452 589q0 44 -26 68.5t-97 24.5q-69 0 -93.5 -27t-24.5 -73v-58q0 -5 1 -7.5t7 -2.5h233v75z" />
    <glyph glyph-name="f_k" unicode="fk" horiz-adv-x="935" 
d="M543 274l212 240h111v-54l-57 -12q-9 -2 -13.5 -4.5t-11.5 -10.5l-91 -102l152 -252q6 -9 11 -11.5t18 -4.5l52 -9v-54h-237v54l63 8l-125 207l-84 -94v-94q0 -12 2.5 -15t13.5 -5l60 -7v-54h-245v55l62 6q11 1 13.5 5t2.5 15v544q0 26 -6 40.5t-19.5 22t-34 9t-48.5 1.5
q-42 0 -68 -6t-40.5 -19t-19.5 -32.5t-5 -47.5v-68q0 -11 10 -11h147v-69h-157v-362q0 -13 2.5 -15.5t13.5 -4.5l79 -9v-54h-266v54l62 9q10 2 14 5t4 15v352q0 5 -1 7.5t-7 2.5h-72v69h80v75q0 47 12 80.5t39 55t70.5 31.5t106.5 10q42 0 78 -3t62 -16.5t40.5 -40
t14.5 -72.5v-360z" />
    <glyph glyph-name="f_b" unicode="fb" horiz-adv-x="946" 
d="M543 466q35 23 76.5 40.5t94.5 17.5q42 0 77 -14t59.5 -44t38.5 -77t14 -113q0 -77 -15.5 -132t-43 -89.5t-66.5 -50.5t-86 -16q-91 0 -154 60h-4l-5 -48h-89q5 28 8.5 67.5t3.5 75.5v482q0 26 -6 40.5t-19.5 22t-34 9t-48.5 1.5q-42 0 -68 -6t-40.5 -19t-19.5 -32.5
t-5 -47.5v-68q0 -11 10 -11h147v-69h-157v-362q0 -13 2.5 -15.5t13.5 -4.5l79 -9v-54h-266v54l62 9q10 2 14 5t4 15v352q0 5 -1 7.5t-7 2.5h-72v69h80v75q0 47 12 80.5t39 55t70.5 31.5t106.5 10q42 0 78 -3t62 -16.5t40.5 -40t14.5 -72.5v-168zM543 128q24 -23 60 -44
t77 -21q70 0 100.5 55t30.5 150q0 97 -34 138.5t-87 41.5q-44 0 -82.5 -18.5t-64.5 -37.5v-264z" />
    <glyph glyph-name="f_h" unicode="fh" horiz-adv-x="974" 
d="M543 458q35 25 79 45.5t101 20.5q81 0 117.5 -48.5t36.5 -133.5v-261q0 -12 2.5 -15t13.5 -5l57 -7v-54h-230v55l48 6q18 1 18 20v233q0 28 -3 52t-12 42t-25.5 28.5t-43.5 10.5q-23 0 -45 -6t-42 -15t-38 -20.5t-33 -23.5v-301q0 -12 2.5 -15t13.5 -5l56 -7v-54h-229v55
l50 6q11 2 13 5.5t2 14.5v544q0 26 -6 40.5t-19.5 22t-34 9t-48.5 1.5q-42 0 -68 -6t-40.5 -19t-19.5 -32.5t-5 -47.5v-68q0 -11 10 -11h147v-69h-157v-362q0 -13 2.5 -15.5t13.5 -4.5l79 -9v-54h-266v54l62 9q10 2 14 5t4 15v352q0 5 -1 7.5t-7 2.5h-72v69h80v75
q0 47 12 80.5t39 55t70.5 31.5t106.5 10q42 0 78 -3t62 -16.5t40.5 -40t14.5 -72.5v-176z" />
    <glyph glyph-name="f_t" unicode="ft" horiz-adv-x="757" 
d="M730 19q-30 -12 -65.5 -21.5t-73.5 -9.5q-72 0 -105.5 33.5t-33.5 101.5v312q0 5 -1 7.5t-7 2.5h-233v-362q0 -13 2.5 -15.5t13.5 -4.5l79 -9v-54h-266v54l62 9q10 2 14 5t4 15v352q0 5 -1 7.5t-7 2.5h-72v69h80v75q0 47 12 80.5t39 55t70.5 31.5t106.5 10q39 0 72.5 -3
t58 -15t39 -36.5t16.5 -68.5l-86 -11q-1 23 -5.5 36t-16 20t-31.5 8.5t-51 1.5q-42 0 -68 -6t-40.5 -19t-19.5 -32.5t-5 -47.5v-68q0 -11 10 -11h231v72h91v-62q0 -5 1 -7.5t7 -2.5h147v-69h-155v-295q0 -48 14.5 -67.5t57.5 -19.5q23 0 48 6t45 14z" />
    <glyph glyph-name="f_j" unicode="fj" horiz-adv-x="633" 
d="M452 430q0 8 -2.5 11.5t-11.5 3.5h-227v-362q0 -13 2.5 -15.5t13.5 -4.5l79 -9v-54h-266v54l62 9q10 2 14 5t4 15v352q0 5 -1 7.5t-7 2.5h-72v69h80v75q0 47 12 80.5t39 55t70.5 31.5t106.5 10q39 0 72.5 -3t58 -15t39 -36.5t16.5 -68.5l-86 -11q-1 23 -5.5 36t-16 20
t-31.5 8.5t-51 1.5q-42 0 -68 -6t-40.5 -19t-19.5 -32.5t-5 -47.5v-68q0 -11 10 -11h322v-579q0 -81 -35 -119.5t-109 -38.5q-47 0 -84.5 13.5t-55.5 28.5l36 59q13 -10 37.5 -19.5t52.5 -9.5q40 0 53.5 25t13.5 79v477z" />
    <glyph glyph-name="f_f_j" unicode="ffj" horiz-adv-x="965" 
d="M784 430q0 8 -2.5 11.5t-11.5 3.5h-227v-362q0 -13 2.5 -15.5t13.5 -4.5l79 -9v-54h-266v54l62 9q10 2 14 5t4 15v352q0 5 -1 7.5t-7 2.5h-233v-363q0 -12 2 -15.5t13 -4.5l86 -8v-54h-272v55l64 7q11 1 13.5 5t2.5 15v353q0 5 -1 7.5t-7 2.5h-72v69h80v74q0 78 51 120.5
t156 42.5q54 0 91.5 -13.5t61.5 -36.5q26 35 74 50t126 15q39 0 72.5 -3t58 -15t39 -36.5t16.5 -68.5l-86 -11q-1 23 -5.5 36t-16 20t-31.5 8.5t-51 1.5q-42 0 -68 -6t-40.5 -19t-19.5 -32.5t-5 -47.5v-68q0 -11 10 -11h322v-579q0 -81 -35 -119.5t-109 -38.5
q-47 0 -84.5 13.5t-55.5 28.5l36 59q13 -10 37.5 -19.5t52.5 -9.5q40 0 53.5 25t13.5 79v477zM452 589q0 42 -26 67.5t-97 25.5q-69 0 -93.5 -27t-24.5 -73v-58q0 -5 1 -7.5t7 -2.5h233v75z" />
    <glyph glyph-name="f_f_k" unicode="ffk" horiz-adv-x="1267" 
d="M875 274l212 240h111v-54l-57 -12q-9 -2 -13.5 -4.5t-11.5 -10.5l-91 -102l152 -252q6 -9 11 -11.5t18 -4.5l52 -9v-54h-237v54l63 8l-125 207l-84 -94v-94q0 -12 2.5 -15t13.5 -5l60 -7v-54h-245v55l62 6q11 1 13.5 5t2.5 15v544q0 26 -6 40.5t-19.5 22t-34 9t-48.5 1.5
q-42 0 -68 -6t-40.5 -19t-19.5 -32.5t-5 -47.5v-68q0 -11 10 -11h147v-69h-157v-362q0 -13 2.5 -15.5t13.5 -4.5l79 -9v-54h-266v54l62 9q10 2 14 5t4 15v352q0 5 -1 7.5t-7 2.5h-233v-363q0 -12 2 -15.5t13 -4.5l86 -8v-54h-272v55l64 7q11 1 13.5 5t2.5 15v353q0 5 -1 7.5
t-7 2.5h-72v69h80v74q0 78 51.5 120.5t157.5 42.5q56 0 92.5 -13.5t58.5 -37.5q28 38 75 52t125 14q42 0 78 -3t62 -16.5t40.5 -40t14.5 -72.5v-360zM452 514v73q0 49 -26 72t-97 23q-69 0 -93.5 -27t-24.5 -73v-58q0 -5 1 -7.5t7 -2.5h233z" />
    <glyph glyph-name="f_f_b" unicode="ffb" horiz-adv-x="1278" 
d="M875 466q35 23 76.5 40.5t94.5 17.5q42 0 77 -14t59.5 -44t38.5 -77t14 -113q0 -77 -15.5 -132t-43 -89.5t-66.5 -50.5t-86 -16q-91 0 -154 60h-4l-5 -48h-89q5 28 8.5 67.5t3.5 75.5v482q0 26 -6 40.5t-19.5 22t-34 9t-48.5 1.5q-42 0 -68 -6t-40.5 -19t-19.5 -32.5
t-5 -47.5v-68q0 -11 10 -11h147v-69h-157v-362q0 -13 2.5 -15.5t13.5 -4.5l79 -9v-54h-266v54l62 9q10 2 14 5t4 15v352q0 5 -1 7.5t-7 2.5h-233v-363q0 -12 2 -15.5t13 -4.5l86 -8v-54h-272v55l64 7q11 1 13.5 5t2.5 15v353q0 5 -1 7.5t-7 2.5h-72v69h80v74
q0 78 51.5 120.5t160.5 42.5q51 0 88 -13.5t60 -36.5q26 36 74 50.5t126 14.5q42 0 78 -3t62 -16.5t40.5 -40t14.5 -72.5v-168zM875 128q24 -23 60 -44t77 -21q70 0 100.5 55t30.5 150q0 97 -34 138.5t-87 41.5q-44 0 -82.5 -18.5t-64.5 -37.5v-264zM452 589q0 22 -5.5 39.5
t-19.5 29.5t-38 18t-60 6q-69 0 -93.5 -27t-24.5 -73v-58q0 -5 1 -7.5t7 -2.5h233v75z" />
    <glyph glyph-name="f_f_h" unicode="ffh" horiz-adv-x="1307" 
d="M875 458q35 25 79 45.5t101 20.5q81 0 117.5 -48.5t36.5 -133.5v-261q0 -12 2.5 -15t13.5 -5l57 -7v-54h-230v55l48 6q18 1 18 20v233q0 28 -3 52t-12 42t-25.5 28.5t-43.5 10.5q-23 0 -45 -6t-42 -15t-38 -20.5t-33 -23.5v-301q0 -12 2.5 -15t13.5 -5l56 -7v-54h-229v55
l50 6q11 2 13 5.5t2 14.5v544q0 26 -6 40.5t-19.5 22t-34 9t-48.5 1.5q-42 0 -68 -6t-40.5 -19t-19.5 -32.5t-5 -47.5v-68q0 -11 10 -11h147v-69h-157v-362q0 -13 2.5 -15.5t13.5 -4.5l79 -9v-54h-266v54l62 9q10 2 14 5t4 15v352q0 5 -1 7.5t-7 2.5h-233v-363
q0 -12 2 -15.5t13 -4.5l86 -8v-54h-272v55l64 7q11 1 13.5 5t2.5 15v353q0 5 -1 7.5t-7 2.5h-72v69h80v74q0 78 51 120.5t156 42.5q59 0 96 -14t56 -37q29 37 76 51.5t125 14.5q42 0 78 -3t62 -16.5t40.5 -40t14.5 -72.5v-176zM452 585q0 23 -6 41t-20 30.5t-37.5 19
t-59.5 6.5q-69 0 -93.5 -27t-24.5 -73v-58q0 -5 1 -7.5t7 -2.5h233v71z" />
    <glyph glyph-name="f_f_t" unicode="fft" horiz-adv-x="1089" 
d="M1062 19q-30 -12 -65.5 -21.5t-73.5 -9.5q-72 0 -105.5 33.5t-33.5 101.5v312q0 5 -1 7.5t-7 2.5h-233v-362q0 -13 2.5 -15.5t13.5 -4.5l79 -9v-54h-266v54l62 9q10 2 14 5t4 15v352q0 5 -1 7.5t-7 2.5h-233v-363q0 -12 2 -15.5t13 -4.5l86 -8v-54h-272v55l64 7
q11 1 13.5 5t2.5 15v353q0 5 -1 7.5t-7 2.5h-72v69h80v74q0 78 51.5 120.5t160.5 42.5q51 0 88.5 -14t59.5 -38q27 37 74.5 52t125.5 15q39 0 72.5 -3t58 -15t39 -36.5t16.5 -68.5l-86 -11q-1 23 -5.5 36t-16 20t-31.5 8.5t-51 1.5q-42 0 -68 -6t-40.5 -19t-19.5 -32.5
t-5 -47.5v-68q0 -11 10 -11h231v72h91v-62q0 -5 1 -7.5t7 -2.5h147v-69h-155v-295q0 -48 14.5 -67.5t57.5 -19.5q23 0 48 6t45 14zM452 583q0 23 -5.5 41.5t-19.5 31t-38 19.5t-60 7q-69 0 -93.5 -27t-24.5 -73v-58q0 -5 1 -7.5t7 -2.5h233v69z" />
    <glyph glyph-name="f_iacute" unicode="f&#xed;" horiz-adv-x="638" 
d="M370 0v55l66 6q11 1 13.5 5t2.5 15v349q0 8 -2.5 11.5t-11.5 3.5h-227v-362q0 -13 2.5 -15.5t13.5 -4.5l79 -9v-54h-266v54l62 9q10 2 14 5t4 15v352q0 5 -1 7.5t-7 2.5h-72v69h80v68q0 86 40 127t130 41q27 0 50 -4t40 -14.5t28.5 -29.5t15.5 -49l-73 -20q-2 32 -17 40
t-44 8q-49 0 -64 -24t-15 -73v-59q0 -11 10 -11h322v-433q0 -12 2.5 -15t13.5 -5l64 -7v-54h-253zM467 567l-39 37l155 164l60 -60z" />
    <glyph glyph-name="t_t" unicode="tt" horiz-adv-x="755" 
d="M727 19q-30 -12 -65.5 -21.5t-73.5 -9.5q-72 0 -105.5 33.5t-33.5 101.5v312q0 4 -0.5 6.5t-5.5 3.5h-246v-295q0 -48 14.5 -67.5t57.5 -19.5q23 0 48 6t45 14l22 -64q-30 -12 -65.5 -21.5t-73.5 -9.5q-72 0 -105.5 33.5t-33.5 101.5v312q0 5 -1 7.5t-7 2.5h-73v58
q29 4 48.5 12.5t32.5 24.5t20 42t12 64h59v-122q0 -5 1 -7.5t7 -2.5h209q31 13 45 43t22 89h59v-122q0 -5 1 -7.5t7 -2.5h147v-69h-155v-295q0 -48 14.5 -67.5t57.5 -19.5q23 0 48 6t45 14z" />
    <glyph glyph-name=".notdef" horiz-adv-x="500" 
 />
    <glyph glyph-name=".null" horiz-adv-x="0" 
 />
    <glyph glyph-name="nonmarkingreturn" horiz-adv-x="500" 
 />
    <glyph glyph-name="space" unicode=" " horiz-adv-x="222" 
 />
    <glyph glyph-name="exclam" unicode="!" horiz-adv-x="262" 
d="M94 187l-14 371v166h101v-166l-12 -371h-75zM198 51q0 -63 -66 -63t-66 63t66 63t66 -63z" />
    <glyph glyph-name="quotedbl" unicode="&#x22;" horiz-adv-x="364" 
d="M58 447v259h90v-259h-90zM216 447v259h90v-259h-90z" />
    <glyph glyph-name="numbersign" unicode="#" horiz-adv-x="607" 
d="M322 0l21 139h-121l-21 -139h-72l20 139h-115l15 66h111l23 148h-115l14 67h111l18 123h73l-19 -123h119l19 123h72l-19 -123h115l-13 -67h-112l-21 -148h113l-13 -66h-110l-21 -139h-72zM374 353h-119l-23 -148h121z" />
    <glyph glyph-name="dollar" unicode="$" horiz-adv-x="523" 
d="M468 176q0 -76 -44.5 -118.5t-122.5 -53.5v-84h-71v80q-60 2 -111 13.5t-77 23.5v140h66l16 -69q2 -11 6 -15.5t16 -9.5q11 -5 33 -9.5t51 -6.5v213q-32 9 -62.5 20t-54.5 30t-38.5 47.5t-14.5 72.5q0 41 13 71.5t35.5 52.5t54 34.5t67.5 17.5v74h71v-72q51 -2 91 -12.5
t68 -19.5v-152l-67 7l-16 77q-2 11 -6 15.5t-14 7.5q-22 7 -56 9v-215q31 -9 61 -21t53.5 -31t38 -47t14.5 -70zM145 463q0 -40 24 -61t61 -35v189q-40 -8 -62.5 -32t-22.5 -61zM381 165q0 38 -22.5 58.5t-57.5 34.5v-186q42 10 61 35t19 58z" />
    <glyph glyph-name="percent" unicode="%" horiz-adv-x="865" 
d="M204 257q-45 0 -75 14.5t-49 39t-27 56t-8 66.5q0 41 10.5 75.5t31.5 59t52 38.5t73 14q85 0 122 -47.5t37 -126.5q0 -84 -42.5 -136.5t-124.5 -52.5zM199 -17l377 638h86l-376 -638h-87zM208 318q49 0 66.5 34t17.5 90q0 25 -3.5 46t-13 36.5t-25.5 24.5t-40 9
q-25 0 -41.5 -10.5t-26.5 -27t-14 -38t-4 -43.5q0 -26 4 -48.5t13.5 -38.5t25.5 -25t41 -9zM654 -12q-45 0 -75.5 14.5t-49.5 39t-27 56t-8 66.5q0 41 10.5 75.5t31.5 59t52.5 38.5t73.5 14t72 -12.5t49 -35t28 -55t9 -71.5q0 -84 -42 -136.5t-124 -52.5zM657 49
q49 0 66.5 34t17.5 90q0 25 -3.5 46t-13 36.5t-25 24.5t-39.5 9q-25 0 -41.5 -10.5t-26.5 -27t-14 -38t-4 -43.5q0 -26 4 -48.5t13.5 -38.5t25.5 -25t40 -9z" />
    <glyph glyph-name="ampersand" unicode="&#x26;" horiz-adv-x="709" 
d="M548 0l-77 93q-45 -56 -99.5 -80.5t-122.5 -24.5q-48 0 -87.5 14t-67.5 40.5t-43.5 63.5t-15.5 83q0 79 44 133t130 77q-21 26 -36.5 59t-15.5 67q0 37 13 64.5t35.5 46.5t53.5 28.5t66 9.5q24 0 47.5 -3.5t44 -9t36.5 -11.5t25 -11v-135l-67 3l-12 68q-2 8 -4.5 12
t-10.5 6q-11 5 -25 6.5t-31 1.5q-43 0 -63.5 -18.5t-20.5 -49.5q0 -17 4 -32t14 -31.5t25.5 -37t39.5 -48.5l135 -160q17 48 24 85t10 78h131v-53l-45 -8q-9 -2 -12.5 -5t-5.5 -13q-6 -37 -17 -75.5t-26 -70.5l71 -84q6 -7 11 -10t15 -5l55 -9v-54h-125zM256 341
q-59 -11 -95.5 -47.5t-36.5 -102.5q0 -24 7.5 -47t24 -41t42 -29t61.5 -11q46 0 87 21.5t72 66.5z" />
    <glyph glyph-name="quotesingle" unicode="'" horiz-adv-x="206" 
d="M58 447v259h90v-259h-90z" />
    <glyph glyph-name="parenleft" unicode="(" horiz-adv-x="300" 
d="M202 -158q-28 42 -54.5 90t-47.5 103t-33.5 116t-12.5 129t13.5 130.5t35 119.5t50 107t58.5 92l69 -42q-32 -51 -56.5 -100t-41 -98t-25 -100.5t-8.5 -107.5q0 -66 10 -120t27 -102t39.5 -91.5t47.5 -86.5z" />
    <glyph glyph-name="parenright" unicode=")" horiz-adv-x="300" 
d="M26 -118q26 43 49 87t40 92.5t27 102.5t10 119q0 57 -9 108t-25.5 100t-40.5 97t-55 99l69 42q29 -41 57 -90.5t49.5 -106.5t35 -120t13.5 -130q0 -68 -12.5 -129t-33.5 -116t-48 -103.5t-56 -91.5z" />
    <glyph glyph-name="asterisk" unicode="*" horiz-adv-x="471" 
d="M325 393l-41 52l-48 91l26 21l-10 31h-33l-9 -30l26 -22l-48 -91l-42 -52l-58 48l41 50l81 67l-104 13l-62 22l25 71l62 -22l88 -54l-21 102v65h75v-65l-21 -102l89 54l61 22l25 -71l-62 -22l-103 -14l80 -66l42 -50z" />
    <glyph glyph-name="plus" unicode="+" 
d="M243 128v153h-147v81h147v150h83v-150h147v-81h-147v-153h-83z" />
    <glyph glyph-name="comma" unicode="," horiz-adv-x="185" 
d="M40 -101l30 105q1 7 -5 10l-35 14l22 83q24 -1 44 -3.5t34.5 -9t22.5 -19t8 -32.5q0 -14 -5 -27t-11 -26l-58 -112z" />
    <glyph glyph-name="hyphen" unicode="-" horiz-adv-x="311" 
d="M20 247v89h271v-89h-271z" />
    <glyph glyph-name="period" unicode="." horiz-adv-x="212" 
d="M172 51q0 -63 -66 -63t-66 63t66 63q32 0 49 -15.5t17 -47.5z" />
    <glyph glyph-name="slash" unicode="/" horiz-adv-x="377" 
d="M7 -92l281 847h82l-280 -847h-83z" />
    <glyph glyph-name="zero" unicode="0" horiz-adv-x="574" 
d="M284 -12q-74 0 -121 23.5t-73.5 63.5t-36.5 94t-10 115q0 60 12 114.5t41 96t77.5 65.5t120.5 24t118 -23t72.5 -62t36.5 -91.5t10 -110.5q0 -62 -11 -118t-39 -98.5t-76 -67.5t-121 -25zM287 62q43 0 71.5 16t45.5 45.5t24.5 71.5t7.5 95q0 51 -6.5 91.5t-23 68.5
t-44 42.5t-70.5 14.5q-86 0 -120 -59t-34 -169q0 -49 7 -89t24 -68.5t45.5 -44t72.5 -15.5z" />
    <glyph glyph-name="one" unicode="1" horiz-adv-x="365" 
d="M30 0v55l101 6q11 1 13.5 5t2.5 15v393q0 11 -3 15t-11 6l-95 18l7 56h193v-488q0 -12 2.5 -15t13.5 -5l88 -7v-54h-312z" />
    <glyph glyph-name="two" unicode="2" horiz-adv-x="477" 
d="M27 0v62l137 134q36 35 66 64t51.5 55.5t33 51t11.5 50.5q0 45 -25.5 70t-86.5 25q-28 0 -49 -4t-34.5 -15.5t-20 -32t-6.5 -52.5l-85 9q0 54 18 87t46.5 50.5t64 23.5t71.5 6q54 0 91.5 -11.5t61.5 -32.5t34.5 -50t10.5 -64q0 -39 -14 -73t-36.5 -64t-51.5 -57.5
t-58 -55.5l-114 -108h208q13 0 15 11l15 85h66v-164h-420z" />
    <glyph glyph-name="three" unicode="3" horiz-adv-x="488" 
d="M312 262q132 -24 132 -155q0 -88 -57.5 -139t-163.5 -51q-71 0 -127.5 24t-88.5 62l54 58q31 -32 68.5 -50t92.5 -18q25 0 48 5.5t41 18.5t29 35.5t11 56.5q0 58 -36 86t-101 28q-33 0 -71 -7v70l58 6q68 6 101 39t33 84q0 42 -24 69.5t-83 27.5q-27 0 -48.5 -4.5
t-35.5 -16t-21.5 -31.5t-7.5 -52l-85 9q0 53 18.5 85.5t47.5 50.5t65 24.5t72 6.5q52 0 89 -12t60.5 -33t34 -50.5t10.5 -63.5q0 -60 -30.5 -100t-84.5 -59v-4z" />
    <glyph glyph-name="four" unicode="4" horiz-adv-x="514" 
d="M317 -67v146h-292v66l230 432l74 -39l-206 -385h195v203l85 5v-208h91v-74h-91v-146h-86z" />
    <glyph glyph-name="five" unicode="5" horiz-adv-x="512" 
d="M157 494l-13 -195q24 17 57 27.5t72 10.5q92 0 144 -51.5t52 -147.5q0 -48 -15 -88.5t-44 -70t-71 -46t-97 -16.5q-72 0 -131 23t-96 62l55 61q32 -33 73 -51t96 -18q25 0 49.5 7.5t44 24.5t31.5 44t12 65q0 37 -11.5 61.5t-29 39.5t-39 21t-41.5 6q-43 0 -72.5 -15
t-52.5 -33l-66 29l21 325h265q8 0 10.5 2t4.5 9l14 54l56 4v-144h-278z" />
    <glyph glyph-name="six" unicode="6" horiz-adv-x="529" 
d="M392 491q0 52 -21.5 69.5t-68.5 17.5q-49 0 -80 -23t-48 -58t-24 -77.5t-8 -81.5q26 21 69 39.5t97 18.5q91 0 135 -51.5t44 -135.5q0 -102 -56.5 -161.5t-160.5 -59.5q-68 0 -111 27t-67 72.5t-32.5 105t-8.5 124.5q0 33 4 70.5t15 74.5t29.5 70.5t46.5 59t67.5 41
t92.5 15.5q31 0 62 -5.5t55.5 -21.5t39.5 -45t15 -75zM145 266q1 -27 5 -63t17.5 -68t39 -54t69.5 -22q60 0 90 37.5t30 103.5q0 63 -23.5 95.5t-80.5 32.5q-22 0 -44 -6.5t-41.5 -16t-35.5 -20.5t-26 -19z" />
    <glyph glyph-name="seven" unicode="7" horiz-adv-x="496" 
d="M158 -67q9 102 33.5 189t57.5 157.5t69 124.5t68 90h-245q-8 0 -10.5 -2t-4.5 -9l-18 -91l-63 -4v181h443v-65q-43 -44 -83.5 -105.5t-73 -135.5t-54 -158t-27.5 -172h-92z" />
    <glyph glyph-name="eight" unicode="8" horiz-adv-x="509" 
d="M352 333q24 -14 45 -29.5t37 -35.5t25.5 -45t9.5 -57q0 -44 -17 -77.5t-47 -56t-71 -33.5t-89 -11q-46 0 -83.5 10.5t-64.5 31.5t-42 52t-15 72q0 31 9.5 57.5t26 49t38.5 42t46 36.5q-20 12 -37 26t-30 32t-20 40t-7 50q0 39 15.5 69.5t42 50.5t62 30.5t74.5 10.5
q93 0 141.5 -42t48.5 -107q0 -25 -9 -49t-23 -45t-31.5 -39.5t-34.5 -32.5zM226 306q-49 -35 -75 -71t-26 -75q0 -49 35.5 -76t95.5 -27q57 0 90 29t33 74q0 30 -12.5 51.5t-33.5 38t-49 29.5t-58 27zM286 366q32 29 55.5 60t23.5 69q0 24 -8.5 40t-23.5 25.5t-34.5 14
t-40.5 4.5q-45 0 -74 -21.5t-29 -61.5q0 -25 11 -43.5t29 -33.5t41.5 -28t49.5 -25z" />
    <glyph glyph-name="nine" unicode="9" horiz-adv-x="553" 
d="M112 46q31 -27 67.5 -40.5t75.5 -13.5q50 0 79.5 24t45 59t20 75t5.5 72q-26 -23 -67.5 -41t-98.5 -18q-91 0 -136.5 53.5t-45.5 149.5q0 99 56 158.5t162 59.5q70 0 113 -27t67 -72t32.5 -104t8.5 -124q0 -55 -8 -115t-33 -110t-72.5 -82.5t-125.5 -32.5
q-52 0 -103.5 15.5t-86.5 49.5zM401 297q-2 32 -5.5 70t-17 70.5t-39.5 54t-71 21.5q-60 0 -90 -37.5t-30 -103.5t24.5 -103t81.5 -37q24 0 46 6.5t41 16t34 21t26 21.5z" />
    <glyph glyph-name="colon" unicode=":" horiz-adv-x="212" 
d="M172 51q0 -63 -66 -63t-66 63t66 63q32 0 49 -15.5t17 -47.5zM172 445q0 -63 -66 -63t-66 63t66 63q32 0 49 -15.5t17 -47.5z" />
    <glyph glyph-name="semicolon" unicode=";" horiz-adv-x="185" 
d="M40 -101l30 105q1 7 -5 10l-35 14l22 83q24 -1 44 -3.5t34.5 -9t22.5 -19t8 -32.5q0 -14 -5 -27t-11 -26l-58 -112zM169 445q0 -63 -66 -63t-66 63t66 63q32 0 49 -15.5t17 -47.5z" />
    <glyph glyph-name="less" unicode="&#x3c;" 
d="M83 239v100l372 154l27 -76l-316 -125l319 -121l-24 -77z" />
    <glyph glyph-name="equal" unicode="=" 
d="M98 159v83h374v-83h-374zM98 321v83h374v-83h-374z" />
    <glyph glyph-name="greater" unicode="&#x3e;" 
d="M107 94l-24 77l319 121l-316 125l27 76l371 -154v-100z" />
    <glyph glyph-name="question" unicode="?" horiz-adv-x="475" 
d="M139 186v177q39 3 76 12t66 27.5t47 49.5t18 78q0 54 -32.5 85.5t-94.5 31.5q-33 0 -54 -4.5t-32 -10.5q-5 -3 -7 -7t-4 -15l-10 -57l-71 -5v140q25 10 74 23t108 13q48 0 89 -9.5t70.5 -31.5t46 -59.5t16.5 -92.5q0 -52 -15.5 -91.5t-44 -67t-68 -44.5t-87.5 -25v-117
h-91zM251 51q0 -63 -66 -63t-66 63t66 63t66 -63z" />
    <glyph glyph-name="at" unicode="@" horiz-adv-x="829" 
d="M610 -138q-24 -11 -74 -23t-125 -12q-80 0 -146 22t-113.5 66.5t-73.5 111t-26 155.5q0 87 28.5 159t79.5 123.5t122.5 80t157.5 28.5q77 0 139.5 -21t107 -61.5t68.5 -99.5t24 -135q0 -72 -15 -122t-41 -81.5t-61.5 -45.5t-77.5 -14q-50 0 -74 20.5t-30 53.5
q-30 -29 -62.5 -51.5t-71.5 -22.5q-53 0 -80.5 35t-27.5 103q0 55 15 104t42.5 86t67.5 59t91 22q37 0 72 -9.5t61 -22.5l-27 -168q-4 -23 -7.5 -51.5t-3.5 -43.5q0 -23 10 -37t36 -14q32 0 53 18.5t33.5 46.5t17.5 61t5 61q0 128 -66.5 196t-202.5 68q-72 0 -129 -25
t-96.5 -69t-60 -103t-20.5 -126q0 -75 20.5 -130t59 -91t92 -53t119.5 -17q45 0 88.5 8.5t82.5 22.5zM508 329q-11 7 -28.5 10.5t-34.5 3.5q-27 0 -50.5 -15.5t-41 -42.5t-28 -63.5t-10.5 -78.5q0 -38 9 -59t37 -21q14 0 29.5 6.5t31 16.5t29.5 22.5t25 25.5z" />
    <glyph glyph-name="A" unicode="A" horiz-adv-x="713" 
d="M461 0v54l82 9l-54 158h-279l-53 -158l81 -9v-54h-230v53l43 11q12 3 17 6.5t8 12.5l220 641h116l224 -642q3 -9 9 -12t15 -5l45 -11v-54h-244zM351 646l-118 -352h234z" />
    <glyph glyph-name="B" unicode="B" horiz-adv-x="667" 
d="M61 0v54l63 7q11 2 13.5 5.5t2.5 14.5v561q0 11 -2.5 15t-13.5 5l-63 7v55h298q64 0 106 -13.5t67 -37.5t35 -56.5t10 -69.5q0 -36 -10.5 -63.5t-27.5 -48.5t-39 -35t-45 -21v-3q86 -10 127.5 -57.5t41.5 -122.5q0 -56 -20 -93.5t-55.5 -60t-84.5 -32.5t-108 -10h-295z
M345 73q39 0 72.5 4.5t58 18.5t38.5 39t14 67q0 36 -12.5 61.5t-34.5 41.5t-52 23t-64 7h-134v-262h114zM319 405q30 0 59.5 5.5t53 19.5t38.5 39.5t15 65.5q0 69 -38 92.5t-113 23.5h-103v-246h88z" />
    <glyph glyph-name="C" unicode="C" horiz-adv-x="690" 
d="M630 41q-20 -14 -47 -23.5t-58.5 -16.5t-66 -10t-68.5 -3q-92 0 -156.5 27.5t-106 77t-60.5 118t-19 151.5q0 81 22.5 150t67 119t112 78t157.5 28q66 0 124.5 -14.5t96.5 -39.5v-160l-68 4l-17 95q-1 7 -3 11.5t-10 6.5q-26 9 -59 15.5t-68 6.5q-59 0 -107 -19.5
t-81.5 -57t-52 -94t-18.5 -129.5q0 -147 67 -223t185 -76q34 0 72.5 4.5t67.5 16.5q6 2 9 5.5t5 12.5l16 90h64v-151z" />
    <glyph glyph-name="D" unicode="D" horiz-adv-x="767" 
d="M61 0v54l63 7q11 2 13.5 5.5t2.5 14.5v561q0 11 -2.5 15t-13.5 5l-63 7v55h299q94 0 162 -24.5t111.5 -70t64.5 -110.5t21 -146q0 -83 -22.5 -152t-68.5 -118t-117 -76t-168 -27h-282zM342 73q143 0 212.5 76.5t69.5 210.5q0 84 -18.5 140t-53.5 89.5t-86.5 48
t-117.5 14.5h-116v-579h110z" />
    <glyph glyph-name="E" unicode="E" horiz-adv-x="635" 
d="M61 0v54l63 7q11 2 13.5 5.5t2.5 14.5v561q0 11 -2.5 15t-13.5 5l-63 7v55h502v-165l-68 4l-14 77q-3 13 -17 13h-232v-252h267v-72h-267v-258h254q8 0 11 1.5t5 9.5l16 87h67v-169h-524z" />
    <glyph glyph-name="F" unicode="F" horiz-adv-x="603" 
d="M61 0v54l63 7q11 2 13.5 5.5t2.5 14.5v561q0 11 -2.5 15t-13.5 5l-63 7v55h498v-165l-68 4l-14 77q-3 13 -17 13h-228v-249h263v-72h-263v-250q0 -12 2.5 -15t13.5 -5l147 -8v-54h-334z" />
    <glyph glyph-name="G" unicode="G" horiz-adv-x="738" 
d="M674 278q-9 -1 -12.5 -4t-3.5 -13v-232q-23 -11 -52 -19t-60.5 -13t-64.5 -7t-63 -2q-101 0 -171.5 28.5t-114.5 79t-64 120t-20 151.5q0 79 22.5 147t67.5 117.5t112.5 77.5t157.5 28q64 0 124 -14t98 -40v-159l-68 5l-16 93q-2 7 -4 11.5t-10 6.5q-26 9 -60.5 15.5
t-69.5 6.5q-59 0 -107 -20t-81.5 -57.5t-51.5 -92.5t-18 -125q0 -149 72 -226.5t214 -77.5q27 0 63 4.5t60 10.5q7 2 10.5 5t3.5 12v177h-136l11 65h274v-55z" />
    <glyph glyph-name="H" unicode="H" horiz-adv-x="808" 
d="M497 0v54l63 7q11 2 13.5 5.5t2.5 14.5v256h-344v-255q0 -12 2.5 -15t13.5 -5l67 -8v-54h-254v54l63 7q11 2 13.5 5.5t2.5 14.5v562q0 11 -2.5 15t-13.5 5l-63 7v54h254v-54l-67 -8q-11 -2 -13.5 -5t-2.5 -14v-234h344v234q0 11 -2.5 15t-13.5 5l-63 7v54h254v-54l-67 -8
q-11 -2 -13.5 -5t-2.5 -14v-561q0 -12 2.5 -15t13.5 -5l67 -8v-54h-254z" />
    <glyph glyph-name="I" unicode="I" horiz-adv-x="382" 
d="M56 0v54l73 7q11 1 13.5 5t2.5 15v562q0 11 -2.5 15t-13.5 5l-73 7v54h274v-54l-77 -8q-11 -2 -13.5 -5t-2.5 -14v-561q0 -12 2.5 -15t13.5 -5l77 -8v-54h-274z" />
    <glyph glyph-name="J" unicode="J" horiz-adv-x="504" 
d="M291 644q0 11 -3 14.5t-13 4.5l-85 7v54h276v-54l-67 -8q-11 -2 -13.5 -4.5t-2.5 -13.5v-497q0 -81 -39 -120t-127 -39q-29 0 -55 3.5t-47.5 8.5t-37.5 11.5t-24 11.5v138l68 -4l10 -69q1 -9 12 -14q8 -3 25.5 -7.5t43.5 -4.5q47 0 63 22t16 69v491z" />
    <glyph glyph-name="K" unicode="K" horiz-adv-x="735" 
d="M451 0v54l69 8l-210 278l-78 -85v-173q0 -12 2.5 -15t13.5 -5l67 -8v-54h-254v54l63 7q11 2 13.5 5.5t2.5 14.5v562q0 11 -2.5 15t-13.5 5l-63 7v54h254v-54l-67 -8q-11 -2 -13.5 -5t-2.5 -14v-286l278 304l-62 8v55h225v-54l-51 -9q-14 -2 -18.5 -5.5t-11.5 -11.5
l-217 -234l246 -330q7 -9 11.5 -11.5t17.5 -4.5l61 -10v-54h-260z" />
    <glyph glyph-name="L" unicode="L" horiz-adv-x="619" 
d="M61 0v54l63 7q11 2 13.5 5.5t2.5 14.5v561q0 11 -2.5 15t-13.5 5l-63 7v55h270v-55l-83 -8q-11 -1 -13.5 -4.5t-2.5 -14.5v-571h254q8 0 11 1.5t5 9.5l16 90h67v-172h-524z" />
    <glyph glyph-name="M" unicode="M" horiz-adv-x="952" 
d="M623 0v54l83 7q11 1 13.5 5t2.5 15v496l-201 -407h-97l-194 406v-494q0 -12 2.5 -15t13.5 -5l87 -8v-54h-272v54l63 7q11 2 13.5 5.5t2.5 14.5v561q0 11 -2.5 15t-13.5 5l-63 7v55h194l220 -475l228 475h192v-54l-67 -8q-11 -2 -13.5 -5t-2.5 -14v-562q0 -10 3 -13.5
t13 -5.5l67 -8v-54h-272z" />
    <glyph glyph-name="N" unicode="N" horiz-adv-x="828" 
d="M586 0l-365 605v-523q0 -12 2.5 -15t13.5 -5l67 -8v-54h-243v54l63 7q11 2 13.5 5.5t2.5 14.5v562q0 11 -2.5 15t-13.5 5l-63 7v55h196l356 -601v519q0 11 -2.5 15t-13.5 5l-63 7v54h242v-54l-67 -8q-11 -2 -13.5 -5t-2.5 -14v-643h-107z" />
    <glyph glyph-name="O" unicode="O" horiz-adv-x="777" 
d="M384 -12q-87 0 -150 28t-104 78t-60.5 119.5t-19.5 152.5q0 79 22.5 147t66 118t108.5 78t151 28q85 0 147 -28t102.5 -76.5t60 -114.5t19.5 -141q0 -89 -21.5 -160.5t-64 -122.5t-107 -78.5t-150.5 -27.5zM389 65q54 0 99 18t77 55.5t49.5 94.5t17.5 134
q0 145 -63.5 219t-172.5 74q-55 0 -101 -19t-79.5 -56t-52 -92t-18.5 -127q0 -75 17.5 -131.5t49.5 -94t77 -56.5t100 -19z" />
    <glyph glyph-name="P" unicode="P" horiz-adv-x="651" 
d="M61 0v54l63 7q11 2 13.5 5.5t2.5 14.5v561q0 11 -2.5 15t-13.5 5l-63 7v55h309q69 0 115.5 -17t74.5 -46.5t39.5 -68t11.5 -81.5q0 -65 -19 -110t-54.5 -73.5t-86.5 -41.5t-114 -13h-106v-191q0 -12 2.5 -15t13.5 -5l143 -8v-54h-329zM329 346q38 0 72 5.5t59.5 23
t40.5 49t15 83.5q0 79 -43.5 111.5t-130.5 32.5h-111v-305h98z" />
    <glyph glyph-name="Q" unicode="Q" horiz-adv-x="777" 
d="M583 -164q-17 -10 -44.5 -16.5t-56.5 -6.5q-76 0 -106 33t-30 91q0 16 1 29.5t3 23.5q-78 5 -134.5 35t-93 79.5t-54.5 116t-18 145.5t22.5 147t66 118t108.5 78t151 28q85 0 147.5 -28t102.5 -76.5t59.5 -114.5t19.5 -141q0 -82 -18.5 -149.5t-55 -117.5t-91 -80.5
t-126.5 -38.5q-3 -20 -3 -42q0 -31 13.5 -48t49.5 -17q20 0 37.5 4t29.5 9zM389 65q55 0 99.5 18t76.5 55.5t49.5 94.5t17.5 134q0 145 -63 219t-172 74q-56 0 -102 -19t-79.5 -56t-52 -92t-18.5 -127q0 -75 17.5 -131.5t49.5 -94t77 -56.5t100 -19z" />
    <glyph glyph-name="R" unicode="R" horiz-adv-x="680" 
d="M413 0v54l79 6l-83 207q-10 24 -24 33t-44 9h-110v-227q0 -12 2.5 -15t13.5 -5l66 -8v-54h-252v54l63 7q11 2 13.5 5.5t2.5 14.5v561q0 11 -2.5 15t-13.5 5l-63 7v55h306q67 0 111 -17t69.5 -45t35.5 -63t10 -71q0 -80 -39 -126.5t-100 -68.5q25 -11 35 -28t21 -45
l68 -175q5 -12 12.5 -16.5t18.5 -6.5l61 -9v-53h-257zM323 381q36 0 67.5 6t55 22.5t37.5 44t14 71.5q0 38 -12 62.5t-36 38.5t-59 19.5t-81 5.5h-78v-270h92z" />
    <glyph glyph-name="S" unicode="S" horiz-adv-x="584" 
d="M440 538l-15 85q-2 11 -4.5 15t-6.5 6q-11 6 -33.5 11.5t-61.5 5.5q-78 0 -115.5 -31t-37.5 -85q0 -31 12.5 -52t33.5 -35.5t48.5 -25t57.5 -19.5q37 -12 75 -25.5t69 -37t50 -59.5t19 -92q0 -58 -21.5 -98.5t-57.5 -65.5t-84 -36t-102 -11q-34 0 -67 4t-60.5 9.5t-49 12
t-33.5 12.5v164h67l19 -88q2 -10 5.5 -14t14.5 -8t39.5 -10.5t72.5 -6.5q77 0 120 30t43 96q0 33 -12 55.5t-32.5 37.5t-47 25t-55.5 19q-38 11 -76.5 23.5t-70 34.5t-51.5 57t-20 92q0 54 19.5 92.5t53.5 63t80 36.5t98 12q63 0 111.5 -12.5t74.5 -22.5v-170z" />
    <glyph glyph-name="T" unicode="T" horiz-adv-x="660" 
d="M165 0v55l103 7q11 1 13.5 5t2.5 15v571h-155q-8 0 -11 -1.5t-5 -9.5l-16 -87h-67v169h600v-169h-67l-16 87q-2 8 -5 9.5t-11 1.5h-155v-571q0 -11 2.5 -14.5t13.5 -4.5l110 -8v-55h-337z" />
    <glyph glyph-name="U" unicode="U" horiz-adv-x="788" 
d="M571 643q0 11 -2.5 15t-13.5 5l-63 7v54h248v-54l-67 -8q-11 -2 -13.5 -5t-2.5 -14v-401q0 -130 -69.5 -192t-197.5 -62q-70 0 -119 16.5t-80 48.5t-45.5 80t-14.5 111v399q0 11 -2.5 15t-13.5 5l-63 7v54h254v-54l-67 -8q-11 -2 -13.5 -5t-2.5 -14v-388q0 -101 43 -145
t130 -44q44 0 77 9.5t54.5 31.5t32.5 57.5t11 87.5v391z" />
    <glyph glyph-name="V" unicode="V" horiz-adv-x="693" 
d="M291 0l-213 642q-3 9 -9 12t-15 5l-45 11l10 54h234v-54l-82 -9l183 -582l187 582l-81 9l10 54h218v-54l-42 -11q-9 -2 -15.5 -6t-9.5 -13l-206 -640h-124z" />
    <glyph glyph-name="W" unicode="W" horiz-adv-x="993" 
d="M628 0l-126 464l-134 -464h-114l-166 641q-2 10 -6.5 13.5t-13.5 5.5l-59 10l10 54h251v-54l-89 -10l134 -561l136 479h103l136 -487l141 569l-91 10l10 54h234v-54l-52 -9q-11 -2 -15 -5.5t-7 -14.5l-161 -641h-121z" />
    <glyph glyph-name="X" unicode="X" horiz-adv-x="699" 
d="M432 0v54l76 9l-167 246l-164 -246l73 -9v-54h-228v52l53 11q9 2 14.5 6.5t10.5 12.5l192 282l-188 278q-5 8 -10 11.5t-14 5.5l-47 11l10 54h229v-54l-75 -9l153 -233l158 233l-74 9l10 54h208v-54l-44 -11q-9 -2 -14 -6.5t-11 -12.5l-183 -267l204 -291q5 -8 10 -11.5
t14 -5.5l52 -11v-54h-248z" />
    <glyph glyph-name="Y" unicode="Y" horiz-adv-x="619" 
d="M159 0v54l95 7q11 1 13.5 5t2.5 15v199l-200 362q-5 8 -10 11.5t-14 5.5l-45 11l10 54h224v-54l-75 -9l159 -299l154 299l-74 9l10 54h209v-54l-42 -11q-8 -2 -14 -6.5t-11 -12.5l-189 -357v-201q0 -12 2.5 -15t13.5 -5l100 -8v-54h-319z" />
    <glyph glyph-name="Z" unicode="Z" horiz-adv-x="644" 
d="M50 0v61l416 592h-300q-8 0 -11 -1.5t-5 -9.5l-19 -93l-68 -3v178h515v-63l-413 -590h320q8 0 11 1.5t5 9.5l19 107h68v-189h-538z" />
    <glyph glyph-name="bracketleft" unicode="[" horiz-adv-x="262" 
d="M62 -143v867h169v-53l-67 -9q-11 -2 -13.5 -5t-2.5 -14v-703q0 -11 2.5 -14.5t13.5 -5.5l67 -9v-54h-169z" />
    <glyph glyph-name="backslash" unicode="\" horiz-adv-x="377" 
d="M293 -92l-280 847h82l281 -847h-83z" />
    <glyph glyph-name="bracketright" unicode="]" horiz-adv-x="262" 
d="M30 -143v54l67 9q11 2 13.5 5.5t2.5 14.5v703q0 11 -2.5 14t-13.5 5l-67 9v53h169v-867h-169z" />
    <glyph glyph-name="asciicircum" unicode="^" horiz-adv-x="550" 
d="M430 299l-158 285l-155 -285h-87l197 365h93l200 -365h-90z" />
    <glyph glyph-name="underscore" unicode="_" horiz-adv-x="500" 
d="M0 -181v68h500v-68h-500z" />
    <glyph glyph-name="grave" unicode="`" horiz-adv-x="500" 
d="M311 567l-176 141l61 60l154 -164z" />
    <glyph glyph-name="a" unicode="a" horiz-adv-x="541" 
d="M380 0l-9 65l-3 1q-36 -34 -79.5 -56t-101.5 -22q-47 0 -75 14t-42.5 35t-19 45t-4.5 43q0 75 45.5 112t136.5 45l135 11v53q0 27 -3.5 47.5t-14.5 34t-30.5 20.5t-52.5 7q-23 0 -42 -1.5t-33.5 -9t-22.5 -23t-8 -43.5l-86 9q0 46 19 73t48 41.5t62.5 18.5t63.5 4
q53 0 89.5 -8.5t59 -29t32 -54.5t9.5 -86v-265q0 -12 2.5 -15t13.5 -5l51 -7v-54h-140zM363 230l-113 -10q-32 -3 -53.5 -9.5t-34 -16.5t-17.5 -25t-5 -34q0 -41 17.5 -58.5t52.5 -17.5q22 0 44.5 8t42.5 19.5t37 25t29 24.5v94z" />
    <glyph glyph-name="b" unicode="b" horiz-adv-x="595" 
d="M84 0q5 28 8.5 67.5t3.5 75.5v519q0 17 -13 21l-59 19l9 53h154v-289q35 23 76.5 40.5t94.5 17.5q42 0 77 -14t59.5 -44t38.5 -77t14 -113q0 -77 -15.5 -132t-43 -89.5t-66.5 -50.5t-86 -16q-90 0 -155 62l-3 -2l-5 -48h-89zM187 128q24 -23 60 -44t77 -21q70 0 100.5 55
t30.5 150q0 97 -34 138.5t-87 41.5q-44 0 -82.5 -18.5t-64.5 -37.5v-264z" />
    <glyph glyph-name="c" unicode="c" horiz-adv-x="486" 
d="M455 30q-29 -19 -75 -30.5t-96 -11.5q-64 0 -110 19t-76 53.5t-44 83t-14 107.5q0 71 19.5 122.5t54.5 85t83 49.5t105 16q55 0 95 -11.5t57 -19.5v-133l-67 3l-12 66q-1 5 -3 8.5t-9 5.5q-11 4 -29 6.5t-39 2.5q-33 0 -62.5 -10.5t-51 -33.5t-34 -60t-12.5 -91
q0 -53 12 -89.5t33.5 -60t51.5 -34t66 -10.5q38 0 72.5 10t55.5 23z" />
    <glyph glyph-name="d" unicode="d" horiz-adv-x="594" 
d="M425 0l-8 66l-4 1q-35 -33 -76 -56t-100 -23q-43 0 -78 14.5t-59.5 45.5t-38 80t-13.5 118q0 74 16 126.5t43.5 86.5t66 49.5t83.5 15.5t84.5 -13.5t68.5 -34.5v187q0 16 -13 20l-60 19l9 53h153v-674q0 -12 2.5 -15t13.5 -5l51 -7v-54h-141zM408 395q-23 19 -60 36.5
t-77 17.5q-35 0 -60 -14.5t-41 -41t-23 -63.5t-7 -82q0 -52 8.5 -87.5t24 -57t37 -30.5t47.5 -9q45 0 81.5 25t69.5 58v248z" />
    <glyph glyph-name="e" unicode="e" horiz-adv-x="511" 
d="M462 33q-38 -21 -83 -33t-99 -12q-68 0 -114 21t-74 57t-40 85t-12 105q0 69 18 119.5t49 83.5t72.5 49t88.5 16q46 0 84 -13t65 -41.5t42 -74t15 -110.5q0 -10 -0.5 -23.5t-1.5 -26.5h-336q1 -38 10 -69t27 -53.5t46.5 -35t69.5 -12.5q21 0 38.5 2t34.5 6.5t34 11
t37 16.5zM383 304q-1 43 -10.5 71t-25 45t-36 24t-43.5 7q-25 0 -47.5 -7.5t-40 -24.5t-29 -45t-14.5 -70h246z" />
    <glyph glyph-name="f" unicode="f" horiz-adv-x="406" 
d="M40 0v55l64 6q11 1 13.5 5t2.5 15v354q0 5 -1 7.5t-7 2.5h-72v69h80v76q0 88 44.5 132t138.5 44q31 0 58 -4.5t47.5 -17.5t32.5 -36.5t12 -60.5l-85 -12q0 40 -17 51.5t-52 11.5q-28 0 -45 -7.5t-26.5 -21t-13 -33t-3.5 -43.5v-69q0 -5 1 -7.5t7 -2.5h164v-69h-172v-362
q0 -12 2.5 -15.5t13.5 -4.5l117 -9v-54h-304z" />
    <glyph glyph-name="g" unicode="g" horiz-adv-x="583" 
d="M412 64l-3 1q-32 -30 -72 -53.5t-97 -23.5q-44 0 -79 14.5t-60.5 45t-39 79.5t-13.5 118q0 73 16 126t43.5 87t65.5 50t82 16q48 0 87.5 -14.5t68.5 -37.5l11 42h86q-5 -38 -7.5 -71.5t-2.5 -67.5v-366q0 -50 -13.5 -93t-43.5 -74.5t-77.5 -50t-115.5 -18.5
q-66 0 -116.5 16t-82.5 39l36 71q33 -20 73.5 -34.5t87.5 -14.5q76 0 121 38t45 121v55zM407 395q-23 20 -60 37t-77 17q-35 0 -60 -14.5t-40.5 -41t-22.5 -63t-7 -81.5q0 -53 8.5 -88t23.5 -57t36.5 -31t47.5 -9q45 0 83 27t68 61v243z" />
    <glyph glyph-name="h" unicode="h" horiz-adv-x="630" 
d="M375 0v55l48 6q18 1 18 20v233q0 28 -3 52t-12 42t-25.5 28.5t-43.5 10.5q-23 0 -45 -6t-42 -15t-38 -20.5t-33 -23.5v-301q0 -12 2.5 -15t13.5 -5l56 -7v-54h-229v55l50 6q11 2 13.5 5.5t2.5 14.5v581q0 17 -13 21l-60 19l9 53h154v-297q35 25 79 45.5t101 20.5
q81 0 117.5 -48.5t36.5 -133.5v-261q0 -12 2.5 -15t13.5 -5l57 -7v-54h-230z" />
    <glyph glyph-name="i" unicode="i" horiz-adv-x="297" 
d="M204 689q0 -64 -64 -64q-31 0 -48 16.5t-17 47.5q0 30 17 46.5t48 16.5t47.5 -16.5t16.5 -46.5zM26 0v55l66 6q11 1 13.5 5t2.5 15v340q0 17 -13 21l-57 19l9 53h152v-433q0 -12 2.5 -15t13.5 -5l64 -7v-54h-253z" />
    <glyph glyph-name="j" unicode="j" horiz-adv-x="284" 
d="M106 421q0 17 -13 21l-64 19l9 53h159v-579q0 -81 -35 -119.5t-109 -38.5q-47 0 -84.5 13.5t-55.5 28.5l36 59q13 -10 37.5 -19.5t52.5 -9.5q40 0 53.5 25t13.5 79v468zM204 689q0 -31 -17 -47.5t-48 -16.5q-30 0 -47 16.5t-17 47.5q0 30 17 46.5t47 16.5q31 0 48 -16.5
t17 -46.5z" />
    <glyph glyph-name="k" unicode="k" horiz-adv-x="591" 
d="M345 0v54l63 8l-125 207l-84 -94v-94q0 -12 2.5 -15t13.5 -5l60 -7v-54h-245v55l62 6q11 1 13.5 5t2.5 15v581q0 17 -13 21l-60 19l9 53h155v-481l212 240h111v-54l-57 -12q-9 -2 -13.5 -4.5t-11.5 -10.5l-91 -102l152 -252q6 -9 11 -11.5t18 -4.5l52 -9v-54h-237z" />
    <glyph glyph-name="l" unicode="l" horiz-adv-x="297" 
d="M30 0v55l62 6q11 1 13.5 5t2.5 15v581q0 17 -13 21l-60 19l9 53h155v-674q0 -12 2.5 -15t13.5 -5l60 -7v-54h-245z" />
    <glyph glyph-name="m" unicode="m" horiz-adv-x="912" 
d="M657 0v55l48 6q18 1 18 20v241q0 24 -3.5 46t-12.5 39t-25.5 27.5t-43.5 10.5q-41 0 -75 -16t-57 -33q3 -27 3 -61v-254q0 -12 2.5 -15t13.5 -5l49 -7v-54h-222v55l48 6q18 1 18 20v242q0 21 -2 43t-9.5 39.5t-22.5 28.5t-42 11q-39 0 -76.5 -19.5t-66.5 -42.5v-302
q0 -12 2.5 -15t13.5 -5l54 -7v-54h-227v55l50 6q11 2 13.5 5.5t2.5 14.5v340q0 17 -13 21l-57 19l9 53h131l8 -59l3 -1q40 31 80.5 50.5t96.5 19.5q36 0 70 -14.5t53 -49.5q33 24 77 44t100 20q43 0 71.5 -13t45.5 -37t24 -58.5t7 -77.5v-257q0 -12 2.5 -15t13.5 -5l57 -7
v-54h-230z" />
    <glyph glyph-name="n" unicode="n" horiz-adv-x="630" 
d="M375 0v55l48 6q18 1 18 20v237q0 24 -3 47t-12.5 41t-26.5 29t-45 11q-43 0 -82.5 -18.5t-72.5 -45.5v-301q0 -12 2.5 -15t13.5 -5l56 -7v-54h-229v55l50 6q11 2 13.5 5.5t2.5 14.5v340q0 17 -13 21l-57 19l9 53h131l8 -59l3 -1q39 28 85 49t100 21q43 0 73 -13.5
t49 -37.5t27.5 -57.5t8.5 -74.5v-260q0 -12 2.5 -15t13.5 -5l57 -7v-54h-230z" />
    <glyph glyph-name="o" unicode="o" horiz-adv-x="568" 
d="M281 -12q-65 0 -111 20t-75 56t-42 85.5t-13 109.5q0 59 15 107.5t46 83.5t78.5 54.5t111.5 19.5t109 -19.5t73.5 -54t41.5 -82t13 -103.5q0 -63 -14.5 -114t-45 -87.5t-77 -56t-110.5 -19.5zM284 61q73 0 111.5 47.5t38.5 150.5q0 99 -36 144t-109 45q-74 0 -114.5 -45
t-40.5 -145q0 -197 150 -197z" />
    <glyph glyph-name="p" unicode="p" horiz-adv-x="605" 
d="M49 -212v55l41 6q11 2 14 5.5t3 14.5v552q0 17 -13 21l-57 19l9 53h132l9 -58l3 -1q42 31 85 50t94 19q42 0 76.5 -14t59.5 -44t38.5 -77t13.5 -113q0 -56 -10.5 -108t-34.5 -92t-64 -64t-99 -24q-43 0 -80 12t-72 43v-173q0 -12 2.5 -15.5t13.5 -4.5l94 -8v-54h-258z
M197 128q26 -25 61.5 -45t75.5 -20q71 0 101 55t30 150q0 51 -9.5 85.5t-25 55t-36.5 29.5t-44 9q-24 0 -47 -6.5t-43 -16t-36 -20t-27 -19.5v-257z" />
    <glyph glyph-name="q" unicode="q" horiz-adv-x="583" 
d="M320 -212v54l75 7q11 1 14 5t3 15v195l-3 1q-32 -30 -72 -53.5t-97 -23.5q-44 0 -79 14.5t-60.5 45t-39 79.5t-13.5 118q0 73 16 126t43.5 87t65.5 50t82 16q48 0 87.5 -14.5t68.5 -37.5l11 42h86q-5 -38 -7.5 -71.5t-2.5 -67.5v-506q0 -11 2.5 -14.5t13.5 -5.5l51 -6
v-55h-245zM407 395q-23 20 -60 37t-77 17q-35 0 -60 -14.5t-40.5 -41t-22.5 -63t-7 -81.5q0 -53 8.5 -88t23.5 -57t36.5 -31t47.5 -9q45 0 83 27t68 61v243z" />
    <glyph glyph-name="r" unicode="r" horiz-adv-x="433" 
d="M42 0v55l50 6q11 2 13.5 5.5t2.5 14.5v340q0 17 -13 21l-57 19l9 53h131l10 -69l3 -1q12 14 27.5 28t34.5 25.5t40.5 19t47.5 7.5q17 0 37.5 -2.5t34.5 -6.5v-151l-71 3l-12 69q-1 10 -12 10q-17 0 -34.5 -7t-33.5 -16.5t-29 -20.5t-22 -19v-301q0 -12 2.5 -15.5
t13.5 -4.5l92 -8v-54h-265z" />
    <glyph glyph-name="s" unicode="s" horiz-adv-x="460" 
d="M343 371l-12 62q-1 5 -2.5 8t-7.5 5q-11 4 -31.5 7.5t-46.5 3.5q-55 0 -80.5 -21.5t-25.5 -53.5q0 -21 10.5 -35t27.5 -23t40 -15.5t47 -12.5q29 -8 58 -17.5t52.5 -26t38 -42.5t14.5 -66q0 -44 -17 -73.5t-45 -48t-64.5 -26.5t-76.5 -8q-30 0 -59.5 4t-54.5 9t-42.5 11
t-24.5 10v133l67 -4l12 -69q1 -5 3 -8.5t9 -5.5q10 -4 35 -10t63 -6q51 0 80.5 19t29.5 60q0 22 -10 37t-26.5 24.5t-38.5 15.5t-46 12q-29 7 -58.5 15.5t-53.5 24t-39 41.5t-15 67q0 43 16.5 72.5t44.5 48t63.5 27t74.5 8.5q27 0 52 -3t46 -7.5t36.5 -9.5t23.5 -8v-129z
" />
    <glyph glyph-name="t" unicode="t" horiz-adv-x="412" 
d="M384 19q-30 -12 -65.5 -21.5t-73.5 -9.5q-72 0 -105.5 33.5t-33.5 101.5v312q0 5 -1 7.5t-7 2.5h-73v58q29 4 48.5 12.5t32.5 24.5t20 42t12 64h59v-122q0 -5 1 -7.5t7 -2.5h147v-69h-155v-295q0 -48 14.5 -67.5t57.5 -19.5q23 0 48 6t45 14z" />
    <glyph glyph-name="u" unicode="u" horiz-adv-x="627" 
d="M452 0l-8 68l-2 1q-17 -15 -37 -29.5t-43.5 -26t-51.5 -18.5t-61 -7q-41 0 -69 12.5t-44.5 35.5t-23.5 57t-7 77v254q0 12 -2.5 16.5t-13.5 6.5l-52 13l8 54h151v-323q0 -65 15.5 -97t62.5 -32q25 0 48.5 8t44 20.5t38 28t30.5 30.5v276q0 12 -2.5 16t-13.5 6l-50 13
l8 54h149v-432q0 -20 14 -21l53 -7v-54h-141z" />
    <glyph glyph-name="v" unicode="v" horiz-adv-x="579" 
d="M241 0l-169 433q-4 9 -8 12t-13 5l-43 9l12 55h210v-55l-69 -8l135 -373l137 373l-67 8l11 55h194v-55l-33 -6q-11 -2 -16 -5t-9 -12l-168 -436h-104z" />
    <glyph glyph-name="w" unicode="w" horiz-adv-x="840" 
d="M529 0l-96 396l-110 -396h-110l-141 433q-3 9 -7.5 12t-13.5 5l-43 9l12 55h201v-55l-64 -8l112 -359l115 407h105l97 -406l111 358l-65 8l11 55h189v-55l-36 -6q-13 -2 -17.5 -6t-7.5 -14l-135 -433h-107z" />
    <glyph glyph-name="x" unicode="x" horiz-adv-x="574" 
d="M327 0v54l62 9l-111 145l-115 -145l66 -9v-54h-218v54l53 10q8 2 12.5 5t11.5 11l142 177l-136 174q-7 8 -11 11t-13 6l-44 11l10 55h210v-55l-62 -8l106 -136l110 136l-63 8l10 55h194v-55l-46 -10q-9 -3 -14 -7t-11 -12l-132 -163l145 -185q7 -8 12 -12t14 -6l55 -10
v-54h-237z" />
    <glyph glyph-name="y" unicode="y" horiz-adv-x="582" 
d="M98 -212v55l72 9q9 1 13 5.5t9 15.5l58 133l-180 426q-4 9 -8 12t-13 5l-41 10l12 55h207v-55l-66 -8l133 -336l139 336l-68 8l11 55h198v-55l-34 -5q-9 -2 -15 -5.5t-10 -11.5l-243 -585l97 -10v-54h-271z" />
    <glyph glyph-name="z" unicode="z" horiz-adv-x="488" 
d="M39 0v54l299 393h-198q-6 0 -8 -4t-3 -9l-12 -63l-68 -4v147h400v-56l-297 -391h211q7 0 8.5 4t2.5 9l12 74l69 3v-157h-416z" />
    <glyph glyph-name="braceleft" unicode="{" horiz-adv-x="290" 
d="M251 -147q-44 3 -76 10.5t-52 22t-29.5 37t-9.5 56.5q0 42 6.5 93t6.5 99q0 27 -6.5 44t-18 26.5t-27 13t-33.5 4.5v59q18 1 33.5 4.5t27 13t18 26.5t6.5 44q0 24 -2 49.5t-4.5 51t-4.5 49.5t-2 45q0 34 9.5 56.5t29.5 37t52 22t76 10.5l10 -58q-24 -5 -40.5 -10
t-26.5 -12.5t-14.5 -19t-4.5 -30.5q0 -40 6.5 -91t6.5 -101q0 -29 -5.5 -48.5t-15 -33t-22 -21.5t-25.5 -14q13 -6 25.5 -14t22 -21t15 -32.5t5.5 -48.5q0 -50 -6.5 -99t-6.5 -90q0 -19 4.5 -30.5t14.5 -19t26.5 -12.5t40.5 -10z" />
    <glyph glyph-name="bar" unicode="|" horiz-adv-x="280" 
d="M99 -143v898h82v-898h-82z" />
    <glyph glyph-name="braceright" unicode="}" horiz-adv-x="290" 
d="M29 -89q24 5 40.5 10t26.5 12.5t14.5 19t4.5 30.5q0 41 -6.5 90t-6.5 99q0 29 5.5 48.5t15 32.5t21.5 21t26 14q-14 6 -26 14t-21.5 21.5t-15 33t-5.5 48.5q0 50 6.5 101t6.5 91q0 19 -4.5 30.5t-14.5 19t-26.5 12.5t-40.5 10l10 58q44 -3 75.5 -10.5t52 -22t30 -37
t9.5 -56.5q0 -21 -2 -45t-4.5 -49.5t-4.5 -51t-2 -49.5q0 -27 6.5 -44t18 -26.5t27 -13t33.5 -4.5v-59q-18 -1 -33.5 -4.5t-27 -13t-18 -26.5t-6.5 -44q0 -48 6.5 -99t6.5 -93q0 -34 -9.5 -56.5t-30 -37t-52 -22t-75.5 -10.5z" />
    <glyph glyph-name="asciitilde" unicode="~" horiz-adv-x="482" 
d="M466 407q-11 -50 -32 -81t-67 -31q-27 0 -57.5 7t-60.5 16t-58 16t-50 7q-24 0 -39 -12.5t-32 -40.5l-51 23q19 46 45 76t71 30q28 0 57.5 -7t58 -16t55.5 -16t51 -7t34.5 13t20.5 41z" />
    <glyph glyph-name="uni00A0" unicode="&#xa0;" horiz-adv-x="222" 
 />
    <glyph glyph-name="exclamdown" unicode="&#xa1;" horiz-adv-x="262" 
d="M175 322l12 -371v-166h-101v166l14 371h75zM204 458q0 -63 -66 -63t-66 63t66 63t66 -63z" />
    <glyph glyph-name="cent" unicode="&#xa2;" horiz-adv-x="497" 
d="M320 103q17 2 31.5 4t22.5 4q6 2 7.5 5t2.5 10l12 65l63 3v-131q-19 -9 -55 -19t-84 -12v-99h-71v102q-90 12 -142 71t-52 174q0 56 14 99t39.5 74t61.5 49.5t79 25.5v103h71v-99q49 -2 83 -12t54 -19v-131l-63 3l-11 63q-2 7 -3.5 10.5t-8.5 5.5q-8 2 -21.5 4.5
t-29.5 3.5v-357zM151 286q0 -77 25.5 -120t72.5 -57v344q-46 -14 -72 -54.5t-26 -112.5z" />
    <glyph glyph-name="sterling" unicode="&#xa3;" horiz-adv-x="552" 
d="M50 0l-13 59q28 22 43.5 43.5t23 47t8.5 57.5t1 76v14h-80v71h80v63q0 45 10.5 84.5t35.5 69t66 46.5t103 17q34 0 65 -5.5t55 -21.5t38.5 -45t14.5 -75l-84 -12q0 50 -21.5 67t-68.5 17q-63 0 -92.5 -34.5t-29.5 -112.5v-58h181v-71h-181q0 -39 -1 -70.5t-7 -59
t-19 -51.5t-37 -48h263q8 0 10.5 2t4.5 9l16 85h66v-164h-451z" />
    <glyph glyph-name="currency" unicode="&#xa4;" 
d="M504 7l-90 88q-26 -18 -57.5 -27t-72.5 -9q-42 0 -75 10t-59 28l-90 -90l-57 59l93 93q-14 27 -22 59.5t-8 64.5q0 30 8.5 59.5t23.5 57.5l-92 91l61 61l88 -87q26 20 60.5 30.5t74.5 10.5t74.5 -10.5t60.5 -28.5l84 84l58 -59l-88 -88q14 -25 21.5 -55t7.5 -62
q0 -35 -9 -68t-26 -61l93 -92zM289 136q31 0 55 11.5t40 31.5t24 46.5t8 57.5q0 68 -32.5 106t-97.5 38q-63 0 -95 -40.5t-32 -103.5q0 -31 7.5 -57.5t23 -46.5t40 -31.5t59.5 -11.5z" />
    <glyph glyph-name="yen" unicode="&#xa5;" horiz-adv-x="532" 
d="M317 294v-57h133v-62h-133v-93q0 -12 2.5 -15.5t13.5 -4.5l99 -8v-54h-318v54l89 7q16 2 19 6t3 15v93h-132v62h132v57h-132v62h93l-128 189q-5 8 -10.5 12.5t-14.5 6.5l-45 11l10 54h218v-54l-71 -9l128 -201l128 201l-70 9l10 54h203v-54l-42 -11q-9 -2 -14.5 -6.5
t-10.5 -12.5l-124 -189h97v-62h-133z" />
    <glyph glyph-name="brokenbar" unicode="&#xa6;" horiz-adv-x="280" 
d="M99 -143v388h82v-388h-82zM99 408v347h82v-347h-82z" />
    <glyph glyph-name="section" unicode="&#xa7;" horiz-adv-x="548" 
d="M80 19l67 -4l12 -64q1 -5 2.5 -8t8.5 -5q10 -4 36 -10t57 -6q47 0 73.5 19t26.5 61q0 23 -11.5 38t-31 25t-44.5 17t-51 14q-28 7 -54.5 17t-47.5 25.5t-34 40t-13 60.5q0 45 22.5 79t51.5 55q-23 17 -36.5 42t-13.5 63q0 40 15.5 68.5t41.5 46.5t61 26.5t73 8.5
q58 0 100 -10.5t58 -17.5v-129l-67 4l-11 63q-1 10 -13 14q-11 4 -29 7t-46 3q-54 0 -76.5 -22t-22.5 -54q0 -21 10.5 -34.5t28 -23.5t40.5 -16.5t48 -13.5q29 -8 57.5 -18t51.5 -26.5t37.5 -42t14.5 -65.5q0 -45 -22.5 -77t-51.5 -53q22 -16 36 -39.5t14 -58.5
q0 -45 -16 -76t-42.5 -49.5t-61 -26.5t-71.5 -8q-29 0 -57.5 4t-53 9.5t-42.5 11t-24 9.5v127zM211 343q-24 -15 -39 -39t-15 -47q0 -38 28 -55.5t68 -29.5q20 -6 41.5 -12.5t41.5 -13.5q25 15 39 38.5t14 53.5q0 35 -25.5 51.5t-61.5 27.5q-23 7 -46.5 13t-44.5 13z" />
    <glyph glyph-name="dieresis" unicode="&#xa8;" horiz-adv-x="500" 
d="M204 660q0 -25 -15 -40t-41 -15q-25 0 -40.5 15t-15.5 40q0 26 15.5 40.5t40.5 14.5q26 0 41 -14.5t15 -40.5zM406 660q0 -25 -15 -40t-41 -15t-41 15t-15 40q0 26 15 40.5t41 14.5t41 -14.5t15 -40.5z" />
    <glyph glyph-name="copyright" unicode="&#xa9;" horiz-adv-x="762" 
d="M713 319q0 -75 -24.5 -136t-68 -104.5t-105 -67.5t-134.5 -24q-83 0 -145 24.5t-103.5 67t-62.5 100.5t-21 126q0 78 26 139.5t71.5 104t106.5 65t130 22.5q76 0 137.5 -22.5t104 -63.5t65.5 -100t23 -131zM383 38q63 0 113.5 19t85.5 54.5t54 86.5t19 115
q0 66 -20.5 117t-56.5 85.5t-86 52t-109 17.5t-109 -18.5t-87 -54.5t-57.5 -88t-20.5 -118q0 -126 72.5 -197t201.5 -71zM507 144q-20 -12 -52 -18t-62 -6q-51 0 -87 14.5t-58.5 41t-32.5 62t-10 77.5t12 78t36 61.5t59.5 40t83.5 14.5q31 0 62.5 -6.5t49.5 -13.5v-105
l-44 2l-9 49q-1 9 -9 13q-12 5 -25 7.5t-33 2.5q-23 0 -44 -7.5t-36.5 -25t-24.5 -45t-9 -67.5q0 -30 6.5 -56t21 -45.5t37.5 -30.5t56 -11q35 0 52 11q6 4 9 15l12 48h39v-100z" />
    <glyph glyph-name="ordfeminine" unicode="&#xaa;" horiz-adv-x="375" 
d="M254 282l-6 38l-3 1q-23 -20 -50.5 -33.5t-66.5 -13.5q-30 0 -49 8.5t-29 22t-13.5 29.5t-3.5 31q0 53 30.5 74.5t92.5 26.5l84 7v33q0 31 -10 47t-49 16q-14 0 -25.5 -1t-19.5 -5.5t-12.5 -14t-4.5 -26.5l-71 7q0 31 13 49t33.5 27.5t44 12.5t44.5 3q36 0 61.5 -5.5
t41 -18.5t22.5 -35.5t7 -55.5v-165q0 -8 1.5 -10t9.5 -3l32 -5v-41h-104zM240 425l-64 -6q-38 -4 -52 -14t-14 -34q0 -22 11 -30.5t32 -8.5q26 0 49.5 13t37.5 27v53z" />
    <glyph glyph-name="guillemotleft" unicode="&#xab;" horiz-adv-x="434" 
d="M144 103l-87 156l89 149h82l-75 -137q-4 -7 -4 -10t3 -9l74 -149h-82zM300 103l-87 156l89 149h82l-75 -137q-4 -7 -4 -10t3 -9l74 -149h-82z" />
    <glyph glyph-name="logicalnot" unicode="&#xac;" 
d="M390 191v94h-296v81h377v-175h-81z" />
    <glyph glyph-name="uni00AD" unicode="&#xad;" horiz-adv-x="311" 
d="M20 247v89h271v-89h-271z" />
    <glyph glyph-name="registered" unicode="&#xae;" horiz-adv-x="449" 
d="M409 480q0 -41 -13.5 -75t-38 -58t-58.5 -37.5t-75 -13.5q-45 0 -79.5 13.5t-58 37.5t-35 56t-11.5 70q0 43 14.5 77t39.5 58t58.5 37t72.5 13q42 0 76 -13t58 -36t37 -56t13 -73zM367 477q0 70 -40 106t-102 36q-30 0 -56 -9.5t-45 -28.5t-30 -46t-11 -61
q0 -66 38 -102.5t104 -36.5t104 38t38 104zM239 384v21l19 3l-21 40q-4 7 -8 9t-12 2h-14v-46q0 -5 4 -6l16 -2v-21h-80v21l14 2q7 1 7 6v132q0 7 -6 8l-15 2v20h88q39 0 52 -16.5t13 -37.5q0 -39 -37 -52q8 -2 17 -19l20 -36q2 -5 8 -6l17 -3v-21h-82zM216 489
q16 0 28.5 5.5t12.5 24.5q0 17 -9.5 21.5t-25.5 4.5h-19v-56h13z" />
    <glyph glyph-name="macron" unicode="&#xaf;" horiz-adv-x="500" 
d="M96 611v69h307v-69h-307z" />
    <glyph glyph-name="degree" unicode="&#xb0;" horiz-adv-x="301" 
d="M151 611q24 0 37 15t13 41t-13.5 39.5t-36.5 13.5t-37 -14t-14 -43q0 -23 13 -37.5t38 -14.5zM255 667q0 -49 -28 -77t-76 -28t-76.5 27t-28.5 74q0 51 30.5 78.5t74.5 27.5q45 0 74.5 -26.5t29.5 -75.5z" />
    <glyph glyph-name="plusminus" unicode="&#xb1;" 
d="M96 0v80h377v-80h-377zM243 132v149h-147v81h147v150h83v-150h147v-81h-147v-149h-83z" />
    <glyph glyph-name="twosuperior" unicode="&#xb2;" horiz-adv-x="359" 
d="M27 350v50l128 151q19 24 33.5 42.5t24.5 34t14.5 29.5t4.5 30q0 25 -14 39t-52 14q-31 0 -46 -13.5t-15 -49.5l-72 8q0 37 12.5 59.5t33 35t45.5 16.5t49 4q75 0 108.5 -29t33.5 -78q0 -44 -22.5 -80.5t-55.5 -74.5l-112 -133h132q5 0 6.5 1.5t3.5 5.5l9 52h59v-114
h-308z" />
    <glyph glyph-name="threesuperior" unicode="&#xb3;" horiz-adv-x="363" 
d="M243 583q42 -9 64.5 -35.5t22.5 -72.5q0 -65 -45.5 -99t-115.5 -34q-48 0 -88 15.5t-66 42.5l45 51q17 -17 43.5 -31t61.5 -14q34 0 57.5 16.5t23.5 56.5q0 39 -23 54.5t-60 15.5q-10 0 -21.5 -1t-24.5 -3v58l36 4q36 4 60.5 20t24.5 56q0 26 -14.5 41.5t-51.5 15.5
q-31 0 -46 -13.5t-15 -48.5l-75 8q0 34 12.5 56t33 35t45.5 18t50 5q143 0 143 -109q0 -42 -21.5 -68t-55.5 -37v-3z" />
    <glyph glyph-name="acute" unicode="&#xb4;" horiz-adv-x="500" 
d="M182 567l-39 37l155 164l60 -60z" />
    <glyph glyph-name="mu" unicode="&#xb5;" horiz-adv-x="617" 
d="M406 514h91v-412q0 -22 6.5 -29.5t18.5 -9.5l60 -9v-49q-1 0 -7.5 -2.5t-17 -5t-23.5 -4.5t-28 -2q-24 0 -40 6t-26 17t-15 26t-7 32q-1 0 -1 0.5t-1 0.5q-32 -31 -76.5 -57t-94.5 -26q-57 0 -84 33l-1 -1l9 -234h-96v726h91v-329q0 -65 18 -94t66 -29q24 0 47 8t43 21
t37.5 28t30.5 30v365z" />
    <glyph glyph-name="paragraph" unicode="&#xb6;" horiz-adv-x="562" 
d="M380 -133v712h-83v-712h-153v54l67 8q8 1 10.5 4.5t2.5 11.5v225q-100 8 -154.5 68.5t-54.5 160.5q0 67 22 114t60 76.5t88 42.5t107 13h245v-54l-67 -8q-11 -2 -13.5 -5t-2.5 -14v-619q0 -10 3 -12t13 -4l67 -8v-54h-157z" />
    <glyph glyph-name="periodcentered" unicode="&#xb7;" horiz-adv-x="194" 
d="M163 308q0 -63 -66 -63t-66 63t66 63t66 -63z" />
    <glyph glyph-name="cedilla" unicode="&#xb8;" horiz-adv-x="500" 
d="M147 -180q15 -3 31 -3q38 0 55.5 15t17.5 39q0 21 -15.5 32.5t-54.5 12.5l15 114l58 -8l-9 -66q29 -6 51.5 -25.5t22.5 -56.5q0 -20 -7 -39.5t-23 -35t-42 -25.5t-63 -10q-11 0 -23 1t-20 3z" />
    <glyph glyph-name="onesuperior" unicode="&#xb9;" horiz-adv-x="261" 
d="M25 350v47l59 6q7 1 8.5 3t1.5 10v302q0 11 -9 14l-60 11l6 47h147v-374q0 -8 1.5 -10t8.5 -3l58 -6v-47h-221z" />
    <glyph glyph-name="ordmasculine" unicode="&#xba;" horiz-adv-x="393" 
d="M195 274q-44 0 -75.5 13t-51.5 36t-29.5 55.5t-9.5 70.5q0 77 42 124.5t130 47.5q44 0 75 -12.5t50.5 -34.5t28.5 -53t9 -67q0 -82 -40.5 -131t-128.5 -49zM197 327q43 0 65.5 29.5t22.5 92.5q0 62 -21 89.5t-64 27.5q-44 0 -68.5 -27t-24.5 -90t23 -92.5t67 -29.5z" />
    <glyph glyph-name="guillemotright" unicode="&#xbb;" horiz-adv-x="433" 
d="M50 103l74 142q4 7 4 10t-3 9l-75 144h82l88 -153l-88 -152h-82zM206 103l74 142q4 7 4 10t-3 9l-75 144h82l88 -153l-88 -152h-82z" />
    <glyph glyph-name="onequarter" unicode="&#xbc;" horiz-adv-x="890" 
d="M70 282v47l59 6q7 1 8.5 3t1.5 10v302q0 11 -9 14l-60 11l6 47h147v-374q0 -8 1.5 -10t8.5 -3l58 -6v-47h-221zM216 -17l358 741h84l-357 -741h-85zM685 1v84h-198v63l181 291h95v-290h56v-65h-57v-83h-77zM685 349l-122 -200h122v200z" />
    <glyph glyph-name="onehalf" unicode="&#xbd;" horiz-adv-x="890" 
d="M66 282v47l59 6q7 1 8.5 3t1.5 10v302q0 11 -9 14l-60 11l6 47h147v-374q0 -8 1.5 -10t8.5 -3l58 -6v-47h-221zM186 -17l358 741h84l-357 -741h-85zM515 1v50l128 151q19 24 33.5 42.5t24.5 34t14.5 29.5t4.5 30q0 25 -14 39t-52 14q-31 0 -46 -13.5t-15 -49.5l-72 8
q0 37 12.5 59.5t33 35t45.5 16.5t49 4q75 0 108.5 -29t33.5 -78q0 -44 -22.5 -80.5t-55.5 -74.5l-112 -133h132q5 0 6.5 1.5t3.5 5.5l9 52h59v-114h-308z" />
    <glyph glyph-name="threequarters" unicode="&#xbe;" horiz-adv-x="890" 
d="M267 515q42 -9 64.5 -35.5t22.5 -72.5q0 -65 -45.5 -99t-115.5 -34q-48 0 -88 15.5t-66 42.5l45 51q17 -17 43.5 -31t61.5 -14q34 0 57.5 16.5t23.5 56.5q0 39 -23 54.5t-60 15.5q-10 0 -21.5 -1t-24.5 -3v58l36 4q36 4 60.5 20t24.5 56q0 26 -14.5 41.5t-51.5 15.5
q-31 0 -46 -13.5t-15 -48.5l-75 8q0 34 12.5 56t33 35t45.5 18t50 5q143 0 143 -109q0 -42 -21.5 -68t-55.5 -37v-3zM250 -17l358 741h84l-357 -741h-85zM717 1v84h-198v63l181 291h95v-290h56v-65h-57v-83h-77zM717 349l-122 -200h122v200z" />
    <glyph glyph-name="questiondown" unicode="&#xbf;" horiz-adv-x="475" 
d="M346 323v-177q-39 -3 -76 -12t-66 -27.5t-47 -49.5t-18 -78q0 -54 32.5 -85.5t94.5 -31.5q33 0 54 4.5t32 10.5q5 3 7 7t4 15l10 57l71 5v-140q-25 -10 -74 -23t-108 -13q-48 0 -89 9.5t-70.5 31.5t-46 59t-16.5 93q0 52 15.5 91t44 67t68 45t87.5 25v117h91zM234 458
q0 63 66 63t66 -63t-66 -63t-66 63z" />
    <glyph glyph-name="Agrave" unicode="&#xc0;" horiz-adv-x="713" 
d="M461 0v54l82 9l-54 158h-279l-53 -158l81 -9v-54h-230v53l43 11q12 3 17 6.5t8 12.5l220 641h116l224 -642q3 -9 9 -12t15 -5l45 -11v-54h-244zM351 646l-118 -352h234zM226 867l46 73l188 -128l-30 -47z" />
    <glyph glyph-name="Aacute" unicode="&#xc1;" horiz-adv-x="713" 
d="M461 0v54l82 9l-54 158h-279l-53 -158l81 -9v-54h-230v53l43 11q12 3 17 6.5t8 12.5l220 641h116l224 -642q3 -9 9 -12t15 -5l45 -11v-54h-244zM351 646l-118 -352h234zM282 766l-29 46l188 129l45 -74z" />
    <glyph glyph-name="Acircumflex" unicode="&#xc2;" horiz-adv-x="713" 
d="M461 0v54l82 9l-54 158h-279l-53 -158l81 -9v-54h-230v53l43 11q12 3 17 6.5t8 12.5l220 641h116l224 -642q3 -9 9 -12t15 -5l45 -11v-54h-244zM351 646l-118 -352h234zM354 849l-119 -83l-40 41l117 102h84l117 -102l-40 -41z" />
    <glyph glyph-name="Atilde" unicode="&#xc3;" horiz-adv-x="713" 
d="M461 0v54l82 9l-54 158h-279l-53 -158l81 -9v-54h-230v53l43 11q12 3 17 6.5t8 12.5l220 641h116l224 -642q3 -9 9 -12t15 -5l45 -11v-54h-244zM351 646l-118 -352h234zM507 832q-18 -27 -32 -38.5t-32 -11.5q-19 0 -43 7q-35 9 -70.5 19t-52.5 14q-10 1 -16 -5l-39 -38
l-42 30l29 44q15 23 29 32.5t31 9.5q9 0 19 -2t23 -5q16 -4 34.5 -9t36 -9.5t32 -8.5t21.5 -5q9 -3 15 3l36 37l44 -29z" />
    <glyph glyph-name="Adieresis" unicode="&#xc4;" horiz-adv-x="713" 
d="M461 0v54l82 9l-54 158h-279l-53 -158l81 -9v-54h-230v53l43 11q12 3 17 6.5t8 12.5l220 641h116l224 -642q3 -9 9 -12t15 -5l45 -11v-54h-244zM351 646l-118 -352h234zM309 837q0 -26 -15 -40.5t-41 -14.5q-25 0 -40.5 14.5t-15.5 40.5q0 25 15.5 39.5t40.5 14.5
q26 0 41 -14.5t15 -39.5zM511 837q0 -26 -15 -40.5t-41 -14.5t-41 14.5t-15 40.5q0 25 15 39.5t41 14.5t41 -14.5t15 -39.5z" />
    <glyph glyph-name="Aring" unicode="&#xc5;" horiz-adv-x="713" 
d="M461 0v54l82 9l-54 158h-279l-53 -158l81 -9v-54h-230v53l43 11q12 3 17 6.5t8 12.5l220 641h116l224 -642q3 -9 9 -12t15 -5l45 -11v-54h-244zM351 646l-118 -352h234zM449 845q0 -45 -27 -71t-72 -26t-72 25t-27 69q0 48 28.5 73t70.5 25t70.5 -23.5t28.5 -71.5z
M350 799q42 0 42 46q0 23 -11 33.5t-31 10.5t-31.5 -11t-11.5 -35q0 -44 43 -44z" />
    <glyph glyph-name="AE" unicode="&#xc6;" horiz-adv-x="997" 
d="M433 0v54l66 6q8 1 10.5 5t2.5 12v244h-219l-141 -258l73 -9v-54h-217v54l37 9q9 2 15 5t10.5 7.5t8.5 11t9 16.5l302 558l-76 8v55h619v-165l-68 4l-14 77q-1 6 -3 9.5t-10 3.5h-236v-261h267v-71h-267v-250h254q8 0 11 1.5t5 9.5l16 87h67v-169h-522zM512 653h-41
l-142 -258h183v258z" />
    <glyph glyph-name="Ccedilla" unicode="&#xc7;" horiz-adv-x="690" 
d="M304 -180q13 -3 30 -3q38 0 55.5 15t17.5 39q0 21 -15 32.5t-55 12.5l10 74q-80 6 -136.5 36t-92.5 78.5t-53 114t-17 143.5q0 81 22.5 150t67 119t112 78t157.5 28q66 0 124.5 -14.5t96.5 -39.5v-160l-68 4l-17 95q-1 7 -3 11.5t-10 6.5q-26 9 -59 15.5t-68 6.5
q-59 0 -107 -19.5t-81.5 -57t-52 -94t-18.5 -129.5q0 -147 67 -223t185 -76q34 0 72.5 4.5t67.5 16.5q6 2 9 5.5t5 12.5l16 90h64v-151q-38 -26 -99 -39t-126 -14l-4 -32q29 -6 51.5 -25.5t22.5 -56.5q0 -20 -7 -39.5t-23 -35t-41.5 -25.5t-62.5 -10q-11 0 -23 1t-21 3z" />
    <glyph glyph-name="Egrave" unicode="&#xc8;" horiz-adv-x="635" 
d="M61 0v54l63 7q11 2 13.5 5.5t2.5 14.5v561q0 11 -2.5 15t-13.5 5l-63 7v55h502v-165l-68 4l-14 77q-3 13 -17 13h-232v-252h267v-72h-267v-258h254q8 0 11 1.5t5 9.5l16 87h67v-169h-524zM192 867l46 73l188 -128l-30 -47z" />
    <glyph glyph-name="Eacute" unicode="&#xc9;" horiz-adv-x="635" 
d="M61 0v54l63 7q11 2 13.5 5.5t2.5 14.5v561q0 11 -2.5 15t-13.5 5l-63 7v55h502v-165l-68 4l-14 77q-3 13 -17 13h-232v-252h267v-72h-267v-258h254q8 0 11 1.5t5 9.5l16 87h67v-169h-524zM248 766l-29 46l188 129l45 -74z" />
    <glyph glyph-name="Ecircumflex" unicode="&#xca;" horiz-adv-x="635" 
d="M61 0v54l63 7q11 2 13.5 5.5t2.5 14.5v561q0 11 -2.5 15t-13.5 5l-63 7v55h502v-165l-68 4l-14 77q-3 13 -17 13h-232v-252h267v-72h-267v-258h254q8 0 11 1.5t5 9.5l16 87h67v-169h-524zM320 849l-119 -83l-40 41l117 102h84l117 -102l-40 -41z" />
    <glyph glyph-name="Edieresis" unicode="&#xcb;" horiz-adv-x="635" 
d="M61 0v54l63 7q11 2 13.5 5.5t2.5 14.5v561q0 11 -2.5 15t-13.5 5l-63 7v55h502v-165l-68 4l-14 77q-3 13 -17 13h-232v-252h267v-72h-267v-258h254q8 0 11 1.5t5 9.5l16 87h67v-169h-524zM275 837q0 -26 -15 -40.5t-41 -14.5q-25 0 -40.5 14.5t-15.5 40.5q0 25 15.5 39.5
t40.5 14.5q26 0 41 -14.5t15 -39.5zM477 837q0 -26 -15 -40.5t-41 -14.5t-41 14.5t-15 40.5q0 25 15 39.5t41 14.5t41 -14.5t15 -39.5z" />
    <glyph glyph-name="Igrave" unicode="&#xcc;" horiz-adv-x="382" 
d="M56 0v54l73 7q11 1 13.5 5t2.5 15v562q0 11 -2.5 15t-13.5 5l-73 7v54h274v-54l-77 -8q-11 -2 -13.5 -5t-2.5 -14v-561q0 -12 2.5 -15t13.5 -5l77 -8v-54h-274zM66 867l46 73l188 -128l-30 -47z" />
    <glyph glyph-name="Iacute" unicode="&#xcd;" horiz-adv-x="382" 
d="M56 0v54l73 7q11 1 13.5 5t2.5 15v562q0 11 -2.5 15t-13.5 5l-73 7v54h274v-54l-77 -8q-11 -2 -13.5 -5t-2.5 -14v-561q0 -12 2.5 -15t13.5 -5l77 -8v-54h-274zM122 766l-29 46l188 129l45 -74z" />
    <glyph glyph-name="Icircumflex" unicode="&#xce;" horiz-adv-x="382" 
d="M56 0v54l73 7q11 1 13.5 5t2.5 15v562q0 11 -2.5 15t-13.5 5l-73 7v54h274v-54l-77 -8q-11 -2 -13.5 -5t-2.5 -14v-561q0 -12 2.5 -15t13.5 -5l77 -8v-54h-274zM194 849l-119 -83l-40 41l117 102h84l117 -102l-40 -41z" />
    <glyph glyph-name="Idieresis" unicode="&#xcf;" horiz-adv-x="382" 
d="M56 0v54l73 7q11 1 13.5 5t2.5 15v562q0 11 -2.5 15t-13.5 5l-73 7v54h274v-54l-77 -8q-11 -2 -13.5 -5t-2.5 -14v-561q0 -12 2.5 -15t13.5 -5l77 -8v-54h-274zM149 837q0 -26 -15 -40.5t-41 -14.5q-25 0 -40.5 14.5t-15.5 40.5q0 25 15.5 39.5t40.5 14.5q26 0 41 -14.5
t15 -39.5zM351 837q0 -26 -15 -40.5t-41 -14.5t-41 14.5t-15 40.5q0 25 15 39.5t41 14.5t41 -14.5t15 -39.5z" />
    <glyph glyph-name="Eth" unicode="&#xd0;" horiz-adv-x="777" 
d="M71 0v54l63 7q11 2 13.5 5.5t2.5 14.5v250h-75v72h75v239q0 11 -2.5 15t-13.5 5l-63 7v55h299q94 0 162 -24.5t111.5 -70t64.5 -110.5t21 -146q0 -83 -22.5 -152t-68.5 -118t-117 -76t-168 -27h-282zM352 73q143 0 212.5 76.5t69.5 210.5q0 84 -18.5 140t-53.5 89.5
t-86.5 48t-117.5 14.5h-116v-249h180v-72h-180v-258h110z" />
    <glyph glyph-name="Ntilde" unicode="&#xd1;" horiz-adv-x="828" 
d="M586 0l-365 605v-523q0 -12 2.5 -15t13.5 -5l67 -8v-54h-243v54l63 7q11 2 13.5 5.5t2.5 14.5v562q0 11 -2.5 15t-13.5 5l-63 7v55h196l356 -601v519q0 11 -2.5 15t-13.5 5l-63 7v54h242v-54l-67 -8q-11 -2 -13.5 -5t-2.5 -14v-643h-107zM584 832q-18 -27 -32 -38.5
t-32 -11.5q-19 0 -43 7q-35 9 -70.5 19t-52.5 14q-10 1 -16 -5l-39 -38l-42 30l29 44q15 23 29 32.5t31 9.5q9 0 19 -2t23 -5q16 -4 34.5 -9t36 -9.5t32 -8.5t21.5 -5q9 -3 15 3l36 37l44 -29z" />
    <glyph glyph-name="Ograve" unicode="&#xd2;" horiz-adv-x="777" 
d="M384 -12q-87 0 -150 28t-104 78t-60.5 119.5t-19.5 152.5q0 79 22.5 147t66 118t108.5 78t151 28q85 0 147 -28t102.5 -76.5t60 -114.5t19.5 -141q0 -89 -21.5 -160.5t-64 -122.5t-107 -78.5t-150.5 -27.5zM389 65q54 0 99 18t77 55.5t49.5 94.5t17.5 134
q0 145 -63.5 219t-172.5 74q-55 0 -101 -19t-79.5 -56t-52 -92t-18.5 -127q0 -75 17.5 -131.5t49.5 -94t77 -56.5t100 -19zM268 868l46 73l188 -128l-30 -47z" />
    <glyph glyph-name="Oacute" unicode="&#xd3;" horiz-adv-x="777" 
d="M384 -12q-87 0 -150 28t-104 78t-60.5 119.5t-19.5 152.5q0 79 22.5 147t66 118t108.5 78t151 28q85 0 147 -28t102.5 -76.5t60 -114.5t19.5 -141q0 -89 -21.5 -160.5t-64 -122.5t-107 -78.5t-150.5 -27.5zM389 65q54 0 99 18t77 55.5t49.5 94.5t17.5 134
q0 145 -63.5 219t-172.5 74q-55 0 -101 -19t-79.5 -56t-52 -92t-18.5 -127q0 -75 17.5 -131.5t49.5 -94t77 -56.5t100 -19zM324 767l-29 46l188 129l45 -74z" />
    <glyph glyph-name="Ocircumflex" unicode="&#xd4;" horiz-adv-x="777" 
d="M384 -12q-87 0 -150 28t-104 78t-60.5 119.5t-19.5 152.5q0 79 22.5 147t66 118t108.5 78t151 28q85 0 147 -28t102.5 -76.5t60 -114.5t19.5 -141q0 -89 -21.5 -160.5t-64 -122.5t-107 -78.5t-150.5 -27.5zM389 65q54 0 99 18t77 55.5t49.5 94.5t17.5 134
q0 145 -63.5 219t-172.5 74q-55 0 -101 -19t-79.5 -56t-52 -92t-18.5 -127q0 -75 17.5 -131.5t49.5 -94t77 -56.5t100 -19zM396 850l-119 -83l-40 41l117 102h84l117 -102l-40 -41z" />
    <glyph glyph-name="Otilde" unicode="&#xd5;" horiz-adv-x="777" 
d="M384 -12q-87 0 -150 28t-104 78t-60.5 119.5t-19.5 152.5q0 79 22.5 147t66 118t108.5 78t151 28q85 0 147 -28t102.5 -76.5t60 -114.5t19.5 -141q0 -89 -21.5 -160.5t-64 -122.5t-107 -78.5t-150.5 -27.5zM389 65q54 0 99 18t77 55.5t49.5 94.5t17.5 134
q0 145 -63.5 219t-172.5 74q-55 0 -101 -19t-79.5 -56t-52 -92t-18.5 -127q0 -75 17.5 -131.5t49.5 -94t77 -56.5t100 -19zM549 833q-18 -27 -32 -38.5t-32 -11.5q-19 0 -43 7q-35 9 -70.5 19t-52.5 14q-10 1 -16 -5l-39 -38l-42 30l29 44q15 23 29 32.5t31 9.5q9 0 19 -2
t23 -5q16 -4 34.5 -9t36 -9.5t32 -8.5t21.5 -5q9 -3 15 3l36 37l44 -29z" />
    <glyph glyph-name="Odieresis" unicode="&#xd6;" horiz-adv-x="777" 
d="M384 -12q-87 0 -150 28t-104 78t-60.5 119.5t-19.5 152.5q0 79 22.5 147t66 118t108.5 78t151 28q85 0 147 -28t102.5 -76.5t60 -114.5t19.5 -141q0 -89 -21.5 -160.5t-64 -122.5t-107 -78.5t-150.5 -27.5zM389 65q54 0 99 18t77 55.5t49.5 94.5t17.5 134
q0 145 -63.5 219t-172.5 74q-55 0 -101 -19t-79.5 -56t-52 -92t-18.5 -127q0 -75 17.5 -131.5t49.5 -94t77 -56.5t100 -19zM351 838q0 -26 -15 -40.5t-41 -14.5q-25 0 -40.5 14.5t-15.5 40.5q0 25 15.5 39.5t40.5 14.5q26 0 41 -14.5t15 -39.5zM553 838q0 -26 -15 -40.5
t-41 -14.5t-41 14.5t-15 40.5q0 25 15 39.5t41 14.5t41 -14.5t15 -39.5z" />
    <glyph glyph-name="multiply" unicode="&#xd7;" 
d="M284 262l-104 -106l-59 58l106 106l-106 107l59 59l104 -106l106 106l58 -59l-105 -107l105 -106l-58 -58z" />
    <glyph glyph-name="Oslash" unicode="&#xd8;" horiz-adv-x="777" 
d="M162 -78l45 107q-81 46 -119 133.5t-38 203.5q0 79 22.5 147t66 118t108.5 78t151 28q27 0 52 -3.5t48 -8.5l27 64h87l-40 -94q40 -23 69 -55.5t48 -73.5t28.5 -89t9.5 -100q0 -89 -21.5 -160.5t-64 -122.5t-107 -78.5t-150.5 -27.5q-28 0 -53.5 3.5t-48.5 8.5l-32 -78
h-88zM145 366q0 -92 25 -155.5t71 -99.5l226 540q-33 9 -71 9q-55 0 -101 -19t-79.5 -56t-52 -92t-18.5 -127zM389 65q54 0 99 18t77 55.5t49.5 94.5t17.5 134q0 88 -24 150t-69 97l-225 -539q33 -10 75 -10z" />
    <glyph glyph-name="Ugrave" unicode="&#xd9;" horiz-adv-x="788" 
d="M571 643q0 11 -2.5 15t-13.5 5l-63 7v54h248v-54l-67 -8q-11 -2 -13.5 -5t-2.5 -14v-401q0 -130 -69.5 -192t-197.5 -62q-70 0 -119 16.5t-80 48.5t-45.5 80t-14.5 111v399q0 11 -2.5 15t-13.5 5l-63 7v54h254v-54l-67 -8q-11 -2 -13.5 -5t-2.5 -14v-388q0 -101 43 -145
t130 -44q44 0 77 9.5t54.5 31.5t32.5 57.5t11 87.5v391zM273 867l46 73l188 -128l-30 -47z" />
    <glyph glyph-name="Uacute" unicode="&#xda;" horiz-adv-x="788" 
d="M571 643q0 11 -2.5 15t-13.5 5l-63 7v54h248v-54l-67 -8q-11 -2 -13.5 -5t-2.5 -14v-401q0 -130 -69.5 -192t-197.5 -62q-70 0 -119 16.5t-80 48.5t-45.5 80t-14.5 111v399q0 11 -2.5 15t-13.5 5l-63 7v54h254v-54l-67 -8q-11 -2 -13.5 -5t-2.5 -14v-388q0 -101 43 -145
t130 -44q44 0 77 9.5t54.5 31.5t32.5 57.5t11 87.5v391zM329 766l-29 46l188 129l45 -74z" />
    <glyph glyph-name="Ucircumflex" unicode="&#xdb;" horiz-adv-x="788" 
d="M571 643q0 11 -2.5 15t-13.5 5l-63 7v54h248v-54l-67 -8q-11 -2 -13.5 -5t-2.5 -14v-401q0 -130 -69.5 -192t-197.5 -62q-70 0 -119 16.5t-80 48.5t-45.5 80t-14.5 111v399q0 11 -2.5 15t-13.5 5l-63 7v54h254v-54l-67 -8q-11 -2 -13.5 -5t-2.5 -14v-388q0 -101 43 -145
t130 -44q44 0 77 9.5t54.5 31.5t32.5 57.5t11 87.5v391zM401 849l-119 -83l-40 41l117 102h84l117 -102l-40 -41z" />
    <glyph glyph-name="Udieresis" unicode="&#xdc;" horiz-adv-x="788" 
d="M571 643q0 11 -2.5 15t-13.5 5l-63 7v54h248v-54l-67 -8q-11 -2 -13.5 -5t-2.5 -14v-401q0 -130 -69.5 -192t-197.5 -62q-70 0 -119 16.5t-80 48.5t-45.5 80t-14.5 111v399q0 11 -2.5 15t-13.5 5l-63 7v54h254v-54l-67 -8q-11 -2 -13.5 -5t-2.5 -14v-388q0 -101 43 -145
t130 -44q44 0 77 9.5t54.5 31.5t32.5 57.5t11 87.5v391zM356 837q0 -26 -15 -40.5t-41 -14.5q-25 0 -40.5 14.5t-15.5 40.5q0 25 15.5 39.5t40.5 14.5q26 0 41 -14.5t15 -39.5zM558 837q0 -26 -15 -40.5t-41 -14.5t-41 14.5t-15 40.5q0 25 15 39.5t41 14.5t41 -14.5
t15 -39.5z" />
    <glyph glyph-name="Yacute" unicode="&#xdd;" horiz-adv-x="619" 
d="M159 0v54l95 7q11 1 13.5 5t2.5 15v199l-200 362q-5 8 -10 11.5t-14 5.5l-45 11l10 54h224v-54l-75 -9l159 -299l154 299l-74 9l10 54h209v-54l-42 -11q-8 -2 -14 -6.5t-11 -12.5l-189 -357v-201q0 -12 2.5 -15t13.5 -5l100 -8v-54h-319zM247 766l-29 46l188 129l45 -74z
" />
    <glyph glyph-name="Thorn" unicode="&#xde;" horiz-adv-x="659" 
d="M61 0v54l63 7q11 2 13.5 5.5t2.5 14.5v561q0 11 -2.5 15t-13.5 5l-63 7v55h261v-54l-75 -8q-11 -2 -13.5 -5.5t-2.5 -14.5v-43h139q69 0 115.5 -15.5t74.5 -42.5t39.5 -64t11.5 -80q0 -61 -19 -105t-54.5 -72t-86.5 -41.5t-114 -13.5h-106v-83q0 -12 2.5 -15.5t13.5 -4.5
l143 -8v-54h-329zM329 237q38 0 72 6t59.5 23.5t40.5 48t15 78.5q0 77 -44 105.5t-130 28.5h-111v-290h98z" />
    <glyph glyph-name="germandbls" unicode="&#xdf;" horiz-adv-x="629" 
d="M27 0v55l62 6q11 1 13.5 5t2.5 15v471q0 58 16 98.5t45 66.5t71 38t94 12q115 0 165 -49t50 -132q0 -35 -9 -62.5t-24 -48.5t-35 -35.5t-42 -23.5v-4q37 -8 65.5 -22t47.5 -37t29 -58t10 -86q0 -47 -13 -87.5t-38.5 -70t-62.5 -46t-85 -16.5q-22 0 -44 3t-42 8
t-36.5 11.5t-28.5 13.5l25 62q26 -12 54 -20t62 -8q54 0 84 37t30 112q0 83 -37 122t-105 39q-19 0 -36 -0.5t-37 -2.5v70l58 6q60 7 88.5 45.5t28.5 91.5q0 61 -29.5 88.5t-94.5 27.5q-32 0 -56.5 -6.5t-41.5 -23.5t-26 -46t-9 -75v-544h-169z" />
    <glyph glyph-name="agrave" unicode="&#xe0;" horiz-adv-x="541" 
d="M380 0l-9 65l-3 1q-36 -34 -79.5 -56t-101.5 -22q-47 0 -75 14t-42.5 35t-19 45t-4.5 43q0 75 45.5 112t136.5 45l135 11v53q0 27 -3.5 47.5t-14.5 34t-30.5 20.5t-52.5 7q-23 0 -42 -1.5t-33.5 -9t-22.5 -23t-8 -43.5l-86 9q0 46 19 73t48 41.5t62.5 18.5t63.5 4
q53 0 89.5 -8.5t59 -29t32 -54.5t9.5 -86v-265q0 -12 2.5 -15t13.5 -5l51 -7v-54h-140zM363 230l-113 -10q-32 -3 -53.5 -9.5t-34 -16.5t-17.5 -25t-5 -34q0 -41 17.5 -58.5t52.5 -17.5q22 0 44.5 8t42.5 19.5t37 25t29 24.5v94zM317 567l-176 141l61 60l154 -164z" />
    <glyph glyph-name="aacute" unicode="&#xe1;" horiz-adv-x="541" 
d="M380 0l-9 65l-3 1q-36 -34 -79.5 -56t-101.5 -22q-47 0 -75 14t-42.5 35t-19 45t-4.5 43q0 75 45.5 112t136.5 45l135 11v53q0 27 -3.5 47.5t-14.5 34t-30.5 20.5t-52.5 7q-23 0 -42 -1.5t-33.5 -9t-22.5 -23t-8 -43.5l-86 9q0 46 19 73t48 41.5t62.5 18.5t63.5 4
q53 0 89.5 -8.5t59 -29t32 -54.5t9.5 -86v-265q0 -12 2.5 -15t13.5 -5l51 -7v-54h-140zM363 230l-113 -10q-32 -3 -53.5 -9.5t-34 -16.5t-17.5 -25t-5 -34q0 -41 17.5 -58.5t52.5 -17.5q22 0 44.5 8t42.5 19.5t37 25t29 24.5v94zM203 567l-39 37l155 164l60 -60z" />
    <glyph glyph-name="acircumflex" unicode="&#xe2;" horiz-adv-x="541" 
d="M380 0l-9 65l-3 1q-36 -34 -79.5 -56t-101.5 -22q-47 0 -75 14t-42.5 35t-19 45t-4.5 43q0 75 45.5 112t136.5 45l135 11v53q0 27 -3.5 47.5t-14.5 34t-30.5 20.5t-52.5 7q-23 0 -42 -1.5t-33.5 -9t-22.5 -23t-8 -43.5l-86 9q0 46 19 73t48 41.5t62.5 18.5t63.5 4
q53 0 89.5 -8.5t59 -29t32 -54.5t9.5 -86v-265q0 -12 2.5 -15t13.5 -5l51 -7v-54h-140zM363 230l-113 -10q-32 -3 -53.5 -9.5t-34 -16.5t-17.5 -25t-5 -34q0 -41 17.5 -58.5t52.5 -17.5q22 0 44.5 8t42.5 19.5t37 25t29 24.5v94zM388 572l-125 101l-125 -101l-44 38l127 123
h84l127 -123z" />
    <glyph glyph-name="atilde" unicode="&#xe3;" horiz-adv-x="541" 
d="M380 0l-9 65l-3 1q-36 -34 -79.5 -56t-101.5 -22q-47 0 -75 14t-42.5 35t-19 45t-4.5 43q0 75 45.5 112t136.5 45l135 11v53q0 27 -3.5 47.5t-14.5 34t-30.5 20.5t-52.5 7q-23 0 -42 -1.5t-33.5 -9t-22.5 -23t-8 -43.5l-86 9q0 46 19 73t48 41.5t62.5 18.5t63.5 4
q53 0 89.5 -8.5t59 -29t32 -54.5t9.5 -86v-265q0 -12 2.5 -15t13.5 -5l51 -7v-54h-140zM363 230l-113 -10q-32 -3 -53.5 -9.5t-34 -16.5t-17.5 -25t-5 -34q0 -41 17.5 -58.5t52.5 -17.5q22 0 44.5 8t42.5 19.5t37 25t29 24.5v94zM416 638q-18 -27 -32 -38.5t-32 -11.5
q-19 0 -43 7q-35 9 -70.5 19t-52.5 14q-10 1 -16 -5l-39 -38l-42 30l29 44q15 23 29 32.5t31 9.5q9 0 19 -2t23 -5q16 -4 34.5 -9t36 -9.5t32 -8.5t21.5 -5q9 -3 15 3l36 37l44 -29z" />
    <glyph glyph-name="adieresis" unicode="&#xe4;" horiz-adv-x="541" 
d="M380 0l-9 65l-3 1q-36 -34 -79.5 -56t-101.5 -22q-47 0 -75 14t-42.5 35t-19 45t-4.5 43q0 75 45.5 112t136.5 45l135 11v53q0 27 -3.5 47.5t-14.5 34t-30.5 20.5t-52.5 7q-23 0 -42 -1.5t-33.5 -9t-22.5 -23t-8 -43.5l-86 9q0 46 19 73t48 41.5t62.5 18.5t63.5 4
q53 0 89.5 -8.5t59 -29t32 -54.5t9.5 -86v-265q0 -12 2.5 -15t13.5 -5l51 -7v-54h-140zM363 230l-113 -10q-32 -3 -53.5 -9.5t-34 -16.5t-17.5 -25t-5 -34q0 -41 17.5 -58.5t52.5 -17.5q22 0 44.5 8t42.5 19.5t37 25t29 24.5v94zM218 660q0 -25 -15 -40t-41 -15
q-25 0 -40.5 15t-15.5 40q0 26 15.5 40.5t40.5 14.5q26 0 41 -14.5t15 -40.5zM420 660q0 -25 -15 -40t-41 -15t-41 15t-15 40q0 26 15 40.5t41 14.5t41 -14.5t15 -40.5z" />
    <glyph glyph-name="aring" unicode="&#xe5;" horiz-adv-x="541" 
d="M380 0l-9 65l-3 1q-36 -34 -79.5 -56t-101.5 -22q-47 0 -75 14t-42.5 35t-19 45t-4.5 43q0 75 45.5 112t136.5 45l135 11v53q0 27 -3.5 47.5t-14.5 34t-30.5 20.5t-52.5 7q-23 0 -42 -1.5t-33.5 -9t-22.5 -23t-8 -43.5l-86 9q0 46 19 73t48 41.5t62.5 18.5t63.5 4
q53 0 89.5 -8.5t59 -29t32 -54.5t9.5 -86v-265q0 -12 2.5 -15t13.5 -5l51 -7v-54h-140zM363 230l-113 -10q-32 -3 -53.5 -9.5t-34 -16.5t-17.5 -25t-5 -34q0 -41 17.5 -58.5t52.5 -17.5q22 0 44.5 8t42.5 19.5t37 25t29 24.5v94zM362 671q0 -45 -27 -71t-72 -26t-72 25
t-27 69q0 48 28.5 73t70.5 25t70.5 -23.5t28.5 -71.5zM263 625q42 0 42 46q0 23 -11 33.5t-31 10.5t-31.5 -11t-11.5 -35q0 -44 43 -44z" />
    <glyph glyph-name="ae" unicode="&#xe6;" horiz-adv-x="830" 
d="M780 33q-38 -21 -83 -33t-99 -12q-69 0 -114.5 22.5t-72.5 62.5q-53 -42 -104 -63.5t-114 -21.5q-49 0 -78 14t-44.5 35t-20 45t-4.5 43q0 75 45.5 112.5t136.5 45.5l135 11v52q0 27 -3.5 47.5t-14.5 34t-30.5 20.5t-52.5 7q-23 0 -42 -1.5t-33.5 -9t-22.5 -23t-8 -43.5
l-86 9q0 46 19 73t47.5 41.5t61.5 18.5t62 4q68 0 107.5 -17.5t58.5 -59.5q29 37 70.5 57t93.5 20q45 0 82.5 -13t64 -41t41 -73t14.5 -109q0 -13 -0.5 -26.5t-1.5 -26.5h-337q2 -80 37 -125t117 -45q21 0 38.5 2t34 6.5t34 11t37.5 16.5zM250 221q-32 -3 -53.5 -9.5
t-34 -17t-17.5 -25.5t-5 -35q0 -41 20.5 -58t56.5 -17q21 0 43.5 6.5t44.5 17t41.5 24.5t33.5 28q-14 45 -17 95zM700 304q0 42 -9.5 70.5t-25 45.5t-36.5 24t-44 7q-25 0 -47.5 -7.5t-40.5 -24.5t-29.5 -45t-14.5 -70h247z" />
    <glyph glyph-name="ccedilla" unicode="&#xe7;" horiz-adv-x="486" 
d="M191 -180q15 -3 31 -3q38 0 55.5 15t17.5 39q0 21 -15.5 32.5t-54.5 12.5l10 75q-51 7 -88 28.5t-60.5 55t-35 78.5t-11.5 98q0 71 19.5 122.5t54.5 85t83 49.5t105 16q55 0 95 -11.5t57 -19.5v-133l-67 3l-12 66q-1 5 -3 8.5t-9 5.5q-11 4 -29 6.5t-39 2.5
q-33 0 -62.5 -10.5t-51 -33.5t-34 -60t-12.5 -91q0 -53 12 -89.5t33.5 -60t51.5 -34t66 -10.5q38 0 72.5 10t55.5 23l29 -66q-27 -18 -70.5 -29t-91.5 -13l-4 -32q29 -6 51.5 -25.5t22.5 -56.5q0 -20 -7 -39.5t-23 -35t-42 -25.5t-63 -10q-11 0 -23 1t-20 3z" />
    <glyph glyph-name="egrave" unicode="&#xe8;" horiz-adv-x="511" 
d="M462 33q-38 -21 -83 -33t-99 -12q-68 0 -114 21t-74 57t-40 85t-12 105q0 69 18 119.5t49 83.5t72.5 49t88.5 16q46 0 84 -13t65 -41.5t42 -74t15 -110.5q0 -10 -0.5 -23.5t-1.5 -26.5h-336q1 -38 10 -69t27 -53.5t46.5 -35t69.5 -12.5q21 0 38.5 2t34.5 6.5t34 11
t37 16.5zM383 304q-1 43 -10.5 71t-25 45t-36 24t-43.5 7q-25 0 -47.5 -7.5t-40 -24.5t-29 -45t-14.5 -70h246zM320 567l-176 141l61 60l154 -164z" />
    <glyph glyph-name="eacute" unicode="&#xe9;" horiz-adv-x="511" 
d="M462 33q-38 -21 -83 -33t-99 -12q-68 0 -114 21t-74 57t-40 85t-12 105q0 69 18 119.5t49 83.5t72.5 49t88.5 16q46 0 84 -13t65 -41.5t42 -74t15 -110.5q0 -10 -0.5 -23.5t-1.5 -26.5h-336q1 -38 10 -69t27 -53.5t46.5 -35t69.5 -12.5q21 0 38.5 2t34.5 6.5t34 11
t37 16.5zM383 304q-1 43 -10.5 71t-25 45t-36 24t-43.5 7q-25 0 -47.5 -7.5t-40 -24.5t-29 -45t-14.5 -70h246zM206 567l-39 37l155 164l60 -60z" />
    <glyph glyph-name="ecircumflex" unicode="&#xea;" horiz-adv-x="511" 
d="M462 33q-38 -21 -83 -33t-99 -12q-68 0 -114 21t-74 57t-40 85t-12 105q0 69 18 119.5t49 83.5t72.5 49t88.5 16q46 0 84 -13t65 -41.5t42 -74t15 -110.5q0 -10 -0.5 -23.5t-1.5 -26.5h-336q1 -38 10 -69t27 -53.5t46.5 -35t69.5 -12.5q21 0 38.5 2t34.5 6.5t34 11
t37 16.5zM383 304q-1 43 -10.5 71t-25 45t-36 24t-43.5 7q-25 0 -47.5 -7.5t-40 -24.5t-29 -45t-14.5 -70h246zM391 572l-125 101l-125 -101l-44 38l127 123h84l127 -123z" />
    <glyph glyph-name="edieresis" unicode="&#xeb;" horiz-adv-x="511" 
d="M462 33q-38 -21 -83 -33t-99 -12q-68 0 -114 21t-74 57t-40 85t-12 105q0 69 18 119.5t49 83.5t72.5 49t88.5 16q46 0 84 -13t65 -41.5t42 -74t15 -110.5q0 -10 -0.5 -23.5t-1.5 -26.5h-336q1 -38 10 -69t27 -53.5t46.5 -35t69.5 -12.5q21 0 38.5 2t34.5 6.5t34 11
t37 16.5zM383 304q-1 43 -10.5 71t-25 45t-36 24t-43.5 7q-25 0 -47.5 -7.5t-40 -24.5t-29 -45t-14.5 -70h246zM221 660q0 -25 -15 -40t-41 -15q-25 0 -40.5 15t-15.5 40q0 26 15.5 40.5t40.5 14.5q26 0 41 -14.5t15 -40.5zM423 660q0 -25 -15 -40t-41 -15t-41 15t-15 40
q0 26 15 40.5t41 14.5t41 -14.5t15 -40.5z" />
    <glyph glyph-name="igrave" unicode="&#xec;" horiz-adv-x="297" 
d="M26 0v55l66 6q11 1 13.5 5t2.5 15v340q0 17 -13 21l-57 19l9 53h152v-433q0 -12 2.5 -15t13.5 -5l64 -7v-54h-253zM196 559l-176 141l61 60l154 -164z" />
    <glyph glyph-name="iacute" unicode="&#xed;" horiz-adv-x="297" 
d="M26 0v55l66 6q11 1 13.5 5t2.5 15v340q0 17 -13 21l-57 19l9 53h152v-433q0 -12 2.5 -15t13.5 -5l64 -7v-54h-253zM74 559l-39 37l155 164l60 -60z" />
    <glyph glyph-name="icircumflex" unicode="&#xee;" horiz-adv-x="297" 
d="M246 572l-113 101l-113 -101l-44 38l115 123h84l115 -123zM26 0v55l66 6q11 1 13.5 5t2.5 15v340q0 17 -13 21l-57 19l9 53h152v-433q0 -12 2.5 -15t13.5 -5l64 -7v-54h-253z" />
    <glyph glyph-name="idieresis" unicode="&#xef;" horiz-adv-x="297" 
d="M102 660q0 -25 -15 -40t-41 -15q-25 0 -40.5 15t-15.5 40q0 26 15.5 40.5t40.5 14.5q26 0 41 -14.5t15 -40.5zM284 660q0 -25 -15 -40t-41 -15t-41 15t-15 40q0 26 15 40.5t41 14.5t41 -14.5t15 -40.5zM26 0v55l66 6q11 1 13.5 5t2.5 15v340q0 17 -13 21l-57 19l9 53h152
v-433q0 -12 2.5 -15t13.5 -5l64 -7v-54h-253z" />
    <glyph glyph-name="eth" unicode="&#xf0;" horiz-adv-x="559" 
d="M195 615l73 41q-56 32 -129 42l30 69q106 -15 179 -65l104 59l36 -61l-83 -47q60 -64 86.5 -152t26.5 -186q0 -58 -11 -116t-39 -105t-75 -76.5t-120 -29.5q-62 0 -106 18.5t-72 52.5t-41 82.5t-13 108.5q0 52 14.5 97.5t43 80t72 54.5t100.5 20q35 0 72.5 -9t69.5 -30
q-14 44 -35 81t-50 66l-96 -55zM135 252q0 -39 6 -74t22 -61t42.5 -41.5t68.5 -15.5q43 0 72.5 20.5t47.5 54.5t26 79t8 94q0 33 -3 66q-19 23 -58.5 39.5t-82.5 16.5q-75 0 -112 -46t-37 -132z" />
    <glyph glyph-name="ntilde" unicode="&#xf1;" horiz-adv-x="630" 
d="M375 0v55l48 6q18 1 18 20v237q0 24 -3 47t-12.5 41t-26.5 29t-45 11q-43 0 -82.5 -18.5t-72.5 -45.5v-301q0 -12 2.5 -15t13.5 -5l56 -7v-54h-229v55l50 6q11 2 13.5 5.5t2.5 14.5v340q0 17 -13 21l-57 19l9 53h131l8 -59l3 -1q39 28 85 49t100 21q43 0 73 -13.5
t49 -37.5t27.5 -57.5t8.5 -74.5v-260q0 -12 2.5 -15t13.5 -5l57 -7v-54h-230zM459 638q-18 -27 -32 -38.5t-32 -11.5q-19 0 -43 7q-35 9 -70.5 19t-52.5 14q-10 1 -16 -5l-39 -38l-42 30l29 44q15 23 29 32.5t31 9.5q9 0 19 -2t23 -5q16 -4 34.5 -9t36 -9.5t32 -8.5t21.5 -5
q9 -3 15 3l36 37l44 -29z" />
    <glyph glyph-name="ograve" unicode="&#xf2;" horiz-adv-x="568" 
d="M281 -12q-65 0 -111 20t-75 56t-42 85.5t-13 109.5q0 59 15 107.5t46 83.5t78.5 54.5t111.5 19.5t109 -19.5t73.5 -54t41.5 -82t13 -103.5q0 -63 -14.5 -114t-45 -87.5t-77 -56t-110.5 -19.5zM284 61q73 0 111.5 47.5t38.5 150.5q0 99 -36 144t-109 45q-74 0 -114.5 -45
t-40.5 -145q0 -197 150 -197zM345 567l-176 141l61 60l154 -164z" />
    <glyph glyph-name="oacute" unicode="&#xf3;" horiz-adv-x="568" 
d="M281 -12q-65 0 -111 20t-75 56t-42 85.5t-13 109.5q0 59 15 107.5t46 83.5t78.5 54.5t111.5 19.5t109 -19.5t73.5 -54t41.5 -82t13 -103.5q0 -63 -14.5 -114t-45 -87.5t-77 -56t-110.5 -19.5zM284 61q73 0 111.5 47.5t38.5 150.5q0 99 -36 144t-109 45q-74 0 -114.5 -45
t-40.5 -145q0 -197 150 -197zM231 567l-39 37l155 164l60 -60z" />
    <glyph glyph-name="ocircumflex" unicode="&#xf4;" horiz-adv-x="568" 
d="M281 -12q-65 0 -111 20t-75 56t-42 85.5t-13 109.5q0 59 15 107.5t46 83.5t78.5 54.5t111.5 19.5t109 -19.5t73.5 -54t41.5 -82t13 -103.5q0 -63 -14.5 -114t-45 -87.5t-77 -56t-110.5 -19.5zM284 61q73 0 111.5 47.5t38.5 150.5q0 99 -36 144t-109 45q-74 0 -114.5 -45
t-40.5 -145q0 -197 150 -197zM416 572l-125 101l-125 -101l-44 38l127 123h84l127 -123z" />
    <glyph glyph-name="otilde" unicode="&#xf5;" horiz-adv-x="568" 
d="M281 -12q-65 0 -111 20t-75 56t-42 85.5t-13 109.5q0 59 15 107.5t46 83.5t78.5 54.5t111.5 19.5t109 -19.5t73.5 -54t41.5 -82t13 -103.5q0 -63 -14.5 -114t-45 -87.5t-77 -56t-110.5 -19.5zM284 61q73 0 111.5 47.5t38.5 150.5q0 99 -36 144t-109 45q-74 0 -114.5 -45
t-40.5 -145q0 -197 150 -197zM444 638q-18 -27 -32 -38.5t-32 -11.5q-19 0 -43 7q-35 9 -70.5 19t-52.5 14q-10 1 -16 -5l-39 -38l-42 30l29 44q15 23 29 32.5t31 9.5q9 0 19 -2t23 -5q16 -4 34.5 -9t36 -9.5t32 -8.5t21.5 -5q9 -3 15 3l36 37l44 -29z" />
    <glyph glyph-name="odieresis" unicode="&#xf6;" horiz-adv-x="568" 
d="M281 -12q-65 0 -111 20t-75 56t-42 85.5t-13 109.5q0 59 15 107.5t46 83.5t78.5 54.5t111.5 19.5t109 -19.5t73.5 -54t41.5 -82t13 -103.5q0 -63 -14.5 -114t-45 -87.5t-77 -56t-110.5 -19.5zM284 61q73 0 111.5 47.5t38.5 150.5q0 99 -36 144t-109 45q-74 0 -114.5 -45
t-40.5 -145q0 -197 150 -197zM246 660q0 -25 -15 -40t-41 -15q-25 0 -40.5 15t-15.5 40q0 26 15.5 40.5t40.5 14.5q26 0 41 -14.5t15 -40.5zM448 660q0 -25 -15 -40t-41 -15t-41 15t-15 40q0 26 15 40.5t41 14.5t41 -14.5t15 -40.5z" />
    <glyph glyph-name="divide" unicode="&#xf7;" 
d="M343 167q0 -62 -64 -62t-64 62q0 61 64 61t64 -61zM96 281v80h377v-80h-377zM343 473q0 -62 -64 -62t-64 62q0 61 64 61t64 -61z" />
    <glyph glyph-name="oslash" unicode="&#xf8;" horiz-adv-x="568" 
d="M89 -92l51 116q-53 34 -76.5 94.5t-23.5 140.5q0 59 15 107.5t46 83.5t78.5 54.5t111.5 19.5q40 0 68 -7l30 67h86l-43 -97q51 -33 73.5 -90.5t22.5 -131.5q0 -63 -14.5 -114t-45 -87.5t-77 -56t-110.5 -19.5q-18 0 -35 2t-32 5l-38 -87h-87zM134 258q0 -105 42 -154
l151 340q-16 4 -38 4q-74 0 -114.5 -45t-40.5 -145zM284 61q73 0 111.5 47.5t38.5 150.5q0 99 -38 146l-151 -340q16 -4 39 -4z" />
    <glyph glyph-name="ugrave" unicode="&#xf9;" horiz-adv-x="627" 
d="M452 0l-8 68l-2 1q-17 -15 -37 -29.5t-43.5 -26t-51.5 -18.5t-61 -7q-41 0 -69 12.5t-44.5 35.5t-23.5 57t-7 77v254q0 12 -2.5 16.5t-13.5 6.5l-52 13l8 54h151v-323q0 -65 15.5 -97t62.5 -32q25 0 48.5 8t44 20.5t38 28t30.5 30.5v276q0 12 -2.5 16t-13.5 6l-50 13
l8 54h149v-432q0 -20 14 -21l53 -7v-54h-141zM357 567l-176 141l61 60l154 -164z" />
    <glyph glyph-name="uacute" unicode="&#xfa;" horiz-adv-x="627" 
d="M452 0l-8 68l-2 1q-17 -15 -37 -29.5t-43.5 -26t-51.5 -18.5t-61 -7q-41 0 -69 12.5t-44.5 35.5t-23.5 57t-7 77v254q0 12 -2.5 16.5t-13.5 6.5l-52 13l8 54h151v-323q0 -65 15.5 -97t62.5 -32q25 0 48.5 8t44 20.5t38 28t30.5 30.5v276q0 12 -2.5 16t-13.5 6l-50 13
l8 54h149v-432q0 -20 14 -21l53 -7v-54h-141zM243 567l-39 37l155 164l60 -60z" />
    <glyph glyph-name="ucircumflex" unicode="&#xfb;" horiz-adv-x="627" 
d="M452 0l-8 68l-2 1q-17 -15 -37 -29.5t-43.5 -26t-51.5 -18.5t-61 -7q-41 0 -69 12.5t-44.5 35.5t-23.5 57t-7 77v254q0 12 -2.5 16.5t-13.5 6.5l-52 13l8 54h151v-323q0 -65 15.5 -97t62.5 -32q25 0 48.5 8t44 20.5t38 28t30.5 30.5v276q0 12 -2.5 16t-13.5 6l-50 13
l8 54h149v-432q0 -20 14 -21l53 -7v-54h-141zM428 572l-125 101l-125 -101l-44 38l127 123h84l127 -123z" />
    <glyph glyph-name="udieresis" unicode="&#xfc;" horiz-adv-x="627" 
d="M452 0l-8 68l-2 1q-17 -15 -37 -29.5t-43.5 -26t-51.5 -18.5t-61 -7q-41 0 -69 12.5t-44.5 35.5t-23.5 57t-7 77v254q0 12 -2.5 16.5t-13.5 6.5l-52 13l8 54h151v-323q0 -65 15.5 -97t62.5 -32q25 0 48.5 8t44 20.5t38 28t30.5 30.5v276q0 12 -2.5 16t-13.5 6l-50 13
l8 54h149v-432q0 -20 14 -21l53 -7v-54h-141zM258 660q0 -25 -15 -40t-41 -15q-25 0 -40.5 15t-15.5 40q0 26 15.5 40.5t40.5 14.5q26 0 41 -14.5t15 -40.5zM460 660q0 -25 -15 -40t-41 -15t-41 15t-15 40q0 26 15 40.5t41 14.5t41 -14.5t15 -40.5z" />
    <glyph glyph-name="yacute" unicode="&#xfd;" horiz-adv-x="582" 
d="M98 -212v55l72 9q9 1 13 5.5t9 15.5l58 133l-180 426q-4 9 -8 12t-13 5l-41 10l12 55h207v-55l-66 -8l133 -336l139 336l-68 8l11 55h198v-55l-34 -5q-9 -2 -15 -5.5t-10 -11.5l-243 -585l97 -10v-54h-271zM233 567l-39 37l155 164l60 -60z" />
    <glyph glyph-name="thorn" unicode="&#xfe;" horiz-adv-x="586" 
d="M36 -212v55l41 6q11 2 14 5.5t3 14.5v793q0 17 -13 21l-57 19l9 53h151v-298l2 -1q38 27 79 47.5t92 20.5q42 0 77 -14t59.5 -44t38 -77t13.5 -113q0 -51 -10 -102.5t-34 -92.5t-63.5 -67t-97.5 -26q-44 0 -84 14.5t-72 42.5v-175q0 -12 2.5 -15.5t13.5 -4.5l94 -8v-54
h-258zM185 127q23 -21 60 -42t78 -21q70 0 99.5 54.5t29.5 149.5q0 51 -9 85.5t-25.5 55t-38.5 29.5t-47 9q-22 0 -43.5 -6.5t-41 -16t-36 -20t-26.5 -19.5v-258z" />
    <glyph glyph-name="ydieresis" unicode="&#xff;" horiz-adv-x="582" 
d="M98 -212v55l72 9q9 1 13 5.5t9 15.5l58 133l-180 426q-4 9 -8 12t-13 5l-41 10l12 55h207v-55l-66 -8l133 -336l139 336l-68 8l11 55h198v-55l-34 -5q-9 -2 -15 -5.5t-10 -11.5l-243 -585l97 -10v-54h-271zM248 660q0 -25 -15 -40t-41 -15q-25 0 -40.5 15t-15.5 40
q0 26 15.5 40.5t40.5 14.5q26 0 41 -14.5t15 -40.5zM450 660q0 -25 -15 -40t-41 -15t-41 15t-15 40q0 26 15 40.5t41 14.5t41 -14.5t15 -40.5z" />
    <glyph glyph-name="Amacron" unicode="&#x100;" horiz-adv-x="713" 
d="M461 0v54l82 9l-54 158h-279l-53 -158l81 -9v-54h-230v53l43 11q12 3 17 6.5t8 12.5l220 641h116l224 -642q3 -9 9 -12t15 -5l45 -11v-54h-244zM351 646l-118 -352h234zM201 794v69h307v-69h-307z" />
    <glyph glyph-name="amacron" unicode="&#x101;" horiz-adv-x="541" 
d="M380 0l-9 65l-3 1q-36 -34 -79.5 -56t-101.5 -22q-47 0 -75 14t-42.5 35t-19 45t-4.5 43q0 75 45.5 112t136.5 45l135 11v53q0 27 -3.5 47.5t-14.5 34t-30.5 20.5t-52.5 7q-23 0 -42 -1.5t-33.5 -9t-22.5 -23t-8 -43.5l-86 9q0 46 19 73t48 41.5t62.5 18.5t63.5 4
q53 0 89.5 -8.5t59 -29t32 -54.5t9.5 -86v-265q0 -12 2.5 -15t13.5 -5l51 -7v-54h-140zM363 230l-113 -10q-32 -3 -53.5 -9.5t-34 -16.5t-17.5 -25t-5 -34q0 -41 17.5 -58.5t52.5 -17.5q22 0 44.5 8t42.5 19.5t37 25t29 24.5v94zM110 611v69h307v-69h-307z" />
    <glyph glyph-name="Abreve" unicode="&#x102;" horiz-adv-x="713" 
d="M461 0v54l82 9l-54 158h-279l-53 -158l81 -9v-54h-230v53l43 11q12 3 17 6.5t8 12.5l220 641h116l224 -642q3 -9 9 -12t15 -5l45 -11v-54h-244zM351 646l-118 -352h234zM509 899q-17 -62 -58.5 -89.5t-100.5 -27.5q-60 0 -97 27.5t-54 89.5l60 22q16 -44 40.5 -59
t54.5 -15q15 0 29.5 2.5t27.5 10.5t24 22.5t19 37.5z" />
    <glyph glyph-name="abreve" unicode="&#x103;" horiz-adv-x="541" 
d="M380 0l-9 65l-3 1q-36 -34 -79.5 -56t-101.5 -22q-47 0 -75 14t-42.5 35t-19 45t-4.5 43q0 75 45.5 112t136.5 45l135 11v53q0 27 -3.5 47.5t-14.5 34t-30.5 20.5t-52.5 7q-23 0 -42 -1.5t-33.5 -9t-22.5 -23t-8 -43.5l-86 9q0 46 19 73t48 41.5t62.5 18.5t63.5 4
q53 0 89.5 -8.5t59 -29t32 -54.5t9.5 -86v-265q0 -12 2.5 -15t13.5 -5l51 -7v-54h-140zM363 230l-113 -10q-32 -3 -53.5 -9.5t-34 -16.5t-17.5 -25t-5 -34q0 -41 17.5 -58.5t52.5 -17.5q22 0 44.5 8t42.5 19.5t37 25t29 24.5v94zM430 706q-17 -63 -57.5 -98t-111.5 -35
t-109.5 35t-55.5 98l60 21q16 -47 41 -68t67 -21t67.5 21t42.5 69z" />
    <glyph glyph-name="Aogonek" unicode="&#x104;" horiz-adv-x="713" 
d="M646 -196q-47 -22 -93 -22q-42 0 -66.5 19.5t-24.5 59.5q0 22 8 41.5t20.5 37t28.5 33t31 27.5h-89v54l82 9l-54 158h-279l-53 -158l81 -9v-54h-230v53l43 11q12 3 17 6.5t8 12.5l220 641h116l224 -642q3 -9 9 -12t15 -5l45 -11v-54h-76q-13 -11 -27.5 -24t-27 -28.5
t-21 -32.5t-8.5 -35q0 -32 31 -32q11 0 23.5 3.5t25.5 8.5zM351 646l-118 -352h234z" />
    <glyph glyph-name="aogonek" unicode="&#x105;" horiz-adv-x="541" 
d="M520 0q-19 -12 -37.5 -25t-33 -28t-23.5 -32t-9 -35q0 -32 31 -32q11 0 23.5 3.5t25.5 8.5l21 -56q-47 -22 -93 -22q-42 0 -66.5 19.5t-24.5 59.5q0 22 8.5 42t22 37.5t31.5 32.5t37 27h-53l-9 65l-3 1q-36 -34 -79.5 -56t-101.5 -22q-47 0 -75 14t-42.5 35t-19 45
t-4.5 43q0 75 45.5 112t136.5 45l135 11v53q0 27 -3.5 47.5t-14.5 34t-30.5 20.5t-52.5 7q-23 0 -42 -1.5t-33.5 -9t-22.5 -23t-8 -43.5l-86 9q0 46 19 73t48 41.5t62.5 18.5t63.5 4q53 0 89.5 -8.5t59 -29t32 -54.5t9.5 -86v-265q0 -12 2.5 -15t13.5 -5l51 -7v-54zM363 230
l-113 -10q-32 -3 -53.5 -9.5t-34 -16.5t-17.5 -25t-5 -34q0 -41 17.5 -58.5t52.5 -17.5q22 0 44.5 8t42.5 19.5t37 25t29 24.5v94z" />
    <glyph glyph-name="Cacute" unicode="&#x106;" horiz-adv-x="690" 
d="M630 41q-20 -14 -47 -23.5t-58.5 -16.5t-66 -10t-68.5 -3q-92 0 -156.5 27.5t-106 77t-60.5 118t-19 151.5q0 81 22.5 150t67 119t112 78t157.5 28q66 0 124.5 -14.5t96.5 -39.5v-160l-68 4l-17 95q-1 7 -3 11.5t-10 6.5q-26 9 -59 15.5t-68 6.5q-59 0 -107 -19.5
t-81.5 -57t-52 -94t-18.5 -129.5q0 -147 67 -223t185 -76q34 0 72.5 4.5t67.5 16.5q6 2 9 5.5t5 12.5l16 90h64v-151zM323 766l-29 46l188 129l45 -74z" />
    <glyph glyph-name="cacute" unicode="&#x107;" horiz-adv-x="486" 
d="M455 30q-29 -19 -75 -30.5t-96 -11.5q-64 0 -110 19t-76 53.5t-44 83t-14 107.5q0 71 19.5 122.5t54.5 85t83 49.5t105 16q55 0 95 -11.5t57 -19.5v-133l-67 3l-12 66q-1 5 -3 8.5t-9 5.5q-11 4 -29 6.5t-39 2.5q-33 0 -62.5 -10.5t-51 -33.5t-34 -60t-12.5 -91
q0 -53 12 -89.5t33.5 -60t51.5 -34t66 -10.5q38 0 72.5 10t55.5 23zM224 567l-39 37l155 164l60 -60z" />
    <glyph glyph-name="Ccircumflex" unicode="&#x108;" horiz-adv-x="690" 
d="M630 41q-20 -14 -47 -23.5t-58.5 -16.5t-66 -10t-68.5 -3q-92 0 -156.5 27.5t-106 77t-60.5 118t-19 151.5q0 81 22.5 150t67 119t112 78t157.5 28q66 0 124.5 -14.5t96.5 -39.5v-160l-68 4l-17 95q-1 7 -3 11.5t-10 6.5q-26 9 -59 15.5t-68 6.5q-59 0 -107 -19.5
t-81.5 -57t-52 -94t-18.5 -129.5q0 -147 67 -223t185 -76q34 0 72.5 4.5t67.5 16.5q6 2 9 5.5t5 12.5l16 90h64v-151zM395 849l-119 -83l-40 41l117 102h84l117 -102l-40 -41z" />
    <glyph glyph-name="ccircumflex" unicode="&#x109;" horiz-adv-x="486" 
d="M455 30q-29 -19 -75 -30.5t-96 -11.5q-64 0 -110 19t-76 53.5t-44 83t-14 107.5q0 71 19.5 122.5t54.5 85t83 49.5t105 16q55 0 95 -11.5t57 -19.5v-133l-67 3l-12 66q-1 5 -3 8.5t-9 5.5q-11 4 -29 6.5t-39 2.5q-33 0 -62.5 -10.5t-51 -33.5t-34 -60t-12.5 -91
q0 -53 12 -89.5t33.5 -60t51.5 -34t66 -10.5q38 0 72.5 10t55.5 23zM409 572l-125 101l-125 -101l-44 38l127 123h84l127 -123z" />
    <glyph glyph-name="Cdotaccent" unicode="&#x10a;" horiz-adv-x="690" 
d="M630 41q-20 -14 -47 -23.5t-58.5 -16.5t-66 -10t-68.5 -3q-92 0 -156.5 27.5t-106 77t-60.5 118t-19 151.5q0 81 22.5 150t67 119t112 78t157.5 28q66 0 124.5 -14.5t96.5 -39.5v-160l-68 4l-17 95q-1 7 -3 11.5t-10 6.5q-26 9 -59 15.5t-68 6.5q-59 0 -107 -19.5
t-81.5 -57t-52 -94t-18.5 -129.5q0 -147 67 -223t185 -76q34 0 72.5 4.5t67.5 16.5q6 2 9 5.5t5 12.5l16 90h64v-151zM460 845q0 -30 -17 -46.5t-48 -16.5t-47.5 16.5t-16.5 46.5q0 63 64 63q31 0 48 -16t17 -47z" />
    <glyph glyph-name="cdotaccent" unicode="&#x10b;" horiz-adv-x="486" 
d="M455 30q-29 -19 -75 -30.5t-96 -11.5q-64 0 -110 19t-76 53.5t-44 83t-14 107.5q0 71 19.5 122.5t54.5 85t83 49.5t105 16q55 0 95 -11.5t57 -19.5v-133l-67 3l-12 66q-1 5 -3 8.5t-9 5.5q-11 4 -29 6.5t-39 2.5q-33 0 -62.5 -10.5t-51 -33.5t-34 -60t-12.5 -91
q0 -53 12 -89.5t33.5 -60t51.5 -34t66 -10.5q38 0 72.5 10t55.5 23zM349 690q0 -31 -17 -47.5t-48 -16.5q-64 0 -64 64q0 30 16.5 46.5t47.5 16.5t48 -16.5t17 -46.5z" />
    <glyph glyph-name="Ccaron" unicode="&#x10c;" horiz-adv-x="690" 
d="M630 41q-20 -14 -47 -23.5t-58.5 -16.5t-66 -10t-68.5 -3q-92 0 -156.5 27.5t-106 77t-60.5 118t-19 151.5q0 81 22.5 150t67 119t112 78t157.5 28q66 0 124.5 -14.5t96.5 -39.5v-160l-68 4l-17 95q-1 7 -3 11.5t-10 6.5q-26 9 -59 15.5t-68 6.5q-59 0 -107 -19.5
t-81.5 -57t-52 -94t-18.5 -129.5q0 -147 67 -223t185 -76q34 0 72.5 4.5t67.5 16.5q6 2 9 5.5t5 12.5l16 90h64v-151zM437 777h-84l-117 102l40 41l119 -83l119 83l41 -41z" />
    <glyph glyph-name="ccaron" unicode="&#x10d;" horiz-adv-x="486" 
d="M455 30q-29 -19 -75 -30.5t-96 -11.5q-64 0 -110 19t-76 53.5t-44 83t-14 107.5q0 71 19.5 122.5t54.5 85t83 49.5t105 16q55 0 95 -11.5t57 -19.5v-133l-67 3l-12 66q-1 5 -3 8.5t-9 5.5q-11 4 -29 6.5t-39 2.5q-33 0 -62.5 -10.5t-51 -33.5t-34 -60t-12.5 -91
q0 -53 12 -89.5t33.5 -60t51.5 -34t66 -10.5q38 0 72.5 10t55.5 23zM242 578l-125 121l43 40l124 -101l126 101l44 -39l-128 -122h-84z" />
    <glyph glyph-name="Dcaron" unicode="&#x10e;" horiz-adv-x="767" 
d="M61 0v54l63 7q11 2 13.5 5.5t2.5 14.5v561q0 11 -2.5 15t-13.5 5l-63 7v55h299q94 0 162 -24.5t111.5 -70t64.5 -110.5t21 -146q0 -83 -22.5 -152t-68.5 -118t-117 -76t-168 -27h-282zM342 73q143 0 212.5 76.5t69.5 210.5q0 84 -18.5 140t-53.5 89.5t-86.5 48
t-117.5 14.5h-116v-579h110zM390 777h-84l-117 102l40 41l119 -83l119 83l41 -41z" />
    <glyph glyph-name="dcaron" unicode="&#x10f;" horiz-adv-x="641" 
d="M425 0l-8 66l-4 1q-35 -33 -76 -56t-100 -23q-43 0 -78 14.5t-59.5 45.5t-38 80t-13.5 118q0 74 16 126.5t43.5 86.5t66 49.5t83.5 15.5t84.5 -13.5t68.5 -34.5v187q0 16 -13 20l-60 19l9 53h153v-674q0 -12 2.5 -15t13.5 -5l51 -7v-54h-141zM408 395q-23 19 -60 36.5
t-77 17.5q-35 0 -60 -14.5t-41 -41t-23 -63.5t-7 -82q0 -52 8.5 -87.5t24 -57t37 -30.5t47.5 -9q45 0 81.5 25t69.5 58v248zM553 578q7 23 13 48.5t6 54.5q0 24 -4.5 39.5t-9.5 24.5l69 30q12 -14 18 -26t6 -29q0 -9 -1.5 -20.5t-6.5 -25.5q-8 -29 -20 -57t-24 -53z" />
    <glyph glyph-name="Dcroat" unicode="&#x110;" horiz-adv-x="777" 
d="M71 0v54l63 7q11 2 13.5 5.5t2.5 14.5v250h-75v72h75v239q0 11 -2.5 15t-13.5 5l-63 7v55h299q94 0 162 -24.5t111.5 -70t64.5 -110.5t21 -146q0 -83 -22.5 -152t-68.5 -118t-117 -76t-168 -27h-282zM352 73q143 0 212.5 76.5t69.5 210.5q0 84 -18.5 140t-53.5 89.5
t-86.5 48t-117.5 14.5h-116v-249h180v-72h-180v-258h110z" />
    <glyph glyph-name="dcroat" unicode="&#x111;" horiz-adv-x="594" 
d="M425 0l-8 66l-4 1q-35 -33 -76 -56t-100 -23q-43 0 -78 14t-59.5 44t-38 77t-13.5 113q0 74 16 125t43.5 83t66 46t83.5 14t84.5 -13.5t68.5 -34.5v110h-186v66h186v31q0 16 -13 20l-60 19l9 53h153v-123h66v-66h-66v-485q0 -12 2.5 -15t13.5 -5l51 -7v-54h-141zM408 375
q-23 19 -60 36.5t-77 17.5q-71 0 -101 -50.5t-30 -140.5q0 -50 8.5 -83.5t24 -53.5t37 -28.5t47.5 -8.5q45 0 81.5 25t69.5 58v228z" />
    <glyph glyph-name="Emacron" unicode="&#x112;" horiz-adv-x="635" 
d="M61 0v54l63 7q11 2 13.5 5.5t2.5 14.5v561q0 11 -2.5 15t-13.5 5l-63 7v55h502v-165l-68 4l-14 77q-3 13 -17 13h-232v-252h267v-72h-267v-258h254q8 0 11 1.5t5 9.5l16 87h67v-169h-524zM167 794v69h307v-69h-307z" />
    <glyph glyph-name="emacron" unicode="&#x113;" horiz-adv-x="511" 
d="M462 33q-38 -21 -83 -33t-99 -12q-68 0 -114 21t-74 57t-40 85t-12 105q0 69 18 119.5t49 83.5t72.5 49t88.5 16q46 0 84 -13t65 -41.5t42 -74t15 -110.5q0 -10 -0.5 -23.5t-1.5 -26.5h-336q1 -38 10 -69t27 -53.5t46.5 -35t69.5 -12.5q21 0 38.5 2t34.5 6.5t34 11
t37 16.5zM383 304q-1 43 -10.5 71t-25 45t-36 24t-43.5 7q-25 0 -47.5 -7.5t-40 -24.5t-29 -45t-14.5 -70h246zM113 611v69h307v-69h-307z" />
    <glyph glyph-name="Ebreve" unicode="&#x114;" horiz-adv-x="635" 
d="M61 0v54l63 7q11 2 13.5 5.5t2.5 14.5v561q0 11 -2.5 15t-13.5 5l-63 7v55h502v-165l-68 4l-14 77q-3 13 -17 13h-232v-252h267v-72h-267v-258h254q8 0 11 1.5t5 9.5l16 87h67v-169h-524zM475 899q-17 -62 -58.5 -89.5t-100.5 -27.5q-60 0 -97 27.5t-54 89.5l60 22
q16 -44 40.5 -59t54.5 -15q15 0 29.5 2.5t27.5 10.5t24 22.5t19 37.5z" />
    <glyph glyph-name="ebreve" unicode="&#x115;" horiz-adv-x="511" 
d="M462 33q-38 -21 -83 -33t-99 -12q-68 0 -114 21t-74 57t-40 85t-12 105q0 69 18 119.5t49 83.5t72.5 49t88.5 16q46 0 84 -13t65 -41.5t42 -74t15 -110.5q0 -10 -0.5 -23.5t-1.5 -26.5h-336q1 -38 10 -69t27 -53.5t46.5 -35t69.5 -12.5q21 0 38.5 2t34.5 6.5t34 11
t37 16.5zM383 304q-1 43 -10.5 71t-25 45t-36 24t-43.5 7q-25 0 -47.5 -7.5t-40 -24.5t-29 -45t-14.5 -70h246zM433 706q-17 -63 -57.5 -98t-111.5 -35t-109.5 35t-55.5 98l60 21q16 -47 41 -68t67 -21t67.5 21t42.5 69z" />
    <glyph glyph-name="Edotaccent" unicode="&#x116;" horiz-adv-x="635" 
d="M61 0v54l63 7q11 2 13.5 5.5t2.5 14.5v561q0 11 -2.5 15t-13.5 5l-63 7v55h502v-165l-68 4l-14 77q-3 13 -17 13h-232v-252h267v-72h-267v-258h254q8 0 11 1.5t5 9.5l16 87h67v-169h-524zM385 845q0 -30 -17 -46.5t-48 -16.5t-47.5 16.5t-16.5 46.5q0 63 64 63
q31 0 48 -16t17 -47z" />
    <glyph glyph-name="edotaccent" unicode="&#x117;" horiz-adv-x="511" 
d="M462 33q-38 -21 -83 -33t-99 -12q-68 0 -114 21t-74 57t-40 85t-12 105q0 69 18 119.5t49 83.5t72.5 49t88.5 16q46 0 84 -13t65 -41.5t42 -74t15 -110.5q0 -10 -0.5 -23.5t-1.5 -26.5h-336q1 -38 10 -69t27 -53.5t46.5 -35t69.5 -12.5q21 0 38.5 2t34.5 6.5t34 11
t37 16.5zM383 304q-1 43 -10.5 71t-25 45t-36 24t-43.5 7q-25 0 -47.5 -7.5t-40 -24.5t-29 -45t-14.5 -70h246zM331 690q0 -31 -17 -47.5t-48 -16.5q-64 0 -64 64q0 30 16.5 46.5t47.5 16.5t48 -16.5t17 -46.5z" />
    <glyph glyph-name="Eogonek" unicode="&#x118;" horiz-adv-x="627" 
d="M585 0q-18 -11 -37 -24.5t-35 -28.5t-26.5 -32t-10.5 -35q0 -32 31 -32q11 0 23.5 3.5t25.5 8.5l21 -56q-47 -22 -93 -22q-42 0 -66.5 19.5t-24.5 59.5q0 22 8.5 42.5t22 37.5t31 32t35.5 27h-429v54l63 7q11 2 13.5 5.5t2.5 14.5v561q0 11 -2.5 15t-13.5 5l-63 7v55h502
v-165l-68 4l-14 77q-3 13 -17 13h-232v-252h267v-72h-267v-258h254q8 0 11 1.5t5 9.5l16 87h67v-169v0z" />
    <glyph glyph-name="eogonek" unicode="&#x119;" horiz-adv-x="511" 
d="M406 -196q-47 -22 -93 -22q-42 0 -66.5 19.5t-24.5 59.5q0 38 23 70.5t51 57.5q-4 0 -8 -0.5t-8 -0.5q-68 0 -114 21t-74 57t-40 85t-12 105q0 69 18 119.5t49 83.5t72.5 49t88.5 16q46 0 84 -13t65 -41.5t42 -74t15 -110.5q0 -10 -0.5 -23.5t-1.5 -26.5h-336
q1 -38 10 -69t27 -53.5t46.5 -35t69.5 -12.5q21 0 38.5 2t34.5 6.5t34 11t37 16.5l29 -68q-16 -9 -32.5 -17.5t-33.5 -17.5q-15 -8 -31 -20.5t-29.5 -28t-22 -33.5t-8.5 -36q0 -32 31 -32q11 0 23.5 3.5t25.5 8.5zM383 304q-1 43 -10.5 71t-25 45t-36 24t-43.5 7
q-25 0 -47.5 -7.5t-40 -24.5t-29 -45t-14.5 -70h246z" />
    <glyph glyph-name="Ecaron" unicode="&#x11a;" horiz-adv-x="635" 
d="M61 0v54l63 7q11 2 13.5 5.5t2.5 14.5v561q0 11 -2.5 15t-13.5 5l-63 7v55h502v-165l-68 4l-14 77q-3 13 -17 13h-232v-252h267v-72h-267v-258h254q8 0 11 1.5t5 9.5l16 87h67v-169h-524zM362 777h-84l-117 102l40 41l119 -83l119 83l41 -41z" />
    <glyph glyph-name="ecaron" unicode="&#x11b;" horiz-adv-x="511" 
d="M462 33q-38 -21 -83 -33t-99 -12q-68 0 -114 21t-74 57t-40 85t-12 105q0 69 18 119.5t49 83.5t72.5 49t88.5 16q46 0 84 -13t65 -41.5t42 -74t15 -110.5q0 -10 -0.5 -23.5t-1.5 -26.5h-336q1 -38 10 -69t27 -53.5t46.5 -35t69.5 -12.5q21 0 38.5 2t34.5 6.5t34 11
t37 16.5zM383 304q-1 43 -10.5 71t-25 45t-36 24t-43.5 7q-25 0 -47.5 -7.5t-40 -24.5t-29 -45t-14.5 -70h246zM224 578l-125 121l43 40l124 -101l126 101l44 -39l-128 -122h-84z" />
    <glyph glyph-name="Gcircumflex" unicode="&#x11c;" horiz-adv-x="738" 
d="M674 278q-9 -1 -12.5 -4t-3.5 -13v-232q-23 -11 -52 -19t-60.5 -13t-64.5 -7t-63 -2q-101 0 -171.5 28.5t-114.5 79t-64 120t-20 151.5q0 79 22.5 147t67.5 117.5t112.5 77.5t157.5 28q64 0 124 -14t98 -40v-159l-68 5l-16 93q-2 7 -4 11.5t-10 6.5q-26 9 -60.5 15.5
t-69.5 6.5q-59 0 -107 -20t-81.5 -57.5t-51.5 -92.5t-18 -125q0 -149 72 -226.5t214 -77.5q27 0 63 4.5t60 10.5q7 2 10.5 5t3.5 12v177h-136l11 65h274v-55zM399 849l-119 -83l-40 41l117 102h84l117 -102l-40 -41z" />
    <glyph glyph-name="gcircumflex" unicode="&#x11d;" horiz-adv-x="583" 
d="M412 64l-3 1q-32 -30 -72 -53.5t-97 -23.5q-44 0 -79 14.5t-60.5 45t-39 79.5t-13.5 118q0 73 16 126t43.5 87t65.5 50t82 16q48 0 87.5 -14.5t68.5 -37.5l11 42h86q-5 -38 -7.5 -71.5t-2.5 -67.5v-366q0 -50 -13.5 -93t-43.5 -74.5t-77.5 -50t-115.5 -18.5
q-66 0 -116.5 16t-82.5 39l36 71q33 -20 73.5 -34.5t87.5 -14.5q76 0 121 38t45 121v55zM407 395q-23 20 -60 37t-77 17q-35 0 -60 -14.5t-40.5 -41t-22.5 -63t-7 -81.5q0 -53 8.5 -88t23.5 -57t36.5 -31t47.5 -9q45 0 83 27t68 61v243zM404 572l-125 101l-125 -101l-44 38
l127 123h84l127 -123z" />
    <glyph glyph-name="Gbreve" unicode="&#x11e;" horiz-adv-x="738" 
d="M674 278q-9 -1 -12.5 -4t-3.5 -13v-232q-23 -11 -52 -19t-60.5 -13t-64.5 -7t-63 -2q-101 0 -171.5 28.5t-114.5 79t-64 120t-20 151.5q0 79 22.5 147t67.5 117.5t112.5 77.5t157.5 28q64 0 124 -14t98 -40v-159l-68 5l-16 93q-2 7 -4 11.5t-10 6.5q-26 9 -60.5 15.5
t-69.5 6.5q-59 0 -107 -20t-81.5 -57.5t-51.5 -92.5t-18 -125q0 -149 72 -226.5t214 -77.5q27 0 63 4.5t60 10.5q7 2 10.5 5t3.5 12v177h-136l11 65h274v-55zM556 899q-17 -62 -58.5 -89.5t-100.5 -27.5q-60 0 -97 27.5t-54 89.5l60 22q16 -44 40.5 -59t54.5 -15
q15 0 29.5 2.5t27.5 10.5t24 22.5t19 37.5z" />
    <glyph glyph-name="gbreve" unicode="&#x11f;" horiz-adv-x="583" 
d="M412 64l-3 1q-32 -30 -72 -53.5t-97 -23.5q-44 0 -79 14.5t-60.5 45t-39 79.5t-13.5 118q0 73 16 126t43.5 87t65.5 50t82 16q48 0 87.5 -14.5t68.5 -37.5l11 42h86q-5 -38 -7.5 -71.5t-2.5 -67.5v-366q0 -50 -13.5 -93t-43.5 -74.5t-77.5 -50t-115.5 -18.5
q-66 0 -116.5 16t-82.5 39l36 71q33 -20 73.5 -34.5t87.5 -14.5q76 0 121 38t45 121v55zM407 395q-23 20 -60 37t-77 17q-35 0 -60 -14.5t-40.5 -41t-22.5 -63t-7 -81.5q0 -53 8.5 -88t23.5 -57t36.5 -31t47.5 -9q45 0 83 27t68 61v243zM451 706q-17 -63 -57.5 -98
t-111.5 -35t-109.5 35t-55.5 98l60 21q16 -47 41 -68t67 -21t67.5 21t42.5 69z" />
    <glyph glyph-name="Gdotaccent" unicode="&#x120;" horiz-adv-x="738" 
d="M674 278q-9 -1 -12.5 -4t-3.5 -13v-232q-23 -11 -52 -19t-60.5 -13t-64.5 -7t-63 -2q-101 0 -171.5 28.5t-114.5 79t-64 120t-20 151.5q0 79 22.5 147t67.5 117.5t112.5 77.5t157.5 28q64 0 124 -14t98 -40v-159l-68 5l-16 93q-2 7 -4 11.5t-10 6.5q-26 9 -60.5 15.5
t-69.5 6.5q-59 0 -107 -20t-81.5 -57.5t-51.5 -92.5t-18 -125q0 -149 72 -226.5t214 -77.5q27 0 63 4.5t60 10.5q7 2 10.5 5t3.5 12v177h-136l11 65h274v-55zM450 845q0 -30 -17 -46.5t-48 -16.5t-47.5 16.5t-16.5 46.5q0 63 64 63q31 0 48 -16t17 -47z" />
    <glyph glyph-name="gdotaccent" unicode="&#x121;" horiz-adv-x="583" 
d="M412 64l-3 1q-32 -30 -72 -53.5t-97 -23.5q-44 0 -79 14.5t-60.5 45t-39 79.5t-13.5 118q0 73 16 126t43.5 87t65.5 50t82 16q48 0 87.5 -14.5t68.5 -37.5l11 42h86q-5 -38 -7.5 -71.5t-2.5 -67.5v-366q0 -50 -13.5 -93t-43.5 -74.5t-77.5 -50t-115.5 -18.5
q-66 0 -116.5 16t-82.5 39l36 71q33 -20 73.5 -34.5t87.5 -14.5q76 0 121 38t45 121v55zM407 395q-23 20 -60 37t-77 17q-35 0 -60 -14.5t-40.5 -41t-22.5 -63t-7 -81.5q0 -53 8.5 -88t23.5 -57t36.5 -31t47.5 -9q45 0 83 27t68 61v243zM344 690q0 -31 -17 -47.5t-48 -16.5
q-64 0 -64 64q0 30 16.5 46.5t47.5 16.5t48 -16.5t17 -46.5z" />
    <glyph glyph-name="Gcommaaccent" unicode="&#x122;" horiz-adv-x="738" 
d="M674 278q-9 -1 -12.5 -4t-3.5 -13v-232q-23 -11 -52 -19t-60.5 -13t-64.5 -7t-63 -2q-101 0 -171.5 28.5t-114.5 79t-64 120t-20 151.5q0 79 22.5 147t67.5 117.5t112.5 77.5t157.5 28q64 0 124 -14t98 -40v-159l-68 5l-16 93q-2 7 -4 11.5t-10 6.5q-26 9 -60.5 15.5
t-69.5 6.5q-59 0 -107 -20t-81.5 -57.5t-51.5 -92.5t-18 -125q0 -149 72 -226.5t214 -77.5q27 0 63 4.5t60 10.5q7 2 10.5 5t3.5 12v177h-136l11 65h274v-55zM347 -252l22 87q3 8 -5 11l-34 14l22 80q23 -1 42.5 -3.5t33.5 -9t21.5 -18.5t7.5 -32q0 -14 -5 -28.5t-12 -27.5
l-47 -89z" />
    <glyph glyph-name="gcommaaccent" unicode="&#x123;" horiz-adv-x="583" 
d="M412 64l-3 1q-32 -30 -72 -53.5t-97 -23.5q-44 0 -79 14.5t-60.5 45t-39 79.5t-13.5 118q0 73 16 126t43.5 87t65.5 50t82 16q48 0 87.5 -14.5t68.5 -37.5l11 42h86q-5 -38 -7.5 -71.5t-2.5 -67.5v-366q0 -50 -13.5 -93t-43.5 -74.5t-77.5 -50t-115.5 -18.5
q-66 0 -116.5 16t-82.5 39l36 71q33 -20 73.5 -34.5t87.5 -14.5q76 0 121 38t45 121v55zM407 395q-23 20 -60 37t-77 17q-35 0 -60 -14.5t-40.5 -41t-22.5 -63t-7 -81.5q0 -53 8.5 -88t23.5 -57t36.5 -31t47.5 -9q45 0 83 27t68 61v243zM322 566q-49 1 -77 12.5t-28 50.5
q0 17 8 35t16 34l40 76l46 -16l-22 -83q-2 -8 -1.5 -11t7.5 -6l32 -13z" />
    <glyph glyph-name="Hcircumflex" unicode="&#x124;" horiz-adv-x="808" 
d="M497 0v54l63 7q11 2 13.5 5.5t2.5 14.5v256h-344v-255q0 -12 2.5 -15t13.5 -5l67 -8v-54h-254v54l63 7q11 2 13.5 5.5t2.5 14.5v562q0 11 -2.5 15t-13.5 5l-63 7v54h254v-54l-67 -8q-11 -2 -13.5 -5t-2.5 -14v-234h344v234q0 11 -2.5 15t-13.5 5l-63 7v54h254v-54l-67 -8
q-11 -2 -13.5 -5t-2.5 -14v-561q0 -12 2.5 -15t13.5 -5l67 -8v-54h-254zM411 849l-119 -83l-40 41l117 102h84l117 -102l-40 -41z" />
    <glyph glyph-name="hcircumflex" unicode="&#x125;" horiz-adv-x="630" 
d="M124 873l-109 -83l-40 41l107 102h84l107 -102l-40 -41zM375 0v55l48 6q18 1 18 20v233q0 28 -3 52t-12 42t-25.5 28.5t-43.5 10.5q-23 0 -45 -6t-42 -15t-38 -20.5t-33 -23.5v-301q0 -12 2.5 -15t13.5 -5l56 -7v-54h-229v55l50 6q11 2 13.5 5.5t2.5 14.5v581
q0 17 -13 21l-60 19l9 53h154v-297q35 25 79 45.5t101 20.5q81 0 117.5 -48.5t36.5 -133.5v-261q0 -12 2.5 -15t13.5 -5l57 -7v-54h-230z" />
    <glyph glyph-name="Hbar" unicode="&#x126;" horiz-adv-x="808" 
d="M497 0v54l63 7q11 2 13.5 5.5t2.5 14.5v256h-344v-255q0 -12 2.5 -15t13.5 -5l67 -8v-54h-254v54l63 7q11 2 13.5 5.5t2.5 14.5v426h-65v69h65v67q0 11 -2.5 15t-13.5 5l-63 7v54h254v-54l-67 -8q-11 -2 -13.5 -5t-2.5 -14v-67h344v67q0 11 -2.5 15t-13.5 5l-63 7v54h254
v-54l-67 -8q-11 -2 -13.5 -5t-2.5 -14v-67h66v-69h-66v-425q0 -12 2.5 -15t13.5 -5l67 -8v-54h-254zM576 409v98h-344v-98h344z" />
    <glyph glyph-name="hbar" unicode="&#x127;" horiz-adv-x="630" 
d="M375 0v55l48 6q18 1 18 20v213q0 28 -3 52t-12 42t-25.5 28.5t-43.5 10.5q-23 0 -45 -6t-42 -15t-38 -20.5t-33 -23.5v-281q0 -12 2.5 -15t13.5 -5l56 -7v-54h-229v55l50 6q11 2 13.5 5.5t2.5 14.5v485h-70v66h70v30q0 17 -13 21l-60 19l9 53h154v-123h181v-66h-181v-128
q35 25 79 45.5t101 20.5q81 0 117.5 -48.5t36.5 -133.5v-241q0 -12 2.5 -15t13.5 -5l57 -7v-54h-230z" />
    <glyph glyph-name="Itilde" unicode="&#x128;" horiz-adv-x="382" 
d="M56 0v54l73 7q11 1 13.5 5t2.5 15v562q0 11 -2.5 15t-13.5 5l-73 7v54h274v-54l-77 -8q-11 -2 -13.5 -5t-2.5 -14v-561q0 -12 2.5 -15t13.5 -5l77 -8v-54h-274zM347 832q-18 -27 -32 -38.5t-32 -11.5q-19 0 -43 7q-35 9 -70.5 19t-52.5 14q-10 1 -16 -5l-39 -38l-42 30
l29 44q15 23 29 32.5t31 9.5q9 0 19 -2t23 -5q16 -4 34.5 -9t36 -9.5t32 -8.5t21.5 -5q9 -3 15 3l36 37l44 -29z" />
    <glyph glyph-name="itilde" unicode="&#x129;" horiz-adv-x="297" 
d="M277 638q-17 -27 -30 -38.5t-30 -11.5q-19 0 -41 7q-16 4 -33 9.5t-33 10t-29 8t-20 5.5q-10 1 -15 -5l-37 -38l-40 30l28 44q14 23 27 32.5t29 9.5q8 0 18 -2t22 -5q15 -4 32 -9t33.5 -9.5t30 -8.5t20.5 -5q9 -3 14 3l34 37l41 -29zM26 0v55l66 6q11 1 13.5 5t2.5 15
v340q0 17 -13 21l-57 19l9 53h152v-433q0 -12 2.5 -15t13.5 -5l64 -7v-54h-253z" />
    <glyph glyph-name="Imacron" unicode="&#x12a;" horiz-adv-x="382" 
d="M56 0v54l73 7q11 1 13.5 5t2.5 15v562q0 11 -2.5 15t-13.5 5l-73 7v54h274v-54l-77 -8q-11 -2 -13.5 -5t-2.5 -14v-561q0 -12 2.5 -15t13.5 -5l77 -8v-54h-274zM41 794v69h307v-69h-307z" />
    <glyph glyph-name="imacron" unicode="&#x12b;" horiz-adv-x="297" 
d="M2 611v69h263v-69h-263zM26 0v55l66 6q11 1 13.5 5t2.5 15v340q0 17 -13 21l-57 19l9 53h152v-433q0 -12 2.5 -15t13.5 -5l64 -7v-54h-253z" />
    <glyph glyph-name="Ibreve" unicode="&#x12c;" horiz-adv-x="382" 
d="M56 0v54l73 7q11 1 13.5 5t2.5 15v562q0 11 -2.5 15t-13.5 5l-73 7v54h274v-54l-77 -8q-11 -2 -13.5 -5t-2.5 -14v-561q0 -12 2.5 -15t13.5 -5l77 -8v-54h-274zM349 899q-17 -62 -58.5 -89.5t-100.5 -27.5q-60 0 -97 27.5t-54 89.5l60 22q16 -44 40.5 -59t54.5 -15
q15 0 29.5 2.5t27.5 10.5t24 22.5t19 37.5z" />
    <glyph glyph-name="ibreve" unicode="&#x12d;" horiz-adv-x="297" 
d="M290 706q-16 -63 -54.5 -98t-104.5 -35t-102.5 35t-52.5 98l60 21q14 -47 37 -68t61 -21t61.5 21t38.5 69zM26 0v55l66 6q11 1 13.5 5t2.5 15v340q0 17 -13 21l-57 19l9 53h152v-433q0 -12 2.5 -15t13.5 -5l64 -7v-54h-253z" />
    <glyph glyph-name="Iogonek" unicode="&#x12e;" horiz-adv-x="392" 
d="M267 -196q-47 -22 -93 -22q-42 0 -66.5 19.5t-24.5 59.5q0 22 8 41.5t20.5 37t28.5 33t31 27.5h-110v54l73 7q11 1 13.5 5t2.5 15v562q0 11 -2.5 15t-13.5 5l-73 7v54h274v-54l-77 -8q-11 -2 -13.5 -5t-2.5 -14v-561q0 -12 2.5 -15t13.5 -5l77 -8v-54h-85
q-13 -11 -27.5 -24t-27 -28.5t-21 -32.5t-8.5 -35q0 -32 31 -32q11 0 23.5 3.5t25.5 8.5z" />
    <glyph glyph-name="iogonek" unicode="&#x12f;" horiz-adv-x="297" 
d="M217 -196q-47 -22 -93 -22q-42 0 -66.5 19.5t-24.5 59.5q0 22 8 41.5t20.5 37t28.5 33t31 27.5h-95v55l66 6q11 1 13.5 5t2.5 15v340q0 17 -13 21l-57 19l9 53h152v-433q0 -12 2.5 -15t13.5 -5l64 -7v-54h-79q-13 -11 -27.5 -24t-27 -28.5t-21 -32.5t-8.5 -35
q0 -32 31 -32q11 0 23.5 3.5t25.5 8.5zM204 689q0 -64 -64 -64q-31 0 -48 16.5t-17 47.5q0 30 17 46.5t48 16.5t47.5 -16.5t16.5 -46.5z" />
    <glyph glyph-name="Idotaccent" unicode="&#x130;" horiz-adv-x="382" 
d="M56 0v54l73 7q11 1 13.5 5t2.5 15v562q0 11 -2.5 15t-13.5 5l-73 7v54h274v-54l-77 -8q-11 -2 -13.5 -5t-2.5 -14v-561q0 -12 2.5 -15t13.5 -5l77 -8v-54h-274zM259 845q0 -30 -17 -46.5t-48 -16.5t-47.5 16.5t-16.5 46.5q0 63 64 63q31 0 48 -16t17 -47z" />
    <glyph glyph-name="dotlessi" unicode="&#x131;" horiz-adv-x="297" 
d="M26 0v55l66 6q11 1 13.5 5t2.5 15v340q0 17 -13 21l-57 19l9 53h152v-433q0 -12 2.5 -15t13.5 -5l64 -7v-54h-253z" />
    <glyph glyph-name="IJ" unicode="&#x132;" horiz-adv-x="891" 
d="M56 0v54l73 7q11 1 13.5 5t2.5 15v562q0 11 -2.5 15t-13.5 5l-73 7v54h274v-54l-77 -8q-11 -2 -13.5 -5t-2.5 -14v-561q0 -12 2.5 -15t13.5 -5l77 -8v-54h-274zM678 644q0 11 -3 14.5t-13 4.5l-85 7v54h276v-54l-67 -8q-11 -2 -13.5 -4.5t-2.5 -13.5v-497q0 -81 -39 -120
t-127 -39q-29 0 -55 3.5t-47.5 8.5t-37.5 11.5t-24 11.5v138l68 -4l10 -69q1 -9 12 -14q8 -3 25.5 -7.5t43.5 -4.5q47 0 63 22t16 69v491z" />
    <glyph glyph-name="ij" unicode="&#x133;" horiz-adv-x="584" 
d="M204 689q0 -64 -64 -64q-31 0 -48 16.5t-17 47.5q0 30 17 46.5t48 16.5t47.5 -16.5t16.5 -46.5zM26 0v55l66 6q11 1 13.5 5t2.5 15v340q0 17 -13 21l-57 19l9 53h152v-433q0 -12 2.5 -15t13.5 -5l64 -7v-54h-253zM403 421q0 17 -13 21l-64 19l9 53h159v-579
q0 -81 -35 -119.5t-109 -38.5q-47 0 -84.5 13.5t-55.5 28.5l36 59q13 -10 37.5 -19.5t52.5 -9.5q40 0 53.5 25t13.5 79v468zM501 689q0 -31 -17 -47.5t-48 -16.5q-30 0 -47 16.5t-17 47.5q0 30 17 46.5t47 16.5q31 0 48 -16.5t17 -46.5z" />
    <glyph glyph-name="Jcircumflex" unicode="&#x134;" horiz-adv-x="504" 
d="M291 644q0 11 -3 14.5t-13 4.5l-85 7v54h276v-54l-67 -8q-11 -2 -13.5 -4.5t-2.5 -13.5v-497q0 -81 -39 -120t-127 -39q-29 0 -55 3.5t-47.5 8.5t-37.5 11.5t-24 11.5v138l68 -4l10 -69q1 -9 12 -14q8 -3 25.5 -7.5t43.5 -4.5q47 0 63 22t16 69v491zM337 849l-119 -83
l-40 41l117 102h84l117 -102l-40 -41z" />
    <glyph glyph-name="jcircumflex" unicode="&#x135;" horiz-adv-x="284" 
d="M106 421q0 17 -13 21l-64 19l9 53h159v-579q0 -82 -35.5 -120t-112.5 -38q-43 0 -80.5 13.5t-55.5 28.5l36 59q12 -10 37 -19.5t50 -9.5q43 0 56.5 25t13.5 79v468zM251 566l-125 101l-125 -101l-44 38l127 123h84l127 -123z" />
    <glyph glyph-name="Kcommaaccent" unicode="&#x136;" horiz-adv-x="735" 
d="M451 0v54l69 8l-210 278l-78 -85v-173q0 -12 2.5 -15t13.5 -5l67 -8v-54h-254v54l63 7q11 2 13.5 5.5t2.5 14.5v562q0 11 -2.5 15t-13.5 5l-63 7v54h254v-54l-67 -8q-11 -2 -13.5 -5t-2.5 -14v-286l278 304l-62 8v55h225v-54l-51 -9q-14 -2 -18.5 -5.5t-11.5 -11.5
l-217 -234l246 -330q7 -9 11.5 -11.5t17.5 -4.5l61 -10v-54h-260zM325 -252l22 87q3 8 -5 11l-34 14l22 80q23 -1 42.5 -3.5t33.5 -9t21.5 -18.5t7.5 -32q0 -14 -5 -28.5t-12 -27.5l-47 -89z" />
    <glyph glyph-name="kcommaaccent" unicode="&#x137;" horiz-adv-x="591" 
d="M345 0v54l63 8l-125 207l-84 -94v-94q0 -12 2.5 -15t13.5 -5l60 -7v-54h-245v55l62 6q11 1 13.5 5t2.5 15v581q0 17 -13 21l-60 19l9 53h155v-481l212 240h111v-54l-57 -12q-9 -2 -13.5 -4.5t-11.5 -10.5l-91 -102l152 -252q6 -9 11 -11.5t18 -4.5l52 -9v-54h-237z
M249 -252l22 87q3 8 -5 11l-34 14l22 80q23 -1 42.5 -3.5t33.5 -9t21.5 -18.5t7.5 -32q0 -14 -5 -28.5t-12 -27.5l-47 -89z" />
    <glyph glyph-name="kgreenlandic" unicode="&#x138;" horiz-adv-x="591" 
d="M345 0v54l63 8l-125 207l-84 -94v-94q0 -12 2.5 -15t13.5 -5l60 -7v-54h-245v55l62 6q11 1 13.5 5t2.5 15v340q0 17 -13 21l-60 19l9 53h155v-240l212 240h111v-54l-57 -12q-9 -2 -13.5 -4.5t-11.5 -10.5l-91 -102l152 -252q6 -9 11 -11.5t18 -4.5l52 -9v-54h-237z" />
    <glyph glyph-name="Lacute" unicode="&#x139;" horiz-adv-x="619" 
d="M61 0v54l63 7q11 2 13.5 5.5t2.5 14.5v561q0 11 -2.5 15t-13.5 5l-63 7v55h270v-55l-83 -8q-11 -1 -13.5 -4.5t-2.5 -14.5v-571h254q8 0 11 1.5t5 9.5l16 90h67v-172h-524zM114 766l-29 46l188 129l45 -74z" />
    <glyph glyph-name="lacute" unicode="&#x13a;" horiz-adv-x="297" 
d="M30 0v55l62 6q11 1 13.5 5t2.5 15v581q0 17 -13 21l-60 19l9 53h155v-674q0 -12 2.5 -15t13.5 -5l60 -7v-54h-245zM41 791l-29 46l188 129l45 -74z" />
    <glyph glyph-name="Lcommaaccent" unicode="&#x13b;" horiz-adv-x="619" 
d="M61 0v54l63 7q11 2 13.5 5.5t2.5 14.5v561q0 11 -2.5 15t-13.5 5l-63 7v55h270v-55l-83 -8q-11 -1 -13.5 -4.5t-2.5 -14.5v-571h254q8 0 11 1.5t5 9.5l16 90h67v-172h-524zM292 -252l22 87q3 8 -5 11l-34 14l22 80q23 -1 42.5 -3.5t33.5 -9t21.5 -18.5t7.5 -32
q0 -14 -5 -28.5t-12 -27.5l-47 -89z" />
    <glyph glyph-name="lcommaaccent" unicode="&#x13c;" horiz-adv-x="297" 
d="M30 0v55l62 6q11 1 13.5 5t2.5 15v581q0 17 -13 21l-60 19l9 53h155v-674q0 -12 2.5 -15t13.5 -5l60 -7v-54h-245zM103 -252l22 87q3 8 -5 11l-34 14l22 80q23 -1 42.5 -3.5t33.5 -9t21.5 -18.5t7.5 -32q0 -14 -5 -28.5t-12 -27.5l-47 -89z" />
    <glyph glyph-name="Lcaron" unicode="&#x13d;" horiz-adv-x="619" 
d="M61 0v54l63 7q11 2 13.5 5.5t2.5 14.5v561q0 11 -2.5 15t-13.5 5l-63 7v55h270v-55l-83 -8q-11 -1 -13.5 -4.5t-2.5 -14.5v-571h254q8 0 11 1.5t5 9.5l16 90h67v-172h-524zM378 571q7 23 13 48.5t6 54.5q0 24 -4.5 39.5t-9.5 24.5l69 30q12 -14 18 -26t6 -29
q0 -9 -1.5 -20.5t-6.5 -25.5q-8 -29 -20 -57t-24 -53z" />
    <glyph glyph-name="lcaron" unicode="&#x13e;" horiz-adv-x="339" 
d="M30 0v55l62 6q11 1 13.5 5t2.5 15v581q0 17 -13 21l-60 19l9 53h155v-674q0 -12 2.5 -15t13.5 -5l60 -7v-54h-245zM244 582q7 23 13 48.5t6 54.5q0 24 -4.5 39.5t-9.5 24.5l69 30q12 -14 18 -26t6 -29q0 -9 -1.5 -20.5t-6.5 -25.5q-8 -29 -20 -57t-24 -53z" />
    <glyph glyph-name="Ldot" unicode="&#x13f;" horiz-adv-x="619" 
d="M61 0v54l63 7q11 2 13.5 5.5t2.5 14.5v561q0 11 -2.5 15t-13.5 5l-63 7v55h270v-55l-83 -8q-11 -1 -13.5 -4.5t-2.5 -14.5v-571h254q8 0 11 1.5t5 9.5l16 90h67v-172h-524zM547 397q0 -30 -17 -46.5t-48 -16.5t-47.5 16.5t-16.5 46.5q0 63 64 63q31 0 48 -16t17 -47z" />
    <glyph glyph-name="ldot" unicode="&#x140;" horiz-adv-x="369" 
d="M30 0v55l62 6q11 1 13.5 5t2.5 15v581q0 17 -13 21l-60 19l9 53h155v-674q0 -12 2.5 -15t13.5 -5l60 -7v-54h-245zM399 379q0 -31 -17 -47.5t-48 -16.5q-64 0 -64 64q0 30 16.5 46.5t47.5 16.5t48 -16.5t17 -46.5z" />
    <glyph glyph-name="Lslash" unicode="&#x141;" horiz-adv-x="619" 
d="M61 0v54l63 7q11 2 13.5 5.5t2.5 14.5v209l-85 -35v70l85 35v282q0 11 -2.5 15t-13.5 5l-63 7v55h270v-55l-83 -8q-11 -1 -13.5 -4.5t-2.5 -14.5v-243l235 98v-72l-235 -97v-257h254q8 0 11 1.5t5 9.5l16 90h67v-172h-524z" />
    <glyph glyph-name="lslash" unicode="&#x142;" horiz-adv-x="302" 
d="M30 0v55l62 6q11 1 13.5 5t2.5 15v259l-83 -40v74l83 40v248q0 17 -13 21l-60 19l9 53h155v-297l84 41v-74l-84 -41v-303q0 -12 2.5 -15t13.5 -5l60 -7v-54h-245z" />
    <glyph glyph-name="Nacute" unicode="&#x143;" horiz-adv-x="828" 
d="M586 0l-365 605v-523q0 -12 2.5 -15t13.5 -5l67 -8v-54h-243v54l63 7q11 2 13.5 5.5t2.5 14.5v562q0 11 -2.5 15t-13.5 5l-63 7v55h196l356 -601v519q0 11 -2.5 15t-13.5 5l-63 7v54h242v-54l-67 -8q-11 -2 -13.5 -5t-2.5 -14v-643h-107zM370 766l-29 46l188 129l45 -74z
" />
    <glyph glyph-name="nacute" unicode="&#x144;" horiz-adv-x="630" 
d="M375 0v55l48 6q18 1 18 20v237q0 24 -3 47t-12.5 41t-26.5 29t-45 11q-43 0 -82.5 -18.5t-72.5 -45.5v-301q0 -12 2.5 -15t13.5 -5l56 -7v-54h-229v55l50 6q11 2 13.5 5.5t2.5 14.5v340q0 17 -13 21l-57 19l9 53h131l8 -59l3 -1q39 28 85 49t100 21q43 0 73 -13.5
t49 -37.5t27.5 -57.5t8.5 -74.5v-260q0 -12 2.5 -15t13.5 -5l57 -7v-54h-230zM246 567l-39 37l155 164l60 -60z" />
    <glyph glyph-name="Ncommaaccent" unicode="&#x145;" horiz-adv-x="828" 
d="M586 0l-365 605v-523q0 -12 2.5 -15t13.5 -5l67 -8v-54h-243v54l63 7q11 2 13.5 5.5t2.5 14.5v562q0 11 -2.5 15t-13.5 5l-63 7v55h196l356 -601v519q0 11 -2.5 15t-13.5 5l-63 7v54h242v-54l-67 -8q-11 -2 -13.5 -5t-2.5 -14v-643h-107zM363 -252l22 87q3 8 -5 11
l-34 14l22 80q23 -1 42.5 -3.5t33.5 -9t21.5 -18.5t7.5 -32q0 -14 -5 -28.5t-12 -27.5l-47 -89z" />
    <glyph glyph-name="ncommaaccent" unicode="&#x146;" horiz-adv-x="630" 
d="M375 0v55l48 6q18 1 18 20v237q0 24 -3 47t-12.5 41t-26.5 29t-45 11q-43 0 -82.5 -18.5t-72.5 -45.5v-301q0 -12 2.5 -15t13.5 -5l56 -7v-54h-229v55l50 6q11 2 13.5 5.5t2.5 14.5v340q0 17 -13 21l-57 19l9 53h131l8 -59l3 -1q39 28 85 49t100 21q43 0 73 -13.5
t49 -37.5t27.5 -57.5t8.5 -74.5v-260q0 -12 2.5 -15t13.5 -5l57 -7v-54h-230zM268 -252l22 87q3 8 -5 11l-34 14l22 80q23 -1 42.5 -3.5t33.5 -9t21.5 -18.5t7.5 -32q0 -14 -5 -28.5t-12 -27.5l-47 -89z" />
    <glyph glyph-name="Ncaron" unicode="&#x147;" horiz-adv-x="828" 
d="M586 0l-365 605v-523q0 -12 2.5 -15t13.5 -5l67 -8v-54h-243v54l63 7q11 2 13.5 5.5t2.5 14.5v562q0 11 -2.5 15t-13.5 5l-63 7v55h196l356 -601v519q0 11 -2.5 15t-13.5 5l-63 7v54h242v-54l-67 -8q-11 -2 -13.5 -5t-2.5 -14v-643h-107zM464 777h-84l-117 102l40 41
l119 -83l119 83l41 -41z" />
    <glyph glyph-name="ncaron" unicode="&#x148;" horiz-adv-x="630" 
d="M375 0v55l48 6q18 1 18 20v237q0 24 -3 47t-12.5 41t-26.5 29t-45 11q-43 0 -82.5 -18.5t-72.5 -45.5v-301q0 -12 2.5 -15t13.5 -5l56 -7v-54h-229v55l50 6q11 2 13.5 5.5t2.5 14.5v340q0 17 -13 21l-57 19l9 53h131l8 -59l3 -1q39 28 85 49t100 21q43 0 73 -13.5
t49 -37.5t27.5 -57.5t8.5 -74.5v-260q0 -12 2.5 -15t13.5 -5l57 -7v-54h-230zM264 578l-125 121l43 40l124 -101l126 101l44 -39l-128 -122h-84z" />
    <glyph glyph-name="napostrophe" unicode="&#x149;" horiz-adv-x="651" 
d="M396 0v55l48 6q18 1 18 20v237q0 24 -3 47t-12.5 41t-26.5 29t-45 11q-43 0 -82.5 -18.5t-72.5 -45.5v-301q0 -12 2.5 -15t13.5 -5l56 -7v-54h-229v55l50 6q11 2 13.5 5.5t2.5 14.5v340q0 17 -13 21l-57 19l9 53h131l8 -59l3 -1q39 28 85 49t100 21q43 0 73 -13.5
t49 -37.5t27.5 -57.5t8.5 -74.5v-260q0 -12 2.5 -15t13.5 -5l57 -7v-54h-230zM-8 514l24 77q2 6 1 8t-4 4l-30 11l18 66q40 -1 66 -10t26 -42q0 -11 -3.5 -21t-9.5 -21l-47 -86z" />
    <glyph glyph-name="Eng" unicode="&#x14a;" horiz-adv-x="828" 
d="M602 0l-381 605v-523q0 -12 2.5 -15t13.5 -5l67 -8v-54h-243v54l63 7q11 2 13.5 5.5t2.5 14.5v562q0 11 -2.5 15t-13.5 5l-63 7v55h196l356 -581v499q0 11 -2.5 15t-13.5 5l-63 7v54h242v-54l-67 -8q-11 -2 -13.5 -5t-2.5 -14v-708q0 -81 -43 -119.5t-121 -38.5
q-24 0 -47.5 4.5t-43 11.5t-35 15t-24.5 16l36 59q6 -5 17.5 -11t26 -11t30.5 -8.5t33 -3.5q37 0 58.5 25t21.5 79v47z" />
    <glyph glyph-name="eng" unicode="&#x14b;" horiz-adv-x="630" 
d="M441 318q0 24 -3 47t-12.5 41t-26.5 29t-45 11q-43 0 -82.5 -18.5t-72.5 -45.5v-301q0 -12 2.5 -15t13.5 -5l56 -7v-54h-229v55l50 6q11 2 13.5 5.5t2.5 14.5v340q0 17 -13 21l-57 19l9 53h131l8 -59l3 -1q39 28 85 49t100 21q43 0 73 -13.5t49 -37.5t27.5 -57.5
t8.5 -74.5v-406q0 -81 -35 -119.5t-109 -38.5q-47 0 -84.5 13.5t-55.5 28.5l36 59q13 -10 37.5 -19.5t52.5 -9.5q40 0 53.5 25t13.5 79v365z" />
    <glyph glyph-name="Omacron" unicode="&#x14c;" horiz-adv-x="777" 
d="M384 -12q-87 0 -150 28t-104 78t-60.5 119.5t-19.5 152.5q0 79 22.5 147t66 118t108.5 78t151 28q85 0 147 -28t102.5 -76.5t60 -114.5t19.5 -141q0 -89 -21.5 -160.5t-64 -122.5t-107 -78.5t-150.5 -27.5zM389 65q54 0 99 18t77 55.5t49.5 94.5t17.5 134
q0 145 -63.5 219t-172.5 74q-55 0 -101 -19t-79.5 -56t-52 -92t-18.5 -127q0 -75 17.5 -131.5t49.5 -94t77 -56.5t100 -19zM243 795v69h307v-69h-307z" />
    <glyph glyph-name="omacron" unicode="&#x14d;" horiz-adv-x="568" 
d="M281 -12q-65 0 -111 20t-75 56t-42 85.5t-13 109.5q0 59 15 107.5t46 83.5t78.5 54.5t111.5 19.5t109 -19.5t73.5 -54t41.5 -82t13 -103.5q0 -63 -14.5 -114t-45 -87.5t-77 -56t-110.5 -19.5zM284 61q73 0 111.5 47.5t38.5 150.5q0 99 -36 144t-109 45q-74 0 -114.5 -45
t-40.5 -145q0 -197 150 -197zM138 611v69h307v-69h-307z" />
    <glyph glyph-name="Obreve" unicode="&#x14e;" horiz-adv-x="777" 
d="M384 -12q-87 0 -150 28t-104 78t-60.5 119.5t-19.5 152.5q0 79 22.5 147t66 118t108.5 78t151 28q85 0 147 -28t102.5 -76.5t60 -114.5t19.5 -141q0 -89 -21.5 -160.5t-64 -122.5t-107 -78.5t-150.5 -27.5zM389 65q54 0 99 18t77 55.5t49.5 94.5t17.5 134
q0 145 -63.5 219t-172.5 74q-55 0 -101 -19t-79.5 -56t-52 -92t-18.5 -127q0 -75 17.5 -131.5t49.5 -94t77 -56.5t100 -19zM551 900q-17 -62 -58.5 -89.5t-100.5 -27.5q-60 0 -97 27.5t-54 89.5l60 22q16 -44 40.5 -59t54.5 -15q15 0 29.5 2.5t27.5 10.5t24 22.5t19 37.5z
" />
    <glyph glyph-name="obreve" unicode="&#x14f;" horiz-adv-x="568" 
d="M281 -12q-65 0 -111 20t-75 56t-42 85.5t-13 109.5q0 59 15 107.5t46 83.5t78.5 54.5t111.5 19.5t109 -19.5t73.5 -54t41.5 -82t13 -103.5q0 -63 -14.5 -114t-45 -87.5t-77 -56t-110.5 -19.5zM284 61q73 0 111.5 47.5t38.5 150.5q0 99 -36 144t-109 45q-74 0 -114.5 -45
t-40.5 -145q0 -197 150 -197zM458 706q-17 -63 -57.5 -98t-111.5 -35t-109.5 35t-55.5 98l60 21q16 -47 41 -68t67 -21t67.5 21t42.5 69z" />
    <glyph glyph-name="Ohungarumlaut" unicode="&#x150;" horiz-adv-x="777" 
d="M384 -12q-87 0 -150 28t-104 78t-60.5 119.5t-19.5 152.5q0 79 22.5 147t66 118t108.5 78t151 28q85 0 147 -28t102.5 -76.5t60 -114.5t19.5 -141q0 -89 -21.5 -160.5t-64 -122.5t-107 -78.5t-150.5 -27.5zM389 65q54 0 99 18t77 55.5t49.5 94.5t17.5 134
q0 145 -63.5 219t-172.5 74q-55 0 -101 -19t-79.5 -56t-52 -92t-18.5 -127q0 -75 17.5 -131.5t49.5 -94t77 -56.5t100 -19zM294 766l-41 37l150 167l62 -59zM461 765l-37 38l160 157l58 -62z" />
    <glyph glyph-name="ohungarumlaut" unicode="&#x151;" horiz-adv-x="568" 
d="M281 -12q-65 0 -111 20t-75 56t-42 85.5t-13 109.5q0 59 15 107.5t46 83.5t78.5 54.5t111.5 19.5t109 -19.5t73.5 -54t41.5 -82t13 -103.5q0 -63 -14.5 -114t-45 -87.5t-77 -56t-110.5 -19.5zM284 61q73 0 111.5 47.5t38.5 150.5q0 99 -36 144t-109 45q-74 0 -114.5 -45
t-40.5 -145q0 -197 150 -197zM183 568l-42 33l135 180l66 -54zM354 568l-43 33l136 180l66 -54z" />
    <glyph glyph-name="OE" unicode="&#x152;" horiz-adv-x="988" 
d="M446 0q-45 -12 -100 -12q-86 0 -143 28t-91 78t-48 119.5t-14 152.5q0 79 16.5 147t53.5 118t96 78t144 28q29 0 53.5 -3.5t46.5 -9.5h464v-165l-68 4l-14 77q-3 13 -17 13h-254q42 -45 60.5 -109.5t20.5 -142.5h216v-72h-217q-4 -85 -24.5 -150t-64.5 -108h285
q8 0 11 1.5t5 9.5l16 87h67v-169h-500zM351 68q108 0 156.5 73.5t48.5 225.5q0 141 -48.5 215.5t-148.5 74.5q-103 0 -157.5 -75t-54.5 -216q0 -148 48 -223t156 -75z" />
    <glyph glyph-name="oe" unicode="&#x153;" horiz-adv-x="902" 
d="M851 33q-38 -21 -82.5 -33t-95.5 -12q-79 0 -126 28t-70 76q-27 -49 -77.5 -76.5t-125.5 -27.5q-63 0 -107.5 20t-72.5 56t-41 85.5t-13 109.5q0 59 15 107.5t46 83.5t77 54.5t109 19.5q76 0 122.5 -27t71.5 -73q28 49 74.5 74.5t106.5 25.5q44 0 81 -13t64 -41.5t42 -74
t15 -110.5q0 -10 -0.5 -23.5t-1.5 -26.5h-337q1 -39 10 -70t27.5 -53.5t47 -34.5t69.5 -12q21 0 38.5 2t34 6.5t34 11t37.5 16.5zM282 61q73 0 112 48t39 150q0 97 -35.5 143t-108.5 46q-74 0 -114 -46t-40 -144q0 -197 147 -197zM772 304q0 43 -9.5 71t-25 45t-36.5 24
t-44 7q-25 0 -47 -7t-39.5 -24.5t-29 -45.5t-14.5 -70h245z" />
    <glyph glyph-name="Racute" unicode="&#x154;" horiz-adv-x="680" 
d="M413 0v54l79 6l-83 207q-10 24 -24 33t-44 9h-110v-227q0 -12 2.5 -15t13.5 -5l66 -8v-54h-252v54l63 7q11 2 13.5 5.5t2.5 14.5v561q0 11 -2.5 15t-13.5 5l-63 7v55h306q67 0 111 -17t69.5 -45t35.5 -63t10 -71q0 -80 -39 -126.5t-100 -68.5q25 -11 35 -28t21 -45
l68 -175q5 -12 12.5 -16.5t18.5 -6.5l61 -9v-53h-257zM323 381q36 0 67.5 6t55 22.5t37.5 44t14 71.5q0 38 -12 62.5t-36 38.5t-59 19.5t-81 5.5h-78v-270h92zM257 766l-29 46l188 129l45 -74z" />
    <glyph glyph-name="racute" unicode="&#x155;" horiz-adv-x="433" 
d="M42 0v55l50 6q11 2 13.5 5.5t2.5 14.5v340q0 17 -13 21l-57 19l9 53h131l10 -69l3 -1q12 14 27.5 28t34.5 25.5t40.5 19t47.5 7.5q17 0 37.5 -2.5t34.5 -6.5v-151l-71 3l-12 69q-1 10 -12 10q-17 0 -34.5 -7t-33.5 -16.5t-29 -20.5t-22 -19v-301q0 -12 2.5 -15.5
t13.5 -4.5l92 -8v-54h-265zM165 567l-39 37l155 164l60 -60z" />
    <glyph glyph-name="Rcommaaccent" unicode="&#x156;" horiz-adv-x="680" 
d="M413 0v54l79 6l-83 207q-10 24 -24 33t-44 9h-110v-227q0 -12 2.5 -15t13.5 -5l66 -8v-54h-252v54l63 7q11 2 13.5 5.5t2.5 14.5v561q0 11 -2.5 15t-13.5 5l-63 7v55h306q67 0 111 -17t69.5 -45t35.5 -63t10 -71q0 -80 -39 -126.5t-100 -68.5q25 -11 35 -28t21 -45
l68 -175q5 -12 12.5 -16.5t18.5 -6.5l61 -9v-53h-257zM323 381q36 0 67.5 6t55 22.5t37.5 44t14 71.5q0 38 -12 62.5t-36 38.5t-59 19.5t-81 5.5h-78v-270h92zM306 -252l22 87q3 8 -5 11l-34 14l22 80q23 -1 42.5 -3.5t33.5 -9t21.5 -18.5t7.5 -32q0 -14 -5 -28.5t-12 -27.5
l-47 -89z" />
    <glyph glyph-name="rcommaaccent" unicode="&#x157;" horiz-adv-x="433" 
d="M42 0v55l50 6q11 2 13.5 5.5t2.5 14.5v340q0 17 -13 21l-57 19l9 53h131l10 -69l3 -1q12 14 27.5 28t34.5 25.5t40.5 19t47.5 7.5q17 0 37.5 -2.5t34.5 -6.5v-151l-71 3l-12 69q-1 10 -12 10q-17 0 -34.5 -7t-33.5 -16.5t-29 -20.5t-22 -19v-301q0 -12 2.5 -15.5
t13.5 -4.5l92 -8v-54h-265zM107 -252l22 87q3 8 -5 11l-34 14l22 80q23 -1 42.5 -3.5t33.5 -9t21.5 -18.5t7.5 -32q0 -14 -5 -28.5t-12 -27.5l-47 -89z" />
    <glyph glyph-name="Rcaron" unicode="&#x158;" horiz-adv-x="680" 
d="M413 0v54l79 6l-83 207q-10 24 -24 33t-44 9h-110v-227q0 -12 2.5 -15t13.5 -5l66 -8v-54h-252v54l63 7q11 2 13.5 5.5t2.5 14.5v561q0 11 -2.5 15t-13.5 5l-63 7v55h306q67 0 111 -17t69.5 -45t35.5 -63t10 -71q0 -80 -39 -126.5t-100 -68.5q25 -11 35 -28t21 -45
l68 -175q5 -12 12.5 -16.5t18.5 -6.5l61 -9v-53h-257zM323 381q36 0 67.5 6t55 22.5t37.5 44t14 71.5q0 38 -12 62.5t-36 38.5t-59 19.5t-81 5.5h-78v-270h92zM371 777h-84l-117 102l40 41l119 -83l119 83l41 -41z" />
    <glyph glyph-name="rcaron" unicode="&#x159;" horiz-adv-x="433" 
d="M42 0v55l50 6q11 2 13.5 5.5t2.5 14.5v340q0 17 -13 21l-57 19l9 53h131l10 -69l3 -1q12 14 27.5 28t34.5 25.5t40.5 19t47.5 7.5q17 0 37.5 -2.5t34.5 -6.5v-151l-71 3l-12 69q-1 10 -12 10q-17 0 -34.5 -7t-33.5 -16.5t-29 -20.5t-22 -19v-301q0 -12 2.5 -15.5
t13.5 -4.5l92 -8v-54h-265zM183 578l-125 121l43 40l124 -101l126 101l44 -39l-128 -122h-84z" />
    <glyph glyph-name="Sacute" unicode="&#x15a;" horiz-adv-x="584" 
d="M440 538l-15 85q-2 11 -4.5 15t-6.5 6q-11 6 -33.5 11.5t-61.5 5.5q-78 0 -115.5 -31t-37.5 -85q0 -31 12.5 -52t33.5 -35.5t48.5 -25t57.5 -19.5q37 -12 75 -25.5t69 -37t50 -59.5t19 -92q0 -58 -21.5 -98.5t-57.5 -65.5t-84 -36t-102 -11q-34 0 -67 4t-60.5 9.5t-49 12
t-33.5 12.5v164h67l19 -88q2 -10 5.5 -14t14.5 -8t39.5 -10.5t72.5 -6.5q77 0 120 30t43 96q0 33 -12 55.5t-32.5 37.5t-47 25t-55.5 19q-38 11 -76.5 23.5t-70 34.5t-51.5 57t-20 92q0 54 19.5 92.5t53.5 63t80 36.5t98 12q63 0 111.5 -12.5t74.5 -22.5v-170zM235 766
l-29 46l188 129l45 -74z" />
    <glyph glyph-name="sacute" unicode="&#x15b;" horiz-adv-x="460" 
d="M343 371l-12 62q-1 5 -2.5 8t-7.5 5q-11 4 -31.5 7.5t-46.5 3.5q-55 0 -80.5 -21.5t-25.5 -53.5q0 -21 10.5 -35t27.5 -23t40 -15.5t47 -12.5q29 -8 58 -17.5t52.5 -26t38 -42.5t14.5 -66q0 -44 -17 -73.5t-45 -48t-64.5 -26.5t-76.5 -8q-30 0 -59.5 4t-54.5 9t-42.5 11
t-24.5 10v133l67 -4l12 -69q1 -5 3 -8.5t9 -5.5q10 -4 35 -10t63 -6q51 0 80.5 19t29.5 60q0 22 -10 37t-26.5 24.5t-38.5 15.5t-46 12q-29 7 -58.5 15.5t-53.5 24t-39 41.5t-15 67q0 43 16.5 72.5t44.5 48t63.5 27t74.5 8.5q27 0 52 -3t46 -7.5t36.5 -9.5t23.5 -8v-129z
M181 567l-39 37l155 164l60 -60z" />
    <glyph glyph-name="Scircumflex" unicode="&#x15c;" horiz-adv-x="584" 
d="M440 538l-15 85q-2 11 -4.5 15t-6.5 6q-11 6 -33.5 11.5t-61.5 5.5q-78 0 -115.5 -31t-37.5 -85q0 -31 12.5 -52t33.5 -35.5t48.5 -25t57.5 -19.5q37 -12 75 -25.5t69 -37t50 -59.5t19 -92q0 -58 -21.5 -98.5t-57.5 -65.5t-84 -36t-102 -11q-34 0 -67 4t-60.5 9.5t-49 12
t-33.5 12.5v164h67l19 -88q2 -10 5.5 -14t14.5 -8t39.5 -10.5t72.5 -6.5q77 0 120 30t43 96q0 33 -12 55.5t-32.5 37.5t-47 25t-55.5 19q-38 11 -76.5 23.5t-70 34.5t-51.5 57t-20 92q0 54 19.5 92.5t53.5 63t80 36.5t98 12q63 0 111.5 -12.5t74.5 -22.5v-170zM307 849
l-119 -83l-40 41l117 102h84l117 -102l-40 -41z" />
    <glyph glyph-name="scircumflex" unicode="&#x15d;" horiz-adv-x="460" 
d="M343 371l-12 62q-1 5 -2.5 8t-7.5 5q-11 4 -31.5 7.5t-46.5 3.5q-55 0 -80.5 -21.5t-25.5 -53.5q0 -21 10.5 -35t27.5 -23t40 -15.5t47 -12.5q29 -8 58 -17.5t52.5 -26t38 -42.5t14.5 -66q0 -44 -17 -73.5t-45 -48t-64.5 -26.5t-76.5 -8q-30 0 -59.5 4t-54.5 9t-42.5 11
t-24.5 10v133l67 -4l12 -69q1 -5 3 -8.5t9 -5.5q10 -4 35 -10t63 -6q51 0 80.5 19t29.5 60q0 22 -10 37t-26.5 24.5t-38.5 15.5t-46 12q-29 7 -58.5 15.5t-53.5 24t-39 41.5t-15 67q0 43 16.5 72.5t44.5 48t63.5 27t74.5 8.5q27 0 52 -3t46 -7.5t36.5 -9.5t23.5 -8v-129z
M366 572l-125 101l-125 -101l-44 38l127 123h84l127 -123z" />
    <glyph glyph-name="Scedilla" unicode="&#x15e;" horiz-adv-x="584" 
d="M202 -180q13 -3 30 -3q38 0 55.5 15t17.5 39q0 21 -15 32.5t-55 12.5l10 73q-31 1 -60.5 5t-54.5 9.5t-44.5 11.5t-29.5 11v164h67l19 -88q2 -10 5.5 -14t14.5 -8t39.5 -10.5t72.5 -6.5q77 0 120 30t43 96q0 33 -12 55.5t-32.5 37.5t-47 25t-55.5 19q-38 11 -76.5 23.5
t-70 34.5t-51.5 57t-20 92q0 54 19.5 92.5t53.5 63t80 36.5t98 12q63 0 111.5 -12.5t74.5 -22.5v-170l-69 6l-15 85q-2 11 -4.5 15t-6.5 6q-11 6 -33.5 11.5t-61.5 5.5q-78 0 -115.5 -31t-37.5 -85q0 -31 12.5 -52t33.5 -35.5t48.5 -25t57.5 -19.5q37 -12 75 -25.5t69 -37
t50 -59.5t19 -92q0 -53 -18 -91t-49 -63t-72.5 -38.5t-88.5 -16.5l-4 -34q29 -6 51.5 -25.5t22.5 -56.5q0 -20 -7 -39.5t-23 -35t-41.5 -25.5t-62.5 -10q-11 0 -23 1t-21 3z" />
    <glyph glyph-name="scedilla" unicode="&#x15f;" horiz-adv-x="460" 
d="M147 -180q15 -3 31 -3q38 0 55.5 15t17.5 39q0 21 -15.5 32.5t-54.5 12.5l9 73q-26 2 -50.5 6t-44.5 8.5t-34 9.5t-20 9v127l67 -4l11 -63q1 -5 3 -8.5t9 -5.5q10 -4 35.5 -10t63.5 -6q51 0 80.5 19t29.5 60q0 22 -10 37t-26.5 24.5t-38.5 15.5t-46 12q-29 7 -58.5 15.5
t-53.5 24t-39 41.5t-15 67q0 43 16.5 72.5t44.5 48t63.5 27t74.5 8.5q27 0 52 -3t46 -7.5t36.5 -9.5t23.5 -8v-129l-67 4l-12 62q-1 5 -2.5 8t-7.5 5q-11 4 -31.5 7.5t-46.5 3.5q-55 0 -80.5 -21.5t-25.5 -53.5q0 -21 10.5 -35t27.5 -23t40 -15.5t47 -12.5q29 -8 58 -17.5
t52.5 -26t38 -42.5t14.5 -66t-14 -68t-38 -47t-56 -28.5t-68 -11.5l-4 -33q29 -6 51.5 -25.5t22.5 -56.5q0 -20 -7 -39.5t-23 -35t-42 -25.5t-63 -10q-11 0 -23 1t-20 3z" />
    <glyph glyph-name="Scaron" unicode="&#x160;" horiz-adv-x="584" 
d="M440 538l-15 85q-2 11 -4.5 15t-6.5 6q-11 6 -33.5 11.5t-61.5 5.5q-78 0 -115.5 -31t-37.5 -85q0 -31 12.5 -52t33.5 -35.5t48.5 -25t57.5 -19.5q37 -12 75 -25.5t69 -37t50 -59.5t19 -92q0 -58 -21.5 -98.5t-57.5 -65.5t-84 -36t-102 -11q-34 0 -67 4t-60.5 9.5t-49 12
t-33.5 12.5v164h67l19 -88q2 -10 5.5 -14t14.5 -8t39.5 -10.5t72.5 -6.5q77 0 120 30t43 96q0 33 -12 55.5t-32.5 37.5t-47 25t-55.5 19q-38 11 -76.5 23.5t-70 34.5t-51.5 57t-20 92q0 54 19.5 92.5t53.5 63t80 36.5t98 12q63 0 111.5 -12.5t74.5 -22.5v-170zM349 777h-84
l-117 102l40 41l119 -83l119 83l41 -41z" />
    <glyph glyph-name="scaron" unicode="&#x161;" horiz-adv-x="460" 
d="M343 371l-12 62q-1 5 -2.5 8t-7.5 5q-11 4 -31.5 7.5t-46.5 3.5q-55 0 -80.5 -21.5t-25.5 -53.5q0 -21 10.5 -35t27.5 -23t40 -15.5t47 -12.5q29 -8 58 -17.5t52.5 -26t38 -42.5t14.5 -66q0 -44 -17 -73.5t-45 -48t-64.5 -26.5t-76.5 -8q-30 0 -59.5 4t-54.5 9t-42.5 11
t-24.5 10v133l67 -4l12 -69q1 -5 3 -8.5t9 -5.5q10 -4 35 -10t63 -6q51 0 80.5 19t29.5 60q0 22 -10 37t-26.5 24.5t-38.5 15.5t-46 12q-29 7 -58.5 15.5t-53.5 24t-39 41.5t-15 67q0 43 16.5 72.5t44.5 48t63.5 27t74.5 8.5q27 0 52 -3t46 -7.5t36.5 -9.5t23.5 -8v-129z
M199 578l-125 121l43 40l124 -101l126 101l44 -39l-128 -122h-84z" />
    <glyph glyph-name="uni0162" unicode="&#x162;" horiz-adv-x="660" 
d="M250 -180q13 -3 30 -3q38 0 55.5 15t17.5 39q0 21 -15 32.5t-55 12.5l12 84h-130v55l103 7q11 1 13.5 5t2.5 15v571h-155q-8 0 -11 -1.5t-5 -9.5l-16 -87h-67v169h600v-169h-67l-16 87q-2 8 -5 9.5t-11 1.5h-155v-571q0 -11 2.5 -14.5t13.5 -4.5l110 -8v-55h-149l-6 -44
q29 -6 51.5 -25.5t22.5 -56.5q0 -20 -7 -39.5t-23 -35t-41.5 -25.5t-62.5 -10q-11 0 -23 1t-21 3z" />
    <glyph glyph-name="uni0163" unicode="&#x163;" horiz-adv-x="412" 
d="M163 -180q15 -3 31 -3q38 0 55.5 15t17.5 39q0 21 -15.5 32.5t-54.5 12.5l10 75q-53 8 -77 41t-24 91v312q0 5 -1 7.5t-7 2.5h-73v58q29 4 48.5 12.5t32.5 24.5t20 42t12 64h59v-122q0 -5 1 -7.5t7 -2.5h147v-69h-155v-295q0 -48 14.5 -67.5t57.5 -19.5q23 0 48 6t45 14
l22 -64q-26 -11 -56 -19.5t-63 -10.5l-4 -33q29 -6 51.5 -25.5t22.5 -56.5q0 -20 -7 -39.5t-23 -35t-42 -25.5t-63 -10q-11 0 -23 1t-20 3z" />
    <glyph glyph-name="Tcaron" unicode="&#x164;" horiz-adv-x="660" 
d="M165 0v55l103 7q11 1 13.5 5t2.5 15v571h-155q-8 0 -11 -1.5t-5 -9.5l-16 -87h-67v169h600v-169h-67l-16 87q-2 8 -5 9.5t-11 1.5h-155v-571q0 -11 2.5 -14.5t13.5 -4.5l110 -8v-55h-337zM372 777h-84l-117 102l40 41l119 -83l119 83l41 -41z" />
    <glyph glyph-name="tcaron" unicode="&#x165;" horiz-adv-x="412" 
d="M384 19q-30 -12 -65.5 -21.5t-73.5 -9.5q-72 0 -105.5 33.5t-33.5 101.5v312q0 5 -1 7.5t-7 2.5h-73v58q29 4 48.5 12.5t32.5 24.5t20 42t12 64h59v-122q0 -5 1 -7.5t7 -2.5h147v-69h-155v-295q0 -48 14.5 -67.5t57.5 -19.5q23 0 48 6t45 14zM267 566q7 23 13 48.5
t6 54.5q0 24 -4.5 39.5t-9.5 24.5l69 30q12 -14 18 -26t6 -29q0 -9 -1.5 -20.5t-6.5 -25.5q-8 -29 -20 -57t-24 -53z" />
    <glyph glyph-name="Tbar" unicode="&#x166;" horiz-adv-x="660" 
d="M165 0v55l103 7q11 1 13.5 5t2.5 15v241h-131v67h131v263h-155q-8 0 -11 -1.5t-5 -9.5l-16 -87h-67v169h600v-169h-67l-16 87q-2 8 -5 9.5t-11 1.5h-155v-263h120v-67h-120v-241q0 -11 2.5 -14.5t13.5 -4.5l110 -8v-55h-337z" />
    <glyph glyph-name="tbar" unicode="&#x167;" horiz-adv-x="412" 
d="M384 19q-30 -12 -65.5 -21.5t-73.5 -9.5q-72 0 -105.5 33.5t-33.5 101.5v110h-81v69h81v133q0 5 -1 7.5t-7 2.5h-73v58q29 4 48.5 12.5t32.5 24.5t20 42t12 64h59v-122q0 -5 1 -7.5t7 -2.5h147v-69h-155v-143h155v-69h-155v-83q0 -48 14.5 -67.5t57.5 -19.5q23 0 48 6
t45 14z" />
    <glyph glyph-name="Utilde" unicode="&#x168;" horiz-adv-x="788" 
d="M571 643q0 11 -2.5 15t-13.5 5l-63 7v54h248v-54l-67 -8q-11 -2 -13.5 -5t-2.5 -14v-401q0 -130 -69.5 -192t-197.5 -62q-70 0 -119 16.5t-80 48.5t-45.5 80t-14.5 111v399q0 11 -2.5 15t-13.5 5l-63 7v54h254v-54l-67 -8q-11 -2 -13.5 -5t-2.5 -14v-388q0 -101 43 -145
t130 -44q44 0 77 9.5t54.5 31.5t32.5 57.5t11 87.5v391zM554 832q-18 -27 -32 -38.5t-32 -11.5q-19 0 -43 7q-35 9 -70.5 19t-52.5 14q-10 1 -16 -5l-39 -38l-42 30l29 44q15 23 29 32.5t31 9.5q9 0 19 -2t23 -5q16 -4 34.5 -9t36 -9.5t32 -8.5t21.5 -5q9 -3 15 3l36 37
l44 -29z" />
    <glyph glyph-name="utilde" unicode="&#x169;" horiz-adv-x="627" 
d="M452 0l-8 68l-2 1q-17 -15 -37 -29.5t-43.5 -26t-51.5 -18.5t-61 -7q-41 0 -69 12.5t-44.5 35.5t-23.5 57t-7 77v254q0 12 -2.5 16.5t-13.5 6.5l-52 13l8 54h151v-323q0 -65 15.5 -97t62.5 -32q25 0 48.5 8t44 20.5t38 28t30.5 30.5v276q0 12 -2.5 16t-13.5 6l-50 13
l8 54h149v-432q0 -20 14 -21l53 -7v-54h-141zM456 638q-18 -27 -32 -38.5t-32 -11.5q-19 0 -43 7q-35 9 -70.5 19t-52.5 14q-10 1 -16 -5l-39 -38l-42 30l29 44q15 23 29 32.5t31 9.5q9 0 19 -2t23 -5q16 -4 34.5 -9t36 -9.5t32 -8.5t21.5 -5q9 -3 15 3l36 37l44 -29z" />
    <glyph glyph-name="Umacron" unicode="&#x16a;" horiz-adv-x="788" 
d="M571 643q0 11 -2.5 15t-13.5 5l-63 7v54h248v-54l-67 -8q-11 -2 -13.5 -5t-2.5 -14v-401q0 -130 -69.5 -192t-197.5 -62q-70 0 -119 16.5t-80 48.5t-45.5 80t-14.5 111v399q0 11 -2.5 15t-13.5 5l-63 7v54h254v-54l-67 -8q-11 -2 -13.5 -5t-2.5 -14v-388q0 -101 43 -145
t130 -44q44 0 77 9.5t54.5 31.5t32.5 57.5t11 87.5v391zM248 794v69h307v-69h-307z" />
    <glyph glyph-name="umacron" unicode="&#x16b;" horiz-adv-x="627" 
d="M452 0l-8 68l-2 1q-17 -15 -37 -29.5t-43.5 -26t-51.5 -18.5t-61 -7q-41 0 -69 12.5t-44.5 35.5t-23.5 57t-7 77v254q0 12 -2.5 16.5t-13.5 6.5l-52 13l8 54h151v-323q0 -65 15.5 -97t62.5 -32q25 0 48.5 8t44 20.5t38 28t30.5 30.5v276q0 12 -2.5 16t-13.5 6l-50 13
l8 54h149v-432q0 -20 14 -21l53 -7v-54h-141zM150 611v69h307v-69h-307z" />
    <glyph glyph-name="Ubreve" unicode="&#x16c;" horiz-adv-x="788" 
d="M571 643q0 11 -2.5 15t-13.5 5l-63 7v54h248v-54l-67 -8q-11 -2 -13.5 -5t-2.5 -14v-401q0 -130 -69.5 -192t-197.5 -62q-70 0 -119 16.5t-80 48.5t-45.5 80t-14.5 111v399q0 11 -2.5 15t-13.5 5l-63 7v54h254v-54l-67 -8q-11 -2 -13.5 -5t-2.5 -14v-388q0 -101 43 -145
t130 -44q44 0 77 9.5t54.5 31.5t32.5 57.5t11 87.5v391zM556 899q-17 -62 -58.5 -89.5t-100.5 -27.5q-60 0 -97 27.5t-54 89.5l60 22q16 -44 40.5 -59t54.5 -15q15 0 29.5 2.5t27.5 10.5t24 22.5t19 37.5z" />
    <glyph glyph-name="ubreve" unicode="&#x16d;" horiz-adv-x="627" 
d="M452 0l-8 68l-2 1q-17 -15 -37 -29.5t-43.5 -26t-51.5 -18.5t-61 -7q-41 0 -69 12.5t-44.5 35.5t-23.5 57t-7 77v254q0 12 -2.5 16.5t-13.5 6.5l-52 13l8 54h151v-323q0 -65 15.5 -97t62.5 -32q25 0 48.5 8t44 20.5t38 28t30.5 30.5v276q0 12 -2.5 16t-13.5 6l-50 13
l8 54h149v-432q0 -20 14 -21l53 -7v-54h-141zM470 706q-17 -63 -57.5 -98t-111.5 -35t-109.5 35t-55.5 98l60 21q16 -47 41 -68t67 -21t67.5 21t42.5 69z" />
    <glyph glyph-name="Uring" unicode="&#x16e;" horiz-adv-x="788" 
d="M571 643q0 11 -2.5 15t-13.5 5l-63 7v54h248v-54l-67 -8q-11 -2 -13.5 -5t-2.5 -14v-401q0 -130 -69.5 -192t-197.5 -62q-70 0 -119 16.5t-80 48.5t-45.5 80t-14.5 111v399q0 11 -2.5 15t-13.5 5l-63 7v54h254v-54l-67 -8q-11 -2 -13.5 -5t-2.5 -14v-388q0 -101 43 -145
t130 -44q44 0 77 9.5t54.5 31.5t32.5 57.5t11 87.5v391zM504 846q0 -45 -27 -71t-72 -26t-72 25t-27 69q0 48 28.5 73t70.5 25t70.5 -23.5t28.5 -71.5zM405 800q42 0 42 46q0 23 -11 33.5t-31 10.5t-31.5 -11t-11.5 -35q0 -44 43 -44z" />
    <glyph glyph-name="uring" unicode="&#x16f;" horiz-adv-x="627" 
d="M452 0l-8 68l-2 1q-17 -15 -37 -29.5t-43.5 -26t-51.5 -18.5t-61 -7q-41 0 -69 12.5t-44.5 35.5t-23.5 57t-7 77v254q0 12 -2.5 16.5t-13.5 6.5l-52 13l8 54h151v-323q0 -65 15.5 -97t62.5 -32q25 0 48.5 8t44 20.5t38 28t30.5 30.5v276q0 12 -2.5 16t-13.5 6l-50 13
l8 54h149v-432q0 -20 14 -21l53 -7v-54h-141zM402 671q0 -45 -27 -71t-72 -26t-72 25t-27 69q0 48 28.5 73t70.5 25t70.5 -23.5t28.5 -71.5zM303 625q42 0 42 46q0 23 -11 33.5t-31 10.5t-31.5 -11t-11.5 -35q0 -44 43 -44z" />
    <glyph glyph-name="Uhungarumlaut" unicode="&#x170;" horiz-adv-x="788" 
d="M571 643q0 11 -2.5 15t-13.5 5l-63 7v54h248v-54l-67 -8q-11 -2 -13.5 -5t-2.5 -14v-401q0 -130 -69.5 -192t-197.5 -62q-70 0 -119 16.5t-80 48.5t-45.5 80t-14.5 111v399q0 11 -2.5 15t-13.5 5l-63 7v54h254v-54l-67 -8q-11 -2 -13.5 -5t-2.5 -14v-388q0 -101 43 -145
t130 -44q44 0 77 9.5t54.5 31.5t32.5 57.5t11 87.5v391zM299 765l-41 37l150 167l62 -59zM466 764l-37 38l160 157l58 -62z" />
    <glyph glyph-name="uhungarumlaut" unicode="&#x171;" horiz-adv-x="627" 
d="M452 0l-8 68l-2 1q-17 -15 -37 -29.5t-43.5 -26t-51.5 -18.5t-61 -7q-41 0 -69 12.5t-44.5 35.5t-23.5 57t-7 77v254q0 12 -2.5 16.5t-13.5 6.5l-52 13l8 54h151v-323q0 -65 15.5 -97t62.5 -32q25 0 48.5 8t44 20.5t38 28t30.5 30.5v276q0 12 -2.5 16t-13.5 6l-50 13
l8 54h149v-432q0 -20 14 -21l53 -7v-54h-141zM195 568l-42 33l135 180l66 -54zM366 568l-43 33l136 180l66 -54z" />
    <glyph glyph-name="Uogonek" unicode="&#x172;" horiz-adv-x="788" 
d="M535 -196q-47 -22 -93 -22q-42 0 -66.5 19.5t-24.5 59.5q0 39 23.5 71.5t51.5 57.5q-9 -1 -18 -1.5t-18 -0.5q-70 0 -119 16.5t-80 48.5t-45.5 80t-14.5 111v399q0 11 -2.5 15t-13.5 5l-63 7v54h254v-54l-67 -8q-11 -2 -13.5 -5t-2.5 -14v-388q0 -101 43 -145t130 -44
q44 0 77 9.5t54.5 31.5t32.5 57.5t11 87.5v391q0 11 -2.5 15t-13.5 5l-63 7v54h248v-54l-67 -8q-11 -2 -13.5 -5t-2.5 -14v-401q0 -44 -9 -79t-25 -63t-39.5 -49.5t-51.5 -39.5q-14 -9 -31 -23.5t-32 -32.5t-25 -37.5t-10 -37.5q0 -32 31 -32q11 0 23.5 3.5t25.5 8.5z" />
    <glyph glyph-name="uogonek" unicode="&#x173;" horiz-adv-x="627" 
d="M593 0q-18 -11 -35.5 -24.5t-31.5 -28.5t-23 -32t-9 -35q0 -32 31 -32q11 0 23.5 3.5t25.5 8.5l21 -56q-47 -22 -93 -22q-42 0 -66.5 19.5t-24.5 59.5q0 22 8.5 42.5t22 37.5t31 32t35.5 27h-56l-8 68l-2 1q-17 -15 -37 -29.5t-43.5 -26t-51.5 -18.5t-61 -7
q-41 0 -69 12.5t-44.5 35.5t-23.5 57t-7 77v254q0 12 -2.5 16.5t-13.5 6.5l-52 13l8 54h151v-323q0 -65 15.5 -97t62.5 -32q25 0 48.5 8t44 20.5t38 28t30.5 30.5v276q0 12 -2.5 16t-13.5 6l-50 13l8 54h149v-432q0 -20 14 -21l53 -7v-54v0z" />
    <glyph glyph-name="Wcircumflex" unicode="&#x174;" horiz-adv-x="993" 
d="M628 0l-126 464l-134 -464h-114l-166 641q-2 10 -6.5 13.5t-13.5 5.5l-59 10l10 54h251v-54l-89 -10l134 -561l136 479h103l136 -487l141 569l-91 10l10 54h234v-54l-52 -9q-11 -2 -15 -5.5t-7 -14.5l-161 -641h-121zM505 849l-119 -83l-40 41l117 102h84l117 -102
l-40 -41z" />
    <glyph glyph-name="wcircumflex" unicode="&#x175;" horiz-adv-x="840" 
d="M529 0l-96 396l-110 -396h-110l-141 433q-3 9 -7.5 12t-13.5 5l-43 9l12 55h201v-55l-64 -8l112 -359l115 407h105l97 -406l111 358l-65 8l11 55h189v-55l-36 -6q-13 -2 -17.5 -6t-7.5 -14l-135 -433h-107zM559 572l-125 101l-125 -101l-44 38l127 123h84l127 -123z" />
    <glyph glyph-name="Ycircumflex" unicode="&#x176;" horiz-adv-x="619" 
d="M159 0v54l95 7q11 1 13.5 5t2.5 15v199l-200 362q-5 8 -10 11.5t-14 5.5l-45 11l10 54h224v-54l-75 -9l159 -299l154 299l-74 9l10 54h209v-54l-42 -11q-8 -2 -14 -6.5t-11 -12.5l-189 -357v-201q0 -12 2.5 -15t13.5 -5l100 -8v-54h-319zM319 849l-119 -83l-40 41
l117 102h84l117 -102l-40 -41z" />
    <glyph glyph-name="ycircumflex" unicode="&#x177;" horiz-adv-x="582" 
d="M98 -212v55l72 9q9 1 13 5.5t9 15.5l58 133l-180 426q-4 9 -8 12t-13 5l-41 10l12 55h207v-55l-66 -8l133 -336l139 336l-68 8l11 55h198v-55l-34 -5q-9 -2 -15 -5.5t-10 -11.5l-243 -585l97 -10v-54h-271zM418 572l-125 101l-125 -101l-44 38l127 123h84l127 -123z" />
    <glyph glyph-name="Ydieresis" unicode="&#x178;" horiz-adv-x="619" 
d="M159 0v54l95 7q11 1 13.5 5t2.5 15v199l-200 362q-5 8 -10 11.5t-14 5.5l-45 11l10 54h224v-54l-75 -9l159 -299l154 299l-74 9l10 54h209v-54l-42 -11q-8 -2 -14 -6.5t-11 -12.5l-189 -357v-201q0 -12 2.5 -15t13.5 -5l100 -8v-54h-319zM274 837q0 -26 -15 -40.5
t-41 -14.5q-25 0 -40.5 14.5t-15.5 40.5q0 25 15.5 39.5t40.5 14.5q26 0 41 -14.5t15 -39.5zM476 837q0 -26 -15 -40.5t-41 -14.5t-41 14.5t-15 40.5q0 25 15 39.5t41 14.5t41 -14.5t15 -39.5z" />
    <glyph glyph-name="Zacute" unicode="&#x179;" horiz-adv-x="644" 
d="M50 0v61l416 592h-300q-8 0 -11 -1.5t-5 -9.5l-19 -93l-68 -3v178h515v-63l-413 -590h320q8 0 11 1.5t5 9.5l19 107h68v-189h-538zM245 766l-29 46l188 129l45 -74z" />
    <glyph glyph-name="zacute" unicode="&#x17a;" horiz-adv-x="488" 
d="M39 0v54l299 393h-198q-6 0 -8 -4t-3 -9l-12 -63l-68 -4v147h400v-56l-297 -391h211q7 0 8.5 4t2.5 9l12 74l69 3v-157h-416zM189 567l-39 37l155 164l60 -60z" />
    <glyph glyph-name="Zdotaccent" unicode="&#x17b;" horiz-adv-x="644" 
d="M50 0v61l416 592h-300q-8 0 -11 -1.5t-5 -9.5l-19 -93l-68 -3v178h515v-63l-413 -590h320q8 0 11 1.5t5 9.5l19 107h68v-189h-538zM382 845q0 -30 -17 -46.5t-48 -16.5t-47.5 16.5t-16.5 46.5q0 63 64 63q31 0 48 -16t17 -47z" />
    <glyph glyph-name="zdotaccent" unicode="&#x17c;" horiz-adv-x="488" 
d="M39 0v54l299 393h-198q-6 0 -8 -4t-3 -9l-12 -63l-68 -4v147h400v-56l-297 -391h211q7 0 8.5 4t2.5 9l12 74l69 3v-157h-416zM315 690q0 -31 -17 -47.5t-48 -16.5q-64 0 -64 64q0 30 16.5 46.5t47.5 16.5t48 -16.5t17 -46.5z" />
    <glyph glyph-name="Zcaron" unicode="&#x17d;" horiz-adv-x="644" 
d="M50 0v61l416 592h-300q-8 0 -11 -1.5t-5 -9.5l-19 -93l-68 -3v178h515v-63l-413 -590h320q8 0 11 1.5t5 9.5l19 107h68v-189h-538zM359 777h-84l-117 102l40 41l119 -83l119 83l41 -41z" />
    <glyph glyph-name="zcaron" unicode="&#x17e;" horiz-adv-x="488" 
d="M39 0v54l299 393h-198q-6 0 -8 -4t-3 -9l-12 -63l-68 -4v147h400v-56l-297 -391h211q7 0 8.5 4t2.5 9l12 74l69 3v-157h-416zM207 578l-125 121l43 40l124 -101l126 101l44 -39l-128 -122h-84z" />
    <glyph glyph-name="longs" unicode="&#x17f;" horiz-adv-x="406" 
d="M40 0v55l64 6q11 1 13.5 5t2.5 15v509q0 88 44.5 132t138.5 44q31 0 58 -4.5t47.5 -18t32.5 -37t12 -60.5l-85 -11q0 40 -17 51t-52 11q-28 0 -45 -7t-26.5 -20.5t-13 -33t-3.5 -43.5v-510q0 -12 2.5 -15.5t13.5 -4.5l117 -9v-54h-304z" />
    <glyph glyph-name="florin" unicode="&#x192;" horiz-adv-x="496" 
d="M255 311l-39 -227q-8 -45 -21 -78t-33 -54.5t-49.5 -32t-70.5 -10.5q-18 0 -37.5 3.5t-37 8.5t-32 12t-23.5 14l28 62q17 -11 46 -21t57 -10q34 0 53.5 18.5t27.5 65.5l42 239q1 5 0.5 7.5t-6.5 2.5h-93l12 67h101l19 100q8 42 20.5 74t33.5 53t51 32t73 11
q48 0 81.5 -11.5t51.5 -21.5l-22 -128l-61 4l-1 67q0 5 -1.5 9t-7.5 6q-8 3 -18 5t-27 2q-22 0 -36.5 -7t-24.5 -20.5t-16.5 -32.5t-10.5 -42l-16 -90q-1 -5 0 -7.5t7 -2.5h141l-12 -67h-149z" />
    <glyph glyph-name="Aringacute" unicode="&#x1fa;" horiz-adv-x="713" 
d="M450 803q0 -53 -38 -80l224 -641q3 -9 9 -12t15 -5l45 -11v-54h-244v54l82 9l-54 158h-279l-53 -158l81 -9v-54h-230v53l43 11q12 3 17 6.5t8 12.5l218 637q-20 11 -31 31.5t-11 48.5q0 48 28.5 73t70.5 25t70.5 -23.5t28.5 -71.5zM351 646l-118 -352h234zM275 910
l-29 46l188 129l45 -74zM351 757q42 0 42 46q0 23 -11 33.5t-31 10.5t-31.5 -11t-11.5 -35q0 -44 43 -44z" />
    <glyph glyph-name="aringacute" unicode="&#x1fb;" horiz-adv-x="541" 
d="M380 0l-9 65l-3 1q-36 -34 -79.5 -56t-101.5 -22q-47 0 -75 14t-42.5 35t-19 45t-4.5 43q0 75 45.5 112t136.5 45l135 11v53q0 27 -3.5 47.5t-14.5 34t-30.5 20.5t-52.5 7q-23 0 -42 -1.5t-33.5 -9t-22.5 -23t-8 -43.5l-86 9q0 46 19 73t48 41.5t62.5 18.5t63.5 4
q53 0 89.5 -8.5t59 -29t32 -54.5t9.5 -86v-265q0 -12 2.5 -15t13.5 -5l51 -7v-54h-140zM363 230l-113 -10q-32 -3 -53.5 -9.5t-34 -16.5t-17.5 -25t-5 -34q0 -41 17.5 -58.5t52.5 -17.5q22 0 44.5 8t42.5 19.5t37 25t29 24.5v94zM362 656q0 -45 -27 -71t-72 -26t-72 25
t-27 69q0 48 28.5 73t70.5 25t70.5 -23.5t28.5 -71.5zM263 610q42 0 42 46q0 23 -11 33.5t-31 10.5t-31.5 -11t-11.5 -35q0 -44 43 -44zM186 765l-29 46l188 129l45 -74z" />
    <glyph glyph-name="AEacute" unicode="&#x1fc;" horiz-adv-x="997" 
d="M433 0v54l66 6q8 1 10.5 5t2.5 12v244h-219l-141 -258l73 -9v-54h-217v54l37 9q9 2 15 5t10.5 7.5t8.5 11t9 16.5l302 558l-76 8v55h619v-165l-68 4l-14 77q-1 6 -3 9.5t-10 3.5h-236v-261h267v-71h-267v-250h254q8 0 11 1.5t5 9.5l16 87h67v-169h-522zM512 653h-41
l-142 -258h183v258zM568 766l-29 46l188 129l45 -74z" />
    <glyph glyph-name="aeacute" unicode="&#x1fd;" horiz-adv-x="830" 
d="M780 33q-38 -21 -83 -33t-99 -12q-69 0 -114.5 22.5t-72.5 62.5q-53 -42 -104 -63.5t-114 -21.5q-49 0 -78 14t-44.5 35t-20 45t-4.5 43q0 75 45.5 112.5t136.5 45.5l135 11v52q0 27 -3.5 47.5t-14.5 34t-30.5 20.5t-52.5 7q-23 0 -42 -1.5t-33.5 -9t-22.5 -23t-8 -43.5
l-86 9q0 46 19 73t47.5 41.5t61.5 18.5t62 4q68 0 107.5 -17.5t58.5 -59.5q29 37 70.5 57t93.5 20q45 0 82.5 -13t64 -41t41 -73t14.5 -109q0 -13 -0.5 -26.5t-1.5 -26.5h-337q2 -80 37 -125t117 -45q21 0 38.5 2t34 6.5t34 11t37.5 16.5zM250 221q-32 -3 -53.5 -9.5
t-34 -17t-17.5 -25.5t-5 -35q0 -41 20.5 -58t56.5 -17q21 0 43.5 6.5t44.5 17t41.5 24.5t33.5 28q-14 45 -17 95zM700 304q0 42 -9.5 70.5t-25 45.5t-36.5 24t-44 7q-25 0 -47.5 -7.5t-40.5 -24.5t-29.5 -45t-14.5 -70h247zM411 567l-39 37l155 164l60 -60z" />
    <glyph glyph-name="Oslashacute" unicode="&#x1fe;" horiz-adv-x="777" 
d="M162 -78l45 107q-81 46 -119 133.5t-38 203.5q0 79 22.5 147t66 118t108.5 78t151 28q27 0 52 -3.5t48 -8.5l27 64h87l-40 -94q40 -23 69 -55.5t48 -73.5t28.5 -89t9.5 -100q0 -89 -21.5 -160.5t-64 -122.5t-107 -78.5t-150.5 -27.5q-28 0 -53.5 3.5t-48.5 8.5l-32 -78
h-88zM145 366q0 -92 25 -155.5t71 -99.5l226 540q-33 9 -71 9q-55 0 -101 -19t-79.5 -56t-52 -92t-18.5 -127zM389 65q54 0 99 18t77 55.5t49.5 94.5t17.5 134q0 88 -24 150t-69 97l-225 -539q33 -10 75 -10zM349 766l-29 46l188 129l45 -74z" />
    <glyph glyph-name="oslashacute" unicode="&#x1ff;" horiz-adv-x="568" 
d="M89 -92l51 116q-53 34 -76.5 94.5t-23.5 140.5q0 59 15 107.5t46 83.5t78.5 54.5t111.5 19.5q40 0 68 -7l30 67h86l-43 -97q51 -33 73.5 -90.5t22.5 -131.5q0 -63 -14.5 -114t-45 -87.5t-77 -56t-110.5 -19.5q-18 0 -35 2t-32 5l-38 -87h-87zM134 258q0 -105 42 -154
l151 340q-16 4 -38 4q-74 0 -114.5 -45t-40.5 -145zM284 61q73 0 111.5 47.5t38.5 150.5q0 99 -38 146l-151 -340q16 -4 39 -4zM260 567l-39 37l155 164l60 -60z" />
    <glyph glyph-name="Scommaaccent" unicode="&#x218;" horiz-adv-x="584" 
d="M440 538l-15 85q-2 11 -4.5 15t-6.5 6q-11 6 -33.5 11.5t-61.5 5.5q-78 0 -115.5 -31t-37.5 -85q0 -31 12.5 -52t33.5 -35.5t48.5 -25t57.5 -19.5q37 -12 75 -25.5t69 -37t50 -59.5t19 -92q0 -58 -21.5 -98.5t-57.5 -65.5t-84 -36t-102 -11q-34 0 -67 4t-60.5 9.5t-49 12
t-33.5 12.5v164h67l19 -88q2 -10 5.5 -14t14.5 -8t39.5 -10.5t72.5 -6.5q77 0 120 30t43 96q0 33 -12 55.5t-32.5 37.5t-47 25t-55.5 19q-38 11 -76.5 23.5t-70 34.5t-51.5 57t-20 92q0 54 19.5 92.5t53.5 63t80 36.5t98 12q63 0 111.5 -12.5t74.5 -22.5v-170zM238 -252
l22 87q3 8 -5 11l-34 14l22 80q23 -1 42.5 -3.5t33.5 -9t21.5 -18.5t7.5 -32q0 -14 -5 -28.5t-12 -27.5l-47 -89z" />
    <glyph glyph-name="scommaaccent" unicode="&#x219;" horiz-adv-x="460" 
d="M343 371l-12 62q-1 5 -2.5 8t-7.5 5q-11 4 -31.5 7.5t-46.5 3.5q-55 0 -80.5 -21.5t-25.5 -53.5q0 -21 10.5 -35t27.5 -23t40 -15.5t47 -12.5q29 -8 58 -17.5t52.5 -26t38 -42.5t14.5 -66q0 -44 -17 -73.5t-45 -48t-64.5 -26.5t-76.5 -8q-30 0 -59.5 4t-54.5 9t-42.5 11
t-24.5 10v133l67 -4l12 -69q1 -5 3 -8.5t9 -5.5q10 -4 35 -10t63 -6q51 0 80.5 19t29.5 60q0 22 -10 37t-26.5 24.5t-38.5 15.5t-46 12q-29 7 -58.5 15.5t-53.5 24t-39 41.5t-15 67q0 43 16.5 72.5t44.5 48t63.5 27t74.5 8.5q27 0 52 -3t46 -7.5t36.5 -9.5t23.5 -8v-129z
M185 -252l22 87q3 8 -5 11l-34 14l22 80q23 -1 42.5 -3.5t33.5 -9t21.5 -18.5t7.5 -32q0 -14 -5 -28.5t-12 -27.5l-47 -89z" />
    <glyph glyph-name="uni021A" unicode="&#x21a;" horiz-adv-x="660" 
d="M165 0v55l103 7q11 1 13.5 5t2.5 15v571h-155q-8 0 -11 -1.5t-5 -9.5l-16 -87h-67v169h600v-169h-67l-16 87q-2 8 -5 9.5t-11 1.5h-155v-571q0 -11 2.5 -14.5t13.5 -4.5l110 -8v-55h-337zM278 -252l22 87q3 8 -5 11l-34 14l22 80q23 -1 42.5 -3.5t33.5 -9t21.5 -18.5
t7.5 -32q0 -14 -5 -28.5t-12 -27.5l-47 -89z" />
    <glyph glyph-name="uni021B" unicode="&#x21b;" horiz-adv-x="412" 
d="M384 19q-30 -12 -65.5 -21.5t-73.5 -9.5q-72 0 -105.5 33.5t-33.5 101.5v312q0 5 -1 7.5t-7 2.5h-73v58q29 4 48.5 12.5t32.5 24.5t20 42t12 64h59v-122q0 -5 1 -7.5t7 -2.5h147v-69h-155v-295q0 -48 14.5 -67.5t57.5 -19.5q23 0 48 6t45 14zM191 -252l22 87q3 8 -5 11
l-34 14l22 80q23 -1 42.5 -3.5t33.5 -9t21.5 -18.5t7.5 -32q0 -14 -5 -28.5t-12 -27.5l-47 -89z" />
    <glyph glyph-name="dotlessj" unicode="&#x237;" horiz-adv-x="287" 
d="M106 421q0 17 -13 21l-64 19l9 53h159v-579q0 -82 -35.5 -120t-112.5 -38q-43 0 -80.5 13.5t-55.5 28.5l36 59q12 -10 37 -19.5t50 -9.5q43 0 56.5 25t13.5 79v468z" />
    <glyph glyph-name="apostrophe" unicode="&#x2bc;" horiz-adv-x="500" 
d="M206 527l24 77q2 6 1 8t-4 4l-30 11l18 66q40 -1 66 -10t26 -42q0 -11 -3.5 -21t-9.5 -21l-47 -86z" />
    <glyph glyph-name="circumflex" unicode="&#x2c6;" horiz-adv-x="500" 
d="M375 572l-125 101l-125 -101l-44 38l127 123h84l127 -123z" />
    <glyph glyph-name="caron" unicode="&#x2c7;" horiz-adv-x="500" 
d="M206 578l-125 121l43 40l124 -101l126 101l44 -39l-128 -122h-84z" />
    <glyph glyph-name="uni02C9" unicode="&#x2c9;" horiz-adv-x="500" 
d="M96 611v69h307v-69h-307z" />
    <glyph glyph-name="breve" unicode="&#x2d8;" horiz-adv-x="500" 
d="M417 706q-17 -63 -57.5 -98t-111.5 -35t-109.5 35t-55.5 98l60 21q16 -47 41 -68t67 -21t67.5 21t42.5 69z" />
    <glyph glyph-name="dotaccent" unicode="&#x2d9;" horiz-adv-x="500" 
d="M315 690q0 -31 -17 -47.5t-48 -16.5q-64 0 -64 64q0 30 16.5 46.5t47.5 16.5t48 -16.5t17 -46.5z" />
    <glyph glyph-name="ring" unicode="&#x2da;" horiz-adv-x="500" 
d="M349 671q0 -45 -27 -71t-72 -26t-72 25t-27 69q0 48 28.5 73t70.5 25t70.5 -23.5t28.5 -71.5zM250 625q42 0 42 46q0 23 -11 33.5t-31 10.5t-31.5 -11t-11.5 -35q0 -44 43 -44z" />
    <glyph glyph-name="ogonek" unicode="&#x2db;" horiz-adv-x="500" 
d="M338 -196q-47 -22 -93 -22q-42 0 -66.5 19.5t-24.5 59.5q0 26 11.5 49.5t29 44t37 37t36.5 28.5l58 -16q-13 -11 -28.5 -24.5t-29 -29.5t-22.5 -34t-9 -36q0 -32 31 -32q11 0 23.5 3.5t25.5 8.5z" />
    <glyph glyph-name="tilde" unicode="&#x2dc;" horiz-adv-x="500" 
d="M402 638q-18 -27 -32 -38.5t-32 -11.5q-19 0 -43 7q-35 9 -70.5 19t-52.5 14q-10 1 -16 -5l-39 -38l-42 30l29 44q15 23 29 32.5t31 9.5q9 0 19 -2t23 -5q16 -4 34.5 -9t36 -9.5t32 -8.5t21.5 -5q9 -3 15 3l36 37l44 -29z" />
    <glyph glyph-name="hungarumlaut" unicode="&#x2dd;" horiz-adv-x="500" 
d="M110 568l-42 33l135 180l66 -54zM281 568l-43 33l136 180l66 -54z" />
    <glyph glyph-name="uni0394" unicode="&#x394;" horiz-adv-x="698" 
d="M51 0v61l238 663h116l241 -661v-63h-595zM344 646l-201 -573h399z" />
    <glyph glyph-name="uni03A9" unicode="&#x3a9;" horiz-adv-x="783" 
d="M448 0v168q88 19 140 78.5t52 167.5q0 57 -18.5 103t-51.5 77.5t-78.5 48.5t-98.5 17q-46 0 -89 -15.5t-76.5 -47t-54 -78.5t-20.5 -109q0 -57 15.5 -99t41.5 -71t61 -46.5t74 -25.5v-168h-304v160h61l16 -78q2 -8 5 -9.5t11 -1.5h131v47q-94 32 -150.5 105t-56.5 189
q0 59 19.5 117.5t60 104.5t104 74.5t151.5 28.5q93 0 158.5 -30t106 -76.5t59 -103t18.5 -110.5q0 -60 -14.5 -108t-41.5 -85t-65.5 -63t-85.5 -43v-47h131q8 0 11 1.5t5 9.5l16 78h61v-160h-304z" />
    <glyph glyph-name="uni03BC" unicode="&#x3bc;" horiz-adv-x="617" 
d="M406 514h91v-412q0 -22 6.5 -29.5t18.5 -9.5l60 -9v-49q-1 0 -7.5 -2.5t-17 -5t-23.5 -4.5t-28 -2q-24 0 -40 6t-26 17t-15 26t-7 32q-1 0 -1 0.5t-1 0.5q-32 -31 -76.5 -57t-94.5 -26q-57 0 -84 33l-1 -1l9 -234h-96v726h91v-329q0 -65 18 -94t66 -29q24 0 47 8t43 21
t37.5 28t30.5 30v365z" />
    <glyph glyph-name="pi" unicode="&#x3c0;" horiz-adv-x="639" 
d="M40 432l12 82h532v-71l-101 -3l12 -334q1 -24 4 -32.5t23 -11.5l54 -8v-49q-17 -8 -36 -11.5t-39 -3.5q-45 0 -69 25.5t-25 81.5q0 16 -0.5 43t-1 59t-0.5 66.5t-0.5 67t-0.5 60v45.5l-182 -3l-49 -435h-96l62 434z" />
    <glyph glyph-name="Wgrave" unicode="&#x1e80;" horiz-adv-x="993" 
d="M628 0l-126 464l-134 -464h-114l-166 641q-2 10 -6.5 13.5t-13.5 5.5l-59 10l10 54h251v-54l-89 -10l134 -561l136 479h103l136 -487l141 569l-91 10l10 54h234v-54l-52 -9q-11 -2 -15 -5.5t-7 -14.5l-161 -641h-121zM377 867l46 73l188 -128l-30 -47z" />
    <glyph glyph-name="wgrave" unicode="&#x1e81;" horiz-adv-x="840" 
d="M529 0l-96 396l-110 -396h-110l-141 433q-3 9 -7.5 12t-13.5 5l-43 9l12 55h201v-55l-64 -8l112 -359l115 407h105l97 -406l111 358l-65 8l11 55h189v-55l-36 -6q-13 -2 -17.5 -6t-7.5 -14l-135 -433h-107zM488 567l-176 141l61 60l154 -164z" />
    <glyph glyph-name="Wacute" unicode="&#x1e82;" horiz-adv-x="993" 
d="M628 0l-126 464l-134 -464h-114l-166 641q-2 10 -6.5 13.5t-13.5 5.5l-59 10l10 54h251v-54l-89 -10l134 -561l136 479h103l136 -487l141 569l-91 10l10 54h234v-54l-52 -9q-11 -2 -15 -5.5t-7 -14.5l-161 -641h-121zM433 766l-29 46l188 129l45 -74z" />
    <glyph glyph-name="wacute" unicode="&#x1e83;" horiz-adv-x="840" 
d="M529 0l-96 396l-110 -396h-110l-141 433q-3 9 -7.5 12t-13.5 5l-43 9l12 55h201v-55l-64 -8l112 -359l115 407h105l97 -406l111 358l-65 8l11 55h189v-55l-36 -6q-13 -2 -17.5 -6t-7.5 -14l-135 -433h-107zM374 567l-39 37l155 164l60 -60z" />
    <glyph glyph-name="Wdieresis" unicode="&#x1e84;" horiz-adv-x="993" 
d="M628 0l-126 464l-134 -464h-114l-166 641q-2 10 -6.5 13.5t-13.5 5.5l-59 10l10 54h251v-54l-89 -10l134 -561l136 479h103l136 -487l141 569l-91 10l10 54h234v-54l-52 -9q-11 -2 -15 -5.5t-7 -14.5l-161 -641h-121zM460 837q0 -26 -15 -40.5t-41 -14.5
q-25 0 -40.5 14.5t-15.5 40.5q0 25 15.5 39.5t40.5 14.5q26 0 41 -14.5t15 -39.5zM662 837q0 -26 -15 -40.5t-41 -14.5t-41 14.5t-15 40.5q0 25 15 39.5t41 14.5t41 -14.5t15 -39.5z" />
    <glyph glyph-name="wdieresis" unicode="&#x1e85;" horiz-adv-x="840" 
d="M529 0l-96 396l-110 -396h-110l-141 433q-3 9 -7.5 12t-13.5 5l-43 9l12 55h201v-55l-64 -8l112 -359l115 407h105l97 -406l111 358l-65 8l11 55h189v-55l-36 -6q-13 -2 -17.5 -6t-7.5 -14l-135 -433h-107zM389 660q0 -25 -15 -40t-41 -15q-25 0 -40.5 15t-15.5 40
q0 26 15.5 40.5t40.5 14.5q26 0 41 -14.5t15 -40.5zM591 660q0 -25 -15 -40t-41 -15t-41 15t-15 40q0 26 15 40.5t41 14.5t41 -14.5t15 -40.5z" />
    <glyph glyph-name="Ygrave" unicode="&#x1ef2;" horiz-adv-x="619" 
d="M159 0v54l95 7q11 1 13.5 5t2.5 15v199l-200 362q-5 8 -10 11.5t-14 5.5l-45 11l10 54h224v-54l-75 -9l159 -299l154 299l-74 9l10 54h209v-54l-42 -11q-8 -2 -14 -6.5t-11 -12.5l-189 -357v-201q0 -12 2.5 -15t13.5 -5l100 -8v-54h-319zM171 867l46 73l188 -128l-30 -47
z" />
    <glyph glyph-name="ygrave" unicode="&#x1ef3;" horiz-adv-x="582" 
d="M98 -212v55l72 9q9 1 13 5.5t9 15.5l58 133l-180 426q-4 9 -8 12t-13 5l-41 10l12 55h207v-55l-66 -8l133 -336l139 336l-68 8l11 55h198v-55l-34 -5q-9 -2 -15 -5.5t-10 -11.5l-243 -585l97 -10v-54h-271zM337 567l-176 141l61 60l154 -164z" />
    <glyph glyph-name="thinspace" unicode="&#x2009;" horiz-adv-x="125" 
 />
    <glyph glyph-name="endash" unicode="&#x2013;" horiz-adv-x="500" 
d="M0 247v69h499v-69h-499z" />
    <glyph glyph-name="emdash" unicode="&#x2014;" horiz-adv-x="1000" 
d="M0 247v69h999v-69h-999z" />
    <glyph glyph-name="quoteleft" unicode="&#x2018;" horiz-adv-x="180" 
d="M136 553q-22 1 -40 3t-31 8.5t-20.5 17.5t-7.5 30q0 12 4.5 24t10.5 24l51 101l44 -16l-27 -95q-2 -7 5 -10l31 -13z" />
    <glyph glyph-name="quoteright" unicode="&#x2019;" horiz-adv-x="179" 
d="M40 568l27 94q3 8 -4 11l-32 13l20 75q22 -1 40 -3.5t31 -9t20.5 -17.5t7.5 -30q0 -21 -13 -47l-53 -101z" />
    <glyph glyph-name="quotesinglbase" unicode="&#x201a;" horiz-adv-x="180" 
d="M44 -107l27 94q3 8 -5 11l-32 13l20 75q22 -1 40.5 -3.5t31.5 -9t20.5 -17.5t7.5 -30q0 -11 -4.5 -23.5t-10.5 -24.5l-51 -100z" />
    <glyph glyph-name="quotedblleft" unicode="&#x201c;" horiz-adv-x="330" 
d="M136 553q-22 1 -40 3t-31 8.5t-20.5 17.5t-7.5 30q0 12 4.5 24t10.5 24l51 101l44 -16l-27 -95q-2 -7 5 -10l31 -13zM286 553q-22 1 -40 3t-31 8.5t-20.5 17.5t-7.5 30q0 12 4.5 24t10.5 24l51 101l44 -16l-27 -95q-2 -7 5 -10l31 -13z" />
    <glyph glyph-name="quotedblright" unicode="&#x201d;" horiz-adv-x="329" 
d="M40 568l27 94q3 8 -4 11l-32 13l20 75q22 -1 40 -3.5t31 -9t20.5 -17.5t7.5 -30q0 -21 -13 -47l-53 -101zM190 568l27 94q3 8 -4 11l-32 13l20 75q22 -1 40 -3.5t31 -9t20.5 -17.5t7.5 -30q0 -21 -13 -47l-53 -101z" />
    <glyph glyph-name="quotedblbase" unicode="&#x201e;" horiz-adv-x="330" 
d="M44 -107l27 94q3 8 -5 11l-32 13l20 75q22 -1 40.5 -3.5t31.5 -9t20.5 -17.5t7.5 -30q0 -11 -4.5 -23.5t-10.5 -24.5l-51 -100zM194 -107l27 94q3 8 -5 11l-32 13l20 75q22 -1 40.5 -3.5t31.5 -9t20.5 -17.5t7.5 -30q0 -11 -4.5 -23.5t-10.5 -24.5l-51 -100z" />
    <glyph glyph-name="dagger" unicode="&#x2020;" horiz-adv-x="393" 
d="M180 432h33l33 -112l-15 -213v-190h-69v191l-15 212l33 112l-84 -21h-74v75h74l84 -21l-21 96v84h75v-84l-21 -96l84 21h74v-75h-74l-84 21v33h-33v-33z" />
    <glyph glyph-name="daggerdbl" unicode="&#x2021;" horiz-adv-x="419" 
d="M310 76l-84 21v33h-33v-33h33l21 -96v-84h-75v84l21 96l-84 -21h-74v75h74l84 -21l-33 116v77l33 109h33l33 -109v-77l-33 -116l84 21h74v-75h-74zM109 411h-74v75h74l84 -21l-21 96v84h75v-84l-21 -96l84 21h74v-75h-74l-84 21v33h-33v-33z" />
    <glyph glyph-name="bullet" unicode="&#x2022;" horiz-adv-x="371" 
d="M323 280q0 -67 -36 -100.5t-102 -33.5t-101.5 33.5t-35.5 100.5t35.5 100.5t101.5 33.5t102 -33.5t36 -100.5z" />
    <glyph glyph-name="ellipsis" unicode="&#x2026;" horiz-adv-x="565" 
d="M167 51q0 -63 -66 -63t-66 63t66 63q32 0 49 -15.5t17 -47.5zM349 51q0 -63 -66 -63t-66 63t66 63q32 0 49 -15.5t17 -47.5zM532 51q0 -63 -66 -63t-66 63t66 63q32 0 49 -15.5t17 -47.5z" />
    <glyph glyph-name="perthousand" unicode="&#x2030;" horiz-adv-x="1078" 
d="M186 295q-40 0 -67 12.5t-43.5 34t-23.5 50t-7 61.5q0 75 37.5 121t110.5 46q75 0 108 -43t33 -115q0 -76 -37.5 -121.5t-110.5 -45.5zM143 -17l377 638h86l-376 -638h-87zM189 352q41 0 56 30t15 77q0 22 -3 41t-10.5 32.5t-21 21.5t-33.5 8q-21 0 -35 -9t-22.5 -24
t-12 -34t-3.5 -38q0 -45 14.5 -75t55.5 -30zM558 -12q-40 0 -67 12.5t-43.5 34t-23.5 50t-7 61.5q0 75 37.5 121t110.5 46q75 0 108 -43t33 -115q0 -76 -37.5 -121.5t-110.5 -45.5zM562 45q41 0 56 29.5t15 77.5q0 44 -14.5 73.5t-54.5 29.5q-21 0 -34.5 -9t-22 -24t-12 -34
t-3.5 -38q0 -45 14.5 -75t55.5 -30zM885 -12q-40 0 -67 12.5t-43.5 34t-23.5 50t-7 61.5q0 75 37.5 121t110.5 46q75 0 108 -43t33 -115q0 -76 -37.5 -121.5t-110.5 -45.5zM889 45q41 0 56 29.5t15 77.5q0 44 -14.5 73.5t-54.5 29.5q-21 0 -34.5 -9t-22 -24t-12 -34
t-3.5 -38q0 -45 14.5 -75t55.5 -30z" />
    <glyph glyph-name="guilsinglleft" unicode="&#x2039;" horiz-adv-x="278" 
d="M144 103l-87 156l89 149h82l-75 -137q-4 -7 -4 -10t3 -9l74 -149h-82z" />
    <glyph glyph-name="guilsinglright" unicode="&#x203a;" horiz-adv-x="277" 
d="M50 103l74 142q4 7 4 10t-3 9l-75 144h82l88 -153l-88 -152h-82z" />
    <glyph glyph-name="fraction" unicode="&#x2044;" horiz-adv-x="173" 
d="M-137 -17l358 741h84l-357 -741h-85z" />
    <glyph glyph-name="zerosuperior" unicode="&#x2070;" horiz-adv-x="407" 
d="M201 342q-50 0 -82 16.5t-50 46t-25 71.5t-7 93q0 52 8.5 94.5t28 73t52.5 47t82 16.5q50 0 81.5 -16.5t49.5 -46t24.5 -70.5t6.5 -90q0 -54 -8 -97.5t-27 -74t-52 -47t-82 -16.5zM203 405q51 0 66 42.5t15 124.5q0 40 -2.5 71t-10.5 52t-23.5 32t-41.5 11t-42 -11
t-25 -32t-12.5 -52.5t-3.5 -72.5q0 -40 2.5 -70.5t11 -51.5t24.5 -32t42 -11z" />
    <glyph glyph-name="foursuperior" unicode="&#x2074;" horiz-adv-x="388" 
d="M224 350v84h-198v63l181 291h95v-290h56v-65h-57v-83h-77zM224 698l-122 -200h122v200z" />
    <glyph glyph-name="fivesuperior" unicode="&#x2075;" horiz-adv-x="366" 
d="M129 724l-10 -124q17 11 38 19t51 8q56 0 90 -34t34 -100q0 -32 -9.5 -59.5t-30 -47.5t-51 -32t-72.5 -12q-49 0 -90 15.5t-66 41.5l45 51q17 -16 43.5 -29.5t61.5 -13.5q41 0 63 20.5t22 61.5q0 42 -19 59t-49 17q-22 0 -41 -9.5t-33 -24.5l-57 23l15 235h244v-65h-179z
" />
    <glyph glyph-name="sixsuperior" unicode="&#x2076;" horiz-adv-x="386" 
d="M267 688q0 31 -11.5 42t-37.5 11q-28 0 -45.5 -13t-27.5 -33.5t-14 -47t-5 -53.5q19 12 44 21.5t57 9.5q60 0 92 -34t32 -96q0 -72 -41 -112.5t-110 -40.5q-47 0 -78 18t-49 48.5t-25 71.5t-7 86q0 37 7.5 78.5t27 76t54.5 57t90 22.5q22 0 44 -4t40 -15.5t29 -31.5
t11 -52zM126 534q1 -21 3.5 -44t10.5 -42.5t23 -32t41 -12.5q32 0 48 24t16 59q0 39 -14 58.5t-48 19.5q-24 0 -46 -10.5t-34 -19.5z" />
    <glyph glyph-name="sevensuperior" unicode="&#x2077;" horiz-adv-x="345" 
d="M102 350q6 66 22 124.5t37 107t43.5 85t42.5 57.5h-146q-8 0 -10 -8l-9 -53l-56 -4v130h311v-58q-29 -29 -54.5 -69.5t-45.5 -90t-33 -105.5t-17 -116h-85z" />
    <glyph glyph-name="eightsuperior" unicode="&#x2078;" horiz-adv-x="361" 
d="M254 579q34 -20 56.5 -44t22.5 -66q0 -30 -12.5 -54t-34.5 -40t-51 -24.5t-63 -8.5q-68 0 -106 30.5t-38 84.5q0 42 21.5 71t53.5 52q-27 17 -43 41t-16 61q0 28 10.5 50t29.5 37t44.5 23t54.5 8q70 0 102 -30.5t32 -75.5q0 -33 -19.5 -63.5t-43.5 -51.5zM156 551
q-57 -44 -57 -89q0 -28 18.5 -46t60.5 -18q37 0 55 18t18 46q0 17 -8 29.5t-21.5 23t-30.5 19zM199 607q23 21 35.5 42t12.5 42q0 26 -16.5 39.5t-46.5 13.5q-27 0 -44 -15.5t-17 -39.5q0 -30 22 -47.5t54 -34.5z" />
    <glyph glyph-name="ninesuperior" unicode="&#x2079;" horiz-adv-x="387" 
d="M79 439q19 -16 44 -25.5t51 -9.5q28 0 45 12t26.5 31.5t12.5 43t4 46.5q-17 -12 -41 -21.5t-59 -9.5q-60 0 -93 37.5t-33 102.5q0 69 40 111.5t112 42.5q48 0 79 -17.5t48.5 -47.5t24.5 -70.5t7 -85.5q0 -41 -6.5 -83t-25 -76t-51.5 -56t-87 -22q-38 0 -74.5 11.5
t-59.5 33.5zM261 597v15.5t-1 15.5q-1 21 -4.5 41t-12 35.5t-22 25t-35.5 9.5q-35 0 -51 -24t-16 -60q0 -40 13 -64t49 -24q25 0 46.5 9.5t33.5 20.5z" />
    <glyph glyph-name="plussuperior" unicode="&#x207a;" horiz-adv-x="315" 
d="M123 443v96h-93v65h93v93h69v-93h93v-65h-93v-96h-69z" />
    <glyph glyph-name="minussuperior" unicode="&#x207b;" horiz-adv-x="315" 
d="M30 539v65h255v-65h-255z" />
    <glyph glyph-name="equalsuperior" unicode="&#x207c;" horiz-adv-x="314" 
d="M30 458v66h254v-66h-254zM30 574v66h254v-66h-254z" />
    <glyph glyph-name="parenleftsuperior" unicode="&#x207d;" horiz-adv-x="240" 
d="M159 272q-20 27 -39 59t-33.5 68.5t-23.5 76.5t-9 84t9 85t24 78t35 70.5t42 62.5l62 -37q-42 -63 -63.5 -124t-21.5 -134q0 -41 6.5 -75.5t17.5 -64.5t25.5 -57.5t31.5 -55.5z" />
    <glyph glyph-name="parenrightsuperior" unicode="&#x207e;" horiz-adv-x="239" 
d="M15 308q19 28 34 57t26 60t17 65.5t6 74.5q0 37 -5.5 70t-16 63.5t-26 60t-35.5 60.5l63 37q21 -27 40 -59.5t34 -69.5t24 -78.5t9 -84.5q0 -44 -8.5 -84.5t-23 -76.5t-34 -69t-41.5 -62z" />
    <glyph glyph-name="zeroinferior" unicode="&#x2080;" horiz-adv-x="407" 
d="M201 -154q-50 0 -82 16.5t-50 46t-25 71.5t-7 93q0 52 8.5 94.5t28 73t52.5 47t82 16.5q50 0 81.5 -16.5t49.5 -46t24.5 -70.5t6.5 -90q0 -54 -8 -97.5t-27 -74t-52 -47t-82 -16.5zM203 -91q51 0 66 42.5t15 124.5q0 40 -2.5 71t-10.5 52t-23.5 32t-41.5 11t-42 -11
t-25 -32t-12.5 -52.5t-3.5 -72.5q0 -40 2.5 -70.5t11 -51.5t24.5 -32t42 -11z" />
    <glyph glyph-name="oneinferior" unicode="&#x2081;" horiz-adv-x="261" 
d="M25 -146v47l59 6q7 1 8.5 3t1.5 10v302q0 11 -9 14l-60 11l6 47h147v-374q0 -8 1.5 -10t8.5 -3l58 -6v-47h-221z" />
    <glyph glyph-name="twoinferior" unicode="&#x2082;" horiz-adv-x="359" 
d="M27 -146v50l128 151q19 24 33.5 42.5t24.5 34t14.5 29.5t4.5 30q0 25 -14 39t-52 14q-31 0 -46 -13.5t-15 -49.5l-72 8q0 37 12.5 59.5t33 35t45.5 16.5t49 4q75 0 108.5 -29t33.5 -78q0 -44 -22.5 -80.5t-55.5 -74.5l-112 -133h132q5 0 6.5 1.5t3.5 5.5l9 52h59v-114
h-308z" />
    <glyph glyph-name="threeinferior" unicode="&#x2083;" horiz-adv-x="363" 
d="M243 87q42 -9 64.5 -35.5t22.5 -72.5q0 -65 -45.5 -99t-115.5 -34q-48 0 -88 15.5t-66 42.5l45 51q17 -17 43.5 -31t61.5 -14q34 0 57.5 16.5t23.5 56.5q0 39 -23 54.5t-60 15.5q-10 0 -21.5 -1t-24.5 -3v58l36 4q36 4 60.5 20t24.5 56q0 26 -14.5 41.5t-51.5 15.5
q-31 0 -46 -13.5t-15 -48.5l-75 8q0 34 12.5 56t33 35t45.5 18t50 5q143 0 143 -109q0 -42 -21.5 -68t-55.5 -37v-3z" />
    <glyph glyph-name="fourinferior" unicode="&#x2084;" horiz-adv-x="388" 
d="M224 -146v84h-198v63l181 291h95v-290h56v-65h-57v-83h-77zM224 202l-122 -200h122v200z" />
    <glyph glyph-name="fiveinferior" unicode="&#x2085;" horiz-adv-x="366" 
d="M129 228l-10 -124q17 11 38 19t51 8q56 0 90 -34t34 -100q0 -32 -9.5 -59.5t-30 -47.5t-51 -32t-72.5 -12q-49 0 -90 15.5t-66 41.5l45 51q17 -16 43.5 -29.5t61.5 -13.5q41 0 63 20.5t22 61.5q0 42 -19 59t-49 17q-22 0 -41 -9.5t-33 -24.5l-57 23l15 235h244v-65h-179z
" />
    <glyph glyph-name="sixinferior" unicode="&#x2086;" horiz-adv-x="386" 
d="M267 192q0 31 -11.5 42t-37.5 11q-28 0 -45.5 -13t-27.5 -33.5t-14 -47t-5 -53.5q19 12 44 21.5t57 9.5q60 0 92 -34t32 -96q0 -72 -41 -112.5t-110 -40.5q-47 0 -78 18t-49 48.5t-25 71.5t-7 86q0 37 7.5 78.5t27 76t54.5 57t90 22.5q22 0 44 -4t40 -15.5t29 -31.5
t11 -52zM126 38q1 -21 3.5 -44t10.5 -42.5t23 -32t41 -12.5q32 0 48 24t16 59q0 39 -14 58.5t-48 19.5q-24 0 -46 -10.5t-34 -19.5z" />
    <glyph glyph-name="seveninferior" unicode="&#x2087;" horiz-adv-x="345" 
d="M102 -146q6 66 22 124.5t37 107t43.5 85t42.5 57.5h-146q-8 0 -10 -8l-9 -53l-56 -4v130h311v-58q-29 -29 -54.5 -69.5t-45.5 -90t-33 -105.5t-17 -116h-85z" />
    <glyph glyph-name="eightinferior" unicode="&#x2088;" horiz-adv-x="361" 
d="M254 83q34 -20 56.5 -44t22.5 -66q0 -30 -12.5 -54t-34.5 -40t-51 -24.5t-63 -8.5q-68 0 -106 30.5t-38 84.5q0 42 21.5 71t53.5 52q-27 17 -43 41t-16 61q0 28 10.5 50t29.5 37t44.5 23t54.5 8q70 0 102 -30.5t32 -75.5q0 -33 -19.5 -63.5t-43.5 -51.5zM156 55
q-57 -44 -57 -89q0 -28 18.5 -46t60.5 -18q37 0 55 18t18 46q0 17 -8 29.5t-21.5 23t-30.5 19zM199 111q23 21 35.5 42t12.5 42q0 26 -16.5 39.5t-46.5 13.5q-27 0 -44 -15.5t-17 -39.5q0 -30 22 -47.5t54 -34.5z" />
    <glyph glyph-name="nineinferior" unicode="&#x2089;" horiz-adv-x="387" 
d="M79 -57q19 -16 44 -25.5t51 -9.5q28 0 45 12t26.5 31.5t12.5 43t4 46.5q-17 -12 -41 -21.5t-59 -9.5q-60 0 -93 37.5t-33 102.5q0 69 40 111.5t112 42.5q48 0 79 -17.5t48.5 -47.5t24.5 -70.5t7 -85.5q0 -41 -6.5 -83t-25 -76t-51.5 -56t-87 -22q-38 0 -74.5 11.5
t-59.5 33.5zM261 101v15.5t-1 15.5q-1 21 -4.5 41t-12 35.5t-22 25t-35.5 9.5q-35 0 -51 -24t-16 -60q0 -40 13 -64t49 -24q25 0 46.5 9.5t33.5 20.5z" />
    <glyph glyph-name="parenleftinferior" unicode="&#x208d;" horiz-adv-x="240" 
d="M159 -224q-20 27 -39 59t-33.5 68.5t-23.5 76.5t-9 84t9 85t24 78t35 70.5t42 62.5l62 -37q-42 -63 -63.5 -124t-21.5 -134q0 -41 6.5 -75.5t17.5 -64.5t25.5 -57.5t31.5 -55.5z" />
    <glyph glyph-name="parenrightinferior" unicode="&#x208e;" horiz-adv-x="239" 
d="M15 -188q19 28 34 57t26 60t17 65.5t6 74.5q0 37 -5.5 70t-16 63.5t-26 60t-35.5 60.5l63 37q21 -27 40 -59.5t34 -69.5t24 -78.5t9 -84.5q0 -44 -8.5 -84.5t-23 -76.5t-34 -69t-41.5 -62z" />
    <glyph glyph-name="Euro" unicode="&#x20ac;" horiz-adv-x="531" 
d="M170 348v-18v-26.5t1 -24.5h185l-12 -62h-165q31 -156 160 -156q20 0 40 2.5t31 7.5q8 2 10 6.5t3 10.5l13 74l64 4v-145q-9 -5 -26 -10.5t-39 -10.5t-48 -8.5t-53 -3.5q-216 0 -251 229h-84l12 62h66q-1 8 -1 17v19v16.5t1 16.5h-57l12 62h52q11 61 35 106t58.5 74
t77 43.5t89.5 14.5q54 0 95.5 -11.5t61.5 -22.5v-145l-64 4l-13 74q-2 7 -4 10.5t-10 6.5q-11 4 -28.5 7t-41.5 3q-61 0 -105 -39t-59 -125h201l-12 -62h-195z" />
    <glyph glyph-name="afii61352" unicode="&#x2116;" horiz-adv-x="1120" 
d="M526 0l-305 520v-438q0 -12 2.5 -15t13.5 -5l67 -8v-54h-243v54l63 7q11 2 13.5 5.5t2.5 14.5v466q0 11 -2.5 15t-13.5 5l-63 7v55h196l296 -505v423q0 11 -2.5 15t-13.5 5l-63 7v54h242v-54l-67 -8q-11 -2 -13.5 -5t-2.5 -14v-547h-107zM714 183h308v-73h-308v73z
M865 223q-44 0 -75.5 13t-51.5 36t-29.5 55.5t-9.5 70.5q0 77 42 124.5t130 47.5q44 0 75 -12.5t50.5 -34.5t28.5 -53t9 -67q0 -82 -40.5 -131t-128.5 -49zM867 276q43 0 65.5 29.5t22.5 92.5q0 62 -21 89.5t-64 27.5q-44 0 -68.5 -27t-24.5 -90t23 -92.5t67 -29.5z" />
    <glyph glyph-name="trademark" unicode="&#x2122;" horiz-adv-x="830" 
d="M95 348v37l59 5v287h-84l-9 -54h-37v101h320v-101h-37l-8 54h-86v-287l64 -5v-37h-182zM662 348v36l48 5v223l-97 -183h-45l-95 184v-224l51 -5v-36h-147v36l40 5v291l-40 5v39h99l116 -233l119 233h95v-39l-42 -5v-291l44 -5v-36h-146z" />
    <glyph glyph-name="Omega" unicode="&#x2126;" horiz-adv-x="783" 
d="M448 0v168q88 19 140 78.5t52 167.5q0 57 -18.5 103t-51.5 77.5t-78.5 48.5t-98.5 17q-46 0 -89 -15.5t-76.5 -47t-54 -78.5t-20.5 -109q0 -57 15.5 -99t41.5 -71t61 -46.5t74 -25.5v-168h-304v160h61l16 -78q2 -8 5 -9.5t11 -1.5h131v47q-94 32 -150.5 105t-56.5 189
q0 59 19.5 117.5t60 104.5t104 74.5t151.5 28.5q93 0 158.5 -30t106 -76.5t59 -103t18.5 -110.5q0 -60 -14.5 -108t-41.5 -85t-65.5 -63t-85.5 -43v-47h131q8 0 11 1.5t5 9.5l16 78h61v-160h-304z" />
    <glyph glyph-name="onethird" unicode="&#x2153;" horiz-adv-x="890" 
d="M68 282v47l59 6q7 1 8.5 3t1.5 10v302q0 11 -9 14l-60 11l6 47h147v-374q0 -8 1.5 -10t8.5 -3l58 -6v-47h-221zM190 -17l358 741h84l-357 -741h-85zM735 234q42 -9 64.5 -35.5t22.5 -72.5q0 -65 -45.5 -99t-115.5 -34q-48 0 -88 15.5t-66 42.5l45 51q17 -17 43.5 -31
t61.5 -14q34 0 57.5 16.5t23.5 56.5q0 39 -23 54.5t-60 15.5q-10 0 -21.5 -1t-24.5 -3v58l36 4q36 4 60.5 20t24.5 56q0 26 -14.5 41.5t-51.5 15.5q-31 0 -46 -13.5t-15 -48.5l-75 8q0 34 12.5 56t33 35t45.5 18t50 5q143 0 143 -109q0 -42 -21.5 -68t-55.5 -37v-3z" />
    <glyph glyph-name="twothirds" unicode="&#x2154;" horiz-adv-x="890" 
d="M36 282v50l128 151q19 24 33.5 42.5t24.5 34t14.5 29.5t4.5 30q0 25 -14 39t-52 14q-31 0 -46 -13.5t-15 -49.5l-72 8q0 37 12.5 59.5t33 35t45.5 16.5t49 4q75 0 108.5 -29t33.5 -78q0 -44 -22.5 -80.5t-55.5 -74.5l-112 -133h132q5 0 6.5 1.5t3.5 5.5l9 52h59v-114
h-308zM236 -17l358 741h84l-357 -741h-85zM766 234q42 -9 64.5 -35.5t22.5 -72.5q0 -65 -45.5 -99t-115.5 -34q-48 0 -88 15.5t-66 42.5l45 51q17 -17 43.5 -31t61.5 -14q34 0 57.5 16.5t23.5 56.5q0 39 -23 54.5t-60 15.5q-10 0 -21.5 -1t-24.5 -3v58l36 4q36 4 60.5 20
t24.5 56q0 26 -14.5 41.5t-51.5 15.5q-31 0 -46 -13.5t-15 -48.5l-75 8q0 34 12.5 56t33 35t45.5 18t50 5q143 0 143 -109q0 -42 -21.5 -68t-55.5 -37v-3z" />
    <glyph glyph-name="oneeighth" unicode="&#x215b;" horiz-adv-x="890" 
d="M63 282v47l59 6q7 1 8.5 3t1.5 10v302q0 11 -9 14l-60 11l6 47h147v-374q0 -8 1.5 -10t8.5 -3l58 -6v-47h-221zM193 -17l358 741h84l-357 -741h-85zM747 230q34 -20 56.5 -44t22.5 -66q0 -30 -12.5 -54t-34.5 -40t-51 -24.5t-63 -8.5q-68 0 -106 30.5t-38 84.5
q0 42 21.5 71t53.5 52q-27 17 -43 41t-16 61q0 28 10.5 50t29.5 37t44.5 23t54.5 8q70 0 102 -30.5t32 -75.5q0 -33 -19.5 -63.5t-43.5 -51.5zM649 202q-57 -44 -57 -89q0 -28 18.5 -46t60.5 -18q37 0 55 18t18 46q0 17 -8 29.5t-21.5 23t-30.5 19zM692 258q23 21 35.5 42
t12.5 42q0 26 -16.5 39.5t-46.5 13.5q-27 0 -44 -15.5t-17 -39.5q0 -30 22 -47.5t54 -34.5z" />
    <glyph glyph-name="threeeighths" unicode="&#x215c;" horiz-adv-x="890" 
d="M259 515q42 -9 64.5 -35.5t22.5 -72.5q0 -65 -45.5 -99t-115.5 -34q-48 0 -88 15.5t-66 42.5l45 51q17 -17 43.5 -31t61.5 -14q34 0 57.5 16.5t23.5 56.5q0 39 -23 54.5t-60 15.5q-10 0 -21.5 -1t-24.5 -3v58l36 4q36 4 60.5 20t24.5 56q0 26 -14.5 41.5t-51.5 15.5
q-31 0 -46 -13.5t-15 -48.5l-75 8q0 34 12.5 56t33 35t45.5 18t50 5q143 0 143 -109q0 -42 -21.5 -68t-55.5 -37v-3zM233 -17l358 741h84l-357 -741h-85zM779 230q34 -20 56.5 -44t22.5 -66q0 -30 -12.5 -54t-34.5 -40t-51 -24.5t-63 -8.5q-68 0 -106 30.5t-38 84.5
q0 42 21.5 71t53.5 52q-27 17 -43 41t-16 61q0 28 10.5 50t29.5 37t44.5 23t54.5 8q70 0 102 -30.5t32 -75.5q0 -33 -19.5 -63.5t-43.5 -51.5zM681 202q-57 -44 -57 -89q0 -28 18.5 -46t60.5 -18q37 0 55 18t18 46q0 17 -8 29.5t-21.5 23t-30.5 19zM724 258q23 21 35.5 42
t12.5 42q0 26 -16.5 39.5t-46.5 13.5q-27 0 -44 -15.5t-17 -39.5q0 -30 22 -47.5t54 -34.5z" />
    <glyph glyph-name="fiveeighths" unicode="&#x215d;" horiz-adv-x="890" 
d="M151 656l-10 -124q17 11 38 19t51 8q56 0 90 -34t34 -100q0 -32 -9.5 -59.5t-30 -47.5t-51 -32t-72.5 -12q-49 0 -90 15.5t-66 41.5l45 51q17 -16 43.5 -29.5t61.5 -13.5q41 0 63 20.5t22 61.5q0 42 -19 59t-49 17q-22 0 -41 -9.5t-33 -24.5l-57 23l15 235h244v-65h-179z
M233 -17l358 741h84l-357 -741h-85zM776 230q34 -20 56.5 -44t22.5 -66q0 -30 -12.5 -54t-34.5 -40t-51 -24.5t-63 -8.5q-68 0 -106 30.5t-38 84.5q0 42 21.5 71t53.5 52q-27 17 -43 41t-16 61q0 28 10.5 50t29.5 37t44.5 23t54.5 8q70 0 102 -30.5t32 -75.5
q0 -33 -19.5 -63.5t-43.5 -51.5zM678 202q-57 -44 -57 -89q0 -28 18.5 -46t60.5 -18q37 0 55 18t18 46q0 17 -8 29.5t-21.5 23t-30.5 19zM721 258q23 21 35.5 42t12.5 42q0 26 -16.5 39.5t-46.5 13.5q-27 0 -44 -15.5t-17 -39.5q0 -30 22 -47.5t54 -34.5z" />
    <glyph glyph-name="seveneighths" unicode="&#x215e;" horiz-adv-x="890" 
d="M128 282q6 66 22 124.5t37 107t43.5 85t42.5 57.5h-146q-8 0 -10 -8l-9 -53l-56 -4v130h311v-58q-29 -29 -54.5 -69.5t-45.5 -90t-33 -105.5t-17 -116h-85zM188 -17l358 741h84l-357 -741h-85zM758 230q34 -20 56.5 -44t22.5 -66q0 -30 -12.5 -54t-34.5 -40t-51 -24.5
t-63 -8.5q-68 0 -106 30.5t-38 84.5q0 42 21.5 71t53.5 52q-27 17 -43 41t-16 61q0 28 10.5 50t29.5 37t44.5 23t54.5 8q70 0 102 -30.5t32 -75.5q0 -33 -19.5 -63.5t-43.5 -51.5zM660 202q-57 -44 -57 -89q0 -28 18.5 -46t60.5 -18q37 0 55 18t18 46q0 17 -8 29.5t-21.5 23
t-30.5 19zM703 258q23 21 35.5 42t12.5 42q0 26 -16.5 39.5t-46.5 13.5q-27 0 -44 -15.5t-17 -39.5q0 -30 22 -47.5t54 -34.5z" />
    <glyph glyph-name="partialdiff" unicode="&#x2202;" horiz-adv-x="553" 
d="M409 352q1 10 1 20v21q0 33 -5 69.5t-19 67t-40 50.5t-69 20q-42 0 -81.5 -15.5t-68.5 -35.5l-38 59q39 27 91 46t106 19q65 0 106.5 -25t65 -66t32 -93t8.5 -105q0 -40 -4 -85t-14.5 -89t-28.5 -84t-46.5 -71t-68 -49t-92.5 -18q-99 0 -148.5 53t-49.5 141q0 51 14 93
t40 72.5t63 47.5t84 17q54 0 95.5 -20t66.5 -40zM401 276q-10 10 -25 21t-33 21t-39.5 16.5t-45.5 6.5q-34 0 -57 -13t-36.5 -34.5t-19.5 -49.5t-6 -57q0 -27 6.5 -50t19.5 -40.5t33 -27.5t48 -10q44 0 72.5 22t45.5 54.5t25 70.5t12 70z" />
    <glyph glyph-name="Delta" unicode="&#x2206;" horiz-adv-x="698" 
d="M51 0v61l238 663h116l241 -661v-63h-595zM344 646l-201 -573h399z" />
    <glyph glyph-name="product" unicode="&#x220f;" horiz-adv-x="766" 
d="M476 -176v54l63 7q11 2 13.5 5.5t2.5 14.5v747h-344v-746q0 -12 2.5 -15t13.5 -5l67 -8v-54h-254v54l63 7q11 2 13.5 5.5t2.5 14.5v738q0 11 -2.5 15t-13.5 5l-63 7v54h690v-54l-67 -8q-11 -2 -13.5 -5t-2.5 -14v-737q0 -12 2.5 -15t13.5 -5l67 -8v-54h-254z" />
    <glyph glyph-name="summation" unicode="&#x2211;" horiz-adv-x="627" 
d="M23 -176v57l235 400l-218 387v56h528v-165l-68 4l-14 77q-3 13 -17 13h-323l205 -371l-224 -383h350q8 0 11 1.5t5 9.5l16 87h67v-173h-553z" />
    <glyph glyph-name="minus" unicode="&#x2212;" 
d="M97 281v81h377v-81h-377z" />
    <glyph glyph-name="uni2215" unicode="&#x2215;" horiz-adv-x="454" 
d="M30 -17l313 648h82l-312 -648h-83z" />
    <glyph glyph-name="uni2219" unicode="&#x2219;" horiz-adv-x="289" 
d="M215 307q0 -68 -71 -68q-35 0 -53.5 17t-18.5 51t18.5 51.5t53.5 17.5q71 0 71 -69z" />
    <glyph glyph-name="radical" unicode="&#x221a;" 
d="M276 0l-129 227q-7 12 -18 8l-62 -18l-25 56l135 65l134 -239l174 645l79 -19l-193 -725h-95z" />
    <glyph glyph-name="infinity" unicode="&#x221e;" horiz-adv-x="645" 
d="M323 271q-12 -13 -27.5 -28t-34.5 -27.5t-42 -21t-50 -8.5q-26 0 -50 8t-42.5 24t-30 41t-11.5 60q0 31 11 56.5t30 43.5t45 27.5t56 9.5q25 0 46.5 -7.5t40 -19t34 -26.5t30.5 -30q13 14 28.5 28.5t34 26.5t40.5 20t48 8q27 0 50.5 -8t41.5 -25t28.5 -42.5t10.5 -61.5
q0 -30 -10.5 -54.5t-28.5 -42t-42.5 -27.5t-51.5 -10q-29 0 -52 8t-41.5 21t-33.5 28t-27 29zM280 323q-24 29 -48.5 49t-55.5 20t-49 -19.5t-18 -49.5q0 -29 14.5 -51t48.5 -22q18 0 33.5 7.5t29 19t25 24t20.5 22.5zM371 323q11 -13 22.5 -25.5t23.5 -22t26.5 -15.5
t31.5 -6q31 0 46.5 21t15.5 48t-13.5 47.5t-46.5 20.5q-15 0 -29.5 -6.5t-28 -17t-25.5 -22.5t-23 -22z" />
    <glyph glyph-name="integral" unicode="&#x222b;" horiz-adv-x="392" 
d="M48 -99q37 -18 74 -18q26 0 43.5 14.5t13.5 55.5l-54 636q-3 39 8 65.5t30.5 42.5t45 23t50.5 7q31 0 55.5 -5.5t47.5 -14.5l-20 -71q-19 10 -37.5 14t-36.5 4q-26 0 -43.5 -15.5t-13.5 -54.5l54 -635q3 -40 -8 -66.5t-30.5 -42.5t-45 -22.5t-50.5 -6.5q-31 0 -55.5 5.5
t-47.5 14.5z" />
    <glyph glyph-name="approxequal" unicode="&#x2248;" 
d="M504 497q-5 -22 -12 -41.5t-17.5 -34.5t-26 -23.5t-39.5 -8.5q-27 0 -57.5 7t-60.5 15t-58 15t-50 7q-23 0 -36 -12.5t-30 -38.5l-51 22q20 45 44.5 73t68.5 28q28 0 57.5 -7t58 -15t55.5 -15t51 -7q23 0 32 13t18 39zM503 317q-5 -22 -11.5 -41.5t-17 -34t-26.5 -23
t-40 -8.5q-27 0 -57.5 6.5t-60.5 15t-58 15t-50 6.5q-23 0 -36 -12.5t-30 -38.5l-51 22q21 45 45 73t68 28q28 0 57.5 -7t58 -15t55.5 -15t51 -7q23 0 32 13t19 39z" />
    <glyph glyph-name="notequal" unicode="&#x2260;" 
d="M271 159l-49 -109h-80l50 109h-94v83h132l36 79h-168v83h206l44 95h76l-43 -95h91v-83h-128l-36 -79h164v-83h-201z" />
    <glyph glyph-name="lessequal" unicode="&#x2264;" 
d="M89 251v100l367 150l23 -73l-309 -123l312 -120l-16 -79zM90 0v80h377v-80h-377z" />
    <glyph glyph-name="greaterequal" unicode="&#x2265;" 
d="M104 106l-16 78l312 120l-309 122l19 79l371 -154v-100zM103 0v80h377v-80h-377z" />
    <glyph glyph-name="triangle" unicode="&#x25b3;" horiz-adv-x="425" 
d="M150 203v231l185 -114z" />
    <glyph glyph-name="lozenge" unicode="&#x25ca;" 
d="M248 -17l-157 324l157 324h74l157 -324l-157 -324h-74zM399 307l-114 236l-114 -236l114 -239z" />
    <glyph glyph-name="circle" unicode="&#x25cb;" horiz-adv-x="610" 
d="M305 119q-42 0 -79.5 16t-65.5 44t-44 65.5t-16 79.5t16 79.5t44 65.5t65.5 44t79.5 16t79.5 -16t65.5 -44t44 -65.5t16 -79.5t-16 -79.5t-44 -65.5t-65.5 -44t-79.5 -16z" />
    <glyph glyph-name="commainferior" unicode="&#xf6e1;" horiz-adv-x="127" 
d="M17 -211l19 69q1 6 -4 8l-25 9l15 63q18 0 33 -2t26.5 -6.5t18 -13.5t6.5 -24q0 -11 -3.5 -21.5t-8.5 -20.5l-38 -72z" />
    <glyph glyph-name="commasuperior" unicode="&#xf6e2;" horiz-adv-x="127" 
d="M17 285l19 69q1 6 -4 8l-25 9l15 63q18 0 33 -2t26.5 -6.5t18 -13.5t6.5 -24q0 -11 -3.5 -21.5t-8.5 -20.5l-38 -72z" />
    <glyph glyph-name="hypheninferior" unicode="&#xf6e5;" horiz-adv-x="221" 
d="M20 5v72h181v-72h-181z" />
    <glyph glyph-name="hyphensuperior" unicode="&#xf6e6;" horiz-adv-x="221" 
d="M20 501v72h181v-72h-181z" />
    <glyph glyph-name="periodinferior" unicode="&#xf6e7;" horiz-adv-x="143" 
d="M123 -107q0 -47 -51 -47q-52 0 -52 47q0 46 52 46q51 0 51 -46z" />
    <glyph glyph-name="periodsuperior" unicode="&#xf6e8;" horiz-adv-x="143" 
d="M123 389q0 -47 -51 -47q-52 0 -52 47q0 46 52 46q51 0 51 -46z" />
    <glyph glyph-name="s_t" unicode="&#xfb06;" horiz-adv-x="855" 
d="M828 20q-34 -15 -70.5 -23.5t-74.5 -8.5q-39 0 -64.5 10.5t-41 29.5t-22 46t-6.5 60v302q0 9 -8 9h-58v69h66v107q-11 5 -31.5 7.5t-39.5 2.5q-24 0 -39.5 -8t-23.5 -22.5t-11 -35t-3 -44.5q0 -37 2.5 -80t4.5 -74l-67 4l-11 62q-2 11 -25 17.5t-65 6.5q-54 0 -79.5 -21
t-25.5 -54q0 -30 21.5 -45.5t53.5 -26t69.5 -19.5t69.5 -25t53.5 -43.5t21.5 -74.5q0 -45 -16.5 -76t-44.5 -49.5t-64.5 -26.5t-76.5 -8q-32 0 -62 4t-54.5 9t-42 11t-24.5 10v127l67 -4l11 -63q2 -8 28 -19t83 -11q53 0 81 19t28 62q0 33 -21.5 49.5t-53 26.5t-69 17.5
t-69 23t-53 42.5t-21.5 76q0 42 16.5 71.5t44 48.5t63 27.5t73.5 8.5q24 0 43.5 -2t37.5 -6q-1 7 -1 14v14q0 33 6.5 61.5t24 48.5t47 31.5t76.5 11.5q38 0 80.5 -5t78.5 -11v-157q0 -5 1 -7.5t7 -2.5h147v-69h-155v-294q0 -47 15 -67.5t59 -20.5q26 0 49.5 6t43.5 14z" />
    <glyph glyph-name="hyphen.case" horiz-adv-x="311" 
d="M20 307v89h271v-89h-271z" />
    <glyph glyph-name="zero.lf" horiz-adv-x="562" 
d="M276 -12q-74 0 -119.5 28t-70 77.5t-33 117.5t-8.5 149q0 79 10.5 148t37.5 120t74 80t121 29t119 -29t69.5 -78.5t32.5 -116t8 -140.5q0 -83 -10 -153.5t-36.5 -122t-73.5 -80.5t-121 -29zM280 61q46 0 74 22.5t43 62.5t20 96t5 124q0 66 -4 120.5t-18 93t-41 60
t-73 21.5q-47 0 -75.5 -21.5t-44 -61.5t-21 -95.5t-5.5 -124.5q0 -63 4.5 -117.5t19 -94.5t42 -62.5t74.5 -22.5z" />
    <glyph glyph-name="one.lf" horiz-adv-x="368" 
d="M35 0v55l93 6q11 2 13.5 5.5t2.5 14.5v548q0 11 -3 15t-11 6l-94 18l6 56h193v-643q0 -12 2.5 -15t13.5 -5l92 -7v-54h-308z" />
    <glyph glyph-name="two.lf" horiz-adv-x="495" 
d="M29 0v59l210 277q52 68 81 119.5t29 107.5q0 50 -27 76t-92 26q-29 0 -50 -4t-34.5 -15.5t-20.5 -32t-7 -52.5l-85 9q0 54 18 87t47 50.5t65 23.5t72 6q111 0 158.5 -44.5t47.5 -123.5q0 -36 -9.5 -69.5t-25 -65t-35.5 -61.5t-42 -58l-189 -247h234q8 0 10.5 2t4.5 9
l15 85h66v-164h-441z" />
    <glyph glyph-name="three.lf" horiz-adv-x="505" 
d="M328 385q130 -32 130 -181q0 -46 -15 -85.5t-44 -68.5t-70.5 -45.5t-94.5 -16.5q-71 0 -127 23t-94 65l55 61q32 -33 72 -52.5t94 -19.5q25 0 48.5 8t42 25.5t29.5 44t11 64.5q0 28 -7.5 53t-24.5 43.5t-43.5 29.5t-65.5 11q-17 0 -32.5 -1.5t-37.5 -5.5v73l62 6
q35 3 60.5 16.5t42 33t24.5 44t8 50.5q0 48 -25 76.5t-83 28.5q-29 0 -50.5 -4t-36 -15.5t-22 -31.5t-7.5 -53l-85 9q0 54 18.5 87t47.5 50.5t65 23.5t72 6q53 0 90.5 -12.5t61.5 -35.5t35 -54.5t11 -68.5q0 -60 -31 -109t-84 -68v-4z" />
    <glyph glyph-name="four.lf" horiz-adv-x="542" 
d="M224 0v54l94 7q11 1 13.5 5t2.5 15v126h-307v56l284 461h111v-448h87v-72h-88v-125q0 -11 2.5 -13.5t13.5 -4.5l68 -7v-54h-281zM335 629l-218 -353h218v353z" />
    <glyph glyph-name="five.lf" horiz-adv-x="516" 
d="M163 645l-18 -235q23 20 56.5 32.5t72.5 12.5q87 0 140 -52.5t53 -166.5q0 -53 -15 -98.5t-44.5 -78.5t-72.5 -52t-100 -19q-69 0 -127 23t-95 62l55 61q29 -29 71 -49t94 -20q27 0 52 8.5t45 28t32 51t12 76.5q0 46 -10 75.5t-26.5 46t-37.5 23t-44 6.5
q-43 0 -73.5 -17.5t-53.5 -38.5l-66 29l24 371h351v-79h-275z" />
    <glyph glyph-name="six.lf" horiz-adv-x="547" 
d="M403 578q0 50 -22.5 68.5t-68.5 18.5q-50 0 -81 -27t-48.5 -69t-24 -92t-6.5 -96q26 22 69.5 43t98.5 21q91 0 137 -55.5t46 -162.5q0 -55 -15 -99t-43 -75t-68 -48t-90 -17q-70 0 -114 32t-69.5 84t-35 118t-9.5 134q0 38 4.5 81t15.5 85t30 81t48 69t69 47.5t93 17.5
q29 0 59.5 -6t55 -22.5t40 -45.5t15.5 -75zM153 306q1 -28 6 -70t19.5 -81.5t41 -67.5t70.5 -28q63 0 91.5 43t28.5 117q0 78 -24 116t-84 38q-22 0 -44.5 -7t-43 -17.5t-36.5 -22t-25 -20.5z" />
    <glyph glyph-name="seven.lf" horiz-adv-x="488" 
d="M149 0q9 102 34 201.5t58 186t69.5 153.5t68.5 104h-243q-14 0 -15 -11l-18 -88l-63 -5v183h443v-69q-29 -29 -57 -73.5t-53 -98.5t-47 -115.5t-39 -124.5t-28 -125t-14 -118h-96z" />
    <glyph glyph-name="eight.lf" horiz-adv-x="521" 
d="M351 378q27 -18 51 -37t41.5 -41t27.5 -49t10 -60q0 -45 -16 -82.5t-45 -64t-70.5 -41.5t-92.5 -15q-97 0 -154.5 49t-57.5 135q0 66 34 118t90 99q-21 15 -39 31.5t-31 35.5t-20.5 42.5t-7.5 53.5q0 40 15 74t41 59t62.5 38.5t78.5 13.5q50 0 86.5 -13t60 -35.5t35 -53
t11.5 -64.5q0 -28 -10 -55.5t-26 -52t-35.5 -46.5t-38.5 -39zM231 354q-48 -45 -74.5 -86t-26.5 -89q0 -51 34 -86.5t100 -35.5q30 0 53.5 10.5t39.5 28t24.5 40.5t8.5 48q0 31 -12 55t-33 43.5t-50.5 36.5t-63.5 35zM288 411q36 35 62 74.5t26 77.5q0 52 -31 78.5t-79 26.5
t-77.5 -31.5t-29.5 -76.5q0 -27 10.5 -48t28.5 -39t41 -33t49 -29z" />
    <glyph glyph-name="nine.lf" horiz-adv-x="552" 
d="M111 117q31 -27 67.5 -40.5t75.5 -13.5q33 0 57 13.5t40.5 36t27 51t16 59t7.5 60.5t3 54q-27 -25 -68 -45.5t-96 -20.5q-49 0 -85 18t-59 49t-34.5 72.5t-11.5 89.5q0 53 14.5 96.5t43 75t69.5 48.5t94 17q70 0 113.5 -30t68.5 -79.5t34 -114.5t9 -135
q0 -62 -8.5 -130.5t-34 -126.5t-73.5 -95.5t-126 -37.5q-51 0 -102.5 15.5t-86.5 48.5zM403 416q-1 37 -5.5 81t-18.5 81.5t-40.5 62.5t-71.5 25q-60 0 -91 -42.5t-31 -111.5q0 -35 6 -65.5t19 -53.5t33.5 -36.5t49.5 -13.5q24 0 46.5 7t42 18t35.5 24t26 24z" />
    <glyph glyph-name="dollar.lf" horiz-adv-x="516" 
d="M230 0h-3q-30 0 -59.5 3.5t-54.5 9t-44.5 11.5t-29.5 12v156h60l17 -84q2 -9 5 -13t13 -8q9 -4 33.5 -10t62.5 -6v255q-32 10 -64 22.5t-57 33t-40.5 53t-15.5 83.5q0 44 13.5 77.5t37 57t56 37t70.5 18.5v82h71v-79q49 -2 88.5 -13.5t59.5 -19.5v-161l-61 5l-14 81
q-2 11 -4 14.5t-6 5.5q-8 5 -23.5 9t-39.5 6v-243q30 -11 59.5 -24.5t52.5 -35.5t37 -54.5t14 -80.5q0 -44 -12.5 -77.5t-34 -57t-51.5 -38t-65 -21.5v-86h-71v80zM138 529q0 -47 26.5 -71t65.5 -39v216q-47 -9 -69.5 -36.5t-22.5 -69.5zM380 191q0 46 -22.5 71t-56.5 40
v-223q38 12 58.5 39.5t20.5 72.5z" />
    <glyph glyph-name="Euro.lf" horiz-adv-x="556" 
d="M35 452h47q10 68 33.5 121t58 89.5t78 55.5t92.5 19q54 0 95.5 -11.5t61.5 -22.5v-145l-64 4l-13 74q-1 6 -3 10.5t-10 6.5q-23 10 -71 10q-63 0 -107 -54.5t-58 -156.5h205l-12 -61h-198v-23v-21.5t1 -20.5h188l-12 -61h-171q14 -94 54.5 -149t108.5 -55q20 0 40 2.5
t31 7.5q8 3 10 7.5t3 10.5l13 73l64 4v-145q-9 -5 -26 -10.5t-39 -10.5t-48 -8.5t-53 -3.5q-112 0 -174.5 72t-78.5 205h-79l12 61h62v65h-53z" />
    <glyph glyph-name="cent.lf" horiz-adv-x="533" 
d="M321 172q17 2 31 4.5t22 4.5q7 2 8.5 5.5t2.5 8.5l12 65l63 3v-133q-18 -9 -54.5 -19t-84.5 -12v-99h-71v102q-90 11 -142 70t-52 175q0 56 14 99.5t39.5 74t61 49t79.5 25.5v103h71v-100q49 -2 83 -11.5t54 -18.5v-131l-64 3l-11 65q-1 5 -3 8.5t-9 5.5q-8 2 -21 4.5
t-29 3.5v-355zM250 521q-45 -14 -71.5 -54.5t-26.5 -113.5q0 -78 25.5 -119.5t72.5 -55.5v343z" />
    <glyph glyph-name="sterling.lf" horiz-adv-x="554" 
d="M48 0l-13 59q28 21 43 41.5t22.5 45t9 54.5t1.5 71v71h-80v72h80v106q0 45 10.5 84.5t36.5 69t68.5 46.5t107.5 17q34 0 65 -5.5t55 -21.5t38.5 -45t14.5 -75l-84 -12q0 27 -7 44.5t-19 27t-29 13t-37 3.5q-35 0 -59.5 -8t-39.5 -27t-22 -50t-7 -76v-91h189v-72h-189v-76
q0 -32 -2 -59t-8.5 -51t-19 -45.5t-34.5 -42.5h271q8 0 10.5 2t4.5 9l16 85h66v-164h-459z" />
    <glyph glyph-name="yen.lf" horiz-adv-x="590" 
d="M380 434h99v-62h-133v-72h133v-62h-133v-156q0 -12 2.5 -15.5t13.5 -4.5l99 -8v-54h-318v54l94 7q11 1 14 4.5t3 16.5v156h-132v62h132v72h-132v62h95l-130 207q-5 8 -10.5 12t-14.5 6l-45 11l10 54h221v-54l-71 -9l127 -216l129 216l-70 9l10 54h200v-54l-41 -10
q-16 -4 -26 -20z" />
    <glyph glyph-name="florin.lf" horiz-adv-x="542" 
d="M277 376l-53 -298q-8 -45 -20.5 -77t-33 -52.5t-49.5 -30t-69 -9.5q-38 0 -75 12t-56 26l28 62q17 -11 46 -21t58 -10q33 0 52.5 18.5t28.5 68.5l55 301q1 5 0 7.5t-7 2.5h-93l12 67h101l22 124q7 42 20 74t34 53t51.5 32t72.5 11q49 0 82 -11.5t51 -21.5l-22 -128l-60 4
l-1 68q0 5 -1.5 8t-7.5 5q-8 3 -16.5 5.5t-26.5 2.5q-45 0 -63.5 -27.5t-26.5 -74.5l-20 -114q-1 -5 0 -7.5t7 -2.5h141l-12 -67h-149z" />
    <glyph glyph-name="afii61352.lf" horiz-adv-x="1109" 
d="M526 0l-305 616v-534q0 -12 2.5 -15t13.5 -5l67 -8v-54h-243v54l63 7q11 2 13.5 5.5t2.5 14.5v562q0 11 -2.5 15t-13.5 5l-63 7v55h196l296 -601v519q0 11 -2.5 15t-13.5 5l-63 7v54h242v-54l-67 -8q-11 -2 -13.5 -5t-2.5 -14v-643h-107zM714 279h308v-73h-308v73z
M865 319q-44 0 -75.5 13t-51.5 36t-29.5 55.5t-9.5 70.5q0 77 42 124.5t130 47.5q44 0 75 -12.5t50.5 -34.5t28.5 -53t9 -67q0 -82 -40.5 -131t-128.5 -49zM867 372q43 0 65.5 29.5t22.5 92.5q0 62 -21 89.5t-64 27.5q-44 0 -68.5 -27t-24.5 -90t23 -92.5t67 -29.5z" />
    <glyph glyph-name="percent.lf" horiz-adv-x="798" 
d="M204 374q-45 0 -75 14.5t-49 39t-27 56t-8 66.5q0 41 10.5 75.5t31.5 59t52 38.5t73 14q85 0 122 -47.5t37 -126.5q0 -84 -42.5 -136.5t-124.5 -52.5zM132 -17l437 741h86l-436 -741h-87zM208 435q49 0 66.5 34t17.5 90q0 25 -3.5 46t-13 36.5t-25.5 24.5t-40 9
q-25 0 -41.5 -10.5t-26.5 -27t-14 -38t-4 -43.5q0 -26 4 -48.5t13.5 -38.5t25.5 -25t41 -9zM587 -12q-45 0 -75.5 14.5t-49.5 39t-27 56t-8 66.5q0 41 10.5 75.5t31.5 59t52.5 38.5t73.5 14t72 -12.5t49 -35t28 -55t9 -71.5q0 -84 -42 -136.5t-124 -52.5zM590 49
q49 0 66.5 34t17.5 90q0 25 -3.5 46t-13 36.5t-25 24.5t-39.5 9q-25 0 -41.5 -10.5t-26.5 -27t-14 -38t-4 -43.5q0 -26 4 -48.5t13.5 -38.5t25.5 -25t40 -9z" />
    <glyph glyph-name="perthousand.lf" horiz-adv-x="1009" 
d="M186 412q-40 0 -67 12.5t-43.5 34t-23.5 50t-7 61.5q0 75 37.5 121t110.5 46q75 0 108 -43t33 -115q0 -76 -37.5 -121.5t-110.5 -45.5zM74 -17l437 741h86l-436 -741h-87zM189 469q41 0 56 30t15 77q0 22 -3 41t-10.5 32.5t-21 21.5t-33.5 8q-21 0 -35 -9t-22.5 -24
t-12 -34t-3.5 -38q0 -45 14.5 -75t55.5 -30zM489 -12q-40 0 -67 12.5t-43.5 34t-23.5 50t-7 61.5q0 75 37.5 121t110.5 46q75 0 108 -43t33 -115q0 -76 -37.5 -121.5t-110.5 -45.5zM493 45q41 0 56 29.5t15 77.5q0 44 -14.5 73.5t-54.5 29.5q-21 0 -34.5 -9t-22 -24t-12 -34
t-3.5 -38q0 -45 14.5 -75t55.5 -30zM816 -12q-40 0 -67 12.5t-43.5 34t-23.5 50t-7 61.5q0 75 37.5 121t110.5 46q75 0 108 -43t33 -115q0 -76 -37.5 -121.5t-110.5 -45.5zM820 45q41 0 56 29.5t15 77.5q0 44 -14.5 73.5t-54.5 29.5q-21 0 -34.5 -9t-22 -24t-12 -34
t-3.5 -38q0 -45 14.5 -75t55.5 -30z" />
    <glyph glyph-name="zero.slash" 
d="M280 -12q-74 0 -119.5 28t-70 77.5t-33 117.5t-8.5 149q0 79 10.5 148t37.5 120t74 80t121 29t119 -29t69.5 -78.5t32.5 -116t8 -140.5q0 -83 -10 -153.5t-36.5 -122t-73.5 -80.5t-121 -29zM284 61q46 0 74 22.5t43 62.5t20 96t5 124q0 81 -6.5 144t-30.5 101l-143 -545
q18 -5 38 -5zM144 358q0 -78 6.5 -141.5t31.5 -103.5l142 544q-8 2 -16.5 3t-17.5 1q-47 0 -75.5 -21.5t-44 -61.5t-21 -95.5t-5.5 -124.5z" />
    <glyph glyph-name="zero.tf" 
d="M280 -12q-74 0 -119.5 28t-70 77.5t-33 117.5t-8.5 149q0 79 10.5 148t37.5 120t74 80t121 29t119 -29t69.5 -78.5t32.5 -116t8 -140.5q0 -83 -10 -153.5t-36.5 -122t-73.5 -80.5t-121 -29zM284 61q46 0 74 22.5t43 62.5t20 96t5 124q0 66 -4 120.5t-18 93t-41 60
t-73 21.5q-47 0 -75.5 -21.5t-44 -61.5t-21 -95.5t-5.5 -124.5q0 -63 4.5 -117.5t19 -94.5t42 -62.5t74.5 -22.5z" />
    <glyph glyph-name="one.tf" 
d="M103 0v54l121 8q11 2 13.5 5.5t2.5 14.5v547q0 11 -3 15t-11 6l-94 18l6 56h193v-643q0 -12 2.5 -15t13.5 -5l102 -7v-54h-346z" />
    <glyph glyph-name="two.tf" 
d="M66 0v59l210 277q52 68 81 119.5t29 107.5q0 50 -27 76t-92 26q-29 0 -50 -4t-34.5 -15.5t-20.5 -32t-7 -52.5l-85 9q0 54 18 87t47 50.5t65 23.5t72 6q111 0 158.5 -44.5t47.5 -123.5q0 -36 -9.5 -69.5t-25 -65t-35.5 -61.5t-42 -58l-189 -247h234q8 0 10.5 2t4.5 9
l15 85h66v-164h-441z" />
    <glyph glyph-name="three.tf" 
d="M363 385q130 -32 130 -181q0 -46 -15 -85.5t-44 -68.5t-70.5 -45.5t-94.5 -16.5q-71 0 -127 23t-94 65l55 61q32 -33 72 -52.5t94 -19.5q25 0 48.5 8t42 25.5t29.5 44t11 64.5q0 28 -7.5 53t-24.5 43.5t-43.5 29.5t-65.5 11q-17 0 -32.5 -1.5t-37.5 -5.5v73l62 6
q35 3 60.5 16.5t42 33t24.5 44t8 50.5q0 48 -25 76.5t-83 28.5q-29 0 -50.5 -4t-36 -15.5t-22 -31.5t-7.5 -53l-85 9q0 54 18.5 87t47.5 50.5t65 23.5t72 6q53 0 90.5 -12.5t61.5 -35.5t35 -54.5t11 -68.5q0 -60 -31 -109t-84 -68v-4z" />
    <glyph glyph-name="four.tf" 
d="M234 0v54l94 7q11 1 13.5 5t2.5 15v126h-307v56l284 461h111v-448h87v-72h-88v-125q0 -11 2.5 -13.5t13.5 -4.5l68 -7v-54h-281zM345 629l-218 -353h218v353z" />
    <glyph glyph-name="five.tf" 
d="M191 645l-18 -235q23 20 56.5 32.5t72.5 12.5q87 0 140 -52.5t53 -166.5q0 -53 -15 -98.5t-44.5 -78.5t-72.5 -52t-100 -19q-69 0 -127 23t-95 62l55 61q29 -29 71 -49t94 -20q27 0 52 8.5t45 28t32 51t12 76.5q0 46 -10 75.5t-26.5 46t-37.5 23t-44 6.5
q-43 0 -73.5 -17.5t-53.5 -38.5l-66 29l24 371h351v-79h-275z" />
    <glyph glyph-name="six.tf" 
d="M409 578q0 50 -22.5 68.5t-68.5 18.5q-50 0 -81 -27t-48.5 -69t-24 -92t-6.5 -96q26 22 69.5 43t98.5 21q91 0 137 -55.5t46 -162.5q0 -55 -15 -99t-43 -75t-68 -48t-90 -17q-70 0 -114 32t-69.5 84t-35 118t-9.5 134q0 38 4.5 81t15.5 85t30 81t48 69t69 47.5t93 17.5
q29 0 59.5 -6t55 -22.5t40 -45.5t15.5 -75zM159 306q1 -28 6 -70t19.5 -81.5t41 -67.5t70.5 -28q63 0 91.5 43t28.5 117q0 78 -24 116t-84 38q-22 0 -44.5 -7t-43 -17.5t-36.5 -22t-25 -20.5z" />
    <glyph glyph-name="seven.tf" 
d="M198 0q9 102 33.5 203t57 188.5t68.5 156t67 105.5h-259q-13 0 -15 -11l-17 -88l-63 -5v175h459v-61q-29 -29 -57 -75.5t-53.5 -103t-47.5 -120.5t-38.5 -128t-27 -124.5t-11.5 -111.5h-96z" />
    <glyph glyph-name="eight.tf" 
d="M372 378q27 -18 51 -37t41.5 -41t27.5 -49t10 -60q0 -45 -16 -82.5t-45 -64t-70.5 -41.5t-92.5 -15q-97 0 -154.5 49t-57.5 135q0 66 34 118t90 99q-21 15 -39 31.5t-31 35.5t-20.5 42.5t-7.5 53.5q0 40 15 74t41 59t62.5 38.5t78.5 13.5q50 0 86.5 -13t60 -35.5t35 -53
t11.5 -64.5q0 -28 -10 -55.5t-26 -52t-35.5 -46.5t-38.5 -39zM252 354q-48 -45 -74.5 -86t-26.5 -89q0 -51 34 -86.5t100 -35.5q30 0 53.5 10.5t39.5 28t24.5 40.5t8.5 48q0 31 -12 55t-33 43.5t-50.5 36.5t-63.5 35zM309 411q36 35 62 74.5t26 77.5q0 52 -31 78.5t-79 26.5
t-77.5 -31.5t-29.5 -76.5q0 -27 10.5 -48t28.5 -39t41 -33t49 -29z" />
    <glyph glyph-name="nine.tf" 
d="M120 117q31 -27 67.5 -40.5t75.5 -13.5q33 0 57 13.5t40.5 36t27 51t16 59t7.5 60.5t3 54q-27 -25 -68 -45.5t-96 -20.5q-49 0 -85 18t-59 49t-34.5 72.5t-11.5 89.5q0 53 14.5 96.5t43 75t69.5 48.5t94 17q70 0 113.5 -30t68.5 -79.5t34 -114.5t9 -135
q0 -62 -8.5 -130.5t-34 -126.5t-73.5 -95.5t-126 -37.5q-51 0 -102.5 15.5t-86.5 48.5zM412 416q-1 37 -5.5 81t-18.5 81.5t-40.5 62.5t-71.5 25q-60 0 -91 -42.5t-31 -111.5q0 -35 6 -65.5t19 -53.5t33.5 -36.5t49.5 -13.5q24 0 46.5 7t42 18t35.5 24t26 24z" />
    <glyph glyph-name="dollar.tf" 
d="M243 0h-3q-30 0 -59.5 3.5t-54.5 9t-44.5 11.5t-29.5 12v156h60l17 -84q2 -9 5 -13t13 -8q9 -4 33.5 -10t62.5 -6v255q-32 10 -64 22.5t-57 33t-40.5 53t-15.5 83.5q0 44 13.5 77.5t37 57t56 37t70.5 18.5v82h71v-79q49 -2 88.5 -13.5t59.5 -19.5v-161l-61 5l-14 81
q-2 11 -4 14.5t-6 5.5q-8 5 -23.5 9t-39.5 6v-243q30 -11 59.5 -24.5t52.5 -35.5t37 -54.5t14 -80.5q0 -44 -12.5 -77.5t-34 -57t-51.5 -38t-65 -21.5v-86h-71v80zM151 529q0 -47 26.5 -71t65.5 -39v216q-47 -9 -69.5 -36.5t-22.5 -69.5zM393 191q0 46 -22.5 71t-56.5 40
v-223q38 12 58.5 39.5t20.5 72.5z" />
    <glyph glyph-name="Euro.tf" 
d="M53 452h47q10 68 33.5 121t58 89.5t78 55.5t92.5 19q54 0 95.5 -11.5t61.5 -22.5v-145l-64 4l-13 74q-1 6 -3 10.5t-10 6.5q-23 10 -71 10q-63 0 -107 -54.5t-58 -156.5h205l-12 -61h-198v-23v-21.5t1 -20.5h188l-12 -61h-171q14 -94 54.5 -149t108.5 -55q20 0 40 2.5
t31 7.5q8 3 10 7.5t3 10.5l13 73l64 4v-145q-9 -5 -26 -10.5t-39 -10.5t-48 -8.5t-53 -3.5q-112 0 -174.5 72t-78.5 205h-79l12 61h62v65h-53z" />
    <glyph glyph-name="cent.tf" 
d="M351 182q17 2 31 4.5t22 4.5q7 2 8.5 5.5t2.5 8.5l12 65l63 3v-133q-18 -9 -54.5 -19t-84.5 -12v-99h-71v102q-90 11 -142 70t-52 175q0 56 14 99.5t39.5 74t61 49t79.5 25.5v103h71v-100q49 -2 83 -11.5t54 -18.5v-131l-64 3l-11 65q-1 5 -3 8.5t-9 5.5q-8 2 -21 4.5
t-29 3.5v-355zM280 531q-45 -14 -71.5 -54.5t-26.5 -113.5q0 -78 25.5 -119.5t72.5 -55.5v343z" />
    <glyph glyph-name="sterling.tf" 
d="M64 0l-13 59q28 21 43 41.5t22.5 45t9 54.5t1.5 71v71h-80v72h80v106q0 45 10.5 84.5t36.5 69t68.5 46.5t107.5 17q34 0 65 -5.5t55 -21.5t38.5 -45t14.5 -75l-84 -12q0 27 -7 44.5t-19 27t-29 13t-37 3.5q-35 0 -59.5 -8t-39.5 -27t-22 -50t-7 -76v-91h189v-72h-189v-76
q0 -32 -2 -59t-8.5 -51t-19 -45.5t-34.5 -42.5h271q8 0 10.5 2t4.5 9l16 85h66v-164h-459z" />
    <glyph glyph-name="yen.tf" 
d="M370 434h99v-62h-133v-72h133v-62h-133v-156q0 -12 2.5 -15.5t13.5 -4.5l99 -8v-54h-318v54l94 7q11 1 14 4.5t3 16.5v156h-132v62h132v72h-132v62h95l-130 207q-5 8 -10.5 12t-14.5 6l-45 11l10 54h221v-54l-71 -9l127 -216l129 216l-70 9l10 54h200v-54l-41 -10
q-16 -4 -26 -20z" />
    <glyph glyph-name="florin.tf" 
d="M337 376l-53 -298q-8 -45 -20.5 -77t-33 -52.5t-49.5 -30t-69 -9.5q-38 0 -75 12t-56 26l28 62q17 -11 46 -21t58 -10q33 0 52.5 18.5t28.5 68.5l55 301q1 5 0 7.5t-7 2.5h-93l12 67h101l22 124q7 42 20 74t34 53t51.5 32t72.5 11q49 0 82 -11.5t51 -21.5l-22 -128l-60 4
l-1 68q0 5 -1.5 8t-7.5 5q-8 3 -16.5 5.5t-26.5 2.5q-45 0 -63.5 -27.5t-26.5 -74.5l-20 -114q-1 -5 0 -7.5t7 -2.5h141l-12 -67h-149z" />
    <glyph glyph-name="zeroslash.tosf" 
d="M282 -12q-74 0 -121 23.5t-73.5 63.5t-36.5 94t-10 115q0 60 12 114.5t41 96t77.5 65.5t120.5 24t118 -23t72.5 -62t36.5 -91.5t10 -110.5q0 -62 -11 -118t-39 -98.5t-76 -67.5t-121 -25zM136 279q0 -63 11.5 -110t40.5 -74l132 409q-14 3 -30 3q-86 0 -120 -59t-34 -169
zM285 62q43 0 71.5 16t45.5 45.5t24.5 71.5t7.5 95q0 64 -10.5 110.5t-37.5 72.5l-132 -409q8 -2 15.5 -2h15.5z" />
    <glyph glyph-name="zero.tosf" 
d="M283 -12q-74 0 -121 23.5t-73.5 63.5t-36.5 94t-10 115q0 60 12 114.5t41 96t77.5 65.5t120.5 24t118 -23t72.5 -62t36.5 -91.5t10 -110.5q0 -62 -11 -118t-39 -98.5t-76 -67.5t-121 -25zM286 62q43 0 71.5 16t45.5 45.5t24.5 71.5t7.5 95q0 51 -6.5 91.5t-23 68.5
t-44 42.5t-70.5 14.5q-86 0 -120 -59t-34 -169q0 -49 7 -89t24 -68.5t45.5 -44t72.5 -15.5z" />
    <glyph glyph-name="one.tosf" 
d="M109 0v55l121 6q11 1 13.5 5t2.5 15v393q0 11 -3 15t-11 6l-95 18l7 56h193v-488q0 -12 2.5 -15t13.5 -5l108 -7v-54h-352z" />
    <glyph glyph-name="two.tosf" 
d="M79 0v62l137 134q36 35 66 64t51.5 55.5t33 51t11.5 50.5q0 45 -25.5 70t-86.5 25q-28 0 -49 -4t-34.5 -15.5t-20 -32t-6.5 -52.5l-85 9q0 54 18 87t46.5 50.5t64 23.5t71.5 6q54 0 91.5 -11.5t61.5 -32.5t34.5 -50t10.5 -64q0 -39 -14 -73t-36.5 -64t-51.5 -57.5
t-58 -55.5l-114 -108h208q13 0 15 11l15 85h66v-164h-420z" />
    <glyph glyph-name="three.tosf" 
d="M362 262q132 -24 132 -155q0 -88 -57.5 -139t-163.5 -51q-71 0 -127.5 24t-88.5 62l54 58q31 -32 68.5 -50t92.5 -18q25 0 48 5.5t41 18.5t29 35.5t11 56.5q0 58 -36 86t-101 28q-33 0 -71 -7v70l58 6q68 6 101 39t33 84q0 42 -24 69.5t-83 27.5q-27 0 -48.5 -4.5
t-35.5 -16t-21.5 -31.5t-7.5 -52l-85 9q0 53 18.5 85.5t47.5 50.5t65 24.5t72 6.5q52 0 89 -12t60.5 -33t34 -50.5t10.5 -63.5q0 -60 -30.5 -100t-84.5 -59v-4z" />
    <glyph glyph-name="four.tosf" 
d="M353 -67v146h-302v66l230 432l74 -39l-206 -385h205v208h85v-208h93v-74h-93v-146h-86z" />
    <glyph glyph-name="five.tosf" 
d="M187 494l-13 -195q24 17 57 27.5t72 10.5q92 0 144 -51.5t52 -147.5q0 -48 -15 -88.5t-44 -70t-71 -46t-97 -16.5q-72 0 -131 23t-96 62l55 61q32 -33 73 -51t96 -18q25 0 49.5 7.5t44 24.5t31.5 44t12 65q0 37 -11.5 61.5t-29 39.5t-39 21t-41.5 6q-43 0 -72.5 -15
t-52.5 -33l-66 29l21 325h265q8 0 10.5 2t4.5 9l14 54l56 4v-144h-278z" />
    <glyph glyph-name="six.tosf" 
d="M410 491q0 52 -21.5 69.5t-68.5 17.5q-49 0 -80 -23t-48 -58t-24 -77.5t-8 -81.5q26 21 69 39.5t97 18.5q91 0 135 -51.5t44 -135.5q0 -102 -56.5 -161.5t-160.5 -59.5q-68 0 -111 27t-67 72.5t-32.5 105t-8.5 124.5q0 33 4 70.5t15 74.5t29.5 70.5t46.5 59t67.5 41
t92.5 15.5q31 0 62 -5.5t55.5 -21.5t39.5 -45t15 -75zM163 266q1 -27 5 -63t17.5 -68t39 -54t69.5 -22q60 0 90 37.5t30 103.5q0 63 -23.5 95.5t-80.5 32.5q-22 0 -44 -6.5t-41.5 -16t-35.5 -20.5t-26 -19z" />
    <glyph glyph-name="seven.tosf" 
d="M183 -67q9 102 33.5 189t57.5 157.5t69 124.5t68 90h-257q-8 0 -10.5 -2t-4.5 -9l-18 -91l-63 -4v181h455v-65q-43 -44 -83.5 -105.5t-73 -135.5t-54 -158t-27.5 -172h-92z" />
    <glyph glyph-name="eight.tosf" 
d="M383 333q24 -14 45 -29.5t37 -35.5t25.5 -45t9.5 -57q0 -44 -17 -77.5t-47 -56t-71 -33.5t-89 -11q-46 0 -83.5 10.5t-64.5 31.5t-42 52t-15 72q0 31 9.5 57.5t26 49t38.5 42t46 36.5q-20 12 -37 26t-30 32t-20 40t-7 50q0 39 15.5 69.5t42 50.5t62 30.5t74.5 10.5
q93 0 141.5 -42t48.5 -107q0 -25 -9 -49t-23 -45t-31.5 -39.5t-34.5 -32.5zM257 306q-49 -35 -75 -71t-26 -75q0 -49 35.5 -76t95.5 -27q57 0 90 29t33 74q0 30 -12.5 51.5t-33.5 38t-49 29.5t-58 27zM317 366q32 29 55.5 60t23.5 69q0 24 -8.5 40t-23.5 25.5t-34.5 14
t-40.5 4.5q-45 0 -74 -21.5t-29 -61.5q0 -25 11 -43.5t29 -33.5t41.5 -28t49.5 -25z" />
    <glyph glyph-name="nine.tosf" 
d="M122 46q31 -27 67.5 -40.5t75.5 -13.5q50 0 79.5 24t45 59t20 75t5.5 72q-26 -23 -67.5 -41t-98.5 -18q-91 0 -136.5 53.5t-45.5 149.5q0 99 56 158.5t162 59.5q70 0 113 -27t67 -72t32.5 -104t8.5 -124q0 -55 -8 -115t-33 -110t-72.5 -82.5t-125.5 -32.5
q-52 0 -103.5 15.5t-86.5 49.5zM411 297q-2 32 -5.5 70t-17 70.5t-39.5 54t-71 21.5q-60 0 -90 -37.5t-30 -103.5t24.5 -103t81.5 -37q24 0 46 6.5t41 16t34 21t26 21.5z" />
    <glyph glyph-name="dollar.tosf" 
d="M490 176q0 -76 -44.5 -118.5t-122.5 -53.5v-84h-71v80q-60 2 -111 13.5t-77 23.5v140h66l16 -69q2 -11 6 -15.5t16 -9.5q11 -5 33 -9.5t51 -6.5v213q-32 9 -62.5 20t-54.5 30t-38.5 47.5t-14.5 72.5q0 41 13 71.5t35.5 52.5t54 34.5t67.5 17.5v74h71v-72q51 -2 91 -12.5
t68 -19.5v-152l-67 7l-16 77q-2 11 -6 15.5t-14 7.5q-22 7 -56 9v-215q31 -9 61 -21t53.5 -31t38 -47t14.5 -70zM167 463q0 -40 24 -61t61 -35v189q-40 -8 -62.5 -32t-22.5 -61zM403 165q0 38 -22.5 58.5t-57.5 34.5v-186q42 10 61 35t19 58z" />
    <glyph glyph-name="Euro.tosf" 
d="M170 348v-18v-26.5t1 -24.5h185l-12 -62h-165q31 -156 160 -156q20 0 40 2.5t31 7.5q8 2 10 6.5t3 10.5l13 74l64 4v-145q-9 -5 -26 -10.5t-39 -10.5t-48 -8.5t-53 -3.5q-216 0 -251 229h-84l12 62h66q-1 8 -1 17v19v16.5t1 16.5h-57l12 62h52q11 61 35 106t58.5 74
t77 43.5t89.5 14.5q54 0 95.5 -11.5t61.5 -22.5v-145l-64 4l-13 74q-2 7 -4 10.5t-10 6.5q-11 4 -28.5 7t-41.5 3q-61 0 -105 -39t-59 -125h201l-12 -62h-195z" />
    <glyph glyph-name="cent.tosf" 
d="M351 103q17 2 31.5 4t22.5 4q6 2 7.5 5t2.5 10l12 65l63 3v-131q-19 -9 -55 -19t-84 -12v-99h-71v102q-90 12 -142 71t-52 174q0 56 14 99t39.5 74t61.5 49.5t79 25.5v103h71v-99q49 -2 83 -12t54 -19v-131l-63 3l-11 63q-2 7 -3.5 10.5t-8.5 5.5q-8 2 -21.5 4.5
t-29.5 3.5v-357zM182 286q0 -77 25.5 -120t72.5 -57v344q-46 -14 -72 -54.5t-26 -112.5z" />
    <glyph glyph-name="sterling.tosf" 
d="M67 0l-13 59q28 22 43.5 43.5t23 47t8.5 57.5t1 76v14h-80v71h80v63q0 45 10.5 84.5t35.5 69t66 46.5t103 17q34 0 65 -5.5t55 -21.5t38.5 -45t14.5 -75l-84 -12q0 50 -21.5 67t-68.5 17q-63 0 -92.5 -34.5t-29.5 -112.5v-58h181v-71h-181q0 -39 -1 -70.5t-7 -59
t-19 -51.5t-37 -48h263q8 0 10.5 2t4.5 9l16 85h66v-164h-451z" />
    <glyph glyph-name="yen.tosf" 
d="M330 294v-57h133v-62h-133v-93q0 -12 2.5 -15.5t13.5 -4.5l99 -8v-54h-318v54l89 7q16 2 19 6t3 15v93h-132v62h132v57h-132v62h93l-128 189q-5 8 -10.5 12.5t-14.5 6.5l-45 11l10 54h218v-54l-71 -9l128 -201l128 201l-70 9l10 54h203v-54l-42 -11q-9 -2 -14.5 -6.5
t-10.5 -12.5l-124 -189h97v-62h-133z" />
    <glyph glyph-name="florin.tosf" 
d="M297 311l-39 -227q-8 -45 -21 -78t-33 -54.5t-49.5 -32t-70.5 -10.5q-18 0 -37.5 3.5t-37 8.5t-32 12t-23.5 14l28 62q17 -11 46 -21t57 -10q34 0 53.5 18.5t27.5 65.5l42 239q1 5 0.5 7.5t-6.5 2.5h-93l12 67h101l19 100q8 42 20.5 74t33.5 53t51 32t73 11
q48 0 81.5 -11.5t51.5 -21.5l-22 -128l-61 4l-1 67q0 5 -1.5 9t-7.5 6q-8 3 -18 5t-27 2q-22 0 -36.5 -7t-24.5 -20.5t-16.5 -32.5t-10.5 -42l-16 -90q-1 -5 0 -7.5t7 -2.5h141l-12 -67h-149z" />
    <glyph glyph-name="idotaccent" horiz-adv-x="297" 
d="M204 689q0 -64 -64 -64q-31 0 -48 16.5t-17 47.5q0 30 17 46.5t48 16.5t47.5 -16.5t16.5 -46.5zM26 0v55l66 6q11 1 13.5 5t2.5 15v340q0 17 -13 21l-57 19l9 53h152v-433q0 -12 2.5 -15t13.5 -5l64 -7v-54h-253z" />
    <glyph glyph-name="s_p" horiz-adv-x="1049" 
d="M493 -212v55l41 6q11 2 14 5.5t3 14.5v825q-11 5 -27.5 6.5t-29.5 1.5q-31 0 -49.5 -10t-28 -29t-12.5 -45.5t-3 -59.5q0 -24 1 -51.5t2.5 -53t3 -48.5t2.5 -38l-67 4l-11 62q-2 11 -25 17.5t-65 6.5q-54 0 -79.5 -21t-25.5 -54q0 -30 21.5 -45.5t53.5 -26t69.5 -19.5
t69.5 -25t53.5 -43.5t21.5 -74.5q0 -45 -16.5 -76t-44.5 -49.5t-64.5 -26.5t-76.5 -8q-32 0 -62 4t-54.5 9t-42 11t-24.5 10v127l67 -4l11 -63q2 -8 28 -19t83 -11q53 0 81 19t28 62q0 33 -21.5 49.5t-53 26.5t-69 17.5t-69 23t-53 42.5t-21.5 76q0 42 16.5 71.5t44 48.5
t63 27.5t73.5 8.5q24 0 43.5 -2t37.5 -6q-2 18 -2.5 43.5t-0.5 44.5q0 33 7.5 63t26.5 52.5t51.5 35.5t81.5 13q32 0 72 -4t76 -10v-291l3 -1q41 31 79 46.5t89 15.5q42 0 76.5 -14t59.5 -44t38.5 -77t13.5 -113q0 -56 -10.5 -108t-34.5 -92t-64 -64t-99 -24q-43 0 -80 12
t-72 43v-173q0 -12 2.5 -15.5t13.5 -4.5l94 -8v-54h-258zM643 128q26 -25 60.5 -45t74.5 -20q71 0 101 55t30 150q0 51 -9.5 85.5t-25 55t-36.5 29.5t-44 9q-24 0 -46.5 -6.5t-42 -16t-35.5 -20t-27 -19.5v-257z" />
    <glyph glyph-name="c_t" horiz-adv-x="902" 
d="M455 30q-29 -19 -75 -30.5t-96 -11.5q-64 0 -110 19t-76 53.5t-44 83t-14 107.5q0 71 19.5 122.5t54.5 85t83 49.5t105 16q43 0 73 -8q-1 7 -1 14v14q0 33 6.5 61.5t24 48.5t47 31.5t76.5 11.5q38 0 80.5 -5t78.5 -11v-157q0 -5 1 -7.5t7 -2.5h147v-69h-155v-294
q0 -47 15 -67.5t59 -20.5q26 0 49.5 6t43.5 14l21 -63q-34 -15 -70.5 -23.5t-74.5 -8.5q-39 0 -64.5 10.5t-41 29.5t-22 46t-6.5 60v302q0 9 -8 9h-58v69h66v107q-11 5 -31.5 7.5t-39.5 2.5q-24 0 -39.5 -8t-23.5 -22.5t-11 -35t-3 -44.5q0 -37 2 -78.5t5 -82.5l-68 3
l-12 66q-1 5 -3 8.5t-9 5.5q-11 4 -29 6.5t-39 2.5q-33 0 -62.5 -10.5t-51 -33.5t-34 -60t-12.5 -91q0 -53 12 -89.5t33.5 -60t51.5 -34t66 -10.5q38 0 72.5 10t55.5 23z" />
    <glyph glyph-name="c_h" horiz-adv-x="1108" 
d="M676 458q35 25 79 45.5t101 20.5q81 0 117.5 -48.5t36.5 -133.5v-261q0 -12 2.5 -15t13.5 -5l57 -7v-54h-230v55l48 6q18 1 18 20v233q0 28 -3 52t-12 42t-25.5 28.5t-43.5 10.5q-23 0 -45 -6t-42 -15t-38 -20.5t-33 -23.5v-301q0 -12 2.5 -15t13.5 -5l56 -7v-54h-229v55
l49 6q11 2 13.5 5.5t2.5 14.5v614q-14 3 -30.5 5t-31.5 2q-27 0 -43.5 -8t-25.5 -23.5t-12.5 -38.5t-3.5 -53q0 -45 5.5 -101t11.5 -118l-68 3l-11 62q-2 8 -6 12t-13 7q-24 8 -63 8q-32 0 -61 -10.5t-50.5 -33.5t-34 -59.5t-12.5 -88.5q0 -53 11.5 -90.5t32.5 -61t50 -34.5
t64 -11q42 0 74 9t58 24l29 -66q-29 -19 -75 -30.5t-95 -11.5q-65 0 -111.5 19.5t-76 54.5t-43.5 84t-14 108q0 69 19.5 120t54 84.5t82.5 49.5t104 16q37 0 66 -7q-2 20 -3 39.5t-1 35.5q0 34 6 65.5t23 56t49 39t83 14.5q35 0 76.5 -4t76.5 -9v-296z" />
    <glyph glyph-name="c_k" horiz-adv-x="1068" 
d="M822 0v54l63 8l-125 207l-84 -94v-94q0 -12 2.5 -15t13.5 -5l60 -7v-54h-245v55l62 6q11 1 13.5 5t2.5 15v614q-14 3 -30.5 5t-31.5 2q-27 0 -43.5 -8t-25.5 -23.5t-12.5 -38.5t-3.5 -53q0 -45 5.5 -101t11.5 -118l-68 3l-11 62q-2 8 -6 12t-13 7q-24 8 -63 8
q-32 0 -61 -10.5t-50.5 -33.5t-34 -59.5t-12.5 -88.5q0 -53 11.5 -90.5t32.5 -61t50 -34.5t64 -11q42 0 74 9t58 24l29 -66q-29 -19 -75 -30.5t-95 -11.5q-65 0 -111.5 19.5t-76 54.5t-43.5 84t-14 108q0 69 19.5 120t54 84.5t82.5 49.5t104 16q37 0 66 -7q-2 20 -3 39.5
t-1 35.5q0 34 6 65.5t23 56t49 39t83 14.5q35 0 76.5 -4t76.5 -9v-480l212 240h111v-54l-57 -12q-9 -2 -13.5 -4.5t-11.5 -10.5l-91 -102l152 -252q6 -9 11 -11.5t18 -4.5l52 -9v-54h-237z" />
    <glyph glyph-name="T_h" horiz-adv-x="1131" 
d="M877 0v55l48 6q18 1 18 20v233q0 28 -3 52t-12 42t-25.5 28.5t-43.5 10.5q-23 0 -45 -6t-42 -15t-38 -20.5t-33 -23.5v-301q0 -12 2.5 -15t13.5 -5l56 -7v-54h-229v55l50 6q11 2 13.5 5.5t2.5 14.5v572h-239v-571q0 -11 2.5 -14.5t13.5 -4.5l110 -8v-55h-337v55l103 7
q11 1 13.5 5t2.5 15v571h-155q-8 0 -11 -1.5t-5 -9.5l-16 -87h-67v169h575q13 0 14 11l3 20h82v-297q35 25 79.5 45.5t101.5 20.5q81 0 117.5 -48.5t36.5 -133.5v-261q0 -12 2.5 -15t13.5 -5l57 -7v-54h-230z" />
    <glyph glyph-name="commaaccent" horiz-adv-x="500" 
d="M203 -252l22 87q3 8 -5 11l-34 14l22 80q23 -1 42.5 -3.5t33.5 -9t21.5 -18.5t7.5 -32q0 -14 -5 -28.5t-12 -27.5l-47 -89z" />
    <glyph glyph-name="revcommaaccent" horiz-adv-x="500" 
d="M292 566q-49 1 -77 12.5t-28 50.5q0 17 8 35t16 34l40 76l46 -16l-22 -83q-2 -8 -1.5 -11t7.5 -6l32 -13z" />
    <glyph glyph-name="caron.alt" horiz-adv-x="500" 
d="M202 566q7 23 13 48.5t6 54.5q0 24 -4.5 39.5t-9.5 24.5l69 30q12 -14 18 -26t6 -29q0 -9 -1.5 -20.5t-6.5 -25.5q-8 -29 -20 -57t-24 -53z" />
    <glyph glyph-name="tilde.cap" horiz-adv-x="500" 
d="M402 832q-18 -27 -32 -38.5t-32 -11.5q-19 0 -43 7q-35 9 -70.5 19t-52.5 14q-10 1 -16 -5l-39 -38l-42 30l29 44q15 23 29 32.5t31 9.5q9 0 19 -2t23 -5q16 -4 34.5 -9t36 -9.5t32 -8.5t21.5 -5q9 -3 15 3l36 37l44 -29z" />
    <glyph glyph-name="ring.cap" horiz-adv-x="500" 
d="M350 826q0 -45 -27 -71t-72 -26t-72 25t-27 69q0 48 28.5 73t70.5 25t70.5 -23.5t28.5 -71.5zM251 780q42 0 42 46q0 23 -11 33.5t-31 10.5t-31.5 -11t-11.5 -35q0 -44 43 -44z" />
    <glyph glyph-name="circumflex.cap" horiz-adv-x="500" 
d="M250 849l-119 -83l-40 41l117 102h84l117 -102l-40 -41z" />
    <glyph glyph-name="acute.cap" horiz-adv-x="500" 
d="M163 766l-29 46l188 129l45 -74z" />
    <glyph glyph-name="grave.cap" horiz-adv-x="500" 
d="M135 867l46 73l188 -128l-30 -47z" />
    <glyph glyph-name="dieresis.cap" horiz-adv-x="500" 
d="M204 837q0 -26 -15 -40.5t-41 -14.5q-25 0 -40.5 14.5t-15.5 40.5q0 25 15.5 39.5t40.5 14.5q26 0 41 -14.5t15 -39.5zM406 837q0 -26 -15 -40.5t-41 -14.5t-41 14.5t-15 40.5q0 25 15 39.5t41 14.5t41 -14.5t15 -39.5z" />
    <glyph glyph-name="caron.cap" horiz-adv-x="500" 
d="M292 777h-84l-117 102l40 41l119 -83l119 83l41 -41z" />
    <glyph glyph-name="macron.cap" horiz-adv-x="500" 
d="M96 794v69h307v-69h-307z" />
    <glyph glyph-name="dotaccent.cap" horiz-adv-x="500" 
d="M315 845q0 -30 -17 -46.5t-48 -16.5t-47.5 16.5t-16.5 46.5q0 63 64 63q31 0 48 -16t17 -47z" />
    </font>
</defs>
</svg>
