<?xml version="1.0" standalone="no"?>
<!DOCTYPE svg PUBLIC "-//W3C//DTD SVG 1.1//EN" "http://www.w3.org/Graphics/SVG/1.1/DTD/svg11.dtd" >
<svg xmlns="http://www.w3.org/2000/svg" xmlns:xlink="http://www.w3.org/1999/xlink" version="1.1">
<metadata>
Created by FontForge 20161003 at Wed Jan 16 19:46:15 2019
 By www-data
Copyright (c) 2011 by TypeTogether. All rights reserved.
</metadata>
<defs>
<font id="AdelleSansSageLightItalic" horiz-adv-x="570" >
  <font-face 
    font-family="AdelleSansSageLightItalic"
    font-weight="300"
    font-style="italic"
    font-stretch="normal"
    units-per-em="1000"
    panose-1="2 0 5 3 0 0 0 2 0 4"
    ascent="755"
    descent="-245"
    x-height="511"
    cap-height="724"
    bbox="-199 -288 1176 1076"
    underline-thickness="50"
    underline-position="-150"
    slope="-8"
    unicode-range="U+0020-FB06"
  />
<missing-glyph horiz-adv-x="500" 
 />
    <glyph glyph-name="ij" unicode="ij" horiz-adv-x="478" 
d="M114 0h-67l72 511h67zM232 687q0 -29 -16.5 -45.5t-45.5 -16.5q-47 0 -47 44q0 29 16.5 45.5t45.5 16.5q47 0 47 -44zM358 511h67l-84 -593q-11 -75 -44.5 -108t-99.5 -33q-9 0 -22 1.5t-25.5 4t-24 5.5t-17.5 7l16 53q16 -6 35 -10t36 -4q32 0 52 18t27 65zM470 687
q0 -29 -16.5 -45.5t-45.5 -16.5q-47 0 -47 44q0 29 16.5 45.5t45.5 16.5q47 0 47 -44z" />
    <glyph glyph-name="ff" unicode="ff" horiz-adv-x="620" 
d="M700 694q-14 5 -34 9t-38 4q-35 0 -60 -19.5t-33 -73.5l-14 -103h145l-8 -53h-145l-94 -670h-67l94 670h-250l-94 -670h-67l94 670h-78l8 53h78l13 93q23 160 160 160q28 0 49.5 -5t33.5 -11l-10 -54q-14 5 -34 9t-38 4q-35 0 -60 -19.5t-33 -73.5l-14 -103h250l13 93
q23 160 160 160q28 0 49.5 -5t33.5 -11z" />
    <glyph glyph-name="fi" unicode="fi" horiz-adv-x="574" 
d="M449 0h-67l64 458h-250l-94 -670h-67l94 670h-78l8 53h78l13 93q23 160 160 160q28 0 49.5 -5t33.5 -11l-10 -54q-14 5 -34 9t-38 4q-35 0 -60 -19.5t-33 -73.5l-14 -103h317zM567 687q0 -29 -16.5 -45.5t-45.5 -16.5q-47 0 -47 44q0 29 16.5 45.5t45.5 16.5q47 0 47 -44
z" />
    <glyph glyph-name="fl" unicode="fl" horiz-adv-x="574" 
d="M383 694q-14 5 -34 9t-38 4q-35 0 -60 -19.5t-33 -73.5l-14 -103h145l-8 -53h-145l-94 -670h-67l94 670h-78l8 53h78l13 93q23 160 160 160q28 0 49.5 -5t33.5 -11zM488 755h67l-106 -755h-67z" />
    <glyph glyph-name="ffi" unicode="ffi" horiz-adv-x="893" 
d="M768 0h-67l64 458h-250l-94 -670h-67l94 670h-252l-94 -670h-67l94 670h-78l8 53h78l13 93q23 160 160 160q28 0 49.5 -5t33.5 -11l-10 -54q-14 5 -34 9t-38 4q-35 0 -60 -19.5t-33 -73.5l-14 -103h252l13 93q23 160 160 160q28 0 49.5 -5t33.5 -11l-10 -54q-14 5 -34 9
t-38 4q-35 0 -60 -19.5t-33 -73.5l-14 -103h317zM886 687q0 -29 -16.5 -45.5t-45.5 -16.5q-47 0 -47 44q0 29 16.5 45.5t45.5 16.5q47 0 47 -44z" />
    <glyph glyph-name="ffl" unicode="ffl" horiz-adv-x="891" 
d="M700 694q-14 5 -34 9t-38 4q-35 0 -60 -19.5t-33 -73.5l-14 -103h145l-8 -53h-145l-94 -670h-67l94 670h-250l-94 -670h-67l94 670h-78l8 53h78l13 93q23 160 160 160q28 0 49.5 -5t33.5 -11l-10 -54q-14 5 -34 9t-38 4q-35 0 -60 -19.5t-33 -73.5l-14 -103h250l13 93
q23 160 160 160q28 0 49.5 -5t33.5 -11zM805 755h67l-106 -755h-67z" />
    <glyph glyph-name="f_k" unicode="fk" horiz-adv-x="840" 
d="M383 694q-14 5 -34 9t-38 4q-35 0 -60 -19.5t-33 -73.5l-14 -103h145l-8 -53h-145l-94 -670h-67l94 670h-78l8 53h78l13 93q23 160 160 160q28 0 49.5 -5t33.5 -11zM708 0l-129 278l-103 -92l-26 -186h-67l106 755h67l-68 -485l268 241h84l-206 -185l147 -326h-73z" />
    <glyph glyph-name="f_b" unicode="fb" horiz-adv-x="914" 
d="M382 0l106 755h66l-45 -315q20 15 41.5 29.5t45.5 26t50 18.5t56 7q34 0 63 -10.5t49 -33.5t31.5 -60t11.5 -89q0 -89 -21 -153.5t-55.5 -106t-79 -61t-90.5 -19.5t-85 15t-73 41l-9 -44h-62zM464 106q8 -7 21.5 -17t31.5 -19.5t40.5 -16t49.5 -6.5q51 0 86 24.5t56.5 64
t30.5 89.5t9 101q0 75 -24.5 106t-72.5 31q-25 0 -52.5 -9t-53.5 -22.5t-48 -28.5t-36 -28zM383 694q-14 5 -34 9t-38 4q-35 0 -60 -19.5t-33 -73.5l-14 -103h145l-8 -53h-145l-94 -670h-67l94 670h-78l8 53h78l13 93q23 160 160 160q28 0 49.5 -5t33.5 -11z" />
    <glyph glyph-name="f_h" unicode="fh" horiz-adv-x="913" 
d="M383 694q-14 5 -34 9t-38 4q-35 0 -60 -19.5t-33 -73.5l-14 -103h145l-8 -53h-145l-94 -670h-67l94 670h-78l8 53h78l13 93q23 160 160 160q28 0 49.5 -5t33.5 -11zM449 0h-67l106 755h67l-47 -318q15 13 36.5 27.5t47 27t54.5 21t59 8.5q77 0 112 -43.5t23 -132.5
l-48 -345h-67l48 341q9 64 -11 93.5t-66 29.5q-28 0 -53.5 -7.5t-49.5 -20t-46.5 -28.5t-44.5 -33z" />
    <glyph glyph-name="f_t" unicode="ft" horiz-adv-x="686" 
d="M637 18q-21 -13 -53 -21.5t-63 -8.5q-69 0 -100.5 32.5t-20.5 104.5l47 333h-251l-94 -670h-67l94 670h-78l8 53h78l13 93q23 160 160 160q28 0 49.5 -5t33.5 -11l-10 -54q-14 5 -34 9t-38 4q-35 0 -60 -19.5t-33 -73.5l-14 -103h250l21 147l68 10l-22 -157h143l-7 -53
h-143l-46 -324q-3 -22 -3 -39t6.5 -29t20.5 -18.5t39 -6.5q26 0 52 8.5t44 18.5z" />
    <glyph glyph-name="f_j" unicode="fj" horiz-adv-x="574" 
d="M383 694q-14 5 -34 9t-38 4q-35 0 -60 -19.5t-33 -73.5l-14 -103h317l-84 -593q-11 -75 -44.5 -108t-99.5 -33q-9 0 -22 1.5t-25.5 4t-24 5.5t-17.5 7l16 53q16 -6 35 -10t36 -4q32 0 52 18t27 65l76 541h-250l-94 -670h-67l94 670h-78l8 53h78l13 93q23 160 160 160
q28 0 49.5 -5t33.5 -11zM566 687q0 -29 -16.5 -45.5t-45.5 -16.5q-47 0 -47 44q0 29 16.5 45.5t45.5 16.5q47 0 47 -44z" />
    <glyph glyph-name="f_f_j" unicode="ffj" horiz-adv-x="893" 
d="M765 458h-250l-94 -670h-67l94 670h-252l-94 -670h-67l94 670h-78l8 53h78l13 93q23 160 160 160q28 0 49.5 -5t33.5 -11l-10 -54q-14 5 -34 9t-38 4q-35 0 -60 -19.5t-33 -73.5l-14 -103h252l13 93q23 160 160 160q28 0 49.5 -5t33.5 -11l-10 -54q-14 5 -34 9t-38 4
q-35 0 -60 -19.5t-33 -73.5l-14 -103h317l-84 -593q-11 -75 -44.5 -108t-99.5 -33q-9 0 -22 1.5t-25.5 4t-24 5.5t-17.5 7l16 53q16 -6 35 -10t36 -4q32 0 52 18t27 65zM885 687q0 -29 -16.5 -45.5t-45.5 -16.5q-47 0 -47 44q0 29 16.5 45.5t45.5 16.5q47 0 47 -44z" />
    <glyph glyph-name="f_f_k" unicode="ffk" horiz-adv-x="1158" 
d="M701 694q-14 5 -34 9t-38 4q-35 0 -60 -19.5t-33 -73.5l-14 -103h145l-8 -53h-145l-94 -670h-67l94 670h-251l-94 -670h-67l94 670h-78l8 53h78l13 93q23 160 160 160q28 0 49.5 -5t33.5 -11l-10 -54q-14 5 -34 9t-38 4q-35 0 -60 -19.5t-33 -73.5l-14 -103h251l13 93
q23 160 160 160q28 0 49.5 -5t33.5 -11zM1026 0l-129 278l-103 -92l-26 -186h-67l106 755h67l-68 -485l268 241h84l-206 -185l147 -326h-73z" />
    <glyph glyph-name="f_f_b" unicode="ffb" horiz-adv-x="1233" 
d="M701 0l106 755h66l-45 -315q20 15 41.5 29.5t45.5 26t50 18.5t56 7q34 0 63 -10.5t49 -33.5t31.5 -60t11.5 -89q0 -89 -21 -153.5t-55.5 -106t-79 -61t-90.5 -19.5t-85 15t-73 41l-9 -44h-62zM702 694q-14 5 -34 9t-38 4q-35 0 -60 -19.5t-33 -73.5l-14 -103h145l-8 -53
h-145l-94 -670h-67l94 670h-252l-94 -670h-67l94 670h-78l8 53h78l13 93q23 160 160 160q28 0 49.5 -5t33.5 -11l-10 -54q-14 5 -34 9t-38 4q-35 0 -60 -19.5t-33 -73.5l-14 -103h252l13 93q23 160 160 160q28 0 49.5 -5t33.5 -11zM783 106q8 -7 21.5 -17t31.5 -19.5
t40.5 -16t49.5 -6.5q51 0 86 24.5t56.5 64t30.5 89.5t9 101q0 75 -24.5 106t-72.5 31q-25 0 -52.5 -9t-53.5 -22.5t-48 -28.5t-36 -28z" />
    <glyph glyph-name="f_f_h" unicode="ffh" horiz-adv-x="1230" 
d="M700 694q-14 5 -34 9t-38 4q-35 0 -60 -19.5t-33 -73.5l-14 -103h145l-8 -53h-145l-94 -670h-67l94 670h-250l-94 -670h-67l94 670h-78l8 53h78l13 93q23 160 160 160q28 0 49.5 -5t33.5 -11l-10 -54q-14 5 -34 9t-38 4q-35 0 -60 -19.5t-33 -73.5l-14 -103h250l13 93
q23 160 160 160q28 0 49.5 -5t33.5 -11zM766 0h-67l106 755h67l-47 -318q15 13 36.5 27.5t47 27t54.5 21t59 8.5q77 0 112 -43.5t23 -132.5l-48 -345h-67l48 341q9 64 -11 93.5t-66 29.5q-28 0 -53.5 -7.5t-49.5 -20t-46.5 -28.5t-44.5 -33z" />
    <glyph glyph-name="f_f_t" unicode="fft" horiz-adv-x="1003" 
d="M954 18q-21 -13 -53 -21.5t-63 -8.5q-69 0 -100.5 32.5t-20.5 104.5l47 333h-251l-94 -670h-67l94 670h-250l-94 -670h-67l94 670h-78l8 53h78l13 93q23 160 160 160q28 0 49.5 -5t33.5 -11l-10 -54q-14 5 -34 9t-38 4q-35 0 -60 -19.5t-33 -73.5l-14 -103h250l13 93
q23 160 160 160q28 0 49.5 -5t33.5 -11l-10 -54q-14 5 -34 9t-38 4q-35 0 -60 -19.5t-33 -73.5l-14 -103h250l21 147l68 10l-22 -157h143l-7 -53h-143l-46 -324q-3 -22 -3 -39t6.5 -29t20.5 -18.5t39 -6.5q26 0 52 8.5t44 18.5z" />
    <glyph glyph-name="f_iacute" unicode="f&#xed;" horiz-adv-x="583" 
d="M458 0h-67l64 458h-259l-94 -670h-67l94 670h-78l8 53h78l13 93q23 160 160 160q28 0 49.5 -5t33.5 -11l-10 -54q-14 5 -34 9t-38 4q-35 0 -60 -19.5t-33 -73.5l-14 -103h326zM576 749h93l-167 -177l-50 13z" />
    <glyph glyph-name="t_t" unicode="tt" horiz-adv-x="668" 
d="M619 18q-21 -13 -53 -21.5t-63 -8.5q-69 0 -100.5 32.5t-20.5 104.5l47 333h-232l-46 -324q-3 -22 -3 -39t6.5 -29t20.5 -18.5t39 -6.5q26 0 52 8.5t44 18.5l10 -50q-21 -13 -53 -21.5t-63 -8.5q-69 0 -100.5 32.5t-20.5 104.5l47 333h-80l7 53h80l21 147l68 10l-22 -157
h232l21 147l68 10l-22 -157h143l-7 -53h-143l-46 -324q-3 -22 -3 -39t6.5 -29t20.5 -18.5t39 -6.5q26 0 52 8.5t44 18.5z" />
    <glyph glyph-name=".notdef" horiz-adv-x="500" 
 />
    <glyph glyph-name=".null" horiz-adv-x="0" 
 />
    <glyph glyph-name="nonmarkingreturn" horiz-adv-x="500" 
 />
    <glyph glyph-name="space" unicode=" " horiz-adv-x="230" 
 />
    <glyph glyph-name="exclam" unicode="!" horiz-adv-x="255" 
d="M82 183l59 541h77l-91 -541h-45zM145 55q0 -33 -17.5 -50t-49.5 -17q-51 0 -51 47q0 33 17.5 50t49.5 17q51 0 51 -47z" />
    <glyph glyph-name="quotedbl" unicode="&#x22;" horiz-adv-x="359" 
d="M227 465l36 259h72l-36 -259h-72zM69 465l36 259h72l-36 -259h-72z" />
    <glyph glyph-name="numbersign" unicode="#" horiz-adv-x="607" 
d="M273 0l43 146h-135l-43 -146h-59l42 146h-121l20 52h117l48 162h-121l20 53h117l37 130h60l-38 -130h133l37 130h60l-38 -130h121l-19 -53h-118l-46 -162h119l-18 -52h-116l-43 -146h-59zM377 360h-133l-48 -162h135z" />
    <glyph glyph-name="dollar" unicode="$" horiz-adv-x="521" 
d="M187 5q-90 7 -131 55.5t-44 132.5l61 10q2 -27 8 -52.5t19 -45.5t35.5 -33t58.5 -16l40 283q-29 10 -56.5 21.5t-49.5 30.5t-35 46.5t-13 69.5q0 45 15.5 80.5t43 61.5t65.5 41.5t82 18.5l12 83h56l-12 -84q34 -4 61.5 -16.5t46.5 -35t29 -56.5t9 -80l-60 -7
q-1 24 -4.5 47.5t-13 43.5t-28 33.5t-48.5 17.5l-38 -270q29 -10 57.5 -22t51 -30.5t36 -45.5t13.5 -67q0 -54 -17 -93t-46.5 -65t-67.5 -40t-80 -17l-12 -85h-56zM388 205q0 25 -8 43t-21.5 31.5t-32 23t-39.5 17.5l-37 -262q26 4 50.5 13.5t44 26.5t31.5 43.5t12 63.5z
M145 516q0 -24 7.5 -41.5t21 -30.5t31 -22.5t38.5 -17.5l35 250q-36 -5 -61.5 -18t-41 -31.5t-23 -41.5t-7.5 -47z" />
    <glyph glyph-name="percent" unicode="%" horiz-adv-x="795" 
d="M214 374q-38 0 -64.5 12t-43 32.5t-24.5 48t-8 59.5q0 43 12 81.5t36 67t59 45.5t81 17q72 0 105.5 -40t33.5 -112q0 -43 -11 -81t-34 -67t-58.5 -46t-83.5 -17zM218 426q44 0 67.5 19.5t34.5 45t13 51.5t2 40q0 45 -16.5 73.5t-60.5 28.5q-35 0 -57.5 -15t-36 -38.5
t-19 -52t-5.5 -56.5q0 -40 16.5 -68t61.5 -28zM98 -17l543 741h65l-542 -741h-66zM553 -12q-38 0 -64.5 12t-43 32.5t-24.5 48t-8 59.5q0 43 12 81.5t36 67t59 45.5t81 17q72 0 105.5 -40t33.5 -112q0 -43 -11 -81t-34 -67t-58.5 -46t-83.5 -17zM557 40q44 0 67.5 19.5
t34.5 45t13 51.5t2 40q0 45 -16.5 73.5t-60.5 28.5q-35 0 -57.5 -15t-36 -38.5t-19 -52t-5.5 -56.5q0 -40 16.5 -68t61.5 -28z" />
    <glyph glyph-name="ampersand" unicode="&#x26;" horiz-adv-x="680" 
d="M506 586q0 -47 -17.5 -80.5t-47.5 -58.5t-70.5 -44t-86.5 -36q12 -27 30 -60t39 -66.5t42.5 -64.5t39.5 -53q35 39 56.5 93.5t32.5 119.5h60q-11 -69 -37 -136t-74 -118q21 -20 41.5 -31t46.5 -11q24 0 51 12l9 -46q-15 -10 -34.5 -14t-35.5 -4q-42 0 -70.5 15t-55.5 40
q-37 -26 -83.5 -40.5t-104.5 -14.5q-43 0 -78.5 12.5t-60.5 35t-38.5 53.5t-13.5 69q0 81 42 135.5t119 94.5q-9 24 -15 49t-6 66q0 45 14.5 80.5t40 61t61 39t76.5 13.5q25 0 48 -6.5t41 -20t28.5 -34.5t10.5 -50zM225 340q-23 -12 -43.5 -28t-35.5 -36t-24 -46.5t-9 -59.5
q0 -26 7 -49t23.5 -40.5t43 -27.5t64.5 -10q35 0 68.5 11.5t66.5 31.5q-59 67 -97.5 133.5t-63.5 120.5zM253 510q0 -23 3.5 -49t11.5 -50q47 19 80 36t54 35t30.5 39.5t9.5 49.5q0 31 -17.5 52t-55.5 21q-49 0 -82.5 -34t-33.5 -100z" />
    <glyph glyph-name="quotesingle" unicode="'" horiz-adv-x="201" 
d="M69 465l36 259h72l-36 -259h-72z" />
    <glyph glyph-name="parenleft" unicode="(" horiz-adv-x="299" 
d="M140 -152q-34 69 -61 159t-27 196q0 82 20 156t51.5 139t70.5 122t78 104h69q-53 -69 -94 -132.5t-69 -126.5t-43 -128.5t-15 -137.5q0 -100 24.5 -186t62.5 -166z" />
    <glyph glyph-name="parenright" unicode=")" horiz-adv-x="299" 
d="M140.009 722.99q33.998 -68.9951 60.9961 -158.99q26.998 -89.9941 26.998 -195.987q0 -81.9951 -19.999 -155.991q-19.998 -73.9951 -51.4961 -138.991t-70.4961 -121.992q-38.9971 -56.9971 -77.9951 -103.994h-68.9961q52.9971 68.9961 93.9941 132.492
q40.998 63.4961 68.9961 126.492t42.9971 128.492q15 65.4961 15 137.491q0 99.9941 -24.499 185.989q-24.498 85.9941 -62.4961 165.989z" />
    <glyph glyph-name="asterisk" unicode="*" horiz-adv-x="468" 
d="M309 610l137 34l6 -30l-133 -62l65 -126l-28 -19l-92 100l-124 -102l-24 20l99 128l-118 60l15 30l131 -33l39 145h30z" />
    <glyph glyph-name="plus" unicode="+" horiz-adv-x="569" 
d="M216 131l22 157h-152l9 66h152l22 154h69l-22 -154h152l-9 -66h-152l-22 -157h-69z" />
    <glyph glyph-name="comma" unicode="," horiz-adv-x="217" 
d="M58 93h79l-110 -218l-52 8z" />
    <glyph glyph-name="hyphen" unicode="-" horiz-adv-x="320" 
d="M20 262l9 67h271l-9 -67h-271z" />
    <glyph glyph-name="period" unicode="." horiz-adv-x="215" 
d="M133 55q0 -33 -17.5 -50t-49.5 -17q-51 0 -51 47q0 33 17.5 50t49.5 17q51 0 51 -47z" />
    <glyph glyph-name="slash" unicode="/" horiz-adv-x="353" 
d="M-51 -92l400 847h64l-399 -847h-65z" />
    <glyph glyph-name="zero" unicode="0" horiz-adv-x="571" 
d="M240 -12q-57 0 -94 18t-58 49.5t-29.5 75.5t-8.5 95q0 36 2 74.5t7 77.5q8 67 27 131.5t52.5 115t84.5 81.5t123 31q53 0 88.5 -17.5t57 -48t30.5 -71.5t9 -87q0 -36 -1.5 -72.5t-5.5 -72.5q-8 -75 -26 -144t-51 -121.5t-84 -83.5t-123 -31zM243 42q55 0 93.5 29t64 76.5
t39.5 108.5t20 124q6 67 6 131q0 35 -6 65q-9 46 -37 75.5t-84 29.5q-53 0 -90.5 -27t-63 -71.5t-40 -100.5t-21.5 -114q-5 -35 -6.5 -69t-1.5 -66q0 -21 1 -40.5t4 -36.5q8 -52 35.5 -83t86.5 -31z" />
    <glyph glyph-name="one" unicode="1" horiz-adv-x="400" 
d="M156 0l88 622q-14 -8 -36.5 -14t-46 -10.5t-45 -6.5t-33.5 -2v51q72 6 121 25t88 59h31l-102 -724h-65z" />
    <glyph glyph-name="two" unicode="2" horiz-adv-x="526" 
d="M10 0l7 52l206 217q58 61 96 103.5t60 75.5t30.5 62t8.5 64q0 58 -28 83.5t-88 25.5q-59 0 -100.5 -32t-62.5 -104l-58 12q12 48 34.5 81.5t53 55t67 31.5t77.5 10q37 0 68 -9t54 -28t36 -48t13 -69q0 -46 -13.5 -84.5t-39 -77t-63.5 -79.5t-86 -92l-187 -194h326l-8 -56
h-403z" />
    <glyph glyph-name="three" unicode="3" horiz-adv-x="544" 
d="M322 737q84 0 127 -41t43 -107q0 -48 -17 -83.5t-42.5 -59.5t-55.5 -38t-57 -20l-1 -2q61 -10 97.5 -46.5t36.5 -110.5q0 -54 -18 -98.5t-50.5 -76t-78.5 -49t-102 -17.5q-176 0 -185 160l60 12q2 -19 7 -40t18 -38t37 -28.5t64 -11.5q34 0 66 10.5t57.5 32.5t41 56.5
t15.5 83.5q0 37 -11.5 62t-31.5 40.5t-47.5 22t-60.5 6.5h-60l8 55h46q44 0 80 12.5t61.5 35t39.5 53.5t14 68q0 21 -5 39.5t-17.5 32.5t-33.5 22t-52 8q-35 0 -60.5 -8t-44 -23t-31.5 -36t-24 -47l-58 14q29 83 88 119t137 36z" />
    <glyph glyph-name="four" unicode="4" horiz-adv-x="544" 
d="M323 0l26 186h-339l7 49l387 489h86l-68 -481h87l-8 -57h-88l-26 -186h-64zM358 243l58 411l-326 -411h268z" />
    <glyph glyph-name="five" unicode="5" horiz-adv-x="549" 
d="M214 668l-60 -260q30 22 67 36.5t82 14.5q32 0 63.5 -9.5t56 -31.5t40 -58.5t15.5 -90.5q0 -59 -18 -110.5t-52.5 -89.5t-85 -59.5t-114.5 -21.5q-78 0 -130 41t-58 121l59 15q2 -18 8.5 -39.5t21.5 -40t40 -30.5t65 -12q33 0 67.5 11.5t63 37.5t47 69.5t18.5 106.5
q0 69 -31.5 103t-90.5 34q-43 0 -83 -18t-73 -46l-44 22l79 361h332l-8 -56h-277z" />
    <glyph glyph-name="six" unicode="6" horiz-adv-x="571" 
d="M483 568q-7 65 -36 89.5t-72 24.5q-57 0 -98 -31.5t-69.5 -80.5t-45.5 -108t-24 -113q15 16 36.5 32t47.5 29t55 21.5t59 8.5q43 0 75 -13t53 -36.5t31 -55.5t10 -70q0 -62 -18.5 -113t-52 -87.5t-80.5 -56.5t-104 -20q-54 0 -89.5 19t-56.5 52.5t-30 79.5t-9 99
q0 40 5.5 92.5t19.5 108t37.5 109t59 95.5t85.5 68t116 26q63 0 106.5 -39t47.5 -117zM134 286q-3 -29 -3 -59q0 -34 5 -67.5t19.5 -59.5t39.5 -42.5t65 -16.5q36 0 68 13.5t56.5 40.5t39 68t14.5 96q0 124 -112 124q-27 0 -53.5 -8t-51 -21.5t-47 -31t-40.5 -36.5z" />
    <glyph glyph-name="seven" unicode="7" horiz-adv-x="505" 
d="M38 0l396 668h-376l8 56h448l-7 -50l-397 -674h-72z" />
    <glyph glyph-name="eight" unicode="8" horiz-adv-x="528" 
d="M333 372q26 -12 51 -25.5t45 -32.5t32 -45.5t12 -63.5q0 -48 -18.5 -87.5t-51.5 -68.5t-80 -45t-104 -16q-52 0 -89.5 13t-62 35.5t-36.5 52t-12 63.5q0 46 16 81t42 61.5t60.5 46t71.5 34.5q-22 10 -42.5 25t-36 35t-25 44t-9.5 52q0 50 19 88.5t51 64.5t75.5 39.5
t93.5 13.5q85 0 133 -37.5t48 -105.5q0 -38 -14.5 -71t-39 -60.5t-58 -50t-71.5 -40.5zM264 345q-44 -17 -77 -34.5t-56 -39.5t-34.5 -50.5t-11.5 -65.5q0 -24 8 -44.5t25.5 -36t44 -24.5t63.5 -9q48 0 82.5 14.5t56 37t31.5 50.5t10 54q0 33 -13.5 57t-34.5 41.5t-46 29
t-48 20.5zM277 398q35 16 66.5 36t55 44t37.5 51t14 58q0 45 -31 71.5t-95 26.5q-36 0 -66.5 -10t-52.5 -29t-34 -45t-12 -58q0 -27 10 -50t26.5 -41t38 -31.5t43.5 -22.5z" />
    <glyph glyph-name="nine" unicode="9" horiz-adv-x="567" 
d="M82 155q8 -59 40 -86.5t82 -27.5q58 0 100.5 27t72 72.5t46 104t22.5 121.5q-15 -16 -38.5 -32t-52 -29t-59.5 -21t-61 -8q-43 0 -73.5 14.5t-50.5 39.5t-29.5 58.5t-9.5 71.5q0 62 18 113t51.5 87.5t80 56.5t103.5 20q53 0 89 -20t58 -55t31.5 -82t9.5 -101
q0 -108 -19 -198.5t-57.5 -155.5t-97 -101t-136.5 -36q-73 0 -120 37t-57 115zM445 430q3 31 3 67q0 34 -5.5 67.5t-20 60t-39.5 43t-65 16.5q-36 0 -69 -13.5t-58.5 -40.5t-40.5 -68t-15 -95q0 -66 26.5 -100.5t82.5 -34.5q26 0 54 8t54.5 21.5t50.5 31.5t42 37z" />
    <glyph glyph-name="colon" unicode=":" horiz-adv-x="236" 
d="M143 55q0 -33 -17.5 -50t-49.5 -17q-51 0 -51 47q0 33 17.5 50t49.5 17q51 0 51 -47zM206 449q0 -33 -17.5 -50t-49.5 -17q-51 0 -51 47q0 33 17.5 50t49.5 17q51 0 51 -47z" />
    <glyph glyph-name="semicolon" unicode=";" horiz-adv-x="239" 
d="M58 93h79l-110 -218l-52 8zM219 449q0 -33 -17.5 -50t-49.5 -17q-51 0 -51 47q0 33 17.5 50t49.5 17q51 0 51 -47z" />
    <glyph glyph-name="less" unicode="&#x3c;" 
d="M77 249l11 75l396 159l-9 -68l-328 -129l293 -123l-10 -65z" />
    <glyph glyph-name="equal" unicode="=" 
d="M73 171l10 69h369l-10 -69h-369zM94 323l10 69h369l-10 -69h-369z" />
    <glyph glyph-name="greater" unicode="&#x3e;" horiz-adv-x="569" 
d="M468 253l-395 -149l9 67l327 123l-292 126l9 63l352 -159z" />
    <glyph glyph-name="question" unicode="?" horiz-adv-x="493" 
d="M296 724q37 0 70 -9.5t58.5 -30t40.5 -52.5t15 -77q0 -61 -20 -104t-54.5 -71.5t-81 -44.5t-99.5 -23l-18 -130h-63l25 177q47 4 91 13t77.5 29t54 55t20.5 91q0 33 -9.5 56t-26.5 37.5t-40 21.5t-50 7q-25 0 -49 -5t-45 -18.5t-38 -37t-28 -61.5l-58 12q8 31 24 61
t43 53t66.5 37t94.5 14zM214 55q0 -33 -17.5 -50t-49.5 -17q-51 0 -51 47q0 67 67 67q51 0 51 -47z" />
    <glyph glyph-name="at" unicode="@" horiz-adv-x="837" 
d="M618 -85q-52 -45 -123.5 -64t-146.5 -19q-69 0 -127.5 20t-101 58t-66.5 94t-24 128q0 99 33.5 179.5t93.5 137.5t142.5 88t179.5 31q66 0 123 -17.5t98.5 -52t65.5 -85t24 -115.5q0 -75 -17 -131.5t-46.5 -94t-69.5 -56t-85 -18.5q-41 0 -64.5 15.5t-31.5 40.5
q-23 -26 -59 -44t-78 -18q-32 0 -54 12t-36 32.5t-20 46.5t-6 55q0 56 15.5 103.5t43 82t65.5 54t84 19.5q29 0 52.5 -10t39.5 -26l9 30h55l-44 -250q-2 -14 -4 -26t-2 -23q0 -20 9.5 -32t37.5 -12q25 0 50 13.5t45 42t32.5 74t12.5 110.5q0 56 -18.5 98t-52.5 70t-82.5 42
t-107.5 14q-82 0 -149 -27t-115 -76.5t-74 -118t-26 -151.5q0 -62 18.5 -108.5t53 -78t82 -47.5t106.5 -16q67 0 128.5 19t100.5 51zM509 309q-14 14 -32.5 24t-47.5 10t-55 -12.5t-45.5 -37.5t-31 -62.5t-11.5 -88.5q0 -44 15 -70t53 -26q36 0 68.5 20.5t54.5 52.5z" />
    <glyph glyph-name="A" unicode="A" horiz-adv-x="625" 
d="M414 724l142 -724h-69l-44 236h-278l-107 -236h-67l334 724h89zM363 669l-172 -377h242z" />
    <glyph glyph-name="B" unicode="B" horiz-adv-x="604" 
d="M61 0l98 724h228q54 0 89.5 -11.5t57.5 -31.5t31 -47.5t9 -60.5q0 -45 -14 -79t-37.5 -57.5t-54 -38t-64.5 -21.5v-2q75 -11 110 -50.5t35 -102.5t-21 -105.5t-58.5 -68.5t-89.5 -37t-115 -11h-204zM268 56q45 0 84.5 6t68 23.5t45 49.5t16.5 85q0 41 -16.5 65.5t-45 37
t-66 16.5t-79.5 4h-105l-38 -287h136zM297 399q31 0 67.5 6.5t68 25t52 51t20.5 84.5q0 35 -12 55t-36 30.5t-60 13.5t-83 3h-100l-36 -269h119z" />
    <glyph glyph-name="C" unicode="C" horiz-adv-x="662" 
d="M605 195q-18 -58 -48 -97.5t-68.5 -64t-84 -35t-93.5 -10.5q-68 0 -117 21t-80.5 59t-46.5 91t-15 117q0 109 28 195t78 145t118.5 90t148.5 31q54 0 97.5 -16t73.5 -47.5t44.5 -77t11.5 -105.5l-62 -6q0 45 -8.5 80.5t-28 61t-52 39t-80.5 13.5q-66 0 -121 -26t-95 -76
t-62.5 -123t-22.5 -168q0 -127 53.5 -184.5t150.5 -57.5q87 0 139 39.5t83 124.5z" />
    <glyph glyph-name="D" unicode="D" horiz-adv-x="703" 
d="M61 0l98 724h201q79 0 136.5 -20.5t94.5 -58.5t54.5 -92t17.5 -120q0 -93 -24.5 -172.5t-76 -137.5t-130 -90.5t-186.5 -32.5h-185zM254 56q163 0 252 98.5t89 281.5q0 65 -17 109.5t-49 71.5t-78 39t-103 12h-132l-83 -612h121z" />
    <glyph glyph-name="E" unicode="E" horiz-adv-x="549" 
d="M61 0l98 724h392l-7 -56h-329l-36 -274h307l-8 -56h-307l-38 -282h338l-8 -56h-402z" />
    <glyph glyph-name="F" unicode="F" horiz-adv-x="523" 
d="M125 0h-64l98 724h392l-6 -56h-329l-39 -284h304l-6 -56h-305z" />
    <glyph glyph-name="G" unicode="G" horiz-adv-x="697" 
d="M582 0h-48l4 99q-12 -23 -35 -43t-53.5 -35t-67 -24t-74.5 -9q-67 0 -115 21.5t-79.5 60.5t-46.5 93.5t-15 121.5q0 108 28 192t78 142t119 88t151 30q54 0 97 -14t72 -43t43.5 -73.5t10.5 -105.5l-61 -7q4 102 -40 144t-128 42q-68 0 -123.5 -27t-95.5 -77.5
t-61.5 -123.5t-21.5 -165q0 -71 15.5 -118t43 -75t64.5 -39.5t80 -11.5q51 0 92 18t71 46.5t47.5 63.5t22.5 70l11 81h-209l8 53h267z" />
    <glyph glyph-name="H" unicode="H" horiz-adv-x="696" 
d="M555 0h-64l46 347h-367l-46 -347h-64l98 724h64l-44 -322h367l44 322h64z" />
    <glyph glyph-name="I" unicode="I" horiz-adv-x="265" 
d="M61 0l98 724h64l-98 -724h-64z" />
    <glyph glyph-name="J" unicode="J" horiz-adv-x="480" 
d="M382 724h64l-74 -557q-7 -51 -24.5 -85.5t-44 -55.5t-60 -29.5t-72.5 -8.5q-79 0 -118.5 40.5t-41.5 113.5l58 11q3 -25 9 -45t17 -34.5t30.5 -22.5t49.5 -8q24 0 46 5t39 19t29.5 39t17.5 65z" />
    <glyph glyph-name="K" unicode="K" horiz-adv-x="607" 
d="M173 357l375 367h80l-324 -316l246 -408h-77l-218 360l-93 -90l-37 -270h-64l98 724h64z" />
    <glyph glyph-name="L" unicode="L" horiz-adv-x="523" 
d="M61 0l98 724h64l-90 -668h319l-8 -56h-383z" />
    <glyph glyph-name="M" unicode="M" horiz-adv-x="853" 
d="M714 0h-62l88 652l-316 -652h-76l-138 652l-89 -652h-60l98 724h98l138 -657l316 657h101z" />
    <glyph glyph-name="N" unicode="N" horiz-adv-x="714" 
d="M493 0l-282 652l-89 -652h-61l98 724h92l273 -643l88 643h60l-98 -724h-81z" />
    <glyph glyph-name="O" unicode="O" horiz-adv-x="729" 
d="M326 -12q-71 0 -122.5 22.5t-85.5 62.5t-50 95t-16 121q0 97 24.5 179t71.5 142t117 93.5t162 33.5q69 0 119.5 -22.5t83 -62t48 -93t15.5 -114.5q0 -107 -25.5 -191.5t-73 -143.5t-115.5 -90.5t-153 -31.5zM332 47q61 0 114.5 24.5t92.5 73t61.5 121t22.5 167.5
q0 57 -14 104q-20 69 -67.5 105.5t-123.5 36.5q-62 0 -116.5 -24.5t-94.5 -72.5t-63 -119.5t-23 -164.5q0 -59 14 -107q20 -70 68.5 -107t128.5 -37z" />
    <glyph glyph-name="P" unicode="P" horiz-adv-x="589" 
d="M124 0h-63l98 724h194q60 0 102 -14t69 -38t39.5 -56.5t12.5 -69.5q0 -70 -20.5 -121t-59 -84t-93.5 -49t-124 -16h-117zM284 333q47 0 88 9.5t71 32.5t47.5 63t17.5 102q0 37 -12.5 62t-37 39.5t-60 20.5t-81.5 6h-103l-45 -335h115z" />
    <glyph glyph-name="Q" unicode="Q" horiz-adv-x="729" 
d="M324 -12q-71 0 -122.5 22.5t-85.5 62.5t-50 95t-16 121q0 97 24.5 179t71.5 142t117 93.5t162 33.5q69 0 119.5 -22.5t83 -62t48 -93t15.5 -114.5q0 -168 -60 -278.5t-169 -153.5q37 -48 85.5 -78t112.5 -41l-15 -54q-35 3 -72 18.5t-70 37.5t-60 48t-42 52
q-38 -8 -77 -8zM330 47q61 0 114.5 24.5t92.5 73t61.5 121t22.5 167.5q0 57 -14 104q-20 69 -67.5 105.5t-123.5 36.5q-62 0 -116.5 -24.5t-94.5 -72.5t-63 -119.5t-23 -164.5q0 -59 14 -107q20 -70 68.5 -107t128.5 -37z" />
    <glyph glyph-name="R" unicode="R" horiz-adv-x="602" 
d="M544 0h-70l-125 314h-183l-42 -314h-63l98 724h210q62 0 103 -14t65.5 -37.5t34.5 -54.5t10 -65q0 -88 -43 -141.5t-127 -82.5zM302 370q46 0 85.5 9.5t67.5 31t44 57t16 87.5q0 34 -12 56t-33.5 34.5t-51.5 17.5t-67 5h-137l-40 -298h128z" />
    <glyph glyph-name="S" unicode="S" horiz-adv-x="555" 
d="M476 525q0 28 -5 55.5t-20 49.5t-42 36t-72 14q-47 0 -81 -12t-56 -32.5t-32 -47.5t-10 -57q0 -33 14.5 -55.5t38.5 -37.5t55 -26t63 -22t62.5 -24t54.5 -33.5t38.5 -49.5t14.5 -71q0 -59 -21.5 -101.5t-58 -69.5t-83.5 -40t-98 -13q-58 0 -99.5 14t-68.5 40.5t-41 63.5
t-17 83l62 10q3 -30 11.5 -58t26.5 -49.5t48.5 -34t78.5 -12.5q33 0 67 7.5t61.5 25.5t45 48.5t17.5 76.5q0 32 -11.5 53.5t-31 36.5t-45 25.5t-53.5 19.5q-35 11 -70.5 23.5t-64 32.5t-46.5 51.5t-18 81.5q0 49 19 88t52.5 66t78.5 41.5t97 14.5q45 0 82.5 -11.5t64.5 -36
t41.5 -63.5t13.5 -93z" />
    <glyph glyph-name="T" unicode="T" horiz-adv-x="516" 
d="M186 0l90 668h-212l7 56h488l-8 -56h-211l-90 -668h-64z" />
    <glyph glyph-name="U" unicode="U" horiz-adv-x="690" 
d="M584 235q-33 -247 -278 -247q-130 0 -182 64t-35 184l66 488h64l-65 -484q-14 -107 27 -150.5t127 -43.5q44 0 80 9.5t63 32t45 59.5t25 91l65 486h64z" />
    <glyph glyph-name="V" unicode="V" horiz-adv-x="580" 
d="M207 0l-140 724h68l124 -665l291 665h68l-322 -724h-89z" />
    <glyph glyph-name="W" unicode="W" horiz-adv-x="848" 
d="M545 0l-76 640l-252 -640h-76l-56 724h66l40 -644l252 644h76l77 -654l211 654h63l-243 -724h-82z" />
    <glyph glyph-name="X" unicode="X" horiz-adv-x="589" 
d="M458 0l-165 321l-241 -321h-73l279 374l-169 350h72l145 -306l229 306h71l-266 -355l190 -369h-72z" />
    <glyph glyph-name="Y" unicode="Y" horiz-adv-x="520" 
d="M295 287q-11 -72 -20 -143.5t-20 -143.5h-64l39 284l-177 440h68l148 -376l244 376h68l-286 -437v0z" />
    <glyph glyph-name="Z" unicode="Z" horiz-adv-x="551" 
d="M-2 0l6 46l470 622h-375l8 56h456l-7 -48l-468 -620h401l-8 -56h-483z" />
    <glyph glyph-name="bracketleft" unicode="[" horiz-adv-x="253" 
d="M8 -143l121 867h145l-7 -54h-83l-107 -758h83l-7 -55h-145z" />
    <glyph glyph-name="backslash" unicode="\" horiz-adv-x="352" 
d="M233 -92l-161 847h60l162 -847h-61z" />
    <glyph glyph-name="bracketright" unicode="]" horiz-adv-x="253" 
d="M235 723.991l-120.992 -866.947h-144.991l7 53.9971h82.9951l106.993 757.953h-82.9951l7 54.9971h144.99z" />
    <glyph glyph-name="asciicircum" unicode="^" horiz-adv-x="526" 
d="M428 299l-168 303l-165 -303h-65l197 365h69l200 -365h-68z" />
    <glyph glyph-name="underscore" unicode="_" horiz-adv-x="500" 
d="M0 -181v52h500v-52h-500z" />
    <glyph glyph-name="grave" unicode="`" horiz-adv-x="499" 
d="M345 572l-117 177h86l83 -164z" />
    <glyph glyph-name="a" unicode="a" horiz-adv-x="574" 
d="M454 86q-3 -21 1 -32.5t23 -11.5q7 0 14.5 1t18.5 4l-6 -45q-10 -4 -21.5 -5.5t-23.5 -1.5q-32 0 -50.5 16.5t-15.5 58.5q-34 -37 -83.5 -59.5t-100.5 -22.5q-35 0 -65 11t-51.5 35t-33.5 61t-12 90q0 56 13 115.5t42 108.5t77 80.5t118 31.5q44 0 83 -17.5t64 -38.5
l8 46h61zM434 406q-11 10 -26 20t-33.5 18.5t-39.5 13.5t-43 5q-51 0 -85.5 -27t-55 -68t-29.5 -89t-9 -89t7.5 -69t22 -45t34.5 -24.5t44 -7.5q41 0 81 18t94 69z" />
    <glyph glyph-name="b" unicode="b" horiz-adv-x="582" 
d="M50 0l106 755h66l-45 -315q20 15 41.5 29.5t45.5 26t50 18.5t56 7q34 0 63 -10.5t49 -33.5t31.5 -60t11.5 -89q0 -89 -21 -153.5t-55.5 -106t-79 -61t-90.5 -19.5t-85 15t-73 41l-9 -44h-62zM132 106q8 -7 21.5 -17t31.5 -19.5t40.5 -16t49.5 -6.5q51 0 86 24.5t56.5 64
t30.5 89.5t9 101q0 75 -24.5 106t-72.5 31q-25 0 -52.5 -9t-53.5 -22.5t-48 -28.5t-36 -28z" />
    <glyph glyph-name="c" unicode="c" horiz-adv-x="531" 
d="M246 -12q-53 0 -90.5 15.5t-61.5 44t-35 67.5t-11 87q0 77 21 136.5t57.5 100t86.5 61.5t109 21q43 0 76.5 -15t55 -41t30.5 -62t4 -78l-64 -5q1 33 -3 59.5t-16.5 45t-35 28.5t-57.5 10q-33 0 -67.5 -12.5t-63 -42t-46.5 -79t-18 -123.5q0 -45 11 -76t29 -50t42 -27.5
t51 -8.5q56 0 95 27t58 88l61 -13q-11 -41 -32.5 -71t-50.5 -49.5t-63.5 -28.5t-71.5 -9z" />
    <glyph glyph-name="d" unicode="d" horiz-adv-x="571" 
d="M389 0l6 61q-38 -29 -83.5 -51t-95.5 -22q-74 0 -119.5 46t-45.5 147q0 93 22 157.5t57.5 105t81 59t92.5 18.5q45 0 80.5 -16t61.5 -37l40 287h67l-106 -755h-58zM437 413q-8 7 -21 16t-29.5 17.5t-37 14t-44.5 5.5q-51 0 -87 -23.5t-58.5 -63t-33 -90.5t-10.5 -106
q0 -69 24.5 -104t81.5 -35q17 0 33.5 3.5t33.5 8.5q32 11 60.5 29.5t48.5 37.5z" />
    <glyph glyph-name="e" unicode="e" horiz-adv-x="512" 
d="M242 -12q-54 0 -91 17.5t-59.5 48t-32.5 71.5t-10 87q0 58 16.5 113.5t50 99t83.5 70t117 26.5q39 0 68.5 -10t49.5 -27.5t30 -41t10 -50.5q0 -33 -11.5 -59t-31 -45t-45.5 -32.5t-55 -22.5t-60 -14t-59.5 -8t-54 -4t-43.5 -2q0 -31 5 -60t20 -51.5t42 -36t72 -13.5
q60 0 95.5 31t48.5 73l57 -12q-11 -39 -32.5 -67t-49.5 -46t-61.5 -26.5t-68.5 -8.5zM313 466q-46 0 -80.5 -17.5t-58.5 -46.5t-38 -66.5t-19 -76.5q9 0 31 1t50.5 3.5t61 8t62.5 15.5q39 13 63.5 37.5t24.5 65.5q0 38 -26 57t-71 19z" />
    <glyph glyph-name="f" unicode="f" horiz-adv-x="303" 
d="M383 694q-14 5 -34 9t-38 4q-35 0 -60 -19.5t-33 -73.5l-14 -103h145l-8 -53h-145l-94 -670h-67l94 670h-78l8 53h78l13 93q23 160 160 160q28 0 49.5 -5t33.5 -11z" />
    <glyph glyph-name="g" unicode="g" horiz-adv-x="554" 
d="M285 463q-51 0 -85.5 -26t-55 -65t-29.5 -85.5t-9 -87.5t7.5 -68t21.5 -43.5t33.5 -23.5t42.5 -7q43 0 86 16.5t94 67.5l36 266q-21 22 -59.5 39t-82.5 17zM386 76q-35 -36 -85 -55.5t-101 -19.5q-35 0 -64.5 11t-50.5 34.5t-32.5 60.5t-11.5 90q0 54 13 111t42 104.5
t77 78t118 30.5q44 0 83 -17.5t64 -38.5l8 46h61l-78 -557q-11 -81 -67.5 -129t-156.5 -48q-85 0 -136.5 35t-59.5 120l62 12q2 -23 9 -43t22 -35t39.5 -24t60.5 -9q30 0 57 7t49.5 22t37.5 39t21 59z" />
    <glyph glyph-name="h" unicode="h" horiz-adv-x="581" 
d="M117 0h-67l106 755h67l-47 -318q15 13 36.5 27.5t47 27t54.5 21t59 8.5q77 0 112 -43.5t23 -132.5l-48 -345h-67l48 341q9 64 -11 93.5t-66 29.5q-28 0 -53.5 -7.5t-49.5 -20t-46.5 -28.5t-44.5 -33z" />
    <glyph glyph-name="i" unicode="i" horiz-adv-x="239" 
d="M114 0h-67l72 511h67zM232 687q0 -29 -16.5 -45.5t-45.5 -16.5q-47 0 -47 44q0 29 16.5 45.5t45.5 16.5q47 0 47 -44z" />
    <glyph glyph-name="j" unicode="j" horiz-adv-x="239" 
d="M119 511h67l-84 -593q-11 -75 -44.5 -108t-99.5 -33q-9 0 -22 1.5t-25.5 4t-24 5.5t-17.5 7l16 53q16 -6 35 -10t36 -4q32 0 52 18t27 65zM231 687q0 -29 -16.5 -45.5t-45.5 -16.5q-47 0 -47 44q0 29 16.5 45.5t45.5 16.5q47 0 47 -44z" />
    <glyph glyph-name="k" unicode="k" horiz-adv-x="507" 
d="M375 0l-129 278l-103 -92l-26 -186h-67l106 755h67l-68 -485l268 241h84l-206 -185l147 -326h-73z" />
    <glyph glyph-name="l" unicode="l" horiz-adv-x="239" 
d="M153 755h67l-106 -755h-67z" />
    <glyph glyph-name="m" unicode="m" horiz-adv-x="870" 
d="M366 521q59 0 85.5 -22.5t33.5 -61.5q43 34 91 59t102 25q44 0 70 -13t38.5 -36.5t13.5 -56t-4 -70.5l-48 -345h-67l48 338q3 20 4.5 36.5t-0.5 30.5q-2 28 -17.5 43t-52.5 15q-24 0 -48.5 -8.5t-48 -21t-43.5 -27t-34 -25.5l-52 -381h-67l48 338q3 20 4.5 36.5
t-0.5 30.5q-2 28 -17.5 43t-52.5 15q-25 0 -51.5 -9.5t-51.5 -23.5t-45.5 -29t-33.5 -25l-53 -376h-67l72 511h62l-11 -76q43 34 91 60t102 26z" />
    <glyph glyph-name="n" unicode="n" horiz-adv-x="581" 
d="M117 0h-67l72 511h64l-11 -72q15 13 37 27.5t47.5 26.5t54.5 20t59 8q76 0 111.5 -43.5t23.5 -132.5l-48 -345h-67l48 341q18 123 -77 123q-28 0 -56 -9t-53.5 -22t-47 -28.5t-37.5 -27.5z" />
    <glyph glyph-name="o" unicode="o" horiz-adv-x="573" 
d="M246 -12q-52 0 -89.5 15t-61.5 42t-35.5 65t-11.5 84q0 17 1 33.5t3 33.5q7 57 28 105t55 82.5t81 53.5t107 19q53 0 89.5 -16t59.5 -43.5t33.5 -65.5t10.5 -82q0 -17 -1 -33.5t-3 -32.5q-14 -123 -82.5 -191.5t-183.5 -68.5zM253 43q78 0 129.5 54t62.5 160q3 27 3 58
q0 147 -133 147q-81 0 -133 -52t-64 -154q-3 -26 -3 -56q0 -76 34 -116.5t104 -40.5z" />
    <glyph glyph-name="p" unicode="p" horiz-adv-x="582" 
d="M174 438q19 15 41 29.5t46.5 26.5t51.5 19.5t57 7.5q34 0 63 -10.5t49 -33.5t31.5 -60t11.5 -89q0 -89 -21 -153.5t-56 -106t-80.5 -61t-93.5 -19.5t-87.5 17.5t-65.5 38.5l-36 -256h-65l102 723h64zM457 326q0 75 -23.5 106t-72.5 31q-26 0 -53.5 -9t-53.5 -22t-48 -28
t-36 -28l-38 -271q8 -7 22 -17t32 -19.5t39.5 -16t45.5 -6.5q54 0 89.5 24.5t57 64.5t30.5 90t9 101z" />
    <glyph glyph-name="q" unicode="q" horiz-adv-x="568" 
d="M304 521q45 0 81 -16t62 -37l7 43h64l-101 -723h-63l39 271q-38 -29 -83 -50t-95 -21q-75 0 -119.5 45.5t-44.5 142.5q0 95 22 160.5t57.5 106.5t81 59.5t92.5 18.5zM116 187q0 -70 24 -106t81 -36q25 0 50.5 7t48.5 18t43 25.5t35 28.5l40 292q-8 7 -21 16t-30 16.5
t-37.5 12.5t-44.5 5q-51 0 -87 -23t-58.5 -61.5t-33 -89t-10.5 -105.5z" />
    <glyph glyph-name="r" unicode="r" horiz-adv-x="352" 
d="M117 0h-67l72 511h63l-12 -87q43 46 80 71t87 25h11t11 -1l-10 -69q-50 5 -93 -17t-90 -65z" />
    <glyph glyph-name="s" unicode="s" horiz-adv-x="480" 
d="M267 521q46 0 78 -12.5t52.5 -34.5t30 -51t9.5 -62l-57 -6q-1 24 -7 44.5t-19 35.5t-34.5 24t-52.5 9q-35 0 -58 -7.5t-36.5 -20t-19.5 -28.5t-6 -32q0 -33 19.5 -51t48.5 -29.5t62.5 -20t62.5 -24t48.5 -41t19.5 -70.5q0 -74 -51.5 -115t-141.5 -41q-85 0 -131 38
t-53 119l56 11q3 -24 10.5 -45t22.5 -36.5t38.5 -24.5t59.5 -9q21 0 43.5 4.5t41 15t30.5 29t12 46.5q0 34 -19.5 52.5t-48 29.5t-62.5 19.5t-62.5 23t-48 40t-19.5 71.5q0 39 15.5 67t41 46.5t58 27t67.5 8.5z" />
    <glyph glyph-name="t" unicode="t" horiz-adv-x="369" 
d="M320 18q-21 -13 -53 -21.5t-63 -8.5q-69 0 -100.5 32.5t-20.5 104.5l47 333h-80l7 53h80l21 147l68 10l-22 -157h143l-7 -53h-143l-46 -324q-3 -22 -3 -39t6.5 -29t20.5 -18.5t39 -6.5q26 0 52 8.5t44 18.5z" />
    <glyph glyph-name="u" unicode="u" horiz-adv-x="581" 
d="M458 511h67l-72 -511h-61l9 69q-15 -13 -37 -27t-48 -25.5t-55 -19t-59 -7.5q-77 0 -110.5 43.5t-21.5 132.5l48 345h67l-48 -341q-3 -21 -3.5 -38.5t2.5 -31.5q10 -54 79 -54q26 0 52 7t51 19t47 27t40 30z" />
    <glyph glyph-name="v" unicode="v" horiz-adv-x="485" 
d="M164 0l-119 511h71l94 -445l218 445h69l-258 -511h-75z" />
    <glyph glyph-name="w" unicode="w" horiz-adv-x="730" 
d="M127 0l-82 511h66l64 -443l181 443h77l56 -441l186 441h67l-223 -511h-81l-54 436l-177 -436h-80z" />
    <glyph glyph-name="x" unicode="x" horiz-adv-x="455" 
d="M325 0l-112 217l-161 -217h-72l201 269l-130 242h69l106 -201l156 201h73l-197 -248l138 -263h-71z" />
    <glyph glyph-name="y" unicode="y" horiz-adv-x="461" 
d="M47 511h68l82 -432l206 432h70l-270 -541q-28 -55 -49.5 -92t-42.5 -59.5t-44.5 -32t-55.5 -9.5q-28 0 -47.5 5t-33.5 11l13 51q11 -5 29 -10t40 -5q19 0 35 8.5t31.5 28t33 52t38.5 80.5z" />
    <glyph glyph-name="z" unicode="z" horiz-adv-x="451" 
d="M-3 0l7 45l350 413h-290l8 53h371l-7 -45l-349 -412h304l-8 -54h-386z" />
    <glyph glyph-name="braceleft" unicode="{" horiz-adv-x="293" 
d="M25 316q29 0 52 13t34 44q5 13 8 35.5t5 49.5t3.5 56.5t3.5 56.5q4 41 11.5 72t24 52t44 31.5t70.5 10.5h46l-8 -56h-45q-35 0 -51.5 -14t-20.5 -43q-5 -32 -7 -72.5t-5 -82.5q-5 -51 -12.5 -83t-19 -51t-27 -29t-34.5 -17q10 -5 20.5 -11.5t18 -17t12.5 -26t5 -38.5
q0 -28 -6.5 -60.5t-15 -64.5t-15 -61t-6.5 -49q0 -26 15.5 -39.5t52.5 -13.5h32l-7 -53h-45q-63 0 -89.5 25t-26.5 67q0 6 0.5 12.5t1.5 14.5q3 25 10.5 54t14.5 58t12.5 56t5.5 48q0 41 -19 56t-49 15h-17l8 55h15z" />
    <glyph glyph-name="bar" unicode="|" horiz-adv-x="280" 
d="M50 -143l126 898h60l-126 -898h-60z" />
    <glyph glyph-name="braceright" unicode="}" horiz-adv-x="293" 
d="M255 276q-29 0 -52 -13t-34 -44q-5 -13 -8 -35.5t-5 -49.5t-3.5 -56.5t-3.5 -56.5q-4 -41 -11.5 -72t-24 -52t-44 -31.5t-70.5 -10.5h-46l8 56h45q35 0 51.5 14t20.5 43q5 32 7 72.5t5 82.5q5 51 12.5 83t19 51t27 29t34.5 17q-10 5 -20.5 11.5t-18 17t-12.5 26t-5 38.5
q0 28 6.5 60.5t15 64.5t15 61t6.5 49q0 26 -15.5 39.5t-52.5 13.5h-32l7 53h45q63 0 89.5 -25t26.5 -67q0 -6 -0.5 -12.5t-1.5 -14.5q-3 -25 -10.5 -54t-14.5 -58t-12.5 -56t-5.5 -48q0 -41 19 -56t49 -15h17l-8 -55h-15z" />
    <glyph glyph-name="asciitilde" unicode="~" horiz-adv-x="484" 
d="M135 406q23 0 56 -7.5t66.5 -16t63 -16t46.5 -7.5q20 0 30.5 9.5t10.5 45.5l47 -2q4 -31 -2 -52t-18 -34.5t-28 -19.5t-34 -6q-23 0 -55.5 7.5t-66.5 16t-64.5 16t-48.5 7.5q-16 0 -27.5 -11.5t-9.5 -45.5l-46 2q-4 31 2 52.5t18 35t27.5 20t32.5 6.5z" />
    <glyph glyph-name="uni00A0" unicode="&#xa0;" horiz-adv-x="230" 
 />
    <glyph glyph-name="exclamdown" unicode="&#xa1;" horiz-adv-x="256" 
d="M178.005 326.011l-58.9961 -540.967h-76.9951l90.9941 540.967h44.9971zM115.009 454.003q0 32.998 17.499 49.9971t49.4971 16.999q50.9971 0 50.9971 -46.9971q0 -32.998 -17.499 -49.9971t-49.4971 -16.999q-50.9971 0 -50.9971 46.9971z" />
    <glyph glyph-name="cent" unicode="&#xa2;" horiz-adv-x="507" 
d="M210 108q-83 8 -119.5 63t-36.5 139q0 64 17 115.5t47 88t71 58t90 26.5l14 97h55l-14 -97q70 -8 105 -57.5t27 -121.5l-60 -4q1 24 -2.5 45t-12.5 38t-24.5 28.5t-40.5 15.5l-53 -379q41 6 69.5 30.5t43.5 72.5l57 -12q-19 -69 -67.5 -104.5t-110.5 -41.5l-15 -108h-55z
M120 310q0 -37 7.5 -63t21 -43.5t31 -27.5t38.5 -13l53 378q-28 -5 -55 -19t-48.5 -41.5t-34.5 -69t-13 -101.5z" />
    <glyph glyph-name="sterling" unicode="&#xa3;" horiz-adv-x="548" 
d="M40 60q58 47 86 92.5t28 96.5q0 39 -14 78h-107l8 56h82q-4 10 -9 25t-9 33t-7 37.5t-3 39.5q0 50 19 90.5t51.5 69t76.5 44t95 15.5q94 0 141 -44t44 -142l-62 -6q0 33 -5.5 58.5t-19.5 43t-37.5 26.5t-60.5 9q-36 0 -67.5 -9.5t-55.5 -29.5t-37.5 -51.5t-13.5 -75.5
q0 -39 9.5 -74t17.5 -59h238l-8 -56h-214q5 -17 7.5 -37t2.5 -37q0 -107 -101 -193h195q28 0 48.5 6.5t35.5 20t26.5 35t20.5 51.5l60 -13q-23 -86 -72.5 -123t-127.5 -37h-322l8 60h53z" />
    <glyph glyph-name="currency" unicode="&#xa4;" 
d="M473 9l-93 91q-26 -20 -60 -30.5t-76 -10.5q-45 0 -79.5 11.5t-60.5 31.5l-92 -93l-46 47l95 95q-17 28 -25 61.5t-8 69.5q0 67 35 123l-94 93l50 49l90 -90q27 22 62.5 34.5t79.5 12.5t79.5 -11.5t61.5 -32.5l86 86l46 -47l-89 -90q32 -53 32 -123q0 -37 -9.5 -71.5
t-29.5 -63.5l95 -94zM249 119q35 0 61.5 12.5t44.5 34.5t27 52t9 64q0 75 -36 117.5t-109 42.5q-71 0 -106.5 -45t-35.5 -115q0 -34 8.5 -64t26 -52t45 -34.5t65.5 -12.5z" />
    <glyph glyph-name="yen" unicode="&#xa5;" horiz-adv-x="512" 
d="M76 300h135l10 71h-135l8 53h102l-126 300h69l123 -301l195 301h73l-204 -300h105l-8 -53h-135l-10 -71h135l-7 -53h-135l-35 -247h-67l35 247h-135z" />
    <glyph glyph-name="brokenbar" unicode="&#xa6;" horiz-adv-x="280" 
d="M50 -143l55 388h60l-55 -388h-60zM128 410l48 345h60l-48 -345h-60z" />
    <glyph glyph-name="section" unicode="&#xa7;" horiz-adv-x="550" 
d="M339 654q-38 0 -66.5 -10.5t-47 -28t-28 -41t-9.5 -49.5q0 -40 23 -62t57 -36t74 -24t74 -26t57 -42.5t23 -72.5q0 -55 -32.5 -96t-90.5 -81q20 -17 35.5 -43.5t15.5 -58.5q0 -49 -16.5 -86t-45 -61.5t-67.5 -37t-85 -12.5q-101 0 -149.5 49t-45.5 130l68 9
q0 -29 5.5 -53t20.5 -41.5t39.5 -27.5t61.5 -10q69 0 107.5 37t38.5 93q0 39 -23 61t-58 35.5t-75 23.5t-75 27t-58 45.5t-23 78.5q0 48 30 85.5t93 81.5q-24 19 -37.5 45.5t-13.5 64.5q0 47 19 82.5t50.5 59t71.5 35.5t83 12q98 0 144 -48t40 -131l-68 -9q3 66 -23.5 99.5
t-93.5 33.5zM112 247q0 -33 20.5 -52t51.5 -31t68.5 -21.5t72.5 -23.5q45 26 73.5 58t28.5 77q0 31 -20.5 48.5t-52 29.5t-69 21.5t-71.5 23.5q-20 -13 -38.5 -27.5t-32.5 -31t-22.5 -34.5t-8.5 -37z" />
    <glyph glyph-name="dieresis" unicode="&#xa8;" horiz-adv-x="499" 
d="M187 660q0 27 17 43t44 16q21 0 33 -12t12 -32q0 -27 -16.5 -42.5t-42.5 -15.5q-22 0 -34.5 11.5t-12.5 31.5zM386 660q0 27 17 43t44 16q21 0 33 -12t12 -32q0 -27 -16.5 -42.5t-42.5 -15.5q-22 0 -34.5 11.5t-12.5 31.5z" />
    <glyph glyph-name="copyright" unicode="&#xa9;" horiz-adv-x="759" 
d="M706 319q0 -74 -24 -135t-68 -104.5t-105 -67.5t-134 -24q-82 0 -144 24.5t-103 67t-62 100.5t-21 125q0 78 26 139t71 103.5t105.5 65t129.5 22.5q76 0 137 -22.5t104 -63.5t65.5 -99.5t22.5 -130.5zM377 31q65 0 117 19.5t88 56t55.5 89t19.5 117.5q0 68 -21 120
t-58 87.5t-88.5 53.5t-112.5 18q-60 0 -111.5 -19t-89 -56t-59 -90t-21.5 -121q0 -64 19.5 -115t55.5 -86.5t88 -54.5t118 -19zM531 247q-5 -39 -21 -63.5t-37.5 -39t-46 -19.5t-46.5 -5q-48 0 -82.5 14.5t-56.5 41t-32 62t-10 77.5t12 78t35 61.5t57 40t78 14.5
q29 0 54.5 -6.5t45 -21.5t31.5 -39t14 -59l-53 -8q-4 45 -25.5 66.5t-67.5 21.5q-24 0 -46 -8t-38.5 -26t-26 -46.5t-9.5 -69.5q0 -31 7 -57.5t21.5 -46.5t36.5 -31.5t52 -11.5q52 0 73.5 22t31.5 67z" />
    <glyph glyph-name="ordfeminine" unicode="&#xaa;" horiz-adv-x="396" 
d="M337 345q-2 -14 1 -21t15 -7q10 0 22 4l-5 -36q-7 -3 -17 -4.5t-20 -1.5q-23 0 -36.5 11t-12.5 34q-22 -23 -53 -36t-65 -13q-48 0 -78.5 29.5t-30.5 97.5q0 40 9.5 79t30 69.5t51.5 49t75 18.5q29 0 53.5 -11t41.5 -25l5 30h53zM309 539q-13 12 -35.5 22t-48.5 10
q-32 0 -53 -16t-33.5 -40.5t-18 -53t-5.5 -53.5q0 -48 18 -67.5t49 -19.5q24 0 49.5 11.5t52.5 39.5z" />
    <glyph glyph-name="guillemotleft" unicode="&#xab;" horiz-adv-x="428" 
d="M128 103l-66 157l110 148h66l-104 -146l60 -159h-66zM278 103l-66 157l110 148h66l-104 -146l60 -159h-66z" />
    <glyph glyph-name="logicalnot" unicode="&#xac;" 
d="M402 199v94h-304v66h373v-160h-69z" />
    <glyph glyph-name="uni00AD" unicode="&#xad;" horiz-adv-x="311" 
d="M4 262l9 67h271l-9 -67h-271z" />
    <glyph glyph-name="registered" unicode="&#xae;" horiz-adv-x="446" 
d="M424 480q0 -41 -13.5 -74.5t-37.5 -57.5t-58 -37.5t-75 -13.5q-45 0 -79.5 13.5t-57.5 37t-34.5 55.5t-11.5 70q0 43 14.5 77t39.5 58t58.5 36.5t71.5 12.5q85 0 134 -48t49 -129zM385 477q0 70 -41 107t-103 37q-30 0 -56.5 -10t-46 -28.5t-30.5 -46t-11 -62.5
q0 -66 38.5 -103.5t105.5 -37.5t105.5 38.5t38.5 105.5zM328 384h-38l-45 76h-28v-76h-36v191h66q39 0 51.5 -16.5t12.5 -37.5q0 -20 -9 -31.5t-25 -18.5zM230 488q19 0 31.5 6t12.5 26q0 17 -10 22t-27 5h-20v-59h13z" />
    <glyph glyph-name="macron" unicode="&#xaf;" horiz-adv-x="500" 
d="M203 693h283l-8 -57h-283z" />
    <glyph glyph-name="degree" unicode="&#xb0;" horiz-adv-x="300" 
d="M174 577q28 0 42 17t14 46q0 61 -56 61q-26 0 -42 -16t-16 -49q0 -28 14.5 -43.5t43.5 -15.5zM283 640q0 -52 -29 -81t-80 -29t-81 28t-30 78q0 55 32 83.5t79 28.5q48 0 78.5 -27t30.5 -81z" />
    <glyph glyph-name="plusminus" unicode="&#xb1;" horiz-adv-x="569" 
d="M51 0l9 66h373l-9 -66h-373zM221 131l22 157h-152l10 66h152l21 154h69l-21 -154h152l-10 -66h-152l-22 -157h-69z" />
    <glyph glyph-name="twosuperior" unicode="&#xb2;" horiz-adv-x="351" 
d="M38 349l7 50l124 124q34 34 57 58.5t37 43.5t19.5 35.5t5.5 34.5q0 29 -15.5 42t-47.5 13q-33 0 -55 -18t-35 -57l-54 10q7 30 22 52t35 35.5t45 20t52 6.5q53 0 84 -24.5t31 -73.5q0 -26 -7 -47.5t-22 -43t-37 -45t-52 -52.5l-116 -112h198l-8 -52h-268z" />
    <glyph glyph-name="threesuperior" unicode="&#xb3;" horiz-adv-x="373" 
d="M246 799q56 0 86 -25t30 -68q0 -27 -10 -47.5t-25.5 -35.5t-34.5 -24t-36 -13v-2q38 -7 60.5 -29t22.5 -65q0 -68 -43.5 -108t-118.5 -40q-56 0 -90 24.5t-37 78.5l55 10q1 -12 4.5 -23.5t11.5 -21t22 -15.5t37 -6q18 0 35 5.5t30.5 17.5t22 30.5t8.5 44.5q0 40 -23.5 55
t-61.5 15h-40l7 47h29q51 0 81.5 25.5t30.5 67.5q0 22 -13 38t-47 16q-38 0 -57.5 -17t-31.5 -47l-54 11q19 55 58 78t92 23z" />
    <glyph glyph-name="acute" unicode="&#xb4;" horiz-adv-x="500" 
d="M385 749h93l-167 -177l-50 13z" />
    <glyph glyph-name="mu" unicode="&#xb5;" horiz-adv-x="628" 
d="M476 511h67l-72 -511h-64l10 73q-19 -15 -42.5 -30t-50 -27t-55 -20t-56.5 -8q-15 0 -27.5 7.5t-23 15.5t-18.5 12.5t-15 -2.5l-23 -197h-67l97 687h67l-48 -336q-6 -46 -2 -73q5 -29 23 -43t54 -14q27 0 54.5 9.5t53 24.5t47.5 33t40 36z" />
    <glyph glyph-name="paragraph" unicode="&#xb6;" horiz-adv-x="557" 
d="M401 -133h-67l113 801h-89l-113 -801h-67l54 384q-83 8 -130 59t-47 135q0 76 25.5 129t69 86.5t99.5 48.5t118 15h153z" />
    <glyph glyph-name="periodcentered" unicode="&#xb7;" horiz-adv-x="176" 
d="M150 312q0 -33 -17.5 -50t-49.5 -17q-51 0 -51 47q0 33 17.5 50t49.5 17q51 0 51 -47z" />
    <glyph glyph-name="cedilla" unicode="&#xb8;" horiz-adv-x="499" 
d="M129 -158q8 -5 22.5 -11.5t31.5 -6.5q28 0 42 15.5t14 34.5q0 24 -16 35t-54 12l31 109l50 -8l-19 -66q24 -5 45 -23t21 -53q0 -49 -31.5 -75.5t-78.5 -26.5q-29 0 -48.5 7t-28.5 14z" />
    <glyph glyph-name="onesuperior" unicode="&#xb9;" horiz-adv-x="290" 
d="M139 349l53 361q-9 -5 -23 -8.5t-28.5 -6t-28 -4t-21.5 -1.5v49q45 4 78 16t59 36h36l-64 -442h-61z" />
    <glyph glyph-name="ordmasculine" unicode="&#xba;" horiz-adv-x="390" 
d="M191 275q-71 0 -103 37.5t-32 104.5q0 39 11.5 75t34.5 64t58 45t82 17q70 0 101 -39.5t31 -102.5q0 -38 -10.5 -74.5t-33 -64.5t-57 -45t-82.5 -17zM197 322q47 0 77.5 30t38.5 95q1 10 1.5 19.5t0.5 18.5q0 87 -80 87q-48 0 -79.5 -30.5t-39.5 -93.5q-1 -9 -1.5 -18
t-0.5 -18q0 -90 83 -90z" />
    <glyph glyph-name="guillemotright" unicode="&#xbb;" horiz-adv-x="427" 
d="M27 103l110 153l-62 152h64l66 -155l-110 -150h-68zM177 103l110 153l-62 152h64l66 -155l-110 -150h-68z" />
    <glyph glyph-name="onequarter" unicode="&#xbc;" horiz-adv-x="855" 
d="M121 282l53 361q-9 -5 -23 -8.5t-28.5 -6t-28 -4t-21.5 -1.5v49q45 4 78 16t59 36h36l-64 -442h-61zM127 -12l460 736h63l-459 -736h-64zM648 1l16 108h-210l6 43l235 291h78l-42 -284h54l-7 -50h-54l-16 -108h-60zM672 159l34 227l-185 -227h151z" />
    <glyph glyph-name="onehalf" unicode="&#xbd;" horiz-adv-x="855" 
d="M131 282l53 361q-9 -5 -23 -8.5t-28.5 -6t-28 -4t-21.5 -1.5v49q45 4 78 16t59 36h36l-64 -442h-61zM110 -12l460 736h63l-459 -736h-64zM469 1l7 50l124 124q34 34 57 58.5t37 43.5t19.5 35.5t5.5 34.5q0 29 -15.5 42t-47.5 13q-33 0 -55 -18t-35 -57l-54 10q7 30 22 52
t35 35.5t45 20t52 6.5q53 0 84 -24.5t31 -73.5q0 -26 -7 -47.5t-22 -43t-37 -45t-52 -52.5l-116 -112h198l-8 -52h-268z" />
    <glyph glyph-name="threequarters" unicode="&#xbe;" horiz-adv-x="855" 
d="M184 -12l460 736h63l-459 -736h-64zM656 1l16 108h-210l6 43l235 291h78l-42 -284h54l-7 -50h-54l-16 -108h-60zM680 159l34 227l-185 -227h151zM237 732q56 0 86 -25t30 -68q0 -27 -10 -47.5t-25.5 -35.5t-34.5 -24t-36 -13v-2q38 -7 60.5 -29t22.5 -65
q0 -68 -43.5 -108t-118.5 -40q-56 0 -90 24.5t-37 78.5l55 10q1 -12 4.5 -23.5t11.5 -21t22 -15.5t37 -6q18 0 35 5.5t30.5 17.5t22 30.5t8.5 44.5q0 40 -23.5 55t-61.5 15h-40l7 47h29q51 0 81.5 25.5t30.5 67.5q0 22 -13 38t-47 16q-38 0 -57.5 -17t-31.5 -47l-54 11
q19 55 58 78t92 23z" />
    <glyph glyph-name="questiondown" unicode="&#xbf;" horiz-adv-x="457" 
d="M164.018 -214.956q-36.9971 0 -69.9951 9.5q-32.998 9.49902 -58.4961 29.998q-25.499 20.499 -40.498 52.4971t-14.999 76.9951q0 60.9961 19.999 103.993q19.999 42.998 54.4961 71.4961q34.498 28.498 80.9951 44.4971t99.4941 22.999l17.999 129.991h62.9961
l-24.998 -176.989q-46.9971 -3.99902 -90.9951 -12.999q-43.9971 -8.99902 -77.4951 -28.998t-53.9971 -54.9971q-20.498 -34.9971 -20.498 -90.9941q0 -32.998 9.49902 -55.9961q9.5 -22.999 26.499 -37.498q16.998 -14.499 39.9971 -21.499
q22.999 -6.99902 49.9971 -6.99902q24.998 0 48.9971 5q23.998 4.99902 44.9971 18.498q20.999 13.5 37.998 36.998q16.999 23.499 27.998 61.4961l57.9961 -11.999q-7.99902 -30.998 -23.998 -60.9961t-42.998 -52.9971q-26.998 -22.998 -66.4951 -36.998
q-39.498 -13.999 -94.4951 -13.999zM246.013 454.003q0 32.998 17.499 49.9971t49.4971 16.999q50.9971 0 50.9971 -46.9971q0 -66.9961 -66.9961 -66.9961q-50.9971 0 -50.9971 46.9971z" />
    <glyph glyph-name="Agrave" unicode="&#xc0;" horiz-adv-x="625" 
d="M414 724l142 -724h-69l-44 236h-278l-107 -236h-67l334 724h89zM363 669l-172 -377h242zM337 912l83 -132l-52 -13l-117 145h86z" />
    <glyph glyph-name="Aacute" unicode="&#xc1;" horiz-adv-x="625" 
d="M414 724l142 -724h-69l-44 236h-278l-107 -236h-67l334 724h89zM363 669l-172 -377h242zM440 912h95l-158 -145l-52 13z" />
    <glyph glyph-name="Acircumflex" unicode="&#xc2;" horiz-adv-x="625" 
d="M414 724l142 -724h-69l-44 236h-278l-107 -236h-67l334 724h89zM363 669l-172 -377h242zM466 769l-79 81l-99 -83l-58 10l137 122h54l103 -122z" />
    <glyph glyph-name="Atilde" unicode="&#xc3;" horiz-adv-x="625" 
d="M414 724l142 -724h-69l-44 236h-278l-107 -236h-67l334 724h89zM363 669l-172 -377h242zM319 889q23 0 41 -7.5t33 -16t29.5 -16t31.5 -7.5q19 0 31 11.5t18 43.5l47 -2q-3 -31 -12.5 -52t-23 -34t-30 -18.5t-32.5 -5.5q-23 0 -40.5 7.5t-33.5 16t-31 16t-33 7.5
q-17 0 -28.5 -12.5t-16.5 -44.5l-46 2q3 30 12 51.5t22.5 35t29.5 19.5t32 6z" />
    <glyph glyph-name="Adieresis" unicode="&#xc4;" horiz-adv-x="625" 
d="M414 724l142 -724h-69l-44 236h-278l-107 -236h-67l334 724h89zM363 669l-172 -377h242zM228 825q0 27 17 43t44 16q21 0 33 -12t12 -32q0 -27 -16.5 -42.5t-42.5 -15.5q-22 0 -34.5 11.5t-12.5 31.5zM427 825q0 27 17 43t44 16q21 0 33 -12t12 -32q0 -27 -16.5 -42.5
t-42.5 -15.5q-22 0 -34.5 11.5t-12.5 31.5z" />
    <glyph glyph-name="Aring" unicode="&#xc5;" horiz-adv-x="625" 
d="M491 828q0 -42 -20.5 -69.5t-55.5 -38.5l141 -720h-69l-44 236h-278l-107 -236h-67l333 723q-43 19 -43 72q0 28 10 49.5t26.5 35.5t37.5 21.5t44 7.5q39 0 65.5 -19.5t26.5 -61.5zM363 669l-172 -377h242zM378 759q29 0 44.5 18t15.5 45q0 41 -45 41q-26 0 -43 -15.5
t-17 -46.5q0 -20 11 -31t34 -11z" />
    <glyph glyph-name="AE" unicode="&#xc6;" horiz-adv-x="966" 
d="M474 0l46 330h-225l-233 -330h-72l512 724h466l-8 -56h-327l-39 -279h305l-8 -57h-305l-39 -276h337l-8 -56h-402zM568 668h-40l-197 -281h197z" />
    <glyph glyph-name="Ccedilla" unicode="&#xc7;" horiz-adv-x="662" 
d="M227 -158q8 -5 22.5 -11.5t31.5 -6.5q28 0 42 15.5t14 34.5q0 24 -16 35t-54 12l19 68q-62 4 -106 26.5t-72.5 60t-42 88.5t-13.5 112q0 109 28 195t78 145t118.5 90t148.5 31q54 0 97.5 -16t73.5 -47.5t44.5 -77t11.5 -105.5l-62 -6q0 45 -8.5 80.5t-28 61t-52 39
t-80.5 13.5q-66 0 -121 -26t-95 -76t-62.5 -123t-22.5 -168q0 -127 53.5 -184.5t150.5 -57.5q87 0 139 39.5t83 124.5l59 -13q-17 -54 -44 -91.5t-62 -62t-76 -37t-85 -15.5l-9 -33q24 -5 45 -23t21 -53q0 -49 -31.5 -75.5t-78.5 -26.5q-29 0 -48.5 7t-28.5 14z" />
    <glyph glyph-name="Egrave" unicode="&#xc8;" horiz-adv-x="549" 
d="M61 0l98 724h392l-7 -56h-329l-36 -274h307l-8 -56h-307l-38 -282h338l-8 -56h-402zM348 912l83 -132l-52 -13l-117 145h86z" />
    <glyph glyph-name="Eacute" unicode="&#xc9;" horiz-adv-x="549" 
d="M61 0l98 724h392l-7 -56h-329l-36 -274h307l-8 -56h-307l-38 -282h338l-8 -56h-402zM411 912h95l-158 -145l-52 13z" />
    <glyph glyph-name="Ecircumflex" unicode="&#xca;" horiz-adv-x="549" 
d="M61 0l98 724h392l-7 -56h-329l-36 -274h307l-8 -56h-307l-38 -282h338l-8 -56h-402zM453 769l-79 81l-99 -83l-58 10l137 122h54l103 -122z" />
    <glyph glyph-name="Edieresis" unicode="&#xcb;" horiz-adv-x="549" 
d="M61 0l98 724h392l-7 -56h-329l-36 -274h307l-8 -56h-307l-38 -282h338l-8 -56h-402zM215 825q0 27 17 43t44 16q21 0 33 -12t12 -32q0 -27 -16.5 -42.5t-42.5 -15.5q-22 0 -34.5 11.5t-12.5 31.5zM414 825q0 27 17 43t44 16q21 0 33 -12t12 -32q0 -27 -16.5 -42.5
t-42.5 -15.5q-22 0 -34.5 11.5t-12.5 31.5z" />
    <glyph glyph-name="Igrave" unicode="&#xcc;" horiz-adv-x="265" 
d="M61 0l98 724h64l-98 -724h-64zM183 912l83 -132l-52 -13l-117 145h86z" />
    <glyph glyph-name="Iacute" unicode="&#xcd;" horiz-adv-x="265" 
d="M61 0l98 724h64l-98 -724h-64zM241 912h95l-158 -145l-52 13z" />
    <glyph glyph-name="Icircumflex" unicode="&#xce;" horiz-adv-x="265" 
d="M61 0l98 724h64l-98 -724h-64zM288 769l-79 81l-99 -83l-58 10l137 122h54l103 -122z" />
    <glyph glyph-name="Idieresis" unicode="&#xcf;" horiz-adv-x="265" 
d="M61 0l98 724h64l-98 -724h-64zM50 825q0 27 17 43t44 16q21 0 33 -12t12 -32q0 -27 -16.5 -42.5t-42.5 -15.5q-22 0 -34.5 11.5t-12.5 31.5zM249 825q0 27 17 43t44 16q21 0 33 -12t12 -32q0 -27 -16.5 -42.5t-42.5 -15.5q-22 0 -34.5 11.5t-12.5 31.5z" />
    <glyph glyph-name="Eth" unicode="&#xd0;" horiz-adv-x="714" 
d="M72 0l46 342h-70l8 56h70l44 326h201q79 0 136.5 -20.5t94.5 -58.5t54.5 -92t17.5 -120q0 -93 -24.5 -172.5t-76 -137.5t-130 -90.5t-186.5 -32.5h-185zM265 56q163 0 252 98.5t89 281.5q0 65 -17 109.5t-49 71.5t-78 39t-103 12h-132l-37 -270h247l-8 -56h-246l-39 -286
h121z" />
    <glyph glyph-name="Ntilde" unicode="&#xd1;" horiz-adv-x="714" 
d="M493 0l-282 652l-89 -652h-61l98 724h92l273 -643l88 643h60l-98 -724h-81zM370 889q23 0 41 -7.5t33 -16t29.5 -16t31.5 -7.5q19 0 31 11.5t18 43.5l47 -2q-3 -31 -12.5 -52t-23 -34t-30 -18.5t-32.5 -5.5q-23 0 -40.5 7.5t-33.5 16t-31 16t-33 7.5q-17 0 -28.5 -12.5
t-16.5 -44.5l-46 2q3 30 12 51.5t22.5 35t29.5 19.5t32 6z" />
    <glyph glyph-name="Ograve" unicode="&#xd2;" horiz-adv-x="729" 
d="M326 -12q-71 0 -122.5 22.5t-85.5 62.5t-50 95t-16 121q0 97 24.5 179t71.5 142t117 93.5t162 33.5q69 0 119.5 -22.5t83 -62t48 -93t15.5 -114.5q0 -107 -25.5 -191.5t-73 -143.5t-115.5 -90.5t-153 -31.5zM332 47q61 0 114.5 24.5t92.5 73t61.5 121t22.5 167.5
q0 57 -14 104q-20 69 -67.5 105.5t-123.5 36.5q-62 0 -116.5 -24.5t-94.5 -72.5t-63 -119.5t-23 -164.5q0 -59 14 -107q20 -70 68.5 -107t128.5 -37zM417 912l83 -132l-52 -13l-117 145h86z" />
    <glyph glyph-name="Oacute" unicode="&#xd3;" horiz-adv-x="729" 
d="M326 -12q-71 0 -122.5 22.5t-85.5 62.5t-50 95t-16 121q0 97 24.5 179t71.5 142t117 93.5t162 33.5q69 0 119.5 -22.5t83 -62t48 -93t15.5 -114.5q0 -107 -25.5 -191.5t-73 -143.5t-115.5 -90.5t-153 -31.5zM332 47q61 0 114.5 24.5t92.5 73t61.5 121t22.5 167.5
q0 57 -14 104q-20 69 -67.5 105.5t-123.5 36.5q-62 0 -116.5 -24.5t-94.5 -72.5t-63 -119.5t-23 -164.5q0 -59 14 -107q20 -70 68.5 -107t128.5 -37zM475 912h95l-158 -145l-52 13z" />
    <glyph glyph-name="Ocircumflex" unicode="&#xd4;" horiz-adv-x="729" 
d="M326 -12q-71 0 -122.5 22.5t-85.5 62.5t-50 95t-16 121q0 97 24.5 179t71.5 142t117 93.5t162 33.5q69 0 119.5 -22.5t83 -62t48 -93t15.5 -114.5q0 -107 -25.5 -191.5t-73 -143.5t-115.5 -90.5t-153 -31.5zM332 47q61 0 114.5 24.5t92.5 73t61.5 121t22.5 167.5
q0 57 -14 104q-20 69 -67.5 105.5t-123.5 36.5q-62 0 -116.5 -24.5t-94.5 -72.5t-63 -119.5t-23 -164.5q0 -59 14 -107q20 -70 68.5 -107t128.5 -37zM522 769l-79 81l-99 -83l-58 10l137 122h54l103 -122z" />
    <glyph glyph-name="Otilde" unicode="&#xd5;" horiz-adv-x="729" 
d="M326 -12q-71 0 -122.5 22.5t-85.5 62.5t-50 95t-16 121q0 97 24.5 179t71.5 142t117 93.5t162 33.5q69 0 119.5 -22.5t83 -62t48 -93t15.5 -114.5q0 -107 -25.5 -191.5t-73 -143.5t-115.5 -90.5t-153 -31.5zM332 47q61 0 114.5 24.5t92.5 73t61.5 121t22.5 167.5
q0 57 -14 104q-20 69 -67.5 105.5t-123.5 36.5q-62 0 -116.5 -24.5t-94.5 -72.5t-63 -119.5t-23 -164.5q0 -59 14 -107q20 -70 68.5 -107t128.5 -37zM375 889q23 0 41 -7.5t33 -16t29.5 -16t31.5 -7.5q19 0 31 11.5t18 43.5l47 -2q-3 -31 -12.5 -52t-23 -34t-30 -18.5
t-32.5 -5.5q-23 0 -40.5 7.5t-33.5 16t-31 16t-33 7.5q-17 0 -28.5 -12.5t-16.5 -44.5l-46 2q3 30 12 51.5t22.5 35t29.5 19.5t32 6z" />
    <glyph glyph-name="Odieresis" unicode="&#xd6;" horiz-adv-x="729" 
d="M326 -12q-71 0 -122.5 22.5t-85.5 62.5t-50 95t-16 121q0 97 24.5 179t71.5 142t117 93.5t162 33.5q69 0 119.5 -22.5t83 -62t48 -93t15.5 -114.5q0 -107 -25.5 -191.5t-73 -143.5t-115.5 -90.5t-153 -31.5zM332 47q61 0 114.5 24.5t92.5 73t61.5 121t22.5 167.5
q0 57 -14 104q-20 69 -67.5 105.5t-123.5 36.5q-62 0 -116.5 -24.5t-94.5 -72.5t-63 -119.5t-23 -164.5q0 -59 14 -107q20 -70 68.5 -107t128.5 -37zM284 825q0 27 17 43t44 16q21 0 33 -12t12 -32q0 -27 -16.5 -42.5t-42.5 -15.5q-22 0 -34.5 11.5t-12.5 31.5zM483 825
q0 27 17 43t44 16q21 0 33 -12t12 -32q0 -27 -16.5 -42.5t-42.5 -15.5q-22 0 -34.5 11.5t-12.5 31.5z" />
    <glyph glyph-name="multiply" unicode="&#xd7;" 
d="M261 272l-123 -109l-41 48l123 109l-92 110l55 48l91 -109l124 109l41 -48l-124 -110l93 -109l-55 -48z" />
    <glyph glyph-name="Oslash" unicode="&#xd8;" horiz-adv-x="729" 
d="M326 -12q-35 0 -63 6l-29 -72h-62l35 87q-80 32 -117.5 106t-37.5 174q0 97 24.5 179t71.5 142t117 93.5t162 33.5q37 0 72 -8l24 60h62l-32 -78q72 -34 106 -104.5t34 -161.5q0 -107 -25.5 -191.5t-73 -143.5t-115.5 -90.5t-153 -31.5zM135 191q24 -90 96 -124l245 605
q-25 7 -58 7q-62 0 -116.5 -24.5t-94.5 -72.5t-63 -119.5t-23 -164.5q0 -59 14 -107zM332 47q61 0 114.5 24.5t92.5 73t61.5 121t22.5 167.5q0 57 -14 104q-23 77 -80 113l-243 -600q21 -3 46 -3z" />
    <glyph glyph-name="Ugrave" unicode="&#xd9;" horiz-adv-x="690" 
d="M584 235q-33 -247 -278 -247q-130 0 -182 64t-35 184l66 488h64l-65 -484q-14 -107 27 -150.5t127 -43.5q44 0 80 9.5t63 32t45 59.5t25 91l65 486h64zM396 912l83 -132l-52 -13l-117 145h86z" />
    <glyph glyph-name="Uacute" unicode="&#xda;" horiz-adv-x="690" 
d="M584 235q-33 -247 -278 -247q-130 0 -182 64t-35 184l66 488h64l-65 -484q-14 -107 27 -150.5t127 -43.5q44 0 80 9.5t63 32t45 59.5t25 91l65 486h64zM467 912h95l-158 -145l-52 13z" />
    <glyph glyph-name="Ucircumflex" unicode="&#xdb;" horiz-adv-x="690" 
d="M584 235q-33 -247 -278 -247q-130 0 -182 64t-35 184l66 488h64l-65 -484q-14 -107 27 -150.5t127 -43.5q44 0 80 9.5t63 32t45 59.5t25 91l65 486h64zM501 769l-79 81l-99 -83l-58 10l137 122h54l103 -122z" />
    <glyph glyph-name="Udieresis" unicode="&#xdc;" horiz-adv-x="690" 
d="M584 235q-33 -247 -278 -247q-130 0 -182 64t-35 184l66 488h64l-65 -484q-14 -107 27 -150.5t127 -43.5q44 0 80 9.5t63 32t45 59.5t25 91l65 486h64zM263 825q0 27 17 43t44 16q21 0 33 -12t12 -32q0 -27 -16.5 -42.5t-42.5 -15.5q-22 0 -34.5 11.5t-12.5 31.5z
M462 825q0 27 17 43t44 16q21 0 33 -12t12 -32q0 -27 -16.5 -42.5t-42.5 -15.5q-22 0 -34.5 11.5t-12.5 31.5z" />
    <glyph glyph-name="Yacute" unicode="&#xdd;" horiz-adv-x="520" 
d="M295 287q-11 -72 -20 -143.5t-20 -143.5h-64l39 284l-177 440h68l148 -376l244 376h68l-286 -437v0zM370 912h95l-158 -145l-52 13z" />
    <glyph glyph-name="Thorn" unicode="&#xde;" horiz-adv-x="575" 
d="M127 0h-66l102 724h66l-17 -121h132q64 0 108.5 -14t72.5 -38.5t40.5 -57.5t12.5 -72q0 -68 -20.5 -116.5t-59.5 -79.5t-95 -45.5t-127 -14.5h-126zM275 224q49 0 91 7t73.5 27.5t49.5 57.5t18 98q0 69 -46 100t-135 31h-122l-46 -321h117z" />
    <glyph glyph-name="germandbls" unicode="&#xdf;" horiz-adv-x="665" 
d="M21 -212l106 761q8 59 30.5 100.5t56.5 67.5t77.5 38t93.5 12q97 0 145.5 -43t48.5 -114q0 -41 -11 -71.5t-30.5 -53.5t-45.5 -39.5t-56 -28.5v-3q33 -5 62.5 -16.5t52 -32.5t36 -52t13.5 -74q0 -56 -16 -102t-45.5 -79t-71 -51t-92.5 -18q-77 0 -122 37t-50 118l60 10
q3 -23 8.5 -43t17.5 -34.5t32.5 -23t53.5 -8.5q34 0 63 12.5t50 36.5t32.5 58.5t11.5 79.5q0 42 -14.5 70.5t-40 46t-59.5 24.5t-72 7h-42l8 56h15q50 0 85 15t56.5 38.5t31 52.5t9.5 57q0 60 -33 85.5t-94 25.5q-38 0 -70 -8t-56 -27.5t-40 -52.5t-23 -84l-105 -750h-67z
" />
    <glyph glyph-name="agrave" unicode="&#xe0;" horiz-adv-x="574" 
d="M454 86q-3 -21 1 -32.5t23 -11.5q7 0 14.5 1t18.5 4l-6 -45q-10 -4 -21.5 -5.5t-23.5 -1.5q-32 0 -50.5 16.5t-15.5 58.5q-34 -37 -83.5 -59.5t-100.5 -22.5q-35 0 -65 11t-51.5 35t-33.5 61t-12 90q0 56 13 115.5t42 108.5t77 80.5t118 31.5q44 0 83 -17.5t64 -38.5
l8 46h61zM434 406q-11 10 -26 20t-33.5 18.5t-39.5 13.5t-43 5q-51 0 -85.5 -27t-55 -68t-29.5 -89t-9 -89t7.5 -69t22 -45t34.5 -24.5t44 -7.5q41 0 81 18t94 69zM342 572l-117 177h86l83 -164z" />
    <glyph glyph-name="aacute" unicode="&#xe1;" horiz-adv-x="574" 
d="M454 86q-3 -21 1 -32.5t23 -11.5q7 0 14.5 1t18.5 4l-6 -45q-10 -4 -21.5 -5.5t-23.5 -1.5q-32 0 -50.5 16.5t-15.5 58.5q-34 -37 -83.5 -59.5t-100.5 -22.5q-35 0 -65 11t-51.5 35t-33.5 61t-12 90q0 56 13 115.5t42 108.5t77 80.5t118 31.5q44 0 83 -17.5t64 -38.5
l8 46h61zM434 406q-11 10 -26 20t-33.5 18.5t-39.5 13.5t-43 5q-51 0 -85.5 -27t-55 -68t-29.5 -89t-9 -89t7.5 -69t22 -45t34.5 -24.5t44 -7.5q41 0 81 18t94 69zM382 749h93l-167 -177l-50 13z" />
    <glyph glyph-name="acircumflex" unicode="&#xe2;" horiz-adv-x="574" 
d="M454 86q-3 -21 1 -32.5t23 -11.5q7 0 14.5 1t18.5 4l-6 -45q-10 -4 -21.5 -5.5t-23.5 -1.5q-32 0 -50.5 16.5t-15.5 58.5q-34 -37 -83.5 -59.5t-100.5 -22.5q-35 0 -65 11t-51.5 35t-33.5 61t-12 90q0 56 13 115.5t42 108.5t77 80.5t118 31.5q44 0 83 -17.5t64 -38.5
l8 46h61zM434 406q-11 10 -26 20t-33.5 18.5t-39.5 13.5t-43 5q-51 0 -85.5 -27t-55 -68t-29.5 -89t-9 -89t7.5 -69t22 -45t34.5 -24.5t44 -7.5q41 0 81 18t94 69zM422 578l-79 122l-109 -124l-56 8l137 165h67l95 -165z" />
    <glyph glyph-name="atilde" unicode="&#xe3;" horiz-adv-x="574" 
d="M454 86q-3 -21 1 -32.5t23 -11.5q7 0 14.5 1t18.5 4l-6 -45q-10 -4 -21.5 -5.5t-23.5 -1.5q-32 0 -50.5 16.5t-15.5 58.5q-34 -37 -83.5 -59.5t-100.5 -22.5q-35 0 -65 11t-51.5 35t-33.5 61t-12 90q0 56 13 115.5t42 108.5t77 80.5t118 31.5q44 0 83 -17.5t64 -38.5
l8 46h61zM434 406q-11 10 -26 20t-33.5 18.5t-39.5 13.5t-43 5q-51 0 -85.5 -27t-55 -68t-29.5 -89t-9 -89t7.5 -69t22 -45t34.5 -24.5t44 -7.5q41 0 81 18t94 69zM265 708q23 0 41 -7.5t33 -16t29.5 -16t31.5 -7.5q20 0 32 12.5t17 42.5l47 -2q-8 -62 -35.5 -86t-62.5 -24
q-23 0 -40.5 7.5t-33.5 16t-31 16t-33 7.5q-17 0 -28.5 -12.5t-16.5 -44.5l-46 2q7 62 35 87t61 25z" />
    <glyph glyph-name="adieresis" unicode="&#xe4;" horiz-adv-x="574" 
d="M454 86q-3 -21 1 -32.5t23 -11.5q7 0 14.5 1t18.5 4l-6 -45q-10 -4 -21.5 -5.5t-23.5 -1.5q-32 0 -50.5 16.5t-15.5 58.5q-34 -37 -83.5 -59.5t-100.5 -22.5q-35 0 -65 11t-51.5 35t-33.5 61t-12 90q0 56 13 115.5t42 108.5t77 80.5t118 31.5q44 0 83 -17.5t64 -38.5
l8 46h61zM434 406q-11 10 -26 20t-33.5 18.5t-39.5 13.5t-43 5q-51 0 -85.5 -27t-55 -68t-29.5 -89t-9 -89t7.5 -69t22 -45t34.5 -24.5t44 -7.5q41 0 81 18t94 69zM199 660q0 27 17 43t44 16q21 0 33 -12t12 -32q0 -27 -16.5 -42.5t-42.5 -15.5q-22 0 -34.5 11.5t-12.5 31.5
zM398 660q0 27 17 43t44 16q21 0 33 -12t12 -32q0 -27 -16.5 -42.5t-42.5 -15.5q-22 0 -34.5 11.5t-12.5 31.5z" />
    <glyph glyph-name="aring" unicode="&#xe5;" horiz-adv-x="574" 
d="M454 86q-3 -21 1 -32.5t23 -11.5q7 0 14.5 1t18.5 4l-6 -45q-10 -4 -21.5 -5.5t-23.5 -1.5q-32 0 -50.5 16.5t-15.5 58.5q-34 -37 -83.5 -59.5t-100.5 -22.5q-35 0 -65 11t-51.5 35t-33.5 61t-12 90q0 56 13 115.5t42 108.5t77 80.5t118 31.5q44 0 83 -17.5t64 -38.5
l8 46h61zM434 406q-11 10 -26 20t-33.5 18.5t-39.5 13.5t-43 5q-51 0 -85.5 -27t-55 -68t-29.5 -89t-9 -89t7.5 -69t22 -45t34.5 -24.5t44 -7.5q41 0 81 18t94 69zM442 689q0 -53 -32.5 -83.5t-86.5 -30.5q-42 0 -66.5 21.5t-24.5 59.5q0 28 10 49.5t26.5 35.5t37.5 21.5
t44 7.5q39 0 65.5 -19.5t26.5 -61.5zM329 620q29 0 44.5 18t15.5 45q0 41 -45 41q-26 0 -43 -15.5t-17 -46.5q0 -20 11 -31t34 -11z" />
    <glyph glyph-name="ae" unicode="&#xe6;" horiz-adv-x="850" 
d="M580 -12q-65 0 -105 24t-61 66q-53 -49 -103 -69.5t-99 -20.5q-35 0 -65 11t-51.5 35t-33.5 61t-12 90q0 56 13 115.5t42 108.5t77 80.5t118 31.5q44 0 83 -17.5t64 -38.5l8 46h61l-6 -32q28 19 65 30.5t79 11.5q39 0 68.5 -10t49.5 -27.5t30 -41t10 -50.5q0 -44 -20 -75
t-51.5 -51.5t-71.5 -32t-80 -17.5t-76 -8t-61 -3q0 -37 8 -71t31 -57q16 -15 40 -24t60 -9q60 0 95.5 31t48.5 73l57 -12q-11 -39 -32.5 -67t-49.5 -46t-61.5 -26.5t-68.5 -8.5zM396 129q-9 39 -9 83q0 52 13 101.5t40 91.5q-28 26 -65.5 42t-80.5 16q-51 0 -85.5 -27
t-55 -68t-29.5 -89t-9 -89t7.5 -69t22 -45t34.5 -24.5t44 -7.5q21 0 41 4t40.5 13.5t43 26t48.5 41.5zM651 466q-46 0 -80.5 -17.5t-58.5 -46.5t-38 -66.5t-19 -76.5q13 1 39.5 2t59 4.5t67 11.5t63 22t46.5 36t18 55q0 38 -26 57t-71 19z" />
    <glyph glyph-name="ccedilla" unicode="&#xe7;" horiz-adv-x="531" 
d="M149 -158q8 -5 22.5 -11.5t31.5 -6.5q28 0 42 15.5t14 34.5q0 24 -16 35t-54 12l19 69q-43 5 -73 22.5t-49.5 45.5t-28.5 64.5t-9 79.5q0 77 21 136.5t57.5 100t86.5 61.5t109 21q43 0 76.5 -15t55 -41t30.5 -62t4 -78l-64 -5q1 33 -3 59.5t-16.5 45t-35 28.5t-57.5 10
q-33 0 -67.5 -12.5t-63 -42t-46.5 -79t-18 -123.5q0 -45 11 -76t29 -50t42 -27.5t51 -8.5q56 0 95 27t58 88l61 -13q-11 -39 -30.5 -68t-46.5 -48.5t-59.5 -29.5t-67.5 -11l-9 -33q24 -5 45 -23t21 -53q0 -49 -31.5 -75.5t-78.5 -26.5q-29 0 -48.5 7t-28.5 14z" />
    <glyph glyph-name="egrave" unicode="&#xe8;" horiz-adv-x="512" 
d="M242 -12q-54 0 -91 17.5t-59.5 48t-32.5 71.5t-10 87q0 58 16.5 113.5t50 99t83.5 70t117 26.5q39 0 68.5 -10t49.5 -27.5t30 -41t10 -50.5q0 -33 -11.5 -59t-31 -45t-45.5 -32.5t-55 -22.5t-60 -14t-59.5 -8t-54 -4t-43.5 -2q0 -31 5 -60t20 -51.5t42 -36t72 -13.5
q60 0 95.5 31t48.5 73l57 -12q-11 -39 -32.5 -67t-49.5 -46t-61.5 -26.5t-68.5 -8.5zM313 466q-46 0 -80.5 -17.5t-58.5 -46.5t-38 -66.5t-19 -76.5q9 0 31 1t50.5 3.5t61 8t62.5 15.5q39 13 63.5 37.5t24.5 65.5q0 38 -26 57t-71 19zM347 572l-117 177h86l83 -164z" />
    <glyph glyph-name="eacute" unicode="&#xe9;" horiz-adv-x="512" 
d="M242 -12q-54 0 -91 17.5t-59.5 48t-32.5 71.5t-10 87q0 58 16.5 113.5t50 99t83.5 70t117 26.5q39 0 68.5 -10t49.5 -27.5t30 -41t10 -50.5q0 -33 -11.5 -59t-31 -45t-45.5 -32.5t-55 -22.5t-60 -14t-59.5 -8t-54 -4t-43.5 -2q0 -31 5 -60t20 -51.5t42 -36t72 -13.5
q60 0 95.5 31t48.5 73l57 -12q-11 -39 -32.5 -67t-49.5 -46t-61.5 -26.5t-68.5 -8.5zM313 466q-46 0 -80.5 -17.5t-58.5 -46.5t-38 -66.5t-19 -76.5q9 0 31 1t50.5 3.5t61 8t62.5 15.5q39 13 63.5 37.5t24.5 65.5q0 38 -26 57t-71 19zM387 749h93l-167 -177l-50 13z" />
    <glyph glyph-name="ecircumflex" unicode="&#xea;" horiz-adv-x="512" 
d="M242 -12q-54 0 -91 17.5t-59.5 48t-32.5 71.5t-10 87q0 58 16.5 113.5t50 99t83.5 70t117 26.5q39 0 68.5 -10t49.5 -27.5t30 -41t10 -50.5q0 -33 -11.5 -59t-31 -45t-45.5 -32.5t-55 -22.5t-60 -14t-59.5 -8t-54 -4t-43.5 -2q0 -31 5 -60t20 -51.5t42 -36t72 -13.5
q60 0 95.5 31t48.5 73l57 -12q-11 -39 -32.5 -67t-49.5 -46t-61.5 -26.5t-68.5 -8.5zM313 466q-46 0 -80.5 -17.5t-58.5 -46.5t-38 -66.5t-19 -76.5q9 0 31 1t50.5 3.5t61 8t62.5 15.5q39 13 63.5 37.5t24.5 65.5q0 38 -26 57t-71 19zM427 578l-79 122l-109 -124l-56 8
l137 165h67l95 -165z" />
    <glyph glyph-name="edieresis" unicode="&#xeb;" horiz-adv-x="512" 
d="M242 -12q-54 0 -91 17.5t-59.5 48t-32.5 71.5t-10 87q0 58 16.5 113.5t50 99t83.5 70t117 26.5q39 0 68.5 -10t49.5 -27.5t30 -41t10 -50.5q0 -33 -11.5 -59t-31 -45t-45.5 -32.5t-55 -22.5t-60 -14t-59.5 -8t-54 -4t-43.5 -2q0 -31 5 -60t20 -51.5t42 -36t72 -13.5
q60 0 95.5 31t48.5 73l57 -12q-11 -39 -32.5 -67t-49.5 -46t-61.5 -26.5t-68.5 -8.5zM313 466q-46 0 -80.5 -17.5t-58.5 -46.5t-38 -66.5t-19 -76.5q9 0 31 1t50.5 3.5t61 8t62.5 15.5q39 13 63.5 37.5t24.5 65.5q0 38 -26 57t-71 19zM189 660q0 27 17 43t44 16q21 0 33 -12
t12 -32q0 -27 -16.5 -42.5t-42.5 -15.5q-22 0 -34.5 11.5t-12.5 31.5zM388 660q0 27 17 43t44 16q21 0 33 -12t12 -32q0 -27 -16.5 -42.5t-42.5 -15.5q-22 0 -34.5 11.5t-12.5 31.5z" />
    <glyph glyph-name="igrave" unicode="&#xec;" horiz-adv-x="239" 
d="M114 0h-67l72 511h67zM177 572l-117 177h86l83 -164z" />
    <glyph glyph-name="iacute" unicode="&#xed;" horiz-adv-x="239" 
d="M114 0h-67l72 511h67zM217 749h93l-167 -177l-50 13z" />
    <glyph glyph-name="icircumflex" unicode="&#xee;" horiz-adv-x="239" 
d="M114 0h-67l72 511h67zM257 578l-79 122l-109 -124l-56 8l137 165h67l95 -165z" />
    <glyph glyph-name="idieresis" unicode="&#xef;" horiz-adv-x="239" 
d="M114 0h-67l72 511h67zM19 660q0 27 17 43t44 16q21 0 33 -12t12 -32q0 -27 -16.5 -42.5t-42.5 -15.5q-22 0 -34.5 11.5t-12.5 31.5zM218 660q0 27 17 43t44 16q21 0 33 -12t12 -32q0 -27 -16.5 -42.5t-42.5 -15.5q-22 0 -34.5 11.5t-12.5 31.5z" />
    <glyph glyph-name="eth" unicode="&#xf0;" horiz-adv-x="560" 
d="M304 666q-56 38 -128 53l39 43q88 -24 147 -66l116 58l22 -48l-94 -47q55 -57 78 -129.5t23 -156.5q0 -41 -4.5 -86t-15.5 -87.5t-30.5 -81t-49 -67.5t-71 -46t-96.5 -17q-54 0 -92.5 16t-63 44.5t-36 68.5t-11.5 88q0 58 17 112t49.5 94.5t80 65t109.5 24.5
q42 0 81 -13.5t65 -36.5q1 0 1 0.5t1 0.5q-11 56 -34 100t-58 78l-120 -60l-22 47zM292 445q-45 0 -80 -18.5t-59.5 -51t-37 -77t-12.5 -95.5q0 -29 6.5 -58t22 -51.5t41.5 -36.5t65 -14q61 0 101.5 27t64 73t33 107.5t9.5 130.5q-9 12 -24.5 23.5t-35.5 20.5t-44 14.5
t-50 5.5z" />
    <glyph glyph-name="ntilde" unicode="&#xf1;" horiz-adv-x="581" 
d="M117 0h-67l72 511h64l-11 -72q15 13 37 27.5t47.5 26.5t54.5 20t59 8q76 0 111.5 -43.5t23.5 -132.5l-48 -345h-67l48 341q18 123 -77 123q-28 0 -56 -9t-53.5 -22t-47 -28.5t-37.5 -27.5zM274 708q23 0 41 -7.5t33 -16t29.5 -16t31.5 -7.5q20 0 32 12.5t17 42.5l47 -2
q-8 -62 -35.5 -86t-62.5 -24q-23 0 -40.5 7.5t-33.5 16t-31 16t-33 7.5q-17 0 -28.5 -12.5t-16.5 -44.5l-46 2q7 62 35 87t61 25z" />
    <glyph glyph-name="ograve" unicode="&#xf2;" horiz-adv-x="573" 
d="M246 -12q-52 0 -89.5 15t-61.5 42t-35.5 65t-11.5 84q0 17 1 33.5t3 33.5q7 57 28 105t55 82.5t81 53.5t107 19q53 0 89.5 -16t59.5 -43.5t33.5 -65.5t10.5 -82q0 -17 -1 -33.5t-3 -32.5q-14 -123 -82.5 -191.5t-183.5 -68.5zM253 43q78 0 129.5 54t62.5 160q3 27 3 58
q0 147 -133 147q-81 0 -133 -52t-64 -154q-3 -26 -3 -56q0 -76 34 -116.5t104 -40.5zM345 572l-117 177h86l83 -164z" />
    <glyph glyph-name="oacute" unicode="&#xf3;" horiz-adv-x="573" 
d="M246 -12q-52 0 -89.5 15t-61.5 42t-35.5 65t-11.5 84q0 17 1 33.5t3 33.5q7 57 28 105t55 82.5t81 53.5t107 19q53 0 89.5 -16t59.5 -43.5t33.5 -65.5t10.5 -82q0 -17 -1 -33.5t-3 -32.5q-14 -123 -82.5 -191.5t-183.5 -68.5zM253 43q78 0 129.5 54t62.5 160q3 27 3 58
q0 147 -133 147q-81 0 -133 -52t-64 -154q-3 -26 -3 -56q0 -76 34 -116.5t104 -40.5zM385 749h93l-167 -177l-50 13z" />
    <glyph glyph-name="ocircumflex" unicode="&#xf4;" horiz-adv-x="573" 
d="M246 -12q-52 0 -89.5 15t-61.5 42t-35.5 65t-11.5 84q0 17 1 33.5t3 33.5q7 57 28 105t55 82.5t81 53.5t107 19q53 0 89.5 -16t59.5 -43.5t33.5 -65.5t10.5 -82q0 -17 -1 -33.5t-3 -32.5q-14 -123 -82.5 -191.5t-183.5 -68.5zM253 43q78 0 129.5 54t62.5 160q3 27 3 58
q0 147 -133 147q-81 0 -133 -52t-64 -154q-3 -26 -3 -56q0 -76 34 -116.5t104 -40.5zM425 578l-79 122l-109 -124l-56 8l137 165h67l95 -165z" />
    <glyph glyph-name="otilde" unicode="&#xf5;" horiz-adv-x="573" 
d="M246 -12q-52 0 -89.5 15t-61.5 42t-35.5 65t-11.5 84q0 17 1 33.5t3 33.5q7 57 28 105t55 82.5t81 53.5t107 19q53 0 89.5 -16t59.5 -43.5t33.5 -65.5t10.5 -82q0 -17 -1 -33.5t-3 -32.5q-14 -123 -82.5 -191.5t-183.5 -68.5zM253 43q78 0 129.5 54t62.5 160q3 27 3 58
q0 147 -133 147q-81 0 -133 -52t-64 -154q-3 -26 -3 -56q0 -76 34 -116.5t104 -40.5zM268 708q23 0 41 -7.5t33 -16t29.5 -16t31.5 -7.5q20 0 32 12.5t17 42.5l47 -2q-8 -62 -35.5 -86t-62.5 -24q-23 0 -40.5 7.5t-33.5 16t-31 16t-33 7.5q-17 0 -28.5 -12.5t-16.5 -44.5
l-46 2q7 62 35 87t61 25z" />
    <glyph glyph-name="odieresis" unicode="&#xf6;" horiz-adv-x="573" 
d="M246 -12q-52 0 -89.5 15t-61.5 42t-35.5 65t-11.5 84q0 17 1 33.5t3 33.5q7 57 28 105t55 82.5t81 53.5t107 19q53 0 89.5 -16t59.5 -43.5t33.5 -65.5t10.5 -82q0 -17 -1 -33.5t-3 -32.5q-14 -123 -82.5 -191.5t-183.5 -68.5zM253 43q78 0 129.5 54t62.5 160q3 27 3 58
q0 147 -133 147q-81 0 -133 -52t-64 -154q-3 -26 -3 -56q0 -76 34 -116.5t104 -40.5zM187 660q0 27 17 43t44 16q21 0 33 -12t12 -32q0 -27 -16.5 -42.5t-42.5 -15.5q-22 0 -34.5 11.5t-12.5 31.5zM386 660q0 27 17 43t44 16q21 0 33 -12t12 -32q0 -27 -16.5 -42.5
t-42.5 -15.5q-22 0 -34.5 11.5t-12.5 31.5z" />
    <glyph glyph-name="divide" unicode="&#xf7;" horiz-adv-x="569" 
d="M314 181q0 -33 -17 -50t-49 -17q-51 0 -51 47q0 67 67 67q50 0 50 -47zM92 288l9 66h373l-9 -66h-373zM357 483q0 -33 -17.5 -50t-49.5 -17q-51 0 -51 47q0 33 17.5 50t49.5 17q51 0 51 -47z" />
    <glyph glyph-name="oslash" unicode="&#xf8;" horiz-adv-x="573" 
d="M246 -12q-21 0 -40 3l-27 -69h-62l33 83q-54 23 -78 72t-24 117q0 17 1 33.5t3 33.5q7 57 28 105t55 82.5t81 53.5t107 19q9 0 18 -0.5t17 -1.5l27 65h62l-33 -80q55 -24 78.5 -74t23.5 -116q0 -17 -1 -33.5t-3 -32.5q-14 -123 -82.5 -191.5t-183.5 -68.5zM253 43
q78 0 129.5 54t62.5 160q3 27 3 58q0 95 -58 129l-162 -400q6 -1 12 -1h13zM115 200q0 -101 58 -138l162 399q-5 0 -10 0.5t-10 0.5q-81 0 -133 -52t-64 -154q-3 -26 -3 -56z" />
    <glyph glyph-name="ugrave" unicode="&#xf9;" horiz-adv-x="581" 
d="M458 511h67l-72 -511h-61l9 69q-15 -13 -37 -27t-48 -25.5t-55 -19t-59 -7.5q-77 0 -110.5 43.5t-21.5 132.5l48 345h67l-48 -341q-3 -21 -3.5 -38.5t2.5 -31.5q10 -54 79 -54q26 0 52 7t51 19t47 27t40 30zM345 572l-117 177h86l83 -164z" />
    <glyph glyph-name="uacute" unicode="&#xfa;" horiz-adv-x="581" 
d="M458 511h67l-72 -511h-61l9 69q-15 -13 -37 -27t-48 -25.5t-55 -19t-59 -7.5q-77 0 -110.5 43.5t-21.5 132.5l48 345h67l-48 -341q-3 -21 -3.5 -38.5t2.5 -31.5q10 -54 79 -54q26 0 52 7t51 19t47 27t40 30zM401 749h93l-167 -177l-50 13z" />
    <glyph glyph-name="ucircumflex" unicode="&#xfb;" horiz-adv-x="581" 
d="M458 511h67l-72 -511h-61l9 69q-15 -13 -37 -27t-48 -25.5t-55 -19t-59 -7.5q-77 0 -110.5 43.5t-21.5 132.5l48 345h67l-48 -341q-3 -21 -3.5 -38.5t2.5 -31.5q10 -54 79 -54q26 0 52 7t51 19t47 27t40 30zM425 578l-79 122l-109 -124l-56 8l137 165h67l95 -165z" />
    <glyph glyph-name="udieresis" unicode="&#xfc;" horiz-adv-x="581" 
d="M458 511h67l-72 -511h-61l9 69q-15 -13 -37 -27t-48 -25.5t-55 -19t-59 -7.5q-77 0 -110.5 43.5t-21.5 132.5l48 345h67l-48 -341q-3 -21 -3.5 -38.5t2.5 -31.5q10 -54 79 -54q26 0 52 7t51 19t47 27t40 30zM187 660q0 27 17 43t44 16q21 0 33 -12t12 -32
q0 -27 -16.5 -42.5t-42.5 -15.5q-22 0 -34.5 11.5t-12.5 31.5zM386 660q0 27 17 43t44 16q21 0 33 -12t12 -32q0 -27 -16.5 -42.5t-42.5 -15.5q-22 0 -34.5 11.5t-12.5 31.5z" />
    <glyph glyph-name="yacute" unicode="&#xfd;" horiz-adv-x="461" 
d="M47 511h68l82 -432l206 432h70l-270 -541q-28 -55 -49.5 -92t-42.5 -59.5t-44.5 -32t-55.5 -9.5q-28 0 -47.5 5t-33.5 11l13 51q11 -5 29 -10t40 -5q19 0 35 8.5t31.5 28t33 52t38.5 80.5zM325 749h93l-167 -177l-50 13z" />
    <glyph glyph-name="thorn" unicode="&#xfe;" horiz-adv-x="582" 
d="M132 106q8 -7 21.5 -17t31.5 -19.5t40.5 -16t49.5 -6.5q51 0 86 24.5t56.5 64t30.5 89.5t9 101q0 75 -24.5 106t-72.5 31q-25 0 -52.5 -9t-53.5 -22.5t-48 -28.5t-36 -28zM156 755h66l-45 -315q20 15 41.5 29t45.5 25.5t50 18.5t56 7q34 0 63 -10.5t49 -33.5t31.5 -60
t11.5 -89q0 -89 -21 -153.5t-56 -106t-80.5 -61t-93.5 -19.5t-87.5 17.5t-65.5 38.5l-36 -256h-65z" />
    <glyph glyph-name="ydieresis" unicode="&#xff;" horiz-adv-x="461" 
d="M47 511h68l82 -432l206 432h70l-270 -541q-28 -55 -49.5 -92t-42.5 -59.5t-44.5 -32t-55.5 -9.5q-28 0 -47.5 5t-33.5 11l13 51q11 -5 29 -10t40 -5q19 0 35 8.5t31.5 28t33 52t38.5 80.5zM127 660q0 27 17 43t44 16q21 0 33 -12t12 -32q0 -27 -16.5 -42.5t-42.5 -15.5
q-22 0 -34.5 11.5t-12.5 31.5zM326 660q0 27 17 43t44 16q21 0 33 -12t12 -32q0 -27 -16.5 -42.5t-42.5 -15.5q-22 0 -34.5 11.5t-12.5 31.5z" />
    <glyph glyph-name="Amacron" unicode="&#x100;" horiz-adv-x="625" 
d="M414 724l142 -724h-69l-44 236h-278l-107 -236h-67l334 724h89zM363 669l-172 -377h242zM226 797l8 57h303l-8 -57h-303z" />
    <glyph glyph-name="amacron" unicode="&#x101;" horiz-adv-x="574" 
d="M454 86q-3 -21 1 -32.5t23 -11.5q7 0 14.5 1t18.5 4l-6 -45q-10 -4 -21.5 -5.5t-23.5 -1.5q-32 0 -50.5 16.5t-15.5 58.5q-34 -37 -83.5 -59.5t-100.5 -22.5q-35 0 -65 11t-51.5 35t-33.5 61t-12 90q0 56 13 115.5t42 108.5t77 80.5t118 31.5q44 0 83 -17.5t64 -38.5
l8 46h61zM434 406q-11 10 -26 20t-33.5 18.5t-39.5 13.5t-43 5q-51 0 -85.5 -27t-55 -68t-29.5 -89t-9 -89t7.5 -69t22 -45t34.5 -24.5t44 -7.5q41 0 81 18t94 69zM200 693h283l-8 -57h-283z" />
    <glyph glyph-name="Abreve" unicode="&#x102;" horiz-adv-x="625" 
d="M414 724l142 -724h-69l-44 236h-278l-107 -236h-67l334 724h89zM363 669l-172 -377h242zM383 833q36 0 60.5 16t38.5 58l53 -5q-14 -60 -52.5 -90t-104.5 -30q-63 0 -91.5 30.5t-30.5 88.5l55 6q2 -42 19.5 -58t52.5 -16z" />
    <glyph glyph-name="abreve" unicode="&#x103;" horiz-adv-x="574" 
d="M454 86q-3 -21 1 -32.5t23 -11.5q7 0 14.5 1t18.5 4l-6 -45q-10 -4 -21.5 -5.5t-23.5 -1.5q-32 0 -50.5 16.5t-15.5 58.5q-34 -37 -83.5 -59.5t-100.5 -22.5q-35 0 -65 11t-51.5 35t-33.5 61t-12 90q0 56 13 115.5t42 108.5t77 80.5t118 31.5q44 0 83 -17.5t64 -38.5
l8 46h61zM434 406q-11 10 -26 20t-33.5 18.5t-39.5 13.5t-43 5q-51 0 -85.5 -27t-55 -68t-29.5 -89t-9 -89t7.5 -69t22 -45t34.5 -24.5t44 -7.5q41 0 81 18t94 69zM331 624q43 0 68.5 22.5t36.5 83.5l54 -5q-8 -73 -48 -112.5t-114 -39.5q-69 0 -100.5 38.5t-23.5 111.5
l55 7q-5 -55 12.5 -80.5t59.5 -25.5z" />
    <glyph glyph-name="Aogonek" unicode="&#x104;" horiz-adv-x="625" 
d="M586 -151q-21 -40 -52.5 -55.5t-62.5 -15.5q-36 0 -61.5 20.5t-25.5 55.5q0 25 9 46t23 39t32.5 33t37.5 29l-43 235h-278l-107 -236h-67l334 724h89l142 -724q-47 -37 -76 -66t-29 -68q0 -16 8.5 -26t25.5 -10t31.5 11t29.5 31zM363 669l-172 -377h242z" />
    <glyph glyph-name="aogonek" unicode="&#x105;" horiz-adv-x="574" 
d="M513 -151q-21 -40 -52.5 -55.5t-62.5 -15.5q-36 0 -61.5 20.5t-25.5 55.5q0 26 9.5 47.5t24.5 40t34 33.5t39 29q-28 17 -24 66q-34 -37 -83.5 -59.5t-100.5 -22.5q-35 0 -65 11t-51.5 35t-33.5 61t-12 90q0 56 13 115.5t42 108.5t77 80.5t118 31.5q44 0 83 -17.5
t64 -38.5l8 46h61l-60 -425q-3 -21 1 -32.5t23 -11.5q7 0 14.5 1t18.5 4l-6 -45q-26 -9 -49 -24.5t-40.5 -34t-27.5 -39t-10 -38.5q0 -16 8.5 -26t25.5 -10t31.5 11t29.5 31zM434 406q-11 10 -26 20t-33.5 18.5t-39.5 13.5t-43 5q-51 0 -85.5 -27t-55 -68t-29.5 -89t-9 -89
t7.5 -69t22 -45t34.5 -24.5t44 -7.5q41 0 81 18t94 69z" />
    <glyph glyph-name="Cacute" unicode="&#x106;" horiz-adv-x="662" 
d="M605 195q-18 -58 -48 -97.5t-68.5 -64t-84 -35t-93.5 -10.5q-68 0 -117 21t-80.5 59t-46.5 91t-15 117q0 109 28 195t78 145t118.5 90t148.5 31q54 0 97.5 -16t73.5 -47.5t44.5 -77t11.5 -105.5l-62 -6q0 45 -8.5 80.5t-28 61t-52 39t-80.5 13.5q-66 0 -121 -26t-95 -76
t-62.5 -123t-22.5 -168q0 -127 53.5 -184.5t150.5 -57.5q87 0 139 39.5t83 124.5zM472 912h95l-158 -145l-52 13z" />
    <glyph glyph-name="cacute" unicode="&#x107;" horiz-adv-x="531" 
d="M246 -12q-53 0 -90.5 15.5t-61.5 44t-35 67.5t-11 87q0 77 21 136.5t57.5 100t86.5 61.5t109 21q43 0 76.5 -15t55 -41t30.5 -62t4 -78l-64 -5q1 33 -3 59.5t-16.5 45t-35 28.5t-57.5 10q-33 0 -67.5 -12.5t-63 -42t-46.5 -79t-18 -123.5q0 -45 11 -76t29 -50t42 -27.5
t51 -8.5q56 0 95 27t58 88l61 -13q-11 -41 -32.5 -71t-50.5 -49.5t-63.5 -28.5t-71.5 -9zM381 749h93l-167 -177l-50 13z" />
    <glyph glyph-name="Ccircumflex" unicode="&#x108;" horiz-adv-x="662" 
d="M605 195q-18 -58 -48 -97.5t-68.5 -64t-84 -35t-93.5 -10.5q-68 0 -117 21t-80.5 59t-46.5 91t-15 117q0 109 28 195t78 145t118.5 90t148.5 31q54 0 97.5 -16t73.5 -47.5t44.5 -77t11.5 -105.5l-62 -6q0 45 -8.5 80.5t-28 61t-52 39t-80.5 13.5q-66 0 -121 -26t-95 -76
t-62.5 -123t-22.5 -168q0 -127 53.5 -184.5t150.5 -57.5q87 0 139 39.5t83 124.5zM519 769l-79 81l-99 -83l-58 10l137 122h54l103 -122z" />
    <glyph glyph-name="ccircumflex" unicode="&#x109;" horiz-adv-x="531" 
d="M246 -12q-53 0 -90.5 15.5t-61.5 44t-35 67.5t-11 87q0 77 21 136.5t57.5 100t86.5 61.5t109 21q43 0 76.5 -15t55 -41t30.5 -62t4 -78l-64 -5q1 33 -3 59.5t-16.5 45t-35 28.5t-57.5 10q-33 0 -67.5 -12.5t-63 -42t-46.5 -79t-18 -123.5q0 -45 11 -76t29 -50t42 -27.5
t51 -8.5q56 0 95 27t58 88l61 -13q-11 -41 -32.5 -71t-50.5 -49.5t-63.5 -28.5t-71.5 -9zM421 578l-79 122l-109 -124l-56 8l137 165h67l95 -165z" />
    <glyph glyph-name="Cdotaccent" unicode="&#x10a;" horiz-adv-x="662" 
d="M605 195q-18 -58 -48 -97.5t-68.5 -64t-84 -35t-93.5 -10.5q-68 0 -117 21t-80.5 59t-46.5 91t-15 117q0 109 28 195t78 145t118.5 90t148.5 31q54 0 97.5 -16t73.5 -47.5t44.5 -77t11.5 -105.5l-62 -6q0 45 -8.5 80.5t-28 61t-52 39t-80.5 13.5q-66 0 -121 -26t-95 -76
t-62.5 -123t-22.5 -168q0 -127 53.5 -184.5t150.5 -57.5q87 0 139 39.5t83 124.5zM492 844q0 -29 -17 -45.5t-46 -16.5q-47 0 -47 44q0 29 16.5 45.5t45.5 16.5q48 0 48 -44z" />
    <glyph glyph-name="cdotaccent" unicode="&#x10b;" horiz-adv-x="531" 
d="M246 -12q-53 0 -90.5 15.5t-61.5 44t-35 67.5t-11 87q0 77 21 136.5t57.5 100t86.5 61.5t109 21q43 0 76.5 -15t55 -41t30.5 -62t4 -78l-64 -5q1 33 -3 59.5t-16.5 45t-35 28.5t-57.5 10q-33 0 -67.5 -12.5t-63 -42t-46.5 -79t-18 -123.5q0 -45 11 -76t29 -50t42 -27.5
t51 -8.5q56 0 95 27t58 88l61 -13q-11 -41 -32.5 -71t-50.5 -49.5t-63.5 -28.5t-71.5 -9zM284 669q0 29 16.5 45.5t45.5 16.5q48 0 48 -44q0 -29 -17 -45.5t-46 -16.5q-47 0 -47 44z" />
    <glyph glyph-name="Ccaron" unicode="&#x10c;" horiz-adv-x="662" 
d="M605 195q-18 -58 -48 -97.5t-68.5 -64t-84 -35t-93.5 -10.5q-68 0 -117 21t-80.5 59t-46.5 91t-15 117q0 109 28 195t78 145t118.5 90t148.5 31q54 0 97.5 -16t73.5 -47.5t44.5 -77t11.5 -105.5l-62 -6q0 45 -8.5 80.5t-28 61t-52 39t-80.5 13.5q-66 0 -121 -26t-95 -76
t-62.5 -123t-22.5 -168q0 -127 53.5 -184.5t150.5 -57.5q87 0 139 39.5t83 124.5zM354 901l79 -81l99 83l58 -10l-137 -122h-54l-103 122z" />
    <glyph glyph-name="ccaron" unicode="&#x10d;" horiz-adv-x="531" 
d="M246 -12q-53 0 -90.5 15.5t-61.5 44t-35 67.5t-11 87q0 77 21 136.5t57.5 100t86.5 61.5t109 21q43 0 76.5 -15t55 -41t30.5 -62t4 -78l-64 -5q1 33 -3 59.5t-16.5 45t-35 28.5t-57.5 10q-33 0 -67.5 -12.5t-63 -42t-46.5 -79t-18 -123.5q0 -45 11 -76t29 -50t42 -27.5
t51 -8.5q56 0 95 27t58 88l61 -13q-11 -41 -32.5 -71t-50.5 -49.5t-63.5 -28.5t-71.5 -9zM253 743l75 -122l111 124l56 -8l-137 -165h-67l-95 165z" />
    <glyph glyph-name="Dcaron" unicode="&#x10e;" horiz-adv-x="703" 
d="M61 0l98 724h201q79 0 136.5 -20.5t94.5 -58.5t54.5 -92t17.5 -120q0 -93 -24.5 -172.5t-76 -137.5t-130 -90.5t-186.5 -32.5h-185zM254 56q163 0 252 98.5t89 281.5q0 65 -17 109.5t-49 71.5t-78 39t-103 12h-132l-83 -612h121zM307 901l79 -81l99 83l58 -10l-137 -122
h-54l-103 122z" />
    <glyph glyph-name="dcaron" unicode="&#x10f;" horiz-adv-x="627" 
d="M389 0l6 61q-38 -29 -83.5 -51t-95.5 -22q-74 0 -119.5 46t-45.5 147q0 93 22 157.5t57.5 105t81 59t92.5 18.5q45 0 80.5 -16t61.5 -37l40 287h67l-106 -755h-58zM437 413q-8 7 -21 16t-29.5 17.5t-37 14t-44.5 5.5q-51 0 -87 -23.5t-58.5 -63t-33 -90.5t-10.5 -106
q0 -69 24.5 -104t81.5 -35q17 0 33.5 3.5t33.5 8.5q32 11 60.5 29.5t48.5 37.5zM640 755h77l-88 -198l-49 8z" />
    <glyph glyph-name="Dcroat" unicode="&#x110;" horiz-adv-x="714" 
d="M72 0l46 342h-70l8 56h70l44 326h201q79 0 136.5 -20.5t94.5 -58.5t54.5 -92t17.5 -120q0 -93 -24.5 -172.5t-76 -137.5t-130 -90.5t-186.5 -32.5h-185zM265 56q163 0 252 98.5t89 281.5q0 65 -17 109.5t-49 71.5t-78 39t-103 12h-132l-37 -270h247l-8 -56h-246l-39 -286
h121z" />
    <glyph glyph-name="dcroat" unicode="&#x111;" horiz-adv-x="571" 
d="M389 0l6 61q-38 -29 -83.5 -51t-95.5 -22q-74 0 -119.5 46t-45.5 147q0 89 21.5 150.5t56.5 99t80 54t92 16.5q45 0 80.5 -16t61.5 -37l19 140h-194l8 56h194l16 111h67l-16 -111h70l-8 -56h-70l-82 -588h-58zM434 393q-8 7 -21 16t-29.5 17.5t-37 14t-44.5 5.5
q-51 0 -86.5 -22.5t-57.5 -59t-32 -84t-10 -97.5q0 -69 24.5 -104t81.5 -35q17 0 33.5 3.5t33.5 8.5q32 11 60.5 29.5t48.5 37.5z" />
    <glyph glyph-name="Emacron" unicode="&#x112;" horiz-adv-x="549" 
d="M61 0l98 724h392l-7 -56h-329l-36 -274h307l-8 -56h-307l-38 -282h338l-8 -56h-402zM213 797l8 57h303l-8 -57h-303z" />
    <glyph glyph-name="emacron" unicode="&#x113;" horiz-adv-x="512" 
d="M242 -12q-54 0 -91 17.5t-59.5 48t-32.5 71.5t-10 87q0 58 16.5 113.5t50 99t83.5 70t117 26.5q39 0 68.5 -10t49.5 -27.5t30 -41t10 -50.5q0 -33 -11.5 -59t-31 -45t-45.5 -32.5t-55 -22.5t-60 -14t-59.5 -8t-54 -4t-43.5 -2q0 -31 5 -60t20 -51.5t42 -36t72 -13.5
q60 0 95.5 31t48.5 73l57 -12q-11 -39 -32.5 -67t-49.5 -46t-61.5 -26.5t-68.5 -8.5zM313 466q-46 0 -80.5 -17.5t-58.5 -46.5t-38 -66.5t-19 -76.5q9 0 31 1t50.5 3.5t61 8t62.5 15.5q39 13 63.5 37.5t24.5 65.5q0 38 -26 57t-71 19zM205 693h283l-8 -57h-283z" />
    <glyph glyph-name="Ebreve" unicode="&#x114;" horiz-adv-x="549" 
d="M61 0l98 724h392l-7 -56h-329l-36 -274h307l-8 -56h-307l-38 -282h338l-8 -56h-402zM370 833q36 0 60.5 16t38.5 58l53 -5q-14 -60 -52.5 -90t-104.5 -30q-63 0 -91.5 30.5t-30.5 88.5l55 6q2 -42 19.5 -58t52.5 -16z" />
    <glyph glyph-name="ebreve" unicode="&#x115;" horiz-adv-x="512" 
d="M242 -12q-54 0 -91 17.5t-59.5 48t-32.5 71.5t-10 87q0 58 16.5 113.5t50 99t83.5 70t117 26.5q39 0 68.5 -10t49.5 -27.5t30 -41t10 -50.5q0 -33 -11.5 -59t-31 -45t-45.5 -32.5t-55 -22.5t-60 -14t-59.5 -8t-54 -4t-43.5 -2q0 -31 5 -60t20 -51.5t42 -36t72 -13.5
q60 0 95.5 31t48.5 73l57 -12q-11 -39 -32.5 -67t-49.5 -46t-61.5 -26.5t-68.5 -8.5zM313 466q-46 0 -80.5 -17.5t-58.5 -46.5t-38 -66.5t-19 -76.5q9 0 31 1t50.5 3.5t61 8t62.5 15.5q39 13 63.5 37.5t24.5 65.5q0 38 -26 57t-71 19zM336 624q43 0 68.5 22.5t36.5 83.5
l54 -5q-8 -73 -48 -112.5t-114 -39.5q-69 0 -100.5 38.5t-23.5 111.5l55 7q-5 -55 12.5 -80.5t59.5 -25.5z" />
    <glyph glyph-name="Edotaccent" unicode="&#x116;" horiz-adv-x="549" 
d="M61 0l98 724h392l-7 -56h-329l-36 -274h307l-8 -56h-307l-38 -282h338l-8 -56h-402zM426 844q0 -29 -17 -45.5t-46 -16.5q-47 0 -47 44q0 29 16.5 45.5t45.5 16.5q48 0 48 -44z" />
    <glyph glyph-name="edotaccent" unicode="&#x117;" horiz-adv-x="512" 
d="M242 -12q-54 0 -91 17.5t-59.5 48t-32.5 71.5t-10 87q0 58 16.5 113.5t50 99t83.5 70t117 26.5q39 0 68.5 -10t49.5 -27.5t30 -41t10 -50.5q0 -33 -11.5 -59t-31 -45t-45.5 -32.5t-55 -22.5t-60 -14t-59.5 -8t-54 -4t-43.5 -2q0 -31 5 -60t20 -51.5t42 -36t72 -13.5
q60 0 95.5 31t48.5 73l57 -12q-11 -39 -32.5 -67t-49.5 -46t-61.5 -26.5t-68.5 -8.5zM313 466q-46 0 -80.5 -17.5t-58.5 -46.5t-38 -66.5t-19 -76.5q9 0 31 1t50.5 3.5t61 8t62.5 15.5q39 13 63.5 37.5t24.5 65.5q0 38 -26 57t-71 19zM290 669q0 29 16.5 45.5t45.5 16.5
q48 0 48 -44q0 -29 -17 -45.5t-46 -16.5q-47 0 -47 44z" />
    <glyph glyph-name="Eogonek" unicode="&#x118;" horiz-adv-x="549" 
d="M451 -151q-21 -40 -52.5 -55.5t-62.5 -15.5q-36 0 -61.5 20.5t-25.5 55.5q0 25 8.5 45.5t22.5 38.5t32 33t37 29h-288l98 724h392l-7 -56h-329l-36 -274h307l-8 -56h-307l-38 -282h338l-8 -56h-43q-46 -37 -75 -66t-29 -68q0 -16 8.5 -26t25.5 -10t31.5 11t29.5 31z" />
    <glyph glyph-name="eogonek" unicode="&#x119;" horiz-adv-x="512" 
d="M242 -12q-54 0 -91 17.5t-59.5 48t-32.5 71.5t-10 87q0 58 16.5 113.5t50 99t83.5 70t117 26.5q39 0 68.5 -10t49.5 -27.5t30 -41t10 -50.5q0 -33 -11.5 -59t-31 -45t-45.5 -32.5t-55 -22.5t-60 -14t-59.5 -8t-54 -4t-43.5 -2q0 -31 5 -60t20 -51.5t42 -36t72 -13.5
q60 0 95.5 31t48.5 73l57 -12q-14 -49 -43 -78.5t-65 -51.5q-54 -32 -85.5 -65.5t-31.5 -74.5q0 -16 8.5 -26t25.5 -10t31.5 11t29.5 31l40 -23q-21 -40 -52.5 -55.5t-62.5 -15.5q-36 0 -61.5 20.5t-25.5 55.5q0 44 25 74.5t64 59.5h-9zM313 466q-46 0 -80.5 -17.5
t-58.5 -46.5t-38 -66.5t-19 -76.5q9 0 31 1t50.5 3.5t61 8t62.5 15.5q39 13 63.5 37.5t24.5 65.5q0 38 -26 57t-71 19z" />
    <glyph glyph-name="Ecaron" unicode="&#x11a;" horiz-adv-x="549" 
d="M61 0l98 724h392l-7 -56h-329l-36 -274h307l-8 -56h-307l-38 -282h338l-8 -56h-402zM288 901l79 -81l99 83l58 -10l-137 -122h-54l-103 122z" />
    <glyph glyph-name="ecaron" unicode="&#x11b;" horiz-adv-x="512" 
d="M242 -12q-54 0 -91 17.5t-59.5 48t-32.5 71.5t-10 87q0 58 16.5 113.5t50 99t83.5 70t117 26.5q39 0 68.5 -10t49.5 -27.5t30 -41t10 -50.5q0 -33 -11.5 -59t-31 -45t-45.5 -32.5t-55 -22.5t-60 -14t-59.5 -8t-54 -4t-43.5 -2q0 -31 5 -60t20 -51.5t42 -36t72 -13.5
q60 0 95.5 31t48.5 73l57 -12q-11 -39 -32.5 -67t-49.5 -46t-61.5 -26.5t-68.5 -8.5zM313 466q-46 0 -80.5 -17.5t-58.5 -46.5t-38 -66.5t-19 -76.5q9 0 31 1t50.5 3.5t61 8t62.5 15.5q39 13 63.5 37.5t24.5 65.5q0 38 -26 57t-71 19zM259 743l75 -122l111 124l56 -8
l-137 -165h-67l-95 165z" />
    <glyph glyph-name="Gcircumflex" unicode="&#x11c;" horiz-adv-x="697" 
d="M582 0h-48l4 99q-12 -23 -35 -43t-53.5 -35t-67 -24t-74.5 -9q-67 0 -115 21.5t-79.5 60.5t-46.5 93.5t-15 121.5q0 108 28 192t78 142t119 88t151 30q54 0 97 -14t72 -43t43.5 -73.5t10.5 -105.5l-61 -7q4 102 -40 144t-128 42q-68 0 -123.5 -27t-95.5 -77.5
t-61.5 -123.5t-21.5 -165q0 -71 15.5 -118t43 -75t64.5 -39.5t80 -11.5q51 0 92 18t71 46.5t47.5 63.5t22.5 70l11 81h-209l8 53h267zM516 769l-79 81l-99 -83l-58 10l137 122h54l103 -122z" />
    <glyph glyph-name="gcircumflex" unicode="&#x11d;" horiz-adv-x="554" 
d="M285 463q-51 0 -85.5 -26t-55 -65t-29.5 -85.5t-9 -87.5t7.5 -68t21.5 -43.5t33.5 -23.5t42.5 -7q43 0 86 16.5t94 67.5l36 266q-21 22 -59.5 39t-82.5 17zM386 76q-35 -36 -85 -55.5t-101 -19.5q-35 0 -64.5 11t-50.5 34.5t-32.5 60.5t-11.5 90q0 54 13 111t42 104.5
t77 78t118 30.5q44 0 83 -17.5t64 -38.5l8 46h61l-78 -557q-11 -81 -67.5 -129t-156.5 -48q-85 0 -136.5 35t-59.5 120l62 12q2 -23 9 -43t22 -35t39.5 -24t60.5 -9q30 0 57 7t49.5 22t37.5 39t21 59zM405 578l-79 122l-109 -124l-56 8l137 165h67l95 -165z" />
    <glyph glyph-name="Gbreve" unicode="&#x11e;" horiz-adv-x="697" 
d="M582 0h-48l4 99q-12 -23 -35 -43t-53.5 -35t-67 -24t-74.5 -9q-67 0 -115 21.5t-79.5 60.5t-46.5 93.5t-15 121.5q0 108 28 192t78 142t119 88t151 30q54 0 97 -14t72 -43t43.5 -73.5t10.5 -105.5l-61 -7q4 102 -40 144t-128 42q-68 0 -123.5 -27t-95.5 -77.5
t-61.5 -123.5t-21.5 -165q0 -71 15.5 -118t43 -75t64.5 -39.5t80 -11.5q51 0 92 18t71 46.5t47.5 63.5t22.5 70l11 81h-209l8 53h267zM433 833q36 0 60.5 16t38.5 58l53 -5q-14 -60 -52.5 -90t-104.5 -30q-63 0 -91.5 30.5t-30.5 88.5l55 6q2 -42 19.5 -58t52.5 -16z" />
    <glyph glyph-name="gbreve" unicode="&#x11f;" horiz-adv-x="554" 
d="M285 463q-51 0 -85.5 -26t-55 -65t-29.5 -85.5t-9 -87.5t7.5 -68t21.5 -43.5t33.5 -23.5t42.5 -7q43 0 86 16.5t94 67.5l36 266q-21 22 -59.5 39t-82.5 17zM386 76q-35 -36 -85 -55.5t-101 -19.5q-35 0 -64.5 11t-50.5 34.5t-32.5 60.5t-11.5 90q0 54 13 111t42 104.5
t77 78t118 30.5q44 0 83 -17.5t64 -38.5l8 46h61l-78 -557q-11 -81 -67.5 -129t-156.5 -48q-85 0 -136.5 35t-59.5 120l62 12q2 -23 9 -43t22 -35t39.5 -24t60.5 -9q30 0 57 7t49.5 22t37.5 39t21 59zM314 624q43 0 68.5 22.5t36.5 83.5l54 -5q-8 -73 -48 -112.5t-114 -39.5
q-69 0 -100.5 38.5t-23.5 111.5l55 7q-5 -55 12.5 -80.5t59.5 -25.5z" />
    <glyph glyph-name="Gdotaccent" unicode="&#x120;" horiz-adv-x="697" 
d="M582 0h-48l4 99q-12 -23 -35 -43t-53.5 -35t-67 -24t-74.5 -9q-67 0 -115 21.5t-79.5 60.5t-46.5 93.5t-15 121.5q0 108 28 192t78 142t119 88t151 30q54 0 97 -14t72 -43t43.5 -73.5t10.5 -105.5l-61 -7q4 102 -40 144t-128 42q-68 0 -123.5 -27t-95.5 -77.5
t-61.5 -123.5t-21.5 -165q0 -71 15.5 -118t43 -75t64.5 -39.5t80 -11.5q51 0 92 18t71 46.5t47.5 63.5t22.5 70l11 81h-209l8 53h267zM489 844q0 -29 -17 -45.5t-46 -16.5q-47 0 -47 44q0 29 16.5 45.5t45.5 16.5q48 0 48 -44z" />
    <glyph glyph-name="gdotaccent" unicode="&#x121;" horiz-adv-x="554" 
d="M285 463q-51 0 -85.5 -26t-55 -65t-29.5 -85.5t-9 -87.5t7.5 -68t21.5 -43.5t33.5 -23.5t42.5 -7q43 0 86 16.5t94 67.5l36 266q-21 22 -59.5 39t-82.5 17zM386 76q-35 -36 -85 -55.5t-101 -19.5q-35 0 -64.5 11t-50.5 34.5t-32.5 60.5t-11.5 90q0 54 13 111t42 104.5
t77 78t118 30.5q44 0 83 -17.5t64 -38.5l8 46h61l-78 -557q-11 -81 -67.5 -129t-156.5 -48q-85 0 -136.5 35t-59.5 120l62 12q2 -23 9 -43t22 -35t39.5 -24t60.5 -9q30 0 57 7t49.5 22t37.5 39t21 59zM268 669q0 29 16.5 45.5t45.5 16.5q48 0 48 -44q0 -29 -17 -45.5
t-46 -16.5q-47 0 -47 44z" />
    <glyph glyph-name="Gcommaaccent" unicode="&#x122;" horiz-adv-x="697" 
d="M582 0h-48l4 99q-12 -23 -35 -43t-53.5 -35t-67 -24t-74.5 -9q-67 0 -115 21.5t-79.5 60.5t-46.5 93.5t-15 121.5q0 108 28 192t78 142t119 88t151 30q54 0 97 -14t72 -43t43.5 -73.5t10.5 -105.5l-61 -7q4 102 -40 144t-128 42q-68 0 -123.5 -27t-95.5 -77.5
t-61.5 -123.5t-21.5 -165q0 -71 15.5 -118t43 -75t64.5 -39.5t80 -11.5q51 0 92 18t71 46.5t47.5 63.5t22.5 70l11 81h-209l8 53h267zM285 -69h79l-84 -159l-52 8z" />
    <glyph glyph-name="gcommaaccent" unicode="&#x123;" horiz-adv-x="554" 
d="M285 463q-51 0 -85.5 -26t-55 -65t-29.5 -85.5t-9 -87.5t7.5 -68t21.5 -43.5t33.5 -23.5t42.5 -7q43 0 86 16.5t94 67.5l36 266q-21 22 -59.5 39t-82.5 17zM386 76q-35 -36 -85 -55.5t-101 -19.5q-35 0 -64.5 11t-50.5 34.5t-32.5 60.5t-11.5 90q0 54 13 111t42 104.5
t77 78t118 30.5q44 0 83 -17.5t64 -38.5l8 46h61l-78 -557q-11 -81 -67.5 -129t-156.5 -48q-85 0 -136.5 35t-59.5 120l62 12q2 -23 9 -43t22 -35t39.5 -24t60.5 -9q30 0 57 7t49.5 22t37.5 39t21 59zM340 570h-79l84 159l52 -8z" />
    <glyph glyph-name="Hcircumflex" unicode="&#x124;" horiz-adv-x="696" 
d="M555 0h-64l46 347h-367l-46 -347h-64l98 724h64l-44 -322h367l44 322h64zM503 769l-79 81l-99 -83l-58 10l137 122h54l103 -122z" />
    <glyph glyph-name="hcircumflex" unicode="&#x125;" horiz-adv-x="581" 
d="M117 0h-67l106 755h67l-47 -318q15 13 36.5 27.5t47 27t54.5 21t59 8.5q77 0 112 -43.5t23 -132.5l-48 -345h-67l48 341q9 64 -11 93.5t-66 29.5q-28 0 -53.5 -7.5t-49.5 -20t-46.5 -28.5t-44.5 -33zM286 796l-79 81l-99 -83l-58 10l137 122h54l103 -122z" />
    <glyph glyph-name="Hbar" unicode="&#x126;" horiz-adv-x="696" 
d="M634 585h84l-8 -56h-84l-71 -529h-64l46 347h-367l-46 -347h-64l71 529h-83l9 56h82l19 139h64l-19 -139h367l19 139h64zM545 402l17 127h-367l-17 -127h367z" />
    <glyph glyph-name="hbar" unicode="&#x127;" horiz-adv-x="581" 
d="M117 0h-67l82 586h-71l8 56h71l16 113h67l-17 -113h194l-8 -56h-194l-24 -169q15 13 36.5 27.5t47 27t54.5 21t59 8.5q77 0 112 -43.5t23 -132.5l-46 -325h-67l46 321q9 64 -11 93.5t-66 29.5q-28 0 -53.5 -7.5t-49.5 -20t-46.5 -28.5t-44.5 -33z" />
    <glyph glyph-name="Itilde" unicode="&#x128;" horiz-adv-x="265" 
d="M61 0l98 724h64l-98 -724h-64zM141 889q23 0 41 -7.5t33 -16t29.5 -16t31.5 -7.5q19 0 31 11.5t18 43.5l47 -2q-3 -31 -12.5 -52t-23 -34t-30 -18.5t-32.5 -5.5q-23 0 -40.5 7.5t-33.5 16t-31 16t-33 7.5q-17 0 -28.5 -12.5t-16.5 -44.5l-46 2q3 30 12 51.5t22.5 35
t29.5 19.5t32 6z" />
    <glyph glyph-name="itilde" unicode="&#x129;" horiz-adv-x="239" 
d="M114 0h-67l72 511h67zM100 708q23 0 41 -7.5t33 -16t29.5 -16t31.5 -7.5q20 0 32 12.5t17 42.5l47 -2q-8 -62 -35.5 -86t-62.5 -24q-23 0 -40.5 7.5t-33.5 16t-31 16t-33 7.5q-17 0 -28.5 -12.5t-16.5 -44.5l-46 2q7 62 35 87t61 25z" />
    <glyph glyph-name="Imacron" unicode="&#x12a;" horiz-adv-x="265" 
d="M61 0l98 724h64l-98 -724h-64zM48 797l8 57h303l-8 -57h-303z" />
    <glyph glyph-name="imacron" unicode="&#x12b;" horiz-adv-x="239" 
d="M114 0h-67l72 511h67zM35 693h283l-8 -57h-283z" />
    <glyph glyph-name="Ibreve" unicode="&#x12c;" horiz-adv-x="265" 
d="M61 0l98 724h64l-98 -724h-64zM205 833q36 0 60.5 16t38.5 58l53 -5q-14 -60 -52.5 -90t-104.5 -30q-63 0 -91.5 30.5t-30.5 88.5l55 6q2 -42 19.5 -58t52.5 -16z" />
    <glyph glyph-name="ibreve" unicode="&#x12d;" horiz-adv-x="239" 
d="M114 0h-67l72 511h67zM166 624q43 0 68.5 22.5t36.5 83.5l54 -5q-8 -73 -48 -112.5t-114 -39.5q-69 0 -100.5 38.5t-23.5 111.5l55 7q-5 -55 12.5 -80.5t59.5 -25.5z" />
    <glyph glyph-name="Iogonek" unicode="&#x12e;" horiz-adv-x="265" 
d="M155 -151q-21 -40 -52.5 -55.5t-62.5 -15.5q-36 0 -61.5 20.5t-25.5 55.5q0 30 12.5 54t31.5 44t42 37q11 9 23 16l97 719h64l-98 -724q-21 -15 -37 -29q-21 -18 -36 -34.5t-23.5 -33.5t-8.5 -37q0 -16 8.5 -26t25.5 -10t31.5 11t29.5 31z" />
    <glyph glyph-name="iogonek" unicode="&#x12f;" horiz-adv-x="239" 
d="M145 -151q-21 -40 -52.5 -55.5t-62.5 -15.5q-36 0 -61.5 20.5t-25.5 55.5q0 25 9 46.5t24 40t33.5 33.5t37.5 29l72 508h67l-73 -511q-23 -18 -41.5 -33.5t-32.5 -31t-21.5 -32.5t-7.5 -37q0 -16 8.5 -26t25.5 -10t31.5 11t29.5 31zM232 687q0 -29 -16.5 -45.5
t-45.5 -16.5q-47 0 -47 44q0 29 16.5 45.5t45.5 16.5q47 0 47 -44z" />
    <glyph glyph-name="Idotaccent" unicode="&#x130;" horiz-adv-x="265" 
d="M61 0l98 724h64l-98 -724h-64zM261 844q0 -29 -17 -45.5t-46 -16.5q-47 0 -47 44q0 29 16.5 45.5t45.5 16.5q48 0 48 -44z" />
    <glyph glyph-name="dotlessi" unicode="&#x131;" horiz-adv-x="239" 
d="M114 0h-67l72 511h67z" />
    <glyph glyph-name="IJ" unicode="&#x132;" horiz-adv-x="745" 
d="M61 0l98 724h64l-98 -724h-64zM647 724h64l-74 -557q-7 -51 -24.5 -85.5t-44 -55.5t-60 -29.5t-72.5 -8.5q-79 0 -118.5 40.5t-41.5 113.5l58 11q3 -25 9 -45t17 -34.5t30.5 -22.5t49.5 -8q24 0 46 5t39 19t29.5 39t17.5 65z" />
    <glyph glyph-name="Jcircumflex" unicode="&#x134;" horiz-adv-x="480" 
d="M382 724h64l-74 -557q-7 -51 -24.5 -85.5t-44 -55.5t-60 -29.5t-72.5 -8.5q-79 0 -118.5 40.5t-41.5 113.5l58 11q3 -25 9 -45t17 -34.5t30.5 -22.5t49.5 -8q24 0 46 5t39 19t29.5 39t17.5 65zM510 769l-79 81l-99 -83l-58 10l137 122h54l103 -122z" />
    <glyph glyph-name="jcircumflex" unicode="&#x135;" horiz-adv-x="239" 
d="M119 511h67l-84 -593q-11 -75 -44.5 -108t-99.5 -33q-9 0 -22 1.5t-25.5 4t-24 5.5t-17.5 7l16 53q16 -6 35 -10t36 -4q32 0 52 18t27 65zM253 578l-79 122l-109 -124l-56 8l137 165h67l95 -165z" />
    <glyph glyph-name="Kcommaaccent" unicode="&#x136;" horiz-adv-x="607" 
d="M173 357l375 367h80l-324 -316l246 -408h-77l-218 360l-93 -90l-37 -270h-64l98 724h64zM242 -69h79l-84 -159l-52 8z" />
    <glyph glyph-name="kcommaaccent" unicode="&#x137;" horiz-adv-x="507" 
d="M375 0l-129 278l-103 -92l-26 -186h-67l106 755h67l-68 -485l268 241h84l-206 -185l147 -326h-73zM193 -69h79l-84 -159l-52 8z" />
    <glyph glyph-name="kgreenlandic" unicode="&#x138;" horiz-adv-x="507" 
d="M375 0l-129 278l-103 -92l-26 -186h-67l72 511h67l-34 -241l268 241h84l-206 -185l147 -326h-73z" />
    <glyph glyph-name="Lacute" unicode="&#x139;" horiz-adv-x="523" 
d="M61 0l98 724h64l-90 -668h319l-8 -56h-383zM274 912h95l-158 -145l-52 13z" />
    <glyph glyph-name="lacute" unicode="&#x13a;" horiz-adv-x="239" 
d="M153 755h67l-106 -755h-67zM252 934h95l-158 -145l-52 13z" />
    <glyph glyph-name="Lcommaaccent" unicode="&#x13b;" horiz-adv-x="523" 
d="M61 0l98 724h64l-90 -668h319l-8 -56h-383zM217 -69h79l-84 -159l-52 8z" />
    <glyph glyph-name="lcommaaccent" unicode="&#x13c;" horiz-adv-x="239" 
d="M153 755h67l-106 -755h-67zM41 -69h79l-84 -159l-52 8z" />
    <glyph glyph-name="Lcaron" unicode="&#x13d;" horiz-adv-x="523" 
d="M61 0l98 724h64l-90 -668h319l-8 -56h-383zM346 725h77l-88 -198l-49 8z" />
    <glyph glyph-name="lcaron" unicode="&#x13e;" horiz-adv-x="295" 
d="M153 755h67l-106 -755h-67zM309 755h77l-88 -198l-49 8z" />
    <glyph glyph-name="Ldot" unicode="&#x13f;" horiz-adv-x="523" 
d="M61 0l98 724h64l-90 -668h319l-8 -56h-383zM452 403q0 -29 -17 -45.5t-46 -16.5q-47 0 -47 44q0 29 16.5 45.5t45.5 16.5q48 0 48 -44z" />
    <glyph glyph-name="ldot" unicode="&#x140;" horiz-adv-x="290" 
d="M153 755h67l-106 -755h-67zM226 388q0 29 16.5 45.5t45.5 16.5q48 0 48 -44q0 -29 -17 -45.5t-46 -16.5q-47 0 -47 44z" />
    <glyph glyph-name="Lslash" unicode="&#x141;" horiz-adv-x="523" 
d="M8 315l102 46l49 363h64l-45 -337l209 95l-7 -66l-211 -95l-36 -265h319l-8 -56h-383l40 295l-100 -45z" />
    <glyph glyph-name="lslash" unicode="&#x142;" horiz-adv-x="244" 
d="M13 375l98 44l47 336h67l-44 -314l100 46l-7 -66l-103 -46l-52 -375h-67l49 353l-95 -43z" />
    <glyph glyph-name="Nacute" unicode="&#x143;" horiz-adv-x="714" 
d="M493 0l-282 652l-89 -652h-61l98 724h92l273 -643l88 643h60l-98 -724h-81zM492 912h95l-158 -145l-52 13z" />
    <glyph glyph-name="nacute" unicode="&#x144;" horiz-adv-x="581" 
d="M117 0h-67l72 511h64l-11 -72q15 13 37 27.5t47.5 26.5t54.5 20t59 8q76 0 111.5 -43.5t23.5 -132.5l-48 -345h-67l48 341q18 123 -77 123q-28 0 -56 -9t-53.5 -22t-47 -28.5t-37.5 -27.5zM391 749h93l-167 -177l-50 13z" />
    <glyph glyph-name="Ncommaaccent" unicode="&#x145;" horiz-adv-x="714" 
d="M493 0l-282 652l-89 -652h-61l98 724h92l273 -643l88 643h60l-98 -724h-81zM280 -69h79l-84 -159l-52 8z" />
    <glyph glyph-name="ncommaaccent" unicode="&#x146;" horiz-adv-x="581" 
d="M117 0h-67l72 511h64l-11 -72q15 13 37 27.5t47.5 26.5t54.5 20t59 8q76 0 111.5 -43.5t23.5 -132.5l-48 -345h-67l48 341q18 123 -77 123q-28 0 -56 -9t-53.5 -22t-47 -28.5t-37.5 -27.5zM213 -69h79l-84 -159l-52 8z" />
    <glyph glyph-name="Ncaron" unicode="&#x147;" horiz-adv-x="714" 
d="M493 0l-282 652l-89 -652h-61l98 724h92l273 -643l88 643h60l-98 -724h-81zM359 901l79 -81l99 83l58 -10l-137 -122h-54l-103 122z" />
    <glyph glyph-name="ncaron" unicode="&#x148;" horiz-adv-x="581" 
d="M117 0h-67l72 511h64l-11 -72q15 13 37 27.5t47.5 26.5t54.5 20t59 8q76 0 111.5 -43.5t23.5 -132.5l-48 -345h-67l48 341q18 123 -77 123q-28 0 -56 -9t-53.5 -22t-47 -28.5t-37.5 -27.5zM257 743l75 -122l111 124l56 -8l-137 -165h-67l-95 165z" />
    <glyph glyph-name="napostrophe" unicode="&#x149;" horiz-adv-x="581" 
d="M117 0h-67l72 511h64l-11 -72q15 13 37 27.5t47.5 26.5t54.5 20t59 8q76 0 111.5 -43.5t23.5 -132.5l-48 -345h-67l48 341q18 123 -77 123q-28 0 -56 -9t-53.5 -22t-47 -28.5t-37.5 -27.5zM75 664h79l-84 -159l-52 8z" />
    <glyph glyph-name="Eng" unicode="&#x14a;" horiz-adv-x="714" 
d="M562 -82q-12 -74 -45.5 -107.5t-99.5 -33.5q-9 0 -22 1.5t-25.5 4t-24 5.5t-17.5 7l16 53q16 -6 35 -10t36 -4q32 0 52 18t27 65l12 82l-295 653l-89 -652h-61l98 724h92l276 -620l85 620h60l-98 -724z" />
    <glyph glyph-name="eng" unicode="&#x14b;" horiz-adv-x="581" 
d="M398 37l43 304q18 123 -77 123q-28 0 -56 -9t-53.5 -22t-47 -28.5t-37.5 -27.5l-53 -377h-67l72 511h64l-11 -72q15 13 37 27.5t47.5 26.5t54.5 20t59 8q76 0 111.5 -43.5t23.5 -132.5l-48 -345h-1l-11 -82q-11 -75 -44.5 -108t-99.5 -33q-9 0 -22 1.5t-25.5 4t-24 5.5
t-17.5 7l16 53q16 -6 35 -10t36 -4q32 0 52 18t27 65z" />
    <glyph glyph-name="Omacron" unicode="&#x14c;" horiz-adv-x="729" 
d="M326 -12q-71 0 -122.5 22.5t-85.5 62.5t-50 95t-16 121q0 97 24.5 179t71.5 142t117 93.5t162 33.5q69 0 119.5 -22.5t83 -62t48 -93t15.5 -114.5q0 -107 -25.5 -191.5t-73 -143.5t-115.5 -90.5t-153 -31.5zM332 47q61 0 114.5 24.5t92.5 73t61.5 121t22.5 167.5
q0 57 -14 104q-20 69 -67.5 105.5t-123.5 36.5q-62 0 -116.5 -24.5t-94.5 -72.5t-63 -119.5t-23 -164.5q0 -59 14 -107q20 -70 68.5 -107t128.5 -37zM282 797l8 57h303l-8 -57h-303z" />
    <glyph glyph-name="omacron" unicode="&#x14d;" horiz-adv-x="573" 
d="M246 -12q-52 0 -89.5 15t-61.5 42t-35.5 65t-11.5 84q0 17 1 33.5t3 33.5q7 57 28 105t55 82.5t81 53.5t107 19q53 0 89.5 -16t59.5 -43.5t33.5 -65.5t10.5 -82q0 -17 -1 -33.5t-3 -32.5q-14 -123 -82.5 -191.5t-183.5 -68.5zM253 43q78 0 129.5 54t62.5 160q3 27 3 58
q0 147 -133 147q-81 0 -133 -52t-64 -154q-3 -26 -3 -56q0 -76 34 -116.5t104 -40.5zM203 693h283l-8 -57h-283z" />
    <glyph glyph-name="Obreve" unicode="&#x14e;" horiz-adv-x="729" 
d="M326 -12q-71 0 -122.5 22.5t-85.5 62.5t-50 95t-16 121q0 97 24.5 179t71.5 142t117 93.5t162 33.5q69 0 119.5 -22.5t83 -62t48 -93t15.5 -114.5q0 -107 -25.5 -191.5t-73 -143.5t-115.5 -90.5t-153 -31.5zM332 47q61 0 114.5 24.5t92.5 73t61.5 121t22.5 167.5
q0 57 -14 104q-20 69 -67.5 105.5t-123.5 36.5q-62 0 -116.5 -24.5t-94.5 -72.5t-63 -119.5t-23 -164.5q0 -59 14 -107q20 -70 68.5 -107t128.5 -37zM439 833q36 0 60.5 16t38.5 58l53 -5q-14 -60 -52.5 -90t-104.5 -30q-63 0 -91.5 30.5t-30.5 88.5l55 6q2 -42 19.5 -58
t52.5 -16z" />
    <glyph glyph-name="obreve" unicode="&#x14f;" horiz-adv-x="573" 
d="M246 -12q-52 0 -89.5 15t-61.5 42t-35.5 65t-11.5 84q0 17 1 33.5t3 33.5q7 57 28 105t55 82.5t81 53.5t107 19q53 0 89.5 -16t59.5 -43.5t33.5 -65.5t10.5 -82q0 -17 -1 -33.5t-3 -32.5q-14 -123 -82.5 -191.5t-183.5 -68.5zM253 43q78 0 129.5 54t62.5 160q3 27 3 58
q0 147 -133 147q-81 0 -133 -52t-64 -154q-3 -26 -3 -56q0 -76 34 -116.5t104 -40.5zM334 624q43 0 68.5 22.5t36.5 83.5l54 -5q-8 -73 -48 -112.5t-114 -39.5q-69 0 -100.5 38.5t-23.5 111.5l55 7q-5 -55 12.5 -80.5t59.5 -25.5z" />
    <glyph glyph-name="Ohungarumlaut" unicode="&#x150;" horiz-adv-x="729" 
d="M326 -12q-71 0 -122.5 22.5t-85.5 62.5t-50 95t-16 121q0 97 24.5 179t71.5 142t117 93.5t162 33.5q69 0 119.5 -22.5t83 -62t48 -93t15.5 -114.5q0 -107 -25.5 -191.5t-73 -143.5t-115.5 -90.5t-153 -31.5zM332 47q61 0 114.5 24.5t92.5 73t61.5 121t22.5 167.5
q0 57 -14 104q-20 69 -67.5 105.5t-123.5 36.5q-62 0 -116.5 -24.5t-94.5 -72.5t-63 -119.5t-23 -164.5q0 -59 14 -107q20 -70 68.5 -107t128.5 -37zM426 912h89l-128 -145l-52 13zM573 916h89l-158 -149l-52 13z" />
    <glyph glyph-name="ohungarumlaut" unicode="&#x151;" horiz-adv-x="573" 
d="M246 -12q-52 0 -89.5 15t-61.5 42t-35.5 65t-11.5 84q0 17 1 33.5t3 33.5q7 57 28 105t55 82.5t81 53.5t107 19q53 0 89.5 -16t59.5 -43.5t33.5 -65.5t10.5 -82q0 -17 -1 -33.5t-3 -32.5q-14 -123 -82.5 -191.5t-183.5 -68.5zM253 43q78 0 129.5 54t62.5 160q3 27 3 58
q0 147 -133 147q-81 0 -133 -52t-64 -154q-3 -26 -3 -56q0 -76 34 -116.5t104 -40.5zM335 748h88l-146 -176l-50 13zM478 749h88l-167 -177l-50 13z" />
    <glyph glyph-name="OE" unicode="&#x152;" horiz-adv-x="1081" 
d="M590 0l18 129q-48 -68 -117 -104.5t-163 -36.5q-71 0 -123 23.5t-86 65.5t-50.5 99t-16.5 123q0 94 26 174.5t75.5 139t121 91.5t163.5 33q89 0 148 -43.5t85 -111.5l19 142h393l-8 -56h-332l-38 -274h310l-8 -56h-310l-40 -282h342l-8 -56h-401zM334 46q64 0 120.5 25
t98.5 73t66.5 119t24.5 164q0 60 -15.5 107t-43.5 79.5t-68 49t-88 16.5q-64 0 -120 -25t-97 -73t-65 -118t-24 -160q0 -125 56 -191t155 -66z" />
    <glyph glyph-name="oe" unicode="&#x153;" horiz-adv-x="901" 
d="M633 -12q-75 0 -117.5 34.5t-56.5 84.5q-29 -53 -83 -86t-130 -33q-104 0 -151 57.5t-47 154.5q0 58 15.5 115.5t49 103t85.5 74t125 28.5q38 0 67 -10t49.5 -26.5t33.5 -38.5t20 -46q14 24 34.5 46t47.5 38.5t59.5 26.5t70.5 10q39 0 68.5 -10t49.5 -27.5t30 -41
t10 -50.5q0 -33 -11.5 -59t-31 -45t-45.5 -32.5t-55 -22.5t-60 -14t-59.5 -8t-54 -4t-43.5 -2q0 -31 5 -60t20 -51.5t42 -36t72 -13.5q60 0 95.5 31t48.5 73l57 -12q-23 -78 -81 -113t-129 -35zM253 43q54 0 91.5 22t60.5 59t33 85t10 100q0 78 -33.5 115.5t-99.5 37.5
q-54 0 -92 -22t-62 -58t-35 -82t-11 -94q0 -163 138 -163zM702 466q-46 0 -80.5 -17.5t-58.5 -46.5t-38 -66.5t-19 -76.5q9 0 31 1t50.5 3.5t61 8t62.5 15.5q39 13 63.5 37.5t24.5 65.5q0 38 -26 57t-71 19z" />
    <glyph glyph-name="Racute" unicode="&#x154;" horiz-adv-x="602" 
d="M544 0h-70l-125 314h-183l-42 -314h-63l98 724h210q62 0 103 -14t65.5 -37.5t34.5 -54.5t10 -65q0 -88 -43 -141.5t-127 -82.5zM302 370q46 0 85.5 9.5t67.5 31t44 57t16 87.5q0 34 -12 56t-33.5 34.5t-51.5 17.5t-67 5h-137l-40 -298h128zM407 912h95l-158 -145l-52 13z
" />
    <glyph glyph-name="racute" unicode="&#x155;" horiz-adv-x="352" 
d="M117 0h-67l72 511h63l-12 -87q43 46 80 71t87 25h11t11 -1l-10 -69q-50 5 -93 -17t-90 -65zM314 749h93l-167 -177l-50 13z" />
    <glyph glyph-name="Rcommaaccent" unicode="&#x156;" horiz-adv-x="602" 
d="M544 0h-70l-125 314h-183l-42 -314h-63l98 724h210q62 0 103 -14t65.5 -37.5t34.5 -54.5t10 -65q0 -88 -43 -141.5t-127 -82.5zM302 370q46 0 85.5 9.5t67.5 31t44 57t16 87.5q0 34 -12 56t-33.5 34.5t-51.5 17.5t-67 5h-137l-40 -298h128zM243 -69h79l-84 -159l-52 8z
" />
    <glyph glyph-name="rcommaaccent" unicode="&#x157;" horiz-adv-x="352" 
d="M117 0h-67l72 511h63l-12 -87q43 46 80 71t87 25h11t11 -1l-10 -69q-50 5 -93 -17t-90 -65zM47 -69h79l-84 -159l-52 8z" />
    <glyph glyph-name="Rcaron" unicode="&#x158;" horiz-adv-x="602" 
d="M544 0h-70l-125 314h-183l-42 -314h-63l98 724h210q62 0 103 -14t65.5 -37.5t34.5 -54.5t10 -65q0 -88 -43 -141.5t-127 -82.5zM302 370q46 0 85.5 9.5t67.5 31t44 57t16 87.5q0 34 -12 56t-33.5 34.5t-51.5 17.5t-67 5h-137l-40 -298h128zM276 901l79 -81l99 83l58 -10
l-137 -122h-54l-103 122z" />
    <glyph glyph-name="rcaron" unicode="&#x159;" horiz-adv-x="352" 
d="M117 0h-67l72 511h63l-12 -87q43 46 80 71t87 25h11t11 -1l-10 -69q-50 5 -93 -17t-90 -65zM171 743l75 -122l111 124l56 -8l-137 -165h-67l-95 165z" />
    <glyph glyph-name="Sacute" unicode="&#x15a;" horiz-adv-x="555" 
d="M476 525q0 28 -5 55.5t-20 49.5t-42 36t-72 14q-47 0 -81 -12t-56 -32.5t-32 -47.5t-10 -57q0 -33 14.5 -55.5t38.5 -37.5t55 -26t63 -22t62.5 -24t54.5 -33.5t38.5 -49.5t14.5 -71q0 -59 -21.5 -101.5t-58 -69.5t-83.5 -40t-98 -13q-58 0 -99.5 14t-68.5 40.5t-41 63.5
t-17 83l62 10q3 -30 11.5 -58t26.5 -49.5t48.5 -34t78.5 -12.5q33 0 67 7.5t61.5 25.5t45 48.5t17.5 76.5q0 32 -11.5 53.5t-31 36.5t-45 25.5t-53.5 19.5q-35 11 -70.5 23.5t-64 32.5t-46.5 51.5t-18 81.5q0 49 19 88t52.5 66t78.5 41.5t97 14.5q45 0 82.5 -11.5t64.5 -36
t41.5 -63.5t13.5 -93zM384 912h95l-158 -145l-52 13z" />
    <glyph glyph-name="sacute" unicode="&#x15b;" horiz-adv-x="480" 
d="M267 521q46 0 78 -12.5t52.5 -34.5t30 -51t9.5 -62l-57 -6q-1 24 -7 44.5t-19 35.5t-34.5 24t-52.5 9q-35 0 -58 -7.5t-36.5 -20t-19.5 -28.5t-6 -32q0 -33 19.5 -51t48.5 -29.5t62.5 -20t62.5 -24t48.5 -41t19.5 -70.5q0 -74 -51.5 -115t-141.5 -41q-85 0 -131 38
t-53 119l56 11q3 -24 10.5 -45t22.5 -36.5t38.5 -24.5t59.5 -9q21 0 43.5 4.5t41 15t30.5 29t12 46.5q0 34 -19.5 52.5t-48 29.5t-62.5 19.5t-62.5 23t-48 40t-19.5 71.5q0 39 15.5 67t41 46.5t58 27t67.5 8.5zM340 749h93l-167 -177l-50 13z" />
    <glyph glyph-name="Scircumflex" unicode="&#x15c;" horiz-adv-x="555" 
d="M476 525q0 28 -5 55.5t-20 49.5t-42 36t-72 14q-47 0 -81 -12t-56 -32.5t-32 -47.5t-10 -57q0 -33 14.5 -55.5t38.5 -37.5t55 -26t63 -22t62.5 -24t54.5 -33.5t38.5 -49.5t14.5 -71q0 -59 -21.5 -101.5t-58 -69.5t-83.5 -40t-98 -13q-58 0 -99.5 14t-68.5 40.5t-41 63.5
t-17 83l62 10q3 -30 11.5 -58t26.5 -49.5t48.5 -34t78.5 -12.5q33 0 67 7.5t61.5 25.5t45 48.5t17.5 76.5q0 32 -11.5 53.5t-31 36.5t-45 25.5t-53.5 19.5q-35 11 -70.5 23.5t-64 32.5t-46.5 51.5t-18 81.5q0 49 19 88t52.5 66t78.5 41.5t97 14.5q45 0 82.5 -11.5t64.5 -36
t41.5 -63.5t13.5 -93zM431 769l-79 81l-99 -83l-58 10l137 122h54l103 -122z" />
    <glyph glyph-name="scircumflex" unicode="&#x15d;" horiz-adv-x="480" 
d="M267 521q46 0 78 -12.5t52.5 -34.5t30 -51t9.5 -62l-57 -6q-1 24 -7 44.5t-19 35.5t-34.5 24t-52.5 9q-35 0 -58 -7.5t-36.5 -20t-19.5 -28.5t-6 -32q0 -33 19.5 -51t48.5 -29.5t62.5 -20t62.5 -24t48.5 -41t19.5 -70.5q0 -74 -51.5 -115t-141.5 -41q-85 0 -131 38
t-53 119l56 11q3 -24 10.5 -45t22.5 -36.5t38.5 -24.5t59.5 -9q21 0 43.5 4.5t41 15t30.5 29t12 46.5q0 34 -19.5 52.5t-48 29.5t-62.5 19.5t-62.5 23t-48 40t-19.5 71.5q0 39 15.5 67t41 46.5t58 27t67.5 8.5zM380 578l-79 122l-109 -124l-56 8l137 165h67l95 -165z" />
    <glyph glyph-name="Scedilla" unicode="&#x15e;" horiz-adv-x="555" 
d="M146 -158q8 -5 22.5 -11.5t31.5 -6.5q28 0 42 15.5t14 34.5q0 24 -16 35t-54 12l19 69q-98 8 -143 60.5t-50 138.5l62 10q3 -30 11.5 -58t26.5 -49.5t48.5 -34t78.5 -12.5q33 0 67 7.5t61.5 25.5t45 48.5t17.5 76.5q0 32 -11.5 53.5t-31 36.5t-45 25.5t-53.5 19.5
q-35 11 -70.5 23.5t-64 32.5t-46.5 51.5t-18 81.5q0 49 19 88t52.5 66t78.5 41.5t97 14.5q45 0 82.5 -11.5t64.5 -36t41.5 -63.5t13.5 -93l-63 -8q0 28 -5 55.5t-20 49.5t-42 36t-72 14q-47 0 -81 -12t-56 -32.5t-32 -47.5t-10 -57q0 -33 14.5 -55.5t38.5 -37.5t55 -26
t63 -22t62.5 -24t54.5 -33.5t38.5 -49.5t14.5 -71q0 -57 -19.5 -98t-53 -68t-77.5 -41t-92 -16l-9 -33q24 -5 45 -23t21 -53q0 -49 -31.5 -75.5t-78.5 -26.5q-29 0 -48.5 7t-28.5 14z" />
    <glyph glyph-name="scedilla" unicode="&#x15f;" horiz-adv-x="480" 
d="M124 -158q8 -5 22.5 -11.5t31.5 -6.5q28 0 42 15.5t14 34.5q0 24 -16 35t-54 12l19 69q-69 7 -107.5 44t-44.5 111l56 11q3 -24 10.5 -45t22.5 -36.5t38.5 -24.5t59.5 -9q21 0 43.5 4.5t41 15t30.5 29t12 46.5q0 34 -19.5 52.5t-48 29.5t-62.5 19.5t-62.5 23t-48 40
t-19.5 71.5q0 39 15.5 67t41 46.5t58 27t67.5 8.5q46 0 78 -12.5t52.5 -34.5t30 -51t9.5 -62l-57 -6q-1 24 -7 44.5t-19 35.5t-34.5 24t-52.5 9q-35 0 -58 -7.5t-36.5 -20t-19.5 -28.5t-6 -32q0 -33 19.5 -51t48.5 -29.5t62.5 -20t62.5 -24t48.5 -41t19.5 -70.5
q0 -69 -46 -109.5t-127 -45.5l-9 -33q24 -5 45 -23t21 -53q0 -49 -31.5 -75.5t-78.5 -26.5q-29 0 -48.5 7t-28.5 14z" />
    <glyph glyph-name="Scaron" unicode="&#x160;" horiz-adv-x="555" 
d="M476 525q0 28 -5 55.5t-20 49.5t-42 36t-72 14q-47 0 -81 -12t-56 -32.5t-32 -47.5t-10 -57q0 -33 14.5 -55.5t38.5 -37.5t55 -26t63 -22t62.5 -24t54.5 -33.5t38.5 -49.5t14.5 -71q0 -59 -21.5 -101.5t-58 -69.5t-83.5 -40t-98 -13q-58 0 -99.5 14t-68.5 40.5t-41 63.5
t-17 83l62 10q3 -30 11.5 -58t26.5 -49.5t48.5 -34t78.5 -12.5q33 0 67 7.5t61.5 25.5t45 48.5t17.5 76.5q0 32 -11.5 53.5t-31 36.5t-45 25.5t-53.5 19.5q-35 11 -70.5 23.5t-64 32.5t-46.5 51.5t-18 81.5q0 49 19 88t52.5 66t78.5 41.5t97 14.5q45 0 82.5 -11.5t64.5 -36
t41.5 -63.5t13.5 -93zM266 901l79 -81l99 83l58 -10l-137 -122h-54l-103 122z" />
    <glyph glyph-name="scaron" unicode="&#x161;" horiz-adv-x="480" 
d="M267 521q46 0 78 -12.5t52.5 -34.5t30 -51t9.5 -62l-57 -6q-1 24 -7 44.5t-19 35.5t-34.5 24t-52.5 9q-35 0 -58 -7.5t-36.5 -20t-19.5 -28.5t-6 -32q0 -33 19.5 -51t48.5 -29.5t62.5 -20t62.5 -24t48.5 -41t19.5 -70.5q0 -74 -51.5 -115t-141.5 -41q-85 0 -131 38
t-53 119l56 11q3 -24 10.5 -45t22.5 -36.5t38.5 -24.5t59.5 -9q21 0 43.5 4.5t41 15t30.5 29t12 46.5q0 34 -19.5 52.5t-48 29.5t-62.5 19.5t-62.5 23t-48 40t-19.5 71.5q0 39 15.5 67t41 46.5t58 27t67.5 8.5zM212 743l75 -122l111 124l56 -8l-137 -165h-67l-95 165z" />
    <glyph glyph-name="uni0162" unicode="&#x162;" horiz-adv-x="516" 
d="M129 -158q8 -5 22.5 -11.5t31.5 -6.5q28 0 42 15.5t14 34.5q0 24 -16 35t-54 12l22 79h-5l90 668h-212l7 56h488l-8 -56h-211l-90 -668h-7l-12 -44q24 -5 45 -23t21 -53q0 -49 -31.5 -75.5t-78.5 -26.5q-29 0 -48.5 7t-28.5 14z" />
    <glyph glyph-name="uni0163" unicode="&#x163;" horiz-adv-x="369" 
d="M95 -158q8 -5 22.5 -11.5t31.5 -6.5q28 0 42 15.5t14 34.5q0 24 -16 35t-54 12l20 72q-43 10 -61.5 42t-10.5 90l47 333h-80l7 53h80l21 147l68 10l-22 -157h143l-7 -53h-143l-46 -324q-3 -22 -3 -39t6.5 -29t20.5 -18.5t39 -6.5q26 0 52 8.5t44 18.5l10 -50
q-21 -13 -52.5 -21t-61.5 -9l-9 -32q24 -5 45 -23t21 -53q0 -49 -31.5 -75.5t-78.5 -26.5q-29 0 -48.5 7t-28.5 14z" />
    <glyph glyph-name="Tcaron" unicode="&#x164;" horiz-adv-x="516" 
d="M186 0l90 668h-212l7 56h488l-8 -56h-211l-90 -668h-64zM249 901l79 -81l99 83l58 -10l-137 -122h-54l-103 122z" />
    <glyph glyph-name="tcaron" unicode="&#x165;" horiz-adv-x="369" 
d="M320 18q-21 -13 -53 -21.5t-63 -8.5q-69 0 -100.5 32.5t-20.5 104.5l47 333h-80l7 53h80l21 147l68 10l-22 -157h143l-7 -53h-143l-46 -324q-3 -22 -3 -39t6.5 -29t20.5 -18.5t39 -6.5q26 0 52 8.5t44 18.5zM319 755h77l-88 -198l-49 8z" />
    <glyph glyph-name="Tbar" unicode="&#x166;" horiz-adv-x="516" 
d="M97 398h142l37 270h-212l7 56h488l-8 -56h-211l-37 -270h148l-8 -57h-147l-46 -341h-64l46 341h-143z" />
    <glyph glyph-name="tbar" unicode="&#x167;" horiz-adv-x="369" 
d="M320 18q-21 -13 -53 -21.5t-63 -8.5q-69 0 -100.5 32.5t-20.5 104.5l17 121h-80l8 54h79l23 158h-80l7 53h80l21 147l68 10l-22 -157h143l-7 -53h-143l-23 -158h144l-8 -54h-143l-16 -112q-3 -22 -3 -39t6.5 -29t20.5 -18.5t39 -6.5q26 0 52 8.5t44 18.5z" />
    <glyph glyph-name="Utilde" unicode="&#x168;" horiz-adv-x="690" 
d="M584 235q-33 -247 -278 -247q-130 0 -182 64t-35 184l66 488h64l-65 -484q-14 -107 27 -150.5t127 -43.5q44 0 80 9.5t63 32t45 59.5t25 91l65 486h64zM354 889q23 0 41 -7.5t33 -16t29.5 -16t31.5 -7.5q19 0 31 11.5t18 43.5l47 -2q-3 -31 -12.5 -52t-23 -34t-30 -18.5
t-32.5 -5.5q-23 0 -40.5 7.5t-33.5 16t-31 16t-33 7.5q-17 0 -28.5 -12.5t-16.5 -44.5l-46 2q3 30 12 51.5t22.5 35t29.5 19.5t32 6z" />
    <glyph glyph-name="utilde" unicode="&#x169;" horiz-adv-x="581" 
d="M458 511h67l-72 -511h-61l9 69q-15 -13 -37 -27t-48 -25.5t-55 -19t-59 -7.5q-77 0 -110.5 43.5t-21.5 132.5l48 345h67l-48 -341q-3 -21 -3.5 -38.5t2.5 -31.5q10 -54 79 -54q26 0 52 7t51 19t47 27t40 30zM268 708q23 0 41 -7.5t33 -16t29.5 -16t31.5 -7.5
q20 0 32 12.5t17 42.5l47 -2q-8 -62 -35.5 -86t-62.5 -24q-23 0 -40.5 7.5t-33.5 16t-31 16t-33 7.5q-17 0 -28.5 -12.5t-16.5 -44.5l-46 2q7 62 35 87t61 25z" />
    <glyph glyph-name="Umacron" unicode="&#x16a;" horiz-adv-x="690" 
d="M584 235q-33 -247 -278 -247q-130 0 -182 64t-35 184l66 488h64l-65 -484q-14 -107 27 -150.5t127 -43.5q44 0 80 9.5t63 32t45 59.5t25 91l65 486h64zM261 797l8 57h303l-8 -57h-303z" />
    <glyph glyph-name="umacron" unicode="&#x16b;" horiz-adv-x="581" 
d="M458 511h67l-72 -511h-61l9 69q-15 -13 -37 -27t-48 -25.5t-55 -19t-59 -7.5q-77 0 -110.5 43.5t-21.5 132.5l48 345h67l-48 -341q-3 -21 -3.5 -38.5t2.5 -31.5q10 -54 79 -54q26 0 52 7t51 19t47 27t40 30zM203 693h283l-8 -57h-283z" />
    <glyph glyph-name="Ubreve" unicode="&#x16c;" horiz-adv-x="690" 
d="M584 235q-33 -247 -278 -247q-130 0 -182 64t-35 184l66 488h64l-65 -484q-14 -107 27 -150.5t127 -43.5q44 0 80 9.5t63 32t45 59.5t25 91l65 486h64zM418 833q36 0 60.5 16t38.5 58l53 -5q-14 -60 -52.5 -90t-104.5 -30q-63 0 -91.5 30.5t-30.5 88.5l55 6
q2 -42 19.5 -58t52.5 -16z" />
    <glyph glyph-name="ubreve" unicode="&#x16d;" horiz-adv-x="581" 
d="M458 511h67l-72 -511h-61l9 69q-15 -13 -37 -27t-48 -25.5t-55 -19t-59 -7.5q-77 0 -110.5 43.5t-21.5 132.5l48 345h67l-48 -341q-3 -21 -3.5 -38.5t2.5 -31.5q10 -54 79 -54q26 0 52 7t51 19t47 27t40 30zM334 624q43 0 68.5 22.5t36.5 83.5l54 -5q-8 -73 -48 -112.5
t-114 -39.5q-69 0 -100.5 38.5t-23.5 111.5l55 7q-5 -55 12.5 -80.5t59.5 -25.5z" />
    <glyph glyph-name="Uring" unicode="&#x16e;" horiz-adv-x="690" 
d="M584 235q-33 -247 -278 -247q-130 0 -182 64t-35 184l66 488h64l-65 -484q-14 -107 27 -150.5t127 -43.5q44 0 80 9.5t63 32t45 59.5t25 91l65 486h64zM521 847q0 -53 -32.5 -83.5t-86.5 -30.5q-42 0 -66.5 21.5t-24.5 59.5q0 28 10 49.5t26.5 35.5t37.5 21.5t44 7.5
q39 0 65.5 -19.5t26.5 -61.5zM408 778q29 0 44.5 18t15.5 45q0 41 -45 41q-26 0 -43 -15.5t-17 -46.5q0 -20 11 -31t34 -11z" />
    <glyph glyph-name="uring" unicode="&#x16f;" horiz-adv-x="581" 
d="M458 511h67l-72 -511h-61l9 69q-15 -13 -37 -27t-48 -25.5t-55 -19t-59 -7.5q-77 0 -110.5 43.5t-21.5 132.5l48 345h67l-48 -341q-3 -21 -3.5 -38.5t2.5 -31.5q10 -54 79 -54q26 0 52 7t51 19t47 27t40 30zM445 689q0 -53 -32.5 -83.5t-86.5 -30.5q-42 0 -66.5 21.5
t-24.5 59.5q0 28 10 49.5t26.5 35.5t37.5 21.5t44 7.5q39 0 65.5 -19.5t26.5 -61.5zM332 620q29 0 44.5 18t15.5 45q0 41 -45 41q-26 0 -43 -15.5t-17 -46.5q0 -20 11 -31t34 -11z" />
    <glyph glyph-name="Uhungarumlaut" unicode="&#x170;" horiz-adv-x="690" 
d="M584 235q-33 -247 -278 -247q-130 0 -182 64t-35 184l66 488h64l-65 -484q-14 -107 27 -150.5t127 -43.5q44 0 80 9.5t63 32t45 59.5t25 91l65 486h64zM405 912h89l-128 -145l-52 13zM552 916h89l-158 -149l-52 13z" />
    <glyph glyph-name="uhungarumlaut" unicode="&#x171;" horiz-adv-x="581" 
d="M458 511h67l-72 -511h-61l9 69q-15 -13 -37 -27t-48 -25.5t-55 -19t-59 -7.5q-77 0 -110.5 43.5t-21.5 132.5l48 345h67l-48 -341q-3 -21 -3.5 -38.5t2.5 -31.5q10 -54 79 -54q26 0 52 7t51 19t47 27t40 30zM335 748h88l-146 -176l-50 13zM478 749h88l-167 -177l-50 13z
" />
    <glyph glyph-name="Uogonek" unicode="&#x172;" horiz-adv-x="690" 
d="M451 -151q-21 -40 -52.5 -55.5t-62.5 -15.5q-36 0 -61.5 20.5t-25.5 55.5q0 44 28 76t71 62q-13 -2 -23.5 -3t-18.5 -1q-130 0 -182 64t-35 184l66 488h64l-65 -484q-14 -107 27 -150.5t127 -43.5q44 0 80 9.5t63 32t45 59.5t25 91l65 486h64l-66 -489q-6 -44 -19 -78.5
t-31.5 -61.5t-43.5 -48t-55 -39q-56 -32 -87.5 -66.5t-31.5 -75.5q0 -16 8.5 -26t25.5 -10t31.5 11t29.5 31z" />
    <glyph glyph-name="uogonek" unicode="&#x173;" horiz-adv-x="581" 
d="M483 -151q-21 -40 -52.5 -55.5t-62.5 -15.5q-36 0 -61.5 20.5t-25.5 55.5q0 27 10 49t26 40.5t36 34.5t40 30l8 61q-15 -13 -37 -27t-48 -25.5t-55 -19t-59 -7.5q-77 0 -110.5 43.5t-21.5 132.5l48 345h67l-48 -341q-3 -21 -3.5 -38.5t2.5 -31.5q10 -54 79 -54q26 0 52 7
t51 19t47 27t40 30l53 382h67l-72 -511q-47 -37 -76 -66t-29 -68q0 -16 8.5 -26t25.5 -10t31.5 11t29.5 31z" />
    <glyph glyph-name="Wcircumflex" unicode="&#x174;" horiz-adv-x="848" 
d="M545 0l-76 640l-252 -640h-76l-56 724h66l40 -644l252 644h76l77 -654l211 654h63l-243 -724h-82zM577 769l-79 81l-99 -83l-58 10l137 122h54l103 -122z" />
    <glyph glyph-name="wcircumflex" unicode="&#x175;" horiz-adv-x="730" 
d="M127 0l-82 511h66l64 -443l181 443h77l56 -441l186 441h67l-223 -511h-81l-54 436l-177 -436h-80zM497 578l-79 122l-109 -124l-56 8l137 165h67l95 -165z" />
    <glyph glyph-name="Ycircumflex" unicode="&#x176;" horiz-adv-x="520" 
d="M295 287q-11 -72 -20 -143.5t-20 -143.5h-64l39 284l-177 440h68l148 -376l244 376h68l-286 -437v0zM417 769l-79 81l-99 -83l-58 10l137 122h54l103 -122z" />
    <glyph glyph-name="ycircumflex" unicode="&#x177;" horiz-adv-x="461" 
d="M47 511h68l82 -432l206 432h70l-270 -541q-28 -55 -49.5 -92t-42.5 -59.5t-44.5 -32t-55.5 -9.5q-28 0 -47.5 5t-33.5 11l13 51q11 -5 29 -10t40 -5q19 0 35 8.5t31.5 28t33 52t38.5 80.5zM365 578l-79 122l-109 -124l-56 8l137 165h67l95 -165z" />
    <glyph glyph-name="Ydieresis" unicode="&#x178;" horiz-adv-x="520" 
d="M295 287q-11 -72 -20 -143.5t-20 -143.5h-64l39 284l-177 440h68l148 -376l244 376h68l-286 -437v0zM179 825q0 27 17 43t44 16q21 0 33 -12t12 -32q0 -27 -16.5 -42.5t-42.5 -15.5q-22 0 -34.5 11.5t-12.5 31.5zM378 825q0 27 17 43t44 16q21 0 33 -12t12 -32
q0 -27 -16.5 -42.5t-42.5 -15.5q-22 0 -34.5 11.5t-12.5 31.5z" />
    <glyph glyph-name="Zacute" unicode="&#x179;" horiz-adv-x="551" 
d="M-2 0l6 46l470 622h-375l8 56h456l-7 -48l-468 -620h401l-8 -56h-483zM380 912h95l-158 -145l-52 13z" />
    <glyph glyph-name="zacute" unicode="&#x17a;" horiz-adv-x="451" 
d="M-3 0l7 45l350 413h-290l8 53h371l-7 -45l-349 -412h304l-8 -54h-386zM325 749h93l-167 -177l-50 13z" />
    <glyph glyph-name="Zdotaccent" unicode="&#x17b;" horiz-adv-x="551" 
d="M-2 0l6 46l470 622h-375l8 56h456l-7 -48l-468 -620h401l-8 -56h-483zM400 844q0 -29 -17 -45.5t-46 -16.5q-47 0 -47 44q0 29 16.5 45.5t45.5 16.5q48 0 48 -44z" />
    <glyph glyph-name="zdotaccent" unicode="&#x17c;" horiz-adv-x="451" 
d="M-3 0l7 45l350 413h-290l8 53h371l-7 -45l-349 -412h304l-8 -54h-386zM228 669q0 29 16.5 45.5t45.5 16.5q48 0 48 -44q0 -29 -17 -45.5t-46 -16.5q-47 0 -47 44z" />
    <glyph glyph-name="Zcaron" unicode="&#x17d;" horiz-adv-x="551" 
d="M-2 0l6 46l470 622h-375l8 56h456l-7 -48l-468 -620h401l-8 -56h-483zM262 901l79 -81l99 83l58 -10l-137 -122h-54l-103 122z" />
    <glyph glyph-name="zcaron" unicode="&#x17e;" horiz-adv-x="451" 
d="M-3 0l7 45l350 413h-290l8 53h371l-7 -45l-349 -412h304l-8 -54h-386zM197 743l75 -122l111 124l56 -8l-137 -165h-67l-95 165z" />
    <glyph glyph-name="longs" unicode="&#x17f;" horiz-adv-x="269" 
d="M373 694q-14 5 -34 9t-38 4q-35 0 -60 -19.5t-33 -73.5l-116 -826h-67l115 816q23 160 160 160q28 0 49.5 -5t33.5 -11z" />
    <glyph glyph-name="florin" unicode="&#x192;" horiz-adv-x="518" 
d="M247 589q17 80 55.5 114t102.5 34q46 0 81 -22t54 -74l-60 -24q-11 29 -29 46t-48 17q-33 0 -56.5 -19.5t-34.5 -73.5l-27 -143h145l-11 -56h-145l-85 -422q-17 -80 -54 -114t-101 -34q-46 0 -83.5 22t-54.5 74l60 24q11 -29 29.5 -46t52.5 -17q32 0 53.5 19t32.5 74
l83 420h-78l11 56h78z" />
    <glyph glyph-name="Aringacute" unicode="&#x1fa;" horiz-adv-x="625" 
d="M487 827q0 -41 -19.5 -68.5t-53.5 -38.5l142 -720h-69l-44 236h-278l-107 -236h-67l332 721q-46 19 -46 73q0 28 10 49.5t26.5 35.5t37.5 21.5t44 7.5q39 0 65.5 -19.5t26.5 -61.5zM363 669l-172 -377h242zM465 1076h95l-158 -145l-52 13zM374 758q29 0 44.5 18t15.5 45
q0 41 -45 41q-26 0 -43 -15.5t-17 -46.5q0 -20 11 -31t34 -11z" />
    <glyph glyph-name="aringacute" unicode="&#x1fb;" horiz-adv-x="574" 
d="M454 86q-3 -21 1 -32.5t23 -11.5q7 0 14.5 1t18.5 4l-6 -45q-10 -4 -21.5 -5.5t-23.5 -1.5q-32 0 -50.5 16.5t-15.5 58.5q-34 -37 -83.5 -59.5t-100.5 -22.5q-35 0 -65 11t-51.5 35t-33.5 61t-12 90q0 56 13 115.5t42 108.5t77 80.5t118 31.5q44 0 83 -17.5t64 -38.5
l8 46h61zM434 406q-11 10 -26 20t-33.5 18.5t-39.5 13.5t-43 5q-51 0 -85.5 -27t-55 -68t-29.5 -89t-9 -89t7.5 -69t22 -45t34.5 -24.5t44 -7.5q41 0 81 18t94 69zM443 683q0 -53 -32.5 -83.5t-86.5 -30.5q-42 0 -66.5 21.5t-24.5 59.5q0 28 10 49.5t26.5 35.5t37.5 21.5
t44 7.5q39 0 65.5 -19.5t26.5 -61.5zM330 614q29 0 44.5 18t15.5 45q0 41 -45 41q-26 0 -43 -15.5t-17 -46.5q0 -20 11 -31t34 -11zM404 943h95l-158 -145l-52 13z" />
    <glyph glyph-name="AEacute" unicode="&#x1fc;" horiz-adv-x="999" 
d="M521 0l46 330h-225l-233 -330h-72l512 724h466l-8 -56h-327l-39 -279h305l-8 -57h-305l-39 -276h337l-8 -56h-402zM615 668h-40l-197 -281h197zM874 912h95l-158 -145l-52 13z" />
    <glyph glyph-name="aeacute" unicode="&#x1fd;" horiz-adv-x="850" 
d="M580 -12q-65 0 -105 24t-61 66q-53 -49 -103 -69.5t-99 -20.5q-35 0 -65 11t-51.5 35t-33.5 61t-12 90q0 56 13 115.5t42 108.5t77 80.5t118 31.5q44 0 83 -17.5t64 -38.5l8 46h61l-6 -32q28 19 65 30.5t79 11.5q39 0 68.5 -10t49.5 -27.5t30 -41t10 -50.5q0 -44 -20 -75
t-51.5 -51.5t-71.5 -32t-80 -17.5t-76 -8t-61 -3q0 -37 8 -71t31 -57q16 -15 40 -24t60 -9q60 0 95.5 31t48.5 73l57 -12q-11 -39 -32.5 -67t-49.5 -46t-61.5 -26.5t-68.5 -8.5zM396 129q-9 39 -9 83q0 52 13 101.5t40 91.5q-28 26 -65.5 42t-80.5 16q-51 0 -85.5 -27
t-55 -68t-29.5 -89t-9 -89t7.5 -69t22 -45t34.5 -24.5t44 -7.5q21 0 41 4t40.5 13.5t43 26t48.5 41.5zM651 466q-46 0 -80.5 -17.5t-58.5 -46.5t-38 -66.5t-19 -76.5q13 1 39.5 2t59 4.5t67 11.5t63 22t46.5 36t18 55q0 38 -26 57t-71 19zM565 749h93l-167 -177l-50 13z" />
    <glyph glyph-name="Oslashacute" unicode="&#x1fe;" horiz-adv-x="729" 
d="M326 -12q-35 0 -63 6l-29 -72h-62l35 87q-80 32 -117.5 106t-37.5 174q0 97 24.5 179t71.5 142t117 93.5t162 33.5q37 0 72 -8l24 60h62l-32 -78q72 -34 106 -104.5t34 -161.5q0 -107 -25.5 -191.5t-73 -143.5t-115.5 -90.5t-153 -31.5zM135 191q24 -90 96 -124l245 605
q-25 7 -58 7q-62 0 -116.5 -24.5t-94.5 -72.5t-63 -119.5t-23 -164.5q0 -59 14 -107zM332 47q61 0 114.5 24.5t92.5 73t61.5 121t22.5 167.5q0 57 -14 104q-23 77 -80 113l-243 -600q21 -3 46 -3zM475 912h95l-158 -145l-52 13z" />
    <glyph glyph-name="oslashacute" unicode="&#x1ff;" horiz-adv-x="573" 
d="M246 -12q-21 0 -40 3l-27 -69h-62l33 83q-54 23 -78 72t-24 117q0 17 1 33.5t3 33.5q7 57 28 105t55 82.5t81 53.5t107 19q9 0 18 -0.5t17 -1.5l27 65h62l-33 -80q55 -24 78.5 -74t23.5 -116q0 -17 -1 -33.5t-3 -32.5q-14 -123 -82.5 -191.5t-183.5 -68.5zM253 43
q78 0 129.5 54t62.5 160q3 27 3 58q0 95 -58 129l-162 -400q6 -1 12 -1h13zM115 200q0 -101 58 -138l162 399q-5 0 -10 0.5t-10 0.5q-81 0 -133 -52t-64 -154q-3 -26 -3 -56zM385 749h93l-167 -177l-50 13z" />
    <glyph glyph-name="Scommaaccent" unicode="&#x218;" horiz-adv-x="555" 
d="M476 525q0 28 -5 55.5t-20 49.5t-42 36t-72 14q-47 0 -81 -12t-56 -32.5t-32 -47.5t-10 -57q0 -33 14.5 -55.5t38.5 -37.5t55 -26t63 -22t62.5 -24t54.5 -33.5t38.5 -49.5t14.5 -71q0 -59 -21.5 -101.5t-58 -69.5t-83.5 -40t-98 -13q-58 0 -99.5 14t-68.5 40.5t-41 63.5
t-17 83l62 10q3 -30 11.5 -58t26.5 -49.5t48.5 -34t78.5 -12.5q33 0 67 7.5t61.5 25.5t45 48.5t17.5 76.5q0 32 -11.5 53.5t-31 36.5t-45 25.5t-53.5 19.5q-35 11 -70.5 23.5t-64 32.5t-46.5 51.5t-18 81.5q0 49 19 88t52.5 66t78.5 41.5t97 14.5q45 0 82.5 -11.5t64.5 -36
t41.5 -63.5t13.5 -93zM201 -69h79l-84 -159l-52 8z" />
    <glyph glyph-name="scommaaccent" unicode="&#x219;" horiz-adv-x="480" 
d="M267 521q46 0 78 -12.5t52.5 -34.5t30 -51t9.5 -62l-57 -6q-1 24 -7 44.5t-19 35.5t-34.5 24t-52.5 9q-35 0 -58 -7.5t-36.5 -20t-19.5 -28.5t-6 -32q0 -33 19.5 -51t48.5 -29.5t62.5 -20t62.5 -24t48.5 -41t19.5 -70.5q0 -74 -51.5 -115t-141.5 -41q-85 0 -131 38
t-53 119l56 11q3 -24 10.5 -45t22.5 -36.5t38.5 -24.5t59.5 -9q21 0 43.5 4.5t41 15t30.5 29t12 46.5q0 34 -19.5 52.5t-48 29.5t-62.5 19.5t-62.5 23t-48 40t-19.5 71.5q0 39 15.5 67t41 46.5t58 27t67.5 8.5zM166 -69h79l-84 -159l-52 8z" />
    <glyph glyph-name="uni021A" unicode="&#x21a;" horiz-adv-x="516" 
d="M186 0l90 668h-212l7 56h488l-8 -56h-211l-90 -668h-64zM180 -69h79l-84 -159l-52 8z" />
    <glyph glyph-name="uni021B" unicode="&#x21b;" horiz-adv-x="369" 
d="M320 18q-21 -13 -53 -21.5t-63 -8.5q-69 0 -100.5 32.5t-20.5 104.5l47 333h-80l7 53h80l21 147l68 10l-22 -157h143l-7 -53h-143l-46 -324q-3 -22 -3 -39t6.5 -29t20.5 -18.5t39 -6.5q26 0 52 8.5t44 18.5zM148 -69h79l-84 -159l-52 8z" />
    <glyph glyph-name="dotlessj" unicode="&#x237;" horiz-adv-x="239" 
d="M119 511h67l-84 -593q-11 -75 -44.5 -108t-99.5 -33q-9 0 -22 1.5t-25.5 4t-24 5.5t-17.5 7l16 53q16 -6 35 -10t36 -4q32 0 52 18t27 65z" />
    <glyph glyph-name="apostrophe" unicode="&#x2bc;" horiz-adv-x="499" 
d="M317 688h79l-84 -159l-52 8z" />
    <glyph glyph-name="circumflex" unicode="&#x2c6;" horiz-adv-x="500" 
d="M425 578l-79 122l-109 -124l-56 8l137 165h67l95 -165z" />
    <glyph glyph-name="caron" unicode="&#x2c7;" horiz-adv-x="500" 
d="M257 743l75 -122l111 124l56 -8l-137 -165h-67l-95 165z" />
    <glyph glyph-name="uni02C9" unicode="&#x2c9;" horiz-adv-x="500" 
d="M200 683h283l-8 -57h-283z" />
    <glyph glyph-name="breve" unicode="&#x2d8;" horiz-adv-x="499" 
d="M334 624q43 0 68.5 22.5t36.5 83.5l54 -5q-8 -73 -48 -112.5t-114 -39.5q-69 0 -100.5 38.5t-23.5 111.5l55 7q-5 -55 12.5 -80.5t59.5 -25.5z" />
    <glyph glyph-name="dotaccent" unicode="&#x2d9;" horiz-adv-x="500" 
d="M288 669q0 29 16.5 45.5t45.5 16.5q48 0 48 -44q0 -29 -17 -45.5t-46 -16.5q-47 0 -47 44z" />
    <glyph glyph-name="ring" unicode="&#x2da;" horiz-adv-x="500" 
d="M445 689q0 -53 -32.5 -83.5t-86.5 -30.5q-42 0 -66.5 21.5t-24.5 59.5q0 28 10 49.5t26.5 35.5t37.5 21.5t44 7.5q39 0 65.5 -19.5t26.5 -61.5zM332 620q29 0 44.5 18t15.5 45q0 41 -45 41q-26 0 -43 -15.5t-17 -46.5q0 -20 11 -31t34 -11z" />
    <glyph glyph-name="ogonek" unicode="&#x2db;" horiz-adv-x="500" 
d="M343 -151q-21 -40 -52.5 -55.5t-62.5 -15.5q-36 0 -61.5 20.5t-25.5 55.5q0 30 12.5 54t31.5 44t42 37t45 32l50 -13q-25 -20 -46 -37.5t-36 -34t-23.5 -33.5t-8.5 -37q0 -16 8.5 -26t25.5 -10t31.5 11t29.5 31z" />
    <glyph glyph-name="tilde" unicode="&#x2dc;" horiz-adv-x="499" 
d="M268 708q23 0 41 -7.5t33 -16t29.5 -16t31.5 -7.5q20 0 32 12.5t17 42.5l47 -2q-8 -62 -35.5 -86t-62.5 -24q-23 0 -40.5 7.5t-33.5 16t-31 16t-33 7.5q-17 0 -28.5 -12.5t-16.5 -44.5l-46 2q7 62 35 87t61 25z" />
    <glyph glyph-name="hungarumlaut" unicode="&#x2dd;" horiz-adv-x="499" 
d="M335 748h88l-146 -176l-50 13zM478 749h88l-167 -177l-50 13z" />
    <glyph glyph-name="uni0394" unicode="&#x394;" horiz-adv-x="652" 
d="M30 0l349 724h92l151 -724h-592zM127 58h412q-25 128 -50 254.5t-51 254.5l-20 102z" />
    <glyph glyph-name="uni03A9" unicode="&#x3a9;" horiz-adv-x="828" 
d="M511 56h177l-8 -56h-238l19 134q32 12 71.5 38t74.5 66.5t59 96.5t24 128q0 107 -59.5 161t-165.5 54q-68 0 -125.5 -20.5t-99.5 -61t-66 -99.5t-24 -136q0 -47 12.5 -84t33 -65t47.5 -47t57 -31l-19 -134h-247l8 56h185l7 53q-81 38 -117.5 104.5t-36.5 149.5
q0 81 27 149.5t77.5 118.5t122.5 78t161 28q74 0 129 -20.5t91 -57t54 -85.5t18 -106q0 -64 -18.5 -119t-50.5 -100t-76.5 -80.5t-96.5 -59.5z" />
    <glyph glyph-name="uni03BC" unicode="&#x3bc;" horiz-adv-x="628" 
d="M520 511h67l-72 -511h-64l10 73q-19 -15 -42.5 -30t-50 -27t-55 -20t-56.5 -8q-15 0 -27.5 7.5t-23 15.5t-18.5 12.5t-15 -2.5l-23 -197h-67l97 687h67l-48 -336q-6 -46 -2 -73q5 -29 23 -43t54 -14q27 0 54.5 9.5t53 24.5t47.5 33t40 36z" />
    <glyph glyph-name="pi" unicode="&#x3c0;" horiz-adv-x="663" 
d="M418 0l63 450h-268l-63 -450h-67l72 511h403l-73 -511h-67z" />
    <glyph glyph-name="Wgrave" unicode="&#x1e80;" horiz-adv-x="848" 
d="M545 0l-76 640l-252 -640h-76l-56 724h66l40 -644l252 644h76l77 -654l211 654h63l-243 -724h-82zM472 912l83 -132l-52 -13l-117 145h86z" />
    <glyph glyph-name="wgrave" unicode="&#x1e81;" horiz-adv-x="730" 
d="M127 0l-82 511h66l64 -443l181 443h77l56 -441l186 441h67l-223 -511h-81l-54 436l-177 -436h-80zM417 572l-117 177h86l83 -164z" />
    <glyph glyph-name="Wacute" unicode="&#x1e82;" horiz-adv-x="848" 
d="M545 0l-76 640l-252 -640h-76l-56 724h66l40 -644l252 644h76l77 -654l211 654h63l-243 -724h-82zM530 912h95l-158 -145l-52 13z" />
    <glyph glyph-name="wacute" unicode="&#x1e83;" horiz-adv-x="730" 
d="M127 0l-82 511h66l64 -443l181 443h77l56 -441l186 441h67l-223 -511h-81l-54 436l-177 -436h-80zM457 749h93l-167 -177l-50 13z" />
    <glyph glyph-name="Wdieresis" unicode="&#x1e84;" horiz-adv-x="848" 
d="M545 0l-76 640l-252 -640h-76l-56 724h66l40 -644l252 644h76l77 -654l211 654h63l-243 -724h-82zM339 825q0 27 17 43t44 16q21 0 33 -12t12 -32q0 -27 -16.5 -42.5t-42.5 -15.5q-22 0 -34.5 11.5t-12.5 31.5zM538 825q0 27 17 43t44 16q21 0 33 -12t12 -32
q0 -27 -16.5 -42.5t-42.5 -15.5q-22 0 -34.5 11.5t-12.5 31.5z" />
    <glyph glyph-name="wdieresis" unicode="&#x1e85;" horiz-adv-x="730" 
d="M127 0l-82 511h66l64 -443l181 443h77l56 -441l186 441h67l-223 -511h-81l-54 436l-177 -436h-80zM259 660q0 27 17 43t44 16q21 0 33 -12t12 -32q0 -27 -16.5 -42.5t-42.5 -15.5q-22 0 -34.5 11.5t-12.5 31.5zM458 660q0 27 17 43t44 16q21 0 33 -12t12 -32
q0 -27 -16.5 -42.5t-42.5 -15.5q-22 0 -34.5 11.5t-12.5 31.5z" />
    <glyph glyph-name="Ygrave" unicode="&#x1ef2;" horiz-adv-x="520" 
d="M295 287q-11 -72 -20 -143.5t-20 -143.5h-64l39 284l-177 440h68l148 -376l244 376h68l-286 -437v0zM288 912l83 -132l-52 -13l-117 145h86z" />
    <glyph glyph-name="ygrave" unicode="&#x1ef3;" horiz-adv-x="461" 
d="M47 511h68l82 -432l206 432h70l-270 -541q-28 -55 -49.5 -92t-42.5 -59.5t-44.5 -32t-55.5 -9.5q-28 0 -47.5 5t-33.5 11l13 51q11 -5 29 -10t40 -5q19 0 35 8.5t31.5 28t33 52t38.5 80.5zM276 572l-117 177h86l83 -164z" />
    <glyph glyph-name="thinspace" unicode="&#x2009;" horiz-adv-x="125" 
 />
    <glyph glyph-name="endash" unicode="&#x2013;" horiz-adv-x="500" 
d="M-4 255l8 54h499l-8 -54h-499z" />
    <glyph glyph-name="emdash" unicode="&#x2014;" horiz-adv-x="1000" 
d="M-4 255l8 54h999l-8 -54h-999z" />
    <glyph glyph-name="quoteleft" unicode="&#x2018;" horiz-adv-x="187" 
d="M150 557h-79l110 218l52 -8z" />
    <glyph glyph-name="quoteright" unicode="&#x2019;" horiz-adv-x="187" 
d="M155.009 763.034h78.9951l-109.993 -217.987l-51.9961 8z" />
    <glyph glyph-name="quotesinglbase" unicode="&#x201a;" horiz-adv-x="187" 
d="M53.0088 84.0342h78.9951l-109.993 -217.987l-51.9961 8z" />
    <glyph glyph-name="quotedblleft" unicode="&#x201c;" horiz-adv-x="330" 
d="M293 557h-79l110 218l52 -8zM150 557h-79l110 218l52 -8z" />
    <glyph glyph-name="quotedblright" unicode="&#x201d;" horiz-adv-x="330" 
d="M298.009 763.034h78.9951l-109.993 -217.987l-51.9961 8zM155.009 763.034h78.9951l-109.993 -217.987l-51.9961 8z" />
    <glyph glyph-name="quotedblbase" unicode="&#x201e;" horiz-adv-x="329" 
d="M53.0088 84.0342h78.9951l-109.993 -217.987l-51.9961 8zM195.009 84.0342h78.9951l-109.993 -217.987l-51.9961 8z" />
    <glyph glyph-name="dagger" unicode="&#x2020;" horiz-adv-x="391" 
d="M252 503l-70 -586h-75l93 587l-150 -8l9 63l148 -9l16 174h69l-33 -173l151 8l-9 -63z" />
    <glyph glyph-name="daggerdbl" unicode="&#x2021;" horiz-adv-x="411" 
d="M160 138l50 366l-150 -8l9 63l148 -9l16 174h69l-33 -173l151 8l-9 -63l-149 7l-50 -366l150 8l-9 -63l-148 9l-16 -174h-69l33 173l-151 -8l9 63z" />
    <glyph glyph-name="bullet" unicode="&#x2022;" horiz-adv-x="365" 
d="M315 303q0 -75 -40 -113.5t-112 -38.5q-56 0 -85.5 26.5t-29.5 79.5q0 75 39.5 113.5t111.5 38.5q57 0 86.5 -26.5t29.5 -79.5z" />
    <glyph glyph-name="ellipsis" unicode="&#x2026;" horiz-adv-x="582" 
d="M499 55q0 -33 -17.5 -50t-49.5 -17q-51 0 -51 47q0 33 17.5 50t49.5 17q51 0 51 -47zM316 55q0 -33 -17.5 -50t-49.5 -17q-51 0 -51 47q0 33 17.5 50t49.5 17q51 0 51 -47zM133 55q0 -33 -17.5 -50t-49.5 -17q-51 0 -51 47q0 33 17.5 50t49.5 17q51 0 51 -47z" />
    <glyph glyph-name="perthousand" unicode="&#x2030;" horiz-adv-x="996" 
d="M772 -12q-33 0 -56.5 10t-38.5 27.5t-22 41t-7 50.5q0 41 11 76.5t32 62t52 42t72 15.5q63 0 92 -35t29 -95q0 -42 -10.5 -77.5t-31 -61.5t-51 -41t-71.5 -15zM776 39q34 0 53.5 15t29.5 37t12.5 46.5t2.5 43.5q0 33 -13.5 56.5t-50.5 23.5q-29 0 -48.5 -13t-31 -33.5
t-16 -45.5t-4.5 -49q0 -34 14 -57.5t52 -23.5zM439 -12q-33 0 -56.5 10t-38.5 27.5t-22 41t-7 50.5q0 41 11 76.5t32 62t52 42t72 15.5q63 0 92 -35t29 -95q0 -42 -10.5 -77.5t-31 -61.5t-51 -41t-71.5 -15zM443 39q34 0 53.5 15t29.5 37t12.5 46.5t2.5 43.5
q0 33 -13.5 56.5t-50.5 23.5q-29 0 -48.5 -13t-31 -33.5t-16 -45.5t-4.5 -49q0 -34 14 -57.5t52 -23.5zM23 -17l543 741h65l-542 -741h-66zM192 412q-33 0 -56.5 10t-38.5 27.5t-22 41t-7 50.5q0 41 11 76.5t32 62t52 42t72 15.5q63 0 92 -35t29 -95q0 -42 -10.5 -77.5
t-31 -61.5t-51 -41t-71.5 -15zM196 463q34 0 53.5 15t29.5 37t12.5 46.5t2.5 43.5q0 33 -13.5 56.5t-50.5 23.5q-29 0 -48.5 -13t-31 -33.5t-16 -45.5t-4.5 -49q0 -34 14 -57.5t52 -23.5z" />
    <glyph glyph-name="guilsinglleft" unicode="&#x2039;" horiz-adv-x="278" 
d="M128 103l-66 157l110 148h66l-104 -146l60 -159h-66z" />
    <glyph glyph-name="guilsinglright" unicode="&#x203a;" horiz-adv-x="277" 
d="M27 103l110 153l-62 152h64l66 -155l-110 -150h-68z" />
    <glyph glyph-name="fraction" unicode="&#x2044;" horiz-adv-x="134" 
d="M-199 -12l460 736h63l-459 -736h-64z" />
    <glyph glyph-name="zerosuperior" unicode="&#x2070;" horiz-adv-x="389" 
d="M196 342q-37 0 -61.5 11.5t-39 32t-20.5 49t-6 63.5q0 42 7 94t28 98t59 77.5t99 31.5q35 0 59 -11t38.5 -31t20.5 -47.5t6 -61.5q0 -43 -6.5 -96t-26.5 -99.5t-57.5 -78.5t-99.5 -32zM200 389q41 0 65.5 29t37 70t16.5 85.5t4 76.5q0 19 -3 37t-10.5 31.5t-20.5 22
t-33 8.5q-28 0 -47.5 -13t-33.5 -34.5t-22.5 -49t-13 -55.5t-6 -55t-1.5 -47q0 -17 2 -35.5t8.5 -34.5t20 -26t37.5 -10z" />
    <glyph glyph-name="foursuperior" unicode="&#x2074;" horiz-adv-x="366" 
d="M240 349l16 108h-210l6 43l235 291h78l-42 -284h54l-7 -50h-54l-16 -108h-60zM264 507l34 227l-185 -227h151z" />
    <glyph glyph-name="fivesuperior" unicode="&#x2075;" horiz-adv-x="369" 
d="M178 738l-33 -139q18 13 41 22t52 9q21 0 40.5 -6.5t35 -20.5t24.5 -36.5t9 -53.5q0 -78 -45.5 -124.5t-125.5 -46.5q-52 0 -89 26.5t-41 80.5l55 13q1 -11 5 -23.5t13.5 -23t24 -17t36.5 -6.5q20 0 39 6t34 20t24 36.5t9 55.5q0 38 -19 55t-50 17q-25 0 -47.5 -10
t-41.5 -25l-39 17l50 227h221l-8 -53h-174z" />
    <glyph glyph-name="sixsuperior" unicode="&#x2076;" horiz-adv-x="377" 
d="M333 685q-4 37 -19.5 51.5t-41.5 14.5q-30 0 -52.5 -16t-38.5 -41.5t-26 -58t-15 -65.5q19 17 50.5 32t66.5 15q52 0 79.5 -28.5t27.5 -77.5q0 -40 -12 -71.5t-33.5 -53.5t-51.5 -33.5t-65 -11.5q-36 0 -60.5 11.5t-39.5 32.5t-21.5 50t-6.5 63q0 25 3.5 57t12.5 65.5
t24 65t38 56.5t55 40.5t75 15.5t73 -24t33 -76zM137 522q-2 -10 -2 -19.5v-18.5q0 -18 3 -35.5t11 -31t21.5 -22t35.5 -8.5q19 0 36.5 7.5t31 22t21.5 36.5t8 51q0 32 -16.5 49t-46.5 17q-28 0 -55.5 -14t-47.5 -34z" />
    <glyph glyph-name="sevensuperior" unicode="&#x2077;" horiz-adv-x="332" 
d="M47 349l240 389h-223l9 53h289l-8 -48l-241 -394h-66z" />
    <glyph glyph-name="eightsuperior" unicode="&#x2078;" horiz-adv-x="348" 
d="M260 580q16 -8 31 -16.5t27 -20t19 -27.5t7 -37q0 -29 -12 -54t-34 -43.5t-53.5 -29t-70.5 -10.5q-69 0 -102 29t-33 73q0 27 9.5 48t25.5 36.5t37 27t44 20.5q-28 14 -47.5 37.5t-19.5 56.5q0 31 12.5 55.5t34 40.5t50 24.5t61.5 8.5q57 0 89.5 -24t32.5 -66
q0 -45 -31.5 -76.5t-76.5 -52.5zM197 552q-46 -17 -71.5 -40.5t-25.5 -61.5q0 -26 19.5 -43t60.5 -17q52 0 77.5 25.5t25.5 55.5q0 18 -8 30.5t-20.5 22t-27.5 16.5t-30 12zM216 599q37 17 64.5 44t27.5 59q0 52 -69 52q-41 0 -66.5 -20.5t-25.5 -52.5q0 -29 20.5 -50
t48.5 -32z" />
    <glyph glyph-name="ninesuperior" unicode="&#x2079;" horiz-adv-x="382" 
d="M102 456q4 -31 21.5 -48t50.5 -17q29 0 52 13t39.5 36.5t26.5 55t14 67.5q-9 -9 -22.5 -17t-30 -14t-34.5 -10t-36 -4q-52 0 -78.5 31t-26.5 81q0 40 12.5 71.5t34 53t51.5 33t65 11.5t59.5 -12.5t39.5 -34t21.5 -51t6.5 -63.5q0 -64 -11.5 -118t-36 -93.5t-62 -62
t-89.5 -22.5q-49 0 -82.5 24.5t-39.5 75.5zM305 613q3 21 3 41q0 18 -3 36t-11 31.5t-21.5 22t-34.5 8.5q-40 0 -69.5 -29t-29.5 -86q0 -71 61 -71q27 0 56.5 14t48.5 33z" />
    <glyph glyph-name="plussuperior" unicode="&#x207a;" horiz-adv-x="433" 
d="M206 446l13 93h-91l7 53h92l13 90h56l-14 -90h92l-8 -53h-91l-13 -93h-56z" />
    <glyph glyph-name="minussuperior" unicode="&#x207b;" horiz-adv-x="433" 
d="M129 544l7 53h239l-8 -53h-238z" />
    <glyph glyph-name="equalsuperior" unicode="&#x207c;" horiz-adv-x="435" 
d="M111 471l8 54h236l-8 -54h-236zM125 572l8 54h237l-8 -54h-237z" />
    <glyph glyph-name="parenleftsuperior" unicode="&#x207d;" horiz-adv-x="228" 
d="M132 276q-23 41 -40 96.5t-17 120.5q0 49 12 93.5t31.5 84t44 74.5t50.5 66h67q-32 -39 -58 -76.5t-44 -76t-28 -79.5t-10 -87q0 -63 16 -116t39 -100h-63z" />
    <glyph glyph-name="parenrightsuperior" unicode="&#x207e;" horiz-adv-x="228" 
d="M159 811q23 -41 40 -96.5t17 -120.5q0 -50 -12 -94t-31.5 -83.5t-44 -74.5t-50.5 -66h-67q32 39 58 76.5t44 76t28 79t10 87.5q0 63 -16 116t-39 100h63z" />
    <glyph glyph-name="zeroinferior" unicode="&#x2080;" horiz-adv-x="389" 
d="M128 -153q-37 0 -61.5 11.5t-39 32t-20.5 49t-6 63.5q0 42 7 94t28 98t59 77.5t99 31.5q35 0 59 -11t38.5 -31t20.5 -47.5t6 -61.5q0 -43 -6.5 -96t-26.5 -99.5t-57.5 -78.5t-99.5 -32zM132 -106q41 0 65.5 29t37 70t16.5 85.5t4 76.5q0 19 -3 37t-10.5 31.5t-20.5 22
t-33 8.5q-28 0 -47.5 -13t-33.5 -34.5t-22.5 -49t-13 -55.5t-6 -55t-1.5 -47q0 -17 2 -35.5t8.5 -34.5t20 -26t37.5 -10z" />
    <glyph glyph-name="oneinferior" unicode="&#x2081;" horiz-adv-x="290" 
d="M71 -144l53 361q-9 -5 -23 -8.5t-28.5 -6t-28 -4t-21.5 -1.5v49q45 4 78 16t59 36h36l-64 -442h-61z" />
    <glyph glyph-name="twoinferior" unicode="&#x2082;" horiz-adv-x="351" 
d="M-30 -146l7 50l124 124q34 34 57 58.5t37 43.5t19.5 35.5t5.5 34.5q0 29 -15.5 42t-47.5 13q-33 0 -55 -18t-35 -57l-54 10q7 30 22 52t35 35.5t45 20t52 6.5q53 0 84 -24.5t31 -73.5q0 -26 -7 -47.5t-22 -43t-37 -45t-52 -52.5l-116 -112h198l-8 -52h-268z" />
    <glyph glyph-name="threeinferior" unicode="&#x2083;" horiz-adv-x="373" 
d="M178 304q56 0 86 -25t30 -68q0 -27 -10 -47.5t-25.5 -35.5t-34.5 -24t-36 -13v-2q38 -7 60.5 -29t22.5 -65q0 -68 -43.5 -108t-118.5 -40q-56 0 -90 24.5t-37 78.5l55 10q1 -12 4.5 -23.5t11.5 -21t22 -15.5t37 -6q18 0 35 5.5t30.5 17.5t22 30.5t8.5 44.5q0 40 -23.5 55
t-61.5 15h-40l7 47h29q51 0 81.5 25.5t30.5 67.5q0 22 -13 38t-47 16q-38 0 -57.5 -17t-31.5 -47l-54 11q19 55 58 78t92 23z" />
    <glyph glyph-name="fourinferior" unicode="&#x2084;" horiz-adv-x="366" 
d="M172 -146l16 108h-210l6 43l235 291h78l-42 -284h54l-7 -50h-54l-16 -108h-60zM196 12l34 227l-185 -227h151z" />
    <glyph glyph-name="fiveinferior" unicode="&#x2085;" horiz-adv-x="369" 
d="M110 243l-33 -139q18 13 41 22t52 9q21 0 40.5 -6.5t35 -20.5t24.5 -36.5t9 -53.5q0 -78 -45.5 -124.5t-125.5 -46.5q-52 0 -89 26.5t-41 80.5l55 13q1 -11 5 -23.5t13.5 -23t24 -17t36.5 -6.5q20 0 39 6t34 20t24 36.5t9 55.5q0 38 -19 55t-50 17q-25 0 -47.5 -10
t-41.5 -25l-39 17l50 227h221l-8 -53h-174z" />
    <glyph glyph-name="sixinferior" unicode="&#x2086;" horiz-adv-x="377" 
d="M265 190q-4 37 -19.5 51.5t-41.5 14.5q-30 0 -52.5 -16t-38.5 -41.5t-26 -58t-15 -65.5q19 17 50.5 32t66.5 15q52 0 79.5 -28.5t27.5 -77.5q0 -40 -12 -71.5t-33.5 -53.5t-51.5 -33.5t-65 -11.5q-36 0 -60.5 11.5t-39.5 32.5t-21.5 50t-6.5 63q0 25 3.5 57t12.5 65.5
t24 65t38 56.5t55 40.5t75 15.5t73 -24t33 -76zM69 27q-2 -10 -2 -19.5v-18.5q0 -18 3 -35.5t11 -31t21.5 -22t35.5 -8.5q19 0 36.5 7.5t31 22t21.5 36.5t8 51q0 32 -16.5 49t-46.5 17q-28 0 -55.5 -14t-47.5 -34z" />
    <glyph glyph-name="seveninferior" unicode="&#x2087;" horiz-adv-x="332" 
d="M-21 -146l240 389h-223l9 53h289l-8 -48l-241 -394h-66z" />
    <glyph glyph-name="eightinferior" unicode="&#x2088;" horiz-adv-x="348" 
d="M192 85q16 -8 31 -16.5t27 -20t19 -27.5t7 -37q0 -29 -12 -54t-34 -43.5t-53.5 -29t-70.5 -10.5q-69 0 -102 29t-33 73q0 27 9.5 48t25.5 36.5t37 27t44 20.5q-28 14 -47.5 37.5t-19.5 56.5q0 31 12.5 55.5t34 40.5t50 24.5t61.5 8.5q57 0 89.5 -24t32.5 -66
q0 -45 -31.5 -76.5t-76.5 -52.5zM129 57q-46 -17 -71.5 -40.5t-25.5 -61.5q0 -26 19.5 -43t60.5 -17q52 0 77.5 25.5t25.5 55.5q0 18 -8 30.5t-20.5 22t-27.5 16.5t-30 12zM148 104q37 17 64.5 44t27.5 59q0 52 -69 52q-41 0 -66.5 -20.5t-25.5 -52.5q0 -29 20.5 -50
t48.5 -32z" />
    <glyph glyph-name="nineinferior" unicode="&#x2089;" horiz-adv-x="382" 
d="M34 -39q4 -31 21.5 -48t50.5 -17q29 0 52 13t39.5 36.5t26.5 55t14 67.5q-9 -9 -22.5 -17t-30 -14t-34.5 -10t-36 -4q-52 0 -78.5 31t-26.5 81q0 40 12.5 71.5t34 53t51.5 33t65 11.5t59.5 -12.5t39.5 -34t21.5 -51t6.5 -63.5q0 -64 -11.5 -118t-36 -93.5t-62 -62
t-89.5 -22.5q-49 0 -82.5 24.5t-39.5 75.5zM237 118q3 21 3 41q0 18 -3 36t-11 31.5t-21.5 22t-34.5 8.5q-40 0 -69.5 -29t-29.5 -86q0 -71 61 -71q27 0 56.5 14t48.5 33z" />
    <glyph glyph-name="parenleftinferior" unicode="&#x208d;" horiz-adv-x="228" 
d="M64 -219q-23 41 -40 96.5t-17 120.5q0 49 12 93.5t31.5 84t44 74.5t50.5 66h67q-32 -39 -58 -76.5t-44 -76t-28 -79.5t-10 -87q0 -63 16 -116t39 -100h-63z" />
    <glyph glyph-name="parenrightinferior" unicode="&#x208e;" horiz-adv-x="228" 
d="M91 315q23 -41 40 -96.5t17 -120.5q0 -50 -12 -94t-31.5 -83.5t-44 -74.5t-50.5 -66h-67q32 39 58 76.5t44 76t28 79t10 87.5q0 63 -16 116t-39 100h63z" />
    <glyph glyph-name="Euro" unicode="&#x20ac;" horiz-adv-x="628" 
d="M163 396q-5 -22 -7 -44t-4 -43h212l-17 -52h-195q2 -59 14.5 -100t33.5 -66t51 -36t67 -11q70 0 114 33t70 108l56 -15q-14 -50 -38.5 -84.5t-57 -56t-70 -31.5t-76.5 -10q-115 0 -170 66.5t-60 202.5h-91l16 52h75q1 21 3 42.5t7 44.5h-64l16 52h60q15 56 42 108
t66.5 92.5t92 64.5t119.5 24q90 0 139.5 -50t42.5 -158l-61 -5q0 41 -5.5 70.5t-20 49t-39.5 29t-63 9.5q-49 0 -88.5 -19t-70 -51t-52.5 -74.5t-35 -89.5h226l-17 -52h-221z" />
    <glyph glyph-name="afii61352" unicode="&#x2116;" horiz-adv-x="1025" 
d="M801 386q-74 0 -107 38t-33 97q0 46 13 84t37 65.5t58 43t76 15.5q40 0 67 -10.5t43.5 -29.5t24 -44t7.5 -55q0 -47 -13.5 -84.5t-38 -64t-58.5 -41t-76 -14.5zM805 436q25 0 46.5 9t38 28t26 48.5t9.5 71.5q0 41 -19 63t-63 22q-25 0 -47 -8.5t-38.5 -27.5t-26 -48
t-9.5 -69q0 -42 20 -65.5t63 -23.5zM656 336h283l-9 -57h-283zM424 -2l-204 652l-92 -652h-64l102 724h96l195 -643l91 643h63l-102 -724h-85z" />
    <glyph glyph-name="trademark" unicode="&#x2122;" horiz-adv-x="822" 
d="M752 348v280l-114 -280h-40l-112 281v-281h-49v376h63l120 -302l123 302h57v-376h-48zM247 348h-52v329h-133v47h319v-47h-134v-329z" />
    <glyph glyph-name="Omega" unicode="&#x2126;" horiz-adv-x="828" 
d="M511 56h177l-8 -56h-238l19 134q32 12 71.5 38t74.5 66.5t59 96.5t24 128q0 107 -59.5 161t-165.5 54q-68 0 -125.5 -20.5t-99.5 -61t-66 -99.5t-24 -136q0 -47 12.5 -84t33 -65t47.5 -47t57 -31l-19 -134h-247l8 56h185l7 53q-81 38 -117.5 104.5t-36.5 149.5
q0 81 27 149.5t77.5 118.5t122.5 78t161 28q74 0 129 -20.5t91 -57t54 -85.5t18 -106q0 -64 -18.5 -119t-50.5 -100t-76.5 -80.5t-96.5 -59.5z" />
    <glyph glyph-name="onethird" unicode="&#x2153;" horiz-adv-x="855" 
d="M120 282l53 361q-9 -5 -23 -8.5t-28.5 -6t-28 -4t-21.5 -1.5v49q45 4 78 16t59 36h36l-64 -442h-61zM118 -12l460 736h63l-459 -736h-64zM690 451q56 0 86 -25t30 -68q0 -27 -10 -47.5t-25.5 -35.5t-34.5 -24t-36 -13v-2q38 -7 60.5 -29t22.5 -65q0 -68 -43.5 -108
t-118.5 -40q-56 0 -90 24.5t-37 78.5l55 10q1 -12 4.5 -23.5t11.5 -21t22 -15.5t37 -6q18 0 35 5.5t30.5 17.5t22 30.5t8.5 44.5q0 40 -23.5 55t-61.5 15h-40l7 47h29q51 0 81.5 25.5t30.5 67.5q0 22 -13 38t-47 16q-38 0 -57.5 -17t-31.5 -47l-54 11q19 55 58 78t92 23z
" />
    <glyph glyph-name="twothirds" unicode="&#x2154;" horiz-adv-x="855" 
d="M177 -12l460 736h63l-459 -736h-64zM702 451q56 0 86 -25t30 -68q0 -27 -10 -47.5t-25.5 -35.5t-34.5 -24t-36 -13v-2q38 -7 60.5 -29t22.5 -65q0 -68 -43.5 -108t-118.5 -40q-56 0 -90 24.5t-37 78.5l55 10q1 -12 4.5 -23.5t11.5 -21t22 -15.5t37 -6q18 0 35 5.5
t30.5 17.5t22 30.5t8.5 44.5q0 40 -23.5 55t-61.5 15h-40l7 47h29q51 0 81.5 25.5t30.5 67.5q0 22 -13 38t-47 16q-38 0 -57.5 -17t-31.5 -47l-54 11q19 55 58 78t92 23zM36 282l7 50l124 124q34 34 57 58.5t37 43.5t19.5 35.5t5.5 34.5q0 29 -15.5 42t-47.5 13
q-33 0 -55 -18t-35 -57l-54 10q7 30 22 52t35 35.5t45 20t52 6.5q53 0 84 -24.5t31 -73.5q0 -26 -7 -47.5t-22 -43t-37 -45t-52 -52.5l-116 -112h198l-8 -52h-268z" />
    <glyph glyph-name="partialdiff" unicode="&#x2202;" horiz-adv-x="554" 
d="M254 354q-44 0 -74.5 -17.5t-49.5 -45t-27 -61t-8 -66.5q0 -55 25 -87.5t76 -32.5q50 0 86.5 23t62 57.5t41 74.5t23.5 75q-9 11 -24 25t-35 26t-44.5 20.5t-51.5 8.5zM324 618q-45 0 -89 -17.5t-76 -36.5l-23 46q42 26 93.5 44t100.5 18q50 0 82.5 -19.5t52 -51t27 -71
t7.5 -79.5q0 -23 -4 -66.5t-15.5 -95t-32.5 -105t-55 -97t-84 -71.5t-118 -28q-42 0 -73 12.5t-51.5 35t-30.5 53t-10 65.5q0 54 16.5 100.5t47.5 81.5t74 55t97 20q28 0 53 -7.5t45.5 -19t37 -25t27.5 -26.5q6 30 8 64t2 59q0 28 -5 56.5t-17 52t-33 38.5t-54 15z" />
    <glyph glyph-name="Delta" unicode="&#x2206;" horiz-adv-x="652" 
d="M-7 0l349 724h92l151 -724h-592zM90 58h412q-25 128 -50 254.5t-51 254.5l-20 102z" />
    <glyph glyph-name="product" unicode="&#x220f;" horiz-adv-x="765" 
d="M562 -161h-67l117 829h-372l-117 -829h-67l124 885h506z" />
    <glyph glyph-name="summation" unicode="&#x2211;" horiz-adv-x="626" 
d="M41 -120h463l-8 -56h-540l6 46l294 411l-160 396l6 47h518l-7 -56h-437l153 -388z" />
    <glyph glyph-name="minus" unicode="&#x2212;" horiz-adv-x="569" 
d="M93 288l9 66h373l-9 -66h-373z" />
    <glyph glyph-name="uni2215" unicode="&#x2215;" horiz-adv-x="454" 
d="M37 -17l404 648h63l-403 -648h-64z" />
    <glyph glyph-name="uni2219" unicode="&#x2219;" horiz-adv-x="288" 
d="M251 318q0 -35 -19 -54t-54 -19q-55 0 -55 51q0 35 19 54t54 19q55 0 55 -51z" />
    <glyph glyph-name="radical" unicode="&#x221a;" 
d="M219 0l-106 254l-75 -31l-13 45l134 57l102 -249l272 667l56 -15l-297 -728h-73z" />
    <glyph glyph-name="infinity" unicode="&#x221e;" horiz-adv-x="670" 
d="M336 278q-12 -13 -27.5 -29t-35 -29.5t-43 -22.5t-51.5 -9q-24 0 -47 8t-41 24t-29.5 40.5t-11.5 57.5q0 30 10.5 55t28.5 42.5t43.5 27.5t55.5 10q26 0 48 -8t40.5 -20.5t34.5 -28t31 -31.5q13 14 28.5 29.5t34 28.5t40.5 21.5t49 8.5q25 0 48.5 -8t40.5 -24.5t27.5 -42
t10.5 -60.5q0 -28 -10 -52t-28 -41t-42 -27t-52 -10q-29 0 -51.5 8.5t-41 22t-33 29.5t-27.5 30zM304 323q-25 30 -52.5 52.5t-65.5 22.5q-32 0 -51.5 -23t-19.5 -52q0 -14 3.5 -28.5t12 -26t21.5 -19t31 -7.5q20 0 38 9t33 21.5t28 26.5t22 24zM376 320q12 -14 24 -27.5
t25 -24t28.5 -17.5t33.5 -7q16 0 29 6.5t22 17.5t13.5 25t4.5 29q0 14 -3.5 27.5t-11 24.5t-20.5 18t-31 7q-17 0 -32 -7t-29 -18.5t-27 -25.5z" />
    <glyph glyph-name="integral" unicode="&#x222b;" horiz-adv-x="414" 
d="M56 -109q19 -10 42.5 -15.5t43.5 -5.5q29 0 48 15.5t16 55.5l-55 651q-3 37 7 63t29 42t44 23t51 7q29 0 47 -5.5t38 -13.5v-63q-19 10 -41 16t-46 6q-29 0 -48 -16.5t-16 -54.5l55 -650q3 -38 -7 -64t-29 -42t-44 -22.5t-51 -6.5q-29 0 -46.5 5t-37.5 13v62z" />
    <glyph glyph-name="approxequal" unicode="&#x2248;" 
d="M149 325q23 0 56 -7.5t66.5 -16t63 -16t46.5 -7.5q20 0 30.5 9.5t10.5 45.5l47 -2q4 -31 -2 -52t-18 -34.5t-28 -19.5t-34 -6q-23 0 -55.5 7.5t-66.5 16t-64.5 16t-48.5 7.5q-16 0 -27.5 -11.5t-9.5 -45.5l-46 2q-4 31 2 52.5t18 35t27.5 20t32.5 6.5zM175 501
q23 0 56 -7.5t66.5 -16t63 -16t46.5 -7.5q20 0 30.5 9.5t10.5 45.5l47 -2q4 -31 -2 -52t-18 -34.5t-28 -19.5t-34 -6q-23 0 -55.5 7.5t-66.5 16t-64.5 16t-48.5 7.5q-16 0 -27.5 -11.5t-9.5 -45.5l-46 2q-4 31 2 52.5t18 35t27.5 20t32.5 6.5z" />
    <glyph glyph-name="notequal" unicode="&#x2260;" 
d="M237 171l-63 -99h-75l63 99h-94l10 69h128l52 83h-169l10 69h203l64 100h75l-64 -100h91l-10 -69h-125l-52 -83h166l-10 -69h-200z" />
    <glyph glyph-name="lessequal" unicode="&#x2264;" horiz-adv-x="569" 
d="M103 246l11 78l396 159l-9 -68l-328 -129l292 -123l-9 -65zM69 0l9 66h373l-9 -66h-373z" />
    <glyph glyph-name="greaterequal" unicode="&#x2265;" horiz-adv-x="569" 
d="M426 0h-373l9 66h373zM462 252l-394 -148l9 67l327 122l-292 127l9 63l352 -159z" />
    <glyph glyph-name="triangle" unicode="&#x25b3;" horiz-adv-x="425" 
d="M150 203v231l185 -114z" />
    <glyph glyph-name="lozenge" unicode="&#x25ca;" 
d="M208 -17l-111 324l203 324h60l111 -324l-203 -324h-60zM405 307l-86 251l-156 -251l86 -252z" />
    <glyph glyph-name="circle" unicode="&#x25cb;" horiz-adv-x="610" 
d="M305 119q-42 0 -79.5 16t-65.5 44t-44 65.5t-16 79.5t16 79.5t44 65.5t65.5 44t79.5 16t79.5 -16t65.5 -44t44 -65.5t16 -79.5t-16 -79.5t-44 -65.5t-65.5 -44t-79.5 -16z" />
    <glyph glyph-name="a.smcp" unicode="&#xf605;" horiz-adv-x="512" 
d="M334 550l112 -550h-69l-33 168h-210l-79 -168h-68l261 550h86zM285 494h-1l-127 -271h179z" />
    <glyph glyph-name="b.smcp" unicode="&#xf606;" horiz-adv-x="490" 
d="M39 0l77 550h187q42 0 70 -8.5t45.5 -24t24.5 -36.5t7 -46q0 -34 -11 -59.5t-29 -43.5t-41.5 -29t-49.5 -16v-2q58 -8 85 -37.5t27 -77.5t-16.5 -80.5t-46.5 -52.5t-71 -28.5t-90 -8.5h-168zM207 52q34 0 62.5 4t49.5 17t33 35.5t12 60.5q0 28 -12 45t-32.5 26t-47.5 12
t-57 3h-77l-28 -203h97zM228 307q24 0 51.5 4.5t50 17.5t37.5 36.5t15 60.5q0 25 -9 39t-26.5 21.5t-43.5 9.5t-59 2h-72l-26 -191h82z" />
    <glyph glyph-name="c.smcp" unicode="&#xf607;" horiz-adv-x="535" 
d="M476 152q-14 -45 -37 -76t-53.5 -49.5t-66.5 -27t-74 -8.5q-55 0 -94.5 16t-65 45.5t-38 70t-12.5 89.5q0 82 22 146.5t61 109.5t93 68.5t119 23.5q88 0 137 -48.5t44 -141.5l-61 -6q1 33 -5.5 59t-21 44t-39 28t-59.5 10q-49 0 -89.5 -18.5t-70 -55t-46 -90
t-16.5 -122.5q0 -92 39 -133t111 -41q66 0 104 29.5t61 89.5z" />
    <glyph glyph-name="d.smcp" unicode="&#xf608;" horiz-adv-x="565" 
d="M39 0l77 550h165q62 0 107 -15.5t74 -44.5t42.5 -69.5t13.5 -91.5q0 -71 -19.5 -131t-59.5 -104t-101.5 -69t-146.5 -25h-152zM198 54q121 0 187 70.5t66 205.5q0 46 -12.5 78t-36 52t-57 28.5t-76.5 8.5h-96l-62 -443h87z" />
    <glyph glyph-name="e.smcp" unicode="&#xf609;" horiz-adv-x="447" 
d="M39 0l77 550h316l-7 -54h-252l-27 -192h236l-8 -54h-235l-28 -196h261l-8 -54h-325z" />
    <glyph glyph-name="f.smcp" unicode="&#xf60a;" horiz-adv-x="426" 
d="M103 0h-64l77 550h315l-6 -54h-252l-28 -200h232l-6 -53h-233z" />
    <glyph glyph-name="g.smcp" unicode="&#xf60b;" horiz-adv-x="563" 
d="M459 0h-48l2 73q-10 -18 -28 -33t-41.5 -26t-51.5 -17t-57 -6q-52 0 -90 16.5t-62.5 46t-36 71t-11.5 91.5q0 81 21.5 145t61 108t94 67.5t120.5 23.5q87 0 135.5 -43.5t43.5 -138.5l-61 -6q3 71 -28 102.5t-95 31.5q-51 0 -92.5 -20t-71 -57t-45 -90.5t-15.5 -119.5
q0 -50 11 -83.5t31 -54t47.5 -29t60.5 -8.5q37 0 67 12.5t52 32t35 44t17 49.5l7 54h-150l7 49h211z" />
    <glyph glyph-name="h.smcp" unicode="&#xf60c;" horiz-adv-x="562" 
d="M438 0h-65l35 256h-271l-35 -256h-64l77 550h64l-34 -240h271l34 240h65z" />
    <glyph glyph-name="i.smcp" unicode="&#xf60d;" horiz-adv-x="226" 
d="M39 0l77 550h64l-77 -550h-64z" />
    <glyph glyph-name="j.smcp" unicode="&#xf60e;" horiz-adv-x="398" 
d="M293 550h65l-58 -417q-6 -40 -20 -67.5t-34.5 -44t-47 -23.5t-57.5 -7q-69 0 -101 34t-37 97l60 10q2 -17 6 -33t13 -28t23.5 -19.5t38.5 -7.5q35 0 59 17.5t32 72.5z" />
    <glyph glyph-name="k.smcp" unicode="&#xf60f;" horiz-adv-x="492" 
d="M142 280l282 270h78l-250 -238l184 -312h-75l-159 265l-71 -67l-28 -198h-64l77 550h64z" />
    <glyph glyph-name="l.smcp" unicode="&#xf610;" horiz-adv-x="428" 
d="M39 0l77 550h64l-69 -495h247l-8 -55h-311z" />
    <glyph glyph-name="m.smcp" unicode="&#xf611;" horiz-adv-x="689" 
d="M566 0h-62l69 482h-3l-234 -482h-70l-96 482h-3l-68 -482h-60l77 550h97l97 -478h2l231 478h99z" />
    <glyph glyph-name="n.smcp" unicode="&#xf612;" horiz-adv-x="575" 
d="M373 0l-206 477l-68 -477h-60l77 550h86l202 -469l65 469h60l-77 -550h-79z" />
    <glyph glyph-name="o.smcp" unicode="&#xf613;" horiz-adv-x="587" 
d="M252 -9q-57 0 -98 17t-67.5 48t-39 74.5t-12.5 95.5q0 70 19 131t56.5 106t93 71t127.5 26q56 0 96 -17.5t66 -47.5t38 -71t12 -88q0 -79 -19.5 -142.5t-57 -108.5t-91.5 -69.5t-123 -24.5zM259 47q47 0 86.5 19t68 55.5t44.5 89t16 118.5q0 78 -36 127t-115 49
q-48 0 -88.5 -19t-69.5 -55t-45.5 -87.5t-16.5 -117.5q0 -39 8.5 -72t27 -57t48.5 -37t72 -13z" />
    <glyph glyph-name="p.smcp" unicode="&#xf614;" horiz-adv-x="478" 
d="M103 0h-64l77 550h159q46 0 79.5 -11t55.5 -30t32 -45.5t10 -56.5q0 -103 -62 -153.5t-174 -50.5h-85zM220 259q35 0 65.5 6.5t53.5 22t36 43t13 69.5q0 29 -10 48t-28 30t-43 15t-55 4h-80l-33 -238h81z" />
    <glyph glyph-name="q.smcp" unicode="&#xf615;" horiz-adv-x="586" 
d="M249 -9q-57 0 -98 17t-67.5 48t-39 74.5t-12.5 95.5q0 70 19 131t56.5 106t93 71t127.5 26q56 0 96 -17.5t66 -47.5t38 -71t12 -88q0 -121 -45 -204.5t-129 -118.5q26 -33 62.5 -55t87.5 -28l-14 -53q-29 1 -58 12.5t-55.5 28t-47.5 37t-34 41.5q-14 -2 -28.5 -3.5
t-29.5 -1.5zM256 47q47 0 86.5 19t68 55.5t44.5 89t16 118.5q0 78 -36 127t-115 49q-48 0 -88.5 -19t-69.5 -55t-45.5 -87.5t-16.5 -117.5q0 -39 8.5 -72t27 -57t48.5 -37t72 -13z" />
    <glyph glyph-name="r.smcp" unicode="&#xf616;" horiz-adv-x="502" 
d="M427 0h-70l-93 233h-129l-32 -233h-64l77 550h174q48 0 80.5 -11t51.5 -29t27 -41.5t8 -49.5q0 -68 -33.5 -108t-96.5 -63zM233 285q34 0 63 6.5t50 22t33 41t12 62.5q0 47 -33.5 63.5t-87.5 16.5h-98l-30 -212h91z" />
    <glyph glyph-name="s.smcp" unicode="&#xf617;" horiz-adv-x="453" 
d="M362 397q0 20 -3.5 40t-14.5 35.5t-31 25t-53 9.5q-68 0 -99 -30t-31 -70q0 -24 10 -40.5t27 -27.5t39.5 -19t46.5 -15q25 -8 50 -18t45.5 -25.5t33 -39t12.5 -58.5q0 -45 -17.5 -78t-46.5 -54t-67 -31t-78 -10q-176 0 -182 158l61 9q2 -22 8 -42.5t19.5 -36t36.5 -25
t59 -9.5q25 0 49.5 5t44.5 17.5t32.5 34t12.5 53.5q0 22 -8.5 37.5t-23 26.5t-34 18.5t-41.5 13.5q-27 8 -55 17t-50.5 25t-37 40.5t-14.5 63.5q0 38 15.5 68t42.5 51t63.5 32.5t78.5 11.5q35 0 65.5 -8.5t52 -27t33.5 -48t11 -72.5z" />
    <glyph glyph-name="t.smcp" unicode="&#xf618;" horiz-adv-x="429" 
d="M140 0l69 496h-165l7 54h395l-8 -54h-165l-69 -496h-64z" />
    <glyph glyph-name="u.smcp" unicode="&#xf619;" horiz-adv-x="554" 
d="M459 183q-14 -99 -70 -145.5t-153 -46.5q-105 0 -147 49.5t-28 144.5l51 365h64l-50 -361q-11 -78 18 -110.5t95 -32.5q67 0 106.5 31.5t50.5 110.5l50 362h64z" />
    <glyph glyph-name="v.smcp" unicode="&#xf61a;" horiz-adv-x="478" 
d="M154 0l-108 550h69l91 -490l219 490h68l-251 -550h-88z" />
    <glyph glyph-name="w.smcp" unicode="&#xf61b;" horiz-adv-x="694" 
d="M423 0l-54 463h-1l-184 -463h-81l-43 550h67l28 -475h1l189 475h73l56 -481h1l158 481h64l-191 -550h-83z" />
    <glyph glyph-name="x.smcp" unicode="&#xf61c;" horiz-adv-x="482" 
d="M348 0l-122 236l-178 -236h-72l217 287l-131 263h71l107 -223l173 223h70l-210 -272l148 -278h-73z" />
    <glyph glyph-name="y.smcp" unicode="&#xf61d;" horiz-adv-x="432" 
d="M208 0h-64l30 214l-139 336h68l110 -275h1l182 275h68l-225 -334z" />
    <glyph glyph-name="z.smcp" unicode="&#xf61e;" horiz-adv-x="449" 
d="M-7 0l6 45l356 451h-285l8 54h364l-7 -47l-356 -449h306l-8 -54h-384z" />
    <glyph glyph-name="ae.smcp" unicode="&#xf61f;" horiz-adv-x="774" 
d="M364 0l35 244h-168l-173 -244h-70l390 550h381l-7 -54h-251l-29 -196h235l-8 -55h-234l-28 -191h260l-8 -54h-325zM436 496h-32l-141 -198h144z" />
    <glyph glyph-name="oe.smcp" unicode="&#xf621;" horiz-adv-x="855" 
d="M448 0l12 87q-36 -46 -88 -71t-120 -25q-56 0 -97 17.5t-67.5 49t-39.5 74.5t-13 93q0 72 20.5 133.5t59 106.5t94.5 70t128 25q67 0 111.5 -30.5t64.5 -75.5l13 96h314l-8 -54h-254l-27 -192h237l-7 -54h-238l-29 -196h264l-8 -54h-322zM260 46q47 0 88.5 17.5
t72.5 52.5t49 87.5t18 122.5q0 86 -42.5 132.5t-114.5 46.5q-48 0 -89 -18t-72 -53.5t-48.5 -87t-17.5 -118.5q0 -88 41.5 -135t114.5 -47z" />
    <glyph glyph-name="dollar.smcp" unicode="&#xf639;" horiz-adv-x="416" 
d="M323 386q-1 43 -16 67.5t-50 32.5l-27 -192q23 -9 46 -19t41 -25t29 -36.5t11 -52.5q0 -38 -13.5 -67t-36 -48.5t-53 -30t-63.5 -12.5l-9 -67h-56l10 67q-69 8 -100.5 47.5t-34.5 96.5l59 12q5 -42 22.5 -69.5t63.5 -34.5l27 198q-23 9 -44.5 20t-38 27t-27 38.5
t-10.5 54.5q0 30 11.5 56t32 45.5t50 31.5t65.5 14l10 68h55l-10 -71q54 -7 85 -40.5t30 -102.5zM293 155q0 32 -20.5 49t-50.5 30l-25 -179q43 5 69.5 29t26.5 71zM119 398q0 -32 18 -51t45 -32l24 173q-39 -5 -63 -28t-24 -62z" />
    <glyph glyph-name="cent.smcp" unicode="&#xf63a;" horiz-adv-x="401" 
d="M281 560l-11 -76q54 -8 80 -45t23 -88l-59 -9q1 35 -11.5 57.5t-42.5 29.5l-41 -296q27 5 47.5 23.5t31.5 52.5l55 -11q-14 -54 -52.5 -83.5t-88.5 -35.5l-11 -79h-54l12 83q-33 7 -55.5 23t-36.5 39t-20 51t-6 60q0 50 13 90.5t36 70t55 47t70 21.5l11 75h55zM105 254
q0 -45 15 -76t48 -42l41 294q-20 -4 -39 -15.5t-33.5 -32.5t-23 -52.5t-8.5 -75.5z" />
    <glyph glyph-name="sterling.smcp" unicode="&#xf63b;" horiz-adv-x="449" 
d="M35 54q43 33 63.5 66t20.5 71q0 13 -2.5 27t-7.5 28h-81l7 52h61q-7 15 -14.5 42t-7.5 56q0 37 14.5 67.5t40 52t61 33t76.5 11.5q149 0 151 -143l-61 -8q0 23 -4 41.5t-14 31.5t-28 20t-45 7q-26 0 -49 -6.5t-40 -20t-27 -34.5t-10 -51q0 -28 8 -54.5t15 -44.5h179
l-7 -52h-159q4 -12 5.5 -25.5t1.5 -25.5q0 -78 -77 -141h139q45 0 66.5 19.5t35.5 64.5l57 -11q-17 -68 -57 -97.5t-106 -29.5h-254l7 54h42z" />
    <glyph glyph-name="yen.smcp" unicode="&#xf63c;" horiz-adv-x="409" 
d="M216 151l-21 -151h-66l20 151h-101l6 50h102l8 59h-103l7 50h81l-102 240h68l91 -229h1l145 229h71l-164 -240h83l-7 -50h-104l-8 -59h105l-6 -50h-106z" />
    <glyph glyph-name="florin.smcp" unicode="&#xf63d;" horiz-adv-x="414" 
d="M184 442q13 62 44.5 90t86.5 28q84 0 112 -79l-56 -20q-8 22 -21 35t-36 13q-25 0 -42 -14t-24 -52l-20 -105h111l-10 -49h-110l-63 -312q-13 -62 -43 -89.5t-85 -27.5q-42 0 -72.5 19.5t-42.5 59.5l57 21q8 -22 21 -35t39 -13q24 0 39 14t23 52l62 311h-63l9 49h63z" />
    <glyph glyph-name="percent.smcp" unicode="&#xf69e;" horiz-adv-x="721" 
d="M392 110q0 34 10 65t29.5 54t47.5 36.5t65 13.5q57 0 84.5 -32t27.5 -90q0 -35 -9 -65.5t-27.5 -54t-47 -37t-67.5 -13.5q-60 0 -86.5 35.5t-26.5 87.5zM508 35q34 0 52.5 14.5t27 34t10 39.5t1.5 30q0 35 -13 56.5t-45 21.5q-27 0 -44.5 -11.5t-28 -29t-14.5 -39.5
t-4 -43q0 -30 12.5 -51.5t45.5 -21.5zM58 327q0 34 10 65t29.5 54t47.5 36.5t65 13.5q57 0 84.5 -32t27.5 -90q0 -35 -9 -65.5t-27.5 -54t-47 -37t-67.5 -13.5q-60 0 -86.5 35.5t-26.5 87.5zM174 252q34 0 52.5 14.5t27 34t10 39.5t1.5 30q0 35 -13 56.5t-45 21.5
q-27 0 -44.5 -11.5t-28 -29t-14.5 -39.5t-4 -43q0 -30 12.5 -51.5t45.5 -21.5zM200 -17h-61l375 514h61z" />
    <glyph glyph-name="perthousand.smcp" unicode="&#xf69f;" horiz-adv-x="1019" 
d="M687 110q0 34 10 65t29.5 54t47.5 36.5t65 13.5q57 0 84.5 -32t27.5 -90q0 -35 -9 -65.5t-27.5 -54t-47 -37t-67.5 -13.5q-60 0 -86.5 35.5t-26.5 87.5zM803 35q34 0 52.5 14.5t27 34t10 39.5t1.5 30q0 35 -13 56.5t-45 21.5q-27 0 -44.5 -11.5t-28 -29t-14.5 -39.5
t-4 -43q0 -30 12.5 -51.5t45.5 -21.5zM390 110q0 34 10 65t29.5 54t47.5 36.5t65 13.5q57 0 84.5 -32t27.5 -90q0 -35 -9 -65.5t-27.5 -54t-47 -37t-67.5 -13.5q-60 0 -86.5 35.5t-26.5 87.5zM506 35q34 0 52.5 14.5t27 34t10 39.5t1.5 30q0 35 -13 56.5t-45 21.5
q-27 0 -44.5 -11.5t-28 -29t-14.5 -39.5t-4 -43q0 -30 12.5 -51.5t45.5 -21.5zM56 327q0 34 10 65t29.5 54t47.5 36.5t65 13.5q57 0 84.5 -32t27.5 -90q0 -35 -9 -65.5t-27.5 -54t-47 -37t-67.5 -13.5q-60 0 -86.5 35.5t-26.5 87.5zM172 252q34 0 52.5 14.5t27 34t10 39.5
t1.5 30q0 35 -13 56.5t-45 21.5q-27 0 -44.5 -11.5t-28 -29t-14.5 -39.5t-4 -43q0 -30 12.5 -51.5t45.5 -21.5zM198 -17h-61l375 514h61z" />
    <glyph glyph-name="commainferior" unicode="&#xf6e1;" horiz-adv-x="184" 
d="M29 -80h69l-76 -145l-49 6z" />
    <glyph glyph-name="commasuperior" unicode="&#xf6e2;" horiz-adv-x="184" 
d="M97 415h69l-76 -145l-49 6z" />
    <glyph glyph-name="hypheninferior" unicode="&#xf6e5;" horiz-adv-x="224" 
d="M-18 11l7 55h171l-8 -55h-170z" />
    <glyph glyph-name="hyphensuperior" unicode="&#xf6e6;" horiz-adv-x="224" 
d="M50 506l7 55h171l-8 -55h-170z" />
    <glyph glyph-name="periodinferior" unicode="&#xf6e7;" horiz-adv-x="188" 
d="M91 -104q0 -49 -51 -49q-40 0 -40 34q0 50 52 50q39 0 39 -35z" />
    <glyph glyph-name="periodsuperior" unicode="&#xf6e8;" horiz-adv-x="188" 
d="M159 391q0 -49 -51 -49q-40 0 -40 34q0 50 52 50q39 0 39 -35z" />
    <glyph glyph-name="three.tosf" unicode="&#xf81e;" 
d="M325 581q80 0 122 -39t42 -100q0 -41 -14 -71.5t-37 -52t-52 -35.5t-59 -23v-2q26 -5 48.5 -15t39 -26.5t26 -39.5t9.5 -54q0 -48 -16.5 -86t-46.5 -65t-72.5 -41t-94.5 -14q-89 0 -136.5 39.5t-51.5 120.5l61 12q2 -21 7 -42t18 -38t37 -27.5t64 -10.5q30 0 59 7.5
t52.5 25t38 46t14.5 71.5q0 57 -37 84t-96 27h-70l8 55h46q40 0 74 11.5t59 31.5t39.5 46.5t14.5 55.5q0 19 -5 36t-17.5 30t-33.5 20.5t-52 7.5q-35 0 -60.5 -9t-43.5 -24t-30 -35.5t-22 -43.5l-57 14q12 39 34.5 67.5t52 47.5t65 28.5t73.5 9.5z" />
    <glyph glyph-name="four.tosf" unicode="&#xf81f;" 
d="M329 -67l21 151h-330l7 49l370 439h86l-61 -431h87l-8 -57h-88l-21 -151h-63zM359 141l51 363l-308 -363h257z" />
    <glyph glyph-name="five.tosf" unicode="&#xf820;" 
d="M214 507l-52 -223q28 19 65 34t85 15q32 0 61.5 -9.5t52 -30t35.5 -53t13 -78.5q0 -47 -15 -91.5t-45.5 -78.5t-77 -54.5t-109.5 -20.5q-38 0 -71 9.5t-58.5 29.5t-42 50.5t-19.5 71.5l62 16q2 -19 8.5 -40t21 -39t39 -30t63.5 -12q32 0 63.5 10t57 32t41 57t15.5 86
q0 58 -29.5 89t-82.5 31q-47 0 -85 -17.5t-71 -45.5l-44 22l70 329h332l-9 -59h-274z" />
    <glyph glyph-name="six.tosf" unicode="&#xf821;" 
d="M468 473q-7 66 -33.5 92.5t-74.5 26.5q-54 0 -93 -25t-65 -65.5t-40.5 -91t-21.5 -100.5q18 17 38.5 33t44 29t50 20.5t56.5 7.5q41 0 71 -14t49.5 -37t29 -53.5t9.5 -64.5q0 -53 -16 -97.5t-45.5 -76.5t-72 -50.5t-95.5 -18.5q-57 0 -94 20t-58 53t-29 75.5t-8 87.5
q0 34 5 78.5t17 91.5t33.5 92.5t54 81t78.5 57t107 21.5q72 0 115 -41.5t46 -117.5zM138 246q-1 -8 -1.5 -18t-0.5 -21q0 -27 4.5 -56t18 -53.5t38 -40.5t63.5 -16q35 0 64.5 11.5t51.5 35t34 58t12 80.5q0 55 -25.5 87.5t-77.5 32.5q-26 0 -50.5 -8.5t-47.5 -22.5t-44 -32
t-39 -37z" />
    <glyph glyph-name="seven.tosf" unicode="&#xf822;" 
d="M64 -67l381 576h-356l8 57h428l-8 -52l-379 -581h-74z" />
    <glyph glyph-name="eight.tosf" unicode="&#xf823;" 
d="M519 517q0 -34 -10 -60t-30.5 -47.5t-51 -40t-72.5 -36.5q25 -12 48.5 -26t41.5 -32t28.5 -42t10.5 -56q0 -47 -17 -82t-47.5 -59t-74 -36t-96.5 -12q-97 0 -144.5 40t-47.5 108q0 38 12.5 66.5t35 51t55 40.5t71.5 36q-47 21 -77 55t-30 85q0 41 16 74t45.5 55.5
t71 34.5t92.5 12q88 0 129 -35t41 -94zM254 41q44 0 75.5 10.5t51.5 28t29 41t9 49.5q0 27 -12 47.5t-31 36.5t-43 27.5t-47 20.5q-83 -33 -123 -68.5t-40 -91.5q0 -101 131 -101zM340 596q-75 0 -113.5 -31t-38.5 -87q0 -24 9 -42.5t24.5 -33t35.5 -25.5t42 -20
q35 16 64 32.5t49.5 34.5t31.5 39.5t11 48.5q0 38 -26.5 61t-88.5 23z" />
    <glyph glyph-name="nine.tosf" unicode="&#xf824;" 
d="M81 80q5 -33 16.5 -54.5t28 -33.5t37 -17t42.5 -5q58 0 97 25.5t63.5 66.5t37.5 92.5t19 102.5q-30 -36 -81 -61t-109 -25q-41 0 -71 14.5t-50 38.5t-29.5 55.5t-9.5 65.5q0 52 15.5 96.5t45 77t72.5 50.5t97 18q55 0 91 -20.5t57.5 -54.5t30 -78.5t8.5 -92.5
q0 -85 -15.5 -161.5t-49.5 -135t-88.5 -93t-132.5 -34.5q-35 0 -66 9t-54.5 27.5t-39 46t-18.5 65.5zM423 318q1 8 1.5 17.5t0.5 20.5q0 28 -4.5 59.5t-18.5 58t-38.5 44t-63.5 17.5q-36 0 -66 -11t-51.5 -34t-34 -57.5t-12.5 -81.5q0 -58 27 -92.5t79 -34.5t98 25.5
t83 68.5z" />
    <glyph glyph-name="s_t" unicode="&#xfb06;" horiz-adv-x="806" 
d="M756 18q-21 -13 -53 -21.5t-63 -8.5q-60 0 -91 24.5t-31 79.5q0 26 3.5 53t8.5 56l64 457l68 10l-22 -157h143l-7 -53h-143l-46 -324q-3 -20 -3 -35q0 -28 13.5 -43t52.5 -15q24 0 50.5 8t45.5 19zM267 521q46 0 78 -12.5t52.5 -34.5t30 -51t9.5 -62l-57 -6
q-1 24 -7 44.5t-19 35.5t-34.5 24t-52.5 9q-35 0 -58 -7.5t-36.5 -20t-19.5 -28.5t-6 -32q0 -33 19.5 -51t48.5 -29.5t62.5 -20t62.5 -24t48.5 -41t19.5 -70.5q0 -74 -51.5 -115t-141.5 -41q-85 0 -131 38t-53 119l56 11q3 -24 10.5 -45t22.5 -36.5t38.5 -24.5t59.5 -9
q21 0 43.5 4.5t41 15t30.5 29t12 46.5q0 34 -19.5 52.5t-48 29.5t-62.5 19.5t-62.5 23t-48 40t-19.5 71.5q0 39 15.5 67t41 46.5t58 27t67.5 8.5z" />
    <glyph glyph-name="hyphen.case" horiz-adv-x="320" 
d="M20 325l9 67h271l-9 -67h-271z" />
    <glyph glyph-name="zero.osf" horiz-adv-x="613" 
d="M264 -12q-61 0 -102 20t-65.5 53t-35 76t-10.5 88q0 64 15 127.5t50 114.5t92.5 82.5t143.5 31.5q58 0 97.5 -18.5t63.5 -50t34 -72.5t10 -86q0 -39 -5 -81t-17.5 -82.5t-33.5 -77t-53.5 -64.5t-78 -44.5t-105.5 -16.5zM270 44q61 0 102.5 26t67 68.5t36.5 97t11 111.5
q0 39 -7.5 71.5t-24.5 56t-44.5 36.5t-67.5 13q-62 0 -104.5 -24.5t-68.5 -65.5t-38 -95t-12 -114q0 -38 8 -71t26 -57.5t46.5 -38.5t69.5 -14z" />
    <glyph glyph-name="one.osf" horiz-adv-x="355" 
d="M144 0l67 472q-14 -8 -35.5 -14.5t-45 -11t-45 -6.5t-33.5 -2v51q70 5 118.5 24t88.5 59h31l-81 -572h-65z" />
    <glyph glyph-name="two.osf" horiz-adv-x="514" 
d="M107 56h305l-8 -56h-393l7 52l167 129q55 42 94 72.5t64 57.5t36.5 55t11.5 66q0 49 -28.5 72t-79.5 23q-41 0 -68.5 -10.5t-46.5 -29t-30.5 -42.5t-19.5 -51l-58 12q11 46 33.5 79.5t52.5 54.5t66 31t74 10q81 0 125.5 -37.5t44.5 -111.5q0 -43 -12.5 -76.5t-37.5 -64
t-62.5 -61t-88.5 -67.5z" />
    <glyph glyph-name="three.osf" horiz-adv-x="505" 
d="M292 581q80 0 122 -39t42 -100q0 -41 -14 -71.5t-37 -52t-52 -35.5t-59 -23v-2q26 -5 48.5 -15t39 -26.5t26 -39.5t9.5 -54q0 -48 -16.5 -86t-46.5 -65t-72.5 -41t-94.5 -14q-89 0 -136.5 39.5t-51.5 120.5l61 12q2 -21 7 -42t18 -38t37 -27.5t64 -10.5q30 0 59 7.5
t52.5 25t38 46t14.5 71.5q0 57 -37 84t-96 27h-70l8 55h46q40 0 74 11.5t59 31.5t39.5 46.5t14.5 55.5q0 19 -5 36t-17.5 30t-33.5 20.5t-52 7.5q-35 0 -60.5 -9t-43.5 -24t-30 -35.5t-22 -43.5l-57 14q12 39 34.5 67.5t52 47.5t65 28.5t73.5 9.5z" />
    <glyph glyph-name="four.osf" horiz-adv-x="524" 
d="M311 -67l21 151h-330l7 49l370 439h86l-61 -431h87l-8 -57h-88l-21 -151h-63zM341 141l51 363l-308 -363h257z" />
    <glyph glyph-name="five.osf" horiz-adv-x="522" 
d="M191 507l-52 -223q28 19 65 34t85 15q32 0 61.5 -9.5t52 -30t35.5 -53t13 -78.5q0 -47 -15 -91.5t-45.5 -78.5t-77 -54.5t-109.5 -20.5q-38 0 -71 9.5t-58.5 29.5t-42 50.5t-19.5 71.5l62 16q2 -19 8.5 -40t21 -39t39 -30t63.5 -12q32 0 63.5 10t57 32t41 57t15.5 86
q0 58 -29.5 89t-82.5 31q-47 0 -85 -17.5t-71 -45.5l-44 22l70 329h332l-9 -59h-274z" />
    <glyph glyph-name="six.osf" horiz-adv-x="546" 
d="M463 473q-7 66 -33.5 92.5t-74.5 26.5q-54 0 -93 -25t-65 -65.5t-40.5 -91t-21.5 -100.5q18 17 38.5 33t44 29t50 20.5t56.5 7.5q41 0 71 -14t49.5 -37t29 -53.5t9.5 -64.5q0 -53 -16 -97.5t-45.5 -76.5t-72 -50.5t-95.5 -18.5q-57 0 -94 20t-58 53t-29 75.5t-8 87.5
q0 34 5 78.5t17 91.5t33.5 92.5t54 81t78.5 57t107 21.5q72 0 115 -41.5t46 -117.5zM133 246q-1 -8 -1.5 -18t-0.5 -21q0 -27 4.5 -56t18 -53.5t38 -40.5t63.5 -16q35 0 64.5 11.5t51.5 35t34 58t12 80.5q0 55 -25.5 87.5t-77.5 32.5q-26 0 -50.5 -8.5t-47.5 -22.5t-44 -32
t-39 -37z" />
    <glyph glyph-name="seven.osf" horiz-adv-x="505" 
d="M28 -67l381 576h-356l8 57h428l-8 -52l-379 -581h-74z" />
    <glyph glyph-name="eight.osf" horiz-adv-x="514" 
d="M487 517q0 -34 -10 -60t-30.5 -47.5t-51 -40t-72.5 -36.5q25 -12 48.5 -26t41.5 -32t28.5 -42t10.5 -56q0 -47 -17 -82t-47.5 -59t-74 -36t-96.5 -12q-97 0 -144.5 40t-47.5 108q0 38 12.5 66.5t35 51t55 40.5t71.5 36q-47 21 -77 55t-30 85q0 41 16 74t45.5 55.5
t71 34.5t92.5 12q88 0 129 -35t41 -94zM222 41q44 0 75.5 10.5t51.5 28t29 41t9 49.5q0 27 -12 47.5t-31 36.5t-43 27.5t-47 20.5q-83 -33 -123 -68.5t-40 -91.5q0 -101 131 -101zM308 596q-75 0 -113.5 -31t-38.5 -87q0 -24 9 -42.5t24.5 -33t35.5 -25.5t42 -20
q35 16 64 32.5t49.5 34.5t31.5 39.5t11 48.5q0 38 -26.5 61t-88.5 23z" />
    <glyph glyph-name="nine.osf" horiz-adv-x="559" 
d="M75 80q5 -33 16.5 -54.5t28 -33.5t37 -17t42.5 -5q58 0 97 25.5t63.5 66.5t37.5 92.5t19 102.5q-30 -36 -81 -61t-109 -25q-41 0 -71 14.5t-50 38.5t-29.5 55.5t-9.5 65.5q0 52 15.5 96.5t45 77t72.5 50.5t97 18q55 0 91 -20.5t57.5 -54.5t30 -78.5t8.5 -92.5
q0 -85 -15.5 -161.5t-49.5 -135t-88.5 -93t-132.5 -34.5q-35 0 -66 9t-54.5 27.5t-39 46t-18.5 65.5zM417 318q1 8 1.5 17.5t0.5 20.5q0 28 -4.5 59.5t-18.5 58t-38.5 44t-63.5 17.5q-36 0 -66 -11t-51.5 -34t-34 -57.5t-12.5 -81.5q0 -58 27 -92.5t79 -34.5t98 25.5
t83 68.5z" />
    <glyph glyph-name="dollar.osf" horiz-adv-x="520" 
d="M195 2q-35 3 -66 13.5t-54 30.5t-37.5 50t-16.5 72l61 12q3 -24 9 -45t19.5 -37.5t35.5 -27t57 -13.5l32 234q-33 9 -61 22t-47.5 31.5t-30.5 44t-11 59.5q0 40 14.5 71t41 53t62.5 34.5t79 15.5l11 75h55l-10 -78q59 -9 99 -46.5t42 -112.5l-62 -10q-3 49 -22 79t-66 36
l-32 -227q24 -7 50.5 -17.5t48.5 -27.5t36.5 -41.5t14.5 -60.5q0 -39 -12.5 -72t-37.5 -57.5t-62 -40.5t-86 -20l-10 -81h-55zM150 453q0 -41 24.5 -64t69.5 -37l31 214q-65 -2 -95 -34.5t-30 -78.5zM379 179q0 40 -25.5 64t-65.5 35l-30 -222q54 7 87.5 36.5t33.5 86.5z
" />
    <glyph glyph-name="Euro.osf" horiz-adv-x="606" 
d="M74 269q2 20 5 40t8 42h-52l17 52h48q35 118 111.5 180t179.5 62q45 0 82.5 -12t63 -37.5t38 -64.5t9.5 -93l-63 -6q0 39 -5.5 68.5t-21 49.5t-42 30t-67.5 10q-158 0 -217 -187h220l-16 -52h-217q-5 -22 -8 -41t-5 -41h212l-16 -52h-197q-1 -88 40 -130.5t120 -42.5
q72 0 115.5 33t69.5 108l55 -15q-15 -51 -40.5 -85.5t-58 -56t-70.5 -31t-78 -9.5q-59 0 -100.5 16.5t-68 46.5t-39.5 72t-13 94h-72l16 52h57z" />
    <glyph glyph-name="cent.osf" horiz-adv-x="489" 
d="M205 42q-83 8 -119.5 63t-36.5 139q0 64 17 115.5t47 88t71 58t90 26.5l14 97h55l-14 -97q70 -8 105 -57.5t27 -121.5l-60 -4q1 24 -2.5 45t-12.5 38t-24.5 28.5t-40.5 15.5l-53 -379q41 6 69.5 30.5t43.5 72.5l57 -12q-19 -69 -67.5 -104.5t-110.5 -41.5l-15 -108h-55z
M115 244q0 -37 7.5 -63t21 -43.5t31 -27.5t38.5 -13l53 378q-28 -5 -55 -19t-48.5 -41.5t-34.5 -69t-13 -101.5z" />
    <glyph glyph-name="sterling.osf" horiz-adv-x="548" 
d="M46 57q42 37 67.5 75.5t25.5 90.5q0 14 -2.5 29t-5.5 26h-109l8 53h85q-8 20 -16 46.5t-8 54.5q0 48 18 87.5t50 67.5t76 43t96 15q91 0 138.5 -47.5t45.5 -140.5l-61 -6q0 30 -6 55.5t-20.5 44t-38.5 29t-61 10.5q-36 0 -67 -9.5t-54 -28t-36.5 -47t-13.5 -65.5
q0 -33 8 -59.5t16 -49.5h236l-8 -53h-213q2 -11 4.5 -25t2.5 -26q0 -46 -20 -85.5t-66 -84.5h189q32 0 55.5 6.5t40 20.5t28 35.5t19.5 52.5l56 -12q-10 -50 -31 -81t-52 -48.5t-71.5 -24t-89.5 -6.5h-276l8 57h53z" />
    <glyph glyph-name="yen.osf" horiz-adv-x="512" 
d="M205 232l9 68h-135l7 50h102l-128 282h70l122 -283l194 283h74l-202 -282h105l-7 -50h-135l-9 -68h135l-8 -50h-135l-25 -182h-67l25 182h-135l8 50h135z" />
    <glyph glyph-name="florin.osf" horiz-adv-x="482" 
d="M211 497q17 80 55.5 114t102.5 34q46 0 81 -22t54 -74l-60 -24q-11 29 -29 46t-48 17q-33 0 -56.5 -19.5t-34.5 -73.5l-23 -118h145l-11 -56h-145l-74 -354q-17 -80 -54 -114t-101 -34q-46 0 -83.5 22t-54.5 74l60 24q11 -29 29.5 -46t52.5 -17q32 0 53.5 19t32.5 74
l72 352h-78l11 56h78z" />
    <glyph glyph-name="afii61352.osf" horiz-adv-x="945" 
d="M735 283q-37 0 -62.5 10.5t-42 28.5t-24 43t-7.5 55q0 46 12 84t35.5 65t59 42t82.5 15q72 0 103 -38.5t31 -95.5q0 -97 -48 -153t-139 -56zM742 330q52 0 85.5 36t33.5 120q0 91 -81 91q-54 0 -87.5 -35t-33.5 -117q0 -95 83 -95zM570 238h308l-7 -55h-308zM392 0
l-205 546l-77 -546h-62l88 626h90l190 -529l74 529h61l-89 -626h-70z" />
    <glyph glyph-name="percent.osf" horiz-adv-x="848" 
d="M599 -12q-38 0 -64.5 12t-43 32.5t-24.5 48t-8 59.5q0 43 12 81.5t36 67t59 45.5t81 17q69 0 104 -39t35 -113q0 -43 -11 -81t-34 -67t-58.5 -46t-83.5 -17zM603 40q44 0 67.5 19.5t34.5 45t13 51.5t2 40q0 42 -16 72t-61 30q-35 0 -57.5 -15t-36 -38.5t-19 -52
t-5.5 -56.5q0 -41 17 -68.5t61 -27.5zM60 409q0 43 12 81.5t36 67t59 45.5t81 17q72 0 105.5 -40t33.5 -112q0 -43 -11 -81t-34 -67t-58.5 -46t-83.5 -17q-38 0 -64.5 12t-43 32.5t-24.5 48t-8 59.5zM204 309q44 0 67.5 19.5t34.5 45t13 51.5t2 40q0 45 -16.5 73.5
t-60.5 28.5q-35 0 -57.5 -15t-36 -38.5t-19 -52t-5.5 -56.5q0 -40 16.5 -68t61.5 -28zM221 -17h-66l466 638h65z" />
    <glyph glyph-name="perthousand.osf" horiz-adv-x="1047" 
d="M826 -12q-33 0 -56.5 10t-38.5 27.5t-22 41t-7 50.5q0 41 11 76.5t32 62t52 42t72 15.5q63 0 92 -35t29 -95q0 -42 -10.5 -77.5t-31 -61.5t-51 -41t-71.5 -15zM830 39q34 0 53.5 15t29.5 37t12.5 46.5t2.5 43.5q0 33 -13.5 56.5t-50.5 23.5q-29 0 -48.5 -13t-31 -33.5
t-16 -45.5t-4.5 -49q0 -34 14 -57.5t52 -23.5zM497 -12q-33 0 -56.5 10t-38.5 27.5t-22 41t-7 50.5q0 41 11 76.5t32 62t52 42t72 15.5q63 0 92 -35t29 -95q0 -42 -10.5 -77.5t-31 -61.5t-51 -41t-71.5 -15zM501 39q34 0 53.5 15t29.5 37t12.5 46.5t2.5 43.5
q0 33 -13.5 56.5t-50.5 23.5q-29 0 -48.5 -13t-31 -33.5t-16 -45.5t-4.5 -49q0 -34 14 -57.5t52 -23.5zM184 295q-33 0 -56.5 10t-38.5 27.5t-22 41t-7 50.5q0 41 11 76.5t32 62t52 42t72 15.5q63 0 92 -35t29 -95q0 -42 -10.5 -77.5t-31 -61.5t-51 -41t-71.5 -15zM93 -17
l466 638h65l-465 -638h-66zM188 346q34 0 53.5 15t29.5 37t12.5 46.5t2.5 43.5q0 33 -13.5 56.5t-50.5 23.5q-29 0 -48.5 -13t-31 -33.5t-16 -45.5t-4.5 -49q0 -34 14 -57.5t52 -23.5z" />
    <glyph glyph-name="zero.slash" 
d="M240 -12q-57 0 -94 18t-58 49.5t-29.5 75.5t-8.5 95q0 36 2 74.5t7 77.5q8 67 27 131.5t52.5 115t84.5 81.5t123 31q53 0 88.5 -17.5t57 -48t30.5 -71.5t9 -87q0 -36 -1.5 -72.5t-5.5 -72.5q-8 -75 -26 -144t-51 -121.5t-84 -83.5t-123 -31zM243 42q55 0 93.5 29t64 76.5
t39.5 108.5t20 124q6 67 6 131q0 35 -6 65l-4 16l-300 -518q29 -32 87 -32zM121 156q1 -6 1.5 -12t2.5 -11l299 517q-14 14 -35 22.5t-50 8.5q-53 0 -90.5 -27t-63 -71.5t-40 -100.5t-21.5 -114q-5 -35 -6.5 -69t-1.5 -66q0 -21 1 -40.5t4 -36.5z" />
    <glyph glyph-name="zero.tf" 
d="M240 -12q-57 0 -94 18t-58 49.5t-29.5 75.5t-8.5 95q0 36 2 74.5t7 77.5q8 67 27 131.5t52.5 115t84.5 81.5t123 31q53 0 88.5 -17.5t57 -48t30.5 -71.5t9 -87q0 -36 -1.5 -72.5t-5.5 -72.5q-8 -75 -26 -144t-51 -121.5t-84 -83.5t-123 -31zM243 42q55 0 93.5 29t64 76.5
t39.5 108.5t20 124q6 67 6 131q0 35 -6 65q-9 46 -37 75.5t-84 29.5q-53 0 -90.5 -27t-63 -71.5t-40 -100.5t-21.5 -114q-5 -35 -6.5 -69t-1.5 -66q0 -21 1 -40.5t4 -36.5q8 -52 35.5 -83t86.5 -31z" />
    <glyph glyph-name="one.tf" horiz-adv-x="569" 
d="M89 55h140l80 569q-14 -8 -36.5 -14.5t-46 -11t-45 -7t-33.5 -2.5v51q72 6 120.5 25t88.5 59h31l-95 -669h131l-8 -55h-335z" />
    <glyph glyph-name="two.tf" 
d="M27 0l7 52l206 217q58 61 96 103.5t60 75.5t30.5 62t8.5 64q0 58 -28 83.5t-88 25.5q-59 0 -100.5 -32t-62.5 -104l-58 12q12 48 34.5 81.5t53 55t67 31.5t77.5 10q37 0 68 -9t54 -28t36 -48t13 -69q0 -46 -13.5 -84.5t-39 -77t-63.5 -79.5t-86 -92l-187 -194h326l-8 -56
h-403z" />
    <glyph glyph-name="three.tf" 
d="M339 737q84 0 127 -41t43 -107q0 -48 -17 -83.5t-42.5 -59.5t-55.5 -38t-57 -20l-1 -2q61 -10 97.5 -46.5t36.5 -110.5q0 -54 -18 -98.5t-50.5 -76t-78.5 -49t-102 -17.5q-176 0 -185 160l60 12q2 -19 7 -40t18 -38t37 -28.5t64 -11.5q34 0 66 10.5t57.5 32.5t41 56.5
t15.5 83.5q0 37 -11.5 62t-31.5 40.5t-47.5 22t-60.5 6.5h-60l8 55h46q44 0 80 12.5t61.5 35t39.5 53.5t14 68q0 21 -5 39.5t-17.5 32.5t-33.5 22t-52 8q-35 0 -60.5 -8t-44 -23t-31.5 -36t-24 -47l-58 14q29 83 88 119t137 36z" />
    <glyph glyph-name="four.tf" 
d="M341 0l26 186h-339l7 49l387 489h86l-68 -481h87l-8 -57h-88l-26 -186h-64zM376 243l58 411l-326 -411h268z" />
    <glyph glyph-name="five.tf" 
d="M225 668l-60 -260q30 22 67 36.5t82 14.5q32 0 63.5 -9.5t56 -31.5t40 -58.5t15.5 -90.5q0 -59 -18 -110.5t-52.5 -89.5t-85 -59.5t-114.5 -21.5q-78 0 -130 41t-58 121l59 15q2 -18 8.5 -39.5t21.5 -40t40 -30.5t65 -12q33 0 67.5 11.5t63 37.5t47 69.5t18.5 106.5
q0 69 -31.5 103t-90.5 34q-43 0 -83 -18t-73 -46l-44 22l79 361h332l-8 -56h-277z" />
    <glyph glyph-name="six.tf" 
d="M485 568q-7 65 -36 89.5t-72 24.5q-57 0 -98 -31.5t-69.5 -80.5t-45.5 -108t-24 -113q15 16 36.5 32t47.5 29t55 21.5t59 8.5q43 0 75 -13t53 -36.5t31 -55.5t10 -70q0 -62 -18.5 -113t-52 -87.5t-80.5 -56.5t-104 -20q-54 0 -89.5 19t-56.5 52.5t-30 79.5t-9 99
q0 40 5.5 92.5t19.5 108t37.5 109t59 95.5t85.5 68t116 26q63 0 106.5 -39t47.5 -117zM136 286q-3 -29 -3 -59q0 -34 5 -67.5t19.5 -59.5t39.5 -42.5t65 -16.5q36 0 68 13.5t56.5 40.5t39 68t14.5 96q0 124 -112 124q-27 0 -53.5 -8t-51 -21.5t-47 -31t-40.5 -36.5z" />
    <glyph glyph-name="seven.tf" 
d="M87 0l396 668h-376l8 56h448l-7 -50l-397 -674h-72z" />
    <glyph glyph-name="eight.tf" 
d="M352 372q26 -12 51 -25.5t45 -32.5t32 -45.5t12 -63.5q0 -48 -18.5 -87.5t-51.5 -68.5t-80 -45t-104 -16q-52 0 -89.5 13t-62 35.5t-36.5 52t-12 63.5q0 46 16 81t42 61.5t60.5 46t71.5 34.5q-22 10 -42.5 25t-36 35t-25 44t-9.5 52q0 50 19 88.5t51 64.5t75.5 39.5
t93.5 13.5q85 0 133 -37.5t48 -105.5q0 -38 -14.5 -71t-39 -60.5t-58 -50t-71.5 -40.5zM283 345q-44 -17 -77 -34.5t-56 -39.5t-34.5 -50.5t-11.5 -65.5q0 -24 8 -44.5t25.5 -36t44 -24.5t63.5 -9q48 0 82.5 14.5t56 37t31.5 50.5t10 54q0 33 -13.5 57t-34.5 41.5t-46 29
t-48 20.5zM296 398q35 16 66.5 36t55 44t37.5 51t14 58q0 45 -31 71.5t-95 26.5q-36 0 -66.5 -10t-52.5 -29t-34 -45t-12 -58q0 -27 10 -50t26.5 -41t38 -31.5t43.5 -22.5z" />
    <glyph glyph-name="nine.tf" 
d="M85 155q8 -59 40 -86.5t82 -27.5q58 0 100.5 27t72 72.5t46 104t22.5 121.5q-15 -16 -38.5 -32t-52 -29t-59.5 -21t-61 -8q-43 0 -73.5 14.5t-50.5 39.5t-29.5 58.5t-9.5 71.5q0 62 18 113t51.5 87.5t80 56.5t103.5 20q53 0 89 -20t58 -55t31.5 -82t9.5 -101
q0 -108 -19 -198.5t-57.5 -155.5t-97 -101t-136.5 -36q-73 0 -120 37t-57 115zM448 430q3 31 3 67q0 34 -5.5 67.5t-20 60t-39.5 43t-65 16.5q-36 0 -69 -13.5t-58.5 -40.5t-40.5 -68t-15 -95q0 -66 26.5 -100.5t82.5 -34.5q26 0 54 8t54.5 21.5t50.5 31.5t42 37z" />
    <glyph glyph-name="dollar.tf" 
d="M209 5q-90 7 -131 55.5t-44 132.5l61 10q2 -27 8 -52.5t19 -45.5t35.5 -33t58.5 -16l40 283q-29 10 -56.5 21.5t-49.5 30.5t-35 46.5t-13 69.5q0 45 15.5 80.5t43 61.5t65.5 41.5t82 18.5l12 83h56l-12 -84q34 -4 61.5 -16.5t46.5 -35t29 -56.5t9 -80l-60 -7
q-1 24 -4.5 47.5t-13 43.5t-28 33.5t-48.5 17.5l-38 -270q29 -10 57.5 -22t51 -30.5t36 -45.5t13.5 -67q0 -54 -17 -93t-46.5 -65t-67.5 -40t-80 -17l-12 -85h-56zM410 205q0 25 -8 43t-21.5 31.5t-32 23t-39.5 17.5l-37 -262q26 4 50.5 13.5t44 26.5t31.5 43.5t12 63.5z
M167 516q0 -24 7.5 -41.5t21 -30.5t31 -22.5t38.5 -17.5l35 250q-36 -5 -61.5 -18t-41 -31.5t-23 -41.5t-7.5 -47z" />
    <glyph glyph-name="Euro.tf" horiz-adv-x="569" 
d="M132 396q-5 -22 -7 -44t-4 -43h212l-17 -52h-195q2 -59 14.5 -100t33.5 -66t51 -36t67 -11q70 0 114 33t70 108l56 -15q-14 -50 -38.5 -84.5t-57 -56t-70 -31.5t-76.5 -10q-115 0 -170 66.5t-60 202.5h-91l16 52h75q1 21 3 42.5t7 44.5h-64l16 52h60q15 56 42 108
t66.5 92.5t92 64.5t119.5 24q90 0 139.5 -50t42.5 -158l-61 -5q0 41 -5.5 70.5t-20 49t-39.5 29t-63 9.5q-49 0 -88.5 -19t-70 -51t-52.5 -74.5t-35 -89.5h226l-17 -52h-221z" />
    <glyph glyph-name="cent.tf" 
d="M252 108q-83 8 -119.5 63t-36.5 139q0 64 17 115.5t47 88t71 58t90 26.5l14 97h55l-14 -97q70 -8 105 -57.5t27 -121.5l-60 -4q1 24 -2.5 45t-12.5 38t-24.5 28.5t-40.5 15.5l-53 -379q41 6 69.5 30.5t43.5 72.5l57 -12q-19 -69 -67.5 -104.5t-110.5 -41.5l-15 -108h-55z
M162 310q0 -37 7.5 -63t21 -43.5t31 -27.5t38.5 -13l53 378q-28 -5 -55 -19t-48.5 -41.5t-34.5 -69t-13 -101.5z" />
    <glyph glyph-name="sterling.tf" 
d="M59 60q58 47 86 92.5t28 96.5q0 39 -14 78h-107l8 56h82q-4 10 -9 25t-9 33t-7 37.5t-3 39.5q0 50 19 90.5t51.5 69t76.5 44t95 15.5q94 0 141 -44t44 -142l-62 -6q0 33 -5.5 58.5t-19.5 43t-37.5 26.5t-60.5 9q-36 0 -67.5 -9.5t-55.5 -29.5t-37.5 -51.5t-13.5 -75.5
q0 -39 9.5 -74t17.5 -59h238l-8 -56h-214q5 -17 7.5 -37t2.5 -37q0 -107 -101 -193h195q28 0 48.5 6.5t35.5 20t26.5 35t20.5 51.5l60 -13q-23 -86 -72.5 -123t-127.5 -37h-322l8 60h53z" />
    <glyph glyph-name="yen.tf" 
d="M108 300h135l10 71h-135l8 53h102l-126 300h69l123 -301l195 301h73l-204 -300h105l-8 -53h-135l-10 -71h135l-7 -53h-135l-35 -247h-67l35 247h-135z" />
    <glyph glyph-name="florin.tf" 
d="M267 589q17 80 55.5 114t102.5 34q46 0 81 -22t54 -74l-60 -24q-11 29 -29 46t-48 17q-33 0 -56.5 -19.5t-34.5 -73.5l-27 -143h145l-11 -56h-145l-85 -422q-17 -80 -54 -114t-101 -34q-46 0 -83.5 22t-54.5 74l60 24q11 -29 29.5 -46t52.5 -17q32 0 53.5 19t32.5 74
l83 420h-78l11 56h78z" />
    <glyph glyph-name="zeroslash.tosf" 
d="M238 -12q-61 0 -102 20t-65.5 53t-35 76t-10.5 88q0 64 15 127.5t50 114.5t92.5 82.5t143.5 31.5q58 0 97.5 -18.5t63.5 -50t34 -72.5t10 -86q0 -39 -5 -81t-17.5 -82.5t-33.5 -77t-53.5 -64.5t-78 -44.5t-105.5 -16.5zM94 225q0 -35 6.5 -65t20.5 -54l277 397
q-16 10 -36 15.5t-45 5.5q-62 0 -104.5 -24.5t-68.5 -65.5t-38 -95t-12 -114zM244 44q61 0 102.5 26t67 68.5t36.5 97t11 111.5q0 33 -6 62t-18 52l-277 -396q33 -21 84 -21z" />
    <glyph glyph-name="zero.tosf" 
d="M238 -12q-61 0 -102 20t-65.5 53t-35 76t-10.5 88q0 64 15 127.5t50 114.5t92.5 82.5t143.5 31.5q58 0 97.5 -18.5t63.5 -50t34 -72.5t10 -86q0 -39 -5 -81t-17.5 -82.5t-33.5 -77t-53.5 -64.5t-78 -44.5t-105.5 -16.5zM244 44q61 0 102.5 26t67 68.5t36.5 97t11 111.5
q0 39 -7.5 71.5t-24.5 56t-44.5 36.5t-67.5 13q-62 0 -104.5 -24.5t-68.5 -65.5t-38 -95t-12 -114q0 -38 8 -71t26 -57.5t46.5 -38.5t69.5 -14z" />
    <glyph glyph-name="one.tosf" horiz-adv-x="569" 
d="M101 55h149l59 417q-14 -8 -35.5 -14.5t-44.5 -11t-44.5 -6.5t-33.5 -2v51q70 5 118.5 24t87.5 59h31l-73 -517h131l-8 -55h-345z" />
    <glyph glyph-name="two.tosf" 
d="M131 56h305l-8 -56h-393l7 52l167 129q55 42 94 72.5t64 57.5t36.5 55t11.5 66q0 49 -28.5 72t-79.5 23q-41 0 -68.5 -10.5t-46.5 -29t-30.5 -42.5t-19.5 -51l-58 12q11 46 33.5 79.5t52.5 54.5t66 31t74 10q81 0 125.5 -37.5t44.5 -111.5q0 -43 -12.5 -76.5t-37.5 -64
t-62.5 -61t-88.5 -67.5z" />
    <glyph glyph-name="dollar.tosf" 
d="M215 2q-35 3 -66 13.5t-54 30.5t-37.5 50t-16.5 72l61 12q3 -24 9 -45t19.5 -37.5t35.5 -27t57 -13.5l32 234q-33 9 -61 22t-47.5 31.5t-30.5 44t-11 59.5q0 40 14.5 71t41 53t62.5 34.5t79 15.5l11 75h55l-10 -78q59 -9 99 -46.5t42 -112.5l-62 -10q-3 49 -22 79t-66 36
l-32 -227q24 -7 50.5 -17.5t48.5 -27.5t36.5 -41.5t14.5 -60.5q0 -39 -12.5 -72t-37.5 -57.5t-62 -40.5t-86 -20l-10 -81h-55zM170 453q0 -41 24.5 -64t69.5 -37l31 214q-65 -2 -95 -34.5t-30 -78.5zM399 179q0 40 -25.5 64t-65.5 35l-30 -222q54 7 87.5 36.5t33.5 86.5z
" />
    <glyph glyph-name="Euro.tosf" horiz-adv-x="569" 
d="M53 269q2 20 5 40t8 42h-52l17 52h48q35 118 111.5 180t179.5 62q45 0 82.5 -12t63 -37.5t38 -64.5t9.5 -93l-63 -6q0 39 -5.5 68.5t-21 49.5t-42 30t-67.5 10q-158 0 -217 -187h220l-16 -52h-217q-5 -22 -8 -41t-5 -41h212l-16 -52h-197q-1 -88 40 -130.5t120 -42.5
q72 0 115.5 33t69.5 108l55 -15q-15 -51 -40.5 -85.5t-58 -56t-70.5 -31t-78 -9.5q-59 0 -100.5 16.5t-68 46.5t-39.5 72t-13 94h-72l16 52h57z" />
    <glyph glyph-name="cent.tosf" 
d="M237 42q-83 8 -119.5 63t-36.5 139q0 64 17 115.5t47 88t71 58t90 26.5l14 97h55l-14 -97q70 -8 105 -57.5t27 -121.5l-60 -4q1 24 -2.5 45t-12.5 38t-24.5 28.5t-40.5 15.5l-53 -379q41 6 69.5 30.5t43.5 72.5l57 -12q-19 -69 -67.5 -104.5t-110.5 -41.5l-15 -108h-55z
M147 244q0 -37 7.5 -63t21 -43.5t31 -27.5t38.5 -13l53 378q-28 -5 -55 -19t-48.5 -41.5t-34.5 -69t-13 -101.5z" />
    <glyph glyph-name="sterling.tosf" 
d="M53 57q42 37 67.5 75.5t25.5 90.5q0 14 -2.5 29t-5.5 26h-109l8 53h85q-8 20 -16 46.5t-8 54.5q0 48 18 87.5t50 67.5t76 43t96 15q91 0 138.5 -47.5t45.5 -140.5l-61 -6q0 30 -6 55.5t-20.5 44t-38.5 29t-61 10.5q-36 0 -67 -9.5t-54 -28t-36.5 -47t-13.5 -65.5
q0 -33 8 -59.5t16 -49.5h236l-8 -53h-213q2 -11 4.5 -25t2.5 -26q0 -46 -20 -85.5t-66 -84.5h189q32 0 55.5 6.5t40 20.5t28 35.5t19.5 52.5l56 -12q-10 -50 -31 -81t-52 -48.5t-71.5 -24t-89.5 -6.5h-276l8 57h53z" />
    <glyph glyph-name="yen.tosf" 
d="M247 232l9 68h-135l7 50h102l-128 282h70l122 -283l194 283h74l-202 -282h105l-7 -50h-135l-9 -68h135l-8 -50h-135l-25 -182h-67l25 182h-135l8 50h135z" />
    <glyph glyph-name="florin.tosf" 
d="M251 497q17 80 55.5 114t102.5 34q46 0 81 -22t54 -74l-60 -24q-11 29 -29 46t-48 17q-33 0 -56.5 -19.5t-34.5 -73.5l-23 -118h145l-11 -56h-145l-74 -354q-17 -80 -54 -114t-101 -34q-46 0 -83.5 22t-54.5 74l60 24q11 -29 29.5 -46t52.5 -17q32 0 53.5 19t32.5 74
l72 352h-78l11 56h78z" />
    <glyph glyph-name="idotaccent" horiz-adv-x="242" 
d="M117 0h-67l72 511h67zM235 687q0 -29 -16.5 -45.5t-45.5 -16.5q-47 0 -47 44q0 29 16.5 45.5t45.5 16.5q47 0 47 -44z" />
    <glyph glyph-name="s_p" horiz-adv-x="1033" 
d="M625 438q19 15 41 29.5t46.5 26.5t51.5 19.5t57 7.5q34 0 63 -10.5t49 -33.5t31.5 -60t11.5 -89q0 -89 -21 -153.5t-56 -106t-80.5 -61t-93.5 -19.5t-87.5 17.5t-65.5 38.5l-36 -256h-65l102 723h64zM908 326q0 75 -23.5 106t-72.5 31q-26 0 -53.5 -9t-53.5 -22t-48 -28
t-36 -28l-38 -271q8 -7 22 -17t32 -19.5t39.5 -16t45.5 -6.5q54 0 89.5 24.5t57 64.5t30.5 90t9 101zM267 521q46 0 78 -12.5t52.5 -34.5t30 -51t9.5 -62l-57 -6q-1 24 -7 44.5t-19 35.5t-34.5 24t-52.5 9q-35 0 -58 -7.5t-36.5 -20t-19.5 -28.5t-6 -32q0 -33 19.5 -51
t48.5 -29.5t62.5 -20t62.5 -24t48.5 -41t19.5 -70.5q0 -74 -51.5 -115t-141.5 -41q-85 0 -131 38t-53 119l56 11q3 -24 10.5 -45t22.5 -36.5t38.5 -24.5t59.5 -9q21 0 43.5 4.5t41 15t30.5 29t12 46.5q0 34 -19.5 52.5t-48 29.5t-62.5 19.5t-62.5 23t-48 40t-19.5 71.5
q0 39 15.5 67t41 46.5t58 27t67.5 8.5z" />
    <glyph glyph-name="c_t" horiz-adv-x="850" 
d="M246 -12q-53 0 -90.5 15.5t-61.5 44t-35 67.5t-11 87q0 77 21 136.5t57.5 100t86.5 61.5t109 21q43 0 76.5 -15t55 -41t30.5 -62t4 -78l-64 -5q1 33 -3 59.5t-16.5 45t-35 28.5t-57.5 10q-33 0 -67.5 -12.5t-63 -42t-46.5 -79t-18 -123.5q0 -45 11 -76t29 -50t42 -27.5
t51 -8.5q56 0 95 27t58 88l61 -13q-11 -41 -32.5 -71t-50.5 -49.5t-63.5 -28.5t-71.5 -9zM801 18q-21 -13 -53 -21.5t-63 -8.5q-60 0 -91 24.5t-31 79.5q0 26 3.5 53t8.5 56l64 457l68 10l-22 -157h143l-7 -53h-143l-46 -324q-3 -20 -3 -35q0 -28 13.5 -43t52.5 -15
q24 0 50.5 8t45.5 19z" />
    <glyph glyph-name="c_h" horiz-adv-x="1087" 
d="M246 -12q-53 0 -90.5 15.5t-61.5 44t-35 67.5t-11 87q0 77 21 136.5t57.5 100t86.5 61.5t109 21q43 0 76.5 -15t55 -41t30.5 -62t4 -78l-64 -5q1 33 -3 59.5t-16.5 45t-35 28.5t-57.5 10q-33 0 -67.5 -12.5t-63 -42t-46.5 -79t-18 -123.5q0 -45 11 -76t29 -50t42 -27.5
t51 -8.5q56 0 95 27t58 88l61 -13q-11 -41 -32.5 -71t-50.5 -49.5t-63.5 -28.5t-71.5 -9zM623 0h-67l106 755h67l-47 -318q15 13 36.5 27.5t47 27t54.5 21t59 8.5q77 0 112 -43.5t23 -132.5l-48 -345h-67l48 341q9 64 -11 93.5t-66 29.5q-28 0 -53.5 -7.5t-49.5 -20
t-46.5 -28.5t-44.5 -33z" />
    <glyph glyph-name="c_k" horiz-adv-x="1013" 
d="M246 -12q-53 0 -90.5 15.5t-61.5 44t-35 67.5t-11 87q0 77 21 136.5t57.5 100t86.5 61.5t109 21q43 0 76.5 -15t55 -41t30.5 -62t4 -78l-64 -5q1 33 -3 59.5t-16.5 45t-35 28.5t-57.5 10q-33 0 -67.5 -12.5t-63 -42t-46.5 -79t-18 -123.5q0 -45 11 -76t29 -50t42 -27.5
t51 -8.5q56 0 95 27t58 88l61 -13q-11 -41 -32.5 -71t-50.5 -49.5t-63.5 -28.5t-71.5 -9zM881 0l-129 278l-103 -92l-26 -186h-67l106 755h67l-68 -485l268 241h84l-206 -185l147 -326h-73z" />
    <glyph glyph-name="T_h" horiz-adv-x="1015" 
d="M551 0h-67l94 668h-238l-90 -668h-64l90 668h-212l7 56h514l5 31h67l-47 -318q15 13 36.5 27.5t47 27t54.5 21t59 8.5q77 0 112 -43.5t23 -132.5l-48 -345h-67l48 341q9 64 -11 94t-66 30q-28 0 -53.5 -7.5t-49.5 -20.5t-46.5 -29t-44.5 -33z" />
    <glyph glyph-name="commaaccent" horiz-adv-x="500" 
d="M206 -69h79l-84 -159l-52 8z" />
    <glyph glyph-name="revcommaaccent" horiz-adv-x="500" 
d="M360 570h-79l84 159l52 -8z" />
    <glyph glyph-name="caron.alt" horiz-adv-x="499" 
d="M335 755h77l-88 -198l-49 8z" />
    <glyph glyph-name="tilde.cap" horiz-adv-x="499" 
d="M301 889q23 0 41 -7.5t33 -16t29.5 -16t31.5 -7.5q19 0 31 11.5t18 43.5l47 -2q-3 -31 -12.5 -52t-23 -34t-30 -18.5t-32.5 -5.5q-23 0 -40.5 7.5t-33.5 16t-31 16t-33 7.5q-17 0 -28.5 -12.5t-16.5 -44.5l-46 2q3 30 12 51.5t22.5 35t29.5 19.5t32 6z" />
    <glyph glyph-name="ring.cap" horiz-adv-x="500" 
d="M468 847q0 -53 -32.5 -83.5t-86.5 -30.5q-42 0 -66.5 21.5t-24.5 59.5q0 28 10 49.5t26.5 35.5t37.5 21.5t44 7.5q39 0 65.5 -19.5t26.5 -61.5zM355 778q29 0 44.5 18t15.5 45q0 41 -45 41q-26 0 -43 -15.5t-17 -46.5q0 -20 11 -31t34 -11z" />
    <glyph glyph-name="circumflex.cap" horiz-adv-x="499" 
d="M448 769l-79 81l-99 -83l-58 10l137 122h54l103 -122z" />
    <glyph glyph-name="acute.cap" horiz-adv-x="500" 
d="M401 912h95l-158 -145l-52 13z" />
    <glyph glyph-name="grave.cap" horiz-adv-x="499" 
d="M343 912l83 -132l-52 -13l-117 145h86z" />
    <glyph glyph-name="dieresis.cap" horiz-adv-x="499" 
d="M210 825q0 27 17 43t44 16q21 0 33 -12t12 -32q0 -27 -16.5 -42.5t-42.5 -15.5q-22 0 -34.5 11.5t-12.5 31.5zM409 825q0 27 17 43t44 16q21 0 33 -12t12 -32q0 -27 -16.5 -42.5t-42.5 -15.5q-22 0 -34.5 11.5t-12.5 31.5z" />
    <glyph glyph-name="caron.cap" horiz-adv-x="500" 
d="M283 901l79 -81l99 83l58 -10l-137 -122h-54l-103 122z" />
    <glyph glyph-name="macron.cap" horiz-adv-x="499" 
d="M208 797l8 57h303l-8 -57h-303z" />
    <glyph glyph-name="dotaccent.cap" horiz-adv-x="500" 
d="M421 844q0 -29 -17 -45.5t-46 -16.5q-47 0 -47 44q0 29 16.5 45.5t45.5 16.5q48 0 48 -44z" />
    <glyph glyph-name="cedilla.cap" horiz-adv-x="500" 
d="M134 -158q8 -5 22.5 -11.5t31.5 -6.5q28 0 42 15.5t14 34.5q0 24 -16 35t-54 12l31 109l50 -8l-19 -66q24 -5 45 -23t21 -53q0 -49 -31.5 -75.5t-78.5 -26.5q-29 0 -48.5 7t-28.5 14z" />
    <glyph glyph-name="hungarumlaut.cap" horiz-adv-x="500" 
d="M352 912h89l-128 -145l-52 13zM499 916h89l-158 -149l-52 13z" />
    <glyph glyph-name="commaaccent.cap" horiz-adv-x="500" 
d="M206 -69h79l-84 -159l-52 8z" />
    <glyph glyph-name="breve.cap" horiz-adv-x="500" 
d="M365 833q36 0 60.5 16t38.5 58l53 -5q-14 -60 -52.5 -90t-104.5 -30q-63 0 -91.5 30.5t-30.5 88.5l55 6q2 -42 19.5 -58t52.5 -16z" />
    <glyph glyph-name="ogonek.cap" horiz-adv-x="500" 
d="M343 -151q-21 -40 -52.5 -55.5t-62.5 -15.5q-36 0 -61.5 20.5t-25.5 55.5q0 30 12.5 54t31.5 44t42 37t45 32l50 -13q-25 -20 -46 -37.5t-36 -34t-23.5 -33.5t-8.5 -37q0 -16 8.5 -26t25.5 -10t31.5 11t29.5 31z" />
    <glyph glyph-name="a.sup" horiz-adv-x="396" 
d="M345 412q-2 -14 1 -21t15 -7q10 0 22 4l-5 -36q-7 -3 -17 -4.5t-20 -1.5q-23 0 -36.5 11t-12.5 34q-22 -23 -53 -36t-65 -13q-48 0 -78.5 29.5t-30.5 97.5q0 40 9.5 79t30 69.5t51.5 49t75 18.5q29 0 53.5 -11t41.5 -25l5 30h53zM317 606q-13 12 -35.5 22t-48.5 10
q-32 0 -53 -16t-33.5 -40.5t-18 -53t-5.5 -53.5q0 -48 18 -67.5t49 -19.5q24 0 49.5 11.5t52.5 39.5z" />
    <glyph glyph-name="b.sup" horiz-adv-x="396" 
d="M64 350l70 483h57l-29 -197q9 7 22.5 15.5t29.5 16t34 12.5t37 5q45 0 74 -28t29 -96q0 -57 -13.5 -98.5t-36 -68.5t-52 -39.5t-60.5 -12.5t-56.5 10t-45.5 27h-1l-7 -29h-52zM132 424q11 -8 33 -21t54 -13q30 0 51 14t34 37.5t18.5 53t5.5 61.5q0 43 -14.5 62.5
t-45.5 19.5q-15 0 -31 -5t-31 -12.5t-28 -16t-21 -15.5z" />
    <glyph glyph-name="c.sup" horiz-adv-x="363" 
d="M200 342q-72 0 -104 38.5t-32 100.5q0 49 13.5 87t38 64t58.5 39.5t74 13.5q60 0 90.5 -36t24.5 -92l-53 -4q2 39 -12 62.5t-57 23.5q-20 0 -40.5 -7.5t-37.5 -25.5t-28 -47.5t-11 -74.5q0 -53 23.5 -74.5t56.5 -21.5q35 0 59 17.5t35 52.5l50 -10q-7 -28 -21.5 -48
t-34 -33t-43.5 -19t-49 -6z" />
    <glyph glyph-name="d.sup" horiz-adv-x="389" 
d="M291 350l1 38q-24 -19 -53.5 -32.5t-62.5 -13.5q-50 0 -80 29.5t-30 95.5q0 60 14.5 101.5t38.5 67.5t54 37.5t60 11.5t53 -9.5t40 -23.5l26 181h56l-69 -483h-48zM318 610q-11 8 -31 19t-48 11q-31 0 -53 -14.5t-35.5 -38t-20 -54t-6.5 -62.5q0 -44 17.5 -62.5
t46.5 -18.5q54 0 105 42z" />
    <glyph glyph-name="e.sup" horiz-adv-x="351" 
d="M197 342q-37 0 -62.5 11.5t-41 31t-22 46t-6.5 55.5q0 40 12 76t35 63.5t56.5 43.5t77.5 16q55 0 81.5 -25t26.5 -60q0 -41 -25 -63.5t-62 -34.5q-19 -6 -39 -9.5t-39.5 -5.5t-36.5 -3t-29 -1q0 -18 3 -35t12 -30.5t25 -21.5t43 -8q37 0 58.5 18t29.5 43l48 -10
q-15 -50 -54.5 -73.5t-90.5 -23.5zM242 642q-27 0 -47.5 -10t-35 -26.5t-23 -38t-11.5 -45.5q6 0 18.5 1t29 2.5t35 4.5t35.5 8q25 8 40.5 22.5t15.5 37.5q0 22 -15.5 33t-41.5 11z" />
    <glyph glyph-name="f.sup" horiz-adv-x="220" 
d="M296 786q-9 3 -22 5.5t-25 2.5q-23 0 -39 -11.5t-21 -46.5l-9 -57h95l-6 -43h-95l-61 -422h-58l61 422h-50l6 43h50l8 55q8 54 37 79.5t77 25.5q21 0 36.5 -3.5t23.5 -7.5z" />
    <glyph glyph-name="g.sup" horiz-adv-x="381" 
d="M229 638q-31 0 -52 -15t-33.5 -38.5t-18 -51t-5.5 -51.5q0 -46 17.5 -64.5t46.5 -18.5q26 0 54.5 12t51.5 34l23 161q-13 13 -35.5 22.5t-48.5 9.5zM286 397q-22 -21 -52 -33t-63 -12q-48 0 -79 29.5t-31 96.5q0 34 8.5 71t28 67t51.5 49.5t78 19.5q29 0 54 -11t41 -25
l6 30h52l-50 -349q-9 -60 -49 -91.5t-108 -31.5q-59 0 -94 26.5t-40 80.5l55 10q1 -14 5 -27t13 -22.5t23.5 -15.5t37.5 -6q36 0 65 16.5t37 61.5z" />
    <glyph glyph-name="h.sup" horiz-adv-x="394" 
d="M122 350h-58l70 483h58l-31 -198q20 17 56 33.5t74 16.5q49 0 71.5 -27.5t14.5 -84.5l-32 -223h-58l31 217q6 38 -3 54.5t-37 16.5q-33 0 -64 -16t-57 -35z" />
    <glyph glyph-name="i.sup" horiz-adv-x="172" 
d="M120 350h-58l48 329h58zM197 791q0 -22 -12.5 -34.5t-35.5 -12.5q-36 0 -36 34q0 22 12.5 34t34.5 12q37 0 37 -33z" />
    <glyph glyph-name="j.sup" horiz-adv-x="173" 
d="M110 679h58l-55 -375q-8 -51 -33.5 -74t-71.5 -23q-16 0 -36 4t-28 9l12 43q10 -4 22.5 -6.5t25.5 -2.5q20 0 33.5 11t18.5 40zM197 791q0 -22 -12.5 -34.5t-35.5 -12.5q-36 0 -36 34q0 22 12.5 34t34.5 12q37 0 37 -33z" />
    <glyph glyph-name="k.sup" horiz-adv-x="354" 
d="M280 350l-80 172l-61 -52l-17 -120h-58l70 483h58l-44 -299l166 145h69l-135 -119l96 -210h-64z" />
    <glyph glyph-name="l.sup" horiz-adv-x="172" 
d="M132 833h58l-70 -483h-58z" />
    <glyph glyph-name="m.sup" horiz-adv-x="582" 
d="M282 685q36 0 53.5 -14.5t22.5 -37.5q26 21 58.5 36.5t67.5 15.5q51 0 69.5 -30.5t10.5 -81.5l-32 -223h-58l31 226q5 37 -5.5 49t-33.5 12q-14 0 -28.5 -5t-28 -12t-25.5 -15t-20 -15l-35 -240h-57l31 227q5 36 -6 48t-33 12q-15 0 -30.5 -5.5t-30 -13t-27 -16
t-20.5 -14.5l-34 -238h-58l48 329h52l-5 -45h1q23 18 55 34.5t67 16.5z" />
    <glyph glyph-name="n.sup" horiz-adv-x="395" 
d="M122 350h-58l48 329h55l-8 -46h1q20 17 53.5 34.5t74.5 17.5q50 0 73.5 -27.5t15.5 -84.5l-32 -223h-58l31 217q12 71 -46 71q-17 0 -33.5 -5t-31.5 -12.5t-28.5 -16.5t-22.5 -16z" />
    <glyph glyph-name="o.sup" horiz-adv-x="390" 
d="M199 342q-71 0 -103 37.5t-32 104.5q0 39 11.5 75t34.5 64t58 45t82 17q70 0 101 -39.5t31 -102.5q0 -38 -10.5 -74.5t-33 -64.5t-57 -45t-82.5 -17zM205 389q47 0 77.5 30t38.5 95q1 10 1.5 19.5t0.5 18.5q0 87 -80 87q-48 0 -79.5 -30.5t-39.5 -93.5q-1 -9 -1.5 -18
t-0.5 -18q0 -90 83 -90z" />
    <glyph glyph-name="p.sup" horiz-adv-x="396" 
d="M159 634q26 20 57 35.5t68 15.5q46 0 75 -28t29 -96q0 -58 -14 -99.5t-37 -68t-53 -39t-62 -12.5t-57 10.5t-41 24.5l-24 -163h-56l68 465h54zM328 556q0 45 -14.5 63.5t-44.5 18.5q-15 0 -31.5 -5t-31.5 -12t-28 -16t-22 -16l-24 -166q10 -8 32 -20.5t51 -12.5
q33 0 54.5 14.5t34.5 38t18.5 53t5.5 60.5z" />
    <glyph glyph-name="q.sup" horiz-adv-x="389" 
d="M234 685q29 0 52.5 -10t40.5 -25l5 29h54l-67 -465h-55l26 170q-23 -18 -52.5 -30t-61.5 -12q-50 0 -80 29.5t-30 93.5q0 61 14.5 103t38.5 68t54 37.5t61 11.5zM124 474q0 -41 15 -63t50 -22q29 0 57.5 13.5t46.5 30.5l25 178q-10 9 -30.5 19t-48.5 10
q-31 0 -52.5 -13.5t-35.5 -36.5t-20.5 -53t-6.5 -63z" />
    <glyph glyph-name="r.sup" horiz-adv-x="250" 
d="M122 350h-58l48 329h54l-8 -56q27 29 51.5 45.5t59.5 16.5q10 0 15 -1l-8 -57q-33 3 -62 -9.5t-59 -38.5z" />
    <glyph glyph-name="s.sup" horiz-adv-x="330" 
d="M213 685q61 0 88.5 -29t29.5 -72l-49 -7q-2 28 -17 47t-53 19q-41 0 -56.5 -15t-15.5 -35t13 -30t32 -17t41.5 -12.5t41.5 -15.5t32 -26.5t13 -44.5q0 -51 -37 -78t-99 -27q-117 0 -126 100l49 10q4 -28 20.5 -48t60.5 -20q15 0 29 2.5t25.5 9t18.5 17.5t7 27
q0 20 -13 30.5t-32.5 17t-42 11.5t-42 14.5t-32.5 26t-13 46.5q0 26 11 44.5t28.5 30.5t40.5 18t47 6z" />
    <glyph glyph-name="t.sup" horiz-adv-x="261" 
d="M256 363q-14 -8 -37 -14.5t-46 -6.5q-48 0 -70 25.5t-14 75.5l28 193h-52l6 43h52l14 94l59 9l-15 -103h94l-6 -43h-94l-28 -191q-4 -26 2.5 -41t36.5 -15q17 0 33.5 5t27.5 11z" />
    <glyph glyph-name="u.sup" horiz-adv-x="393" 
d="M329 679h58l-48 -329h-49l3 42q-20 -17 -54.5 -33t-73.5 -16q-104 0 -88 114l31 222h58l-30 -234q-4 -33 10 -44t37 -11q30 0 60 15t51 32z" />
    <glyph glyph-name="v.sup" horiz-adv-x="338" 
d="M140 350l-77 329h61l56 -274h1l134 274h60l-169 -329h-66z" />
    <glyph glyph-name="w.sup" horiz-adv-x="505" 
d="M116 350l-53 329h57l38 -274h1l113 274h63l34 -272h1l115 272h57l-147 -329h-68l-32 263h-1l-109 -263h-69z" />
    <glyph glyph-name="x.sup" horiz-adv-x="322" 
d="M250 350l-69 129l-100 -129h-60l134 172l-87 157h60l65 -122l97 122h61l-131 -161l91 -168h-61z" />
    <glyph glyph-name="y.sup" horiz-adv-x="325" 
d="M64 679h60l50 -266l128 266h60l-179 -349q-18 -35 -32 -58.5t-28.5 -38t-31.5 -20.5t-40 -6q-19 0 -34 3.5t-24 8.5l11 41q8 -3 20 -6t26 -3q12 0 22 5t19.5 16t20 29.5t23.5 45.5z" />
    <glyph glyph-name="z.sup" horiz-adv-x="310" 
d="M32 350l6 38l220 248h-183l7 43h249l-6 -39l-218 -245h191l-6 -45h-260z" />
    <glyph glyph-name="minusinferior" horiz-adv-x="433" 
d="M61 49l7 53h239l-8 -53h-238z" />
    <glyph glyph-name="plusinferior" horiz-adv-x="433" 
d="M138 -49l13 93h-91l7 53h92l13 90h56l-14 -90h92l-8 -53h-91l-13 -93h-56z" />
    <glyph glyph-name="equalinferior" horiz-adv-x="435" 
d="M43 -24l8 54h236l-8 -54h-236zM57 77l8 54h237l-8 -54h-237z" />
    <glyph glyph-name="a.sinf" horiz-adv-x="396" 
d="M277 -83q-2 -14 1 -21t15 -7q10 0 22 4l-5 -36q-7 -3 -17 -4.5t-20 -1.5q-23 0 -36.5 11t-12.5 34q-22 -23 -53 -36t-65 -13q-48 0 -78.5 29.5t-30.5 97.5q0 40 9.5 79t30 69.5t51.5 49t75 18.5q29 0 53.5 -11t41.5 -25l5 30h53zM249 111q-13 12 -35.5 22t-48.5 10
q-32 0 -53 -16t-33.5 -40.5t-18 -53t-5.5 -53.5q0 -48 18 -67.5t49 -19.5q24 0 49.5 11.5t52.5 39.5z" />
    <glyph glyph-name="b.sinf" horiz-adv-x="396" 
d="M-4 -145l70 483h57l-29 -197q9 7 22.5 15.5t29.5 16t34 12.5t37 5q45 0 74 -28t29 -96q0 -57 -13.5 -98.5t-36 -68.5t-52 -39.5t-60.5 -12.5t-56.5 10t-45.5 27h-1l-7 -29h-52zM64 -71q11 -8 33 -21t54 -13q30 0 51 14t34 37.5t18.5 53t5.5 61.5q0 43 -14.5 62.5
t-45.5 19.5q-15 0 -31 -5t-31 -12.5t-28 -16t-21 -15.5z" />
    <glyph glyph-name="c.sinf" horiz-adv-x="363" 
d="M132 -153q-72 0 -104 38.5t-32 100.5q0 49 13.5 87t38 64t58.5 39.5t74 13.5q60 0 90.5 -36t24.5 -92l-53 -4q2 39 -12 62.5t-57 23.5q-20 0 -40.5 -7.5t-37.5 -25.5t-28 -47.5t-11 -74.5q0 -53 23.5 -74.5t56.5 -21.5q35 0 59 17.5t35 52.5l50 -10q-7 -28 -21.5 -48
t-34 -33t-43.5 -19t-49 -6z" />
    <glyph glyph-name="d.sinf" horiz-adv-x="389" 
d="M223 -145l1 38q-24 -19 -53.5 -32.5t-62.5 -13.5q-50 0 -80 29.5t-30 95.5q0 60 14.5 101.5t38.5 67.5t54 37.5t60 11.5t53 -9.5t40 -23.5l26 181h56l-69 -483h-48zM250 115q-11 8 -31 19t-48 11q-31 0 -53 -14.5t-35.5 -38t-20 -54t-6.5 -62.5q0 -44 17.5 -62.5
t46.5 -18.5q54 0 105 42z" />
    <glyph glyph-name="e.sinf" horiz-adv-x="351" 
d="M129 -153q-37 0 -62.5 11.5t-41 31t-22 46t-6.5 55.5q0 40 12 76t35 63.5t56.5 43.5t77.5 16q55 0 81.5 -25t26.5 -60q0 -41 -25 -63.5t-62 -34.5q-19 -6 -39 -9.5t-39.5 -5.5t-36.5 -3t-29 -1q0 -18 3 -35t12 -30.5t25 -21.5t43 -8q37 0 58.5 18t29.5 43l48 -10
q-15 -50 -54.5 -73.5t-90.5 -23.5zM174 147q-27 0 -47.5 -10t-35 -26.5t-23 -38t-11.5 -45.5q6 0 18.5 1t29 2.5t35 4.5t35.5 8q25 8 40.5 22.5t15.5 37.5q0 22 -15.5 33t-41.5 11z" />
    <glyph glyph-name="f.sinf" horiz-adv-x="220" 
d="M228 291q-9 3 -22 5.5t-25 2.5q-23 0 -39 -11.5t-21 -46.5l-9 -57h95l-6 -43h-95l-61 -422h-58l61 422h-50l6 43h50l8 55q8 54 37 79.5t77 25.5q21 0 36.5 -3.5t23.5 -7.5z" />
    <glyph glyph-name="g.sinf" horiz-adv-x="381" 
d="M161 143q-31 0 -52 -15t-33.5 -38.5t-18 -51t-5.5 -51.5q0 -46 17.5 -64.5t46.5 -18.5q26 0 54.5 12t51.5 34l23 161q-13 13 -35.5 22.5t-48.5 9.5zM218 -98q-22 -21 -52 -33t-63 -12q-48 0 -79 29.5t-31 96.5q0 34 8.5 71t28 67t51.5 49.5t78 19.5q29 0 54 -11t41 -25
l6 30h52l-50 -349q-9 -60 -49 -91.5t-108 -31.5q-59 0 -94 26.5t-40 80.5l55 10q1 -14 5 -27t13 -22.5t23.5 -15.5t37.5 -6q36 0 65 16.5t37 61.5z" />
    <glyph glyph-name="h.sinf" horiz-adv-x="394" 
d="M54 -145h-58l70 483h58l-31 -198q20 17 56 33.5t74 16.5q49 0 71.5 -27.5t14.5 -84.5l-32 -223h-58l31 217q6 38 -3 54.5t-37 16.5q-33 0 -64 -16t-57 -35z" />
    <glyph glyph-name="i.sinf" horiz-adv-x="172" 
d="M52 -145h-58l48 329h58zM129 296q0 -22 -12.5 -34.5t-35.5 -12.5q-36 0 -36 34q0 22 12.5 34t34.5 12q37 0 37 -33z" />
    <glyph glyph-name="j.sinf" horiz-adv-x="173" 
d="M42 184h58l-55 -375q-8 -51 -33.5 -74t-71.5 -23q-16 0 -36 4t-28 9l12 43q10 -4 22.5 -6.5t25.5 -2.5q20 0 33.5 11t18.5 40zM129 296q0 -22 -12.5 -34.5t-35.5 -12.5q-36 0 -36 34q0 22 12.5 34t34.5 12q37 0 37 -33z" />
    <glyph glyph-name="k.sinf" horiz-adv-x="354" 
d="M212 -145l-80 172l-61 -52l-17 -120h-58l70 483h58l-44 -299l166 145h69l-135 -119l96 -210h-64z" />
    <glyph glyph-name="l.sinf" horiz-adv-x="172" 
d="M64 338h58l-70 -483h-58z" />
    <glyph glyph-name="m.sinf" horiz-adv-x="582" 
d="M214 190q36 0 53.5 -14.5t22.5 -37.5q26 21 58.5 36.5t67.5 15.5q51 0 69.5 -30.5t10.5 -81.5l-32 -223h-58l31 226q5 37 -5.5 49t-33.5 12q-14 0 -28.5 -5t-28 -12t-25.5 -15t-20 -15l-35 -240h-57l31 227q5 36 -6 48t-33 12q-15 0 -30.5 -5.5t-30 -13t-27 -16
t-20.5 -14.5l-34 -238h-58l48 329h52l-5 -45h1q23 18 55 34.5t67 16.5z" />
    <glyph glyph-name="n.sinf" horiz-adv-x="395" 
d="M54 -145h-58l48 329h55l-8 -46h1q20 17 53.5 34.5t74.5 17.5q50 0 73.5 -27.5t15.5 -84.5l-32 -223h-58l31 217q12 71 -46 71q-17 0 -33.5 -5t-31.5 -12.5t-28.5 -16.5t-22.5 -16z" />
    <glyph glyph-name="o.sinf" horiz-adv-x="390" 
d="M131 -153q-71 0 -103 37.5t-32 104.5q0 39 11.5 75t34.5 64t58 45t82 17q70 0 101 -39.5t31 -102.5q0 -38 -10.5 -74.5t-33 -64.5t-57 -45t-82.5 -17zM137 -106q47 0 77.5 30t38.5 95q1 10 1.5 19.5t0.5 18.5q0 87 -80 87q-48 0 -79.5 -30.5t-39.5 -93.5q-1 -9 -1.5 -18
t-0.5 -18q0 -90 83 -90z" />
    <glyph glyph-name="p.sinf" horiz-adv-x="396" 
d="M91 139q26 20 57 35.5t68 15.5q46 0 75 -28t29 -96q0 -58 -14 -99.5t-37 -68t-53 -39t-62 -12.5t-57 10.5t-41 24.5l-24 -163h-56l68 465h54zM260 61q0 45 -14.5 63.5t-44.5 18.5q-15 0 -31.5 -5t-31.5 -12t-28 -16t-22 -16l-24 -166q10 -8 32 -20.5t51 -12.5
q33 0 54.5 14.5t34.5 38t18.5 53t5.5 60.5z" />
    <glyph glyph-name="q.sinf" horiz-adv-x="389" 
d="M166 190q29 0 52.5 -10t40.5 -25l5 29h54l-67 -465h-55l26 170q-23 -18 -52.5 -30t-61.5 -12q-50 0 -80 29.5t-30 93.5q0 61 14.5 103t38.5 68t54 37.5t61 11.5zM56 -21q0 -41 15 -63t50 -22q29 0 57.5 13.5t46.5 30.5l25 178q-10 9 -30.5 19t-48.5 10q-31 0 -52.5 -13.5
t-35.5 -36.5t-20.5 -53t-6.5 -63z" />
    <glyph glyph-name="r.sinf" horiz-adv-x="250" 
d="M54 -145h-58l48 329h54l-8 -56q27 29 51.5 45.5t59.5 16.5q10 0 15 -1l-8 -57q-33 3 -62 -9.5t-59 -38.5z" />
    <glyph glyph-name="s.sinf" horiz-adv-x="330" 
d="M145 190q61 0 88.5 -29t29.5 -72l-49 -7q-2 28 -17 47t-53 19q-41 0 -56.5 -15t-15.5 -35t13 -30t32 -17t41.5 -12.5t41.5 -15.5t32 -26.5t13 -44.5q0 -51 -37 -78t-99 -27q-117 0 -126 100l49 10q4 -28 20.5 -48t60.5 -20q15 0 29 2.5t25.5 9t18.5 17.5t7 27
q0 20 -13 30.5t-32.5 17t-42 11.5t-42 14.5t-32.5 26t-13 46.5q0 26 11 44.5t28.5 30.5t40.5 18t47 6z" />
    <glyph glyph-name="t.sinf" horiz-adv-x="261" 
d="M188 -132q-14 -8 -37 -14.5t-46 -6.5q-48 0 -70 25.5t-14 75.5l28 193h-52l6 43h52l14 94l59 9l-15 -103h94l-6 -43h-94l-28 -191q-4 -26 2.5 -41t36.5 -15q17 0 33.5 5t27.5 11z" />
    <glyph glyph-name="u.sinf" horiz-adv-x="393" 
d="M261 184h58l-48 -329h-49l3 42q-20 -17 -54.5 -33t-73.5 -16q-104 0 -88 114l31 222h58l-30 -234q-4 -33 10 -44t37 -11q30 0 60 15t51 32z" />
    <glyph glyph-name="v.sinf" horiz-adv-x="338" 
d="M72 -145l-77 329h61l56 -274h1l134 274h60l-169 -329h-66z" />
    <glyph glyph-name="w.sinf" horiz-adv-x="505" 
d="M48 -145l-53 329h57l38 -274h1l113 274h63l34 -272h1l115 272h57l-147 -329h-68l-32 263h-1l-109 -263h-69z" />
    <glyph glyph-name="x.sinf" horiz-adv-x="322" 
d="M182 -145l-69 129l-100 -129h-60l134 172l-87 157h60l65 -122l97 122h61l-131 -161l91 -168h-61z" />
    <glyph glyph-name="y.sinf" horiz-adv-x="325" 
d="M-4 184h60l50 -266l128 266h60l-179 -349q-18 -35 -32 -58.5t-28.5 -38t-31.5 -20.5t-40 -6q-19 0 -34 3.5t-24 8.5l11 41q8 -3 20 -6t26 -3q12 0 22 5t19.5 16t20 29.5t23.5 45.5z" />
    <glyph glyph-name="z.sinf" horiz-adv-x="310" 
d="M-36 -145l6 38l220 248h-183l7 43h249l-6 -39l-218 -245h191l-6 -45h-260z" />
    <glyph glyph-name="zero.num" horiz-adv-x="389" 
d="M188 275q-37 0 -61.5 11.5t-39 32t-20.5 49t-6 63.5q0 42 7 94t28 98t59 77.5t99 31.5q35 0 59 -11t38.5 -31t20.5 -47.5t6 -61.5q0 -43 -6.5 -96t-26.5 -99.5t-57.5 -78.5t-99.5 -32zM192 322q41 0 65.5 29t37 70t16.5 85.5t4 76.5q0 19 -3 37t-10.5 31.5t-20.5 22
t-33 8.5q-28 0 -47.5 -13t-33.5 -34.5t-22.5 -49t-13 -55.5t-6 -55t-1.5 -47q0 -17 2 -35.5t8.5 -34.5t20 -26t37.5 -10z" />
    <glyph glyph-name="one.num" horiz-adv-x="290" 
d="M131 284l53 361q-9 -5 -23 -8.5t-28.5 -6t-28 -4t-21.5 -1.5v49q45 4 78 16t59 36h36l-64 -442h-61z" />
    <glyph glyph-name="two.num" horiz-adv-x="351" 
d="M30 282l7 50l124 124q34 34 57 58.5t37 43.5t19.5 35.5t5.5 34.5q0 29 -15.5 42t-47.5 13q-33 0 -55 -18t-35 -57l-54 10q7 30 22 52t35 35.5t45 20t52 6.5q53 0 84 -24.5t31 -73.5q0 -26 -7 -47.5t-22 -43t-37 -45t-52 -52.5l-116 -112h198l-8 -52h-268z" />
    <glyph glyph-name="three.num" horiz-adv-x="373" 
d="M238 732q56 0 86 -25t30 -68q0 -27 -10 -47.5t-25.5 -35.5t-34.5 -24t-36 -13v-2q38 -7 60.5 -29t22.5 -65q0 -68 -43.5 -108t-118.5 -40q-56 0 -90 24.5t-37 78.5l55 10q1 -12 4.5 -23.5t11.5 -21t22 -15.5t37 -6q18 0 35 5.5t30.5 17.5t22 30.5t8.5 44.5q0 40 -23.5 55
t-61.5 15h-40l7 47h29q51 0 81.5 25.5t30.5 67.5q0 22 -13 38t-47 16q-38 0 -57.5 -17t-31.5 -47l-54 11q19 55 58 78t92 23z" />
    <glyph glyph-name="four.num" horiz-adv-x="366" 
d="M232 282l16 108h-210l6 43l235 291h78l-42 -284h54l-7 -50h-54l-16 -108h-60zM256 440l34 227l-185 -227h151z" />
    </font>
</defs>
</svg>
